<?xml version="1.0" standalone="no"?>
<!DOCTYPE svg PUBLIC "-//W3C//DTD SVG 1.1//EN"
"http://www.w3.org/Graphics/SVG/1.1/DTD/svg11.dtd">
<svg width="401.762" height="152.738" viewBox="0 0 8370.05 3182.05" version="1.1"
xmlns="http://www.w3.org/2000/svg"
xmlns:xlink="http://www.w3.org/1999/xlink">
<circle cx="8085.02" cy="541.024" r="35.4" style=""/>
<circle cx="7685.02" cy="541.024" r="35.4" style=""/>
<circle cx="7285.02" cy="541.024" r="35.4" style=""/>
<circle cx="6885.02" cy="541.024" r="35.4" style=""/>
<circle cx="6485.02" cy="541.024" r="35.4" style=""/>
<circle cx="6085.02" cy="541.024" r="35.4" style=""/>
<circle cx="5685.02" cy="541.024" r="35.4" style=""/>
<circle cx="5285.02" cy="541.024" r="35.4" style=""/>
<circle cx="4685.02" cy="541.024" r="35.4" style=""/>
<circle cx="4285.02" cy="541.024" r="35.4" style=""/>
<circle cx="3885.02" cy="541.024" r="35.4" style=""/>
<circle cx="3485.02" cy="541.024" r="35.4" style=""/>
<circle cx="3085.02" cy="541.024" r="35.4" style=""/>
<circle cx="2685.02" cy="541.024" r="35.4" style=""/>
<circle cx="2285.02" cy="541.024" r="35.4" style=""/>
<circle cx="1885.02" cy="541.024" r="35.4" style=""/>
<circle cx="1485.02" cy="541.024" r="35.4" style=""/>
<circle cx="1285.02" cy="541.024" r="35.4" style=""/>
<circle cx="1085.02" cy="541.024" r="35.4" style=""/>
<circle cx="885.024" cy="541.024" r="35.4" style=""/>
<circle cx="485.024" cy="541.024" r="35.4" style=""/>
<circle cx="85.0236" cy="541.024" r="35.4" style=""/>
<circle cx="85.0236" cy="1141.02" r="35.4" style=""/>
<circle cx="485.024" cy="1141.02" r="35.4" style=""/>
<circle cx="885.024" cy="1141.02" r="35.4" style=""/>
<circle cx="1085.02" cy="1141.02" r="35.4" style=""/>
<circle cx="1285.02" cy="1141.02" r="35.4" style=""/>
<circle cx="1485.02" cy="1141.02" r="35.4" style=""/>
<circle cx="1885.02" cy="1141.02" r="35.4" style=""/>
<circle cx="2285.02" cy="1141.02" r="35.4" style=""/>
<circle cx="2685.02" cy="1141.02" r="35.4" style=""/>
<circle cx="3085.02" cy="1141.02" r="35.4" style=""/>
<circle cx="3485.02" cy="1141.02" r="35.4" style=""/>
<circle cx="3885.02" cy="1141.02" r="35.4" style=""/>
<circle cx="4285.02" cy="1141.02" r="35.4" style=""/>
<circle cx="4685.02" cy="1141.02" r="35.4" style=""/>
<circle cx="5285.02" cy="1141.02" r="35.4" style=""/>
<circle cx="5685.02" cy="1141.02" r="35.4" style=""/>
<circle cx="6085.02" cy="1141.02" r="35.4" style=""/>
<circle cx="6485.02" cy="1141.02" r="35.4" style=""/>
<circle cx="6885.02" cy="1141.02" r="35.4" style=""/>
<circle cx="7285.02" cy="1141.02" r="35.4" style=""/>
<circle cx="7685.02" cy="1141.02" r="35.4" style=""/>
<circle cx="8085.02" cy="1141.02" r="35.4" style=""/>
<circle cx="8285.02" cy="241.024" r="40" style=""/>
<circle cx="8085.02" cy="241.024" r="40" style=""/>
<circle cx="7885.02" cy="241.024" r="40" style=""/>
<circle cx="7685.02" cy="241.024" r="40" style=""/>
<circle cx="7485.02" cy="241.024" r="40" style=""/>
<circle cx="7285.02" cy="241.024" r="40" style=""/>
<circle cx="7085.02" cy="241.024" r="40" style=""/>
<circle cx="6885.02" cy="241.024" r="40" style=""/>
<circle cx="6685.02" cy="241.024" r="40" style=""/>
<circle cx="6485.02" cy="241.024" r="40" style=""/>
<circle cx="6285.02" cy="241.024" r="40" style=""/>
<circle cx="6085.02" cy="241.024" r="40" style=""/>
<circle cx="5885.02" cy="241.024" r="40" style=""/>
<circle cx="5685.02" cy="241.024" r="40" style=""/>
<circle cx="5485.02" cy="241.024" r="40" style=""/>
<circle cx="5285.02" cy="241.024" r="40" style=""/>
<circle cx="4885.02" cy="241.024" r="40" style=""/>
<circle cx="4685.02" cy="241.024" r="40" style=""/>
<circle cx="4485.02" cy="241.024" r="40" style=""/>
<circle cx="4285.02" cy="241.024" r="40" style=""/>
<circle cx="4085.02" cy="241.024" r="40" style=""/>
<circle cx="3885.02" cy="241.024" r="40" style=""/>
<circle cx="3685.02" cy="241.024" r="40" style=""/>
<circle cx="3485.02" cy="241.024" r="40" style=""/>
<circle cx="3285.02" cy="241.024" r="40" style=""/>
<circle cx="3085.02" cy="241.024" r="40" style=""/>
<circle cx="2885.02" cy="241.024" r="40" style=""/>
<circle cx="2685.02" cy="241.024" r="40" style=""/>
<circle cx="2485.02" cy="241.024" r="40" style=""/>
<circle cx="2285.02" cy="241.024" r="40" style=""/>
<circle cx="2085.02" cy="241.024" r="40" style=""/>
<circle cx="1885.02" cy="241.024" r="40" style=""/>
<circle cx="1485.02" cy="241.024" r="40" style=""/>
<circle cx="1285.02" cy="241.024" r="40" style=""/>
<circle cx="1085.02" cy="241.024" r="40" style=""/>
<circle cx="885.024" cy="241.024" r="40" style=""/>
<circle cx="6785.02" cy="1741.02" r="43.3" style=""/>
<circle cx="6585.02" cy="1741.02" r="43.3" style=""/>
<circle cx="6385.02" cy="1741.02" r="43.3" style=""/>
<circle cx="6185.02" cy="1741.02" r="43.3" style=""/>
<circle cx="5985.02" cy="1741.02" r="43.3" style=""/>
<circle cx="5785.02" cy="1741.02" r="43.3" style=""/>
<circle cx="5585.02" cy="1741.02" r="43.3" style=""/>
<circle cx="5385.02" cy="1741.02" r="43.3" style=""/>
<circle cx="5185.02" cy="1741.02" r="43.3" style=""/>
<circle cx="4985.02" cy="1741.02" r="43.3" style=""/>
<circle cx="4785.02" cy="1741.02" r="43.3" style=""/>
<circle cx="4585.02" cy="1741.02" r="43.3" style=""/>
<circle cx="4385.02" cy="1741.02" r="43.3" style=""/>
<circle cx="4185.02" cy="1741.02" r="43.3" style=""/>
<circle cx="3985.02" cy="1741.02" r="43.3" style=""/>
<circle cx="3785.02" cy="1741.02" r="43.3" style=""/>
<circle cx="3585.02" cy="1741.02" r="43.3" style=""/>
<circle cx="3385.02" cy="1741.02" r="43.3" style=""/>
<circle cx="3185.02" cy="1741.02" r="43.3" style=""/>
<circle cx="2985.02" cy="1741.02" r="43.3" style=""/>
<circle cx="2785.02" cy="1741.02" r="43.3" style=""/>
<circle cx="2585.02" cy="1741.02" r="43.3" style=""/>
<circle cx="2385.02" cy="1741.02" r="43.3" style=""/>
<circle cx="2185.02" cy="1741.02" r="43.3" style=""/>
<circle cx="2385.02" cy="1941.02" r="43.3" style=""/>
<circle cx="2785.02" cy="1941.02" r="43.3" style=""/>
<circle cx="2985.02" cy="1941.02" r="43.3" style=""/>
<circle cx="3185.02" cy="1941.02" r="43.3" style=""/>
<circle cx="2185.02" cy="2941.02" r="43.3" style=""/>
<circle cx="2385.02" cy="2941.02" r="43.3" style=""/>
<circle cx="2585.02" cy="2941.02" r="43.3" style=""/>
<circle cx="2785.02" cy="2941.02" r="43.3" style=""/>
<circle cx="2685.02" cy="2704.82" r="43.3" style=""/>
<circle cx="2885.02" cy="2704.82" r="43.3" style=""/>
<circle cx="3085.02" cy="2704.82" r="43.3" style=""/>
<circle cx="2985.02" cy="2941.02" r="43.3" style=""/>
<circle cx="3185.02" cy="2941.02" r="43.3" style=""/>
<circle cx="3285.02" cy="2704.82" r="43.3" style=""/>
<circle cx="3485.02" cy="2704.82" r="43.3" style=""/>
<circle cx="3385.02" cy="2941.02" r="43.3" style=""/>
<circle cx="3585.02" cy="2941.02" r="43.3" style=""/>
<circle cx="3785.02" cy="2941.02" r="43.3" style=""/>
<circle cx="3985.02" cy="2941.02" r="43.3" style=""/>
<circle cx="4185.02" cy="2941.02" r="43.3" style=""/>
<circle cx="4385.02" cy="2941.02" r="43.3" style=""/>
<circle cx="4585.02" cy="2941.02" r="43.3" style=""/>
<circle cx="4785.02" cy="2941.02" r="43.3" style=""/>
<circle cx="4985.02" cy="2941.02" r="43.3" style=""/>
<circle cx="5185.02" cy="2941.02" r="43.3" style=""/>
<circle cx="5385.02" cy="2941.02" r="43.3" style=""/>
<circle cx="5585.02" cy="2941.02" r="43.3" style=""/>
<circle cx="5785.02" cy="2741.02" r="43.3" style=""/>
<circle cx="5785.02" cy="2541.02" r="43.3" style=""/>
<circle cx="5785.02" cy="2341.02" r="43.3" style=""/>
<circle cx="5785.02" cy="2141.02" r="43.3" style=""/>
<circle cx="5785.02" cy="1941.02" r="43.3" style=""/>
<circle cx="5785.02" cy="2941.02" r="43.3" style=""/>
<circle cx="5985.02" cy="2941.02" r="43.3" style=""/>
<circle cx="6185.02" cy="2941.02" r="43.3" style=""/>
<circle cx="6385.02" cy="2941.02" r="43.3" style=""/>
<circle cx="6585.02" cy="2941.02" r="43.3" style=""/>
<circle cx="6785.02" cy="2941.02" r="43.3" style=""/>
</svg>
