<?xml version="1.0" standalone="no"?>
<!DOCTYPE svg PUBLIC "-//W3C//DTD SVG 1.1//EN"
"http://www.w3.org/Graphics/SVG/1.1/DTD/svg11.dtd">
<svg width="401.762" height="152.738" viewBox="0 0 8370.05 3182.05" version="1.1"
xmlns="http://www.w3.org/2000/svg"
xmlns:xlink="http://www.w3.org/1999/xlink">
<g fill-rule="evenodd"><path d="M 3548.02,2704.8 L 3546.64,2717.9 L 3542.57,2730.42 L 3535.99,2741.83 L 3527.17,2751.62 L 3516.52,2759.36 L 3504.49,2764.71 L 3491.61,2767.45 L 3478.44,2767.45 L 3465.56,2764.71 L 3453.53,2759.36 L 3442.87,2751.62 L 3434.06,2741.83 L 3427.48,2730.42 L 3423.41,2717.9 L 3422.03,2704.8 L 3423.41,2691.71 L 3427.48,2679.18 L 3434.06,2667.78 L 3442.87,2657.99 L 3453.53,2650.25 L 3465.56,2644.89 L 3478.44,2642.16 L 3491.61,2642.16 L 3504.49,2644.89 L 3516.52,2650.25 L 3527.17,2657.99 L 3535.99,2667.78 L 3542.57,2679.18 L 3546.64,2691.71 L 3548.02,2704.8 z " style="fill-opacity:1.000000;fill:rgb(103,198,105);stroke:rgb(0,0,0);stroke-width:2"/></g>
<g fill-rule="evenodd"><path d="M 3348.02,2704.8 L 3346.64,2717.9 L 3342.57,2730.42 L 3335.99,2741.83 L 3327.17,2751.62 L 3316.52,2759.36 L 3304.49,2764.71 L 3291.61,2767.45 L 3278.44,2767.45 L 3265.56,2764.71 L 3253.53,2759.36 L 3242.87,2751.62 L 3234.06,2741.83 L 3227.48,2730.42 L 3223.41,2717.9 L 3222.03,2704.8 L 3223.41,2691.71 L 3227.48,2679.18 L 3234.06,2667.78 L 3242.87,2657.99 L 3253.53,2650.25 L 3265.56,2644.89 L 3278.44,2642.16 L 3291.61,2642.16 L 3304.49,2644.89 L 3316.52,2650.25 L 3327.17,2657.99 L 3335.99,2667.78 L 3342.57,2679.18 L 3346.64,2691.71 L 3348.02,2704.8 z " style="fill-opacity:1.000000;fill:rgb(115,81,255);stroke:rgb(0,0,0);stroke-width:2"/></g>
<g fill-rule="evenodd"><path d="M 3148.02,2704.8 L 3146.64,2717.9 L 3142.57,2730.42 L 3135.99,2741.83 L 3127.17,2751.62 L 3116.52,2759.36 L 3104.49,2764.71 L 3091.61,2767.45 L 3078.44,2767.45 L 3065.56,2764.71 L 3053.53,2759.36 L 3042.87,2751.62 L 3034.06,2741.83 L 3027.48,2730.42 L 3023.41,2717.9 L 3022.03,2704.8 L 3023.41,2691.71 L 3027.48,2679.18 L 3034.06,2667.78 L 3042.87,2657.99 L 3053.53,2650.25 L 3065.56,2644.89 L 3078.44,2642.16 L 3091.61,2642.16 L 3104.49,2644.89 L 3116.52,2650.25 L 3127.17,2657.99 L 3135.99,2667.78 L 3142.57,2679.18 L 3146.64,2691.71 L 3148.02,2704.8 z " style="fill-opacity:1.000000;fill:rgb(74,236,41);stroke:rgb(0,0,0);stroke-width:2"/></g>
<g fill-rule="evenodd"><path d="M 2948.02,2704.8 L 2946.64,2717.9 L 2942.57,2730.42 L 2935.99,2741.83 L 2927.17,2751.62 L 2916.52,2759.36 L 2904.49,2764.71 L 2891.61,2767.45 L 2878.44,2767.45 L 2865.56,2764.71 L 2853.53,2759.36 L 2842.87,2751.62 L 2834.06,2741.83 L 2827.48,2730.42 L 2823.41,2717.9 L 2822.03,2704.8 L 2823.41,2691.71 L 2827.48,2679.18 L 2834.06,2667.78 L 2842.87,2657.99 L 2853.53,2650.25 L 2865.56,2644.89 L 2878.44,2642.16 L 2891.61,2642.16 L 2904.49,2644.89 L 2916.52,2650.25 L 2927.17,2657.99 L 2935.99,2667.78 L 2942.57,2679.18 L 2946.64,2691.71 L 2948.02,2704.8 z " style="fill-opacity:1.000000;fill:rgb(205,186,171);stroke:rgb(0,0,0);stroke-width:2"/></g>
<g fill-rule="evenodd"><path d="M 2748.02,2704.8 L 2746.64,2717.9 L 2742.57,2730.42 L 2735.99,2741.83 L 2727.17,2751.62 L 2716.52,2759.36 L 2704.49,2764.71 L 2691.61,2767.45 L 2678.44,2767.45 L 2665.56,2764.71 L 2653.53,2759.36 L 2642.87,2751.62 L 2634.06,2741.83 L 2627.48,2730.42 L 2623.41,2717.9 L 2622.03,2704.8 L 2623.41,2691.71 L 2627.48,2679.18 L 2634.06,2667.78 L 2642.87,2657.99 L 2653.53,2650.25 L 2665.56,2644.89 L 2678.44,2642.16 L 2691.61,2642.16 L 2704.49,2644.89 L 2716.52,2650.25 L 2727.17,2657.99 L 2735.99,2667.78 L 2742.57,2679.18 L 2746.64,2691.71 L 2748.02,2704.8 z " style="fill-opacity:1.000000;fill:rgb(242,251,227);stroke:rgb(0,0,0);stroke-width:2"/></g>
<g fill-rule="evenodd"><path d="M 2848.02,1941.02 L 2846.64,1954.12 L 2842.57,1966.64 L 2835.99,1978.05 L 2827.17,1987.84 L 2816.52,1995.58 L 2804.49,2000.93 L 2791.61,2003.67 L 2778.44,2003.67 L 2765.56,2000.93 L 2753.53,1995.58 L 2742.87,1987.84 L 2734.06,1978.05 L 2727.48,1966.64 L 2723.41,1954.12 L 2722.03,1941.02 L 2723.41,1927.93 L 2727.48,1915.4 L 2734.06,1904 L 2742.87,1894.21 L 2753.53,1886.47 L 2765.56,1881.11 L 2778.44,1878.38 L 2791.61,1878.38 L 2804.49,1881.11 L 2816.52,1886.47 L 2827.17,1894.21 L 2835.99,1904 L 2842.57,1915.4 L 2846.64,1927.93 L 2848.02,1941.02 z " style="fill-opacity:1.000000;fill:rgb(70,124,194);stroke:rgb(0,0,0);stroke-width:2"/></g>
<g fill-rule="evenodd"><path d="M 2448.02,1941.02 L 2446.64,1954.12 L 2442.57,1966.64 L 2435.99,1978.05 L 2427.17,1987.84 L 2416.52,1995.58 L 2404.49,2000.93 L 2391.61,2003.67 L 2378.44,2003.67 L 2365.56,2000.93 L 2353.53,1995.58 L 2342.87,1987.84 L 2334.06,1978.05 L 2327.48,1966.64 L 2323.41,1954.12 L 2322.03,1941.02 L 2323.41,1927.93 L 2327.48,1915.4 L 2334.06,1904 L 2342.87,1894.21 L 2353.53,1886.47 L 2365.56,1881.11 L 2378.44,1878.38 L 2391.61,1878.38 L 2404.49,1881.11 L 2416.52,1886.47 L 2427.17,1894.21 L 2435.99,1904 L 2442.57,1915.4 L 2446.64,1927.93 L 2448.02,1941.02 z " style="fill-opacity:1.000000;fill:rgb(84,248,27);stroke:rgb(0,0,0);stroke-width:2"/></g>
<g fill-rule="evenodd"><path d="M 2248.02,1741.02 L 2246.64,1754.12 L 2242.57,1766.64 L 2235.99,1778.05 L 2227.17,1787.84 L 2216.52,1795.58 L 2204.49,1800.93 L 2191.61,1803.67 L 2178.44,1803.67 L 2165.56,1800.93 L 2153.53,1795.58 L 2142.87,1787.84 L 2134.06,1778.05 L 2127.48,1766.64 L 2123.41,1754.12 L 2122.03,1741.02 L 2123.41,1727.93 L 2127.48,1715.4 L 2134.06,1704 L 2142.87,1694.21 L 2153.53,1686.47 L 2165.56,1681.11 L 2178.44,1678.38 L 2191.61,1678.38 L 2204.49,1681.11 L 2216.52,1686.47 L 2227.17,1694.21 L 2235.99,1704 L 2242.57,1715.4 L 2246.64,1727.93 L 2248.02,1741.02 z " style="fill-opacity:1.000000;fill:rgb(232,231,141);stroke:rgb(0,0,0);stroke-width:2"/></g>
<g fill-rule="evenodd"><path d="M 2448.02,1741.02 L 2446.64,1754.12 L 2442.57,1766.64 L 2435.99,1778.05 L 2427.17,1787.84 L 2416.52,1795.58 L 2404.49,1800.93 L 2391.61,1803.67 L 2378.44,1803.67 L 2365.56,1800.93 L 2353.53,1795.58 L 2342.87,1787.84 L 2334.06,1778.05 L 2327.48,1766.64 L 2323.41,1754.12 L 2322.03,1741.02 L 2323.41,1727.93 L 2327.48,1715.4 L 2334.06,1704 L 2342.87,1694.21 L 2353.53,1686.47 L 2365.56,1681.11 L 2378.44,1678.38 L 2391.61,1678.38 L 2404.49,1681.11 L 2416.52,1686.47 L 2427.17,1694.21 L 2435.99,1704 L 2442.57,1715.4 L 2446.64,1727.93 L 2448.02,1741.02 z " style="fill-opacity:1.000000;fill:rgb(118,90,46);stroke:rgb(0,0,0);stroke-width:2"/></g>
<g fill-rule="evenodd"><path d="M 2648.02,1741.02 L 2646.64,1754.12 L 2642.57,1766.64 L 2635.99,1778.05 L 2627.17,1787.84 L 2616.52,1795.58 L 2604.49,1800.93 L 2591.61,1803.67 L 2578.44,1803.67 L 2565.56,1800.93 L 2553.53,1795.58 L 2542.87,1787.84 L 2534.06,1778.05 L 2527.48,1766.64 L 2523.41,1754.12 L 2522.03,1741.02 L 2523.41,1727.93 L 2527.48,1715.4 L 2534.06,1704 L 2542.87,1694.21 L 2553.53,1686.47 L 2565.56,1681.11 L 2578.44,1678.38 L 2591.61,1678.38 L 2604.49,1681.11 L 2616.52,1686.47 L 2627.17,1694.21 L 2635.99,1704 L 2642.57,1715.4 L 2646.64,1727.93 L 2648.02,1741.02 z " style="fill-opacity:1.000000;fill:rgb(99,51,159);stroke:rgb(0,0,0);stroke-width:2"/></g>
<g fill-rule="evenodd"><path d="M 4848.02,1741.02 L 4846.64,1754.12 L 4842.57,1766.64 L 4835.99,1778.05 L 4827.17,1787.84 L 4816.52,1795.58 L 4804.49,1800.93 L 4791.61,1803.67 L 4778.44,1803.67 L 4765.56,1800.93 L 4753.53,1795.58 L 4742.87,1787.84 L 4734.06,1778.05 L 4727.48,1766.64 L 4723.41,1754.12 L 4722.03,1741.02 L 4723.41,1727.93 L 4727.48,1715.4 L 4734.06,1704 L 4742.87,1694.21 L 4753.53,1686.47 L 4765.56,1681.11 L 4778.44,1678.38 L 4791.61,1678.38 L 4804.49,1681.11 L 4816.52,1686.47 L 4827.17,1694.21 L 4835.99,1704 L 4842.57,1715.4 L 4846.64,1727.93 L 4848.02,1741.02 z " style="fill-opacity:1.000000;fill:rgb(201,154,102);stroke:rgb(0,0,0);stroke-width:2"/></g>
<g fill-rule="evenodd"><path d="M 5048.02,1741.02 L 5046.64,1754.12 L 5042.57,1766.64 L 5035.99,1778.05 L 5027.17,1787.84 L 5016.52,1795.58 L 5004.49,1800.93 L 4991.61,1803.67 L 4978.44,1803.67 L 4965.56,1800.93 L 4953.53,1795.58 L 4942.87,1787.84 L 4934.06,1778.05 L 4927.48,1766.64 L 4923.41,1754.12 L 4922.03,1741.02 L 4923.41,1727.93 L 4927.48,1715.4 L 4934.06,1704 L 4942.87,1694.21 L 4953.53,1686.47 L 4965.56,1681.11 L 4978.44,1678.38 L 4991.61,1678.38 L 5004.49,1681.11 L 5016.52,1686.47 L 5027.17,1694.21 L 5035.99,1704 L 5042.57,1715.4 L 5046.64,1727.93 L 5048.02,1741.02 z " style="fill-opacity:1.000000;fill:rgb(50,13,183);stroke:rgb(0,0,0);stroke-width:2"/></g>
<g fill-rule="evenodd"><path d="M 2448.02,2941.02 L 2446.64,2954.12 L 2442.57,2966.64 L 2435.99,2978.05 L 2427.17,2987.84 L 2416.52,2995.58 L 2404.49,3000.93 L 2391.61,3003.67 L 2378.44,3003.67 L 2365.56,3000.93 L 2353.53,2995.58 L 2342.87,2987.84 L 2334.06,2978.05 L 2327.48,2966.64 L 2323.41,2954.12 L 2322.03,2941.02 L 2323.41,2927.93 L 2327.48,2915.4 L 2334.06,2904 L 2342.87,2894.21 L 2353.53,2886.47 L 2365.56,2881.11 L 2378.44,2878.38 L 2391.61,2878.38 L 2404.49,2881.11 L 2416.52,2886.47 L 2427.17,2894.21 L 2435.99,2904 L 2442.57,2915.4 L 2446.64,2927.93 L 2448.02,2941.02 z " style="fill-opacity:1.000000;fill:rgb(49,88,163);stroke:rgb(0,0,0);stroke-width:2"/></g>
<g fill-rule="evenodd"><path d="M 2648.02,2941.02 L 2646.64,2954.12 L 2642.57,2966.64 L 2635.99,2978.05 L 2627.17,2987.84 L 2616.52,2995.58 L 2604.49,3000.93 L 2591.61,3003.67 L 2578.44,3003.67 L 2565.56,3000.93 L 2553.53,2995.58 L 2542.87,2987.84 L 2534.06,2978.05 L 2527.48,2966.64 L 2523.41,2954.12 L 2522.03,2941.02 L 2523.41,2927.93 L 2527.48,2915.4 L 2534.06,2904 L 2542.87,2894.21 L 2553.53,2886.47 L 2565.56,2881.11 L 2578.44,2878.38 L 2591.61,2878.38 L 2604.49,2881.11 L 2616.52,2886.47 L 2627.17,2894.21 L 2635.99,2904 L 2642.57,2915.4 L 2646.64,2927.93 L 2648.02,2941.02 z " style="fill-opacity:1.000000;fill:rgb(90,37,93);stroke:rgb(0,0,0);stroke-width:2"/></g>
<g fill-rule="evenodd"><path d="M 2848.02,2941.02 L 2846.64,2954.12 L 2842.57,2966.64 L 2835.99,2978.05 L 2827.17,2987.84 L 2816.52,2995.58 L 2804.49,3000.93 L 2791.61,3003.67 L 2778.44,3003.67 L 2765.56,3000.93 L 2753.53,2995.58 L 2742.87,2987.84 L 2734.06,2978.05 L 2727.48,2966.64 L 2723.41,2954.12 L 2722.03,2941.02 L 2723.41,2927.93 L 2727.48,2915.4 L 2734.06,2904 L 2742.87,2894.21 L 2753.53,2886.47 L 2765.56,2881.11 L 2778.44,2878.38 L 2791.61,2878.38 L 2804.49,2881.11 L 2816.52,2886.47 L 2827.17,2894.21 L 2835.99,2904 L 2842.57,2915.4 L 2846.64,2927.93 L 2848.02,2941.02 z " style="fill-opacity:1.000000;fill:rgb(5,23,88);stroke:rgb(0,0,0);stroke-width:2"/></g>
<g fill-rule="evenodd"><path d="M 3048.02,2941.02 L 3046.64,2954.12 L 3042.57,2966.64 L 3035.99,2978.05 L 3027.17,2987.84 L 3016.52,2995.58 L 3004.49,3000.93 L 2991.61,3003.67 L 2978.44,3003.67 L 2965.56,3000.93 L 2953.53,2995.58 L 2942.87,2987.84 L 2934.06,2978.05 L 2927.48,2966.64 L 2923.41,2954.12 L 2922.03,2941.02 L 2923.41,2927.93 L 2927.48,2915.4 L 2934.06,2904 L 2942.87,2894.21 L 2953.53,2886.47 L 2965.56,2881.11 L 2978.44,2878.38 L 2991.61,2878.38 L 3004.49,2881.11 L 3016.52,2886.47 L 3027.17,2894.21 L 3035.99,2904 L 3042.57,2915.4 L 3046.64,2927.93 L 3048.02,2941.02 z " style="fill-opacity:1.000000;fill:rgb(233,94,212);stroke:rgb(0,0,0);stroke-width:2"/></g>
<g fill-rule="evenodd"><path d="M 3248.02,2941.02 L 3246.64,2954.12 L 3242.57,2966.64 L 3235.99,2978.05 L 3227.17,2987.84 L 3216.52,2995.58 L 3204.49,3000.93 L 3191.61,3003.67 L 3178.44,3003.67 L 3165.56,3000.93 L 3153.53,2995.58 L 3142.87,2987.84 L 3134.06,2978.05 L 3127.48,2966.64 L 3123.41,2954.12 L 3122.03,2941.02 L 3123.41,2927.93 L 3127.48,2915.4 L 3134.06,2904 L 3142.87,2894.21 L 3153.53,2886.47 L 3165.56,2881.11 L 3178.44,2878.38 L 3191.61,2878.38 L 3204.49,2881.11 L 3216.52,2886.47 L 3227.17,2894.21 L 3235.99,2904 L 3242.57,2915.4 L 3246.64,2927.93 L 3248.02,2941.02 z " style="fill-opacity:1.000000;fill:rgb(171,178,205);stroke:rgb(0,0,0);stroke-width:2"/></g>
<g fill-rule="evenodd"><path d="M 3448.02,2941.02 L 3446.64,2954.12 L 3442.57,2966.64 L 3435.99,2978.05 L 3427.17,2987.84 L 3416.52,2995.58 L 3404.49,3000.93 L 3391.61,3003.67 L 3378.44,3003.67 L 3365.56,3000.93 L 3353.53,2995.58 L 3342.87,2987.84 L 3334.06,2978.05 L 3327.48,2966.64 L 3323.41,2954.12 L 3322.03,2941.02 L 3323.41,2927.93 L 3327.48,2915.4 L 3334.06,2904 L 3342.87,2894.21 L 3353.53,2886.47 L 3365.56,2881.11 L 3378.44,2878.38 L 3391.61,2878.38 L 3404.49,2881.11 L 3416.52,2886.47 L 3427.17,2894.21 L 3435.99,2904 L 3442.57,2915.4 L 3446.64,2927.93 L 3448.02,2941.02 z " style="fill-opacity:1.000000;fill:rgb(198,155,180);stroke:rgb(0,0,0);stroke-width:2"/></g>
<g fill-rule="evenodd"><path d="M 3648.02,2941.02 L 3646.64,2954.12 L 3642.57,2966.64 L 3635.99,2978.05 L 3627.17,2987.84 L 3616.52,2995.58 L 3604.49,3000.93 L 3591.61,3003.67 L 3578.44,3003.67 L 3565.56,3000.93 L 3553.53,2995.58 L 3542.87,2987.84 L 3534.06,2978.05 L 3527.48,2966.64 L 3523.41,2954.12 L 3522.03,2941.02 L 3523.41,2927.93 L 3527.48,2915.4 L 3534.06,2904 L 3542.87,2894.21 L 3553.53,2886.47 L 3565.56,2881.11 L 3578.44,2878.38 L 3591.61,2878.38 L 3604.49,2881.11 L 3616.52,2886.47 L 3627.17,2894.21 L 3635.99,2904 L 3642.57,2915.4 L 3646.64,2927.93 L 3648.02,2941.02 z " style="fill-opacity:1.000000;fill:rgb(84,17,14);stroke:rgb(0,0,0);stroke-width:2"/></g>
<g fill-rule="evenodd"><path d="M 3848.02,2941.02 L 3846.64,2954.12 L 3842.57,2966.64 L 3835.99,2978.05 L 3827.17,2987.84 L 3816.52,2995.58 L 3804.49,3000.93 L 3791.61,3003.67 L 3778.44,3003.67 L 3765.56,3000.93 L 3753.53,2995.58 L 3742.87,2987.84 L 3734.06,2978.05 L 3727.48,2966.64 L 3723.41,2954.12 L 3722.03,2941.02 L 3723.41,2927.93 L 3727.48,2915.4 L 3734.06,2904 L 3742.87,2894.21 L 3753.53,2886.47 L 3765.56,2881.11 L 3778.44,2878.38 L 3791.61,2878.38 L 3804.49,2881.11 L 3816.52,2886.47 L 3827.17,2894.21 L 3835.99,2904 L 3842.57,2915.4 L 3846.64,2927.93 L 3848.02,2941.02 z " style="fill-opacity:1.000000;fill:rgb(130,116,65);stroke:rgb(0,0,0);stroke-width:2"/></g>
<g fill-rule="evenodd"><path d="M 4048.02,2941.02 L 4046.64,2954.12 L 4042.57,2966.64 L 4035.99,2978.05 L 4027.17,2987.84 L 4016.52,2995.58 L 4004.49,3000.93 L 3991.61,3003.67 L 3978.44,3003.67 L 3965.56,3000.93 L 3953.53,2995.58 L 3942.87,2987.84 L 3934.06,2978.05 L 3927.48,2966.64 L 3923.41,2954.12 L 3922.03,2941.02 L 3923.41,2927.93 L 3927.48,2915.4 L 3934.06,2904 L 3942.87,2894.21 L 3953.53,2886.47 L 3965.56,2881.11 L 3978.44,2878.38 L 3991.61,2878.38 L 4004.49,2881.11 L 4016.52,2886.47 L 4027.17,2894.21 L 4035.99,2904 L 4042.57,2915.4 L 4046.64,2927.93 L 4048.02,2941.02 z " style="fill-opacity:1.000000;fill:rgb(33,61,220);stroke:rgb(0,0,0);stroke-width:2"/></g>
<g fill-rule="evenodd"><path d="M 4248.02,2941.02 L 4246.64,2954.12 L 4242.57,2966.64 L 4235.99,2978.05 L 4227.17,2987.84 L 4216.52,2995.58 L 4204.49,3000.93 L 4191.61,3003.67 L 4178.44,3003.67 L 4165.56,3000.93 L 4153.53,2995.58 L 4142.87,2987.84 L 4134.06,2978.05 L 4127.48,2966.64 L 4123.41,2954.12 L 4122.03,2941.02 L 4123.41,2927.93 L 4127.48,2915.4 L 4134.06,2904 L 4142.87,2894.21 L 4153.53,2886.47 L 4165.56,2881.11 L 4178.44,2878.38 L 4191.61,2878.38 L 4204.49,2881.11 L 4216.52,2886.47 L 4227.17,2894.21 L 4235.99,2904 L 4242.57,2915.4 L 4246.64,2927.93 L 4248.02,2941.02 z " style="fill-opacity:1.000000;fill:rgb(135,112,233);stroke:rgb(0,0,0);stroke-width:2"/></g>
<g fill-rule="evenodd"><path d="M 4448.02,2941.02 L 4446.64,2954.12 L 4442.57,2966.64 L 4435.99,2978.05 L 4427.17,2987.84 L 4416.52,2995.58 L 4404.49,3000.93 L 4391.61,3003.67 L 4378.44,3003.67 L 4365.56,3000.93 L 4353.53,2995.58 L 4342.87,2987.84 L 4334.06,2978.05 L 4327.48,2966.64 L 4323.41,2954.12 L 4322.03,2941.02 L 4323.41,2927.93 L 4327.48,2915.4 L 4334.06,2904 L 4342.87,2894.21 L 4353.53,2886.47 L 4365.56,2881.11 L 4378.44,2878.38 L 4391.61,2878.38 L 4404.49,2881.11 L 4416.52,2886.47 L 4427.17,2894.21 L 4435.99,2904 L 4442.57,2915.4 L 4446.64,2927.93 L 4448.02,2941.02 z " style="fill-opacity:1.000000;fill:rgb(62,161,65);stroke:rgb(0,0,0);stroke-width:2"/></g>
<g fill-rule="evenodd"><path d="M 4648.02,2941.02 L 4646.64,2954.12 L 4642.57,2966.64 L 4635.99,2978.05 L 4627.17,2987.84 L 4616.52,2995.58 L 4604.49,3000.93 L 4591.61,3003.67 L 4578.44,3003.67 L 4565.56,3000.93 L 4553.53,2995.58 L 4542.87,2987.84 L 4534.06,2978.05 L 4527.48,2966.64 L 4523.41,2954.12 L 4522.03,2941.02 L 4523.41,2927.93 L 4527.48,2915.4 L 4534.06,2904 L 4542.87,2894.21 L 4553.53,2886.47 L 4565.56,2881.11 L 4578.44,2878.38 L 4591.61,2878.38 L 4604.49,2881.11 L 4616.52,2886.47 L 4627.17,2894.21 L 4635.99,2904 L 4642.57,2915.4 L 4646.64,2927.93 L 4648.02,2941.02 z " style="fill-opacity:1.000000;fill:rgb(225,252,103);stroke:rgb(0,0,0);stroke-width:2"/></g>
<g fill-rule="evenodd"><path d="M 5448.02,1741.02 L 5446.64,1754.12 L 5442.57,1766.64 L 5435.99,1778.05 L 5427.17,1787.84 L 5416.52,1795.58 L 5404.49,1800.93 L 5391.61,1803.67 L 5378.44,1803.67 L 5365.56,1800.93 L 5353.53,1795.58 L 5342.87,1787.84 L 5334.06,1778.05 L 5327.48,1766.64 L 5323.41,1754.12 L 5322.03,1741.02 L 5323.41,1727.93 L 5327.48,1715.4 L 5334.06,1704 L 5342.87,1694.21 L 5353.53,1686.47 L 5365.56,1681.11 L 5378.44,1678.38 L 5391.61,1678.38 L 5404.49,1681.11 L 5416.52,1686.47 L 5427.17,1694.21 L 5435.99,1704 L 5442.57,1715.4 L 5446.64,1727.93 L 5448.02,1741.02 z " style="fill-opacity:1.000000;fill:rgb(62,1,126);stroke:rgb(0,0,0);stroke-width:2"/></g>
<g fill-rule="evenodd"><path d="M 6648.02,1741.02 L 6646.64,1754.12 L 6642.57,1766.64 L 6635.99,1778.05 L 6627.17,1787.84 L 6616.52,1795.58 L 6604.49,1800.93 L 6591.61,1803.67 L 6578.44,1803.67 L 6565.56,1800.93 L 6553.53,1795.58 L 6542.87,1787.84 L 6534.06,1778.05 L 6527.48,1766.64 L 6523.41,1754.12 L 6522.03,1741.02 L 6523.41,1727.93 L 6527.48,1715.4 L 6534.06,1704 L 6542.87,1694.21 L 6553.53,1686.47 L 6565.56,1681.11 L 6578.44,1678.38 L 6591.61,1678.38 L 6604.49,1681.11 L 6616.52,1686.47 L 6627.17,1694.21 L 6635.99,1704 L 6642.57,1715.4 L 6646.64,1727.93 L 6648.02,1741.02 z " style="fill-opacity:1.000000;fill:rgb(151,234,220);stroke:rgb(0,0,0);stroke-width:2"/></g>
<g fill-rule="evenodd"><path d="M 6848.02,1741.02 L 6846.64,1754.12 L 6842.57,1766.64 L 6835.99,1778.05 L 6827.17,1787.84 L 6816.52,1795.58 L 6804.49,1800.93 L 6791.61,1803.67 L 6778.44,1803.67 L 6765.56,1800.93 L 6753.53,1795.58 L 6742.87,1787.84 L 6734.06,1778.05 L 6727.48,1766.64 L 6723.41,1754.12 L 6722.03,1741.02 L 6723.41,1727.93 L 6727.48,1715.4 L 6734.06,1704 L 6742.87,1694.21 L 6753.53,1686.47 L 6765.56,1681.11 L 6778.44,1678.38 L 6791.61,1678.38 L 6804.49,1681.11 L 6816.52,1686.47 L 6827.17,1694.21 L 6835.99,1704 L 6842.57,1715.4 L 6846.64,1727.93 L 6848.02,1741.02 z " style="fill-opacity:1.000000;fill:rgb(107,150,143);stroke:rgb(0,0,0);stroke-width:2"/></g>
<g fill-rule="evenodd"><path d="M 5848.02,1941.02 L 5846.64,1954.12 L 5842.57,1966.64 L 5835.99,1978.05 L 5827.17,1987.84 L 5816.52,1995.58 L 5804.49,2000.93 L 5791.61,2003.67 L 5778.44,2003.67 L 5765.56,2000.93 L 5753.53,1995.58 L 5742.87,1987.84 L 5734.06,1978.05 L 5727.48,1966.64 L 5723.41,1954.12 L 5722.03,1941.02 L 5723.41,1927.93 L 5727.48,1915.4 L 5734.06,1904 L 5742.87,1894.21 L 5753.53,1886.47 L 5765.56,1881.11 L 5778.44,1878.38 L 5791.61,1878.38 L 5804.49,1881.11 L 5816.52,1886.47 L 5827.17,1894.21 L 5835.99,1904 L 5842.57,1915.4 L 5846.64,1927.93 L 5848.02,1941.02 z " style="fill-opacity:1.000000;fill:rgb(56,92,42);stroke:rgb(0,0,0);stroke-width:2"/></g>
<g fill-rule="evenodd"><path d="M 5848.02,2141.02 L 5846.64,2154.12 L 5842.57,2166.64 L 5835.99,2178.05 L 5827.17,2187.84 L 5816.52,2195.58 L 5804.49,2200.93 L 5791.61,2203.67 L 5778.44,2203.67 L 5765.56,2200.93 L 5753.53,2195.58 L 5742.87,2187.84 L 5734.06,2178.05 L 5727.48,2166.64 L 5723.41,2154.12 L 5722.03,2141.02 L 5723.41,2127.93 L 5727.48,2115.4 L 5734.06,2104 L 5742.87,2094.21 L 5753.53,2086.47 L 5765.56,2081.11 L 5778.44,2078.38 L 5791.61,2078.38 L 5804.49,2081.11 L 5816.52,2086.47 L 5827.17,2094.21 L 5835.99,2104 L 5842.57,2115.4 L 5846.64,2127.93 L 5848.02,2141.02 z " style="fill-opacity:1.000000;fill:rgb(236,176,59);stroke:rgb(0,0,0);stroke-width:2"/></g>
<g fill-rule="evenodd"><path d="M 5848.02,2341.02 L 5846.64,2354.12 L 5842.57,2366.64 L 5835.99,2378.05 L 5827.17,2387.84 L 5816.52,2395.58 L 5804.49,2400.93 L 5791.61,2403.67 L 5778.44,2403.67 L 5765.56,2400.93 L 5753.53,2395.58 L 5742.87,2387.84 L 5734.06,2378.05 L 5727.48,2366.64 L 5723.41,2354.12 L 5722.03,2341.02 L 5723.41,2327.93 L 5727.48,2315.4 L 5734.06,2304 L 5742.87,2294.21 L 5753.53,2286.47 L 5765.56,2281.11 L 5778.44,2278.38 L 5791.61,2278.38 L 5804.49,2281.11 L 5816.52,2286.47 L 5827.17,2294.21 L 5835.99,2304 L 5842.57,2315.4 L 5846.64,2327.93 L 5848.02,2341.02 z " style="fill-opacity:1.000000;fill:rgb(251,50,175);stroke:rgb(0,0,0);stroke-width:2"/></g>
<g fill-rule="evenodd"><path d="M 5848.02,2541.02 L 5846.64,2554.12 L 5842.57,2566.64 L 5835.99,2578.05 L 5827.17,2587.84 L 5816.52,2595.58 L 5804.49,2600.93 L 5791.61,2603.67 L 5778.44,2603.67 L 5765.56,2600.93 L 5753.53,2595.58 L 5742.87,2587.84 L 5734.06,2578.05 L 5727.48,2566.64 L 5723.41,2554.12 L 5722.03,2541.02 L 5723.41,2527.93 L 5727.48,2515.4 L 5734.06,2504 L 5742.87,2494.21 L 5753.53,2486.47 L 5765.56,2481.11 L 5778.44,2478.38 L 5791.61,2478.38 L 5804.49,2481.11 L 5816.52,2486.47 L 5827.17,2494.21 L 5835.99,2504 L 5842.57,2515.4 L 5846.64,2527.93 L 5848.02,2541.02 z " style="fill-opacity:1.000000;fill:rgb(60,84,236);stroke:rgb(0,0,0);stroke-width:2"/></g>
<g fill-rule="evenodd"><path d="M 5848.02,2741.02 L 5846.64,2754.12 L 5842.57,2766.64 L 5835.99,2778.05 L 5827.17,2787.84 L 5816.52,2795.58 L 5804.49,2800.93 L 5791.61,2803.67 L 5778.44,2803.67 L 5765.56,2800.93 L 5753.53,2795.58 L 5742.87,2787.84 L 5734.06,2778.05 L 5727.48,2766.64 L 5723.41,2754.12 L 5722.03,2741.02 L 5723.41,2727.93 L 5727.48,2715.4 L 5734.06,2704 L 5742.87,2694.21 L 5753.53,2686.47 L 5765.56,2681.11 L 5778.44,2678.38 L 5791.61,2678.38 L 5804.49,2681.11 L 5816.52,2686.47 L 5827.17,2694.21 L 5835.99,2704 L 5842.57,2715.4 L 5846.64,2727.93 L 5848.02,2741.02 z " style="fill-opacity:1.000000;fill:rgb(24,219,92);stroke:rgb(0,0,0);stroke-width:2"/></g>
<g fill-rule="evenodd"><path d="M 6448.02,2941.02 L 6446.64,2954.12 L 6442.57,2966.64 L 6435.99,2978.05 L 6427.17,2987.84 L 6416.52,2995.58 L 6404.49,3000.93 L 6391.61,3003.67 L 6378.44,3003.67 L 6365.56,3000.93 L 6353.53,2995.58 L 6342.87,2987.84 L 6334.06,2978.05 L 6327.48,2966.64 L 6323.41,2954.12 L 6322.03,2941.02 L 6323.41,2927.93 L 6327.48,2915.4 L 6334.06,2904 L 6342.87,2894.21 L 6353.53,2886.47 L 6365.56,2881.11 L 6378.44,2878.38 L 6391.61,2878.38 L 6404.49,2881.11 L 6416.52,2886.47 L 6427.17,2894.21 L 6435.99,2904 L 6442.57,2915.4 L 6446.64,2927.93 L 6448.02,2941.02 z " style="fill-opacity:1.000000;fill:rgb(2,26,254);stroke:rgb(0,0,0);stroke-width:2"/></g>
<g fill-rule="evenodd"><path d="M 6248.02,2941.02 L 6246.64,2954.12 L 6242.57,2966.64 L 6235.99,2978.05 L 6227.17,2987.84 L 6216.52,2995.58 L 6204.49,3000.93 L 6191.61,3003.67 L 6178.44,3003.67 L 6165.56,3000.93 L 6153.53,2995.58 L 6142.87,2987.84 L 6134.06,2978.05 L 6127.48,2966.64 L 6123.41,2954.12 L 6122.03,2941.02 L 6123.41,2927.93 L 6127.48,2915.4 L 6134.06,2904 L 6142.87,2894.21 L 6153.53,2886.47 L 6165.56,2881.11 L 6178.44,2878.38 L 6191.61,2878.38 L 6204.49,2881.11 L 6216.52,2886.47 L 6227.17,2894.21 L 6235.99,2904 L 6242.57,2915.4 L 6246.64,2927.93 L 6248.02,2941.02 z " style="fill-opacity:1.000000;fill:rgb(67,251,250);stroke:rgb(0,0,0);stroke-width:2"/></g>
<g fill-rule="evenodd"><path d="M 4848.02,2941.02 L 4846.64,2954.12 L 4842.57,2966.64 L 4835.99,2978.05 L 4827.17,2987.84 L 4816.52,2995.58 L 4804.49,3000.93 L 4791.61,3003.67 L 4778.44,3003.67 L 4765.56,3000.93 L 4753.53,2995.58 L 4742.87,2987.84 L 4734.06,2978.05 L 4727.48,2966.64 L 4723.41,2954.12 L 4722.03,2941.02 L 4723.41,2927.93 L 4727.48,2915.4 L 4734.06,2904 L 4742.87,2894.21 L 4753.53,2886.47 L 4765.56,2881.11 L 4778.44,2878.38 L 4791.61,2878.38 L 4804.49,2881.11 L 4816.52,2886.47 L 4827.17,2894.21 L 4835.99,2904 L 4842.57,2915.4 L 4846.64,2927.93 L 4848.02,2941.02 z " style="fill-opacity:1.000000;fill:rgb(170,58,251);stroke:rgb(0,0,0);stroke-width:2"/></g>
<g fill-rule="evenodd"><path d="M 5248.02,2941.02 L 5246.64,2954.12 L 5242.57,2966.64 L 5235.99,2978.05 L 5227.17,2987.84 L 5216.52,2995.58 L 5204.49,3000.93 L 5191.61,3003.67 L 5178.44,3003.67 L 5165.56,3000.93 L 5153.53,2995.58 L 5142.87,2987.84 L 5134.06,2978.05 L 5127.48,2966.64 L 5123.41,2954.12 L 5122.03,2941.02 L 5123.41,2927.93 L 5127.48,2915.4 L 5134.06,2904 L 5142.87,2894.21 L 5153.53,2886.47 L 5165.56,2881.11 L 5178.44,2878.38 L 5191.61,2878.38 L 5204.49,2881.11 L 5216.52,2886.47 L 5227.17,2894.21 L 5235.99,2904 L 5242.57,2915.4 L 5246.64,2927.93 L 5248.02,2941.02 z " style="fill-opacity:1.000000;fill:rgb(41,209,230);stroke:rgb(0,0,0);stroke-width:2"/></g>
<g fill-rule="evenodd"><path d="M 6048.02,2941.02 L 6046.64,2954.12 L 6042.57,2966.64 L 6035.99,2978.05 L 6027.17,2987.84 L 6016.52,2995.58 L 6004.49,3000.93 L 5991.61,3003.67 L 5978.44,3003.67 L 5965.56,3000.93 L 5953.53,2995.58 L 5942.87,2987.84 L 5934.06,2978.05 L 5927.48,2966.64 L 5923.41,2954.12 L 5922.03,2941.02 L 5923.41,2927.93 L 5927.48,2915.4 L 5934.06,2904 L 5942.87,2894.21 L 5953.53,2886.47 L 5965.56,2881.11 L 5978.44,2878.38 L 5991.61,2878.38 L 6004.49,2881.11 L 6016.52,2886.47 L 6027.17,2894.21 L 6035.99,2904 L 6042.57,2915.4 L 6046.64,2927.93 L 6048.02,2941.02 z " style="fill-opacity:1.000000;fill:rgb(5,60,124);stroke:rgb(0,0,0);stroke-width:2"/></g>
<g fill-rule="evenodd"><path d="M 5848.02,2941.02 L 5846.64,2954.12 L 5842.57,2966.64 L 5835.99,2978.05 L 5827.17,2987.84 L 5816.52,2995.58 L 5804.49,3000.93 L 5791.61,3003.67 L 5778.44,3003.67 L 5765.56,3000.93 L 5753.53,2995.58 L 5742.87,2987.84 L 5734.06,2978.05 L 5727.48,2966.64 L 5723.41,2954.12 L 5722.03,2941.02 L 5723.41,2927.93 L 5727.48,2915.4 L 5734.06,2904 L 5742.87,2894.21 L 5753.53,2886.47 L 5765.56,2881.11 L 5778.44,2878.38 L 5791.61,2878.38 L 5804.49,2881.11 L 5816.52,2886.47 L 5827.17,2894.21 L 5835.99,2904 L 5842.57,2915.4 L 5846.64,2927.93 L 5848.02,2941.02 z " style="fill-opacity:1.000000;fill:rgb(148,117,216);stroke:rgb(0,0,0);stroke-width:2"/></g>
<g fill-rule="evenodd"><path d="M 5648.02,2941.02 L 5646.64,2954.12 L 5642.57,2966.64 L 5635.99,2978.05 L 5627.17,2987.84 L 5616.52,2995.58 L 5604.49,3000.93 L 5591.61,3003.67 L 5578.44,3003.67 L 5565.56,3000.93 L 5553.53,2995.58 L 5542.87,2987.84 L 5534.06,2978.05 L 5527.48,2966.64 L 5523.41,2954.12 L 5522.03,2941.02 L 5523.41,2927.93 L 5527.48,2915.4 L 5534.06,2904 L 5542.87,2894.21 L 5553.53,2886.47 L 5565.56,2881.11 L 5578.44,2878.38 L 5591.61,2878.38 L 5604.49,2881.11 L 5616.52,2886.47 L 5627.17,2894.21 L 5635.99,2904 L 5642.57,2915.4 L 5646.64,2927.93 L 5648.02,2941.02 z " style="fill-opacity:1.000000;fill:rgb(190,97,137);stroke:rgb(0,0,0);stroke-width:2"/></g>
<g fill-rule="evenodd"><path d="M 5448.02,2941.02 L 5446.64,2954.12 L 5442.57,2966.64 L 5435.99,2978.05 L 5427.17,2987.84 L 5416.52,2995.58 L 5404.49,3000.93 L 5391.61,3003.67 L 5378.44,3003.67 L 5365.56,3000.93 L 5353.53,2995.58 L 5342.87,2987.84 L 5334.06,2978.05 L 5327.48,2966.64 L 5323.41,2954.12 L 5322.03,2941.02 L 5323.41,2927.93 L 5327.48,2915.4 L 5334.06,2904 L 5342.87,2894.21 L 5353.53,2886.47 L 5365.56,2881.11 L 5378.44,2878.38 L 5391.61,2878.38 L 5404.49,2881.11 L 5416.52,2886.47 L 5427.17,2894.21 L 5435.99,2904 L 5442.57,2915.4 L 5446.64,2927.93 L 5448.02,2941.02 z " style="fill-opacity:1.000000;fill:rgb(249,92,187);stroke:rgb(0,0,0);stroke-width:2"/></g>
<g fill-rule="evenodd"><path d="M 3953.83,1167.41 L 4206.24,1419.81 L 4209.97,1424.36 L 4212.74,1429.54 L 4214.45,1435.17 L 4215.02,1441.02 L 4215.02,1685.8 L 4216.52,1686.47 L 4227.17,1694.21 L 4235.99,1704 L 4242.57,1715.4 L 4246.64,1727.93 L 4248.02,1741.02 L 4246.64,1754.12 L 4242.57,1766.64 L 4235.99,1778.05 L 4227.17,1787.84 L 4216.52,1795.58 L 4204.49,1800.93 L 4191.61,1803.67 L 4178.44,1803.67 L 4165.56,1800.93 L 4153.53,1795.58 L 4142.87,1787.84 L 4134.06,1778.05 L 4127.48,1766.64 L 4123.41,1754.12 L 4122.03,1741.02 L 4123.41,1727.93 L 4127.48,1715.4 L 4134.06,1704 L 4142.87,1694.21 L 4153.53,1686.47 L 4155.02,1685.8 L 4155.02,1453.45 L 3911.41,1209.84 L 3907.89,1211.4 L 3892.76,1214.62 L 3877.29,1214.62 L 3862.16,1211.4 L 3848.02,1205.11 L 3835.51,1196.02 L 3825.16,1184.52 L 3817.42,1171.12 L 3812.64,1156.41 L 3811.02,1141.02 L 3812.64,1125.64 L 3817.42,1110.93 L 3825.16,1097.53 L 3835.51,1086.03 L 3848.02,1076.94 L 3862.16,1070.65 L 3877.29,1067.43 L 3892.76,1067.43 L 3907.89,1070.65 L 3911.41,1072.21 L 4055.02,928.597 L 4055.02,308.226 L 4048.02,305.11 L 4035.51,296.016 L 4025.16,284.52 L 4017.42,271.122 L 4012.64,256.409 L 4011.02,241.024 L 4012.64,225.638 L 4017.42,210.925 L 4025.16,197.528 L 4035.51,186.031 L 4048.02,176.938 L 4062.16,170.645 L 4077.29,167.429 L 4092.76,167.429 L 4107.89,170.645 L 4122.02,176.938 L 4134.54,186.031 L 4144.89,197.528 L 4152.63,210.925 L 4157.41,225.638 L 4159.02,241.024 L 4157.41,256.409 L 4152.63,271.122 L 4144.89,284.52 L 4134.54,296.016 L 4122.02,305.11 L 4115.02,308.226 L 4115.02,941.024 L 4114.45,946.876 L 4112.74,952.504 L 4109.97,957.691 L 4106.24,962.237 L 3953.83,1114.64 L 3957.41,1125.64 L 3959.02,1141.02 L 3957.41,1156.41 L 3953.83,1167.41 z " style="fill-opacity:1.000000;fill:rgb(168,153,15);stroke:rgb(0,0,0);stroke-width:2"/></g>
<g fill-rule="evenodd"><path d="M 111.41,1209.84 L 107.891,1211.4 L 92.7587,1214.62 L 77.2885,1214.62 L 62.1564,1211.4 L 48.0236,1205.11 L 35.508,1196.02 L 25.1564,1184.52 L 17.4213,1171.12 L 12.6407,1156.41 L 11.0236,1141.02 L 12.6407,1125.64 L 17.4213,1110.93 L 25.1564,1097.53 L 35.508,1086.03 L 48.0236,1076.94 L 62.1564,1070.65 L 77.2885,1067.43 L 92.7587,1067.43 L 107.891,1070.65 L 122.024,1076.94 L 134.539,1086.03 L 144.891,1097.53 L 152.626,1110.93 L 157.407,1125.64 L 159.024,1141.02 L 157.407,1156.41 L 153.833,1167.41 L 2097.45,3111.02 L 4861.68,3111.02 L 4955.02,3017.68 L 4955.02,2996.24 L 4953.53,2995.58 L 4942.87,2987.84 L 4934.06,2978.05 L 4927.48,2966.64 L 4923.41,2954.12 L 4922.03,2941.02 L 4923.41,2927.93 L 4927.48,2915.4 L 4934.06,2904 L 4942.87,2894.21 L 4953.53,2886.47 L 4965.56,2881.11 L 4978.44,2878.38 L 4991.61,2878.38 L 5004.49,2881.11 L 5016.52,2886.47 L 5027.17,2894.21 L 5035.99,2904 L 5042.57,2915.4 L 5046.64,2927.93 L 5048.02,2941.02 L 5046.64,2954.12 L 5042.57,2966.64 L 5035.99,2978.05 L 5027.17,2987.84 L 5016.52,2995.58 L 5015.02,2996.24 L 5015.02,3030.11 L 5014.45,3035.96 L 5012.74,3041.59 L 5009.97,3046.77 L 5006.24,3051.32 L 4895.32,3162.24 L 4890.77,3165.97 L 4885.59,3168.74 L 4879.96,3170.45 L 4874.11,3171.02 L 2085.02,3171.02 L 2079.17,3170.45 L 2073.54,3168.74 L 2068.36,3165.97 L 2063.81,3162.24 L 111.41,1209.84 z " style="fill-opacity:1.000000;fill:rgb(149,177,235);stroke:rgb(0,0,0);stroke-width:2"/></g>
<g fill-rule="evenodd"><path d="M 3511.41,1209.84 L 3507.89,1211.4 L 3492.76,1214.62 L 3477.29,1214.62 L 3462.16,1211.4 L 3448.02,1205.11 L 3435.51,1196.02 L 3425.16,1184.52 L 3417.42,1171.12 L 3412.64,1156.41 L 3411.02,1141.02 L 3412.64,1125.64 L 3417.42,1110.93 L 3425.16,1097.53 L 3435.51,1086.03 L 3448.02,1076.94 L 3462.16,1070.65 L 3477.29,1067.43 L 3492.76,1067.43 L 3507.89,1070.65 L 3511.41,1072.21 L 3655.02,928.597 L 3655.02,308.226 L 3648.02,305.11 L 3635.51,296.016 L 3625.16,284.52 L 3617.42,271.122 L 3612.64,256.409 L 3611.02,241.024 L 3612.64,225.638 L 3617.42,210.925 L 3625.16,197.528 L 3635.51,186.031 L 3648.02,176.938 L 3662.16,170.645 L 3677.29,167.429 L 3692.76,167.429 L 3707.89,170.645 L 3722.02,176.938 L 3734.54,186.031 L 3744.89,197.528 L 3752.63,210.925 L 3757.41,225.638 L 3759.02,241.024 L 3757.41,256.409 L 3752.63,271.122 L 3744.89,284.52 L 3734.54,296.016 L 3722.02,305.11 L 3715.02,308.226 L 3715.02,941.024 L 3714.45,946.876 L 3712.74,952.504 L 3709.97,957.691 L 3706.24,962.237 L 3553.83,1114.64 L 3557.41,1125.64 L 3559.02,1141.02 L 3557.41,1156.41 L 3553.83,1167.41 L 4006.24,1619.81 L 4009.97,1624.36 L 4012.74,1629.54 L 4014.45,1635.17 L 4015.02,1641.02 L 4015.02,1685.8 L 4016.52,1686.47 L 4027.17,1694.21 L 4035.99,1704 L 4042.57,1715.4 L 4046.64,1727.93 L 4048.02,1741.02 L 4046.64,1754.12 L 4042.57,1766.64 L 4035.99,1778.05 L 4027.17,1787.84 L 4016.52,1795.58 L 4004.49,1800.93 L 3991.61,1803.67 L 3978.44,1803.67 L 3965.56,1800.93 L 3953.53,1795.58 L 3942.87,1787.84 L 3934.06,1778.05 L 3927.48,1766.64 L 3923.41,1754.12 L 3922.03,1741.02 L 3923.41,1727.93 L 3927.48,1715.4 L 3934.06,1704 L 3942.87,1694.21 L 3953.53,1686.47 L 3955.02,1685.8 L 3955.02,1653.45 L 3511.41,1209.84 z " style="fill-opacity:1.000000;fill:rgb(241,179,5);stroke:rgb(0,0,0);stroke-width:2"/></g>
<g fill-rule="evenodd"><path d="M 2115.02,308.226 L 2115.02,941.024 L 2114.45,946.876 L 2112.74,952.504 L 2109.97,957.691 L 2106.24,962.237 L 1953.83,1114.64 L 1957.41,1125.64 L 1959.02,1141.02 L 1957.41,1156.41 L 1953.83,1167.41 L 2297.45,1511.02 L 2674.11,1511.02 L 2679.96,1511.6 L 2685.59,1513.31 L 2690.77,1516.08 L 2695.32,1519.81 L 2806.24,1630.72 L 2809.29,1634.3 L 2811.75,1638.32 L 2813.56,1642.67 L 2814.65,1647.24 L 2815.02,1651.94 L 2815.02,1685.8 L 2816.52,1686.47 L 2827.17,1694.21 L 2835.99,1704 L 2842.57,1715.4 L 2846.64,1727.93 L 2848.02,1741.02 L 2846.64,1754.12 L 2842.57,1766.64 L 2835.99,1778.05 L 2827.17,1787.84 L 2816.52,1795.58 L 2804.49,1800.93 L 2791.61,1803.67 L 2778.44,1803.67 L 2765.56,1800.93 L 2753.53,1795.58 L 2742.87,1787.84 L 2734.06,1778.05 L 2727.48,1766.64 L 2723.41,1754.12 L 2722.03,1741.02 L 2723.41,1727.93 L 2727.48,1715.4 L 2734.06,1704 L 2742.87,1694.21 L 2753.53,1686.47 L 2755.02,1685.8 L 2755.02,1664.36 L 2661.68,1571.02 L 2285.02,1571.02 L 2279.17,1570.45 L 2273.54,1568.74 L 2268.36,1565.97 L 2263.81,1562.24 L 1911.41,1209.84 L 1907.89,1211.4 L 1892.76,1214.62 L 1877.29,1214.62 L 1862.16,1211.4 L 1848.02,1205.11 L 1835.51,1196.02 L 1825.16,1184.52 L 1817.42,1171.12 L 1812.64,1156.41 L 1811.02,1141.02 L 1812.64,1125.64 L 1817.42,1110.93 L 1825.16,1097.53 L 1835.51,1086.03 L 1848.02,1076.94 L 1862.16,1070.65 L 1877.29,1067.43 L 1892.76,1067.43 L 1907.89,1070.65 L 1911.41,1072.21 L 2055.02,928.597 L 2055.02,308.226 L 2048.02,305.11 L 2035.51,296.016 L 2025.16,284.52 L 2017.42,271.122 L 2012.64,256.409 L 2011.02,241.024 L 2012.64,225.638 L 2017.42,210.925 L 2025.16,197.528 L 2035.51,186.031 L 2048.02,176.938 L 2062.16,170.645 L 2077.29,167.429 L 2092.76,167.429 L 2107.89,170.645 L 2122.02,176.938 L 2134.54,186.031 L 2144.89,197.528 L 2152.63,210.925 L 2157.41,225.638 L 2159.02,241.024 L 2157.41,256.409 L 2152.63,271.122 L 2144.89,284.52 L 2134.54,296.016 L 2122.02,305.11 L 2115.02,308.226 z " style="fill-opacity:1.000000;fill:rgb(239,247,0);stroke:rgb(0,0,0);stroke-width:2"/></g>
<g fill-rule="evenodd"><path d="M 2515.02,308.226 L 2515.02,941.024 L 2514.45,946.876 L 2512.74,952.504 L 2509.97,957.691 L 2506.24,962.237 L 2353.83,1114.64 L 2357.41,1125.64 L 2359.02,1141.02 L 2357.41,1156.41 L 2353.83,1167.41 L 2528.4,1341.98 L 2716.29,1341.98 L 2720.98,1342.34 L 2725.56,1343.44 L 2729.91,1345.25 L 2733.93,1347.71 L 2737.5,1350.76 L 2897.76,1511.02 L 3242.32,1511.02 L 3248.17,1511.6 L 3253.8,1513.31 L 3258.98,1516.08 L 3263.53,1519.81 L 3406.24,1662.51 L 3409.29,1666.09 L 3411.75,1670.11 L 3413.56,1674.46 L 3414.65,1679.03 L 3415.02,1685.8 L 3416.52,1686.47 L 3427.17,1694.21 L 3435.99,1704 L 3442.57,1715.4 L 3446.64,1727.93 L 3448.02,1741.02 L 3446.64,1754.12 L 3442.57,1766.64 L 3435.99,1778.05 L 3427.17,1787.84 L 3416.52,1795.58 L 3404.49,1800.93 L 3391.61,1803.67 L 3378.44,1803.67 L 3365.56,1800.93 L 3353.53,1795.58 L 3342.87,1787.84 L 3334.06,1778.05 L 3327.48,1766.64 L 3323.41,1754.12 L 3322.03,1741.02 L 3323.41,1727.93 L 3327.48,1715.4 L 3334.06,1704 L 3342.87,1694.21 L 3348.79,1689.92 L 3229.89,1571.02 L 2885.34,1571.02 L 2880.64,1570.65 L 2876.07,1569.56 L 2871.72,1567.75 L 2867.7,1565.29 L 2864.12,1562.24 L 2703.87,1401.98 L 2515.98,1401.98 L 2510.12,1401.4 L 2504.5,1399.69 L 2499.31,1396.92 L 2494.76,1393.19 L 2311.41,1209.84 L 2307.89,1211.4 L 2292.76,1214.62 L 2277.29,1214.62 L 2262.16,1211.4 L 2248.02,1205.11 L 2235.51,1196.02 L 2225.16,1184.52 L 2217.42,1171.12 L 2212.64,1156.41 L 2211.02,1141.02 L 2212.64,1125.64 L 2217.42,1110.93 L 2225.16,1097.53 L 2235.51,1086.03 L 2248.02,1076.94 L 2262.16,1070.65 L 2277.29,1067.43 L 2292.76,1067.43 L 2307.89,1070.65 L 2311.41,1072.21 L 2455.02,928.597 L 2455.02,308.226 L 2448.02,305.11 L 2435.51,296.016 L 2425.16,284.52 L 2417.42,271.122 L 2412.64,256.409 L 2411.02,241.024 L 2412.64,225.638 L 2417.42,210.925 L 2425.16,197.528 L 2435.51,186.031 L 2448.02,176.938 L 2462.16,170.645 L 2477.29,167.429 L 2492.76,167.429 L 2507.89,170.645 L 2522.02,176.938 L 2534.54,186.031 L 2544.89,197.528 L 2552.63,210.925 L 2557.41,225.638 L 2559.02,241.024 L 2557.41,256.409 L 2552.63,271.122 L 2544.89,284.52 L 2534.54,296.016 L 2522.02,305.11 L 2515.02,308.226 z " style="fill-opacity:1.000000;fill:rgb(233,161,58);stroke:rgb(0,0,0);stroke-width:2"/></g>
<g fill-rule="evenodd"><path d="M 2915.02,308.226 L 2915.02,941.024 L 2914.45,946.876 L 2912.74,952.504 L 2909.97,957.691 L 2906.24,962.237 L 2753.83,1114.64 L 2757.41,1125.64 L 2759.02,1141.02 L 2757.41,1156.41 L 2753.83,1167.41 L 2915.14,1328.71 L 3260.1,1328.71 L 3265.95,1329.29 L 3271.58,1330.99 L 3276.76,1333.77 L 3281.31,1337.5 L 3606.24,1662.42 L 3609.97,1666.97 L 3612.74,1672.16 L 3614.45,1677.78 L 3615.02,1685.8 L 3616.52,1686.47 L 3627.17,1694.21 L 3635.99,1704 L 3642.57,1715.4 L 3646.64,1727.93 L 3648.02,1741.02 L 3646.64,1754.12 L 3642.57,1766.64 L 3635.99,1778.05 L 3627.17,1787.84 L 3616.52,1795.58 L 3604.49,1800.93 L 3591.61,1803.67 L 3578.44,1803.67 L 3565.56,1800.93 L 3553.53,1795.58 L 3542.87,1787.84 L 3534.06,1778.05 L 3527.48,1766.64 L 3523.41,1754.12 L 3522.03,1741.02 L 3523.41,1727.93 L 3527.48,1715.4 L 3534.06,1704 L 3542.87,1694.21 L 3548.84,1689.88 L 3247.67,1388.71 L 2902.71,1388.71 L 2896.86,1388.13 L 2891.23,1386.43 L 2886.04,1383.65 L 2881.5,1379.92 L 2711.41,1209.84 L 2707.89,1211.4 L 2692.76,1214.62 L 2677.29,1214.62 L 2662.16,1211.4 L 2648.02,1205.11 L 2635.51,1196.02 L 2625.16,1184.52 L 2617.42,1171.12 L 2612.64,1156.41 L 2611.02,1141.02 L 2612.64,1125.64 L 2617.42,1110.93 L 2625.16,1097.53 L 2635.51,1086.03 L 2648.02,1076.94 L 2662.16,1070.65 L 2677.29,1067.43 L 2692.76,1067.43 L 2707.89,1070.65 L 2711.41,1072.21 L 2855.02,928.597 L 2855.02,308.226 L 2848.02,305.11 L 2835.51,296.016 L 2825.16,284.52 L 2817.42,271.122 L 2812.64,256.409 L 2811.02,241.024 L 2812.64,225.638 L 2817.42,210.925 L 2825.16,197.528 L 2835.51,186.031 L 2848.02,176.938 L 2862.16,170.645 L 2877.29,167.429 L 2892.76,167.429 L 2907.89,170.645 L 2922.02,176.938 L 2934.54,186.031 L 2944.89,197.528 L 2952.63,210.925 L 2957.41,225.638 L 2959.02,241.024 L 2957.41,256.409 L 2952.63,271.122 L 2944.89,284.52 L 2934.54,296.016 L 2922.02,305.11 L 2915.02,308.226 z " style="fill-opacity:1.000000;fill:rgb(229,202,11);stroke:rgb(0,0,0);stroke-width:2"/></g>
<g fill-rule="evenodd"><path d="M 3315.02,308.226 L 3315.02,941.024 L 3314.45,946.876 L 3312.74,952.504 L 3309.97,957.691 L 3306.24,962.237 L 3153.83,1114.64 L 3157.41,1125.64 L 3159.02,1141.02 L 3157.41,1156.41 L 3155.74,1161.53 L 3196.01,1195.58 L 3338.7,1195.58 L 3343.39,1195.95 L 3347.97,1197.05 L 3352.32,1198.85 L 3356.34,1201.31 L 3359.91,1204.37 L 3806.24,1650.69 L 3809.97,1655.24 L 3812.74,1660.42 L 3814.45,1666.05 L 3815.02,1671.9 L 3815.02,1685.8 L 3816.52,1686.47 L 3827.17,1694.21 L 3835.99,1704 L 3842.57,1715.4 L 3846.64,1727.93 L 3848.02,1741.02 L 3846.64,1754.12 L 3842.57,1766.64 L 3835.99,1778.05 L 3827.17,1787.84 L 3816.52,1795.58 L 3804.49,1800.93 L 3791.61,1803.67 L 3778.44,1803.67 L 3765.56,1800.93 L 3753.53,1795.58 L 3742.87,1787.84 L 3734.06,1778.05 L 3727.48,1766.64 L 3723.41,1754.12 L 3722.03,1741.02 L 3723.41,1727.93 L 3727.48,1715.4 L 3734.06,1704 L 3742.87,1694.21 L 3753.53,1686.47 L 3755.02,1685.8 L 3755.02,1684.33 L 3326.28,1255.58 L 3185.02,1255.58 L 3179.79,1255.12 L 3174.71,1253.75 L 3169.95,1251.52 L 3165.65,1248.49 L 3117,1207.35 L 3107.89,1211.4 L 3092.76,1214.62 L 3077.29,1214.62 L 3062.16,1211.4 L 3048.02,1205.11 L 3035.51,1196.02 L 3025.16,1184.52 L 3017.42,1171.12 L 3012.64,1156.41 L 3011.02,1141.02 L 3012.64,1125.64 L 3017.42,1110.93 L 3025.16,1097.53 L 3035.51,1086.03 L 3048.02,1076.94 L 3062.16,1070.65 L 3077.29,1067.43 L 3092.76,1067.43 L 3107.89,1070.65 L 3111.41,1072.21 L 3255.02,928.597 L 3255.02,308.226 L 3248.02,305.11 L 3235.51,296.016 L 3225.16,284.52 L 3217.42,271.122 L 3212.64,256.409 L 3211.02,241.024 L 3212.64,225.638 L 3217.42,210.925 L 3225.16,197.528 L 3235.51,186.031 L 3248.02,176.938 L 3262.16,170.645 L 3277.29,167.429 L 3292.76,167.429 L 3307.89,170.645 L 3322.02,176.938 L 3334.54,186.031 L 3344.89,197.528 L 3352.63,210.925 L 3357.41,225.638 L 3359.02,241.024 L 3357.41,256.409 L 3352.63,271.122 L 3344.89,284.52 L 3334.54,296.016 L 3322.02,305.11 L 3315.02,308.226 z " style="fill-opacity:1.000000;fill:rgb(203,208,72);stroke:rgb(0,0,0);stroke-width:2"/></g>
<g fill-rule="evenodd"><path d="M 8058.64,1209.84 L 7015.02,2253.45 L 7015.02,2998.32 L 7014.45,3004.17 L 7012.74,3009.8 L 7009.97,3014.98 L 7006.24,3019.53 L 6863.53,3162.24 L 6858.98,3165.97 L 6853.8,3168.74 L 6848.17,3170.45 L 6842.32,3171.02 L 6685.02,3171.02 L 6679.17,3170.45 L 6673.54,3168.74 L 6668.36,3165.97 L 6663.81,3162.24 L 6563.81,3062.24 L 6560.08,3057.69 L 6557.31,3052.5 L 6555.6,3046.88 L 6555.02,3041.02 L 6555.02,2996.24 L 6553.53,2995.58 L 6542.87,2987.84 L 6534.06,2978.05 L 6527.48,2966.64 L 6523.41,2954.12 L 6522.03,2941.02 L 6523.41,2927.93 L 6527.48,2915.4 L 6534.06,2904 L 6542.87,2894.21 L 6553.53,2886.47 L 6565.56,2881.11 L 6578.44,2878.38 L 6591.61,2878.38 L 6604.49,2881.11 L 6616.52,2886.47 L 6627.17,2894.21 L 6635.99,2904 L 6642.57,2915.4 L 6646.64,2927.93 L 6648.02,2941.02 L 6646.64,2954.12 L 6642.57,2966.64 L 6635.99,2978.05 L 6627.17,2987.84 L 6616.52,2995.58 L 6615.02,2996.24 L 6615.02,3028.6 L 6697.45,3111.02 L 6829.89,3111.02 L 6955.02,2985.89 L 6955.02,2241.02 L 6955.6,2235.17 L 6957.31,2229.54 L 6960.08,2224.36 L 6963.81,2219.81 L 8016.21,1167.41 L 8012.64,1156.41 L 8011.02,1141.02 L 8012.64,1125.64 L 8017.42,1110.93 L 8025.16,1097.53 L 8035.51,1086.03 L 8048.02,1076.94 L 8062.16,1070.65 L 8077.29,1067.43 L 8092.76,1067.43 L 8107.89,1070.65 L 8111.41,1072.21 L 8255.02,928.597 L 8255.02,308.226 L 8248.02,305.11 L 8235.51,296.016 L 8225.16,284.52 L 8217.42,271.122 L 8212.64,256.409 L 8211.02,241.024 L 8212.64,225.638 L 8217.42,210.925 L 8225.16,197.528 L 8235.51,186.031 L 8248.02,176.938 L 8262.16,170.645 L 8277.29,167.429 L 8292.76,167.429 L 8307.89,170.645 L 8322.02,176.938 L 8334.54,186.031 L 8344.89,197.528 L 8352.63,210.925 L 8357.41,225.638 L 8359.02,241.024 L 8357.41,256.409 L 8352.63,271.122 L 8344.89,284.52 L 8334.54,296.016 L 8322.02,305.11 L 8315.02,308.226 L 8315.02,941.024 L 8314.45,946.876 L 8312.74,952.504 L 8309.97,957.691 L 8306.24,962.237 L 8153.83,1114.64 L 8157.41,1125.64 L 8159.02,1141.02 L 8157.41,1156.41 L 8152.63,1171.12 L 8144.89,1184.52 L 8134.54,1196.02 L 8122.02,1205.11 L 8107.89,1211.4 L 8092.76,1214.62 L 8077.29,1214.62 L 8062.16,1211.4 L 8058.64,1209.84 z " style="fill-opacity:1.000000;fill:rgb(71,100,189);stroke:rgb(0,0,0);stroke-width:2"/></g>
<g fill-rule="evenodd"><path d="M 6416.21,1167.41 L 6412.64,1156.41 L 6411.02,1141.02 L 6412.64,1125.64 L 6417.42,1110.93 L 6425.16,1097.53 L 6435.51,1086.03 L 6448.02,1076.94 L 6462.16,1070.65 L 6477.29,1067.43 L 6492.76,1067.43 L 6507.89,1070.65 L 6511.41,1072.21 L 6655.02,928.597 L 6655.02,308.226 L 6648.02,305.11 L 6635.51,296.016 L 6625.16,284.52 L 6617.42,271.122 L 6612.64,256.409 L 6611.02,241.024 L 6612.64,225.638 L 6617.42,210.925 L 6625.16,197.528 L 6635.51,186.031 L 6648.02,176.938 L 6662.16,170.645 L 6677.29,167.429 L 6692.76,167.429 L 6707.89,170.645 L 6722.02,176.938 L 6734.54,186.031 L 6744.89,197.528 L 6752.63,210.925 L 6757.41,225.638 L 6759.02,241.024 L 6757.41,256.409 L 6752.63,271.122 L 6744.89,284.52 L 6734.54,296.016 L 6722.02,305.11 L 6715.02,308.226 L 6715.02,941.024 L 6714.45,946.876 L 6712.74,952.504 L 6709.97,957.691 L 6706.24,962.237 L 6553.83,1114.64 L 6557.41,1125.64 L 6559.02,1141.02 L 6557.41,1156.41 L 6552.63,1171.12 L 6544.89,1184.52 L 6534.54,1196.02 L 6522.02,1205.11 L 6507.89,1211.4 L 6492.76,1214.62 L 6477.29,1214.62 L 6462.16,1211.4 L 6458.64,1209.84 L 6015.02,1653.45 L 6015.02,1685.8 L 6016.52,1686.47 L 6027.17,1694.21 L 6035.99,1704 L 6042.57,1715.4 L 6046.64,1727.93 L 6048.02,1741.02 L 6046.64,1754.12 L 6042.57,1766.64 L 6035.99,1778.05 L 6027.17,1787.84 L 6016.52,1795.58 L 6004.49,1800.93 L 5991.61,1803.67 L 5978.44,1803.67 L 5965.56,1800.93 L 5953.53,1795.58 L 5942.87,1787.84 L 5934.06,1778.05 L 5927.48,1766.64 L 5923.41,1754.12 L 5922.03,1741.02 L 5923.41,1727.93 L 5927.48,1715.4 L 5934.06,1704 L 5942.87,1694.21 L 5953.53,1686.47 L 5955.02,1685.8 L 5955.02,1641.02 L 5955.6,1635.17 L 5957.31,1629.54 L 5960.08,1624.36 L 5963.81,1619.81 L 6416.21,1167.41 z " style="fill-opacity:1.000000;fill:rgb(31,35,30);stroke:rgb(0,0,0);stroke-width:2"/></g>
<g fill-rule="evenodd"><path d="M 7616.21,1167.41 L 7612.64,1156.41 L 7611.02,1141.02 L 7612.64,1125.64 L 7617.42,1110.93 L 7625.16,1097.53 L 7635.51,1086.03 L 7648.02,1076.94 L 7662.16,1070.65 L 7677.29,1067.43 L 7692.76,1067.43 L 7707.89,1070.65 L 7711.41,1072.21 L 7855.02,928.597 L 7855.02,308.226 L 7848.02,305.11 L 7835.51,296.016 L 7825.16,284.52 L 7817.42,271.122 L 7812.64,256.409 L 7811.02,241.024 L 7812.64,225.638 L 7817.42,210.925 L 7825.16,197.528 L 7835.51,186.031 L 7848.02,176.938 L 7862.16,170.645 L 7877.29,167.429 L 7892.76,167.429 L 7907.89,170.645 L 7922.02,176.938 L 7934.54,186.031 L 7944.89,197.528 L 7952.63,210.925 L 7957.41,225.638 L 7959.02,241.024 L 7957.41,256.409 L 7952.63,271.122 L 7944.89,284.52 L 7934.54,296.016 L 7922.02,305.11 L 7915.02,308.226 L 7915.02,941.024 L 7914.45,946.876 L 7912.74,952.504 L 7909.97,957.691 L 7906.24,962.237 L 7753.83,1114.64 L 7757.41,1125.64 L 7759.02,1141.02 L 7757.41,1156.41 L 7752.63,1171.12 L 7744.89,1184.52 L 7734.54,1196.02 L 7722.02,1205.11 L 7707.89,1211.4 L 7692.76,1214.62 L 7677.29,1214.62 L 7662.16,1211.4 L 7658.64,1209.84 L 6815.02,2053.45 L 6815.02,2885.8 L 6816.52,2886.47 L 6827.17,2894.21 L 6835.99,2904 L 6842.57,2915.4 L 6846.64,2927.93 L 6848.02,2941.02 L 6846.64,2954.12 L 6842.57,2966.64 L 6835.99,2978.05 L 6827.17,2987.84 L 6816.52,2995.58 L 6804.49,3000.93 L 6791.61,3003.67 L 6778.44,3003.67 L 6765.56,3000.93 L 6753.53,2995.58 L 6742.87,2987.84 L 6734.06,2978.05 L 6727.48,2966.64 L 6723.41,2954.12 L 6722.03,2941.02 L 6723.41,2927.93 L 6727.48,2915.4 L 6734.06,2904 L 6742.87,2894.21 L 6753.53,2886.47 L 6755.02,2885.8 L 6755.02,2041.02 L 6755.6,2035.17 L 6757.31,2029.54 L 6760.08,2024.36 L 6763.81,2019.81 L 7616.21,1167.41 z " style="fill-opacity:1.000000;fill:rgb(168,28,123);stroke:rgb(0,0,0);stroke-width:2"/></g>
<g fill-rule="evenodd"><path d="M 6255.02,308.226 L 6248.02,305.11 L 6235.51,296.016 L 6225.16,284.52 L 6217.42,271.122 L 6212.64,256.409 L 6211.02,241.024 L 6212.64,225.638 L 6217.42,210.925 L 6225.16,197.528 L 6235.51,186.031 L 6248.02,176.938 L 6262.16,170.645 L 6277.29,167.429 L 6292.76,167.429 L 6307.89,170.645 L 6322.02,176.938 L 6334.54,186.031 L 6344.89,197.528 L 6352.63,210.925 L 6357.41,225.638 L 6359.02,241.024 L 6357.41,256.409 L 6352.63,271.122 L 6344.89,284.52 L 6334.54,296.016 L 6322.02,305.11 L 6315.02,308.226 L 6315.02,941.024 L 6314.45,946.876 L 6312.74,952.504 L 6309.97,957.691 L 6306.24,962.237 L 6153.83,1114.64 L 6157.41,1125.64 L 6159.02,1141.02 L 6157.41,1156.41 L 6152.63,1171.12 L 6144.89,1184.52 L 6134.54,1196.02 L 6122.02,1205.11 L 6107.89,1211.4 L 6092.76,1214.62 L 6077.29,1214.62 L 6062.16,1211.4 L 6058.64,1209.84 L 5815.02,1453.45 L 5815.02,1685.8 L 5816.52,1686.47 L 5827.17,1694.21 L 5835.99,1704 L 5842.57,1715.4 L 5846.64,1727.93 L 5848.02,1741.02 L 5846.64,1754.12 L 5842.57,1766.64 L 5835.99,1778.05 L 5827.17,1787.84 L 5816.52,1795.58 L 5804.49,1800.93 L 5791.61,1803.67 L 5778.44,1803.67 L 5765.56,1800.93 L 5753.53,1795.58 L 5742.87,1787.84 L 5734.06,1778.05 L 5727.48,1766.64 L 5723.41,1754.12 L 5722.03,1741.02 L 5723.41,1727.93 L 5727.48,1715.4 L 5734.06,1704 L 5742.87,1694.21 L 5753.53,1686.47 L 5755.02,1685.8 L 5755.02,1441.02 L 5755.6,1435.17 L 5757.31,1429.54 L 5760.08,1424.36 L 5763.81,1419.81 L 6016.21,1167.41 L 6012.64,1156.41 L 6011.02,1141.02 L 6012.64,1125.64 L 6017.42,1110.93 L 6025.16,1097.53 L 6035.51,1086.03 L 6048.02,1076.94 L 6062.16,1070.65 L 6077.29,1067.43 L 6092.76,1067.43 L 6107.89,1070.65 L 6111.41,1072.21 L 6255.02,928.597 L 6255.02,308.226 z " style="fill-opacity:1.000000;fill:rgb(100,197,20);stroke:rgb(0,0,0);stroke-width:2"/></g>
<g fill-rule="evenodd"><path d="M 4515.02,308.226 L 4515.02,941.024 L 4514.45,946.876 L 4512.74,952.504 L 4509.97,957.691 L 4506.24,962.237 L 4353.83,1114.64 L 4357.41,1125.64 L 4359.02,1141.02 L 4357.41,1156.41 L 4353.83,1167.41 L 4406.24,1219.81 L 4409.97,1224.36 L 4412.74,1229.54 L 4414.45,1235.17 L 4415.02,1241.02 L 4415.02,1685.8 L 4416.52,1686.47 L 4427.17,1694.21 L 4435.99,1704 L 4442.57,1715.4 L 4446.64,1727.93 L 4448.02,1741.02 L 4446.64,1754.12 L 4442.57,1766.64 L 4435.99,1778.05 L 4427.17,1787.84 L 4416.52,1795.58 L 4404.49,1800.93 L 4391.61,1803.67 L 4378.44,1803.67 L 4365.56,1800.93 L 4353.53,1795.58 L 4342.87,1787.84 L 4334.06,1778.05 L 4327.48,1766.64 L 4323.41,1754.12 L 4322.03,1741.02 L 4323.41,1727.93 L 4327.48,1715.4 L 4334.06,1704 L 4342.87,1694.21 L 4353.53,1686.47 L 4355.02,1685.8 L 4355.02,1253.45 L 4311.41,1209.84 L 4307.89,1211.4 L 4292.76,1214.62 L 4277.29,1214.62 L 4262.16,1211.4 L 4248.02,1205.11 L 4235.51,1196.02 L 4225.16,1184.52 L 4217.42,1171.12 L 4212.64,1156.41 L 4211.02,1141.02 L 4212.64,1125.64 L 4217.42,1110.93 L 4225.16,1097.53 L 4235.51,1086.03 L 4248.02,1076.94 L 4262.16,1070.65 L 4277.29,1067.43 L 4292.76,1067.43 L 4307.89,1070.65 L 4311.41,1072.21 L 4455.02,928.597 L 4455.02,308.226 L 4448.02,305.11 L 4435.51,296.016 L 4425.16,284.52 L 4417.42,271.122 L 4412.64,256.409 L 4411.02,241.024 L 4412.64,225.638 L 4417.42,210.925 L 4425.16,197.528 L 4435.51,186.031 L 4448.02,176.938 L 4462.16,170.645 L 4477.29,167.429 L 4492.76,167.429 L 4507.89,170.645 L 4522.02,176.938 L 4534.54,186.031 L 4544.89,197.528 L 4552.63,210.925 L 4557.41,225.638 L 4559.02,241.024 L 4557.41,256.409 L 4552.63,271.122 L 4544.89,284.52 L 4534.54,296.016 L 4522.02,305.11 L 4515.02,308.226 z " style="fill-opacity:1.000000;fill:rgb(115,90,197);stroke:rgb(0,0,0);stroke-width:2"/></g>
<g fill-rule="evenodd"><path d="M 4915.02,308.226 L 4915.02,941.024 L 4914.45,946.876 L 4912.74,952.504 L 4909.97,957.691 L 4906.24,962.237 L 4753.83,1114.64 L 4757.41,1125.64 L 4759.02,1141.02 L 4757.41,1156.41 L 4752.63,1171.12 L 4744.89,1184.52 L 4734.54,1196.02 L 4722.02,1205.11 L 4707.89,1211.4 L 4692.76,1214.62 L 4677.29,1214.62 L 4662.16,1211.4 L 4658.64,1209.84 L 4615.02,1253.45 L 4615.02,1685.8 L 4616.52,1686.47 L 4627.17,1694.21 L 4635.99,1704 L 4642.57,1715.4 L 4646.64,1727.93 L 4648.02,1741.02 L 4646.64,1754.12 L 4642.57,1766.64 L 4635.99,1778.05 L 4627.17,1787.84 L 4616.52,1795.58 L 4604.49,1800.93 L 4591.61,1803.67 L 4578.44,1803.67 L 4565.56,1800.93 L 4553.53,1795.58 L 4542.87,1787.84 L 4534.06,1778.05 L 4527.48,1766.64 L 4523.41,1754.12 L 4522.03,1741.02 L 4523.41,1727.93 L 4527.48,1715.4 L 4534.06,1704 L 4542.87,1694.21 L 4553.53,1686.47 L 4555.02,1685.8 L 4555.02,1241.02 L 4555.6,1235.17 L 4557.31,1229.54 L 4560.08,1224.36 L 4563.81,1219.81 L 4616.21,1167.41 L 4612.64,1156.41 L 4611.02,1141.02 L 4612.64,1125.64 L 4617.42,1110.93 L 4625.16,1097.53 L 4635.51,1086.03 L 4648.02,1076.94 L 4662.16,1070.65 L 4677.29,1067.43 L 4692.76,1067.43 L 4707.89,1070.65 L 4711.41,1072.21 L 4855.02,928.597 L 4855.02,308.226 L 4848.02,305.11 L 4835.51,296.016 L 4825.16,284.52 L 4817.42,271.122 L 4812.64,256.409 L 4811.02,241.024 L 4812.64,225.638 L 4817.42,210.925 L 4825.16,197.528 L 4835.51,186.031 L 4848.02,176.938 L 4862.16,170.645 L 4877.29,167.429 L 4892.76,167.429 L 4907.89,170.645 L 4922.02,176.938 L 4934.54,186.031 L 4944.89,197.528 L 4952.63,210.925 L 4957.41,225.638 L 4959.02,241.024 L 4957.41,256.409 L 4952.63,271.122 L 4944.89,284.52 L 4934.54,296.016 L 4922.02,305.11 L 4915.02,308.226 z " style="fill-opacity:1.000000;fill:rgb(94,75,121);stroke:rgb(0,0,0);stroke-width:2"/></g>
<g fill-rule="evenodd"><path d="M 5515.02,308.226 L 5515.02,941.024 L 5514.45,946.876 L 5512.74,952.504 L 5509.97,957.691 L 5506.24,962.237 L 5353.83,1114.64 L 5357.41,1125.64 L 5359.02,1141.02 L 5357.41,1156.41 L 5352.63,1171.12 L 5344.89,1184.52 L 5334.54,1196.02 L 5322.02,1205.11 L 5307.89,1211.4 L 5292.76,1214.62 L 5277.29,1214.62 L 5262.16,1211.4 L 5258.64,1209.84 L 5215.02,1253.45 L 5215.02,1685.8 L 5216.52,1686.47 L 5227.17,1694.21 L 5235.99,1704 L 5242.57,1715.4 L 5246.64,1727.93 L 5248.02,1741.02 L 5246.64,1754.12 L 5242.57,1766.64 L 5235.99,1778.05 L 5227.17,1787.84 L 5216.52,1795.58 L 5204.49,1800.93 L 5191.61,1803.67 L 5178.44,1803.67 L 5165.56,1800.93 L 5153.53,1795.58 L 5142.87,1787.84 L 5134.06,1778.05 L 5127.48,1766.64 L 5123.41,1754.12 L 5122.03,1741.02 L 5123.41,1727.93 L 5127.48,1715.4 L 5134.06,1704 L 5142.87,1694.21 L 5153.53,1686.47 L 5155.02,1685.8 L 5155.02,1241.02 L 5155.6,1235.17 L 5157.31,1229.54 L 5160.08,1224.36 L 5163.81,1219.81 L 5216.21,1167.41 L 5212.64,1156.41 L 5211.02,1141.02 L 5212.64,1125.64 L 5217.42,1110.93 L 5225.16,1097.53 L 5235.51,1086.03 L 5248.02,1076.94 L 5262.16,1070.65 L 5277.29,1067.43 L 5292.76,1067.43 L 5307.89,1070.65 L 5311.41,1072.21 L 5455.02,928.597 L 5455.02,308.226 L 5448.02,305.11 L 5435.51,296.016 L 5425.16,284.52 L 5417.42,271.122 L 5412.64,256.409 L 5411.02,241.024 L 5412.64,225.638 L 5417.42,210.925 L 5425.16,197.528 L 5435.51,186.031 L 5448.02,176.938 L 5462.16,170.645 L 5477.29,167.429 L 5492.76,167.429 L 5507.89,170.645 L 5522.02,176.938 L 5534.54,186.031 L 5544.89,197.528 L 5552.63,210.925 L 5557.41,225.638 L 5559.02,241.024 L 5557.41,256.409 L 5552.63,271.122 L 5544.89,284.52 L 5534.54,296.016 L 5522.02,305.11 L 5515.02,308.226 z " style="fill-opacity:1.000000;fill:rgb(99,59,112);stroke:rgb(0,0,0);stroke-width:2"/></g>
<g fill-rule="evenodd"><path d="M 5915.02,308.226 L 5915.02,941.024 L 5914.45,946.876 L 5912.74,952.504 L 5909.97,957.691 L 5906.24,962.237 L 5753.83,1114.64 L 5757.41,1125.64 L 5759.02,1141.02 L 5757.41,1156.41 L 5752.63,1171.12 L 5744.89,1184.52 L 5734.54,1196.02 L 5722.02,1205.11 L 5707.89,1211.4 L 5692.76,1214.62 L 5677.29,1214.62 L 5662.16,1211.4 L 5658.64,1209.84 L 5615.02,1253.45 L 5615.02,1685.8 L 5616.52,1686.47 L 5627.17,1694.21 L 5635.99,1704 L 5642.57,1715.4 L 5646.64,1727.93 L 5648.02,1741.02 L 5646.64,1754.12 L 5642.57,1766.64 L 5635.99,1778.05 L 5627.17,1787.84 L 5616.52,1795.58 L 5604.49,1800.93 L 5591.61,1803.67 L 5578.44,1803.67 L 5565.56,1800.93 L 5553.53,1795.58 L 5542.87,1787.84 L 5534.06,1778.05 L 5527.48,1766.64 L 5523.41,1754.12 L 5522.03,1741.02 L 5523.41,1727.93 L 5527.48,1715.4 L 5534.06,1704 L 5542.87,1694.21 L 5553.53,1686.47 L 5555.02,1685.8 L 5555.02,1241.02 L 5555.6,1235.17 L 5557.31,1229.54 L 5560.08,1224.36 L 5563.81,1219.81 L 5616.21,1167.41 L 5612.64,1156.41 L 5611.02,1141.02 L 5612.64,1125.64 L 5617.42,1110.93 L 5625.16,1097.53 L 5635.51,1086.03 L 5648.02,1076.94 L 5662.16,1070.65 L 5677.29,1067.43 L 5692.76,1067.43 L 5707.89,1070.65 L 5711.41,1072.21 L 5855.02,928.597 L 5855.02,308.226 L 5848.02,305.11 L 5835.51,296.016 L 5825.16,284.52 L 5817.42,271.122 L 5812.64,256.409 L 5811.02,241.024 L 5812.64,225.638 L 5817.42,210.925 L 5825.16,197.528 L 5835.51,186.031 L 5848.02,176.938 L 5862.16,170.645 L 5877.29,167.429 L 5892.76,167.429 L 5907.89,170.645 L 5922.02,176.938 L 5934.54,186.031 L 5944.89,197.528 L 5952.63,210.925 L 5957.41,225.638 L 5959.02,241.024 L 5957.41,256.409 L 5952.63,271.122 L 5944.89,284.52 L 5934.54,296.016 L 5922.02,305.11 L 5915.02,308.226 z " style="fill-opacity:1.000000;fill:rgb(100,36,17);stroke:rgb(0,0,0);stroke-width:2"/></g>
<g fill-rule="evenodd"><path d="M 7115.02,308.226 L 7115.02,941.024 L 7114.65,945.717 L 7113.56,950.294 L 7111.75,954.643 L 7109.29,958.657 L 7106.24,962.237 L 6953.83,1114.64 L 6957.41,1125.64 L 6959.02,1141.02 L 6957.41,1156.41 L 6952.63,1171.12 L 6944.89,1184.52 L 6934.54,1196.02 L 6922.02,1205.11 L 6907.89,1211.4 L 6892.76,1214.62 L 6877.29,1214.62 L 6862.16,1211.4 L 6858.64,1209.83 L 6706.24,1362.23 L 6701.69,1365.97 L 6696.5,1368.74 L 6690.88,1370.45 L 6685.02,1371.02 L 6529.41,1371.02 L 6215.02,1685.41 L 6215.02,1685.8 L 6216.52,1686.47 L 6227.17,1694.21 L 6235.99,1704 L 6242.57,1715.4 L 6246.64,1727.93 L 6248.02,1741.02 L 6246.64,1754.12 L 6242.57,1766.64 L 6235.99,1778.05 L 6227.17,1787.84 L 6216.52,1795.58 L 6204.49,1800.93 L 6191.61,1803.67 L 6178.44,1803.67 L 6165.56,1800.93 L 6153.53,1795.58 L 6142.87,1787.84 L 6134.06,1778.05 L 6127.48,1766.64 L 6123.41,1754.12 L 6122.03,1741.02 L 6123.41,1727.93 L 6127.48,1715.4 L 6134.06,1704 L 6142.87,1694.21 L 6153.53,1686.47 L 6155.02,1685.8 L 6155.02,1672.99 L 6155.6,1667.13 L 6157.31,1661.51 L 6160.08,1656.32 L 6163.81,1651.77 L 6495.77,1319.81 L 6499.35,1316.75 L 6503.37,1314.29 L 6507.72,1312.49 L 6512.29,1311.39 L 6516.99,1311.02 L 6672.6,1311.02 L 6816.21,1167.41 L 6812.64,1156.41 L 6811.02,1141.02 L 6812.64,1125.64 L 6817.42,1110.93 L 6825.16,1097.53 L 6835.51,1086.03 L 6848.02,1076.94 L 6862.16,1070.65 L 6877.29,1067.43 L 6892.76,1067.43 L 6907.89,1070.65 L 6911.41,1072.21 L 7055.02,928.597 L 7055.02,308.226 L 7048.02,305.11 L 7035.51,296.016 L 7025.16,284.52 L 7017.42,271.122 L 7012.64,256.409 L 7011.02,241.024 L 7012.64,225.638 L 7017.42,210.925 L 7025.16,197.528 L 7035.51,186.031 L 7048.02,176.938 L 7062.16,170.645 L 7077.29,167.429 L 7092.76,167.429 L 7107.89,170.645 L 7122.02,176.938 L 7134.54,186.031 L 7144.89,197.528 L 7152.63,210.925 L 7157.41,225.638 L 7159.02,241.024 L 7157.41,256.409 L 7152.63,271.122 L 7144.89,284.52 L 7134.54,296.016 L 7122.02,305.11 L 7115.02,308.226 z " style="fill-opacity:1.000000;fill:rgb(158,9,220);stroke:rgb(0,0,0);stroke-width:2"/></g>
<g fill-rule="evenodd"><path d="M 7515.02,308.226 L 7515.02,941.024 L 7514.45,946.876 L 7512.74,952.504 L 7509.97,957.691 L 7506.24,962.237 L 7353.83,1114.64 L 7357.41,1125.64 L 7359.02,1141.02 L 7357.41,1156.41 L 7352.63,1171.12 L 7344.89,1184.52 L 7334.54,1196.02 L 7322.02,1205.11 L 7307.89,1211.4 L 7292.76,1214.62 L 7277.29,1214.62 L 7262.16,1211.4 L 7258.64,1209.84 L 6906.24,1562.24 L 6901.69,1565.97 L 6896.5,1568.74 L 6890.88,1570.45 L 6885.02,1571.02 L 6582.86,1571.02 L 6441.07,1712.81 L 6442.57,1715.4 L 6446.64,1727.93 L 6448.02,1741.02 L 6446.64,1754.12 L 6442.57,1766.64 L 6435.99,1778.05 L 6427.17,1787.84 L 6416.52,1795.58 L 6404.49,1800.93 L 6391.61,1803.67 L 6378.44,1803.67 L 6365.56,1800.93 L 6353.53,1795.58 L 6342.87,1787.84 L 6334.06,1778.05 L 6327.48,1766.64 L 6323.41,1754.12 L 6322.03,1741.02 L 6323.41,1727.93 L 6327.48,1715.4 L 6334.06,1704 L 6342.87,1694.21 L 6353.53,1686.47 L 6365.56,1681.11 L 6378.44,1678.38 L 6390.65,1678.38 L 6549.22,1519.81 L 6553.77,1516.08 L 6558.95,1513.31 L 6564.58,1511.6 L 6570.43,1511.02 L 6872.6,1511.02 L 7216.21,1167.41 L 7212.64,1156.41 L 7211.02,1141.02 L 7212.64,1125.64 L 7217.42,1110.93 L 7225.16,1097.53 L 7235.51,1086.03 L 7248.02,1076.94 L 7262.16,1070.65 L 7277.29,1067.43 L 7292.76,1067.43 L 7307.89,1070.65 L 7311.41,1072.21 L 7455.02,928.597 L 7455.02,308.226 L 7448.02,305.11 L 7435.51,296.016 L 7425.16,284.52 L 7417.42,271.122 L 7412.64,256.409 L 7411.02,241.024 L 7412.64,225.638 L 7417.42,210.925 L 7425.16,197.528 L 7435.51,186.031 L 7448.02,176.938 L 7462.16,170.645 L 7477.29,167.429 L 7492.76,167.429 L 7507.89,170.645 L 7522.02,176.938 L 7534.54,186.031 L 7544.89,197.528 L 7552.63,210.925 L 7557.41,225.638 L 7559.02,241.024 L 7557.41,256.409 L 7552.63,271.122 L 7544.89,284.52 L 7534.54,296.016 L 7522.02,305.11 L 7515.02,308.226 z " style="fill-opacity:1.000000;fill:rgb(170,212,172);stroke:rgb(0,0,0);stroke-width:2"/></g>
<g fill-rule="evenodd"><path d="M 1017.39,1171.02 L 952.658,1171.02 L 944.891,1184.52 L 934.539,1196.02 L 922.024,1205.11 L 907.891,1211.4 L 892.759,1214.62 L 877.289,1214.62 L 862.156,1211.4 L 848.024,1205.11 L 835.508,1196.02 L 825.156,1184.52 L 817.421,1171.12 L 812.641,1156.41 L 811.024,1141.02 L 812.641,1125.64 L 817.421,1110.93 L 825.156,1097.53 L 835.508,1086.03 L 848.024,1076.94 L 862.156,1070.65 L 877.289,1067.43 L 892.759,1067.43 L 907.891,1070.65 L 922.024,1076.94 L 934.539,1086.03 L 944.891,1097.53 L 952.658,1111.02 L 1017.39,1111.02 L 1025.16,1097.53 L 1035.51,1086.03 L 1048.02,1076.94 L 1062.16,1070.65 L 1077.29,1067.43 L 1092.76,1067.43 L 1107.89,1070.65 L 1122.02,1076.94 L 1134.54,1086.03 L 1144.89,1097.53 L 1152.63,1110.93 L 1157.41,1125.64 L 1159.02,1141.02 L 1157.41,1156.41 L 1152.63,1171.12 L 1144.89,1184.52 L 1134.54,1196.02 L 1122.02,1205.11 L 1115.02,1208.23 L 1115.02,1328.6 L 2097.45,2311.02 L 2885.81,2311.02 L 3155.02,2041.81 L 3155.02,1996.24 L 3153.53,1995.58 L 3142.87,1987.84 L 3134.06,1978.05 L 3127.48,1966.64 L 3123.41,1954.12 L 3122.03,1941.02 L 3123.41,1927.93 L 3127.48,1915.4 L 3134.06,1904 L 3142.87,1894.21 L 3153.53,1886.47 L 3155.02,1885.8 L 3155.02,1796.24 L 3153.53,1795.58 L 3142.87,1787.84 L 3134.06,1778.05 L 3127.48,1766.64 L 3123.41,1754.12 L 3122.03,1741.02 L 3123.41,1727.93 L 3127.48,1715.4 L 3134.06,1704 L 3142.87,1694.21 L 3153.53,1686.47 L 3165.56,1681.11 L 3178.44,1678.38 L 3191.61,1678.38 L 3204.49,1681.11 L 3216.52,1686.47 L 3227.17,1694.21 L 3235.99,1704 L 3242.57,1715.4 L 3246.64,1727.93 L 3248.02,1741.02 L 3246.64,1754.12 L 3242.57,1766.64 L 3235.99,1778.05 L 3227.17,1787.84 L 3216.52,1795.58 L 3215.02,1796.24 L 3215.02,1885.8 L 3216.52,1886.47 L 3227.17,1894.21 L 3235.99,1904 L 3242.57,1915.4 L 3246.64,1927.93 L 3248.02,1941.02 L 3246.64,1954.12 L 3242.57,1966.64 L 3235.99,1978.05 L 3227.17,1987.84 L 3216.52,1995.58 L 3215.02,1996.24 L 3215.02,2054.24 L 3214.45,2060.09 L 3212.74,2065.72 L 3209.97,2070.9 L 3206.24,2075.45 L 2919.45,2362.24 L 2914.9,2365.97 L 2909.72,2368.74 L 2904.09,2370.45 L 2898.24,2371.02 L 2085.02,2371.02 L 2080.33,2370.65 L 2075.75,2369.56 L 2071.4,2367.75 L 2067.39,2365.29 L 2063.81,2362.24 L 1063.81,1362.23 L 1060.08,1357.69 L 1057.31,1352.5 L 1055.6,1346.87 L 1055.02,1341.02 L 1055.02,1208.23 L 1048.02,1205.11 L 1035.51,1196.02 L 1025.16,1184.52 L 1017.39,1171.02 z " style="fill-opacity:1.000000;fill:rgb(242,27,16);stroke:rgb(0,0,0);stroke-width:2"/></g>
<g fill-rule="evenodd"><path d="M 515.023,1208.23 L 515.024,1228.6 L 2164.46,2878.03 L 2248.02,2878.03 L 2248.02,3004.02 L 2122.03,3004.02 L 2122.03,2920.46 L 463.81,1262.24 L 460.08,1257.69 L 457.307,1252.5 L 455.6,1246.88 L 455.024,1241.02 L 455.024,1208.23 L 448.024,1205.11 L 435.508,1196.02 L 425.156,1184.52 L 417.421,1171.12 L 412.641,1156.41 L 411.024,1141.02 L 412.641,1125.64 L 417.421,1110.93 L 425.156,1097.53 L 435.508,1086.03 L 448.024,1076.94 L 462.156,1070.65 L 477.289,1067.43 L 492.759,1067.43 L 507.891,1070.65 L 522.024,1076.94 L 534.539,1086.03 L 544.891,1097.53 L 552.626,1110.93 L 557.407,1125.64 L 559.024,1141.02 L 557.407,1156.41 L 552.626,1171.12 L 544.891,1184.52 L 534.539,1196.02 L 522.024,1205.11 L 515.023,1208.23 z " style="fill-opacity:1.000000;fill:rgb(175,59,51);stroke:rgb(0,0,0);stroke-width:2"/></g>
<g fill-rule="evenodd"><path d="M 1515.02,1208.23 L 1515.02,1328.74 L 2284.38,2111.02 L 2878.21,2111.02 L 2955.02,2034.21 L 2955.02,1996.24 L 2953.53,1995.58 L 2942.87,1987.84 L 2934.06,1978.05 L 2927.48,1966.64 L 2923.41,1954.12 L 2922.03,1941.02 L 2923.41,1927.93 L 2927.48,1915.4 L 2934.06,1904 L 2942.87,1894.21 L 2953.53,1886.47 L 2955.02,1885.8 L 2955.02,1796.24 L 2953.53,1795.58 L 2942.87,1787.84 L 2934.06,1778.05 L 2927.48,1766.64 L 2923.41,1754.12 L 2922.03,1741.02 L 2923.41,1727.93 L 2927.48,1715.4 L 2934.06,1704 L 2942.87,1694.21 L 2953.53,1686.47 L 2965.56,1681.11 L 2978.44,1678.38 L 2991.61,1678.38 L 3004.49,1681.11 L 3016.52,1686.47 L 3027.17,1694.21 L 3035.99,1704 L 3042.57,1715.4 L 3046.64,1727.93 L 3048.02,1741.02 L 3046.64,1754.12 L 3042.57,1766.64 L 3035.99,1778.05 L 3027.17,1787.84 L 3016.52,1795.58 L 3015.02,1796.24 L 3015.02,1885.8 L 3016.52,1886.47 L 3027.17,1894.21 L 3035.99,1904 L 3042.57,1915.4 L 3046.64,1927.93 L 3048.02,1941.02 L 3046.64,1954.12 L 3042.57,1966.64 L 3035.99,1978.05 L 3027.17,1987.84 L 3016.52,1995.58 L 3015.02,1996.24 L 3015.02,2046.63 L 3014.45,2052.49 L 3012.74,2058.11 L 3009.97,2063.3 L 3006.24,2067.85 L 2911.85,2162.24 L 2907.3,2165.97 L 2902.11,2168.74 L 2896.49,2170.45 L 2890.63,2171.02 L 2271.81,2171.02 L 2267.07,2170.65 L 2262.44,2169.52 L 2258.05,2167.69 L 2254.01,2165.18 L 2250.42,2162.06 L 1463.63,1362.06 L 1459.98,1357.53 L 1457.26,1352.39 L 1455.59,1346.81 L 1455.02,1341.02 L 1455.02,1208.23 L 1448.02,1205.11 L 1435.51,1196.02 L 1425.16,1184.52 L 1417.39,1171.02 L 1352.66,1171.02 L 1344.89,1184.52 L 1334.54,1196.02 L 1322.02,1205.11 L 1307.89,1211.4 L 1292.76,1214.62 L 1277.29,1214.62 L 1262.16,1211.4 L 1248.02,1205.11 L 1235.51,1196.02 L 1225.16,1184.52 L 1217.42,1171.12 L 1212.64,1156.41 L 1211.02,1141.02 L 1212.64,1125.64 L 1217.42,1110.93 L 1225.16,1097.53 L 1235.51,1086.03 L 1248.02,1076.94 L 1262.16,1070.65 L 1277.29,1067.43 L 1292.76,1067.43 L 1307.89,1070.65 L 1322.02,1076.94 L 1334.54,1086.03 L 1344.89,1097.53 L 1352.66,1111.02 L 1417.39,1111.02 L 1425.16,1097.53 L 1435.51,1086.03 L 1448.02,1076.94 L 1462.16,1070.65 L 1477.29,1067.43 L 1492.76,1067.43 L 1507.89,1070.65 L 1522.02,1076.94 L 1534.54,1086.03 L 1544.89,1097.53 L 1552.63,1110.93 L 1557.41,1125.64 L 1559.02,1141.02 L 1557.41,1156.41 L 1552.63,1171.12 L 1544.89,1184.52 L 1534.54,1196.02 L 1522.02,1205.11 L 1515.02,1208.23 z " style="fill-opacity:1.000000;fill:rgb(205,227,80);stroke:rgb(0,0,0);stroke-width:2"/></g>
<g fill-rule="evenodd"><path d="M 1055.02,473.821 L 1055.02,308.226 L 1048.02,305.11 L 1035.51,296.016 L 1025.16,284.52 L 1017.42,271.122 L 1012.64,256.409 L 1011.02,241.024 L 1012.64,225.638 L 1017.42,210.925 L 1025.16,197.528 L 1035.51,186.031 L 1048.02,176.938 L 1055.02,173.821 L 1055.02,71.0238 L 797.45,71.0236 L 515.024,353.45 L 515.023,473.821 L 522.024,476.938 L 534.539,486.031 L 544.891,497.528 L 552.626,510.925 L 557.407,525.638 L 559.024,541.024 L 557.407,556.409 L 552.626,571.122 L 544.891,584.52 L 534.539,596.016 L 522.024,605.11 L 507.891,611.402 L 492.759,614.618 L 477.289,614.618 L 462.156,611.402 L 448.024,605.11 L 435.508,596.016 L 425.156,584.52 L 417.389,571.024 L 152.658,571.024 L 144.891,584.52 L 134.539,596.016 L 122.024,605.11 L 107.891,611.402 L 92.7587,614.618 L 77.2885,614.618 L 62.1564,611.402 L 48.0236,605.11 L 35.508,596.016 L 25.1564,584.52 L 17.4213,571.122 L 12.6407,556.409 L 11.0236,541.024 L 12.6407,525.638 L 17.4213,510.925 L 25.1564,497.528 L 35.508,486.031 L 48.0236,476.938 L 62.1564,470.645 L 77.2885,467.429 L 92.7587,467.429 L 107.891,470.645 L 122.024,476.938 L 134.539,486.031 L 144.891,497.528 L 152.658,511.023 L 417.389,511.023 L 425.156,497.528 L 435.508,486.031 L 448.024,476.938 L 455.024,473.821 L 455.024,341.024 L 455.6,335.171 L 457.307,329.543 L 460.08,324.357 L 463.81,319.81 L 763.81,19.8104 L 768.357,16.0795 L 773.543,13.3072 L 779.171,11.6001 L 785.024,11.0236 L 7989.67,11.0236 L 7995.53,11.6 L 8001.15,13.3072 L 8006.34,16.0794 L 8010.89,19.8102 L 8106.24,115.158 L 8109.29,118.738 L 8111.75,122.752 L 8113.56,127.101 L 8114.65,131.679 L 8115.02,136.372 L 8115.02,173.821 L 8122.02,176.938 L 8134.54,186.031 L 8144.89,197.528 L 8152.63,210.925 L 8157.41,225.638 L 8159.02,241.024 L 8157.41,256.409 L 8152.63,271.122 L 8144.89,284.52 L 8134.54,296.016 L 8122.02,305.11 L 8115.02,308.226 L 8115.02,473.821 L 8122.02,476.938 L 8134.54,486.031 L 8144.89,497.528 L 8152.63,510.925 L 8157.41,525.638 L 8159.02,541.024 L 8157.41,556.409 L 8152.63,571.122 L 8144.89,584.52 L 8134.54,596.016 L 8122.02,605.11 L 8107.89,611.402 L 8092.76,614.618 L 8077.29,614.618 L 8062.16,611.402 L 8048.02,605.11 L 8035.51,596.016 L 8025.16,584.52 L 8017.42,571.122 L 8012.64,556.409 L 8011.02,541.024 L 8012.64,525.638 L 8017.42,510.925 L 8025.16,497.528 L 8035.51,486.031 L 8048.02,476.938 L 8055.02,473.821 L 8055.02,308.226 L 8048.02,305.11 L 8035.51,296.016 L 8025.16,284.52 L 8017.42,271.122 L 8012.64,256.409 L 8011.02,241.024 L 8012.64,225.638 L 8017.42,210.925 L 8025.16,197.528 L 8035.51,186.031 L 8048.02,176.938 L 8055.02,173.821 L 8055.02,148.798 L 7977.25,71.0236 L 7715.02,71.0239 L 7715.02,173.821 L 7722.02,176.938 L 7734.54,186.031 L 7744.89,197.528 L 7752.63,210.925 L 7757.41,225.638 L 7759.02,241.024 L 7757.41,256.409 L 7752.63,271.122 L 7744.89,284.52 L 7734.54,296.016 L 7722.02,305.11 L 7715.02,308.226 L 7715.02,473.821 L 7722.02,476.938 L 7734.54,486.031 L 7744.89,497.528 L 7752.63,510.925 L 7757.41,525.638 L 7759.02,541.024 L 7757.41,556.409 L 7752.63,571.122 L 7744.89,584.52 L 7734.54,596.016 L 7722.02,605.11 L 7707.89,611.402 L 7692.76,614.618 L 7677.29,614.618 L 7662.16,611.402 L 7648.02,605.11 L 7635.51,596.016 L 7625.16,584.52 L 7617.42,571.122 L 7612.64,556.409 L 7611.02,541.024 L 7612.64,525.638 L 7617.42,510.925 L 7625.16,497.528 L 7635.51,486.031 L 7648.02,476.938 L 7655.02,473.821 L 7655.02,308.226 L 7648.02,305.11 L 7635.51,296.016 L 7625.16,284.52 L 7617.42,271.122 L 7612.64,256.409 L 7611.02,241.024 L 7612.64,225.638 L 7617.42,210.925 L 7625.16,197.528 L 7635.51,186.031 L 7648.02,176.938 L 7655.02,173.821 L 7655.02,71.0239 L 7315.02,71.0239 L 7315.02,173.821 L 7322.02,176.938 L 7334.54,186.031 L 7344.89,197.528 L 7352.63,210.925 L 7357.41,225.638 L 7359.02,241.024 L 7357.41,256.409 L 7352.63,271.122 L 7344.89,284.52 L 7334.54,296.016 L 7322.02,305.11 L 7315.02,308.226 L 7315.02,473.821 L 7322.02,476.938 L 7334.54,486.031 L 7344.89,497.528 L 7352.63,510.925 L 7357.41,525.638 L 7359.02,541.024 L 7357.41,556.409 L 7352.63,571.122 L 7344.89,584.52 L 7334.54,596.016 L 7322.02,605.11 L 7307.89,611.402 L 7292.76,614.618 L 7277.29,614.618 L 7262.16,611.402 L 7248.02,605.11 L 7235.51,596.016 L 7225.16,584.52 L 7217.42,571.122 L 7212.64,556.409 L 7211.02,541.024 L 7212.64,525.638 L 7217.42,510.925 L 7225.16,497.528 L 7235.51,486.031 L 7248.02,476.938 L 7255.02,473.821 L 7255.02,308.226 L 7248.02,305.11 L 7235.51,296.016 L 7225.16,284.52 L 7217.42,271.122 L 7212.64,256.409 L 7211.02,241.024 L 7212.64,225.638 L 7217.42,210.925 L 7225.16,197.528 L 7235.51,186.031 L 7248.02,176.938 L 7255.02,173.821 L 7255.02,71.0239 L 6915.02,71.0239 L 6915.02,173.821 L 6922.02,176.938 L 6934.54,186.031 L 6944.89,197.528 L 6952.63,210.925 L 6957.41,225.638 L 6959.02,241.024 L 6957.41,256.409 L 6952.63,271.122 L 6944.89,284.52 L 6934.54,296.016 L 6922.02,305.11 L 6915.02,308.226 L 6915.02,473.821 L 6922.02,476.938 L 6934.54,486.031 L 6944.89,497.528 L 6952.63,510.925 L 6957.41,525.638 L 6959.02,541.024 L 6957.41,556.409 L 6952.63,571.122 L 6944.89,584.52 L 6934.54,596.016 L 6922.02,605.11 L 6907.89,611.402 L 6892.76,614.618 L 6877.29,614.618 L 6862.16,611.402 L 6848.02,605.11 L 6835.51,596.016 L 6825.16,584.52 L 6817.42,571.122 L 6812.64,556.409 L 6811.02,541.024 L 6812.64,525.638 L 6817.42,510.925 L 6825.16,497.528 L 6835.51,486.031 L 6848.02,476.938 L 6855.02,473.821 L 6855.02,308.226 L 6848.02,305.11 L 6835.51,296.016 L 6825.16,284.52 L 6817.42,271.122 L 6812.64,256.409 L 6811.02,241.024 L 6812.64,225.638 L 6817.42,210.925 L 6825.16,197.528 L 6835.51,186.031 L 6848.02,176.938 L 6855.02,173.821 L 6855.02,71.0239 L 6515.02,71.0238 L 6515.02,173.821 L 6522.02,176.938 L 6534.54,186.031 L 6544.89,197.528 L 6552.63,210.925 L 6557.41,225.638 L 6559.02,241.024 L 6557.41,256.409 L 6552.63,271.122 L 6544.89,284.52 L 6534.54,296.016 L 6522.02,305.11 L 6515.02,308.226 L 6515.02,473.821 L 6522.02,476.938 L 6534.54,486.031 L 6544.89,497.528 L 6552.63,510.925 L 6557.41,525.638 L 6559.02,541.024 L 6557.41,556.409 L 6552.63,571.122 L 6544.89,584.52 L 6534.54,596.016 L 6522.02,605.11 L 6507.89,611.402 L 6492.76,614.618 L 6477.29,614.618 L 6462.16,611.402 L 6448.02,605.11 L 6435.51,596.016 L 6425.16,584.52 L 6417.42,571.122 L 6412.64,556.409 L 6411.02,541.024 L 6412.64,525.638 L 6417.42,510.925 L 6425.16,497.528 L 6435.51,486.031 L 6448.02,476.938 L 6455.02,473.821 L 6455.02,308.226 L 6448.02,305.11 L 6435.51,296.016 L 6425.16,284.52 L 6417.42,271.122 L 6412.64,256.409 L 6411.02,241.024 L 6412.64,225.638 L 6417.42,210.925 L 6425.16,197.528 L 6435.51,186.031 L 6448.02,176.938 L 6455.02,173.821 L 6455.02,71.0238 L 6115.02,71.0238 L 6115.02,173.821 L 6122.02,176.938 L 6134.54,186.031 L 6144.89,197.528 L 6152.63,210.925 L 6157.41,225.638 L 6159.02,241.024 L 6157.41,256.409 L 6152.63,271.122 L 6144.89,284.52 L 6134.54,296.016 L 6122.02,305.11 L 6115.02,308.226 L 6115.02,473.821 L 6122.02,476.938 L 6134.54,486.031 L 6144.89,497.528 L 6152.63,510.925 L 6157.41,525.638 L 6159.02,541.024 L 6157.41,556.409 L 6152.63,571.122 L 6144.89,584.52 L 6134.54,596.016 L 6122.02,605.11 L 6107.89,611.402 L 6092.76,614.618 L 6077.29,614.618 L 6062.16,611.402 L 6048.02,605.11 L 6035.51,596.016 L 6025.16,584.52 L 6017.42,571.122 L 6012.64,556.409 L 6011.02,541.024 L 6012.64,525.638 L 6017.42,510.925 L 6025.16,497.528 L 6035.51,486.031 L 6048.02,476.938 L 6055.02,473.821 L 6055.02,308.226 L 6048.02,305.11 L 6035.51,296.016 L 6025.16,284.52 L 6017.42,271.122 L 6012.64,256.409 L 6011.02,241.024 L 6012.64,225.638 L 6017.42,210.925 L 6025.16,197.528 L 6035.51,186.031 L 6048.02,176.938 L 6055.02,173.821 L 6055.02,71.0238 L 5715.02,71.0238 L 5715.02,173.821 L 5722.02,176.938 L 5734.54,186.031 L 5744.89,197.528 L 5752.63,210.925 L 5757.41,225.638 L 5759.02,241.024 L 5757.41,256.409 L 5752.63,271.122 L 5744.89,284.52 L 5734.54,296.016 L 5722.02,305.11 L 5715.02,308.226 L 5715.02,473.821 L 5722.02,476.938 L 5734.54,486.031 L 5744.89,497.528 L 5752.63,510.925 L 5757.41,525.638 L 5759.02,541.024 L 5757.41,556.409 L 5752.63,571.122 L 5744.89,584.52 L 5734.54,596.016 L 5722.02,605.11 L 5707.89,611.402 L 5692.76,614.618 L 5677.29,614.618 L 5662.16,611.402 L 5648.02,605.11 L 5635.51,596.016 L 5625.16,584.52 L 5617.42,571.122 L 5612.64,556.409 L 5611.02,541.024 L 5612.64,525.638 L 5617.42,510.925 L 5625.16,497.528 L 5635.51,486.031 L 5648.02,476.938 L 5655.02,473.821 L 5655.02,308.226 L 5648.02,305.11 L 5635.51,296.016 L 5625.16,284.52 L 5617.42,271.122 L 5612.64,256.409 L 5611.02,241.024 L 5612.64,225.638 L 5617.42,210.925 L 5625.16,197.528 L 5635.51,186.031 L 5648.02,176.938 L 5655.02,173.821 L 5655.02,71.0238 L 5315.02,71.0238 L 5315.02,173.821 L 5322.02,176.938 L 5334.54,186.031 L 5344.89,197.528 L 5352.63,210.925 L 5357.41,225.638 L 5359.02,241.024 L 5357.41,256.409 L 5352.63,271.122 L 5344.89,284.52 L 5334.54,296.016 L 5322.02,305.11 L 5315.02,308.226 L 5315.02,473.821 L 5322.02,476.938 L 5334.54,486.031 L 5344.89,497.528 L 5352.63,510.925 L 5357.41,525.638 L 5359.02,541.024 L 5357.41,556.409 L 5352.63,571.122 L 5344.89,584.52 L 5334.54,596.016 L 5322.02,605.11 L 5307.89,611.402 L 5292.76,614.618 L 5277.29,614.618 L 5262.16,611.402 L 5248.02,605.11 L 5235.51,596.016 L 5225.16,584.52 L 5217.42,571.122 L 5212.64,556.409 L 5211.02,541.024 L 5212.64,525.638 L 5217.42,510.925 L 5225.16,497.528 L 5235.51,486.031 L 5248.02,476.938 L 5255.02,473.821 L 5255.02,308.226 L 5248.02,305.11 L 5235.51,296.016 L 5225.16,284.52 L 5217.42,271.122 L 5212.64,256.409 L 5211.02,241.024 L 5212.64,225.638 L 5217.42,210.925 L 5225.16,197.528 L 5235.51,186.031 L 5248.02,176.938 L 5255.02,173.821 L 5255.02,71.0238 L 4715.02,71.0238 L 4715.02,173.821 L 4722.02,176.938 L 4734.54,186.031 L 4744.89,197.528 L 4752.63,210.925 L 4757.41,225.638 L 4759.02,241.024 L 4757.41,256.409 L 4752.63,271.122 L 4744.89,284.52 L 4734.54,296.016 L 4722.02,305.11 L 4715.02,308.226 L 4715.02,473.821 L 4722.02,476.938 L 4734.54,486.031 L 4744.89,497.528 L 4752.63,510.925 L 4757.41,525.638 L 4759.02,541.024 L 4757.41,556.409 L 4752.63,571.122 L 4744.89,584.52 L 4734.54,596.016 L 4722.02,605.11 L 4707.89,611.402 L 4692.76,614.618 L 4677.29,614.618 L 4662.16,611.402 L 4648.02,605.11 L 4635.51,596.016 L 4625.16,584.52 L 4617.42,571.122 L 4612.64,556.409 L 4611.02,541.024 L 4612.64,525.638 L 4617.42,510.925 L 4625.16,497.528 L 4635.51,486.031 L 4648.02,476.938 L 4655.02,473.821 L 4655.02,308.226 L 4648.02,305.11 L 4635.51,296.016 L 4625.16,284.52 L 4617.42,271.122 L 4612.64,256.409 L 4611.02,241.024 L 4612.64,225.638 L 4617.42,210.925 L 4625.16,197.528 L 4635.51,186.031 L 4648.02,176.938 L 4655.02,173.821 L 4655.02,71.0238 L 4315.02,71.0238 L 4315.02,173.821 L 4322.02,176.938 L 4334.54,186.031 L 4344.89,197.528 L 4352.63,210.925 L 4357.41,225.638 L 4359.02,241.024 L 4357.41,256.409 L 4352.63,271.122 L 4344.89,284.52 L 4334.54,296.016 L 4322.02,305.11 L 4315.02,308.226 L 4315.02,473.821 L 4322.02,476.938 L 4334.54,486.031 L 4344.89,497.528 L 4352.63,510.925 L 4357.41,525.638 L 4359.02,541.024 L 4357.41,556.409 L 4352.63,571.122 L 4344.89,584.52 L 4334.54,596.016 L 4322.02,605.11 L 4307.89,611.402 L 4292.76,614.618 L 4277.29,614.618 L 4262.16,611.402 L 4248.02,605.11 L 4235.51,596.016 L 4225.16,584.52 L 4217.42,571.122 L 4212.64,556.409 L 4211.02,541.024 L 4212.64,525.638 L 4217.42,510.925 L 4225.16,497.528 L 4235.51,486.031 L 4248.02,476.938 L 4255.02,473.821 L 4255.02,308.226 L 4248.02,305.11 L 4235.51,296.016 L 4225.16,284.52 L 4217.42,271.122 L 4212.64,256.409 L 4211.02,241.024 L 4212.64,225.638 L 4217.42,210.925 L 4225.16,197.528 L 4235.51,186.031 L 4248.02,176.938 L 4255.02,173.821 L 4255.02,71.0238 L 3915.02,71.0238 L 3915.02,173.821 L 3922.02,176.938 L 3934.54,186.031 L 3944.89,197.528 L 3952.63,210.925 L 3957.41,225.638 L 3959.02,241.024 L 3957.41,256.409 L 3952.63,271.122 L 3944.89,284.52 L 3934.54,296.016 L 3922.02,305.11 L 3915.02,308.226 L 3915.02,473.821 L 3922.02,476.938 L 3934.54,486.031 L 3944.89,497.528 L 3952.63,510.925 L 3957.41,525.638 L 3959.02,541.024 L 3957.41,556.409 L 3952.63,571.122 L 3944.89,584.52 L 3934.54,596.016 L 3922.02,605.11 L 3907.89,611.402 L 3892.76,614.618 L 3877.29,614.618 L 3862.16,611.402 L 3848.02,605.11 L 3835.51,596.016 L 3825.16,584.52 L 3817.42,571.122 L 3812.64,556.409 L 3811.02,541.024 L 3812.64,525.638 L 3817.42,510.925 L 3825.16,497.528 L 3835.51,486.031 L 3848.02,476.938 L 3855.02,473.821 L 3855.02,308.226 L 3848.02,305.11 L 3835.51,296.016 L 3825.16,284.52 L 3817.42,271.122 L 3812.64,256.409 L 3811.02,241.024 L 3812.64,225.638 L 3817.42,210.925 L 3825.16,197.528 L 3835.51,186.031 L 3848.02,176.938 L 3855.02,173.821 L 3855.02,71.0238 L 3515.02,71.0238 L 3515.02,173.821 L 3522.02,176.938 L 3534.54,186.031 L 3544.89,197.528 L 3552.63,210.925 L 3557.41,225.638 L 3559.02,241.024 L 3557.41,256.409 L 3552.63,271.122 L 3544.89,284.52 L 3534.54,296.016 L 3522.02,305.11 L 3515.02,308.226 L 3515.02,473.821 L 3522.02,476.938 L 3534.54,486.031 L 3544.89,497.528 L 3552.63,510.925 L 3557.41,525.638 L 3559.02,541.024 L 3557.41,556.409 L 3552.63,571.122 L 3544.89,584.52 L 3534.54,596.016 L 3522.02,605.11 L 3507.89,611.402 L 3492.76,614.618 L 3477.29,614.618 L 3462.16,611.402 L 3448.02,605.11 L 3435.51,596.016 L 3425.16,584.52 L 3417.42,571.122 L 3412.64,556.409 L 3411.02,541.024 L 3412.64,525.638 L 3417.42,510.925 L 3425.16,497.528 L 3435.51,486.031 L 3448.02,476.938 L 3455.02,473.821 L 3455.02,308.226 L 3448.02,305.11 L 3435.51,296.016 L 3425.16,284.52 L 3417.42,271.122 L 3412.64,256.409 L 3411.02,241.024 L 3412.64,225.638 L 3417.42,210.925 L 3425.16,197.528 L 3435.51,186.031 L 3448.02,176.938 L 3455.02,173.821 L 3455.02,71.0238 L 3115.02,71.0238 L 3115.02,173.821 L 3122.02,176.938 L 3134.54,186.031 L 3144.89,197.528 L 3152.63,210.925 L 3157.41,225.638 L 3159.02,241.024 L 3157.41,256.409 L 3152.63,271.122 L 3144.89,284.52 L 3134.54,296.016 L 3122.02,305.11 L 3115.02,308.226 L 3115.02,473.821 L 3122.02,476.938 L 3134.54,486.031 L 3144.89,497.528 L 3152.63,510.925 L 3157.41,525.638 L 3159.02,541.024 L 3157.41,556.409 L 3152.63,571.122 L 3144.89,584.52 L 3134.54,596.016 L 3122.02,605.11 L 3107.89,611.402 L 3092.76,614.618 L 3077.29,614.618 L 3062.16,611.402 L 3048.02,605.11 L 3035.51,596.016 L 3025.16,584.52 L 3017.42,571.122 L 3012.64,556.409 L 3011.02,541.024 L 3012.64,525.638 L 3017.42,510.925 L 3025.16,497.528 L 3035.51,486.031 L 3048.02,476.938 L 3055.02,473.821 L 3055.02,308.226 L 3048.02,305.11 L 3035.51,296.016 L 3025.16,284.52 L 3017.42,271.122 L 3012.64,256.409 L 3011.02,241.024 L 3012.64,225.638 L 3017.42,210.925 L 3025.16,197.528 L 3035.51,186.031 L 3048.02,176.938 L 3055.02,173.821 L 3055.02,71.0238 L 2715.02,71.0238 L 2715.02,173.821 L 2722.02,176.938 L 2734.54,186.031 L 2744.89,197.528 L 2752.63,210.925 L 2757.41,225.638 L 2759.02,241.024 L 2757.41,256.409 L 2752.63,271.122 L 2744.89,284.52 L 2734.54,296.016 L 2722.02,305.11 L 2715.02,308.226 L 2715.02,473.821 L 2722.02,476.938 L 2734.54,486.031 L 2744.89,497.528 L 2752.63,510.925 L 2757.41,525.638 L 2759.02,541.024 L 2757.41,556.409 L 2752.63,571.122 L 2744.89,584.52 L 2734.54,596.016 L 2722.02,605.11 L 2707.89,611.402 L 2692.76,614.618 L 2677.29,614.618 L 2662.16,611.402 L 2648.02,605.11 L 2635.51,596.016 L 2625.16,584.52 L 2617.42,571.122 L 2612.64,556.409 L 2611.02,541.024 L 2612.64,525.638 L 2617.42,510.925 L 2625.16,497.528 L 2635.51,486.031 L 2648.02,476.938 L 2655.02,473.821 L 2655.02,308.226 L 2648.02,305.11 L 2635.51,296.016 L 2625.16,284.52 L 2617.42,271.122 L 2612.64,256.409 L 2611.02,241.024 L 2612.64,225.638 L 2617.42,210.925 L 2625.16,197.528 L 2635.51,186.031 L 2648.02,176.938 L 2655.02,173.821 L 2655.02,71.0238 L 2315.02,71.0238 L 2315.02,173.821 L 2322.02,176.938 L 2334.54,186.031 L 2344.89,197.528 L 2352.63,210.925 L 2357.41,225.638 L 2359.02,241.024 L 2357.41,256.409 L 2352.63,271.122 L 2344.89,284.52 L 2334.54,296.016 L 2322.02,305.11 L 2315.02,308.226 L 2315.02,473.821 L 2322.02,476.938 L 2334.54,486.031 L 2344.89,497.528 L 2352.63,510.925 L 2357.41,525.638 L 2359.02,541.024 L 2357.41,556.409 L 2352.63,571.122 L 2344.89,584.52 L 2334.54,596.016 L 2322.02,605.11 L 2307.89,611.402 L 2292.76,614.618 L 2277.29,614.618 L 2262.16,611.402 L 2248.02,605.11 L 2235.51,596.016 L 2225.16,584.52 L 2217.42,571.122 L 2212.64,556.409 L 2211.02,541.024 L 2212.64,525.638 L 2217.42,510.925 L 2225.16,497.528 L 2235.51,486.031 L 2248.02,476.938 L 2255.02,473.821 L 2255.02,308.226 L 2248.02,305.11 L 2235.51,296.016 L 2225.16,284.52 L 2217.42,271.122 L 2212.64,256.409 L 2211.02,241.024 L 2212.64,225.638 L 2217.42,210.925 L 2225.16,197.528 L 2235.51,186.031 L 2248.02,176.938 L 2255.02,173.821 L 2255.02,71.0238 L 1915.02,71.0238 L 1915.02,173.821 L 1922.02,176.938 L 1934.54,186.031 L 1944.89,197.528 L 1952.63,210.925 L 1957.41,225.638 L 1959.02,241.024 L 1957.41,256.409 L 1952.63,271.122 L 1944.89,284.52 L 1934.54,296.016 L 1922.02,305.11 L 1915.02,308.226 L 1915.02,473.821 L 1922.02,476.938 L 1934.54,486.031 L 1944.89,497.528 L 1952.63,510.925 L 1957.41,525.638 L 1959.02,541.024 L 1957.41,556.409 L 1952.63,571.122 L 1944.89,584.52 L 1934.54,596.016 L 1922.02,605.11 L 1907.89,611.402 L 1892.76,614.618 L 1877.29,614.618 L 1862.16,611.402 L 1848.02,605.11 L 1835.51,596.016 L 1825.16,584.52 L 1817.42,571.122 L 1812.64,556.409 L 1811.02,541.024 L 1812.64,525.638 L 1817.42,510.925 L 1825.16,497.528 L 1835.51,486.031 L 1848.02,476.938 L 1855.02,473.821 L 1855.02,308.226 L 1848.02,305.11 L 1835.51,296.016 L 1825.16,284.52 L 1817.42,271.122 L 1812.64,256.409 L 1811.02,241.024 L 1812.64,225.638 L 1817.42,210.925 L 1825.16,197.528 L 1835.51,186.031 L 1848.02,176.938 L 1855.02,173.821 L 1855.02,71.0238 L 1515.02,71.0238 L 1515.02,173.821 L 1522.02,176.938 L 1534.54,186.031 L 1544.89,197.528 L 1552.63,210.925 L 1557.41,225.638 L 1559.02,241.024 L 1557.41,256.409 L 1552.63,271.122 L 1544.89,284.52 L 1534.54,296.016 L 1522.02,305.11 L 1515.02,308.226 L 1515.02,473.821 L 1522.02,476.938 L 1534.54,486.031 L 1544.89,497.528 L 1552.63,510.925 L 1557.41,525.638 L 1559.02,541.024 L 1557.41,556.409 L 1552.63,571.122 L 1544.89,584.52 L 1534.54,596.016 L 1522.02,605.11 L 1507.89,611.402 L 1492.76,614.618 L 1477.29,614.618 L 1462.16,611.402 L 1448.02,605.11 L 1435.51,596.016 L 1425.16,584.52 L 1417.42,571.122 L 1412.64,556.409 L 1411.02,541.024 L 1412.64,525.638 L 1417.42,510.925 L 1425.16,497.528 L 1435.51,486.031 L 1448.02,476.938 L 1455.02,473.821 L 1455.02,308.226 L 1448.02,305.11 L 1435.51,296.016 L 1425.16,284.52 L 1417.42,271.122 L 1412.64,256.409 L 1411.02,241.024 L 1412.64,225.638 L 1417.42,210.925 L 1425.16,197.528 L 1435.51,186.031 L 1448.02,176.938 L 1455.02,173.821 L 1455.02,71.0238 L 1115.02,71.0238 L 1115.02,173.821 L 1122.02,176.938 L 1134.54,186.031 L 1144.89,197.528 L 1152.63,210.925 L 1157.41,225.638 L 1159.02,241.024 L 1157.41,256.409 L 1152.63,271.122 L 1144.89,284.52 L 1134.54,296.016 L 1122.02,305.11 L 1115.02,308.226 L 1115.02,473.821 L 1122.02,476.938 L 1134.54,486.031 L 1144.89,497.528 L 1152.63,510.925 L 1157.41,525.638 L 1159.02,541.024 L 1157.41,556.409 L 1152.63,571.122 L 1144.89,584.52 L 1134.54,596.016 L 1122.02,605.11 L 1107.89,611.402 L 1092.76,614.618 L 1077.29,614.618 L 1062.16,611.402 L 1048.02,605.11 L 1035.51,596.016 L 1025.16,584.52 L 1017.42,571.122 L 1012.64,556.409 L 1011.02,541.024 L 1012.64,525.638 L 1017.42,510.925 L 1025.16,497.528 L 1035.51,486.031 L 1048.02,476.938 L 1055.02,473.821 z " style="fill-opacity:1.000000;fill:rgb(72,71,21);stroke:rgb(0,0,0);stroke-width:2"/></g>
<g fill-rule="evenodd"><path d="M 855.023,473.821 L 855.023,308.226 L 848.024,305.11 L 835.508,296.016 L 825.156,284.52 L 817.421,271.122 L 812.641,256.409 L 811.024,241.024 L 812.641,225.638 L 817.421,210.925 L 825.156,197.528 L 835.508,186.031 L 848.024,176.938 L 862.156,170.645 L 877.289,167.429 L 892.759,167.429 L 907.891,170.645 L 922.024,176.938 L 934.539,186.031 L 944.891,197.528 L 952.626,210.925 L 957.407,225.638 L 959.024,241.024 L 957.407,256.409 L 952.626,271.122 L 944.891,284.52 L 934.539,296.016 L 922.024,305.11 L 915.024,308.226 L 915.024,473.821 L 922.024,476.938 L 934.539,486.031 L 944.891,497.528 L 952.626,510.925 L 957.407,525.638 L 959.024,541.024 L 957.407,556.409 L 952.626,571.122 L 944.891,584.52 L 934.539,596.016 L 922.024,605.11 L 907.891,611.402 L 892.759,614.618 L 877.289,614.618 L 862.156,611.402 L 848.024,605.11 L 835.508,596.016 L 825.156,584.52 L 817.421,571.122 L 812.641,556.409 L 811.024,541.024 L 812.641,525.638 L 817.421,510.925 L 825.156,497.528 L 835.508,486.031 L 848.024,476.938 L 855.023,473.821 z " style="fill-opacity:1.000000;fill:rgb(92,187,111);stroke:rgb(0,0,0);stroke-width:2"/></g>
<g fill-rule="evenodd"><path d="M 1255.02,473.821 L 1255.02,308.226 L 1248.02,305.11 L 1235.51,296.016 L 1225.16,284.52 L 1217.42,271.122 L 1212.64,256.409 L 1211.02,241.024 L 1212.64,225.638 L 1217.42,210.925 L 1225.16,197.528 L 1235.51,186.031 L 1248.02,176.938 L 1262.16,170.645 L 1277.29,167.429 L 1292.76,167.429 L 1307.89,170.645 L 1322.02,176.938 L 1334.54,186.031 L 1344.89,197.528 L 1352.63,210.925 L 1357.41,225.638 L 1359.02,241.024 L 1357.41,256.409 L 1352.63,271.122 L 1344.89,284.52 L 1334.54,296.016 L 1322.02,305.11 L 1315.02,308.226 L 1315.02,473.821 L 1322.02,476.938 L 1334.54,486.031 L 1344.89,497.528 L 1352.63,510.925 L 1357.41,525.638 L 1359.02,541.024 L 1357.41,556.409 L 1352.63,571.122 L 1344.89,584.52 L 1334.54,596.016 L 1322.02,605.11 L 1307.89,611.402 L 1292.76,614.618 L 1277.29,614.618 L 1262.16,611.402 L 1248.02,605.11 L 1235.51,596.016 L 1225.16,584.52 L 1217.42,571.122 L 1212.64,556.409 L 1211.02,541.024 L 1212.64,525.638 L 1217.42,510.925 L 1225.16,497.528 L 1235.51,486.031 L 1248.02,476.938 L 1255.02,473.821 z " style="fill-opacity:1.000000;fill:rgb(34,25,186);stroke:rgb(0,0,0);stroke-width:2"/></g>
</svg>
