M48
; DRILL file {KiCad (5.99.0-2302-g1dc804232)} date Sat Jul 18 17:52:22 2020
; FORMAT={-:-/ absolute / inch / decimal}
; #@! TF.CreationDate,2020-07-18T17:52:22-07:00
; #@! TF.GenerationSoftware,Kicad,Pcbnew,(5.99.0-2302-g1dc804232)
FMAT,2
INCH
T1C0.0354
T2C0.0400
T3C0.0433
%
G90
G05
T1
X7.05Y-3.7
X7.05Y-4.0
X4.55Y-3.7
X4.55Y-4.0
X4.75Y-3.7
X4.75Y-4.0
X7.65Y-3.7
X7.65Y-4.0
X7.45Y-3.7
X7.45Y-4.0
X4.35Y-3.7
X4.35Y-4.0
X4.05Y-3.7
X4.05Y-4.0
X6.85Y-3.7
X6.85Y-4.0
X6.15Y-3.7
X6.15Y-4.0
X5.75Y-3.7
X5.75Y-4.0
X4.45Y-3.7
X4.45Y-4.0
X5.15Y-3.7
X5.15Y-4.0
X5.35Y-3.7
X5.35Y-4.0
X4.25Y-3.7
X4.25Y-4.0
X5.55Y-3.7
X5.55Y-4.0
X4.95Y-3.7
X4.95Y-4.0
X6.65Y-3.7
X6.65Y-4.0
X5.95Y-3.7
X5.95Y-4.0
X7.25Y-3.7
X7.25Y-4.0
X3.85Y-3.7
X3.85Y-4.0
X6.45Y-3.7
X6.45Y-4.0
X7.85Y-3.7
X7.85Y-4.0
T2
X4.25Y-3.55
X4.35Y-3.55
X4.45Y-3.55
X4.55Y-3.55
X4.75Y-3.55
X4.85Y-3.55
X4.95Y-3.55
X5.05Y-3.55
X5.15Y-3.55
X5.25Y-3.55
X5.35Y-3.55
X5.45Y-3.55
X5.55Y-3.55
X5.65Y-3.55
X5.75Y-3.55
X5.85Y-3.55
X5.95Y-3.55
X6.05Y-3.55
X6.15Y-3.55
X6.25Y-3.55
X6.45Y-3.55
X6.55Y-3.55
X6.65Y-3.55
X6.75Y-3.55
X6.85Y-3.55
X6.95Y-3.55
X7.05Y-3.55
X7.15Y-3.55
X7.25Y-3.55
X7.35Y-3.55
X7.45Y-3.55
X7.55Y-3.55
X7.65Y-3.55
X7.75Y-3.55
X7.85Y-3.55
X7.95Y-3.55
T3
X4.9Y-4.3
X4.9Y-4.9
X5.0Y-4.3
X5.0Y-4.4
X5.0Y-4.9
X5.1Y-4.3
X5.1Y-4.9
X5.15Y-4.7819
X5.2Y-4.3
X5.2Y-4.4
X5.2Y-4.9
X5.25Y-4.7819
X5.3Y-4.3
X5.3Y-4.4
X5.3Y-4.9
X5.35Y-4.7819
X5.4Y-4.3
X5.4Y-4.4
X5.4Y-4.9
X5.45Y-4.7819
X5.5Y-4.3
X5.5Y-4.9
X5.55Y-4.7819
X5.6Y-4.3
X5.6Y-4.9
X5.7Y-4.3
X5.7Y-4.9
X5.8Y-4.3
X5.8Y-4.9
X5.9Y-4.3
X5.9Y-4.9
X6.0Y-4.3
X6.0Y-4.9
X6.1Y-4.3
X6.1Y-4.9
X6.2Y-4.3
X6.2Y-4.9
X6.3Y-4.3
X6.3Y-4.9
X6.4Y-4.3
X6.4Y-4.9
X6.5Y-4.3
X6.5Y-4.9
X6.6Y-4.3
X6.6Y-4.9
X6.7Y-4.3
X6.7Y-4.4
X6.7Y-4.5
X6.7Y-4.6
X6.7Y-4.7
X6.7Y-4.8
X6.7Y-4.9
X6.8Y-4.3
X6.8Y-4.9
X6.9Y-4.3
X6.9Y-4.9
X7.0Y-4.3
X7.0Y-4.9
X7.1Y-4.3
X7.1Y-4.9
X7.2Y-4.3
X7.2Y-4.9
T0
M30
