<?xml version="1.0" standalone="no"?>
<!DOCTYPE svg PUBLIC "-//W3C//DTD SVG 1.1//EN"
"http://www.w3.org/Graphics/SVG/1.1/DTD/svg11.dtd">
<svg width="600.378" height="408.378" viewBox="0 0 12507.9 8507.87" version="1.1"
xmlns="http://www.w3.org/2000/svg"
xmlns:xlink="http://www.w3.org/1999/xlink">
<polyline points="128.937,8253.94 128.937,253.937 131.337,229.549 138.451,206.101 150.003,184.489 165.547,165.547 184.489,150.003 206.101,138.451 229.549,131.337 253.937,128.937 12253.9,128.937 12278.3,131.337 12301.8,138.451 12323.4,150.003 12342.3,165.547 12357.9,184.489 12369.4,206.101 12376.5,229.549 12378.9,253.937 12378.9,8253.94 12376.5,8278.32 12369.4,8301.77 12357.9,8323.38 12342.3,8342.33 12323.4,8357.87 12301.8,8369.42 12278.3,8376.54 12253.9,8378.94 253.937,8378.94 229.549,8376.54 206.101,8369.42 184.489,8357.87 165.547,8342.33 150.003,8323.38 138.451,8301.77 131.337,8278.32 128.937,8253.94" style="stroke:rgb(103,198,105);stroke-width:250.000000;fill:none;stroke-opacity:0.5;stroke-linecap:round;stroke-linejoin:round;;fill:none"/>
<polyline points="128.937,8253.94 128.937,253.937 131.337,229.549 138.451,206.101 150.003,184.489 165.547,165.547 184.489,150.003 206.101,138.451 229.549,131.337 253.937,128.937 12253.9,128.937 12278.3,131.337 12301.8,138.451 12323.4,150.003 12342.3,165.547 12357.9,184.489 12369.4,206.101 12376.5,229.549 12378.9,253.937 12378.9,8253.94 12376.5,8278.32 12369.4,8301.77 12357.9,8323.38 12342.3,8342.33 12323.4,8357.87 12301.8,8369.42 12278.3,8376.54 12253.9,8378.94 253.937,8378.94 229.549,8376.54 206.101,8369.42 184.489,8357.87 165.547,8342.33 150.003,8323.38 138.451,8301.77 131.337,8278.32 128.937,8253.94" style="stroke:rgb(0,0,0);stroke-width:1px;fill:none;stroke-opacity:1;stroke-linecap:round;stroke-linejoin:round;;fill:none"/>
</svg>
