<?xml version="1.0" standalone="no"?>
<!DOCTYPE svg PUBLIC "-//W3C//DTD SVG 1.1//EN"
"http://www.w3.org/Graphics/SVG/1.1/DTD/svg11.dtd">
<svg width="605.335" height="378.24" viewBox="0 0 12611.1 7880" version="1.1"
xmlns="http://www.w3.org/2000/svg"
xmlns:xlink="http://www.w3.org/1999/xlink">
<circle cx="9211.14" cy="7590" r="31.5" style=""/>
<circle cx="9011.14" cy="7590" r="31.5" style=""/>
<circle cx="8811.14" cy="7590" r="31.5" style=""/>
<circle cx="8611.14" cy="7590" r="31.5" style=""/>
<circle cx="8411.14" cy="7590" r="31.5" style=""/>
<circle cx="8211.14" cy="7590" r="31.5" style=""/>
<circle cx="8011.14" cy="7590" r="31.5" style=""/>
<circle cx="7811.14" cy="7590" r="31.5" style=""/>
<circle cx="7611.14" cy="7590" r="31.5" style=""/>
<circle cx="7411.14" cy="7590" r="31.5" style=""/>
<circle cx="7211.14" cy="7590" r="31.5" style=""/>
<circle cx="7011.14" cy="7590" r="31.5" style=""/>
<circle cx="6811.14" cy="7590" r="31.5" style=""/>
<circle cx="6611.14" cy="7590" r="31.5" style=""/>
<circle cx="6411.14" cy="7590" r="31.5" style=""/>
<circle cx="6211.14" cy="7590" r="31.5" style=""/>
<circle cx="6011.14" cy="7590" r="31.5" style=""/>
<circle cx="5811.14" cy="7590" r="31.5" style=""/>
<circle cx="5611.14" cy="7590" r="31.5" style=""/>
<circle cx="5411.14" cy="7590" r="31.5" style=""/>
<circle cx="5211.14" cy="7590" r="31.5" style=""/>
<circle cx="5011.14" cy="7590" r="31.5" style=""/>
<circle cx="4811.14" cy="7590" r="31.5" style=""/>
<circle cx="4611.14" cy="7590" r="31.5" style=""/>
<circle cx="5611.14" cy="6590" r="31.5" style=""/>
<circle cx="5411.14" cy="6590" r="31.5" style=""/>
<circle cx="5211.14" cy="6390" r="31.5" style=""/>
<circle cx="5411.14" cy="6390" r="31.5" style=""/>
<circle cx="5611.14" cy="6390" r="31.5" style=""/>
<circle cx="5811.14" cy="6390" r="31.5" style=""/>
<circle cx="6011.14" cy="6390" r="31.5" style=""/>
<circle cx="6211.14" cy="6390" r="31.5" style=""/>
<circle cx="6411.14" cy="6390" r="31.5" style=""/>
<circle cx="6611.14" cy="6390" r="31.5" style=""/>
<circle cx="6811.14" cy="6390" r="31.5" style=""/>
<circle cx="7011.14" cy="6390" r="31.5" style=""/>
<circle cx="7211.14" cy="6390" r="31.5" style=""/>
<circle cx="7411.14" cy="6390" r="31.5" style=""/>
<circle cx="7611.14" cy="6390" r="31.5" style=""/>
<circle cx="7811.14" cy="6390" r="31.5" style=""/>
<circle cx="8011.14" cy="6390" r="31.5" style=""/>
<circle cx="8211.14" cy="6390" r="31.5" style=""/>
<circle cx="8411.14" cy="6390" r="31.5" style=""/>
<circle cx="8611.14" cy="6390" r="31.5" style=""/>
<circle cx="8811.14" cy="6390" r="31.5" style=""/>
<circle cx="9011.14" cy="6390" r="31.5" style=""/>
<circle cx="9211.14" cy="6390" r="31.5" style=""/>
<circle cx="9211.14" cy="3690" r="31.5" style=""/>
<circle cx="9211.14" cy="3090" r="31.5" style=""/>
<circle cx="9211.14" cy="2690" r="31.5" style=""/>
<circle cx="9211.14" cy="2090" r="31.5" style=""/>
<circle cx="8611.14" cy="2090" r="31.5" style=""/>
<circle cx="8611.14" cy="1490" r="31.5" style=""/>
<circle cx="8611.14" cy="1290" r="31.5" style=""/>
<circle cx="8611.14" cy="1090" r="31.5" style=""/>
<circle cx="9211.14" cy="1490" r="31.5" style=""/>
<circle cx="9211.14" cy="1290" r="31.5" style=""/>
<circle cx="9211.14" cy="1090" r="31.5" style=""/>
<circle cx="9811.14" cy="1090" r="31.5" style=""/>
<circle cx="9811.14" cy="1290" r="31.5" style=""/>
<circle cx="9811.14" cy="1490" r="31.5" style=""/>
<circle cx="10411.1" cy="1090" r="31.5" style=""/>
<circle cx="10411.1" cy="1290" r="31.5" style=""/>
<circle cx="10411.1" cy="1490" r="31.5" style=""/>
<circle cx="11011.1" cy="1090" r="31.5" style=""/>
<circle cx="11011.1" cy="1290" r="31.5" style=""/>
<circle cx="11011.1" cy="1490" r="31.5" style=""/>
<circle cx="11011.1" cy="2090" r="31.5" style=""/>
<circle cx="10411.1" cy="2690" r="31.5" style=""/>
<circle cx="10411.1" cy="3090" r="31.5" style=""/>
<circle cx="11011.1" cy="3690" r="31.5" style=""/>
<circle cx="10411.1" cy="3690" r="31.5" style=""/>
<circle cx="9811.14" cy="3690" r="31.5" style=""/>
<circle cx="9811.14" cy="3090" r="31.5" style=""/>
<circle cx="9811.14" cy="2690" r="31.5" style=""/>
<circle cx="9811.14" cy="2090" r="31.5" style=""/>
<circle cx="10411.1" cy="2090" r="31.5" style=""/>
<circle cx="11011.1" cy="2690" r="31.5" style=""/>
<circle cx="11011.1" cy="3090" r="31.5" style=""/>
<circle cx="11611.1" cy="3690" r="31.5" style=""/>
<circle cx="12211.1" cy="3690" r="31.5" style=""/>
<circle cx="12211.1" cy="3090" r="31.5" style=""/>
<circle cx="12211.1" cy="2690" r="31.5" style=""/>
<circle cx="11611.1" cy="3090" r="31.5" style=""/>
<circle cx="11611.1" cy="2690" r="31.5" style=""/>
<circle cx="12211.1" cy="2090" r="31.5" style=""/>
<circle cx="11611.1" cy="2090" r="31.5" style=""/>
<circle cx="11611.1" cy="1490" r="31.5" style=""/>
<circle cx="11611.1" cy="1290" r="31.5" style=""/>
<circle cx="11611.1" cy="1090" r="31.5" style=""/>
<circle cx="12211.1" cy="1490" r="31.5" style=""/>
<circle cx="12211.1" cy="1290" r="31.5" style=""/>
<circle cx="12211.1" cy="1090" r="31.5" style=""/>
<circle cx="12511.1" cy="390" r="31.5" style=""/>
<circle cx="12235.7" cy="390" r="31.5" style=""/>
<circle cx="11960.1" cy="390" r="31.5" style=""/>
<circle cx="11684.5" cy="390" r="31.5" style=""/>
<circle cx="11408.9" cy="390" r="31.5" style=""/>
<circle cx="11133.3" cy="390" r="31.5" style=""/>
<circle cx="10857.7" cy="390" r="31.5" style=""/>
<circle cx="10582.1" cy="390" r="31.5" style=""/>
<circle cx="10111.1" cy="390" r="31.5" style=""/>
<circle cx="9835.74" cy="390" r="31.5" style=""/>
<circle cx="9560.14" cy="390" r="31.5" style=""/>
<circle cx="9284.54" cy="390" r="31.5" style=""/>
<circle cx="9008.94" cy="390" r="31.5" style=""/>
<circle cx="8733.34" cy="390" r="31.5" style=""/>
<circle cx="8457.74" cy="390" r="31.5" style=""/>
<circle cx="8182.14" cy="390" r="31.5" style=""/>
<circle cx="7711.14" cy="390" r="31.5" style=""/>
<circle cx="7435.74" cy="390" r="31.5" style=""/>
<circle cx="7160.14" cy="390" r="31.5" style=""/>
<circle cx="6884.54" cy="390" r="31.5" style=""/>
<circle cx="6608.94" cy="390" r="31.5" style=""/>
<circle cx="6333.34" cy="390" r="31.5" style=""/>
<circle cx="6057.74" cy="390" r="31.5" style=""/>
<circle cx="5782.14" cy="390" r="31.5" style=""/>
<circle cx="5311.14" cy="390" r="31.5" style=""/>
<circle cx="5035.74" cy="390" r="31.5" style=""/>
<circle cx="4760.14" cy="390" r="31.5" style=""/>
<circle cx="4484.54" cy="390" r="31.5" style=""/>
<circle cx="4208.94" cy="390" r="31.5" style=""/>
<circle cx="3933.34" cy="390" r="31.5" style=""/>
<circle cx="3657.74" cy="390" r="31.5" style=""/>
<circle cx="3382.14" cy="390" r="31.5" style=""/>
<circle cx="2609.94" cy="390" r="31.5" style=""/>
<circle cx="2334.54" cy="390" r="31.5" style=""/>
<circle cx="1611.14" cy="390" r="31.5" style=""/>
<circle cx="1335.74" cy="390" r="31.5" style=""/>
<circle cx="1611.14" cy="1090" r="31.5" style=""/>
<circle cx="1611.14" cy="1290" r="31.5" style=""/>
<circle cx="1611.14" cy="1490" r="31.5" style=""/>
<circle cx="414.343" cy="3090" r="31.5" style=""/>
<circle cx="414.343" cy="3690" r="31.5" style=""/>
<circle cx="814.343" cy="3690" r="31.5" style=""/>
<circle cx="1213.34" cy="3690" r="31.5" style=""/>
<circle cx="1610.54" cy="3690" r="31.5" style=""/>
<circle cx="814.343" cy="3090" r="31.5" style=""/>
<circle cx="1213.34" cy="3090" r="31.5" style=""/>
<circle cx="1610.54" cy="3090" r="31.5" style=""/>
<circle cx="2211.14" cy="3690" r="31.5" style=""/>
<circle cx="2611.14" cy="3690" r="31.5" style=""/>
<circle cx="2211.14" cy="3090" r="31.5" style=""/>
<circle cx="2611.14" cy="3090" r="31.5" style=""/>
<circle cx="3211.14" cy="3690" r="31.5" style=""/>
<circle cx="3811.14" cy="3090" r="31.5" style=""/>
<circle cx="3811.14" cy="2690" r="31.5" style=""/>
<circle cx="3811.14" cy="2090" r="31.5" style=""/>
<circle cx="4411.14" cy="2090" r="31.5" style=""/>
<circle cx="5011.14" cy="2090" r="31.5" style=""/>
<circle cx="5011.14" cy="2690" r="31.5" style=""/>
<circle cx="4411.14" cy="2690" r="31.5" style=""/>
<circle cx="4411.14" cy="3090" r="31.5" style=""/>
<circle cx="5011.14" cy="3090" r="31.5" style=""/>
<circle cx="5011.14" cy="3690" r="31.5" style=""/>
<circle cx="4411.14" cy="3690" r="31.5" style=""/>
<circle cx="3811.14" cy="3690" r="31.5" style=""/>
<circle cx="3211.14" cy="3090" r="31.5" style=""/>
<circle cx="3211.14" cy="2690" r="31.5" style=""/>
<circle cx="3211.14" cy="2090" r="31.5" style=""/>
<circle cx="2611.14" cy="1490" r="31.5" style=""/>
<circle cx="2611.14" cy="1290" r="31.5" style=""/>
<circle cx="2611.14" cy="1090" r="31.5" style=""/>
<circle cx="3211.14" cy="1490" r="31.5" style=""/>
<circle cx="3211.14" cy="1290" r="31.5" style=""/>
<circle cx="3211.14" cy="1090" r="31.5" style=""/>
<circle cx="3811.14" cy="1490" r="31.5" style=""/>
<circle cx="3811.14" cy="1290" r="31.5" style=""/>
<circle cx="3811.14" cy="1090" r="31.5" style=""/>
<circle cx="4411.14" cy="1490" r="31.5" style=""/>
<circle cx="4411.14" cy="1290" r="31.5" style=""/>
<circle cx="4411.14" cy="1090" r="31.5" style=""/>
<circle cx="5011.14" cy="1490" r="31.5" style=""/>
<circle cx="5011.14" cy="1290" r="31.5" style=""/>
<circle cx="5011.14" cy="1090" r="31.5" style=""/>
<circle cx="5611.14" cy="1490" r="31.5" style=""/>
<circle cx="5611.14" cy="1290" r="31.5" style=""/>
<circle cx="5611.14" cy="1090" r="31.5" style=""/>
<circle cx="6211.14" cy="1490" r="31.5" style=""/>
<circle cx="6211.14" cy="1290" r="31.5" style=""/>
<circle cx="6211.14" cy="1090" r="31.5" style=""/>
<circle cx="6811.14" cy="1490" r="31.5" style=""/>
<circle cx="6811.14" cy="1290" r="31.5" style=""/>
<circle cx="6811.14" cy="1090" r="31.5" style=""/>
<circle cx="7411.14" cy="1490" r="31.5" style=""/>
<circle cx="7411.14" cy="1290" r="31.5" style=""/>
<circle cx="7411.14" cy="1090" r="31.5" style=""/>
<circle cx="8011.14" cy="1090" r="31.5" style=""/>
<circle cx="8011.14" cy="1290" r="31.5" style=""/>
<circle cx="8011.14" cy="1490" r="31.5" style=""/>
<circle cx="8011.14" cy="2090" r="31.5" style=""/>
<circle cx="7411.14" cy="2090" r="31.5" style=""/>
<circle cx="6811.14" cy="2690" r="31.5" style=""/>
<circle cx="6811.14" cy="3090" r="31.5" style=""/>
<circle cx="6211.14" cy="3690" r="31.5" style=""/>
<circle cx="5611.14" cy="3690" r="31.5" style=""/>
<circle cx="6211.14" cy="3090" r="31.5" style=""/>
<circle cx="6211.14" cy="2690" r="31.5" style=""/>
<circle cx="5611.14" cy="3090" r="31.5" style=""/>
<circle cx="5611.14" cy="2690" r="31.5" style=""/>
<circle cx="5611.14" cy="2090" r="31.5" style=""/>
<circle cx="6211.14" cy="2090" r="31.5" style=""/>
<circle cx="6811.14" cy="2090" r="31.5" style=""/>
<circle cx="7411.14" cy="2690" r="31.5" style=""/>
<circle cx="7411.14" cy="3090" r="31.5" style=""/>
<circle cx="8011.14" cy="2690" r="31.5" style=""/>
<circle cx="8611.14" cy="2690" r="31.5" style=""/>
<circle cx="8611.14" cy="3090" r="31.5" style=""/>
<circle cx="8611.14" cy="3690" r="31.5" style=""/>
<circle cx="8011.14" cy="3090" r="31.5" style=""/>
<circle cx="8011.14" cy="3690" r="31.5" style=""/>
<circle cx="7411.14" cy="3690" r="31.5" style=""/>
<circle cx="6811.14" cy="3690" r="31.5" style=""/>
<circle cx="4611.14" cy="6390" r="31.5" style=""/>
<circle cx="4811.14" cy="6390" r="31.5" style=""/>
<circle cx="5011.14" cy="6390" r="31.5" style=""/>
</svg>
