<?xml version="1.0" standalone="no"?>
<!DOCTYPE svg PUBLIC "-//W3C//DTD SVG 1.1//EN"
"http://www.w3.org/Graphics/SVG/1.1/DTD/svg11.dtd">
<svg width="491.514" height="299.514" viewBox="0 0 10239.9 6239.87" version="1.1"
xmlns="http://www.w3.org/2000/svg"
xmlns:xlink="http://www.w3.org/1999/xlink">
<circle cx="9319.94" cy="2219.94" r="31.5" style=""/>
<circle cx="9319.94" cy="2419.94" r="31.5" style=""/>
<circle cx="9319.94" cy="2619.94" r="31.5" style=""/>
<circle cx="9319.94" cy="2919.94" r="31.5" style=""/>
<circle cx="8919.94" cy="2619.94" r="31.5" style=""/>
<circle cx="8919.94" cy="2419.94" r="31.5" style=""/>
<circle cx="8919.94" cy="2219.94" r="31.5" style=""/>
<circle cx="8519.94" cy="2219.94" r="31.5" style=""/>
<circle cx="8519.94" cy="2419.94" r="31.5" style=""/>
<circle cx="8519.94" cy="2619.94" r="31.5" style=""/>
<circle cx="8519.94" cy="2919.94" r="31.5" style=""/>
<circle cx="8119.94" cy="2619.94" r="31.5" style=""/>
<circle cx="8119.94" cy="2419.94" r="31.5" style=""/>
<circle cx="8119.94" cy="2219.94" r="31.5" style=""/>
<circle cx="8119.94" cy="1719.94" r="31.5" style=""/>
<circle cx="8319.94" cy="1719.94" r="31.5" style=""/>
<circle cx="8519.94" cy="1719.94" r="31.5" style=""/>
<circle cx="8719.94" cy="1719.94" r="31.5" style=""/>
<circle cx="8919.94" cy="1719.94" r="31.5" style=""/>
<circle cx="9119.94" cy="1719.94" r="31.5" style=""/>
<circle cx="9319.94" cy="1719.94" r="31.5" style=""/>
<circle cx="9519.94" cy="1719.94" r="31.5" style=""/>
<circle cx="8919.94" cy="2919.94" r="31.5" style=""/>
<circle cx="9319.94" cy="3519.94" r="31.5" style=""/>
<circle cx="8919.94" cy="3519.94" r="31.5" style=""/>
<circle cx="8519.94" cy="3519.94" r="31.5" style=""/>
<circle cx="8119.94" cy="3519.94" r="31.5" style=""/>
<circle cx="8119.94" cy="2919.94" r="31.5" style=""/>
<circle cx="7519.94" cy="2419.94" r="31.5" style=""/>
<circle cx="7519.94" cy="2219.94" r="31.5" style=""/>
<circle cx="7519.94" cy="2619.94" r="31.5" style=""/>
<circle cx="7519.94" cy="2919.94" r="31.5" style=""/>
<circle cx="7119.94" cy="2619.94" r="31.5" style=""/>
<circle cx="7119.94" cy="2419.94" r="31.5" style=""/>
<circle cx="7119.94" cy="2219.94" r="31.5" style=""/>
<circle cx="6719.94" cy="2219.94" r="31.5" style=""/>
<circle cx="6719.94" cy="2419.94" r="31.5" style=""/>
<circle cx="6719.94" cy="2619.94" r="31.5" style=""/>
<circle cx="6719.94" cy="2919.94" r="31.5" style=""/>
<circle cx="6319.94" cy="2619.94" r="31.5" style=""/>
<circle cx="6319.94" cy="2419.94" r="31.5" style=""/>
<circle cx="6319.94" cy="2219.94" r="31.5" style=""/>
<circle cx="5919.94" cy="1719.94" r="31.5" style=""/>
<circle cx="5719.94" cy="1719.94" r="31.5" style=""/>
<circle cx="5519.94" cy="1719.94" r="31.5" style=""/>
<circle cx="5319.94" cy="1719.94" r="31.5" style=""/>
<circle cx="5119.94" cy="1719.94" r="31.5" style=""/>
<circle cx="4919.94" cy="1719.94" r="31.5" style=""/>
<circle cx="4719.94" cy="1719.94" r="31.5" style=""/>
<circle cx="4519.94" cy="1719.94" r="31.5" style=""/>
<circle cx="4119.94" cy="1719.94" r="31.5" style=""/>
<circle cx="3919.94" cy="1719.94" r="31.5" style=""/>
<circle cx="3719.94" cy="1719.94" r="31.5" style=""/>
<circle cx="3519.94" cy="1719.94" r="31.5" style=""/>
<circle cx="3319.94" cy="1719.94" r="31.5" style=""/>
<circle cx="3119.94" cy="1719.94" r="31.5" style=""/>
<circle cx="2919.94" cy="1719.94" r="31.5" style=""/>
<circle cx="2719.94" cy="1719.94" r="31.5" style=""/>
<circle cx="2319.94" cy="1719.94" r="31.5" style=""/>
<circle cx="2119.94" cy="1719.94" r="31.5" style=""/>
<circle cx="1719.94" cy="1719.94" r="31.5" style=""/>
<circle cx="1519.94" cy="1719.94" r="31.5" style=""/>
<circle cx="1719.94" cy="2219.94" r="31.5" style=""/>
<circle cx="1719.94" cy="2419.94" r="31.5" style=""/>
<circle cx="1719.94" cy="2619.94" r="31.5" style=""/>
<circle cx="1719.94" cy="2919.94" r="31.5" style=""/>
<circle cx="1319.94" cy="2919.94" r="31.5" style=""/>
<circle cx="1120.94" cy="2919.94" r="31.5" style=""/>
<circle cx="1319.94" cy="3519.94" r="31.5" style=""/>
<circle cx="1120.94" cy="3519.94" r="31.5" style=""/>
<circle cx="1719.94" cy="3519.94" r="31.5" style=""/>
<circle cx="2319.94" cy="2919.94" r="31.5" style=""/>
<circle cx="2319.94" cy="2619.94" r="31.5" style=""/>
<circle cx="2319.94" cy="2419.94" r="31.5" style=""/>
<circle cx="2319.94" cy="2219.94" r="31.5" style=""/>
<circle cx="2719.94" cy="2219.94" r="31.5" style=""/>
<circle cx="2719.94" cy="2419.94" r="31.5" style=""/>
<circle cx="2719.94" cy="2619.94" r="31.5" style=""/>
<circle cx="2719.94" cy="2919.94" r="31.5" style=""/>
<circle cx="3119.94" cy="2619.94" r="31.5" style=""/>
<circle cx="3119.94" cy="2419.94" r="31.5" style=""/>
<circle cx="3119.94" cy="2219.94" r="31.5" style=""/>
<circle cx="3519.94" cy="2219.94" r="31.5" style=""/>
<circle cx="3519.94" cy="2419.94" r="31.5" style=""/>
<circle cx="3519.94" cy="2619.94" r="31.5" style=""/>
<circle cx="3519.94" cy="2919.94" r="31.5" style=""/>
<circle cx="3919.94" cy="2619.94" r="31.5" style=""/>
<circle cx="3919.94" cy="2419.94" r="31.5" style=""/>
<circle cx="3919.94" cy="2219.94" r="31.5" style=""/>
<circle cx="4519.94" cy="2219.94" r="31.5" style=""/>
<circle cx="4519.94" cy="2419.94" r="31.5" style=""/>
<circle cx="4519.94" cy="2619.94" r="31.5" style=""/>
<circle cx="4519.94" cy="2919.94" r="31.5" style=""/>
<circle cx="4919.94" cy="2619.94" r="31.5" style=""/>
<circle cx="4919.94" cy="2419.94" r="31.5" style=""/>
<circle cx="4919.94" cy="2219.94" r="31.5" style=""/>
<circle cx="5319.94" cy="2219.94" r="31.5" style=""/>
<circle cx="5319.94" cy="2419.94" r="31.5" style=""/>
<circle cx="5319.94" cy="2619.94" r="31.5" style=""/>
<circle cx="5319.94" cy="2919.94" r="31.5" style=""/>
<circle cx="4919.94" cy="2919.94" r="31.5" style=""/>
<circle cx="4919.94" cy="3519.94" r="31.5" style=""/>
<circle cx="5319.94" cy="3519.94" r="31.5" style=""/>
<circle cx="5719.94" cy="3519.94" r="31.5" style=""/>
<circle cx="5719.94" cy="2919.94" r="31.5" style=""/>
<circle cx="5719.94" cy="2619.94" r="31.5" style=""/>
<circle cx="5719.94" cy="2419.94" r="31.5" style=""/>
<circle cx="5719.94" cy="2219.94" r="31.5" style=""/>
<circle cx="6319.94" cy="1719.94" r="31.5" style=""/>
<circle cx="6519.94" cy="1719.94" r="31.5" style=""/>
<circle cx="6719.94" cy="1719.94" r="31.5" style=""/>
<circle cx="6919.94" cy="1719.94" r="31.5" style=""/>
<circle cx="7119.94" cy="1719.94" r="31.5" style=""/>
<circle cx="7319.94" cy="1719.94" r="31.5" style=""/>
<circle cx="7519.94" cy="1719.94" r="31.5" style=""/>
<circle cx="7719.94" cy="1719.94" r="31.5" style=""/>
<circle cx="7119.94" cy="2919.94" r="31.5" style=""/>
<circle cx="7119.94" cy="3519.94" r="31.5" style=""/>
<circle cx="6719.94" cy="3519.94" r="31.5" style=""/>
<circle cx="6319.94" cy="3519.94" r="31.5" style=""/>
<circle cx="6319.94" cy="2919.94" r="31.5" style=""/>
<circle cx="5119.94" cy="4119.94" r="31.5" style=""/>
<circle cx="4919.94" cy="4119.94" r="31.5" style=""/>
<circle cx="4719.94" cy="4119.94" r="31.5" style=""/>
<circle cx="4519.94" cy="4119.94" r="31.5" style=""/>
<circle cx="4319.94" cy="4119.94" r="31.5" style=""/>
<circle cx="4119.94" cy="4119.94" r="31.5" style=""/>
<circle cx="3919.94" cy="4119.94" r="31.5" style=""/>
<circle cx="3719.94" cy="4119.94" r="31.5" style=""/>
<circle cx="3519.94" cy="4119.94" r="31.5" style=""/>
<circle cx="3319.94" cy="4119.94" r="31.5" style=""/>
<circle cx="3119.94" cy="4119.94" r="31.5" style=""/>
<circle cx="2919.94" cy="4119.94" r="31.5" style=""/>
<circle cx="3519.94" cy="3519.94" r="31.5" style=""/>
<circle cx="3119.94" cy="3519.94" r="31.5" style=""/>
<circle cx="2719.94" cy="3519.94" r="31.5" style=""/>
<circle cx="2319.94" cy="3519.94" r="31.5" style=""/>
<circle cx="3119.94" cy="2919.94" r="31.5" style=""/>
<circle cx="3919.94" cy="2919.94" r="31.5" style=""/>
<circle cx="3919.94" cy="3519.94" r="31.5" style=""/>
<circle cx="4519.94" cy="3519.94" r="31.5" style=""/>
<circle cx="5319.94" cy="4119.94" r="31.5" style=""/>
<circle cx="5519.94" cy="4119.94" r="31.5" style=""/>
<circle cx="5719.94" cy="4119.94" r="31.5" style=""/>
<circle cx="5919.94" cy="4119.94" r="31.5" style=""/>
<circle cx="6119.94" cy="4119.94" r="31.5" style=""/>
<circle cx="6319.94" cy="4119.94" r="31.5" style=""/>
<circle cx="6519.94" cy="4119.94" r="31.5" style=""/>
<circle cx="6719.94" cy="4119.94" r="31.5" style=""/>
<circle cx="6919.94" cy="4119.94" r="31.5" style=""/>
<circle cx="7119.94" cy="4119.94" r="31.5" style=""/>
<circle cx="7319.94" cy="4119.94" r="31.5" style=""/>
<circle cx="7519.94" cy="4119.94" r="31.5" style=""/>
<circle cx="7519.94" cy="3519.94" r="31.5" style=""/>
<circle cx="5719.94" cy="5319.94" r="31.5" style=""/>
<circle cx="5519.94" cy="5319.94" r="31.5" style=""/>
<circle cx="5319.94" cy="5319.94" r="31.5" style=""/>
<circle cx="5119.94" cy="5319.94" r="31.5" style=""/>
<circle cx="4919.94" cy="5319.94" r="31.5" style=""/>
<circle cx="4719.94" cy="5319.94" r="31.5" style=""/>
<circle cx="4519.94" cy="5319.94" r="31.5" style=""/>
<circle cx="4319.94" cy="5319.94" r="31.5" style=""/>
<circle cx="4119.94" cy="5319.94" r="31.5" style=""/>
<circle cx="3919.94" cy="5319.94" r="31.5" style=""/>
<circle cx="3719.94" cy="5319.94" r="31.5" style=""/>
<circle cx="3519.94" cy="5319.94" r="31.5" style=""/>
<circle cx="3319.94" cy="5319.94" r="31.5" style=""/>
<circle cx="3119.94" cy="5319.94" r="31.5" style=""/>
<circle cx="2919.94" cy="5319.94" r="31.5" style=""/>
<circle cx="3719.94" cy="4319.94" r="31.5" style=""/>
<circle cx="3919.94" cy="4319.94" r="31.5" style=""/>
<circle cx="5919.94" cy="5319.94" r="31.5" style=""/>
<circle cx="6119.94" cy="5319.94" r="31.5" style=""/>
<circle cx="6319.94" cy="5319.94" r="31.5" style=""/>
<circle cx="6519.94" cy="5319.94" r="31.5" style=""/>
<circle cx="6719.94" cy="5319.94" r="31.5" style=""/>
<circle cx="6919.94" cy="5319.94" r="31.5" style=""/>
<circle cx="7119.94" cy="5319.94" r="31.5" style=""/>
<circle cx="7319.94" cy="5319.94" r="31.5" style=""/>
<circle cx="7519.94" cy="5319.94" r="31.5" style=""/>
</svg>
