<?xml version="1.0" standalone="no"?>
<!DOCTYPE svg PUBLIC "-//W3C//DTD SVG 1.1//EN"
"http://www.w3.org/Graphics/SVG/1.1/DTD/svg11.dtd">
<svg width="604.322" height="377.227" viewBox="0 0 12590 7858.9" version="1.1"
xmlns="http://www.w3.org/2000/svg"
xmlns:xlink="http://www.w3.org/1999/xlink">
<circle cx="12200.6" cy="1479.45" r="31.5" style=""/>
<circle cx="12200.6" cy="1279.45" r="31.5" style=""/>
<circle cx="12200.6" cy="1079.45" r="31.5" style=""/>
<circle cx="11600.6" cy="1479.45" r="31.5" style=""/>
<circle cx="11600.6" cy="1279.45" r="31.5" style=""/>
<circle cx="11600.6" cy="1079.45" r="31.5" style=""/>
<circle cx="11000.6" cy="1479.45" r="31.5" style=""/>
<circle cx="11000.6" cy="1279.45" r="31.5" style=""/>
<circle cx="11000.6" cy="1079.45" r="31.5" style=""/>
<circle cx="10400.6" cy="1479.45" r="31.5" style=""/>
<circle cx="10400.6" cy="1279.45" r="31.5" style=""/>
<circle cx="10400.6" cy="1079.45" r="31.5" style=""/>
<circle cx="9800.59" cy="1479.45" r="31.5" style=""/>
<circle cx="9800.59" cy="1279.45" r="31.5" style=""/>
<circle cx="9800.59" cy="1079.45" r="31.5" style=""/>
<circle cx="9200.59" cy="1479.45" r="31.5" style=""/>
<circle cx="9200.59" cy="1279.45" r="31.5" style=""/>
<circle cx="9200.59" cy="1079.45" r="31.5" style=""/>
<circle cx="8600.59" cy="1479.45" r="31.5" style=""/>
<circle cx="8600.59" cy="1279.45" r="31.5" style=""/>
<circle cx="8600.59" cy="1079.45" r="31.5" style=""/>
<circle cx="8000.59" cy="1479.45" r="31.5" style=""/>
<circle cx="8000.59" cy="1279.45" r="31.5" style=""/>
<circle cx="8000.59" cy="1079.45" r="31.5" style=""/>
<circle cx="7400.59" cy="1079.45" r="31.5" style=""/>
<circle cx="7400.59" cy="1279.45" r="31.5" style=""/>
<circle cx="7400.59" cy="1479.45" r="31.5" style=""/>
<circle cx="6800.59" cy="1079.45" r="31.5" style=""/>
<circle cx="6800.59" cy="1279.45" r="31.5" style=""/>
<circle cx="6800.59" cy="1479.45" r="31.5" style=""/>
<circle cx="6200.59" cy="1079.45" r="31.5" style=""/>
<circle cx="6200.59" cy="1279.45" r="31.5" style=""/>
<circle cx="6200.59" cy="1479.45" r="31.5" style=""/>
<circle cx="5600.59" cy="1079.45" r="31.5" style=""/>
<circle cx="5600.59" cy="1279.45" r="31.5" style=""/>
<circle cx="5600.59" cy="1479.45" r="31.5" style=""/>
<circle cx="5000.59" cy="1079.45" r="31.5" style=""/>
<circle cx="5000.59" cy="1279.45" r="31.5" style=""/>
<circle cx="5000.59" cy="1479.45" r="31.5" style=""/>
<circle cx="4400.59" cy="1079.45" r="31.5" style=""/>
<circle cx="4400.59" cy="1279.45" r="31.5" style=""/>
<circle cx="4400.59" cy="1479.45" r="31.5" style=""/>
<circle cx="3800.59" cy="1079.45" r="31.5" style=""/>
<circle cx="3800.59" cy="1279.45" r="31.5" style=""/>
<circle cx="3800.59" cy="1479.45" r="31.5" style=""/>
<circle cx="3200.59" cy="1079.45" r="31.5" style=""/>
<circle cx="3200.59" cy="1279.45" r="31.5" style=""/>
<circle cx="3200.59" cy="1479.45" r="31.5" style=""/>
<circle cx="2600.59" cy="1079.45" r="31.5" style=""/>
<circle cx="2600.59" cy="1279.45" r="31.5" style=""/>
<circle cx="2600.59" cy="1479.45" r="31.5" style=""/>
<circle cx="1600.59" cy="1079.45" r="31.5" style=""/>
<circle cx="1600.59" cy="1279.45" r="31.5" style=""/>
<circle cx="1600.59" cy="1479.45" r="31.5" style=""/>
<circle cx="12200.6" cy="3679.45" r="35.4" style=""/>
<circle cx="11600.6" cy="3679.45" r="35.4" style=""/>
<circle cx="11000.6" cy="3679.45" r="35.4" style=""/>
<circle cx="10400.6" cy="3679.45" r="35.4" style=""/>
<circle cx="9800.59" cy="3679.45" r="35.4" style=""/>
<circle cx="9200.59" cy="3679.45" r="35.4" style=""/>
<circle cx="8600.59" cy="3079.45" r="35.4" style=""/>
<circle cx="8600.59" cy="2679.45" r="35.4" style=""/>
<circle cx="9200.59" cy="2079.45" r="35.4" style=""/>
<circle cx="9800.59" cy="2079.45" r="35.4" style=""/>
<circle cx="10400.6" cy="2079.45" r="35.4" style=""/>
<circle cx="11000.6" cy="2679.45" r="35.4" style=""/>
<circle cx="11000.6" cy="3079.45" r="35.4" style=""/>
<circle cx="11600.6" cy="3079.45" r="35.4" style=""/>
<circle cx="12200.6" cy="3079.45" r="35.4" style=""/>
<circle cx="12200.6" cy="2679.45" r="35.4" style=""/>
<circle cx="12200.6" cy="2079.45" r="35.4" style=""/>
<circle cx="11600.6" cy="2079.45" r="35.4" style=""/>
<circle cx="11600.6" cy="2679.45" r="35.4" style=""/>
<circle cx="11000.6" cy="2079.45" r="35.4" style=""/>
<circle cx="10400.6" cy="2679.45" r="35.4" style=""/>
<circle cx="10400.6" cy="3079.45" r="35.4" style=""/>
<circle cx="9800.59" cy="2679.45" r="35.4" style=""/>
<circle cx="9800.59" cy="3079.45" r="35.4" style=""/>
<circle cx="9200.59" cy="3079.45" r="35.4" style=""/>
<circle cx="9200.59" cy="2679.45" r="35.4" style=""/>
<circle cx="8600.59" cy="2079.45" r="35.4" style=""/>
<circle cx="8000.59" cy="2079.45" r="35.4" style=""/>
<circle cx="7400.59" cy="2079.45" r="35.4" style=""/>
<circle cx="6800.59" cy="2079.45" r="35.4" style=""/>
<circle cx="6200.59" cy="2079.45" r="35.4" style=""/>
<circle cx="5600.59" cy="2079.45" r="35.4" style=""/>
<circle cx="5000.59" cy="2079.45" r="35.4" style=""/>
<circle cx="4400.59" cy="2079.45" r="35.4" style=""/>
<circle cx="3800.59" cy="2079.45" r="35.4" style=""/>
<circle cx="3200.59" cy="2079.45" r="35.4" style=""/>
<circle cx="3200.59" cy="2679.45" r="35.4" style=""/>
<circle cx="2600.59" cy="3079.45" r="35.4" style=""/>
<circle cx="2200.59" cy="3079.45" r="35.4" style=""/>
<circle cx="1599.99" cy="3079.45" r="35.4" style=""/>
<circle cx="1202.79" cy="3079.45" r="35.4" style=""/>
<circle cx="803.792" cy="3079.45" r="35.4" style=""/>
<circle cx="403.792" cy="3079.45" r="35.4" style=""/>
<circle cx="403.792" cy="3679.45" r="35.4" style=""/>
<circle cx="803.792" cy="3679.45" r="35.4" style=""/>
<circle cx="1202.79" cy="3679.45" r="35.4" style=""/>
<circle cx="1599.99" cy="3679.45" r="35.4" style=""/>
<circle cx="2200.59" cy="3679.45" r="35.4" style=""/>
<circle cx="2600.59" cy="3679.45" r="35.4" style=""/>
<circle cx="3200.59" cy="3679.45" r="35.4" style=""/>
<circle cx="3200.59" cy="3079.45" r="35.4" style=""/>
<circle cx="3800.59" cy="3679.45" r="35.4" style=""/>
<circle cx="4400.59" cy="3079.45" r="35.4" style=""/>
<circle cx="5000.59" cy="3679.45" r="35.4" style=""/>
<circle cx="4400.59" cy="3679.45" r="35.4" style=""/>
<circle cx="3800.59" cy="3079.45" r="35.4" style=""/>
<circle cx="3800.59" cy="2679.45" r="35.4" style=""/>
<circle cx="4400.59" cy="2679.45" r="35.4" style=""/>
<circle cx="5000.59" cy="2679.45" r="35.4" style=""/>
<circle cx="5000.59" cy="3079.45" r="35.4" style=""/>
<circle cx="5600.59" cy="3079.45" r="35.4" style=""/>
<circle cx="5600.59" cy="2679.45" r="35.4" style=""/>
<circle cx="6200.59" cy="2679.45" r="35.4" style=""/>
<circle cx="6200.59" cy="3079.45" r="35.4" style=""/>
<circle cx="5600.59" cy="3679.45" r="35.4" style=""/>
<circle cx="6200.59" cy="3679.45" r="35.4" style=""/>
<circle cx="6800.59" cy="3679.45" r="35.4" style=""/>
<circle cx="7400.59" cy="3679.45" r="35.4" style=""/>
<circle cx="6800.59" cy="3079.45" r="35.4" style=""/>
<circle cx="6800.59" cy="2679.45" r="35.4" style=""/>
<circle cx="7400.59" cy="2679.45" r="35.4" style=""/>
<circle cx="8000.59" cy="2679.45" r="35.4" style=""/>
<circle cx="8000.59" cy="3079.45" r="35.4" style=""/>
<circle cx="7400.59" cy="3079.45" r="35.4" style=""/>
<circle cx="8000.59" cy="3679.45" r="35.4" style=""/>
<circle cx="8600.59" cy="3679.45" r="35.4" style=""/>
<circle cx="9200.59" cy="7579.45" r="43.3" style=""/>
<circle cx="9000.59" cy="7579.45" r="43.3" style=""/>
<circle cx="8800.59" cy="7579.45" r="43.3" style=""/>
<circle cx="8600.59" cy="7579.45" r="43.3" style=""/>
<circle cx="8400.59" cy="7579.45" r="43.3" style=""/>
<circle cx="8200.59" cy="7579.45" r="43.3" style=""/>
<circle cx="8000.59" cy="7579.45" r="43.3" style=""/>
<circle cx="7800.59" cy="7579.45" r="43.3" style=""/>
<circle cx="7600.59" cy="7579.45" r="43.3" style=""/>
<circle cx="7400.59" cy="7579.45" r="43.3" style=""/>
<circle cx="7200.59" cy="7579.45" r="43.3" style=""/>
<circle cx="7000.59" cy="7579.45" r="43.3" style=""/>
<circle cx="6800.59" cy="7579.45" r="43.3" style=""/>
<circle cx="6600.59" cy="7579.45" r="43.3" style=""/>
<circle cx="6400.59" cy="7579.45" r="43.3" style=""/>
<circle cx="6200.59" cy="7579.45" r="43.3" style=""/>
<circle cx="6000.59" cy="7579.45" r="43.3" style=""/>
<circle cx="5800.59" cy="7579.45" r="43.3" style=""/>
<circle cx="5600.59" cy="7579.45" r="43.3" style=""/>
<circle cx="5400.59" cy="7579.45" r="43.3" style=""/>
<circle cx="5200.59" cy="7579.45" r="43.3" style=""/>
<circle cx="5000.59" cy="7579.45" r="43.3" style=""/>
<circle cx="4800.59" cy="7579.45" r="43.3" style=""/>
<circle cx="4600.59" cy="7579.45" r="43.3" style=""/>
<circle cx="4600.59" cy="6379.45" r="43.3" style=""/>
<circle cx="4800.59" cy="6379.45" r="43.3" style=""/>
<circle cx="5000.59" cy="6379.45" r="43.3" style=""/>
<circle cx="5200.59" cy="6379.45" r="43.3" style=""/>
<circle cx="5400.59" cy="6379.45" r="43.3" style=""/>
<circle cx="5600.59" cy="6579.45" r="43.3" style=""/>
<circle cx="5400.59" cy="6579.45" r="43.3" style=""/>
<circle cx="5600.59" cy="6379.45" r="43.3" style=""/>
<circle cx="5800.59" cy="6379.45" r="43.3" style=""/>
<circle cx="6000.59" cy="6379.45" r="43.3" style=""/>
<circle cx="6200.59" cy="6379.45" r="43.3" style=""/>
<circle cx="6400.59" cy="6379.45" r="43.3" style=""/>
<circle cx="6600.59" cy="6379.45" r="43.3" style=""/>
<circle cx="6800.59" cy="6379.45" r="43.3" style=""/>
<circle cx="7000.59" cy="6379.45" r="43.3" style=""/>
<circle cx="7200.59" cy="6379.45" r="43.3" style=""/>
<circle cx="7400.59" cy="6379.45" r="43.3" style=""/>
<circle cx="7600.59" cy="6379.45" r="43.3" style=""/>
<circle cx="7800.59" cy="6379.45" r="43.3" style=""/>
<circle cx="8000.59" cy="6379.45" r="43.3" style=""/>
<circle cx="8200.59" cy="6379.45" r="43.3" style=""/>
<circle cx="8400.59" cy="6379.45" r="43.3" style=""/>
<circle cx="8600.59" cy="6379.45" r="43.3" style=""/>
<circle cx="8800.59" cy="6379.45" r="43.3" style=""/>
<circle cx="9000.59" cy="6379.45" r="43.3" style=""/>
<circle cx="9200.59" cy="6379.45" r="43.3" style=""/>
<circle cx="12500.6" cy="379.449" r="47.2" style=""/>
<circle cx="12225.2" cy="379.449" r="47.2" style=""/>
<circle cx="11949.6" cy="379.449" r="47.2" style=""/>
<circle cx="11674" cy="379.449" r="47.2" style=""/>
<circle cx="11398.4" cy="379.449" r="47.2" style=""/>
<circle cx="11122.8" cy="379.449" r="47.2" style=""/>
<circle cx="10847.2" cy="379.449" r="47.2" style=""/>
<circle cx="10571.6" cy="379.449" r="47.2" style=""/>
<circle cx="10100.6" cy="379.449" r="47.2" style=""/>
<circle cx="9825.19" cy="379.449" r="47.2" style=""/>
<circle cx="9549.59" cy="379.449" r="47.2" style=""/>
<circle cx="9273.99" cy="379.449" r="47.2" style=""/>
<circle cx="8998.39" cy="379.449" r="47.2" style=""/>
<circle cx="8722.79" cy="379.449" r="47.2" style=""/>
<circle cx="8447.19" cy="379.449" r="47.2" style=""/>
<circle cx="8171.59" cy="379.449" r="47.2" style=""/>
<circle cx="7700.59" cy="379.449" r="47.2" style=""/>
<circle cx="7425.19" cy="379.449" r="47.2" style=""/>
<circle cx="7149.59" cy="379.449" r="47.2" style=""/>
<circle cx="6873.99" cy="379.449" r="47.2" style=""/>
<circle cx="6598.39" cy="379.449" r="47.2" style=""/>
<circle cx="6322.79" cy="379.449" r="47.2" style=""/>
<circle cx="6047.19" cy="379.449" r="47.2" style=""/>
<circle cx="5771.59" cy="379.449" r="47.2" style=""/>
<circle cx="5300.59" cy="379.449" r="47.2" style=""/>
<circle cx="5025.19" cy="379.449" r="47.2" style=""/>
<circle cx="4749.59" cy="379.449" r="47.2" style=""/>
<circle cx="4473.99" cy="379.449" r="47.2" style=""/>
<circle cx="4198.39" cy="379.449" r="47.2" style=""/>
<circle cx="3922.79" cy="379.449" r="47.2" style=""/>
<circle cx="3647.19" cy="379.449" r="47.2" style=""/>
<circle cx="3371.59" cy="379.449" r="47.2" style=""/>
<circle cx="2599.39" cy="379.449" r="47.2" style=""/>
<circle cx="2323.99" cy="379.449" r="47.2" style=""/>
<circle cx="1600.59" cy="379.449" r="47.2" style=""/>
<circle cx="1325.19" cy="379.449" r="47.2" style=""/>
</svg>
