<?xml version="1.0" standalone="no"?>
<!DOCTYPE svg PUBLIC "-//W3C//DTD SVG 1.1//EN"
"http://www.w3.org/Graphics/SVG/1.1/DTD/svg11.dtd">
<svg width="485.37" height="293.37" viewBox="0 0 10111.9 6111.87" version="1.1"
xmlns="http://www.w3.org/2000/svg"
xmlns:xlink="http://www.w3.org/1999/xlink">
<circle cx="9455.94" cy="1655.94" r="31.5" style=""/>
<circle cx="9255.94" cy="1655.94" r="31.5" style=""/>
<circle cx="9055.94" cy="1655.94" r="31.5" style=""/>
<circle cx="8855.94" cy="1655.94" r="31.5" style=""/>
<circle cx="8655.94" cy="1655.94" r="31.5" style=""/>
<circle cx="8455.94" cy="1655.94" r="31.5" style=""/>
<circle cx="8255.94" cy="1655.94" r="31.5" style=""/>
<circle cx="8055.94" cy="1655.94" r="31.5" style=""/>
<circle cx="7655.94" cy="1655.94" r="31.5" style=""/>
<circle cx="7455.94" cy="1655.94" r="31.5" style=""/>
<circle cx="7255.94" cy="1655.94" r="31.5" style=""/>
<circle cx="7055.94" cy="1655.94" r="31.5" style=""/>
<circle cx="6855.94" cy="1655.94" r="31.5" style=""/>
<circle cx="6655.94" cy="1655.94" r="31.5" style=""/>
<circle cx="6455.94" cy="1655.94" r="31.5" style=""/>
<circle cx="6255.94" cy="1655.94" r="31.5" style=""/>
<circle cx="5855.94" cy="1655.94" r="31.5" style=""/>
<circle cx="5655.94" cy="1655.94" r="31.5" style=""/>
<circle cx="5455.94" cy="1655.94" r="31.5" style=""/>
<circle cx="5255.94" cy="1655.94" r="31.5" style=""/>
<circle cx="5055.94" cy="1655.94" r="31.5" style=""/>
<circle cx="4855.94" cy="1655.94" r="31.5" style=""/>
<circle cx="4655.94" cy="1655.94" r="31.5" style=""/>
<circle cx="4455.94" cy="1655.94" r="31.5" style=""/>
<circle cx="4055.94" cy="1655.94" r="31.5" style=""/>
<circle cx="3855.94" cy="1655.94" r="31.5" style=""/>
<circle cx="3655.94" cy="1655.94" r="31.5" style=""/>
<circle cx="3455.94" cy="1655.94" r="31.5" style=""/>
<circle cx="3255.94" cy="1655.94" r="31.5" style=""/>
<circle cx="3055.94" cy="1655.94" r="31.5" style=""/>
<circle cx="2855.94" cy="1655.94" r="31.5" style=""/>
<circle cx="2655.94" cy="1655.94" r="31.5" style=""/>
<circle cx="2255.94" cy="1655.94" r="31.5" style=""/>
<circle cx="2055.94" cy="1655.94" r="31.5" style=""/>
<circle cx="1655.94" cy="1655.94" r="31.5" style=""/>
<circle cx="1455.94" cy="1655.94" r="31.5" style=""/>
<circle cx="1655.94" cy="2155.94" r="31.5" style=""/>
<circle cx="1655.94" cy="2355.94" r="31.5" style=""/>
<circle cx="1655.94" cy="2555.94" r="31.5" style=""/>
<circle cx="1655.94" cy="2855.94" r="31.5" style=""/>
<circle cx="1255.94" cy="2855.94" r="31.5" style=""/>
<circle cx="1056.94" cy="2855.94" r="31.5" style=""/>
<circle cx="1056.94" cy="3455.94" r="31.5" style=""/>
<circle cx="1255.94" cy="3455.94" r="31.5" style=""/>
<circle cx="1655.94" cy="3455.94" r="31.5" style=""/>
<circle cx="2255.94" cy="2855.94" r="31.5" style=""/>
<circle cx="2255.94" cy="2555.94" r="31.5" style=""/>
<circle cx="2255.94" cy="2355.94" r="31.5" style=""/>
<circle cx="2255.94" cy="2155.94" r="31.5" style=""/>
<circle cx="2655.94" cy="2155.94" r="31.5" style=""/>
<circle cx="2655.94" cy="2355.94" r="31.5" style=""/>
<circle cx="2655.94" cy="2555.94" r="31.5" style=""/>
<circle cx="2655.94" cy="2855.94" r="31.5" style=""/>
<circle cx="3055.94" cy="2555.94" r="31.5" style=""/>
<circle cx="3055.94" cy="2355.94" r="31.5" style=""/>
<circle cx="3055.94" cy="2155.94" r="31.5" style=""/>
<circle cx="3455.94" cy="2155.94" r="31.5" style=""/>
<circle cx="3455.94" cy="2355.94" r="31.5" style=""/>
<circle cx="3455.94" cy="2555.94" r="31.5" style=""/>
<circle cx="3055.94" cy="2855.94" r="31.5" style=""/>
<circle cx="3455.94" cy="3455.94" r="31.5" style=""/>
<circle cx="3055.94" cy="3455.94" r="31.5" style=""/>
<circle cx="2655.94" cy="3455.94" r="31.5" style=""/>
<circle cx="2255.94" cy="3455.94" r="31.5" style=""/>
<circle cx="2855.94" cy="4055.94" r="31.5" style=""/>
<circle cx="3055.94" cy="4055.94" r="31.5" style=""/>
<circle cx="3255.94" cy="4055.94" r="31.5" style=""/>
<circle cx="3855.94" cy="3455.94" r="31.5" style=""/>
<circle cx="4455.94" cy="3455.94" r="31.5" style=""/>
<circle cx="3855.94" cy="2855.94" r="31.5" style=""/>
<circle cx="3455.94" cy="2855.94" r="31.5" style=""/>
<circle cx="3855.94" cy="2555.94" r="31.5" style=""/>
<circle cx="3855.94" cy="2355.94" r="31.5" style=""/>
<circle cx="3855.94" cy="2155.94" r="31.5" style=""/>
<circle cx="4455.94" cy="2155.94" r="31.5" style=""/>
<circle cx="4455.94" cy="2355.94" r="31.5" style=""/>
<circle cx="4455.94" cy="2555.94" r="31.5" style=""/>
<circle cx="4455.94" cy="2855.94" r="31.5" style=""/>
<circle cx="4855.94" cy="2555.94" r="31.5" style=""/>
<circle cx="4855.94" cy="2355.94" r="31.5" style=""/>
<circle cx="4855.94" cy="2155.94" r="31.5" style=""/>
<circle cx="5255.94" cy="2155.94" r="31.5" style=""/>
<circle cx="5255.94" cy="2355.94" r="31.5" style=""/>
<circle cx="5255.94" cy="2555.94" r="31.5" style=""/>
<circle cx="5255.94" cy="2855.94" r="31.5" style=""/>
<circle cx="4855.94" cy="2855.94" r="31.5" style=""/>
<circle cx="4855.94" cy="3455.94" r="31.5" style=""/>
<circle cx="5255.94" cy="3455.94" r="31.5" style=""/>
<circle cx="5655.94" cy="3455.94" r="31.5" style=""/>
<circle cx="5655.94" cy="2855.94" r="31.5" style=""/>
<circle cx="5655.94" cy="2555.94" r="31.5" style=""/>
<circle cx="5655.94" cy="2355.94" r="31.5" style=""/>
<circle cx="5655.94" cy="2155.94" r="31.5" style=""/>
<circle cx="6255.94" cy="2155.94" r="31.5" style=""/>
<circle cx="6255.94" cy="2355.94" r="31.5" style=""/>
<circle cx="6255.94" cy="2555.94" r="31.5" style=""/>
<circle cx="6255.94" cy="2855.94" r="31.5" style=""/>
<circle cx="6655.94" cy="2855.94" r="31.5" style=""/>
<circle cx="6655.94" cy="2555.94" r="31.5" style=""/>
<circle cx="6655.94" cy="2355.94" r="31.5" style=""/>
<circle cx="6655.94" cy="2155.94" r="31.5" style=""/>
<circle cx="7055.94" cy="2155.94" r="31.5" style=""/>
<circle cx="7055.94" cy="2355.94" r="31.5" style=""/>
<circle cx="7055.94" cy="2555.94" r="31.5" style=""/>
<circle cx="7055.94" cy="2855.94" r="31.5" style=""/>
<circle cx="7455.94" cy="2555.94" r="31.5" style=""/>
<circle cx="7455.94" cy="2355.94" r="31.5" style=""/>
<circle cx="7455.94" cy="2155.94" r="31.5" style=""/>
<circle cx="8055.94" cy="2155.94" r="31.5" style=""/>
<circle cx="8055.94" cy="2355.94" r="31.5" style=""/>
<circle cx="8055.94" cy="2555.94" r="31.5" style=""/>
<circle cx="8055.94" cy="2855.94" r="31.5" style=""/>
<circle cx="8455.94" cy="2855.94" r="31.5" style=""/>
<circle cx="8455.94" cy="2555.94" r="31.5" style=""/>
<circle cx="8455.94" cy="2355.94" r="31.5" style=""/>
<circle cx="8455.94" cy="2155.94" r="31.5" style=""/>
<circle cx="8855.94" cy="2155.94" r="31.5" style=""/>
<circle cx="8855.94" cy="2355.94" r="31.5" style=""/>
<circle cx="9255.94" cy="2155.94" r="31.5" style=""/>
<circle cx="9255.94" cy="2355.94" r="31.5" style=""/>
<circle cx="9255.94" cy="2555.94" r="31.5" style=""/>
<circle cx="9255.94" cy="2855.94" r="31.5" style=""/>
<circle cx="8855.94" cy="2555.94" r="31.5" style=""/>
<circle cx="8855.94" cy="2855.94" r="31.5" style=""/>
<circle cx="9255.94" cy="3455.94" r="31.5" style=""/>
<circle cx="8855.94" cy="3455.94" r="31.5" style=""/>
<circle cx="8455.94" cy="3455.94" r="31.5" style=""/>
<circle cx="8055.94" cy="3455.94" r="31.5" style=""/>
<circle cx="7455.94" cy="2855.94" r="31.5" style=""/>
<circle cx="7455.94" cy="3455.94" r="31.5" style=""/>
<circle cx="7055.94" cy="3455.94" r="31.5" style=""/>
<circle cx="6655.94" cy="3455.94" r="31.5" style=""/>
<circle cx="6255.94" cy="3455.94" r="31.5" style=""/>
<circle cx="5455.94" cy="4055.94" r="31.5" style=""/>
<circle cx="5655.94" cy="4055.94" r="31.5" style=""/>
<circle cx="5855.94" cy="4055.94" r="31.5" style=""/>
<circle cx="6055.94" cy="4055.94" r="31.5" style=""/>
<circle cx="6255.94" cy="4055.94" r="31.5" style=""/>
<circle cx="6455.94" cy="4055.94" r="31.5" style=""/>
<circle cx="6655.94" cy="4055.94" r="31.5" style=""/>
<circle cx="6855.94" cy="4055.94" r="31.5" style=""/>
<circle cx="7055.94" cy="4055.94" r="31.5" style=""/>
<circle cx="7255.94" cy="4055.94" r="31.5" style=""/>
<circle cx="7455.94" cy="4055.94" r="31.5" style=""/>
<circle cx="7455.94" cy="5255.94" r="31.5" style=""/>
<circle cx="7255.94" cy="5255.94" r="31.5" style=""/>
<circle cx="7055.94" cy="5255.94" r="31.5" style=""/>
<circle cx="6855.94" cy="5255.94" r="31.5" style=""/>
<circle cx="6655.94" cy="5255.94" r="31.5" style=""/>
<circle cx="6455.94" cy="5255.94" r="31.5" style=""/>
<circle cx="6255.94" cy="5255.94" r="31.5" style=""/>
<circle cx="6055.94" cy="5255.94" r="31.5" style=""/>
<circle cx="5855.94" cy="5255.94" r="31.5" style=""/>
<circle cx="5655.94" cy="5255.94" r="31.5" style=""/>
<circle cx="5455.94" cy="5255.94" r="31.5" style=""/>
<circle cx="5255.94" cy="5255.94" r="31.5" style=""/>
<circle cx="5055.94" cy="5255.94" r="31.5" style=""/>
<circle cx="4855.94" cy="5255.94" r="31.5" style=""/>
<circle cx="4655.94" cy="5255.94" r="31.5" style=""/>
<circle cx="4455.94" cy="5255.94" r="31.5" style=""/>
<circle cx="4255.94" cy="5255.94" r="31.5" style=""/>
<circle cx="4055.94" cy="5255.94" r="31.5" style=""/>
<circle cx="3855.94" cy="5255.94" r="31.5" style=""/>
<circle cx="3655.94" cy="5255.94" r="31.5" style=""/>
<circle cx="3455.94" cy="5255.94" r="31.5" style=""/>
<circle cx="3255.94" cy="5255.94" r="31.5" style=""/>
<circle cx="3055.94" cy="5255.94" r="31.5" style=""/>
<circle cx="2855.94" cy="5255.94" r="31.5" style=""/>
<circle cx="3855.94" cy="4255.94" r="31.5" style=""/>
<circle cx="3655.94" cy="4255.94" r="31.5" style=""/>
<circle cx="3455.94" cy="4055.94" r="31.5" style=""/>
<circle cx="3655.94" cy="4055.94" r="31.5" style=""/>
<circle cx="3855.94" cy="4055.94" r="31.5" style=""/>
<circle cx="4055.94" cy="4055.94" r="31.5" style=""/>
<circle cx="4255.94" cy="4055.94" r="31.5" style=""/>
<circle cx="4455.94" cy="4055.94" r="31.5" style=""/>
<circle cx="4655.94" cy="4055.94" r="31.5" style=""/>
<circle cx="4855.94" cy="4055.94" r="31.5" style=""/>
<circle cx="5055.94" cy="4055.94" r="31.5" style=""/>
<circle cx="5255.94" cy="4055.94" r="31.5" style=""/>
</svg>
