<?xml version="1.0" standalone="no"?>
<!DOCTYPE svg PUBLIC "-//W3C//DTD SVG 1.1//EN"
"http://www.w3.org/Graphics/SVG/1.1/DTD/svg11.dtd">
<svg width="821.37" height="533.37" viewBox="0 0 17111.9 11111.9" version="1.1"
xmlns="http://www.w3.org/2000/svg"
xmlns:xlink="http://www.w3.org/1999/xlink">
<circle cx="6855.94" cy="9455.94" r="31.5" style=""/>
<circle cx="7055.94" cy="9455.94" r="31.5" style=""/>
<circle cx="7255.94" cy="9455.94" r="31.5" style=""/>
<circle cx="7455.94" cy="9455.94" r="31.5" style=""/>
<circle cx="7655.94" cy="9455.94" r="31.5" style=""/>
<circle cx="7855.94" cy="9455.94" r="31.5" style=""/>
<circle cx="8055.94" cy="9455.94" r="31.5" style=""/>
<circle cx="8255.94" cy="9455.94" r="31.5" style=""/>
<circle cx="8455.94" cy="9455.94" r="31.5" style=""/>
<circle cx="8655.94" cy="9455.94" r="31.5" style=""/>
<circle cx="7855.94" cy="8455.94" r="31.5" style=""/>
<circle cx="7655.94" cy="8455.94" r="31.5" style=""/>
<circle cx="6855.94" cy="8255.94" r="31.5" style=""/>
<circle cx="7055.94" cy="8255.94" r="31.5" style=""/>
<circle cx="7255.94" cy="8255.94" r="31.5" style=""/>
<circle cx="7455.94" cy="8255.94" r="31.5" style=""/>
<circle cx="7655.94" cy="8255.94" r="31.5" style=""/>
<circle cx="7855.94" cy="8255.94" r="31.5" style=""/>
<circle cx="8055.94" cy="8255.94" r="31.5" style=""/>
<circle cx="8255.94" cy="8255.94" r="31.5" style=""/>
<circle cx="8455.94" cy="8255.94" r="31.5" style=""/>
<circle cx="8655.94" cy="8255.94" r="31.5" style=""/>
<circle cx="8855.94" cy="8255.94" r="31.5" style=""/>
<circle cx="9055.94" cy="8255.94" r="31.5" style=""/>
<circle cx="9255.94" cy="8255.94" r="31.5" style=""/>
<circle cx="9455.94" cy="8255.94" r="31.5" style=""/>
<circle cx="9655.94" cy="8255.94" r="31.5" style=""/>
<circle cx="9855.94" cy="8255.94" r="31.5" style=""/>
<circle cx="8855.94" cy="9455.94" r="31.5" style=""/>
<circle cx="9055.94" cy="9455.94" r="31.5" style=""/>
<circle cx="9255.94" cy="9455.94" r="31.5" style=""/>
<circle cx="9455.94" cy="9455.94" r="31.5" style=""/>
<circle cx="9655.94" cy="9455.94" r="31.5" style=""/>
<circle cx="9855.94" cy="9455.94" r="31.5" style=""/>
<circle cx="10055.9" cy="9455.94" r="31.5" style=""/>
<circle cx="10255.9" cy="9455.94" r="31.5" style=""/>
<circle cx="10455.9" cy="9455.94" r="31.5" style=""/>
<circle cx="10655.9" cy="9455.94" r="31.5" style=""/>
<circle cx="10855.9" cy="9455.94" r="31.5" style=""/>
<circle cx="11055.9" cy="9455.94" r="31.5" style=""/>
<circle cx="11255.9" cy="9455.94" r="31.5" style=""/>
<circle cx="11455.9" cy="9455.94" r="31.5" style=""/>
<circle cx="10255.9" cy="8255.94" r="31.5" style=""/>
<circle cx="10055.9" cy="8255.94" r="31.5" style=""/>
<circle cx="10455.9" cy="8255.94" r="31.5" style=""/>
<circle cx="10655.9" cy="8255.94" r="31.5" style=""/>
<circle cx="10855.9" cy="8255.94" r="31.5" style=""/>
<circle cx="11055.9" cy="8255.94" r="31.5" style=""/>
<circle cx="11255.9" cy="8255.94" r="31.5" style=""/>
<circle cx="11455.9" cy="8255.94" r="31.5" style=""/>
<circle cx="12055.9" cy="5555.94" r="31.5" style=""/>
<circle cx="11455.9" cy="5555.94" r="31.5" style=""/>
<circle cx="10855.9" cy="5555.94" r="31.5" style=""/>
<circle cx="10255.9" cy="5555.94" r="31.5" style=""/>
<circle cx="9655.94" cy="5555.94" r="31.5" style=""/>
<circle cx="9655.94" cy="4955.94" r="31.5" style=""/>
<circle cx="9655.94" cy="4555.94" r="31.5" style=""/>
<circle cx="10255.9" cy="4955.94" r="31.5" style=""/>
<circle cx="10255.9" cy="4555.94" r="31.5" style=""/>
<circle cx="9655.94" cy="3955.94" r="31.5" style=""/>
<circle cx="10255.9" cy="3955.94" r="31.5" style=""/>
<circle cx="10255.9" cy="3355.94" r="31.5" style=""/>
<circle cx="10255.9" cy="3155.94" r="31.5" style=""/>
<circle cx="10255.9" cy="2955.94" r="31.5" style=""/>
<circle cx="9655.94" cy="2955.94" r="31.5" style=""/>
<circle cx="9655.94" cy="3155.94" r="31.5" style=""/>
<circle cx="9655.94" cy="3355.94" r="31.5" style=""/>
<circle cx="9055.94" cy="2955.94" r="31.5" style=""/>
<circle cx="9055.94" cy="3155.94" r="31.5" style=""/>
<circle cx="9055.94" cy="3355.94" r="31.5" style=""/>
<circle cx="8455.94" cy="2955.94" r="31.5" style=""/>
<circle cx="8455.94" cy="3155.94" r="31.5" style=""/>
<circle cx="8455.94" cy="3355.94" r="31.5" style=""/>
<circle cx="7855.94" cy="2955.94" r="31.5" style=""/>
<circle cx="7855.94" cy="3155.94" r="31.5" style=""/>
<circle cx="7855.94" cy="3355.94" r="31.5" style=""/>
<circle cx="7855.94" cy="3955.94" r="31.5" style=""/>
<circle cx="8455.94" cy="3955.94" r="31.5" style=""/>
<circle cx="9055.94" cy="3955.94" r="31.5" style=""/>
<circle cx="9055.94" cy="4555.94" r="31.5" style=""/>
<circle cx="9055.94" cy="4955.94" r="31.5" style=""/>
<circle cx="9055.94" cy="5555.94" r="31.5" style=""/>
<circle cx="8455.94" cy="5555.94" r="31.5" style=""/>
<circle cx="7855.94" cy="5555.94" r="31.5" style=""/>
<circle cx="8455.94" cy="4955.94" r="31.5" style=""/>
<circle cx="8455.94" cy="4555.94" r="31.5" style=""/>
<circle cx="7855.94" cy="4555.94" r="31.5" style=""/>
<circle cx="7855.94" cy="4955.94" r="31.5" style=""/>
<circle cx="7255.94" cy="5555.94" r="31.5" style=""/>
<circle cx="6655.94" cy="5555.94" r="31.5" style=""/>
<circle cx="6055.94" cy="5555.94" r="31.5" style=""/>
<circle cx="5455.94" cy="4955.94" r="31.5" style=""/>
<circle cx="5455.94" cy="4555.94" r="31.5" style=""/>
<circle cx="5455.94" cy="3955.94" r="31.5" style=""/>
<circle cx="5455.94" cy="3355.94" r="31.5" style=""/>
<circle cx="5455.94" cy="3155.94" r="31.5" style=""/>
<circle cx="5455.94" cy="2955.94" r="31.5" style=""/>
<circle cx="4855.94" cy="3155.94" r="31.5" style=""/>
<circle cx="4855.94" cy="2955.94" r="31.5" style=""/>
<circle cx="4854.74" cy="2255.94" r="31.5" style=""/>
<circle cx="4579.34" cy="2255.94" r="31.5" style=""/>
<circle cx="3855.94" cy="2255.94" r="31.5" style=""/>
<circle cx="3580.54" cy="2255.94" r="31.5" style=""/>
<circle cx="3855.94" cy="2955.94" r="31.5" style=""/>
<circle cx="3855.94" cy="3155.94" r="31.5" style=""/>
<circle cx="3855.94" cy="3355.94" r="31.5" style=""/>
<circle cx="4855.94" cy="3355.94" r="31.5" style=""/>
<circle cx="3855.34" cy="4955.94" r="31.5" style=""/>
<circle cx="3458.14" cy="4955.94" r="31.5" style=""/>
<circle cx="3059.14" cy="4955.94" r="31.5" style=""/>
<circle cx="2659.14" cy="4955.94" r="31.5" style=""/>
<circle cx="2659.14" cy="5555.94" r="31.5" style=""/>
<circle cx="3059.14" cy="5555.94" r="31.5" style=""/>
<circle cx="3458.14" cy="5555.94" r="31.5" style=""/>
<circle cx="3855.34" cy="5555.94" r="31.5" style=""/>
<circle cx="4455.94" cy="5555.94" r="31.5" style=""/>
<circle cx="4455.94" cy="4955.94" r="31.5" style=""/>
<circle cx="4855.94" cy="4955.94" r="31.5" style=""/>
<circle cx="4855.94" cy="5555.94" r="31.5" style=""/>
<circle cx="5455.94" cy="5555.94" r="31.5" style=""/>
<circle cx="6055.94" cy="4955.94" r="31.5" style=""/>
<circle cx="6055.94" cy="4555.94" r="31.5" style=""/>
<circle cx="6055.94" cy="3955.94" r="31.5" style=""/>
<circle cx="6655.94" cy="3955.94" r="31.5" style=""/>
<circle cx="6655.94" cy="4555.94" r="31.5" style=""/>
<circle cx="6655.94" cy="4955.94" r="31.5" style=""/>
<circle cx="7255.94" cy="4955.94" r="31.5" style=""/>
<circle cx="7255.94" cy="4555.94" r="31.5" style=""/>
<circle cx="7255.94" cy="3955.94" r="31.5" style=""/>
<circle cx="7255.94" cy="3355.94" r="31.5" style=""/>
<circle cx="7255.94" cy="3155.94" r="31.5" style=""/>
<circle cx="7255.94" cy="2955.94" r="31.5" style=""/>
<circle cx="6655.94" cy="3355.94" r="31.5" style=""/>
<circle cx="6655.94" cy="3155.94" r="31.5" style=""/>
<circle cx="6655.94" cy="2955.94" r="31.5" style=""/>
<circle cx="6055.94" cy="3355.94" r="31.5" style=""/>
<circle cx="6055.94" cy="3155.94" r="31.5" style=""/>
<circle cx="6055.94" cy="2955.94" r="31.5" style=""/>
<circle cx="5626.94" cy="2255.94" r="31.5" style=""/>
<circle cx="5902.54" cy="2255.94" r="31.5" style=""/>
<circle cx="6178.14" cy="2255.94" r="31.5" style=""/>
<circle cx="6453.74" cy="2255.94" r="31.5" style=""/>
<circle cx="6729.34" cy="2255.94" r="31.5" style=""/>
<circle cx="7004.94" cy="2255.94" r="31.5" style=""/>
<circle cx="7280.54" cy="2255.94" r="31.5" style=""/>
<circle cx="7555.94" cy="2255.94" r="31.5" style=""/>
<circle cx="8026.94" cy="2255.94" r="31.5" style=""/>
<circle cx="8302.54" cy="2255.94" r="31.5" style=""/>
<circle cx="8578.14" cy="2255.94" r="31.5" style=""/>
<circle cx="8853.74" cy="2255.94" r="31.5" style=""/>
<circle cx="9129.34" cy="2255.94" r="31.5" style=""/>
<circle cx="9404.94" cy="2255.94" r="31.5" style=""/>
<circle cx="9680.54" cy="2255.94" r="31.5" style=""/>
<circle cx="9955.94" cy="2255.94" r="31.5" style=""/>
<circle cx="10426.9" cy="2255.94" r="31.5" style=""/>
<circle cx="10702.5" cy="2255.94" r="31.5" style=""/>
<circle cx="10978.1" cy="2255.94" r="31.5" style=""/>
<circle cx="11253.7" cy="2255.94" r="31.5" style=""/>
<circle cx="11529.3" cy="2255.94" r="31.5" style=""/>
<circle cx="10855.9" cy="2955.94" r="31.5" style=""/>
<circle cx="10855.9" cy="3155.94" r="31.5" style=""/>
<circle cx="10855.9" cy="3355.94" r="31.5" style=""/>
<circle cx="11455.9" cy="3355.94" r="31.5" style=""/>
<circle cx="11455.9" cy="3155.94" r="31.5" style=""/>
<circle cx="11455.9" cy="2955.94" r="31.5" style=""/>
<circle cx="11804.9" cy="2255.94" r="31.5" style=""/>
<circle cx="12080.5" cy="2255.94" r="31.5" style=""/>
<circle cx="12355.9" cy="2255.94" r="31.5" style=""/>
<circle cx="12826.9" cy="2255.94" r="31.5" style=""/>
<circle cx="13102.5" cy="2255.94" r="31.5" style=""/>
<circle cx="13378.1" cy="2255.94" r="31.5" style=""/>
<circle cx="13653.7" cy="2255.94" r="31.5" style=""/>
<circle cx="13929.3" cy="2255.94" r="31.5" style=""/>
<circle cx="14204.9" cy="2255.94" r="31.5" style=""/>
<circle cx="14480.5" cy="2255.94" r="31.5" style=""/>
<circle cx="14755.9" cy="2255.94" r="31.5" style=""/>
<circle cx="14455.9" cy="2955.94" r="31.5" style=""/>
<circle cx="14455.9" cy="3155.94" r="31.5" style=""/>
<circle cx="14455.9" cy="3355.94" r="31.5" style=""/>
<circle cx="13855.9" cy="2955.94" r="31.5" style=""/>
<circle cx="13855.9" cy="3155.94" r="31.5" style=""/>
<circle cx="13855.9" cy="3355.94" r="31.5" style=""/>
<circle cx="13855.9" cy="3955.94" r="31.5" style=""/>
<circle cx="14455.9" cy="3955.94" r="31.5" style=""/>
<circle cx="13855.9" cy="4555.94" r="31.5" style=""/>
<circle cx="14455.9" cy="4555.94" r="31.5" style=""/>
<circle cx="14455.9" cy="4955.94" r="31.5" style=""/>
<circle cx="14455.9" cy="5555.94" r="31.5" style=""/>
<circle cx="13855.9" cy="5555.94" r="31.5" style=""/>
<circle cx="13855.9" cy="4955.94" r="31.5" style=""/>
<circle cx="13255.9" cy="4555.94" r="31.5" style=""/>
<circle cx="13255.9" cy="4955.94" r="31.5" style=""/>
<circle cx="13255.9" cy="5555.94" r="31.5" style=""/>
<circle cx="12655.9" cy="5555.94" r="31.5" style=""/>
<circle cx="12655.9" cy="4955.94" r="31.5" style=""/>
<circle cx="12655.9" cy="4555.94" r="31.5" style=""/>
<circle cx="12055.9" cy="3955.94" r="31.5" style=""/>
<circle cx="12055.9" cy="4555.94" r="31.5" style=""/>
<circle cx="12055.9" cy="4955.94" r="31.5" style=""/>
<circle cx="11455.9" cy="4955.94" r="31.5" style=""/>
<circle cx="10855.9" cy="4955.94" r="31.5" style=""/>
<circle cx="10855.9" cy="4555.94" r="31.5" style=""/>
<circle cx="10855.9" cy="3955.94" r="31.5" style=""/>
<circle cx="11455.9" cy="4555.94" r="31.5" style=""/>
<circle cx="11455.9" cy="3955.94" r="31.5" style=""/>
<circle cx="12055.9" cy="3355.94" r="31.5" style=""/>
<circle cx="12055.9" cy="3155.94" r="31.5" style=""/>
<circle cx="12055.9" cy="2955.94" r="31.5" style=""/>
<circle cx="12655.9" cy="2955.94" r="31.5" style=""/>
<circle cx="12655.9" cy="3155.94" r="31.5" style=""/>
<circle cx="12655.9" cy="3355.94" r="31.5" style=""/>
<circle cx="13255.9" cy="2955.94" r="31.5" style=""/>
<circle cx="13255.9" cy="3155.94" r="31.5" style=""/>
<circle cx="13255.9" cy="3355.94" r="31.5" style=""/>
<circle cx="13255.9" cy="3955.94" r="31.5" style=""/>
<circle cx="12655.9" cy="3955.94" r="31.5" style=""/>
</svg>
