<?xml version="1.0" standalone="no"?>
<!DOCTYPE svg PUBLIC "-//W3C//DTD SVG 1.1//EN"
"http://www.w3.org/Graphics/SVG/1.1/DTD/svg11.dtd">
<svg width="402.216" height="153.192" viewBox="0 0 8379.5 3191.5" version="1.1"
xmlns="http://www.w3.org/2000/svg"
xmlns:xlink="http://www.w3.org/1999/xlink">
<circle cx="8089.75" cy="545.748" r="35.4" style=""/>
<circle cx="7689.75" cy="545.748" r="35.4" style=""/>
<circle cx="7289.75" cy="545.748" r="35.4" style=""/>
<circle cx="6889.75" cy="545.748" r="35.4" style=""/>
<circle cx="6489.75" cy="545.748" r="35.4" style=""/>
<circle cx="6089.75" cy="545.748" r="35.4" style=""/>
<circle cx="5689.75" cy="545.748" r="35.4" style=""/>
<circle cx="5289.75" cy="545.748" r="35.4" style=""/>
<circle cx="4689.75" cy="545.748" r="35.4" style=""/>
<circle cx="4289.75" cy="545.748" r="35.4" style=""/>
<circle cx="3889.75" cy="545.748" r="35.4" style=""/>
<circle cx="3489.75" cy="545.748" r="35.4" style=""/>
<circle cx="3089.75" cy="545.748" r="35.4" style=""/>
<circle cx="2689.75" cy="545.748" r="35.4" style=""/>
<circle cx="2289.75" cy="545.748" r="35.4" style=""/>
<circle cx="1889.75" cy="545.748" r="35.4" style=""/>
<circle cx="1489.75" cy="545.748" r="35.4" style=""/>
<circle cx="1289.75" cy="545.748" r="35.4" style=""/>
<circle cx="1089.75" cy="545.748" r="35.4" style=""/>
<circle cx="889.748" cy="545.748" r="35.4" style=""/>
<circle cx="489.748" cy="545.748" r="35.4" style=""/>
<circle cx="89.748" cy="545.748" r="35.4" style=""/>
<circle cx="89.748" cy="1145.75" r="35.4" style=""/>
<circle cx="489.748" cy="1145.75" r="35.4" style=""/>
<circle cx="889.748" cy="1145.75" r="35.4" style=""/>
<circle cx="1089.75" cy="1145.75" r="35.4" style=""/>
<circle cx="1289.75" cy="1145.75" r="35.4" style=""/>
<circle cx="1489.75" cy="1145.75" r="35.4" style=""/>
<circle cx="1889.75" cy="1145.75" r="35.4" style=""/>
<circle cx="2289.75" cy="1145.75" r="35.4" style=""/>
<circle cx="2689.75" cy="1145.75" r="35.4" style=""/>
<circle cx="3089.75" cy="1145.75" r="35.4" style=""/>
<circle cx="3489.75" cy="1145.75" r="35.4" style=""/>
<circle cx="3889.75" cy="1145.75" r="35.4" style=""/>
<circle cx="4289.75" cy="1145.75" r="35.4" style=""/>
<circle cx="4689.75" cy="1145.75" r="35.4" style=""/>
<circle cx="5289.75" cy="1145.75" r="35.4" style=""/>
<circle cx="5689.75" cy="1145.75" r="35.4" style=""/>
<circle cx="6089.75" cy="1145.75" r="35.4" style=""/>
<circle cx="6489.75" cy="1145.75" r="35.4" style=""/>
<circle cx="6889.75" cy="1145.75" r="35.4" style=""/>
<circle cx="7289.75" cy="1145.75" r="35.4" style=""/>
<circle cx="7689.75" cy="1145.75" r="35.4" style=""/>
<circle cx="8089.75" cy="1145.75" r="35.4" style=""/>
<circle cx="8289.75" cy="245.748" r="40" style=""/>
<circle cx="8089.75" cy="245.748" r="40" style=""/>
<circle cx="7889.75" cy="245.748" r="40" style=""/>
<circle cx="7689.75" cy="245.748" r="40" style=""/>
<circle cx="7489.75" cy="245.748" r="40" style=""/>
<circle cx="7289.75" cy="245.748" r="40" style=""/>
<circle cx="7089.75" cy="245.748" r="40" style=""/>
<circle cx="6889.75" cy="245.748" r="40" style=""/>
<circle cx="6689.75" cy="245.748" r="40" style=""/>
<circle cx="6489.75" cy="245.748" r="40" style=""/>
<circle cx="6289.75" cy="245.748" r="40" style=""/>
<circle cx="6089.75" cy="245.748" r="40" style=""/>
<circle cx="5889.75" cy="245.748" r="40" style=""/>
<circle cx="5689.75" cy="245.748" r="40" style=""/>
<circle cx="5489.75" cy="245.748" r="40" style=""/>
<circle cx="5289.75" cy="245.748" r="40" style=""/>
<circle cx="4889.75" cy="245.748" r="40" style=""/>
<circle cx="4689.75" cy="245.748" r="40" style=""/>
<circle cx="4489.75" cy="245.748" r="40" style=""/>
<circle cx="4289.75" cy="245.748" r="40" style=""/>
<circle cx="4089.75" cy="245.748" r="40" style=""/>
<circle cx="3889.75" cy="245.748" r="40" style=""/>
<circle cx="3689.75" cy="245.748" r="40" style=""/>
<circle cx="3489.75" cy="245.748" r="40" style=""/>
<circle cx="3289.75" cy="245.748" r="40" style=""/>
<circle cx="3089.75" cy="245.748" r="40" style=""/>
<circle cx="2889.75" cy="245.748" r="40" style=""/>
<circle cx="2689.75" cy="245.748" r="40" style=""/>
<circle cx="2489.75" cy="245.748" r="40" style=""/>
<circle cx="2289.75" cy="245.748" r="40" style=""/>
<circle cx="2089.75" cy="245.748" r="40" style=""/>
<circle cx="1889.75" cy="245.748" r="40" style=""/>
<circle cx="1489.75" cy="245.748" r="40" style=""/>
<circle cx="1289.75" cy="245.748" r="40" style=""/>
<circle cx="1089.75" cy="245.748" r="40" style=""/>
<circle cx="889.748" cy="245.748" r="40" style=""/>
<circle cx="6789.75" cy="1745.75" r="43.3" style=""/>
<circle cx="6589.75" cy="1745.75" r="43.3" style=""/>
<circle cx="6389.75" cy="1745.75" r="43.3" style=""/>
<circle cx="6189.75" cy="1745.75" r="43.3" style=""/>
<circle cx="5989.75" cy="1745.75" r="43.3" style=""/>
<circle cx="5789.75" cy="1745.75" r="43.3" style=""/>
<circle cx="5589.75" cy="1745.75" r="43.3" style=""/>
<circle cx="5389.75" cy="1745.75" r="43.3" style=""/>
<circle cx="5189.75" cy="1745.75" r="43.3" style=""/>
<circle cx="4989.75" cy="1745.75" r="43.3" style=""/>
<circle cx="4789.75" cy="1745.75" r="43.3" style=""/>
<circle cx="4589.75" cy="1745.75" r="43.3" style=""/>
<circle cx="4389.75" cy="1745.75" r="43.3" style=""/>
<circle cx="4189.75" cy="1745.75" r="43.3" style=""/>
<circle cx="3989.75" cy="1745.75" r="43.3" style=""/>
<circle cx="3789.75" cy="1745.75" r="43.3" style=""/>
<circle cx="3589.75" cy="1745.75" r="43.3" style=""/>
<circle cx="3389.75" cy="1745.75" r="43.3" style=""/>
<circle cx="3189.75" cy="1745.75" r="43.3" style=""/>
<circle cx="2989.75" cy="1745.75" r="43.3" style=""/>
<circle cx="2789.75" cy="1745.75" r="43.3" style=""/>
<circle cx="2589.75" cy="1745.75" r="43.3" style=""/>
<circle cx="2389.75" cy="1745.75" r="43.3" style=""/>
<circle cx="2189.75" cy="1745.75" r="43.3" style=""/>
<circle cx="2389.75" cy="1945.75" r="43.3" style=""/>
<circle cx="2789.75" cy="1945.75" r="43.3" style=""/>
<circle cx="2989.75" cy="1945.75" r="43.3" style=""/>
<circle cx="3189.75" cy="1945.75" r="43.3" style=""/>
<circle cx="2189.75" cy="2945.75" r="43.3" style=""/>
<circle cx="2389.75" cy="2945.75" r="43.3" style=""/>
<circle cx="2589.75" cy="2945.75" r="43.3" style=""/>
<circle cx="2789.75" cy="2945.75" r="43.3" style=""/>
<circle cx="2689.75" cy="2709.55" r="43.3" style=""/>
<circle cx="2889.75" cy="2709.55" r="43.3" style=""/>
<circle cx="3089.75" cy="2709.55" r="43.3" style=""/>
<circle cx="2989.75" cy="2945.75" r="43.3" style=""/>
<circle cx="3189.75" cy="2945.75" r="43.3" style=""/>
<circle cx="3289.75" cy="2709.55" r="43.3" style=""/>
<circle cx="3489.75" cy="2709.55" r="43.3" style=""/>
<circle cx="3389.75" cy="2945.75" r="43.3" style=""/>
<circle cx="3589.75" cy="2945.75" r="43.3" style=""/>
<circle cx="3789.75" cy="2945.75" r="43.3" style=""/>
<circle cx="3989.75" cy="2945.75" r="43.3" style=""/>
<circle cx="4189.75" cy="2945.75" r="43.3" style=""/>
<circle cx="4389.75" cy="2945.75" r="43.3" style=""/>
<circle cx="4589.75" cy="2945.75" r="43.3" style=""/>
<circle cx="4789.75" cy="2945.75" r="43.3" style=""/>
<circle cx="4989.75" cy="2945.75" r="43.3" style=""/>
<circle cx="5189.75" cy="2945.75" r="43.3" style=""/>
<circle cx="5389.75" cy="2945.75" r="43.3" style=""/>
<circle cx="5589.75" cy="2945.75" r="43.3" style=""/>
<circle cx="5789.75" cy="2745.75" r="43.3" style=""/>
<circle cx="5789.75" cy="2545.75" r="43.3" style=""/>
<circle cx="5789.75" cy="2345.75" r="43.3" style=""/>
<circle cx="5789.75" cy="2145.75" r="43.3" style=""/>
<circle cx="5789.75" cy="1945.75" r="43.3" style=""/>
<circle cx="5789.75" cy="2945.75" r="43.3" style=""/>
<circle cx="5989.75" cy="2945.75" r="43.3" style=""/>
<circle cx="6189.75" cy="2945.75" r="43.3" style=""/>
<circle cx="6389.75" cy="2945.75" r="43.3" style=""/>
<circle cx="6589.75" cy="2945.75" r="43.3" style=""/>
<circle cx="6789.75" cy="2945.75" r="43.3" style=""/>
</svg>
