<?xml version="1.0" standalone="no"?>
<!DOCTYPE svg PUBLIC "-//W3C//DTD SVG 1.1//EN"
"http://www.w3.org/Graphics/SVG/1.1/DTD/svg11.dtd">
<svg width="628.375" height="401.28" viewBox="0 0 13091.1 8360" version="1.1"
xmlns="http://www.w3.org/2000/svg"
xmlns:xlink="http://www.w3.org/1999/xlink">
<circle cx="9451.14" cy="7830" r="31.5" style=""/>
<circle cx="9251.14" cy="7830" r="31.5" style=""/>
<circle cx="9051.14" cy="7830" r="31.5" style=""/>
<circle cx="8851.14" cy="7830" r="31.5" style=""/>
<circle cx="8651.14" cy="7830" r="31.5" style=""/>
<circle cx="8451.14" cy="7830" r="31.5" style=""/>
<circle cx="8251.14" cy="7830" r="31.5" style=""/>
<circle cx="8051.14" cy="7830" r="31.5" style=""/>
<circle cx="7851.14" cy="7830" r="31.5" style=""/>
<circle cx="7651.14" cy="7830" r="31.5" style=""/>
<circle cx="7451.14" cy="7830" r="31.5" style=""/>
<circle cx="7251.14" cy="7830" r="31.5" style=""/>
<circle cx="7051.14" cy="7830" r="31.5" style=""/>
<circle cx="6851.14" cy="7830" r="31.5" style=""/>
<circle cx="6651.14" cy="7830" r="31.5" style=""/>
<circle cx="6451.14" cy="7830" r="31.5" style=""/>
<circle cx="6251.14" cy="7830" r="31.5" style=""/>
<circle cx="6051.14" cy="7830" r="31.5" style=""/>
<circle cx="5851.14" cy="7830" r="31.5" style=""/>
<circle cx="5651.14" cy="7830" r="31.5" style=""/>
<circle cx="5451.14" cy="7830" r="31.5" style=""/>
<circle cx="5251.14" cy="7830" r="31.5" style=""/>
<circle cx="5051.14" cy="7830" r="31.5" style=""/>
<circle cx="4851.14" cy="7830" r="31.5" style=""/>
<circle cx="5851.14" cy="6830" r="31.5" style=""/>
<circle cx="5651.14" cy="6830" r="31.5" style=""/>
<circle cx="4851.14" cy="6630" r="31.5" style=""/>
<circle cx="5051.14" cy="6630" r="31.5" style=""/>
<circle cx="5251.14" cy="6630" r="31.5" style=""/>
<circle cx="5451.14" cy="6630" r="31.5" style=""/>
<circle cx="5651.14" cy="6630" r="31.5" style=""/>
<circle cx="5851.14" cy="6630" r="31.5" style=""/>
<circle cx="6051.14" cy="6630" r="31.5" style=""/>
<circle cx="6251.14" cy="6630" r="31.5" style=""/>
<circle cx="6451.14" cy="6630" r="31.5" style=""/>
<circle cx="6651.14" cy="6630" r="31.5" style=""/>
<circle cx="6851.14" cy="6630" r="31.5" style=""/>
<circle cx="7051.14" cy="6630" r="31.5" style=""/>
<circle cx="7251.14" cy="6630" r="31.5" style=""/>
<circle cx="7451.14" cy="6630" r="31.5" style=""/>
<circle cx="7651.14" cy="6630" r="31.5" style=""/>
<circle cx="7851.14" cy="6630" r="31.5" style=""/>
<circle cx="8051.14" cy="6630" r="31.5" style=""/>
<circle cx="8251.14" cy="6630" r="31.5" style=""/>
<circle cx="8451.14" cy="6630" r="31.5" style=""/>
<circle cx="8651.14" cy="6630" r="31.5" style=""/>
<circle cx="8851.14" cy="6630" r="31.5" style=""/>
<circle cx="9051.14" cy="6630" r="31.5" style=""/>
<circle cx="9251.14" cy="6630" r="31.5" style=""/>
<circle cx="9451.14" cy="6630" r="31.5" style=""/>
<circle cx="10051.1" cy="3930" r="31.5" style=""/>
<circle cx="9451.14" cy="3930" r="31.5" style=""/>
<circle cx="8851.14" cy="3930" r="31.5" style=""/>
<circle cx="8251.14" cy="3930" r="31.5" style=""/>
<circle cx="7651.14" cy="3930" r="31.5" style=""/>
<circle cx="8251.14" cy="3330" r="31.5" style=""/>
<circle cx="8251.14" cy="2930" r="31.5" style=""/>
<circle cx="7651.14" cy="2330" r="31.5" style=""/>
<circle cx="8251.14" cy="2330" r="31.5" style=""/>
<circle cx="8251.14" cy="1730" r="31.5" style=""/>
<circle cx="8251.14" cy="1530" r="31.5" style=""/>
<circle cx="8251.14" cy="1330" r="31.5" style=""/>
<circle cx="7651.14" cy="1330" r="31.5" style=""/>
<circle cx="7651.14" cy="1530" r="31.5" style=""/>
<circle cx="7651.14" cy="1730" r="31.5" style=""/>
<circle cx="7051.14" cy="1330" r="31.5" style=""/>
<circle cx="7051.14" cy="1530" r="31.5" style=""/>
<circle cx="7051.14" cy="1730" r="31.5" style=""/>
<circle cx="6451.14" cy="1330" r="31.5" style=""/>
<circle cx="6451.14" cy="1530" r="31.5" style=""/>
<circle cx="6451.14" cy="1730" r="31.5" style=""/>
<circle cx="5851.14" cy="1330" r="31.5" style=""/>
<circle cx="5851.14" cy="1530" r="31.5" style=""/>
<circle cx="5851.14" cy="1730" r="31.5" style=""/>
<circle cx="5851.14" cy="2330" r="31.5" style=""/>
<circle cx="6451.14" cy="2330" r="31.5" style=""/>
<circle cx="7051.14" cy="2930" r="31.5" style=""/>
<circle cx="7051.14" cy="3330" r="31.5" style=""/>
<circle cx="7051.14" cy="3930" r="31.5" style=""/>
<circle cx="7651.14" cy="3330" r="31.5" style=""/>
<circle cx="7651.14" cy="2930" r="31.5" style=""/>
<circle cx="7051.14" cy="2330" r="31.5" style=""/>
<circle cx="6451.14" cy="2930" r="31.5" style=""/>
<circle cx="5851.14" cy="2930" r="31.5" style=""/>
<circle cx="5851.14" cy="3330" r="31.5" style=""/>
<circle cx="6451.14" cy="3930" r="31.5" style=""/>
<circle cx="6451.14" cy="3330" r="31.5" style=""/>
<circle cx="5851.14" cy="3930" r="31.5" style=""/>
<circle cx="5251.14" cy="3930" r="31.5" style=""/>
<circle cx="4651.14" cy="3930" r="31.5" style=""/>
<circle cx="4051.14" cy="3930" r="31.5" style=""/>
<circle cx="3451.14" cy="3330" r="31.5" style=""/>
<circle cx="3451.14" cy="2930" r="31.5" style=""/>
<circle cx="3451.14" cy="2330" r="31.5" style=""/>
<circle cx="3451.14" cy="1730" r="31.5" style=""/>
<circle cx="3451.14" cy="1530" r="31.5" style=""/>
<circle cx="3451.14" cy="1330" r="31.5" style=""/>
<circle cx="2851.14" cy="1530" r="31.5" style=""/>
<circle cx="2851.14" cy="1330" r="31.5" style=""/>
<circle cx="2849.94" cy="630" r="31.5" style=""/>
<circle cx="2574.54" cy="630" r="31.5" style=""/>
<circle cx="1851.14" cy="630" r="31.5" style=""/>
<circle cx="1575.74" cy="630" r="31.5" style=""/>
<circle cx="1851.14" cy="1330" r="31.5" style=""/>
<circle cx="1851.14" cy="1530" r="31.5" style=""/>
<circle cx="1851.14" cy="1730" r="31.5" style=""/>
<circle cx="2851.14" cy="1730" r="31.5" style=""/>
<circle cx="1850.54" cy="3330" r="31.5" style=""/>
<circle cx="1453.34" cy="3330" r="31.5" style=""/>
<circle cx="1054.34" cy="3330" r="31.5" style=""/>
<circle cx="654.343" cy="3330" r="31.5" style=""/>
<circle cx="654.343" cy="3930" r="31.5" style=""/>
<circle cx="1054.34" cy="3930" r="31.5" style=""/>
<circle cx="1453.34" cy="3930" r="31.5" style=""/>
<circle cx="1850.54" cy="3930" r="31.5" style=""/>
<circle cx="2451.14" cy="3930" r="31.5" style=""/>
<circle cx="2451.14" cy="3330" r="31.5" style=""/>
<circle cx="2851.14" cy="3330" r="31.5" style=""/>
<circle cx="2851.14" cy="3930" r="31.5" style=""/>
<circle cx="3451.14" cy="3930" r="31.5" style=""/>
<circle cx="4051.14" cy="3330" r="31.5" style=""/>
<circle cx="4051.14" cy="2930" r="31.5" style=""/>
<circle cx="4051.14" cy="2330" r="31.5" style=""/>
<circle cx="4651.14" cy="2330" r="31.5" style=""/>
<circle cx="4651.14" cy="2930" r="31.5" style=""/>
<circle cx="4651.14" cy="3330" r="31.5" style=""/>
<circle cx="5251.14" cy="3330" r="31.5" style=""/>
<circle cx="5251.14" cy="2930" r="31.5" style=""/>
<circle cx="5251.14" cy="2330" r="31.5" style=""/>
<circle cx="5251.14" cy="1730" r="31.5" style=""/>
<circle cx="5251.14" cy="1530" r="31.5" style=""/>
<circle cx="5251.14" cy="1330" r="31.5" style=""/>
<circle cx="4651.14" cy="1730" r="31.5" style=""/>
<circle cx="4651.14" cy="1530" r="31.5" style=""/>
<circle cx="4651.14" cy="1330" r="31.5" style=""/>
<circle cx="4051.14" cy="1730" r="31.5" style=""/>
<circle cx="4051.14" cy="1530" r="31.5" style=""/>
<circle cx="4051.14" cy="1330" r="31.5" style=""/>
<circle cx="3622.14" cy="630" r="31.5" style=""/>
<circle cx="3897.74" cy="630" r="31.5" style=""/>
<circle cx="4173.34" cy="630" r="31.5" style=""/>
<circle cx="4448.94" cy="630" r="31.5" style=""/>
<circle cx="4724.54" cy="630" r="31.5" style=""/>
<circle cx="5000.14" cy="630" r="31.5" style=""/>
<circle cx="5275.74" cy="630" r="31.5" style=""/>
<circle cx="5551.14" cy="630" r="31.5" style=""/>
<circle cx="6022.14" cy="630" r="31.5" style=""/>
<circle cx="6297.74" cy="630" r="31.5" style=""/>
<circle cx="6573.34" cy="630" r="31.5" style=""/>
<circle cx="6848.94" cy="630" r="31.5" style=""/>
<circle cx="7124.54" cy="630" r="31.5" style=""/>
<circle cx="7400.14" cy="630" r="31.5" style=""/>
<circle cx="7675.74" cy="630" r="31.5" style=""/>
<circle cx="7951.14" cy="630" r="31.5" style=""/>
<circle cx="8422.14" cy="630" r="31.5" style=""/>
<circle cx="8697.74" cy="630" r="31.5" style=""/>
<circle cx="8973.34" cy="630" r="31.5" style=""/>
<circle cx="9248.94" cy="630" r="31.5" style=""/>
<circle cx="9524.54" cy="630" r="31.5" style=""/>
<circle cx="8851.14" cy="1330" r="31.5" style=""/>
<circle cx="8851.14" cy="1530" r="31.5" style=""/>
<circle cx="8851.14" cy="1730" r="31.5" style=""/>
<circle cx="9451.14" cy="1730" r="31.5" style=""/>
<circle cx="9451.14" cy="1530" r="31.5" style=""/>
<circle cx="9451.14" cy="1330" r="31.5" style=""/>
<circle cx="9800.14" cy="630" r="31.5" style=""/>
<circle cx="10075.7" cy="630" r="31.5" style=""/>
<circle cx="10351.1" cy="630" r="31.5" style=""/>
<circle cx="10822.1" cy="630" r="31.5" style=""/>
<circle cx="11097.7" cy="630" r="31.5" style=""/>
<circle cx="11373.3" cy="630" r="31.5" style=""/>
<circle cx="11648.9" cy="630" r="31.5" style=""/>
<circle cx="11924.5" cy="630" r="31.5" style=""/>
<circle cx="12200.1" cy="630" r="31.5" style=""/>
<circle cx="12475.7" cy="630" r="31.5" style=""/>
<circle cx="12751.1" cy="630" r="31.5" style=""/>
<circle cx="12451.1" cy="1330" r="31.5" style=""/>
<circle cx="12451.1" cy="1530" r="31.5" style=""/>
<circle cx="12451.1" cy="1730" r="31.5" style=""/>
<circle cx="11851.1" cy="1330" r="31.5" style=""/>
<circle cx="11851.1" cy="1530" r="31.5" style=""/>
<circle cx="11851.1" cy="1730" r="31.5" style=""/>
<circle cx="11851.1" cy="2330" r="31.5" style=""/>
<circle cx="12451.1" cy="2330" r="31.5" style=""/>
<circle cx="11851.1" cy="2930" r="31.5" style=""/>
<circle cx="12451.1" cy="2930" r="31.5" style=""/>
<circle cx="12451.1" cy="3330" r="31.5" style=""/>
<circle cx="12451.1" cy="3930" r="31.5" style=""/>
<circle cx="11851.1" cy="3930" r="31.5" style=""/>
<circle cx="11851.1" cy="3330" r="31.5" style=""/>
<circle cx="11251.1" cy="2930" r="31.5" style=""/>
<circle cx="11251.1" cy="3330" r="31.5" style=""/>
<circle cx="11251.1" cy="3930" r="31.5" style=""/>
<circle cx="10651.1" cy="3930" r="31.5" style=""/>
<circle cx="10651.1" cy="3330" r="31.5" style=""/>
<circle cx="10651.1" cy="2930" r="31.5" style=""/>
<circle cx="10051.1" cy="2330" r="31.5" style=""/>
<circle cx="10051.1" cy="2930" r="31.5" style=""/>
<circle cx="10051.1" cy="3330" r="31.5" style=""/>
<circle cx="9451.14" cy="3330" r="31.5" style=""/>
<circle cx="8851.14" cy="3330" r="31.5" style=""/>
<circle cx="8851.14" cy="2930" r="31.5" style=""/>
<circle cx="8851.14" cy="2330" r="31.5" style=""/>
<circle cx="9451.14" cy="2930" r="31.5" style=""/>
<circle cx="9451.14" cy="2330" r="31.5" style=""/>
<circle cx="10051.1" cy="1730" r="31.5" style=""/>
<circle cx="10051.1" cy="1530" r="31.5" style=""/>
<circle cx="10051.1" cy="1330" r="31.5" style=""/>
<circle cx="10651.1" cy="1330" r="31.5" style=""/>
<circle cx="10651.1" cy="1530" r="31.5" style=""/>
<circle cx="10651.1" cy="1730" r="31.5" style=""/>
<circle cx="11251.1" cy="1330" r="31.5" style=""/>
<circle cx="11251.1" cy="1530" r="31.5" style=""/>
<circle cx="11251.1" cy="1730" r="31.5" style=""/>
<circle cx="11251.1" cy="2330" r="31.5" style=""/>
<circle cx="10651.1" cy="2330" r="31.5" style=""/>
</svg>
