<?xml version="1.0" standalone="no"?>
<!DOCTYPE svg PUBLIC "-//W3C//DTD SVG 1.1//EN"
"http://www.w3.org/Graphics/SVG/1.1/DTD/svg11.dtd">
<svg width="607.255" height="380.16" viewBox="0 0 12651.1 7920" version="1.1"
xmlns="http://www.w3.org/2000/svg"
xmlns:xlink="http://www.w3.org/1999/xlink">
<circle cx="9231.14" cy="7610" r="31.5" style=""/>
<circle cx="9031.14" cy="7610" r="31.5" style=""/>
<circle cx="8831.14" cy="7610" r="31.5" style=""/>
<circle cx="8631.14" cy="7610" r="31.5" style=""/>
<circle cx="8431.14" cy="7610" r="31.5" style=""/>
<circle cx="8231.14" cy="7610" r="31.5" style=""/>
<circle cx="8031.14" cy="7610" r="31.5" style=""/>
<circle cx="7831.14" cy="7610" r="31.5" style=""/>
<circle cx="7631.14" cy="7610" r="31.5" style=""/>
<circle cx="7431.14" cy="7610" r="31.5" style=""/>
<circle cx="7231.14" cy="7610" r="31.5" style=""/>
<circle cx="7031.14" cy="7610" r="31.5" style=""/>
<circle cx="6831.14" cy="7610" r="31.5" style=""/>
<circle cx="6631.14" cy="7610" r="31.5" style=""/>
<circle cx="6431.14" cy="7610" r="31.5" style=""/>
<circle cx="6231.14" cy="7610" r="31.5" style=""/>
<circle cx="6031.14" cy="7610" r="31.5" style=""/>
<circle cx="5831.14" cy="7610" r="31.5" style=""/>
<circle cx="5631.14" cy="7610" r="31.5" style=""/>
<circle cx="5431.14" cy="7610" r="31.5" style=""/>
<circle cx="5231.14" cy="7610" r="31.5" style=""/>
<circle cx="5031.14" cy="7610" r="31.5" style=""/>
<circle cx="4831.14" cy="7610" r="31.5" style=""/>
<circle cx="4631.14" cy="7610" r="31.5" style=""/>
<circle cx="5631.14" cy="6610" r="31.5" style=""/>
<circle cx="5431.14" cy="6610" r="31.5" style=""/>
<circle cx="5231.14" cy="6410" r="31.5" style=""/>
<circle cx="5431.14" cy="6410" r="31.5" style=""/>
<circle cx="5631.14" cy="6410" r="31.5" style=""/>
<circle cx="5831.14" cy="6410" r="31.5" style=""/>
<circle cx="6031.14" cy="6410" r="31.5" style=""/>
<circle cx="6231.14" cy="6410" r="31.5" style=""/>
<circle cx="6431.14" cy="6410" r="31.5" style=""/>
<circle cx="6631.14" cy="6410" r="31.5" style=""/>
<circle cx="6831.14" cy="6410" r="31.5" style=""/>
<circle cx="7031.14" cy="6410" r="31.5" style=""/>
<circle cx="7231.14" cy="6410" r="31.5" style=""/>
<circle cx="7431.14" cy="6410" r="31.5" style=""/>
<circle cx="7631.14" cy="6410" r="31.5" style=""/>
<circle cx="7831.14" cy="6410" r="31.5" style=""/>
<circle cx="8031.14" cy="6410" r="31.5" style=""/>
<circle cx="8231.14" cy="6410" r="31.5" style=""/>
<circle cx="8431.14" cy="6410" r="31.5" style=""/>
<circle cx="8631.14" cy="6410" r="31.5" style=""/>
<circle cx="8831.14" cy="6410" r="31.5" style=""/>
<circle cx="9031.14" cy="6410" r="31.5" style=""/>
<circle cx="9231.14" cy="6410" r="31.5" style=""/>
<circle cx="9231.14" cy="3710" r="31.5" style=""/>
<circle cx="9231.14" cy="3110" r="31.5" style=""/>
<circle cx="9231.14" cy="2710" r="31.5" style=""/>
<circle cx="9231.14" cy="2110" r="31.5" style=""/>
<circle cx="8631.14" cy="2110" r="31.5" style=""/>
<circle cx="8631.14" cy="1510" r="31.5" style=""/>
<circle cx="8631.14" cy="1310" r="31.5" style=""/>
<circle cx="8631.14" cy="1110" r="31.5" style=""/>
<circle cx="9231.14" cy="1510" r="31.5" style=""/>
<circle cx="9231.14" cy="1310" r="31.5" style=""/>
<circle cx="9231.14" cy="1110" r="31.5" style=""/>
<circle cx="9831.14" cy="1110" r="31.5" style=""/>
<circle cx="9831.14" cy="1310" r="31.5" style=""/>
<circle cx="9831.14" cy="1510" r="31.5" style=""/>
<circle cx="10431.1" cy="1110" r="31.5" style=""/>
<circle cx="10431.1" cy="1310" r="31.5" style=""/>
<circle cx="10431.1" cy="1510" r="31.5" style=""/>
<circle cx="11031.1" cy="1110" r="31.5" style=""/>
<circle cx="11031.1" cy="1310" r="31.5" style=""/>
<circle cx="11031.1" cy="1510" r="31.5" style=""/>
<circle cx="11031.1" cy="2110" r="31.5" style=""/>
<circle cx="10431.1" cy="2710" r="31.5" style=""/>
<circle cx="10431.1" cy="3110" r="31.5" style=""/>
<circle cx="11031.1" cy="3710" r="31.5" style=""/>
<circle cx="10431.1" cy="3710" r="31.5" style=""/>
<circle cx="9831.14" cy="3710" r="31.5" style=""/>
<circle cx="9831.14" cy="3110" r="31.5" style=""/>
<circle cx="9831.14" cy="2710" r="31.5" style=""/>
<circle cx="9831.14" cy="2110" r="31.5" style=""/>
<circle cx="10431.1" cy="2110" r="31.5" style=""/>
<circle cx="11031.1" cy="2710" r="31.5" style=""/>
<circle cx="11031.1" cy="3110" r="31.5" style=""/>
<circle cx="11631.1" cy="3710" r="31.5" style=""/>
<circle cx="12231.1" cy="3710" r="31.5" style=""/>
<circle cx="12231.1" cy="3110" r="31.5" style=""/>
<circle cx="12231.1" cy="2710" r="31.5" style=""/>
<circle cx="11631.1" cy="3110" r="31.5" style=""/>
<circle cx="11631.1" cy="2710" r="31.5" style=""/>
<circle cx="12231.1" cy="2110" r="31.5" style=""/>
<circle cx="11631.1" cy="2110" r="31.5" style=""/>
<circle cx="11631.1" cy="1510" r="31.5" style=""/>
<circle cx="11631.1" cy="1310" r="31.5" style=""/>
<circle cx="11631.1" cy="1110" r="31.5" style=""/>
<circle cx="12231.1" cy="1510" r="31.5" style=""/>
<circle cx="12231.1" cy="1310" r="31.5" style=""/>
<circle cx="12231.1" cy="1110" r="31.5" style=""/>
<circle cx="12531.1" cy="410" r="31.5" style=""/>
<circle cx="12255.7" cy="410" r="31.5" style=""/>
<circle cx="11980.1" cy="410" r="31.5" style=""/>
<circle cx="11704.5" cy="410" r="31.5" style=""/>
<circle cx="11428.9" cy="410" r="31.5" style=""/>
<circle cx="11153.3" cy="410" r="31.5" style=""/>
<circle cx="10877.7" cy="410" r="31.5" style=""/>
<circle cx="10602.1" cy="410" r="31.5" style=""/>
<circle cx="10131.1" cy="410" r="31.5" style=""/>
<circle cx="9855.74" cy="410" r="31.5" style=""/>
<circle cx="9580.14" cy="410" r="31.5" style=""/>
<circle cx="9304.54" cy="410" r="31.5" style=""/>
<circle cx="9028.94" cy="410" r="31.5" style=""/>
<circle cx="8753.34" cy="410" r="31.5" style=""/>
<circle cx="8477.74" cy="410" r="31.5" style=""/>
<circle cx="8202.14" cy="410" r="31.5" style=""/>
<circle cx="7731.14" cy="410" r="31.5" style=""/>
<circle cx="7455.74" cy="410" r="31.5" style=""/>
<circle cx="7180.14" cy="410" r="31.5" style=""/>
<circle cx="6904.54" cy="410" r="31.5" style=""/>
<circle cx="6628.94" cy="410" r="31.5" style=""/>
<circle cx="6353.34" cy="410" r="31.5" style=""/>
<circle cx="6077.74" cy="410" r="31.5" style=""/>
<circle cx="5802.14" cy="410" r="31.5" style=""/>
<circle cx="5331.14" cy="410" r="31.5" style=""/>
<circle cx="5055.74" cy="410" r="31.5" style=""/>
<circle cx="4780.14" cy="410" r="31.5" style=""/>
<circle cx="4504.54" cy="410" r="31.5" style=""/>
<circle cx="4228.94" cy="410" r="31.5" style=""/>
<circle cx="3953.34" cy="410" r="31.5" style=""/>
<circle cx="3677.74" cy="410" r="31.5" style=""/>
<circle cx="3402.14" cy="410" r="31.5" style=""/>
<circle cx="2629.94" cy="410" r="31.5" style=""/>
<circle cx="2354.54" cy="410" r="31.5" style=""/>
<circle cx="1631.14" cy="410" r="31.5" style=""/>
<circle cx="1355.74" cy="410" r="31.5" style=""/>
<circle cx="1631.14" cy="1110" r="31.5" style=""/>
<circle cx="1631.14" cy="1310" r="31.5" style=""/>
<circle cx="1631.14" cy="1510" r="31.5" style=""/>
<circle cx="434.343" cy="3110" r="31.5" style=""/>
<circle cx="434.343" cy="3710" r="31.5" style=""/>
<circle cx="834.343" cy="3710" r="31.5" style=""/>
<circle cx="1233.34" cy="3710" r="31.5" style=""/>
<circle cx="1630.54" cy="3710" r="31.5" style=""/>
<circle cx="834.343" cy="3110" r="31.5" style=""/>
<circle cx="1233.34" cy="3110" r="31.5" style=""/>
<circle cx="1630.54" cy="3110" r="31.5" style=""/>
<circle cx="2231.14" cy="3710" r="31.5" style=""/>
<circle cx="2631.14" cy="3710" r="31.5" style=""/>
<circle cx="2231.14" cy="3110" r="31.5" style=""/>
<circle cx="2631.14" cy="3110" r="31.5" style=""/>
<circle cx="3231.14" cy="3710" r="31.5" style=""/>
<circle cx="3831.14" cy="3110" r="31.5" style=""/>
<circle cx="3831.14" cy="2710" r="31.5" style=""/>
<circle cx="3831.14" cy="2110" r="31.5" style=""/>
<circle cx="4431.14" cy="2110" r="31.5" style=""/>
<circle cx="5031.14" cy="2110" r="31.5" style=""/>
<circle cx="5031.14" cy="2710" r="31.5" style=""/>
<circle cx="4431.14" cy="2710" r="31.5" style=""/>
<circle cx="4431.14" cy="3110" r="31.5" style=""/>
<circle cx="5031.14" cy="3110" r="31.5" style=""/>
<circle cx="5031.14" cy="3710" r="31.5" style=""/>
<circle cx="4431.14" cy="3710" r="31.5" style=""/>
<circle cx="3831.14" cy="3710" r="31.5" style=""/>
<circle cx="3231.14" cy="3110" r="31.5" style=""/>
<circle cx="3231.14" cy="2710" r="31.5" style=""/>
<circle cx="3231.14" cy="2110" r="31.5" style=""/>
<circle cx="2631.14" cy="1510" r="31.5" style=""/>
<circle cx="2631.14" cy="1310" r="31.5" style=""/>
<circle cx="2631.14" cy="1110" r="31.5" style=""/>
<circle cx="3231.14" cy="1510" r="31.5" style=""/>
<circle cx="3231.14" cy="1310" r="31.5" style=""/>
<circle cx="3231.14" cy="1110" r="31.5" style=""/>
<circle cx="3831.14" cy="1510" r="31.5" style=""/>
<circle cx="3831.14" cy="1310" r="31.5" style=""/>
<circle cx="3831.14" cy="1110" r="31.5" style=""/>
<circle cx="4431.14" cy="1510" r="31.5" style=""/>
<circle cx="4431.14" cy="1310" r="31.5" style=""/>
<circle cx="4431.14" cy="1110" r="31.5" style=""/>
<circle cx="5031.14" cy="1510" r="31.5" style=""/>
<circle cx="5031.14" cy="1310" r="31.5" style=""/>
<circle cx="5031.14" cy="1110" r="31.5" style=""/>
<circle cx="5631.14" cy="1510" r="31.5" style=""/>
<circle cx="5631.14" cy="1310" r="31.5" style=""/>
<circle cx="5631.14" cy="1110" r="31.5" style=""/>
<circle cx="6231.14" cy="1510" r="31.5" style=""/>
<circle cx="6231.14" cy="1310" r="31.5" style=""/>
<circle cx="6231.14" cy="1110" r="31.5" style=""/>
<circle cx="6831.14" cy="1510" r="31.5" style=""/>
<circle cx="6831.14" cy="1310" r="31.5" style=""/>
<circle cx="6831.14" cy="1110" r="31.5" style=""/>
<circle cx="7431.14" cy="1510" r="31.5" style=""/>
<circle cx="7431.14" cy="1310" r="31.5" style=""/>
<circle cx="7431.14" cy="1110" r="31.5" style=""/>
<circle cx="8031.14" cy="1110" r="31.5" style=""/>
<circle cx="8031.14" cy="1310" r="31.5" style=""/>
<circle cx="8031.14" cy="1510" r="31.5" style=""/>
<circle cx="8031.14" cy="2110" r="31.5" style=""/>
<circle cx="7431.14" cy="2110" r="31.5" style=""/>
<circle cx="6831.14" cy="2710" r="31.5" style=""/>
<circle cx="6831.14" cy="3110" r="31.5" style=""/>
<circle cx="6231.14" cy="3710" r="31.5" style=""/>
<circle cx="5631.14" cy="3710" r="31.5" style=""/>
<circle cx="6231.14" cy="3110" r="31.5" style=""/>
<circle cx="6231.14" cy="2710" r="31.5" style=""/>
<circle cx="5631.14" cy="3110" r="31.5" style=""/>
<circle cx="5631.14" cy="2710" r="31.5" style=""/>
<circle cx="5631.14" cy="2110" r="31.5" style=""/>
<circle cx="6231.14" cy="2110" r="31.5" style=""/>
<circle cx="6831.14" cy="2110" r="31.5" style=""/>
<circle cx="7431.14" cy="2710" r="31.5" style=""/>
<circle cx="7431.14" cy="3110" r="31.5" style=""/>
<circle cx="8031.14" cy="2710" r="31.5" style=""/>
<circle cx="8631.14" cy="2710" r="31.5" style=""/>
<circle cx="8631.14" cy="3110" r="31.5" style=""/>
<circle cx="8631.14" cy="3710" r="31.5" style=""/>
<circle cx="8031.14" cy="3110" r="31.5" style=""/>
<circle cx="8031.14" cy="3710" r="31.5" style=""/>
<circle cx="7431.14" cy="3710" r="31.5" style=""/>
<circle cx="6831.14" cy="3710" r="31.5" style=""/>
<circle cx="4631.14" cy="6410" r="31.5" style=""/>
<circle cx="4831.14" cy="6410" r="31.5" style=""/>
<circle cx="5031.14" cy="6410" r="31.5" style=""/>
</svg>
