<?xml version="1.0" standalone="no"?>
<!DOCTYPE svg PUBLIC "-//W3C//DTD SVG 1.1//EN"
"http://www.w3.org/Graphics/SVG/1.1/DTD/svg11.dtd">
<svg width="608.407" height="381.312" viewBox="0 0 12675.1 7944" version="1.1"
xmlns="http://www.w3.org/2000/svg"
xmlns:xlink="http://www.w3.org/1999/xlink">
<circle cx="9243.14" cy="7622" r="31.5" style=""/>
<circle cx="9043.14" cy="7622" r="31.5" style=""/>
<circle cx="8843.14" cy="7622" r="31.5" style=""/>
<circle cx="8643.14" cy="7622" r="31.5" style=""/>
<circle cx="8443.14" cy="7622" r="31.5" style=""/>
<circle cx="8243.14" cy="7622" r="31.5" style=""/>
<circle cx="8043.14" cy="7622" r="31.5" style=""/>
<circle cx="7843.14" cy="7622" r="31.5" style=""/>
<circle cx="7643.14" cy="7622" r="31.5" style=""/>
<circle cx="7443.14" cy="7622" r="31.5" style=""/>
<circle cx="7243.14" cy="7622" r="31.5" style=""/>
<circle cx="7043.14" cy="7622" r="31.5" style=""/>
<circle cx="6843.14" cy="7622" r="31.5" style=""/>
<circle cx="6643.14" cy="7622" r="31.5" style=""/>
<circle cx="6443.14" cy="7622" r="31.5" style=""/>
<circle cx="6243.14" cy="7622" r="31.5" style=""/>
<circle cx="6043.14" cy="7622" r="31.5" style=""/>
<circle cx="5843.14" cy="7622" r="31.5" style=""/>
<circle cx="5643.14" cy="7622" r="31.5" style=""/>
<circle cx="5443.14" cy="7622" r="31.5" style=""/>
<circle cx="5243.14" cy="7622" r="31.5" style=""/>
<circle cx="5043.14" cy="7622" r="31.5" style=""/>
<circle cx="4843.14" cy="7622" r="31.5" style=""/>
<circle cx="4643.14" cy="7622" r="31.5" style=""/>
<circle cx="5643.14" cy="6622" r="31.5" style=""/>
<circle cx="5443.14" cy="6622" r="31.5" style=""/>
<circle cx="4643.14" cy="6422" r="31.5" style=""/>
<circle cx="4843.14" cy="6422" r="31.5" style=""/>
<circle cx="5043.14" cy="6422" r="31.5" style=""/>
<circle cx="5243.14" cy="6422" r="31.5" style=""/>
<circle cx="5443.14" cy="6422" r="31.5" style=""/>
<circle cx="5643.14" cy="6422" r="31.5" style=""/>
<circle cx="5843.14" cy="6422" r="31.5" style=""/>
<circle cx="6043.14" cy="6422" r="31.5" style=""/>
<circle cx="6243.14" cy="6422" r="31.5" style=""/>
<circle cx="6443.14" cy="6422" r="31.5" style=""/>
<circle cx="6643.14" cy="6422" r="31.5" style=""/>
<circle cx="6843.14" cy="6422" r="31.5" style=""/>
<circle cx="7043.14" cy="6422" r="31.5" style=""/>
<circle cx="7243.14" cy="6422" r="31.5" style=""/>
<circle cx="7443.14" cy="6422" r="31.5" style=""/>
<circle cx="7643.14" cy="6422" r="31.5" style=""/>
<circle cx="7843.14" cy="6422" r="31.5" style=""/>
<circle cx="8043.14" cy="6422" r="31.5" style=""/>
<circle cx="8243.14" cy="6422" r="31.5" style=""/>
<circle cx="8443.14" cy="6422" r="31.5" style=""/>
<circle cx="8643.14" cy="6422" r="31.5" style=""/>
<circle cx="8843.14" cy="6422" r="31.5" style=""/>
<circle cx="9043.14" cy="6422" r="31.5" style=""/>
<circle cx="9243.14" cy="6422" r="31.5" style=""/>
<circle cx="9843.14" cy="3722" r="31.5" style=""/>
<circle cx="9243.14" cy="3722" r="31.5" style=""/>
<circle cx="8643.14" cy="3722" r="31.5" style=""/>
<circle cx="8043.14" cy="3722" r="31.5" style=""/>
<circle cx="7443.14" cy="3722" r="31.5" style=""/>
<circle cx="8043.14" cy="3122" r="31.5" style=""/>
<circle cx="8043.14" cy="2722" r="31.5" style=""/>
<circle cx="7443.14" cy="2122" r="31.5" style=""/>
<circle cx="8043.14" cy="2122" r="31.5" style=""/>
<circle cx="8043.14" cy="1522" r="31.5" style=""/>
<circle cx="8043.14" cy="1322" r="31.5" style=""/>
<circle cx="8043.14" cy="1122" r="31.5" style=""/>
<circle cx="7443.14" cy="1122" r="31.5" style=""/>
<circle cx="7443.14" cy="1322" r="31.5" style=""/>
<circle cx="7443.14" cy="1522" r="31.5" style=""/>
<circle cx="6843.14" cy="1122" r="31.5" style=""/>
<circle cx="6843.14" cy="1322" r="31.5" style=""/>
<circle cx="6843.14" cy="1522" r="31.5" style=""/>
<circle cx="6243.14" cy="1122" r="31.5" style=""/>
<circle cx="6243.14" cy="1322" r="31.5" style=""/>
<circle cx="6243.14" cy="1522" r="31.5" style=""/>
<circle cx="5643.14" cy="1122" r="31.5" style=""/>
<circle cx="5643.14" cy="1322" r="31.5" style=""/>
<circle cx="5643.14" cy="1522" r="31.5" style=""/>
<circle cx="5643.14" cy="2122" r="31.5" style=""/>
<circle cx="6243.14" cy="2122" r="31.5" style=""/>
<circle cx="6843.14" cy="2722" r="31.5" style=""/>
<circle cx="6843.14" cy="3122" r="31.5" style=""/>
<circle cx="6843.14" cy="3722" r="31.5" style=""/>
<circle cx="7443.14" cy="3122" r="31.5" style=""/>
<circle cx="7443.14" cy="2722" r="31.5" style=""/>
<circle cx="6843.14" cy="2122" r="31.5" style=""/>
<circle cx="6243.14" cy="2722" r="31.5" style=""/>
<circle cx="5643.14" cy="2722" r="31.5" style=""/>
<circle cx="5643.14" cy="3122" r="31.5" style=""/>
<circle cx="6243.14" cy="3722" r="31.5" style=""/>
<circle cx="6243.14" cy="3122" r="31.5" style=""/>
<circle cx="5643.14" cy="3722" r="31.5" style=""/>
<circle cx="5043.14" cy="3722" r="31.5" style=""/>
<circle cx="4443.14" cy="3722" r="31.5" style=""/>
<circle cx="3843.14" cy="3722" r="31.5" style=""/>
<circle cx="3243.14" cy="3122" r="31.5" style=""/>
<circle cx="3243.14" cy="2722" r="31.5" style=""/>
<circle cx="3243.14" cy="2122" r="31.5" style=""/>
<circle cx="3243.14" cy="1522" r="31.5" style=""/>
<circle cx="3243.14" cy="1322" r="31.5" style=""/>
<circle cx="3243.14" cy="1122" r="31.5" style=""/>
<circle cx="2643.14" cy="1322" r="31.5" style=""/>
<circle cx="2643.14" cy="1122" r="31.5" style=""/>
<circle cx="2641.94" cy="422" r="31.5" style=""/>
<circle cx="2366.54" cy="422" r="31.5" style=""/>
<circle cx="1643.14" cy="422" r="31.5" style=""/>
<circle cx="1367.74" cy="422" r="31.5" style=""/>
<circle cx="1643.14" cy="1122" r="31.5" style=""/>
<circle cx="1643.14" cy="1322" r="31.5" style=""/>
<circle cx="1643.14" cy="1522" r="31.5" style=""/>
<circle cx="2643.14" cy="1522" r="31.5" style=""/>
<circle cx="1642.54" cy="3122" r="31.5" style=""/>
<circle cx="1245.34" cy="3122" r="31.5" style=""/>
<circle cx="846.343" cy="3122" r="31.5" style=""/>
<circle cx="446.343" cy="3122" r="31.5" style=""/>
<circle cx="446.343" cy="3722" r="31.5" style=""/>
<circle cx="846.343" cy="3722" r="31.5" style=""/>
<circle cx="1245.34" cy="3722" r="31.5" style=""/>
<circle cx="1642.54" cy="3722" r="31.5" style=""/>
<circle cx="2243.14" cy="3722" r="31.5" style=""/>
<circle cx="2243.14" cy="3122" r="31.5" style=""/>
<circle cx="2643.14" cy="3122" r="31.5" style=""/>
<circle cx="2643.14" cy="3722" r="31.5" style=""/>
<circle cx="3243.14" cy="3722" r="31.5" style=""/>
<circle cx="3843.14" cy="3122" r="31.5" style=""/>
<circle cx="3843.14" cy="2722" r="31.5" style=""/>
<circle cx="3843.14" cy="2122" r="31.5" style=""/>
<circle cx="4443.14" cy="2122" r="31.5" style=""/>
<circle cx="4443.14" cy="2722" r="31.5" style=""/>
<circle cx="4443.14" cy="3122" r="31.5" style=""/>
<circle cx="5043.14" cy="3122" r="31.5" style=""/>
<circle cx="5043.14" cy="2722" r="31.5" style=""/>
<circle cx="5043.14" cy="2122" r="31.5" style=""/>
<circle cx="5043.14" cy="1522" r="31.5" style=""/>
<circle cx="5043.14" cy="1322" r="31.5" style=""/>
<circle cx="5043.14" cy="1122" r="31.5" style=""/>
<circle cx="4443.14" cy="1522" r="31.5" style=""/>
<circle cx="4443.14" cy="1322" r="31.5" style=""/>
<circle cx="4443.14" cy="1122" r="31.5" style=""/>
<circle cx="3843.14" cy="1522" r="31.5" style=""/>
<circle cx="3843.14" cy="1322" r="31.5" style=""/>
<circle cx="3843.14" cy="1122" r="31.5" style=""/>
<circle cx="3414.14" cy="422" r="31.5" style=""/>
<circle cx="3689.74" cy="422" r="31.5" style=""/>
<circle cx="3965.34" cy="422" r="31.5" style=""/>
<circle cx="4240.94" cy="422" r="31.5" style=""/>
<circle cx="4516.54" cy="422" r="31.5" style=""/>
<circle cx="4792.14" cy="422" r="31.5" style=""/>
<circle cx="5067.74" cy="422" r="31.5" style=""/>
<circle cx="5343.14" cy="422" r="31.5" style=""/>
<circle cx="5814.14" cy="422" r="31.5" style=""/>
<circle cx="6089.74" cy="422" r="31.5" style=""/>
<circle cx="6365.34" cy="422" r="31.5" style=""/>
<circle cx="6640.94" cy="422" r="31.5" style=""/>
<circle cx="6916.54" cy="422" r="31.5" style=""/>
<circle cx="7192.14" cy="422" r="31.5" style=""/>
<circle cx="7467.74" cy="422" r="31.5" style=""/>
<circle cx="7743.14" cy="422" r="31.5" style=""/>
<circle cx="8214.14" cy="422" r="31.5" style=""/>
<circle cx="8489.74" cy="422" r="31.5" style=""/>
<circle cx="8765.34" cy="422" r="31.5" style=""/>
<circle cx="9040.94" cy="422" r="31.5" style=""/>
<circle cx="9316.54" cy="422" r="31.5" style=""/>
<circle cx="8643.14" cy="1122" r="31.5" style=""/>
<circle cx="8643.14" cy="1322" r="31.5" style=""/>
<circle cx="8643.14" cy="1522" r="31.5" style=""/>
<circle cx="9243.14" cy="1522" r="31.5" style=""/>
<circle cx="9243.14" cy="1322" r="31.5" style=""/>
<circle cx="9243.14" cy="1122" r="31.5" style=""/>
<circle cx="9592.14" cy="422" r="31.5" style=""/>
<circle cx="9867.74" cy="422" r="31.5" style=""/>
<circle cx="10143.1" cy="422" r="31.5" style=""/>
<circle cx="10614.1" cy="422" r="31.5" style=""/>
<circle cx="10889.7" cy="422" r="31.5" style=""/>
<circle cx="11165.3" cy="422" r="31.5" style=""/>
<circle cx="11440.9" cy="422" r="31.5" style=""/>
<circle cx="11716.5" cy="422" r="31.5" style=""/>
<circle cx="11992.1" cy="422" r="31.5" style=""/>
<circle cx="12267.7" cy="422" r="31.5" style=""/>
<circle cx="12543.1" cy="422" r="31.5" style=""/>
<circle cx="12243.1" cy="1122" r="31.5" style=""/>
<circle cx="12243.1" cy="1322" r="31.5" style=""/>
<circle cx="12243.1" cy="1522" r="31.5" style=""/>
<circle cx="11643.1" cy="1122" r="31.5" style=""/>
<circle cx="11643.1" cy="1322" r="31.5" style=""/>
<circle cx="11643.1" cy="1522" r="31.5" style=""/>
<circle cx="11643.1" cy="2122" r="31.5" style=""/>
<circle cx="12243.1" cy="2122" r="31.5" style=""/>
<circle cx="11643.1" cy="2722" r="31.5" style=""/>
<circle cx="12243.1" cy="2722" r="31.5" style=""/>
<circle cx="12243.1" cy="3122" r="31.5" style=""/>
<circle cx="12243.1" cy="3722" r="31.5" style=""/>
<circle cx="11643.1" cy="3722" r="31.5" style=""/>
<circle cx="11643.1" cy="3122" r="31.5" style=""/>
<circle cx="11043.1" cy="2722" r="31.5" style=""/>
<circle cx="11043.1" cy="3122" r="31.5" style=""/>
<circle cx="11043.1" cy="3722" r="31.5" style=""/>
<circle cx="10443.1" cy="3722" r="31.5" style=""/>
<circle cx="10443.1" cy="3122" r="31.5" style=""/>
<circle cx="10443.1" cy="2722" r="31.5" style=""/>
<circle cx="9843.14" cy="2122" r="31.5" style=""/>
<circle cx="9843.14" cy="2722" r="31.5" style=""/>
<circle cx="9843.14" cy="3122" r="31.5" style=""/>
<circle cx="9243.14" cy="3122" r="31.5" style=""/>
<circle cx="8643.14" cy="3122" r="31.5" style=""/>
<circle cx="8643.14" cy="2722" r="31.5" style=""/>
<circle cx="8643.14" cy="2122" r="31.5" style=""/>
<circle cx="9243.14" cy="2722" r="31.5" style=""/>
<circle cx="9243.14" cy="2122" r="31.5" style=""/>
<circle cx="9843.14" cy="1522" r="31.5" style=""/>
<circle cx="9843.14" cy="1322" r="31.5" style=""/>
<circle cx="9843.14" cy="1122" r="31.5" style=""/>
<circle cx="10443.1" cy="1122" r="31.5" style=""/>
<circle cx="10443.1" cy="1322" r="31.5" style=""/>
<circle cx="10443.1" cy="1522" r="31.5" style=""/>
<circle cx="11043.1" cy="1122" r="31.5" style=""/>
<circle cx="11043.1" cy="1322" r="31.5" style=""/>
<circle cx="11043.1" cy="1522" r="31.5" style=""/>
<circle cx="11043.1" cy="2122" r="31.5" style=""/>
<circle cx="10443.1" cy="2122" r="31.5" style=""/>
</svg>
