<?xml version="1.0" standalone="no"?>
<!DOCTYPE svg PUBLIC "-//W3C//DTD SVG 1.1//EN"
"http://www.w3.org/Graphics/SVG/1.1/DTD/svg11.dtd">
<svg width="402.216" height="153.192" viewBox="0 0 8379.5 3191.5" version="1.1"
xmlns="http://www.w3.org/2000/svg"
xmlns:xlink="http://www.w3.org/1999/xlink">
<g fill-rule="evenodd"><path d="M 3552.74,2709.53 L 3551.36,2722.62 L 3547.29,2735.15 L 3540.71,2746.55 L 3531.9,2756.34 L 3521.24,2764.08 L 3509.21,2769.44 L 3496.33,2772.17 L 3483.16,2772.17 L 3470.28,2769.44 L 3458.25,2764.08 L 3447.6,2756.34 L 3438.79,2746.55 L 3432.2,2735.15 L 3428.13,2722.62 L 3426.76,2709.53 L 3428.13,2696.43 L 3432.2,2683.91 L 3438.79,2672.5 L 3447.6,2662.72 L 3458.25,2654.97 L 3470.28,2649.62 L 3483.16,2646.88 L 3496.33,2646.88 L 3509.21,2649.62 L 3521.24,2654.97 L 3531.9,2662.72 L 3540.71,2672.5 L 3547.29,2683.91 L 3551.36,2696.43 L 3552.74,2709.53 z " style="fill-opacity:1.000000;fill:rgb(103,198,105);stroke:rgb(0,0,0);stroke-width:2"/></g>
<g fill-rule="evenodd"><path d="M 3352.74,2709.53 L 3351.36,2722.62 L 3347.29,2735.15 L 3340.71,2746.55 L 3331.9,2756.34 L 3321.24,2764.08 L 3309.21,2769.44 L 3296.33,2772.17 L 3283.16,2772.17 L 3270.28,2769.44 L 3258.25,2764.08 L 3247.6,2756.34 L 3238.79,2746.55 L 3232.2,2735.15 L 3228.13,2722.62 L 3226.76,2709.53 L 3228.13,2696.43 L 3232.2,2683.91 L 3238.79,2672.5 L 3247.6,2662.72 L 3258.25,2654.97 L 3270.28,2649.62 L 3283.16,2646.88 L 3296.33,2646.88 L 3309.21,2649.62 L 3321.24,2654.97 L 3331.9,2662.72 L 3340.71,2672.5 L 3347.29,2683.91 L 3351.36,2696.43 L 3352.74,2709.53 z " style="fill-opacity:1.000000;fill:rgb(115,81,255);stroke:rgb(0,0,0);stroke-width:2"/></g>
<g fill-rule="evenodd"><path d="M 3152.74,2709.53 L 3151.36,2722.62 L 3147.29,2735.15 L 3140.71,2746.55 L 3131.9,2756.34 L 3121.24,2764.08 L 3109.21,2769.44 L 3096.33,2772.17 L 3083.16,2772.17 L 3070.28,2769.44 L 3058.25,2764.08 L 3047.6,2756.34 L 3038.79,2746.55 L 3032.2,2735.15 L 3028.13,2722.62 L 3026.76,2709.53 L 3028.13,2696.43 L 3032.2,2683.91 L 3038.79,2672.5 L 3047.6,2662.72 L 3058.25,2654.97 L 3070.28,2649.62 L 3083.16,2646.88 L 3096.33,2646.88 L 3109.21,2649.62 L 3121.24,2654.97 L 3131.9,2662.72 L 3140.71,2672.5 L 3147.29,2683.91 L 3151.36,2696.43 L 3152.74,2709.53 z " style="fill-opacity:1.000000;fill:rgb(74,236,41);stroke:rgb(0,0,0);stroke-width:2"/></g>
<g fill-rule="evenodd"><path d="M 2952.74,2709.53 L 2951.36,2722.62 L 2947.29,2735.15 L 2940.71,2746.55 L 2931.9,2756.34 L 2921.24,2764.08 L 2909.21,2769.44 L 2896.33,2772.17 L 2883.16,2772.17 L 2870.28,2769.44 L 2858.25,2764.08 L 2847.6,2756.34 L 2838.79,2746.55 L 2832.2,2735.15 L 2828.13,2722.62 L 2826.76,2709.53 L 2828.13,2696.43 L 2832.2,2683.91 L 2838.79,2672.5 L 2847.6,2662.72 L 2858.25,2654.97 L 2870.28,2649.62 L 2883.16,2646.88 L 2896.33,2646.88 L 2909.21,2649.62 L 2921.24,2654.97 L 2931.9,2662.72 L 2940.71,2672.5 L 2947.29,2683.91 L 2951.36,2696.43 L 2952.74,2709.53 z " style="fill-opacity:1.000000;fill:rgb(205,186,171);stroke:rgb(0,0,0);stroke-width:2"/></g>
<g fill-rule="evenodd"><path d="M 2752.74,2709.53 L 2751.36,2722.62 L 2747.29,2735.15 L 2740.71,2746.55 L 2731.9,2756.34 L 2721.24,2764.08 L 2709.21,2769.44 L 2696.33,2772.17 L 2683.16,2772.17 L 2670.28,2769.44 L 2658.25,2764.08 L 2647.6,2756.34 L 2638.79,2746.55 L 2632.2,2735.15 L 2628.13,2722.62 L 2626.76,2709.53 L 2628.13,2696.43 L 2632.2,2683.91 L 2638.79,2672.5 L 2647.6,2662.72 L 2658.25,2654.97 L 2670.28,2649.62 L 2683.16,2646.88 L 2696.33,2646.88 L 2709.21,2649.62 L 2721.24,2654.97 L 2731.9,2662.72 L 2740.71,2672.5 L 2747.29,2683.91 L 2751.36,2696.43 L 2752.74,2709.53 z " style="fill-opacity:1.000000;fill:rgb(242,251,227);stroke:rgb(0,0,0);stroke-width:2"/></g>
<g fill-rule="evenodd"><path d="M 2852.74,1945.75 L 2851.36,1958.84 L 2847.29,1971.37 L 2840.71,1982.77 L 2831.9,1992.56 L 2821.24,2000.3 L 2809.21,2005.66 L 2796.33,2008.4 L 2783.16,2008.4 L 2770.28,2005.66 L 2758.25,2000.3 L 2747.6,1992.56 L 2738.79,1982.77 L 2732.2,1971.37 L 2728.13,1958.84 L 2726.76,1945.75 L 2728.13,1932.65 L 2732.2,1920.13 L 2738.79,1908.72 L 2747.6,1898.94 L 2758.25,1891.2 L 2770.28,1885.84 L 2783.16,1883.1 L 2796.33,1883.1 L 2809.21,1885.84 L 2821.24,1891.2 L 2831.9,1898.94 L 2840.71,1908.72 L 2847.29,1920.13 L 2851.36,1932.65 L 2852.74,1945.75 z " style="fill-opacity:1.000000;fill:rgb(70,124,194);stroke:rgb(0,0,0);stroke-width:2"/></g>
<g fill-rule="evenodd"><path d="M 2452.74,1945.75 L 2451.36,1958.84 L 2447.29,1971.37 L 2440.71,1982.77 L 2431.9,1992.56 L 2421.24,2000.3 L 2409.21,2005.66 L 2396.33,2008.4 L 2383.16,2008.4 L 2370.28,2005.66 L 2358.25,2000.3 L 2347.6,1992.56 L 2338.79,1982.77 L 2332.2,1971.37 L 2328.13,1958.84 L 2326.76,1945.75 L 2328.13,1932.65 L 2332.2,1920.13 L 2338.79,1908.72 L 2347.6,1898.94 L 2358.25,1891.2 L 2370.28,1885.84 L 2383.16,1883.1 L 2396.33,1883.1 L 2409.21,1885.84 L 2421.24,1891.2 L 2431.9,1898.94 L 2440.71,1908.72 L 2447.29,1920.13 L 2451.36,1932.65 L 2452.74,1945.75 z " style="fill-opacity:1.000000;fill:rgb(84,248,27);stroke:rgb(0,0,0);stroke-width:2"/></g>
<g fill-rule="evenodd"><path d="M 2252.74,1745.75 L 2251.36,1758.84 L 2247.29,1771.37 L 2240.71,1782.77 L 2231.9,1792.56 L 2221.24,1800.3 L 2209.21,1805.66 L 2196.33,1808.4 L 2183.16,1808.4 L 2170.28,1805.66 L 2158.25,1800.3 L 2147.6,1792.56 L 2138.79,1782.77 L 2132.2,1771.37 L 2128.13,1758.84 L 2126.76,1745.75 L 2128.13,1732.65 L 2132.2,1720.13 L 2138.79,1708.72 L 2147.6,1698.94 L 2158.25,1691.2 L 2170.28,1685.84 L 2183.16,1683.1 L 2196.33,1683.1 L 2209.21,1685.84 L 2221.24,1691.2 L 2231.9,1698.94 L 2240.71,1708.72 L 2247.29,1720.13 L 2251.36,1732.65 L 2252.74,1745.75 z " style="fill-opacity:1.000000;fill:rgb(232,231,141);stroke:rgb(0,0,0);stroke-width:2"/></g>
<g fill-rule="evenodd"><path d="M 2452.74,1745.75 L 2451.36,1758.84 L 2447.29,1771.37 L 2440.71,1782.77 L 2431.9,1792.56 L 2421.24,1800.3 L 2409.21,1805.66 L 2396.33,1808.4 L 2383.16,1808.4 L 2370.28,1805.66 L 2358.25,1800.3 L 2347.6,1792.56 L 2338.79,1782.77 L 2332.2,1771.37 L 2328.13,1758.84 L 2326.76,1745.75 L 2328.13,1732.65 L 2332.2,1720.13 L 2338.79,1708.72 L 2347.6,1698.94 L 2358.25,1691.2 L 2370.28,1685.84 L 2383.16,1683.1 L 2396.33,1683.1 L 2409.21,1685.84 L 2421.24,1691.2 L 2431.9,1698.94 L 2440.71,1708.72 L 2447.29,1720.13 L 2451.36,1732.65 L 2452.74,1745.75 z " style="fill-opacity:1.000000;fill:rgb(118,90,46);stroke:rgb(0,0,0);stroke-width:2"/></g>
<g fill-rule="evenodd"><path d="M 2652.74,1745.75 L 2651.36,1758.84 L 2647.29,1771.37 L 2640.71,1782.77 L 2631.9,1792.56 L 2621.24,1800.3 L 2609.21,1805.66 L 2596.33,1808.4 L 2583.16,1808.4 L 2570.28,1805.66 L 2558.25,1800.3 L 2547.6,1792.56 L 2538.79,1782.77 L 2532.2,1771.37 L 2528.13,1758.84 L 2526.76,1745.75 L 2528.13,1732.65 L 2532.2,1720.13 L 2538.79,1708.72 L 2547.6,1698.94 L 2558.25,1691.2 L 2570.28,1685.84 L 2583.16,1683.1 L 2596.33,1683.1 L 2609.21,1685.84 L 2621.24,1691.2 L 2631.9,1698.94 L 2640.71,1708.72 L 2647.29,1720.13 L 2651.36,1732.65 L 2652.74,1745.75 z " style="fill-opacity:1.000000;fill:rgb(99,51,159);stroke:rgb(0,0,0);stroke-width:2"/></g>
<g fill-rule="evenodd"><path d="M 4852.74,1745.75 L 4851.36,1758.84 L 4847.29,1771.37 L 4840.71,1782.77 L 4831.9,1792.56 L 4821.24,1800.3 L 4809.21,1805.66 L 4796.33,1808.4 L 4783.16,1808.4 L 4770.28,1805.66 L 4758.25,1800.3 L 4747.6,1792.56 L 4738.79,1782.77 L 4732.2,1771.37 L 4728.13,1758.84 L 4726.76,1745.75 L 4728.13,1732.65 L 4732.2,1720.13 L 4738.79,1708.72 L 4747.6,1698.94 L 4758.25,1691.2 L 4770.28,1685.84 L 4783.16,1683.1 L 4796.33,1683.1 L 4809.21,1685.84 L 4821.24,1691.2 L 4831.9,1698.94 L 4840.71,1708.72 L 4847.29,1720.13 L 4851.36,1732.65 L 4852.74,1745.75 z " style="fill-opacity:1.000000;fill:rgb(201,154,102);stroke:rgb(0,0,0);stroke-width:2"/></g>
<g fill-rule="evenodd"><path d="M 5052.74,1745.75 L 5051.36,1758.84 L 5047.29,1771.37 L 5040.71,1782.77 L 5031.9,1792.56 L 5021.24,1800.3 L 5009.21,1805.66 L 4996.33,1808.4 L 4983.16,1808.4 L 4970.28,1805.66 L 4958.25,1800.3 L 4947.6,1792.56 L 4938.79,1782.77 L 4932.2,1771.37 L 4928.13,1758.84 L 4926.76,1745.75 L 4928.13,1732.65 L 4932.2,1720.13 L 4938.79,1708.72 L 4947.6,1698.94 L 4958.25,1691.2 L 4970.28,1685.84 L 4983.16,1683.1 L 4996.33,1683.1 L 5009.21,1685.84 L 5021.24,1691.2 L 5031.9,1698.94 L 5040.71,1708.72 L 5047.29,1720.13 L 5051.36,1732.65 L 5052.74,1745.75 z " style="fill-opacity:1.000000;fill:rgb(50,13,183);stroke:rgb(0,0,0);stroke-width:2"/></g>
<g fill-rule="evenodd"><path d="M 2452.74,2945.75 L 2451.36,2958.84 L 2447.29,2971.37 L 2440.71,2982.77 L 2431.9,2992.56 L 2421.24,3000.3 L 2409.21,3005.66 L 2396.33,3008.4 L 2383.16,3008.4 L 2370.28,3005.66 L 2358.25,3000.3 L 2347.6,2992.56 L 2338.79,2982.77 L 2332.2,2971.37 L 2328.13,2958.84 L 2326.76,2945.75 L 2328.13,2932.65 L 2332.2,2920.13 L 2338.79,2908.72 L 2347.6,2898.94 L 2358.25,2891.2 L 2370.28,2885.84 L 2383.16,2883.1 L 2396.33,2883.1 L 2409.21,2885.84 L 2421.24,2891.2 L 2431.9,2898.94 L 2440.71,2908.72 L 2447.29,2920.13 L 2451.36,2932.65 L 2452.74,2945.75 z " style="fill-opacity:1.000000;fill:rgb(49,88,163);stroke:rgb(0,0,0);stroke-width:2"/></g>
<g fill-rule="evenodd"><path d="M 2652.74,2945.75 L 2651.36,2958.84 L 2647.29,2971.37 L 2640.71,2982.77 L 2631.9,2992.56 L 2621.24,3000.3 L 2609.21,3005.66 L 2596.33,3008.4 L 2583.16,3008.4 L 2570.28,3005.66 L 2558.25,3000.3 L 2547.6,2992.56 L 2538.79,2982.77 L 2532.2,2971.37 L 2528.13,2958.84 L 2526.76,2945.75 L 2528.13,2932.65 L 2532.2,2920.13 L 2538.79,2908.72 L 2547.6,2898.94 L 2558.25,2891.2 L 2570.28,2885.84 L 2583.16,2883.1 L 2596.33,2883.1 L 2609.21,2885.84 L 2621.24,2891.2 L 2631.9,2898.94 L 2640.71,2908.72 L 2647.29,2920.13 L 2651.36,2932.65 L 2652.74,2945.75 z " style="fill-opacity:1.000000;fill:rgb(90,37,93);stroke:rgb(0,0,0);stroke-width:2"/></g>
<g fill-rule="evenodd"><path d="M 2852.74,2945.75 L 2851.36,2958.84 L 2847.29,2971.37 L 2840.71,2982.77 L 2831.9,2992.56 L 2821.24,3000.3 L 2809.21,3005.66 L 2796.33,3008.4 L 2783.16,3008.4 L 2770.28,3005.66 L 2758.25,3000.3 L 2747.6,2992.56 L 2738.79,2982.77 L 2732.2,2971.37 L 2728.13,2958.84 L 2726.76,2945.75 L 2728.13,2932.65 L 2732.2,2920.13 L 2738.79,2908.72 L 2747.6,2898.94 L 2758.25,2891.2 L 2770.28,2885.84 L 2783.16,2883.1 L 2796.33,2883.1 L 2809.21,2885.84 L 2821.24,2891.2 L 2831.9,2898.94 L 2840.71,2908.72 L 2847.29,2920.13 L 2851.36,2932.65 L 2852.74,2945.75 z " style="fill-opacity:1.000000;fill:rgb(5,23,88);stroke:rgb(0,0,0);stroke-width:2"/></g>
<g fill-rule="evenodd"><path d="M 3052.74,2945.75 L 3051.36,2958.84 L 3047.29,2971.37 L 3040.71,2982.77 L 3031.9,2992.56 L 3021.24,3000.3 L 3009.21,3005.66 L 2996.33,3008.4 L 2983.16,3008.4 L 2970.28,3005.66 L 2958.25,3000.3 L 2947.6,2992.56 L 2938.79,2982.77 L 2932.2,2971.37 L 2928.13,2958.84 L 2926.76,2945.75 L 2928.13,2932.65 L 2932.2,2920.13 L 2938.79,2908.72 L 2947.6,2898.94 L 2958.25,2891.2 L 2970.28,2885.84 L 2983.16,2883.1 L 2996.33,2883.1 L 3009.21,2885.84 L 3021.24,2891.2 L 3031.9,2898.94 L 3040.71,2908.72 L 3047.29,2920.13 L 3051.36,2932.65 L 3052.74,2945.75 z " style="fill-opacity:1.000000;fill:rgb(233,94,212);stroke:rgb(0,0,0);stroke-width:2"/></g>
<g fill-rule="evenodd"><path d="M 3252.74,2945.75 L 3251.36,2958.84 L 3247.29,2971.37 L 3240.71,2982.77 L 3231.9,2992.56 L 3221.24,3000.3 L 3209.21,3005.66 L 3196.33,3008.4 L 3183.16,3008.4 L 3170.28,3005.66 L 3158.25,3000.3 L 3147.6,2992.56 L 3138.79,2982.77 L 3132.2,2971.37 L 3128.13,2958.84 L 3126.76,2945.75 L 3128.13,2932.65 L 3132.2,2920.13 L 3138.79,2908.72 L 3147.6,2898.94 L 3158.25,2891.2 L 3170.28,2885.84 L 3183.16,2883.1 L 3196.33,2883.1 L 3209.21,2885.84 L 3221.24,2891.2 L 3231.9,2898.94 L 3240.71,2908.72 L 3247.29,2920.13 L 3251.36,2932.65 L 3252.74,2945.75 z " style="fill-opacity:1.000000;fill:rgb(171,178,205);stroke:rgb(0,0,0);stroke-width:2"/></g>
<g fill-rule="evenodd"><path d="M 3452.74,2945.75 L 3451.36,2958.84 L 3447.29,2971.37 L 3440.71,2982.77 L 3431.9,2992.56 L 3421.24,3000.3 L 3409.21,3005.66 L 3396.33,3008.4 L 3383.16,3008.4 L 3370.28,3005.66 L 3358.25,3000.3 L 3347.6,2992.56 L 3338.79,2982.77 L 3332.2,2971.37 L 3328.13,2958.84 L 3326.76,2945.75 L 3328.13,2932.65 L 3332.2,2920.13 L 3338.79,2908.72 L 3347.6,2898.94 L 3358.25,2891.2 L 3370.28,2885.84 L 3383.16,2883.1 L 3396.33,2883.1 L 3409.21,2885.84 L 3421.24,2891.2 L 3431.9,2898.94 L 3440.71,2908.72 L 3447.29,2920.13 L 3451.36,2932.65 L 3452.74,2945.75 z " style="fill-opacity:1.000000;fill:rgb(198,155,180);stroke:rgb(0,0,0);stroke-width:2"/></g>
<g fill-rule="evenodd"><path d="M 3652.74,2945.75 L 3651.36,2958.84 L 3647.29,2971.37 L 3640.71,2982.77 L 3631.9,2992.56 L 3621.24,3000.3 L 3609.21,3005.66 L 3596.33,3008.4 L 3583.16,3008.4 L 3570.28,3005.66 L 3558.25,3000.3 L 3547.6,2992.56 L 3538.79,2982.77 L 3532.2,2971.37 L 3528.13,2958.84 L 3526.76,2945.75 L 3528.13,2932.65 L 3532.2,2920.13 L 3538.79,2908.72 L 3547.6,2898.94 L 3558.25,2891.2 L 3570.28,2885.84 L 3583.16,2883.1 L 3596.33,2883.1 L 3609.21,2885.84 L 3621.24,2891.2 L 3631.9,2898.94 L 3640.71,2908.72 L 3647.29,2920.13 L 3651.36,2932.65 L 3652.74,2945.75 z " style="fill-opacity:1.000000;fill:rgb(84,17,14);stroke:rgb(0,0,0);stroke-width:2"/></g>
<g fill-rule="evenodd"><path d="M 3852.74,2945.75 L 3851.36,2958.84 L 3847.29,2971.37 L 3840.71,2982.77 L 3831.9,2992.56 L 3821.24,3000.3 L 3809.21,3005.66 L 3796.33,3008.4 L 3783.16,3008.4 L 3770.28,3005.66 L 3758.25,3000.3 L 3747.6,2992.56 L 3738.79,2982.77 L 3732.2,2971.37 L 3728.13,2958.84 L 3726.76,2945.75 L 3728.13,2932.65 L 3732.2,2920.13 L 3738.79,2908.72 L 3747.6,2898.94 L 3758.25,2891.2 L 3770.28,2885.84 L 3783.16,2883.1 L 3796.33,2883.1 L 3809.21,2885.84 L 3821.24,2891.2 L 3831.9,2898.94 L 3840.71,2908.72 L 3847.29,2920.13 L 3851.36,2932.65 L 3852.74,2945.75 z " style="fill-opacity:1.000000;fill:rgb(130,116,65);stroke:rgb(0,0,0);stroke-width:2"/></g>
<g fill-rule="evenodd"><path d="M 4052.74,2945.75 L 4051.36,2958.84 L 4047.29,2971.37 L 4040.71,2982.77 L 4031.9,2992.56 L 4021.24,3000.3 L 4009.21,3005.66 L 3996.33,3008.4 L 3983.16,3008.4 L 3970.28,3005.66 L 3958.25,3000.3 L 3947.6,2992.56 L 3938.79,2982.77 L 3932.2,2971.37 L 3928.13,2958.84 L 3926.76,2945.75 L 3928.13,2932.65 L 3932.2,2920.13 L 3938.79,2908.72 L 3947.6,2898.94 L 3958.25,2891.2 L 3970.28,2885.84 L 3983.16,2883.1 L 3996.33,2883.1 L 4009.21,2885.84 L 4021.24,2891.2 L 4031.9,2898.94 L 4040.71,2908.72 L 4047.29,2920.13 L 4051.36,2932.65 L 4052.74,2945.75 z " style="fill-opacity:1.000000;fill:rgb(33,61,220);stroke:rgb(0,0,0);stroke-width:2"/></g>
<g fill-rule="evenodd"><path d="M 4252.74,2945.75 L 4251.36,2958.84 L 4247.29,2971.37 L 4240.71,2982.77 L 4231.9,2992.56 L 4221.24,3000.3 L 4209.21,3005.66 L 4196.33,3008.4 L 4183.16,3008.4 L 4170.28,3005.66 L 4158.25,3000.3 L 4147.6,2992.56 L 4138.79,2982.77 L 4132.2,2971.37 L 4128.13,2958.84 L 4126.76,2945.75 L 4128.13,2932.65 L 4132.2,2920.13 L 4138.79,2908.72 L 4147.6,2898.94 L 4158.25,2891.2 L 4170.28,2885.84 L 4183.16,2883.1 L 4196.33,2883.1 L 4209.21,2885.84 L 4221.24,2891.2 L 4231.9,2898.94 L 4240.71,2908.72 L 4247.29,2920.13 L 4251.36,2932.65 L 4252.74,2945.75 z " style="fill-opacity:1.000000;fill:rgb(135,112,233);stroke:rgb(0,0,0);stroke-width:2"/></g>
<g fill-rule="evenodd"><path d="M 4452.74,2945.75 L 4451.36,2958.84 L 4447.29,2971.37 L 4440.71,2982.77 L 4431.9,2992.56 L 4421.24,3000.3 L 4409.21,3005.66 L 4396.33,3008.4 L 4383.16,3008.4 L 4370.28,3005.66 L 4358.25,3000.3 L 4347.6,2992.56 L 4338.79,2982.77 L 4332.2,2971.37 L 4328.13,2958.84 L 4326.76,2945.75 L 4328.13,2932.65 L 4332.2,2920.13 L 4338.79,2908.72 L 4347.6,2898.94 L 4358.25,2891.2 L 4370.28,2885.84 L 4383.16,2883.1 L 4396.33,2883.1 L 4409.21,2885.84 L 4421.24,2891.2 L 4431.9,2898.94 L 4440.71,2908.72 L 4447.29,2920.13 L 4451.36,2932.65 L 4452.74,2945.75 z " style="fill-opacity:1.000000;fill:rgb(62,161,65);stroke:rgb(0,0,0);stroke-width:2"/></g>
<g fill-rule="evenodd"><path d="M 4652.74,2945.75 L 4651.36,2958.84 L 4647.29,2971.37 L 4640.71,2982.77 L 4631.9,2992.56 L 4621.24,3000.3 L 4609.21,3005.66 L 4596.33,3008.4 L 4583.16,3008.4 L 4570.28,3005.66 L 4558.25,3000.3 L 4547.6,2992.56 L 4538.79,2982.77 L 4532.2,2971.37 L 4528.13,2958.84 L 4526.76,2945.75 L 4528.13,2932.65 L 4532.2,2920.13 L 4538.79,2908.72 L 4547.6,2898.94 L 4558.25,2891.2 L 4570.28,2885.84 L 4583.16,2883.1 L 4596.33,2883.1 L 4609.21,2885.84 L 4621.24,2891.2 L 4631.9,2898.94 L 4640.71,2908.72 L 4647.29,2920.13 L 4651.36,2932.65 L 4652.74,2945.75 z " style="fill-opacity:1.000000;fill:rgb(225,252,103);stroke:rgb(0,0,0);stroke-width:2"/></g>
<g fill-rule="evenodd"><path d="M 5452.74,1745.75 L 5451.36,1758.84 L 5447.29,1771.37 L 5440.71,1782.77 L 5431.9,1792.56 L 5421.24,1800.3 L 5409.21,1805.66 L 5396.33,1808.4 L 5383.16,1808.4 L 5370.28,1805.66 L 5358.25,1800.3 L 5347.6,1792.56 L 5338.79,1782.77 L 5332.2,1771.37 L 5328.13,1758.84 L 5326.76,1745.75 L 5328.13,1732.65 L 5332.2,1720.13 L 5338.79,1708.72 L 5347.6,1698.94 L 5358.25,1691.2 L 5370.28,1685.84 L 5383.16,1683.1 L 5396.33,1683.1 L 5409.21,1685.84 L 5421.24,1691.2 L 5431.9,1698.94 L 5440.71,1708.72 L 5447.29,1720.13 L 5451.36,1732.65 L 5452.74,1745.75 z " style="fill-opacity:1.000000;fill:rgb(62,1,126);stroke:rgb(0,0,0);stroke-width:2"/></g>
<g fill-rule="evenodd"><path d="M 6652.74,1745.75 L 6651.36,1758.84 L 6647.29,1771.37 L 6640.71,1782.77 L 6631.9,1792.56 L 6621.24,1800.3 L 6609.21,1805.66 L 6596.33,1808.4 L 6583.16,1808.4 L 6570.28,1805.66 L 6558.25,1800.3 L 6547.6,1792.56 L 6538.79,1782.77 L 6532.2,1771.37 L 6528.13,1758.84 L 6526.76,1745.75 L 6528.13,1732.65 L 6532.2,1720.13 L 6538.79,1708.72 L 6547.6,1698.94 L 6558.25,1691.2 L 6570.28,1685.84 L 6583.16,1683.1 L 6596.33,1683.1 L 6609.21,1685.84 L 6621.24,1691.2 L 6631.9,1698.94 L 6640.71,1708.72 L 6647.29,1720.13 L 6651.36,1732.65 L 6652.74,1745.75 z " style="fill-opacity:1.000000;fill:rgb(151,234,220);stroke:rgb(0,0,0);stroke-width:2"/></g>
<g fill-rule="evenodd"><path d="M 6852.74,1745.75 L 6851.36,1758.84 L 6847.29,1771.37 L 6840.71,1782.77 L 6831.9,1792.56 L 6821.24,1800.3 L 6809.21,1805.66 L 6796.33,1808.4 L 6783.16,1808.4 L 6770.28,1805.66 L 6758.25,1800.3 L 6747.6,1792.56 L 6738.79,1782.77 L 6732.2,1771.37 L 6728.13,1758.84 L 6726.76,1745.75 L 6728.13,1732.65 L 6732.2,1720.13 L 6738.79,1708.72 L 6747.6,1698.94 L 6758.25,1691.2 L 6770.28,1685.84 L 6783.16,1683.1 L 6796.33,1683.1 L 6809.21,1685.84 L 6821.24,1691.2 L 6831.9,1698.94 L 6840.71,1708.72 L 6847.29,1720.13 L 6851.36,1732.65 L 6852.74,1745.75 z " style="fill-opacity:1.000000;fill:rgb(107,150,143);stroke:rgb(0,0,0);stroke-width:2"/></g>
<g fill-rule="evenodd"><path d="M 5852.74,1945.75 L 5851.36,1958.84 L 5847.29,1971.37 L 5840.71,1982.77 L 5831.9,1992.56 L 5821.24,2000.3 L 5809.21,2005.66 L 5796.33,2008.4 L 5783.16,2008.4 L 5770.28,2005.66 L 5758.25,2000.3 L 5747.6,1992.56 L 5738.79,1982.77 L 5732.2,1971.37 L 5728.13,1958.84 L 5726.76,1945.75 L 5728.13,1932.65 L 5732.2,1920.13 L 5738.79,1908.72 L 5747.6,1898.94 L 5758.25,1891.2 L 5770.28,1885.84 L 5783.16,1883.1 L 5796.33,1883.1 L 5809.21,1885.84 L 5821.24,1891.2 L 5831.9,1898.94 L 5840.71,1908.72 L 5847.29,1920.13 L 5851.36,1932.65 L 5852.74,1945.75 z " style="fill-opacity:1.000000;fill:rgb(56,92,42);stroke:rgb(0,0,0);stroke-width:2"/></g>
<g fill-rule="evenodd"><path d="M 5852.74,2145.75 L 5851.36,2158.84 L 5847.29,2171.37 L 5840.71,2182.77 L 5831.9,2192.56 L 5821.24,2200.3 L 5809.21,2205.66 L 5796.33,2208.4 L 5783.16,2208.4 L 5770.28,2205.66 L 5758.25,2200.3 L 5747.6,2192.56 L 5738.79,2182.77 L 5732.2,2171.37 L 5728.13,2158.84 L 5726.76,2145.75 L 5728.13,2132.65 L 5732.2,2120.13 L 5738.79,2108.72 L 5747.6,2098.94 L 5758.25,2091.2 L 5770.28,2085.84 L 5783.16,2083.1 L 5796.33,2083.1 L 5809.21,2085.84 L 5821.24,2091.2 L 5831.9,2098.94 L 5840.71,2108.72 L 5847.29,2120.13 L 5851.36,2132.65 L 5852.74,2145.75 z " style="fill-opacity:1.000000;fill:rgb(236,176,59);stroke:rgb(0,0,0);stroke-width:2"/></g>
<g fill-rule="evenodd"><path d="M 5852.74,2345.75 L 5851.36,2358.84 L 5847.29,2371.37 L 5840.71,2382.77 L 5831.9,2392.56 L 5821.24,2400.3 L 5809.21,2405.66 L 5796.33,2408.4 L 5783.16,2408.4 L 5770.28,2405.66 L 5758.25,2400.3 L 5747.6,2392.56 L 5738.79,2382.77 L 5732.2,2371.37 L 5728.13,2358.84 L 5726.76,2345.75 L 5728.13,2332.65 L 5732.2,2320.13 L 5738.79,2308.72 L 5747.6,2298.94 L 5758.25,2291.2 L 5770.28,2285.84 L 5783.16,2283.1 L 5796.33,2283.1 L 5809.21,2285.84 L 5821.24,2291.2 L 5831.9,2298.94 L 5840.71,2308.72 L 5847.29,2320.13 L 5851.36,2332.65 L 5852.74,2345.75 z " style="fill-opacity:1.000000;fill:rgb(251,50,175);stroke:rgb(0,0,0);stroke-width:2"/></g>
<g fill-rule="evenodd"><path d="M 5852.74,2545.75 L 5851.36,2558.84 L 5847.29,2571.37 L 5840.71,2582.77 L 5831.9,2592.56 L 5821.24,2600.3 L 5809.21,2605.66 L 5796.33,2608.4 L 5783.16,2608.4 L 5770.28,2605.66 L 5758.25,2600.3 L 5747.6,2592.56 L 5738.79,2582.77 L 5732.2,2571.37 L 5728.13,2558.84 L 5726.76,2545.75 L 5728.13,2532.65 L 5732.2,2520.13 L 5738.79,2508.72 L 5747.6,2498.94 L 5758.25,2491.2 L 5770.28,2485.84 L 5783.16,2483.1 L 5796.33,2483.1 L 5809.21,2485.84 L 5821.24,2491.2 L 5831.9,2498.94 L 5840.71,2508.72 L 5847.29,2520.13 L 5851.36,2532.65 L 5852.74,2545.75 z " style="fill-opacity:1.000000;fill:rgb(60,84,236);stroke:rgb(0,0,0);stroke-width:2"/></g>
<g fill-rule="evenodd"><path d="M 5852.74,2745.75 L 5851.36,2758.84 L 5847.29,2771.37 L 5840.71,2782.77 L 5831.9,2792.56 L 5821.24,2800.3 L 5809.21,2805.66 L 5796.33,2808.4 L 5783.16,2808.4 L 5770.28,2805.66 L 5758.25,2800.3 L 5747.6,2792.56 L 5738.79,2782.77 L 5732.2,2771.37 L 5728.13,2758.84 L 5726.76,2745.75 L 5728.13,2732.65 L 5732.2,2720.13 L 5738.79,2708.72 L 5747.6,2698.94 L 5758.25,2691.2 L 5770.28,2685.84 L 5783.16,2683.1 L 5796.33,2683.1 L 5809.21,2685.84 L 5821.24,2691.2 L 5831.9,2698.94 L 5840.71,2708.72 L 5847.29,2720.13 L 5851.36,2732.65 L 5852.74,2745.75 z " style="fill-opacity:1.000000;fill:rgb(24,219,92);stroke:rgb(0,0,0);stroke-width:2"/></g>
<g fill-rule="evenodd"><path d="M 6452.74,2945.75 L 6451.36,2958.84 L 6447.29,2971.37 L 6440.71,2982.77 L 6431.9,2992.56 L 6421.24,3000.3 L 6409.21,3005.66 L 6396.33,3008.4 L 6383.16,3008.4 L 6370.28,3005.66 L 6358.25,3000.3 L 6347.6,2992.56 L 6338.79,2982.77 L 6332.2,2971.37 L 6328.13,2958.84 L 6326.76,2945.75 L 6328.13,2932.65 L 6332.2,2920.13 L 6338.79,2908.72 L 6347.6,2898.94 L 6358.25,2891.2 L 6370.28,2885.84 L 6383.16,2883.1 L 6396.33,2883.1 L 6409.21,2885.84 L 6421.24,2891.2 L 6431.9,2898.94 L 6440.71,2908.72 L 6447.29,2920.13 L 6451.36,2932.65 L 6452.74,2945.75 z " style="fill-opacity:1.000000;fill:rgb(2,26,254);stroke:rgb(0,0,0);stroke-width:2"/></g>
<g fill-rule="evenodd"><path d="M 6252.74,2945.75 L 6251.36,2958.84 L 6247.29,2971.37 L 6240.71,2982.77 L 6231.9,2992.56 L 6221.24,3000.3 L 6209.21,3005.66 L 6196.33,3008.4 L 6183.16,3008.4 L 6170.28,3005.66 L 6158.25,3000.3 L 6147.6,2992.56 L 6138.79,2982.77 L 6132.2,2971.37 L 6128.13,2958.84 L 6126.76,2945.75 L 6128.13,2932.65 L 6132.2,2920.13 L 6138.79,2908.72 L 6147.6,2898.94 L 6158.25,2891.2 L 6170.28,2885.84 L 6183.16,2883.1 L 6196.33,2883.1 L 6209.21,2885.84 L 6221.24,2891.2 L 6231.9,2898.94 L 6240.71,2908.72 L 6247.29,2920.13 L 6251.36,2932.65 L 6252.74,2945.75 z " style="fill-opacity:1.000000;fill:rgb(67,251,250);stroke:rgb(0,0,0);stroke-width:2"/></g>
<g fill-rule="evenodd"><path d="M 4852.74,2945.75 L 4851.36,2958.84 L 4847.29,2971.37 L 4840.71,2982.77 L 4831.9,2992.56 L 4821.24,3000.3 L 4809.21,3005.66 L 4796.33,3008.4 L 4783.16,3008.4 L 4770.28,3005.66 L 4758.25,3000.3 L 4747.6,2992.56 L 4738.79,2982.77 L 4732.2,2971.37 L 4728.13,2958.84 L 4726.76,2945.75 L 4728.13,2932.65 L 4732.2,2920.13 L 4738.79,2908.72 L 4747.6,2898.94 L 4758.25,2891.2 L 4770.28,2885.84 L 4783.16,2883.1 L 4796.33,2883.1 L 4809.21,2885.84 L 4821.24,2891.2 L 4831.9,2898.94 L 4840.71,2908.72 L 4847.29,2920.13 L 4851.36,2932.65 L 4852.74,2945.75 z " style="fill-opacity:1.000000;fill:rgb(170,58,251);stroke:rgb(0,0,0);stroke-width:2"/></g>
<g fill-rule="evenodd"><path d="M 5252.74,2945.75 L 5251.36,2958.84 L 5247.29,2971.37 L 5240.71,2982.77 L 5231.9,2992.56 L 5221.24,3000.3 L 5209.21,3005.66 L 5196.33,3008.4 L 5183.16,3008.4 L 5170.28,3005.66 L 5158.25,3000.3 L 5147.6,2992.56 L 5138.79,2982.77 L 5132.2,2971.37 L 5128.13,2958.84 L 5126.76,2945.75 L 5128.13,2932.65 L 5132.2,2920.13 L 5138.79,2908.72 L 5147.6,2898.94 L 5158.25,2891.2 L 5170.28,2885.84 L 5183.16,2883.1 L 5196.33,2883.1 L 5209.21,2885.84 L 5221.24,2891.2 L 5231.9,2898.94 L 5240.71,2908.72 L 5247.29,2920.13 L 5251.36,2932.65 L 5252.74,2945.75 z " style="fill-opacity:1.000000;fill:rgb(41,209,230);stroke:rgb(0,0,0);stroke-width:2"/></g>
<g fill-rule="evenodd"><path d="M 6052.74,2945.75 L 6051.36,2958.84 L 6047.29,2971.37 L 6040.71,2982.77 L 6031.9,2992.56 L 6021.24,3000.3 L 6009.21,3005.66 L 5996.33,3008.4 L 5983.16,3008.4 L 5970.28,3005.66 L 5958.25,3000.3 L 5947.6,2992.56 L 5938.79,2982.77 L 5932.2,2971.37 L 5928.13,2958.84 L 5926.76,2945.75 L 5928.13,2932.65 L 5932.2,2920.13 L 5938.79,2908.72 L 5947.6,2898.94 L 5958.25,2891.2 L 5970.28,2885.84 L 5983.16,2883.1 L 5996.33,2883.1 L 6009.21,2885.84 L 6021.24,2891.2 L 6031.9,2898.94 L 6040.71,2908.72 L 6047.29,2920.13 L 6051.36,2932.65 L 6052.74,2945.75 z " style="fill-opacity:1.000000;fill:rgb(5,60,124);stroke:rgb(0,0,0);stroke-width:2"/></g>
<g fill-rule="evenodd"><path d="M 5852.74,2945.75 L 5851.36,2958.84 L 5847.29,2971.37 L 5840.71,2982.77 L 5831.9,2992.56 L 5821.24,3000.3 L 5809.21,3005.66 L 5796.33,3008.4 L 5783.16,3008.4 L 5770.28,3005.66 L 5758.25,3000.3 L 5747.6,2992.56 L 5738.79,2982.77 L 5732.2,2971.37 L 5728.13,2958.84 L 5726.76,2945.75 L 5728.13,2932.65 L 5732.2,2920.13 L 5738.79,2908.72 L 5747.6,2898.94 L 5758.25,2891.2 L 5770.28,2885.84 L 5783.16,2883.1 L 5796.33,2883.1 L 5809.21,2885.84 L 5821.24,2891.2 L 5831.9,2898.94 L 5840.71,2908.72 L 5847.29,2920.13 L 5851.36,2932.65 L 5852.74,2945.75 z " style="fill-opacity:1.000000;fill:rgb(148,117,216);stroke:rgb(0,0,0);stroke-width:2"/></g>
<g fill-rule="evenodd"><path d="M 5652.74,2945.75 L 5651.36,2958.84 L 5647.29,2971.37 L 5640.71,2982.77 L 5631.9,2992.56 L 5621.24,3000.3 L 5609.21,3005.66 L 5596.33,3008.4 L 5583.16,3008.4 L 5570.28,3005.66 L 5558.25,3000.3 L 5547.6,2992.56 L 5538.79,2982.77 L 5532.2,2971.37 L 5528.13,2958.84 L 5526.76,2945.75 L 5528.13,2932.65 L 5532.2,2920.13 L 5538.79,2908.72 L 5547.6,2898.94 L 5558.25,2891.2 L 5570.28,2885.84 L 5583.16,2883.1 L 5596.33,2883.1 L 5609.21,2885.84 L 5621.24,2891.2 L 5631.9,2898.94 L 5640.71,2908.72 L 5647.29,2920.13 L 5651.36,2932.65 L 5652.74,2945.75 z " style="fill-opacity:1.000000;fill:rgb(190,97,137);stroke:rgb(0,0,0);stroke-width:2"/></g>
<g fill-rule="evenodd"><path d="M 5452.74,2945.75 L 5451.36,2958.84 L 5447.29,2971.37 L 5440.71,2982.77 L 5431.9,2992.56 L 5421.24,3000.3 L 5409.21,3005.66 L 5396.33,3008.4 L 5383.16,3008.4 L 5370.28,3005.66 L 5358.25,3000.3 L 5347.6,2992.56 L 5338.79,2982.77 L 5332.2,2971.37 L 5328.13,2958.84 L 5326.76,2945.75 L 5328.13,2932.65 L 5332.2,2920.13 L 5338.79,2908.72 L 5347.6,2898.94 L 5358.25,2891.2 L 5370.28,2885.84 L 5383.16,2883.1 L 5396.33,2883.1 L 5409.21,2885.84 L 5421.24,2891.2 L 5431.9,2898.94 L 5440.71,2908.72 L 5447.29,2920.13 L 5451.36,2932.65 L 5452.74,2945.75 z " style="fill-opacity:1.000000;fill:rgb(249,92,187);stroke:rgb(0,0,0);stroke-width:2"/></g>
<g fill-rule="evenodd"><path d="M 3958.56,1172.13 L 4210.96,1424.53 L 4214.69,1429.08 L 4217.46,1434.27 L 4219.17,1439.9 L 4219.75,1445.75 L 4219.75,1690.53 L 4221.24,1691.2 L 4231.9,1698.94 L 4240.71,1708.72 L 4247.29,1720.13 L 4251.36,1732.65 L 4252.74,1745.75 L 4251.36,1758.84 L 4247.29,1771.37 L 4240.71,1782.77 L 4231.9,1792.56 L 4221.24,1800.3 L 4209.21,1805.66 L 4196.33,1808.4 L 4183.16,1808.4 L 4170.28,1805.66 L 4158.25,1800.3 L 4147.6,1792.56 L 4138.79,1782.77 L 4132.2,1771.37 L 4128.13,1758.84 L 4126.76,1745.75 L 4128.13,1732.65 L 4132.2,1720.13 L 4138.79,1708.72 L 4147.6,1698.94 L 4158.25,1691.2 L 4159.75,1690.53 L 4159.75,1458.17 L 3916.13,1214.56 L 3912.62,1216.13 L 3897.48,1219.34 L 3882.01,1219.34 L 3866.88,1216.13 L 3852.75,1209.83 L 3840.23,1200.74 L 3829.88,1189.24 L 3822.15,1175.85 L 3817.37,1161.13 L 3815.75,1145.75 L 3817.37,1130.36 L 3822.15,1115.65 L 3829.88,1102.25 L 3840.23,1090.76 L 3852.75,1081.66 L 3866.88,1075.37 L 3882.01,1072.15 L 3897.48,1072.15 L 3912.62,1075.37 L 3916.13,1076.94 L 4059.75,933.322 L 4059.75,312.951 L 4052.75,309.834 L 4040.23,300.741 L 4029.88,289.244 L 4022.15,275.847 L 4017.37,261.133 L 4015.75,245.748 L 4017.37,230.363 L 4022.15,215.65 L 4029.88,202.252 L 4040.23,190.755 L 4052.75,181.662 L 4066.88,175.37 L 4082.01,172.153 L 4097.48,172.153 L 4112.62,175.37 L 4126.75,181.662 L 4139.26,190.755 L 4149.62,202.252 L 4157.35,215.65 L 4162.13,230.363 L 4163.75,245.748 L 4162.13,261.133 L 4157.35,275.847 L 4149.62,289.244 L 4139.26,300.741 L 4126.75,309.834 L 4119.75,312.95 L 4119.75,945.748 L 4119.17,951.601 L 4117.46,957.229 L 4114.69,962.415 L 4110.96,966.961 L 3958.56,1119.36 L 3962.13,1130.36 L 3963.75,1145.75 L 3962.13,1161.13 L 3958.56,1172.13 z " style="fill-opacity:1.000000;fill:rgb(168,153,15);stroke:rgb(0,0,0);stroke-width:2"/></g>
<g fill-rule="evenodd"><path d="M 116.134,1214.56 L 112.615,1216.13 L 97.4831,1219.34 L 82.0129,1219.34 L 66.8808,1216.13 L 52.748,1209.83 L 40.2324,1200.74 L 29.8808,1189.24 L 22.1457,1175.85 L 17.3651,1161.13 L 15.748,1145.75 L 17.3651,1130.36 L 22.1457,1115.65 L 29.8808,1102.25 L 40.2324,1090.76 L 52.748,1081.66 L 66.8808,1075.37 L 82.0129,1072.15 L 97.4831,1072.15 L 112.615,1075.37 L 126.748,1081.66 L 139.264,1090.76 L 149.615,1102.25 L 157.35,1115.65 L 162.131,1130.36 L 163.748,1145.75 L 162.131,1161.13 L 158.558,1172.13 L 2102.17,3115.75 L 4866.41,3115.75 L 4959.75,3022.41 L 4959.75,3000.97 L 4958.25,3000.3 L 4947.6,2992.56 L 4938.79,2982.77 L 4932.2,2971.37 L 4928.13,2958.84 L 4926.76,2945.75 L 4928.13,2932.65 L 4932.2,2920.13 L 4938.79,2908.72 L 4947.6,2898.94 L 4958.25,2891.2 L 4970.28,2885.84 L 4983.16,2883.1 L 4996.33,2883.1 L 5009.21,2885.84 L 5021.24,2891.2 L 5031.9,2898.94 L 5040.71,2908.72 L 5047.29,2920.13 L 5051.36,2932.65 L 5052.74,2945.75 L 5051.36,2958.84 L 5047.29,2971.37 L 5040.71,2982.77 L 5031.9,2992.56 L 5021.24,3000.3 L 5019.75,3000.97 L 5019.75,3034.83 L 5019.17,3040.68 L 5017.46,3046.31 L 5014.69,3051.5 L 5010.96,3056.05 L 4900.05,3166.96 L 4895.5,3170.69 L 4890.31,3173.46 L 4884.68,3175.17 L 4878.83,3175.75 L 2089.75,3175.75 L 2083.9,3175.17 L 2078.27,3173.46 L 2073.08,3170.69 L 2068.53,3166.96 L 116.134,1214.56 z " style="fill-opacity:1.000000;fill:rgb(149,177,235);stroke:rgb(0,0,0);stroke-width:2"/></g>
<g fill-rule="evenodd"><path d="M 3516.13,1214.56 L 3512.62,1216.13 L 3497.48,1219.34 L 3482.01,1219.34 L 3466.88,1216.13 L 3452.75,1209.83 L 3440.23,1200.74 L 3429.88,1189.24 L 3422.15,1175.85 L 3417.37,1161.13 L 3415.75,1145.75 L 3417.37,1130.36 L 3422.15,1115.65 L 3429.88,1102.25 L 3440.23,1090.76 L 3452.75,1081.66 L 3466.88,1075.37 L 3482.01,1072.15 L 3497.48,1072.15 L 3512.62,1075.37 L 3516.13,1076.94 L 3659.75,933.322 L 3659.75,312.951 L 3652.75,309.834 L 3640.23,300.741 L 3629.88,289.244 L 3622.15,275.847 L 3617.37,261.133 L 3615.75,245.748 L 3617.37,230.363 L 3622.15,215.65 L 3629.88,202.252 L 3640.23,190.755 L 3652.75,181.662 L 3666.88,175.37 L 3682.01,172.153 L 3697.48,172.153 L 3712.62,175.37 L 3726.75,181.662 L 3739.26,190.755 L 3749.62,202.252 L 3757.35,215.65 L 3762.13,230.363 L 3763.75,245.748 L 3762.13,261.133 L 3757.35,275.847 L 3749.62,289.244 L 3739.26,300.741 L 3726.75,309.834 L 3719.75,312.951 L 3719.75,945.748 L 3719.17,951.601 L 3717.46,957.229 L 3714.69,962.415 L 3710.96,966.961 L 3558.56,1119.36 L 3562.13,1130.36 L 3563.75,1145.75 L 3562.13,1161.13 L 3558.56,1172.13 L 4010.96,1624.53 L 4014.69,1629.08 L 4017.46,1634.27 L 4019.17,1639.9 L 4019.75,1645.75 L 4019.75,1690.53 L 4021.24,1691.2 L 4031.9,1698.94 L 4040.71,1708.72 L 4047.29,1720.13 L 4051.36,1732.65 L 4052.74,1745.75 L 4051.36,1758.84 L 4047.29,1771.37 L 4040.71,1782.77 L 4031.9,1792.56 L 4021.24,1800.3 L 4009.21,1805.66 L 3996.33,1808.4 L 3983.16,1808.4 L 3970.28,1805.66 L 3958.25,1800.3 L 3947.6,1792.56 L 3938.79,1782.77 L 3932.2,1771.37 L 3928.13,1758.84 L 3926.76,1745.75 L 3928.13,1732.65 L 3932.2,1720.13 L 3938.79,1708.72 L 3947.6,1698.94 L 3958.25,1691.2 L 3959.75,1690.53 L 3959.75,1658.17 L 3516.13,1214.56 z " style="fill-opacity:1.000000;fill:rgb(241,179,5);stroke:rgb(0,0,0);stroke-width:2"/></g>
<g fill-rule="evenodd"><path d="M 2119.75,312.95 L 2119.75,945.748 L 2119.17,951.601 L 2117.46,957.229 L 2114.69,962.415 L 2110.96,966.961 L 1958.56,1119.36 L 1962.13,1130.36 L 1963.75,1145.75 L 1962.13,1161.13 L 1958.56,1172.13 L 2302.17,1515.75 L 2678.83,1515.75 L 2684.68,1516.32 L 2690.31,1518.03 L 2695.5,1520.8 L 2700.05,1524.53 L 2810.96,1635.45 L 2814.02,1639.03 L 2816.48,1643.04 L 2818.28,1647.39 L 2819.38,1651.97 L 2819.75,1656.66 L 2819.75,1690.53 L 2821.24,1691.2 L 2831.9,1698.94 L 2840.71,1708.72 L 2847.29,1720.13 L 2851.36,1732.65 L 2852.74,1745.75 L 2851.36,1758.84 L 2847.29,1771.37 L 2840.71,1782.77 L 2831.9,1792.56 L 2821.24,1800.3 L 2809.21,1805.66 L 2796.33,1808.4 L 2783.16,1808.4 L 2770.28,1805.66 L 2758.25,1800.3 L 2747.6,1792.56 L 2738.79,1782.77 L 2732.2,1771.37 L 2728.13,1758.84 L 2726.76,1745.75 L 2728.13,1732.65 L 2732.2,1720.13 L 2738.79,1708.72 L 2747.6,1698.94 L 2758.25,1691.2 L 2759.75,1690.53 L 2759.75,1669.09 L 2666.41,1575.75 L 2289.75,1575.75 L 2283.9,1575.17 L 2278.27,1573.46 L 2273.08,1570.69 L 2268.53,1566.96 L 1916.13,1214.56 L 1912.62,1216.13 L 1897.48,1219.34 L 1882.01,1219.34 L 1866.88,1216.13 L 1852.75,1209.83 L 1840.23,1200.74 L 1829.88,1189.24 L 1822.15,1175.85 L 1817.37,1161.13 L 1815.75,1145.75 L 1817.37,1130.36 L 1822.15,1115.65 L 1829.88,1102.25 L 1840.23,1090.76 L 1852.75,1081.66 L 1866.88,1075.37 L 1882.01,1072.15 L 1897.48,1072.15 L 1912.62,1075.37 L 1916.13,1076.94 L 2059.75,933.322 L 2059.75,312.951 L 2052.75,309.834 L 2040.23,300.741 L 2029.88,289.244 L 2022.15,275.847 L 2017.37,261.133 L 2015.75,245.748 L 2017.37,230.363 L 2022.15,215.65 L 2029.88,202.252 L 2040.23,190.755 L 2052.75,181.662 L 2066.88,175.37 L 2082.01,172.153 L 2097.48,172.153 L 2112.62,175.37 L 2126.75,181.662 L 2139.26,190.755 L 2149.62,202.252 L 2157.35,215.65 L 2162.13,230.363 L 2163.75,245.748 L 2162.13,261.133 L 2157.35,275.847 L 2149.62,289.244 L 2139.26,300.741 L 2126.75,309.834 L 2119.75,312.95 z " style="fill-opacity:1.000000;fill:rgb(239,247,0);stroke:rgb(0,0,0);stroke-width:2"/></g>
<g fill-rule="evenodd"><path d="M 2519.75,312.951 L 2519.75,945.748 L 2519.17,951.601 L 2517.46,957.229 L 2514.69,962.415 L 2510.96,966.961 L 2358.56,1119.36 L 2362.13,1130.36 L 2363.75,1145.75 L 2362.13,1161.13 L 2358.56,1172.13 L 2533.13,1346.7 L 2721.02,1346.7 L 2725.71,1347.07 L 2730.29,1348.17 L 2734.64,1349.97 L 2738.65,1352.43 L 2742.23,1355.49 L 2902.49,1515.75 L 3247.04,1515.75 L 3252.89,1516.32 L 3258.52,1518.03 L 3263.71,1520.8 L 3268.26,1524.53 L 3410.96,1667.24 L 3414.02,1670.82 L 3416.48,1674.83 L 3418.28,1679.18 L 3419.38,1683.76 L 3419.75,1690.53 L 3421.24,1691.2 L 3431.9,1698.94 L 3440.71,1708.72 L 3447.29,1720.13 L 3451.36,1732.65 L 3452.74,1745.75 L 3451.36,1758.84 L 3447.29,1771.37 L 3440.71,1782.77 L 3431.9,1792.56 L 3421.24,1800.3 L 3409.21,1805.66 L 3396.33,1808.4 L 3383.16,1808.4 L 3370.28,1805.66 L 3358.25,1800.3 L 3347.6,1792.56 L 3338.79,1782.77 L 3332.2,1771.37 L 3328.13,1758.84 L 3326.76,1745.75 L 3328.13,1732.65 L 3332.2,1720.13 L 3338.79,1708.72 L 3347.6,1698.94 L 3353.51,1694.64 L 3234.62,1575.75 L 2890.06,1575.75 L 2885.37,1575.38 L 2880.79,1574.28 L 2876.44,1572.48 L 2872.43,1570.02 L 2868.85,1566.96 L 2708.59,1406.7 L 2520.7,1406.7 L 2514.85,1406.12 L 2509.22,1404.42 L 2504.03,1401.64 L 2499.49,1397.91 L 2316.13,1214.56 L 2312.62,1216.13 L 2297.48,1219.34 L 2282.01,1219.34 L 2266.88,1216.13 L 2252.75,1209.83 L 2240.23,1200.74 L 2229.88,1189.24 L 2222.15,1175.85 L 2217.37,1161.13 L 2215.75,1145.75 L 2217.37,1130.36 L 2222.15,1115.65 L 2229.88,1102.25 L 2240.23,1090.76 L 2252.75,1081.66 L 2266.88,1075.37 L 2282.01,1072.15 L 2297.48,1072.15 L 2312.62,1075.37 L 2316.13,1076.94 L 2459.75,933.322 L 2459.75,312.951 L 2452.75,309.834 L 2440.23,300.741 L 2429.88,289.244 L 2422.15,275.847 L 2417.37,261.133 L 2415.75,245.748 L 2417.37,230.363 L 2422.15,215.65 L 2429.88,202.252 L 2440.23,190.755 L 2452.75,181.662 L 2466.88,175.37 L 2482.01,172.153 L 2497.48,172.153 L 2512.62,175.37 L 2526.75,181.662 L 2539.26,190.755 L 2549.62,202.252 L 2557.35,215.65 L 2562.13,230.363 L 2563.75,245.748 L 2562.13,261.133 L 2557.35,275.847 L 2549.62,289.244 L 2539.26,300.741 L 2526.75,309.834 L 2519.75,312.951 z " style="fill-opacity:1.000000;fill:rgb(233,161,58);stroke:rgb(0,0,0);stroke-width:2"/></g>
<g fill-rule="evenodd"><path d="M 2919.75,312.951 L 2919.75,945.748 L 2919.17,951.601 L 2917.46,957.229 L 2914.69,962.415 L 2910.96,966.961 L 2758.56,1119.36 L 2762.13,1130.36 L 2763.75,1145.75 L 2762.13,1161.13 L 2758.56,1172.13 L 2919.86,1333.43 L 3264.82,1333.43 L 3270.67,1334.01 L 3276.3,1335.72 L 3281.49,1338.49 L 3286.04,1342.22 L 3610.96,1667.15 L 3614.69,1671.69 L 3617.46,1676.88 L 3619.17,1682.51 L 3619.75,1690.53 L 3621.24,1691.2 L 3631.9,1698.94 L 3640.71,1708.72 L 3647.29,1720.13 L 3651.36,1732.65 L 3652.74,1745.75 L 3651.36,1758.84 L 3647.29,1771.37 L 3640.71,1782.77 L 3631.9,1792.56 L 3621.24,1800.3 L 3609.21,1805.66 L 3596.33,1808.4 L 3583.16,1808.4 L 3570.28,1805.66 L 3558.25,1800.3 L 3547.6,1792.56 L 3538.79,1782.77 L 3532.2,1771.37 L 3528.13,1758.84 L 3526.76,1745.75 L 3528.13,1732.65 L 3532.2,1720.13 L 3538.79,1708.72 L 3547.6,1698.94 L 3553.56,1694.6 L 3252.4,1393.43 L 2907.43,1393.43 L 2901.58,1392.86 L 2895.95,1391.15 L 2890.77,1388.38 L 2886.22,1384.65 L 2716.13,1214.56 L 2712.62,1216.13 L 2697.48,1219.34 L 2682.01,1219.34 L 2666.88,1216.13 L 2652.75,1209.83 L 2640.23,1200.74 L 2629.88,1189.24 L 2622.15,1175.85 L 2617.37,1161.13 L 2615.75,1145.75 L 2617.37,1130.36 L 2622.15,1115.65 L 2629.88,1102.25 L 2640.23,1090.76 L 2652.75,1081.66 L 2666.88,1075.37 L 2682.01,1072.15 L 2697.48,1072.15 L 2712.62,1075.37 L 2716.13,1076.94 L 2859.75,933.322 L 2859.75,312.95 L 2852.75,309.834 L 2840.23,300.741 L 2829.88,289.244 L 2822.15,275.847 L 2817.37,261.133 L 2815.75,245.748 L 2817.37,230.363 L 2822.15,215.65 L 2829.88,202.252 L 2840.23,190.755 L 2852.75,181.662 L 2866.88,175.37 L 2882.01,172.153 L 2897.48,172.153 L 2912.62,175.37 L 2926.75,181.662 L 2939.26,190.755 L 2949.62,202.252 L 2957.35,215.65 L 2962.13,230.363 L 2963.75,245.748 L 2962.13,261.133 L 2957.35,275.847 L 2949.62,289.244 L 2939.26,300.741 L 2926.75,309.834 L 2919.75,312.951 z " style="fill-opacity:1.000000;fill:rgb(229,202,11);stroke:rgb(0,0,0);stroke-width:2"/></g>
<g fill-rule="evenodd"><path d="M 3319.75,312.95 L 3319.75,945.748 L 3319.17,951.601 L 3317.46,957.229 L 3314.69,962.415 L 3310.96,966.961 L 3158.56,1119.36 L 3162.13,1130.36 L 3163.75,1145.75 L 3162.13,1161.13 L 3160.47,1166.26 L 3200.73,1200.3 L 3343.43,1200.3 L 3348.12,1200.67 L 3352.7,1201.77 L 3357.05,1203.57 L 3361.06,1206.03 L 3364.64,1209.09 L 3810.96,1655.41 L 3814.69,1659.96 L 3817.46,1665.15 L 3819.17,1670.78 L 3819.75,1676.63 L 3819.75,1690.53 L 3821.24,1691.2 L 3831.9,1698.94 L 3840.71,1708.72 L 3847.29,1720.13 L 3851.36,1732.65 L 3852.74,1745.75 L 3851.36,1758.84 L 3847.29,1771.37 L 3840.71,1782.77 L 3831.9,1792.56 L 3821.24,1800.3 L 3809.21,1805.66 L 3796.33,1808.4 L 3783.16,1808.4 L 3770.28,1805.66 L 3758.25,1800.3 L 3747.6,1792.56 L 3738.79,1782.77 L 3732.2,1771.37 L 3728.13,1758.84 L 3726.76,1745.75 L 3728.13,1732.65 L 3732.2,1720.13 L 3738.79,1708.72 L 3747.6,1698.94 L 3758.25,1691.2 L 3759.75,1690.53 L 3759.75,1689.05 L 3331,1260.3 L 3189.75,1260.3 L 3184.51,1259.84 L 3179.43,1258.48 L 3174.67,1256.24 L 3170.38,1253.21 L 3121.72,1212.07 L 3112.62,1216.13 L 3097.48,1219.34 L 3082.01,1219.34 L 3066.88,1216.13 L 3052.75,1209.83 L 3040.23,1200.74 L 3029.88,1189.24 L 3022.15,1175.85 L 3017.37,1161.13 L 3015.75,1145.75 L 3017.37,1130.36 L 3022.15,1115.65 L 3029.88,1102.25 L 3040.23,1090.76 L 3052.75,1081.66 L 3066.88,1075.37 L 3082.01,1072.15 L 3097.48,1072.15 L 3112.62,1075.37 L 3116.13,1076.94 L 3259.75,933.322 L 3259.75,312.951 L 3252.75,309.834 L 3240.23,300.741 L 3229.88,289.244 L 3222.15,275.847 L 3217.37,261.133 L 3215.75,245.748 L 3217.37,230.363 L 3222.15,215.65 L 3229.88,202.252 L 3240.23,190.755 L 3252.75,181.662 L 3266.88,175.37 L 3282.01,172.153 L 3297.48,172.153 L 3312.62,175.37 L 3326.75,181.662 L 3339.26,190.755 L 3349.62,202.252 L 3357.35,215.65 L 3362.13,230.363 L 3363.75,245.748 L 3362.13,261.133 L 3357.35,275.847 L 3349.62,289.244 L 3339.26,300.741 L 3326.75,309.834 L 3319.75,312.95 z " style="fill-opacity:1.000000;fill:rgb(203,208,72);stroke:rgb(0,0,0);stroke-width:2"/></g>
<g fill-rule="evenodd"><path d="M 8063.36,1214.56 L 7019.75,2258.17 L 7019.75,3003.04 L 7019.17,3008.89 L 7017.46,3014.52 L 7014.69,3019.71 L 7010.96,3024.26 L 6868.26,3166.96 L 6863.71,3170.69 L 6858.52,3173.46 L 6852.89,3175.17 L 6847.04,3175.75 L 6689.75,3175.75 L 6683.9,3175.17 L 6678.27,3173.46 L 6673.08,3170.69 L 6668.53,3166.96 L 6568.53,3066.96 L 6564.8,3062.42 L 6562.03,3057.23 L 6560.32,3051.6 L 6559.75,3045.75 L 6559.75,3000.97 L 6558.25,3000.3 L 6547.6,2992.56 L 6538.79,2982.77 L 6532.2,2971.37 L 6528.13,2958.84 L 6526.76,2945.75 L 6528.13,2932.65 L 6532.2,2920.13 L 6538.79,2908.72 L 6547.6,2898.94 L 6558.25,2891.2 L 6570.28,2885.84 L 6583.16,2883.1 L 6596.33,2883.1 L 6609.21,2885.84 L 6621.24,2891.2 L 6631.9,2898.94 L 6640.71,2908.72 L 6647.29,2920.13 L 6651.36,2932.65 L 6652.74,2945.75 L 6651.36,2958.84 L 6647.29,2971.37 L 6640.71,2982.77 L 6631.9,2992.56 L 6621.24,3000.3 L 6619.75,3000.97 L 6619.75,3033.32 L 6702.17,3115.75 L 6834.62,3115.75 L 6959.75,2990.62 L 6959.75,2245.75 L 6960.32,2239.9 L 6962.03,2234.27 L 6964.8,2229.08 L 6968.53,2224.53 L 8020.94,1172.13 L 8017.37,1161.13 L 8015.75,1145.75 L 8017.37,1130.36 L 8022.15,1115.65 L 8029.88,1102.25 L 8040.23,1090.76 L 8052.75,1081.66 L 8066.88,1075.37 L 8082.01,1072.15 L 8097.48,1072.15 L 8112.62,1075.37 L 8116.13,1076.94 L 8259.75,933.322 L 8259.75,312.951 L 8252.75,309.834 L 8240.23,300.741 L 8229.88,289.244 L 8222.15,275.847 L 8217.37,261.133 L 8215.75,245.748 L 8217.37,230.363 L 8222.15,215.65 L 8229.88,202.252 L 8240.23,190.755 L 8252.75,181.662 L 8266.88,175.37 L 8282.01,172.153 L 8297.48,172.153 L 8312.62,175.37 L 8326.75,181.662 L 8339.26,190.755 L 8349.62,202.252 L 8357.35,215.65 L 8362.13,230.363 L 8363.75,245.748 L 8362.13,261.133 L 8357.35,275.847 L 8349.62,289.244 L 8339.26,300.741 L 8326.75,309.834 L 8319.75,312.951 L 8319.75,945.748 L 8319.17,951.601 L 8317.46,957.229 L 8314.69,962.415 L 8310.96,966.961 L 8158.56,1119.36 L 8162.13,1130.36 L 8163.75,1145.75 L 8162.13,1161.13 L 8157.35,1175.85 L 8149.62,1189.24 L 8139.26,1200.74 L 8126.75,1209.83 L 8112.62,1216.13 L 8097.48,1219.34 L 8082.01,1219.34 L 8066.88,1216.13 L 8063.36,1214.56 z " style="fill-opacity:1.000000;fill:rgb(71,100,189);stroke:rgb(0,0,0);stroke-width:2"/></g>
<g fill-rule="evenodd"><path d="M 6420.94,1172.13 L 6417.37,1161.13 L 6415.75,1145.75 L 6417.37,1130.36 L 6422.15,1115.65 L 6429.88,1102.25 L 6440.23,1090.76 L 6452.75,1081.66 L 6466.88,1075.37 L 6482.01,1072.15 L 6497.48,1072.15 L 6512.62,1075.37 L 6516.13,1076.94 L 6659.75,933.322 L 6659.75,312.951 L 6652.75,309.834 L 6640.23,300.741 L 6629.88,289.244 L 6622.15,275.847 L 6617.37,261.133 L 6615.75,245.748 L 6617.37,230.363 L 6622.15,215.65 L 6629.88,202.252 L 6640.23,190.755 L 6652.75,181.662 L 6666.88,175.37 L 6682.01,172.153 L 6697.48,172.153 L 6712.62,175.37 L 6726.75,181.662 L 6739.26,190.755 L 6749.62,202.252 L 6757.35,215.65 L 6762.13,230.363 L 6763.75,245.748 L 6762.13,261.133 L 6757.35,275.847 L 6749.62,289.244 L 6739.26,300.741 L 6726.75,309.834 L 6719.75,312.95 L 6719.75,945.748 L 6719.17,951.601 L 6717.46,957.229 L 6714.69,962.415 L 6710.96,966.961 L 6558.56,1119.36 L 6562.13,1130.36 L 6563.75,1145.75 L 6562.13,1161.13 L 6557.35,1175.85 L 6549.62,1189.24 L 6539.26,1200.74 L 6526.75,1209.83 L 6512.62,1216.13 L 6497.48,1219.34 L 6482.01,1219.34 L 6466.88,1216.13 L 6463.36,1214.56 L 6019.75,1658.17 L 6019.75,1690.53 L 6021.24,1691.2 L 6031.9,1698.94 L 6040.71,1708.72 L 6047.29,1720.13 L 6051.36,1732.65 L 6052.74,1745.75 L 6051.36,1758.84 L 6047.29,1771.37 L 6040.71,1782.77 L 6031.9,1792.56 L 6021.24,1800.3 L 6009.21,1805.66 L 5996.33,1808.4 L 5983.16,1808.4 L 5970.28,1805.66 L 5958.25,1800.3 L 5947.6,1792.56 L 5938.79,1782.77 L 5932.2,1771.37 L 5928.13,1758.84 L 5926.76,1745.75 L 5928.13,1732.65 L 5932.2,1720.13 L 5938.79,1708.72 L 5947.6,1698.94 L 5958.25,1691.2 L 5959.75,1690.53 L 5959.75,1645.75 L 5960.32,1639.9 L 5962.03,1634.27 L 5964.8,1629.08 L 5968.53,1624.53 L 6420.94,1172.13 z " style="fill-opacity:1.000000;fill:rgb(31,35,30);stroke:rgb(0,0,0);stroke-width:2"/></g>
<g fill-rule="evenodd"><path d="M 7620.94,1172.13 L 7617.37,1161.13 L 7615.75,1145.75 L 7617.37,1130.36 L 7622.15,1115.65 L 7629.88,1102.25 L 7640.23,1090.76 L 7652.75,1081.66 L 7666.88,1075.37 L 7682.01,1072.15 L 7697.48,1072.15 L 7712.62,1075.37 L 7716.13,1076.94 L 7859.75,933.322 L 7859.75,312.951 L 7852.75,309.834 L 7840.23,300.741 L 7829.88,289.244 L 7822.15,275.847 L 7817.37,261.133 L 7815.75,245.748 L 7817.37,230.363 L 7822.15,215.65 L 7829.88,202.252 L 7840.23,190.755 L 7852.75,181.662 L 7866.88,175.37 L 7882.01,172.153 L 7897.48,172.153 L 7912.62,175.37 L 7926.75,181.662 L 7939.26,190.755 L 7949.62,202.252 L 7957.35,215.65 L 7962.13,230.363 L 7963.75,245.748 L 7962.13,261.133 L 7957.35,275.847 L 7949.62,289.244 L 7939.26,300.741 L 7926.75,309.834 L 7919.75,312.951 L 7919.75,945.748 L 7919.17,951.601 L 7917.46,957.229 L 7914.69,962.415 L 7910.96,966.961 L 7758.56,1119.36 L 7762.13,1130.36 L 7763.75,1145.75 L 7762.13,1161.13 L 7757.35,1175.85 L 7749.62,1189.24 L 7739.26,1200.74 L 7726.75,1209.83 L 7712.62,1216.13 L 7697.48,1219.34 L 7682.01,1219.34 L 7666.88,1216.13 L 7663.36,1214.56 L 6819.75,2058.17 L 6819.75,2890.53 L 6821.24,2891.2 L 6831.9,2898.94 L 6840.71,2908.72 L 6847.29,2920.13 L 6851.36,2932.65 L 6852.74,2945.75 L 6851.36,2958.84 L 6847.29,2971.37 L 6840.71,2982.77 L 6831.9,2992.56 L 6821.24,3000.3 L 6809.21,3005.66 L 6796.33,3008.4 L 6783.16,3008.4 L 6770.28,3005.66 L 6758.25,3000.3 L 6747.6,2992.56 L 6738.79,2982.77 L 6732.2,2971.37 L 6728.13,2958.84 L 6726.76,2945.75 L 6728.13,2932.65 L 6732.2,2920.13 L 6738.79,2908.72 L 6747.6,2898.94 L 6758.25,2891.2 L 6759.75,2890.53 L 6759.75,2045.75 L 6760.32,2039.9 L 6762.03,2034.27 L 6764.8,2029.08 L 6768.53,2024.53 L 7620.94,1172.13 z " style="fill-opacity:1.000000;fill:rgb(168,28,123);stroke:rgb(0,0,0);stroke-width:2"/></g>
<g fill-rule="evenodd"><path d="M 6259.75,312.951 L 6252.75,309.834 L 6240.23,300.741 L 6229.88,289.244 L 6222.15,275.847 L 6217.37,261.133 L 6215.75,245.748 L 6217.37,230.363 L 6222.15,215.65 L 6229.88,202.252 L 6240.23,190.755 L 6252.75,181.662 L 6266.88,175.37 L 6282.01,172.153 L 6297.48,172.153 L 6312.62,175.37 L 6326.75,181.662 L 6339.26,190.755 L 6349.62,202.252 L 6357.35,215.65 L 6362.13,230.363 L 6363.75,245.748 L 6362.13,261.133 L 6357.35,275.847 L 6349.62,289.244 L 6339.26,300.741 L 6326.75,309.834 L 6319.75,312.951 L 6319.75,945.748 L 6319.17,951.601 L 6317.46,957.229 L 6314.69,962.415 L 6310.96,966.961 L 6158.56,1119.36 L 6162.13,1130.36 L 6163.75,1145.75 L 6162.13,1161.13 L 6157.35,1175.85 L 6149.62,1189.24 L 6139.26,1200.74 L 6126.75,1209.83 L 6112.62,1216.13 L 6097.48,1219.34 L 6082.01,1219.34 L 6066.88,1216.13 L 6063.36,1214.56 L 5819.75,1458.17 L 5819.75,1690.53 L 5821.24,1691.2 L 5831.9,1698.94 L 5840.71,1708.72 L 5847.29,1720.13 L 5851.36,1732.65 L 5852.74,1745.75 L 5851.36,1758.84 L 5847.29,1771.37 L 5840.71,1782.77 L 5831.9,1792.56 L 5821.24,1800.3 L 5809.21,1805.66 L 5796.33,1808.4 L 5783.16,1808.4 L 5770.28,1805.66 L 5758.25,1800.3 L 5747.6,1792.56 L 5738.79,1782.77 L 5732.2,1771.37 L 5728.13,1758.84 L 5726.76,1745.75 L 5728.13,1732.65 L 5732.2,1720.13 L 5738.79,1708.72 L 5747.6,1698.94 L 5758.25,1691.2 L 5759.75,1690.53 L 5759.75,1445.75 L 5760.32,1439.9 L 5762.03,1434.27 L 5764.8,1429.08 L 5768.53,1424.53 L 6020.94,1172.13 L 6017.37,1161.13 L 6015.75,1145.75 L 6017.37,1130.36 L 6022.15,1115.65 L 6029.88,1102.25 L 6040.23,1090.76 L 6052.75,1081.66 L 6066.88,1075.37 L 6082.01,1072.15 L 6097.48,1072.15 L 6112.62,1075.37 L 6116.13,1076.94 L 6259.75,933.322 L 6259.75,312.951 z " style="fill-opacity:1.000000;fill:rgb(100,197,20);stroke:rgb(0,0,0);stroke-width:2"/></g>
<g fill-rule="evenodd"><path d="M 4519.75,312.951 L 4519.75,945.748 L 4519.17,951.601 L 4517.46,957.229 L 4514.69,962.415 L 4510.96,966.961 L 4358.56,1119.36 L 4362.13,1130.36 L 4363.75,1145.75 L 4362.13,1161.13 L 4358.56,1172.13 L 4410.96,1224.53 L 4414.69,1229.08 L 4417.46,1234.27 L 4419.17,1239.9 L 4419.75,1245.75 L 4419.75,1690.53 L 4421.24,1691.2 L 4431.9,1698.94 L 4440.71,1708.72 L 4447.29,1720.13 L 4451.36,1732.65 L 4452.74,1745.75 L 4451.36,1758.84 L 4447.29,1771.37 L 4440.71,1782.77 L 4431.9,1792.56 L 4421.24,1800.3 L 4409.21,1805.66 L 4396.33,1808.4 L 4383.16,1808.4 L 4370.28,1805.66 L 4358.25,1800.3 L 4347.6,1792.56 L 4338.79,1782.77 L 4332.2,1771.37 L 4328.13,1758.84 L 4326.76,1745.75 L 4328.13,1732.65 L 4332.2,1720.13 L 4338.79,1708.72 L 4347.6,1698.94 L 4358.25,1691.2 L 4359.75,1690.53 L 4359.75,1258.17 L 4316.13,1214.56 L 4312.62,1216.13 L 4297.48,1219.34 L 4282.01,1219.34 L 4266.88,1216.13 L 4252.75,1209.83 L 4240.23,1200.74 L 4229.88,1189.24 L 4222.15,1175.85 L 4217.37,1161.13 L 4215.75,1145.75 L 4217.37,1130.36 L 4222.15,1115.65 L 4229.88,1102.25 L 4240.23,1090.76 L 4252.75,1081.66 L 4266.88,1075.37 L 4282.01,1072.15 L 4297.48,1072.15 L 4312.62,1075.37 L 4316.13,1076.94 L 4459.75,933.322 L 4459.75,312.951 L 4452.75,309.834 L 4440.23,300.741 L 4429.88,289.244 L 4422.15,275.847 L 4417.37,261.133 L 4415.75,245.748 L 4417.37,230.363 L 4422.15,215.65 L 4429.88,202.252 L 4440.23,190.755 L 4452.75,181.662 L 4466.88,175.37 L 4482.01,172.153 L 4497.48,172.153 L 4512.62,175.37 L 4526.75,181.662 L 4539.26,190.755 L 4549.62,202.252 L 4557.35,215.65 L 4562.13,230.363 L 4563.75,245.748 L 4562.13,261.133 L 4557.35,275.847 L 4549.62,289.244 L 4539.26,300.741 L 4526.75,309.834 L 4519.75,312.951 z " style="fill-opacity:1.000000;fill:rgb(115,90,197);stroke:rgb(0,0,0);stroke-width:2"/></g>
<g fill-rule="evenodd"><path d="M 4919.75,312.951 L 4919.75,945.748 L 4919.17,951.601 L 4917.46,957.229 L 4914.69,962.415 L 4910.96,966.961 L 4758.56,1119.36 L 4762.13,1130.36 L 4763.75,1145.75 L 4762.13,1161.13 L 4757.35,1175.85 L 4749.62,1189.24 L 4739.26,1200.74 L 4726.75,1209.83 L 4712.62,1216.13 L 4697.48,1219.34 L 4682.01,1219.34 L 4666.88,1216.13 L 4663.36,1214.56 L 4619.75,1258.17 L 4619.75,1690.53 L 4621.24,1691.2 L 4631.9,1698.94 L 4640.71,1708.72 L 4647.29,1720.13 L 4651.36,1732.65 L 4652.74,1745.75 L 4651.36,1758.84 L 4647.29,1771.37 L 4640.71,1782.77 L 4631.9,1792.56 L 4621.24,1800.3 L 4609.21,1805.66 L 4596.33,1808.4 L 4583.16,1808.4 L 4570.28,1805.66 L 4558.25,1800.3 L 4547.6,1792.56 L 4538.79,1782.77 L 4532.2,1771.37 L 4528.13,1758.84 L 4526.76,1745.75 L 4528.13,1732.65 L 4532.2,1720.13 L 4538.79,1708.72 L 4547.6,1698.94 L 4558.25,1691.2 L 4559.75,1690.53 L 4559.75,1245.75 L 4560.32,1239.9 L 4562.03,1234.27 L 4564.8,1229.08 L 4568.53,1224.53 L 4620.94,1172.13 L 4617.37,1161.13 L 4615.75,1145.75 L 4617.37,1130.36 L 4622.15,1115.65 L 4629.88,1102.25 L 4640.23,1090.76 L 4652.75,1081.66 L 4666.88,1075.37 L 4682.01,1072.15 L 4697.48,1072.15 L 4712.62,1075.37 L 4716.13,1076.94 L 4859.75,933.322 L 4859.75,312.95 L 4852.75,309.834 L 4840.23,300.741 L 4829.88,289.244 L 4822.15,275.847 L 4817.37,261.133 L 4815.75,245.748 L 4817.37,230.363 L 4822.15,215.65 L 4829.88,202.252 L 4840.23,190.755 L 4852.75,181.662 L 4866.88,175.37 L 4882.01,172.153 L 4897.48,172.153 L 4912.62,175.37 L 4926.75,181.662 L 4939.26,190.755 L 4949.62,202.252 L 4957.35,215.65 L 4962.13,230.363 L 4963.75,245.748 L 4962.13,261.133 L 4957.35,275.847 L 4949.62,289.244 L 4939.26,300.741 L 4926.75,309.834 L 4919.75,312.951 z " style="fill-opacity:1.000000;fill:rgb(94,75,121);stroke:rgb(0,0,0);stroke-width:2"/></g>
<g fill-rule="evenodd"><path d="M 5519.75,312.951 L 5519.75,945.748 L 5519.17,951.601 L 5517.46,957.229 L 5514.69,962.415 L 5510.96,966.961 L 5358.56,1119.36 L 5362.13,1130.36 L 5363.75,1145.75 L 5362.13,1161.13 L 5357.35,1175.85 L 5349.62,1189.24 L 5339.26,1200.74 L 5326.75,1209.83 L 5312.62,1216.13 L 5297.48,1219.34 L 5282.01,1219.34 L 5266.88,1216.13 L 5263.36,1214.56 L 5219.75,1258.17 L 5219.75,1690.53 L 5221.24,1691.2 L 5231.9,1698.94 L 5240.71,1708.72 L 5247.29,1720.13 L 5251.36,1732.65 L 5252.74,1745.75 L 5251.36,1758.84 L 5247.29,1771.37 L 5240.71,1782.77 L 5231.9,1792.56 L 5221.24,1800.3 L 5209.21,1805.66 L 5196.33,1808.4 L 5183.16,1808.4 L 5170.28,1805.66 L 5158.25,1800.3 L 5147.6,1792.56 L 5138.79,1782.77 L 5132.2,1771.37 L 5128.13,1758.84 L 5126.76,1745.75 L 5128.13,1732.65 L 5132.2,1720.13 L 5138.79,1708.72 L 5147.6,1698.94 L 5158.25,1691.2 L 5159.75,1690.53 L 5159.75,1245.75 L 5160.32,1239.9 L 5162.03,1234.27 L 5164.8,1229.08 L 5168.53,1224.53 L 5220.94,1172.13 L 5217.37,1161.13 L 5215.75,1145.75 L 5217.37,1130.36 L 5222.15,1115.65 L 5229.88,1102.25 L 5240.23,1090.76 L 5252.75,1081.66 L 5266.88,1075.37 L 5282.01,1072.15 L 5297.48,1072.15 L 5312.62,1075.37 L 5316.13,1076.94 L 5459.75,933.322 L 5459.75,312.95 L 5452.75,309.834 L 5440.23,300.741 L 5429.88,289.244 L 5422.15,275.847 L 5417.37,261.133 L 5415.75,245.748 L 5417.37,230.363 L 5422.15,215.65 L 5429.88,202.252 L 5440.23,190.755 L 5452.75,181.662 L 5466.88,175.37 L 5482.01,172.153 L 5497.48,172.153 L 5512.62,175.37 L 5526.75,181.662 L 5539.26,190.755 L 5549.62,202.252 L 5557.35,215.65 L 5562.13,230.363 L 5563.75,245.748 L 5562.13,261.133 L 5557.35,275.847 L 5549.62,289.244 L 5539.26,300.741 L 5526.75,309.834 L 5519.75,312.951 z " style="fill-opacity:1.000000;fill:rgb(99,59,112);stroke:rgb(0,0,0);stroke-width:2"/></g>
<g fill-rule="evenodd"><path d="M 5919.75,312.951 L 5919.75,945.748 L 5919.17,951.601 L 5917.46,957.229 L 5914.69,962.415 L 5910.96,966.961 L 5758.56,1119.36 L 5762.13,1130.36 L 5763.75,1145.75 L 5762.13,1161.13 L 5757.35,1175.85 L 5749.62,1189.24 L 5739.26,1200.74 L 5726.75,1209.83 L 5712.62,1216.13 L 5697.48,1219.34 L 5682.01,1219.34 L 5666.88,1216.13 L 5663.36,1214.56 L 5619.75,1258.17 L 5619.75,1690.53 L 5621.24,1691.2 L 5631.9,1698.94 L 5640.71,1708.72 L 5647.29,1720.13 L 5651.36,1732.65 L 5652.74,1745.75 L 5651.36,1758.84 L 5647.29,1771.37 L 5640.71,1782.77 L 5631.9,1792.56 L 5621.24,1800.3 L 5609.21,1805.66 L 5596.33,1808.4 L 5583.16,1808.4 L 5570.28,1805.66 L 5558.25,1800.3 L 5547.6,1792.56 L 5538.79,1782.77 L 5532.2,1771.37 L 5528.13,1758.84 L 5526.76,1745.75 L 5528.13,1732.65 L 5532.2,1720.13 L 5538.79,1708.72 L 5547.6,1698.94 L 5558.25,1691.2 L 5559.75,1690.53 L 5559.75,1245.75 L 5560.32,1239.9 L 5562.03,1234.27 L 5564.8,1229.08 L 5568.53,1224.53 L 5620.94,1172.13 L 5617.37,1161.13 L 5615.75,1145.75 L 5617.37,1130.36 L 5622.15,1115.65 L 5629.88,1102.25 L 5640.23,1090.76 L 5652.75,1081.66 L 5666.88,1075.37 L 5682.01,1072.15 L 5697.48,1072.15 L 5712.62,1075.37 L 5716.13,1076.94 L 5859.75,933.322 L 5859.75,312.951 L 5852.75,309.834 L 5840.23,300.741 L 5829.88,289.244 L 5822.15,275.847 L 5817.37,261.133 L 5815.75,245.748 L 5817.37,230.363 L 5822.15,215.65 L 5829.88,202.252 L 5840.23,190.755 L 5852.75,181.662 L 5866.88,175.37 L 5882.01,172.153 L 5897.48,172.153 L 5912.62,175.37 L 5926.75,181.662 L 5939.26,190.755 L 5949.62,202.252 L 5957.35,215.65 L 5962.13,230.363 L 5963.75,245.748 L 5962.13,261.133 L 5957.35,275.847 L 5949.62,289.244 L 5939.26,300.741 L 5926.75,309.834 L 5919.75,312.951 z " style="fill-opacity:1.000000;fill:rgb(100,36,17);stroke:rgb(0,0,0);stroke-width:2"/></g>
<g fill-rule="evenodd"><path d="M 7119.75,312.951 L 7119.75,945.748 L 7119.38,950.441 L 7118.28,955.019 L 7116.48,959.368 L 7114.02,963.382 L 7110.96,966.961 L 6958.56,1119.36 L 6962.13,1130.36 L 6963.75,1145.75 L 6962.13,1161.13 L 6957.35,1175.85 L 6949.62,1189.24 L 6939.26,1200.74 L 6926.75,1209.83 L 6912.62,1216.13 L 6897.48,1219.34 L 6882.01,1219.34 L 6866.88,1216.13 L 6863.36,1214.56 L 6710.96,1366.96 L 6706.42,1370.69 L 6701.23,1373.46 L 6695.6,1375.17 L 6689.75,1375.75 L 6534.14,1375.75 L 6219.75,1690.14 L 6219.75,1690.53 L 6221.24,1691.2 L 6231.9,1698.94 L 6240.71,1708.72 L 6247.29,1720.13 L 6251.36,1732.65 L 6252.74,1745.75 L 6251.36,1758.84 L 6247.29,1771.37 L 6240.71,1782.77 L 6231.9,1792.56 L 6221.24,1800.3 L 6209.21,1805.66 L 6196.33,1808.4 L 6183.16,1808.4 L 6170.28,1805.66 L 6158.25,1800.3 L 6147.6,1792.56 L 6138.79,1782.77 L 6132.2,1771.37 L 6128.13,1758.84 L 6126.76,1745.75 L 6128.13,1732.65 L 6132.2,1720.13 L 6138.79,1708.72 L 6147.6,1698.94 L 6158.25,1691.2 L 6159.75,1690.53 L 6159.75,1677.71 L 6160.32,1671.86 L 6162.03,1666.23 L 6164.8,1661.04 L 6168.53,1656.5 L 6500.5,1324.53 L 6504.08,1321.48 L 6508.09,1319.02 L 6512.44,1317.21 L 6517.02,1316.12 L 6521.71,1315.75 L 6677.32,1315.75 L 6820.94,1172.13 L 6817.37,1161.13 L 6815.75,1145.75 L 6817.37,1130.36 L 6822.15,1115.65 L 6829.88,1102.25 L 6840.23,1090.76 L 6852.75,1081.66 L 6866.88,1075.37 L 6882.01,1072.15 L 6897.48,1072.15 L 6912.62,1075.37 L 6916.13,1076.94 L 7059.75,933.322 L 7059.75,312.951 L 7052.75,309.834 L 7040.23,300.741 L 7029.88,289.244 L 7022.15,275.847 L 7017.37,261.133 L 7015.75,245.748 L 7017.37,230.363 L 7022.15,215.65 L 7029.88,202.252 L 7040.23,190.755 L 7052.75,181.662 L 7066.88,175.37 L 7082.01,172.153 L 7097.48,172.153 L 7112.62,175.37 L 7126.75,181.662 L 7139.26,190.755 L 7149.62,202.252 L 7157.35,215.65 L 7162.13,230.363 L 7163.75,245.748 L 7162.13,261.133 L 7157.35,275.847 L 7149.62,289.244 L 7139.26,300.741 L 7126.75,309.834 L 7119.75,312.951 z " style="fill-opacity:1.000000;fill:rgb(158,9,220);stroke:rgb(0,0,0);stroke-width:2"/></g>
<g fill-rule="evenodd"><path d="M 7519.75,312.951 L 7519.75,945.748 L 7519.17,951.601 L 7517.46,957.229 L 7514.69,962.415 L 7510.96,966.961 L 7358.56,1119.36 L 7362.13,1130.36 L 7363.75,1145.75 L 7362.13,1161.13 L 7357.35,1175.85 L 7349.62,1189.24 L 7339.26,1200.74 L 7326.75,1209.83 L 7312.62,1216.13 L 7297.48,1219.34 L 7282.01,1219.34 L 7266.88,1216.13 L 7263.36,1214.56 L 6910.96,1566.96 L 6906.42,1570.69 L 6901.23,1573.46 L 6895.6,1575.17 L 6889.75,1575.75 L 6587.58,1575.75 L 6445.8,1717.54 L 6447.29,1720.13 L 6451.36,1732.65 L 6452.74,1745.75 L 6451.36,1758.84 L 6447.29,1771.37 L 6440.71,1782.77 L 6431.9,1792.56 L 6421.24,1800.3 L 6409.21,1805.66 L 6396.33,1808.4 L 6383.16,1808.4 L 6370.28,1805.66 L 6358.25,1800.3 L 6347.6,1792.56 L 6338.79,1782.77 L 6332.2,1771.37 L 6328.13,1758.84 L 6326.76,1745.75 L 6328.13,1732.65 L 6332.2,1720.13 L 6338.79,1708.72 L 6347.6,1698.94 L 6358.25,1691.2 L 6370.28,1685.84 L 6383.16,1683.1 L 6395.38,1683.1 L 6553.94,1524.53 L 6558.49,1520.8 L 6563.68,1518.03 L 6569.31,1516.32 L 6575.16,1515.75 L 6877.32,1515.75 L 7220.94,1172.13 L 7217.37,1161.13 L 7215.75,1145.75 L 7217.37,1130.36 L 7222.15,1115.65 L 7229.88,1102.25 L 7240.23,1090.76 L 7252.75,1081.66 L 7266.88,1075.37 L 7282.01,1072.15 L 7297.48,1072.15 L 7312.62,1075.37 L 7316.13,1076.94 L 7459.75,933.322 L 7459.75,312.95 L 7452.75,309.834 L 7440.23,300.741 L 7429.88,289.244 L 7422.15,275.847 L 7417.37,261.133 L 7415.75,245.748 L 7417.37,230.363 L 7422.15,215.65 L 7429.88,202.252 L 7440.23,190.755 L 7452.75,181.662 L 7466.88,175.37 L 7482.01,172.153 L 7497.48,172.153 L 7512.62,175.37 L 7526.75,181.662 L 7539.26,190.755 L 7549.62,202.252 L 7557.35,215.65 L 7562.13,230.363 L 7563.75,245.748 L 7562.13,261.133 L 7557.35,275.847 L 7549.62,289.244 L 7539.26,300.741 L 7526.75,309.834 L 7519.75,312.951 z " style="fill-opacity:1.000000;fill:rgb(170,212,172);stroke:rgb(0,0,0);stroke-width:2"/></g>
<g fill-rule="evenodd"><path d="M 1022.11,1175.75 L 957.382,1175.75 L 949.615,1189.24 L 939.264,1200.74 L 926.748,1209.83 L 912.615,1216.13 L 897.483,1219.34 L 882.013,1219.34 L 866.881,1216.13 L 852.748,1209.83 L 840.232,1200.74 L 829.881,1189.24 L 822.146,1175.85 L 817.365,1161.13 L 815.748,1145.75 L 817.365,1130.36 L 822.146,1115.65 L 829.881,1102.25 L 840.232,1090.76 L 852.748,1081.66 L 866.881,1075.37 L 882.013,1072.15 L 897.483,1072.15 L 912.615,1075.37 L 926.748,1081.66 L 939.264,1090.76 L 949.615,1102.25 L 957.382,1115.75 L 1022.11,1115.75 L 1029.88,1102.25 L 1040.23,1090.76 L 1052.75,1081.66 L 1066.88,1075.37 L 1082.01,1072.15 L 1097.48,1072.15 L 1112.62,1075.37 L 1126.75,1081.66 L 1139.26,1090.76 L 1149.62,1102.25 L 1157.35,1115.65 L 1162.13,1130.36 L 1163.75,1145.75 L 1162.13,1161.13 L 1157.35,1175.85 L 1149.62,1189.24 L 1139.26,1200.74 L 1126.75,1209.83 L 1119.75,1212.95 L 1119.75,1333.32 L 2102.17,2315.75 L 2890.54,2315.75 L 3159.75,2046.54 L 3159.75,2000.97 L 3158.25,2000.3 L 3147.6,1992.56 L 3138.79,1982.77 L 3132.2,1971.37 L 3128.13,1958.84 L 3126.76,1945.75 L 3128.13,1932.65 L 3132.2,1920.13 L 3138.79,1908.72 L 3147.6,1898.94 L 3158.25,1891.2 L 3159.75,1890.53 L 3159.75,1800.97 L 3158.25,1800.3 L 3147.6,1792.56 L 3138.79,1782.77 L 3132.2,1771.37 L 3128.13,1758.84 L 3126.76,1745.75 L 3128.13,1732.65 L 3132.2,1720.13 L 3138.79,1708.72 L 3147.6,1698.94 L 3158.25,1691.2 L 3170.28,1685.84 L 3183.16,1683.1 L 3196.33,1683.1 L 3209.21,1685.84 L 3221.24,1691.2 L 3231.9,1698.94 L 3240.71,1708.72 L 3247.29,1720.13 L 3251.36,1732.65 L 3252.74,1745.75 L 3251.36,1758.84 L 3247.29,1771.37 L 3240.71,1782.77 L 3231.9,1792.56 L 3221.24,1800.3 L 3219.75,1800.97 L 3219.75,1890.53 L 3221.24,1891.2 L 3231.9,1898.94 L 3240.71,1908.72 L 3247.29,1920.13 L 3251.36,1932.65 L 3252.74,1945.75 L 3251.36,1958.84 L 3247.29,1971.37 L 3240.71,1982.77 L 3231.9,1992.56 L 3221.24,2000.3 L 3219.75,2000.97 L 3219.75,2058.96 L 3219.17,2064.81 L 3217.46,2070.44 L 3214.69,2075.63 L 3210.96,2080.18 L 2924.18,2366.96 L 2919.63,2370.69 L 2914.44,2373.46 L 2908.81,2375.17 L 2902.96,2375.75 L 2089.75,2375.75 L 2085.05,2375.38 L 2080.48,2374.28 L 2076.13,2372.48 L 2072.11,2370.02 L 2068.53,2366.96 L 1068.53,1366.96 L 1064.8,1362.41 L 1062.03,1357.23 L 1060.32,1351.6 L 1059.75,1345.75 L 1059.75,1212.95 L 1052.75,1209.83 L 1040.23,1200.74 L 1029.88,1189.24 L 1022.11,1175.75 z " style="fill-opacity:1.000000;fill:rgb(242,27,16);stroke:rgb(0,0,0);stroke-width:2"/></g>
<g fill-rule="evenodd"><path d="M 519.748,1212.95 L 519.748,1233.32 L 2169.18,2882.76 L 2252.74,2882.76 L 2252.74,3008.74 L 2126.76,3008.74 L 2126.76,2925.18 L 468.535,1266.96 L 464.804,1262.42 L 462.032,1257.23 L 460.324,1251.6 L 459.748,1245.75 L 459.748,1212.95 L 452.748,1209.83 L 440.232,1200.74 L 429.881,1189.24 L 422.146,1175.85 L 417.365,1161.13 L 415.748,1145.75 L 417.365,1130.36 L 422.146,1115.65 L 429.881,1102.25 L 440.232,1090.76 L 452.748,1081.66 L 466.881,1075.37 L 482.013,1072.15 L 497.483,1072.15 L 512.615,1075.37 L 526.748,1081.66 L 539.264,1090.76 L 549.615,1102.25 L 557.35,1115.65 L 562.131,1130.36 L 563.748,1145.75 L 562.131,1161.13 L 557.35,1175.85 L 549.615,1189.24 L 539.264,1200.74 L 526.748,1209.83 L 519.748,1212.95 z " style="fill-opacity:1.000000;fill:rgb(175,59,51);stroke:rgb(0,0,0);stroke-width:2"/></g>
<g fill-rule="evenodd"><path d="M 1519.75,1212.95 L 1519.75,1333.47 L 2289.11,2115.75 L 2882.93,2115.75 L 2959.75,2038.93 L 2959.75,2000.97 L 2958.25,2000.3 L 2947.6,1992.56 L 2938.79,1982.77 L 2932.2,1971.37 L 2928.13,1958.84 L 2926.76,1945.75 L 2928.13,1932.65 L 2932.2,1920.13 L 2938.79,1908.72 L 2947.6,1898.94 L 2958.25,1891.2 L 2959.75,1890.53 L 2959.75,1800.97 L 2958.25,1800.3 L 2947.6,1792.56 L 2938.79,1782.77 L 2932.2,1771.37 L 2928.13,1758.84 L 2926.76,1745.75 L 2928.13,1732.65 L 2932.2,1720.13 L 2938.79,1708.72 L 2947.6,1698.94 L 2958.25,1691.2 L 2970.28,1685.84 L 2983.16,1683.1 L 2996.33,1683.1 L 3009.21,1685.84 L 3021.24,1691.2 L 3031.9,1698.94 L 3040.71,1708.72 L 3047.29,1720.13 L 3051.36,1732.65 L 3052.74,1745.75 L 3051.36,1758.84 L 3047.29,1771.37 L 3040.71,1782.77 L 3031.9,1792.56 L 3021.24,1800.3 L 3019.75,1800.97 L 3019.75,1890.53 L 3021.24,1891.2 L 3031.9,1898.94 L 3040.71,1908.72 L 3047.29,1920.13 L 3051.36,1932.65 L 3052.74,1945.75 L 3051.36,1958.84 L 3047.29,1971.37 L 3040.71,1982.77 L 3031.9,1992.56 L 3021.24,2000.3 L 3019.75,2000.97 L 3019.75,2051.36 L 3019.17,2057.21 L 3017.46,2062.84 L 3014.69,2068.03 L 3010.96,2072.57 L 2916.57,2166.96 L 2912.03,2170.69 L 2906.84,2173.46 L 2901.21,2175.17 L 2895.36,2175.75 L 2276.53,2175.75 L 2271.79,2175.37 L 2267.17,2174.25 L 2262.78,2172.41 L 2258.74,2169.9 L 2255.14,2166.78 L 1468.36,1366.78 L 1464.7,1362.26 L 1461.98,1357.11 L 1460.31,1351.54 L 1459.75,1345.75 L 1459.75,1212.95 L 1452.75,1209.83 L 1440.23,1200.74 L 1429.88,1189.24 L 1422.11,1175.75 L 1357.38,1175.75 L 1349.62,1189.24 L 1339.26,1200.74 L 1326.75,1209.83 L 1312.62,1216.13 L 1297.48,1219.34 L 1282.01,1219.34 L 1266.88,1216.13 L 1252.75,1209.83 L 1240.23,1200.74 L 1229.88,1189.24 L 1222.15,1175.85 L 1217.37,1161.13 L 1215.75,1145.75 L 1217.37,1130.36 L 1222.15,1115.65 L 1229.88,1102.25 L 1240.23,1090.76 L 1252.75,1081.66 L 1266.88,1075.37 L 1282.01,1072.15 L 1297.48,1072.15 L 1312.62,1075.37 L 1326.75,1081.66 L 1339.26,1090.76 L 1349.62,1102.25 L 1357.38,1115.75 L 1422.11,1115.75 L 1429.88,1102.25 L 1440.23,1090.76 L 1452.75,1081.66 L 1466.88,1075.37 L 1482.01,1072.15 L 1497.48,1072.15 L 1512.62,1075.37 L 1526.75,1081.66 L 1539.26,1090.76 L 1549.62,1102.25 L 1557.35,1115.65 L 1562.13,1130.36 L 1563.75,1145.75 L 1562.13,1161.13 L 1557.35,1175.85 L 1549.62,1189.24 L 1539.26,1200.74 L 1526.75,1209.83 L 1519.75,1212.95 z " style="fill-opacity:1.000000;fill:rgb(205,227,80);stroke:rgb(0,0,0);stroke-width:2"/></g>
<g fill-rule="evenodd"><path d="M 1059.75,478.545 L 1059.75,312.951 L 1052.75,309.834 L 1040.23,300.741 L 1029.88,289.244 L 1022.15,275.847 L 1017.37,261.133 L 1015.75,245.748 L 1017.37,230.363 L 1022.15,215.65 L 1029.88,202.252 L 1040.23,190.755 L 1052.75,181.662 L 1059.75,178.545 L 1059.75,75.7482 L 802.174,75.748 L 519.748,358.174 L 519.748,478.545 L 526.748,481.662 L 539.264,490.755 L 549.615,502.252 L 557.35,515.65 L 562.131,530.363 L 563.748,545.748 L 562.131,561.133 L 557.35,575.847 L 549.615,589.244 L 539.264,600.741 L 526.748,609.834 L 512.615,616.126 L 497.483,619.343 L 482.013,619.343 L 466.881,616.126 L 452.748,609.834 L 440.232,600.741 L 429.881,589.244 L 422.114,575.748 L 157.382,575.748 L 149.615,589.244 L 139.264,600.741 L 126.748,609.834 L 112.615,616.126 L 97.4831,619.343 L 82.0129,619.343 L 66.8808,616.126 L 52.748,609.834 L 40.2324,600.741 L 29.8808,589.244 L 22.1457,575.847 L 17.3651,561.133 L 15.748,545.748 L 17.3651,530.363 L 22.1457,515.65 L 29.8808,502.252 L 40.2324,490.755 L 52.748,481.662 L 66.8808,475.37 L 82.0129,472.153 L 97.4831,472.153 L 112.615,475.37 L 126.748,481.662 L 139.264,490.755 L 149.615,502.252 L 157.382,515.748 L 422.114,515.747 L 429.881,502.252 L 440.232,490.755 L 452.748,481.662 L 459.748,478.546 L 459.748,345.748 L 460.324,339.895 L 462.032,334.268 L 464.804,329.081 L 468.535,324.535 L 768.535,24.5348 L 773.081,20.8039 L 778.268,18.0316 L 783.895,16.3245 L 789.748,15.748 L 7994.4,15.748 L 8000.25,16.3245 L 8005.88,18.0316 L 8011.06,20.8038 L 8015.61,24.5346 L 8110.96,119.883 L 8114.02,123.462 L 8116.48,127.476 L 8118.28,131.825 L 8119.38,136.403 L 8119.75,141.096 L 8119.75,178.546 L 8126.75,181.662 L 8139.26,190.755 L 8149.62,202.252 L 8157.35,215.65 L 8162.13,230.363 L 8163.75,245.748 L 8162.13,261.133 L 8157.35,275.847 L 8149.62,289.244 L 8139.26,300.741 L 8126.75,309.834 L 8119.75,312.95 L 8119.75,478.546 L 8126.75,481.662 L 8139.26,490.755 L 8149.62,502.252 L 8157.35,515.65 L 8162.13,530.363 L 8163.75,545.748 L 8162.13,561.133 L 8157.35,575.847 L 8149.62,589.244 L 8139.26,600.741 L 8126.75,609.834 L 8112.62,616.126 L 8097.48,619.343 L 8082.01,619.343 L 8066.88,616.126 L 8052.75,609.834 L 8040.23,600.741 L 8029.88,589.244 L 8022.15,575.847 L 8017.37,561.133 L 8015.75,545.748 L 8017.37,530.363 L 8022.15,515.65 L 8029.88,502.252 L 8040.23,490.755 L 8052.75,481.662 L 8059.75,478.546 L 8059.75,312.951 L 8052.75,309.834 L 8040.23,300.741 L 8029.88,289.244 L 8022.15,275.847 L 8017.37,261.133 L 8015.75,245.748 L 8017.37,230.363 L 8022.15,215.65 L 8029.88,202.252 L 8040.23,190.755 L 8052.75,181.662 L 8059.75,178.546 L 8059.75,153.523 L 7981.97,75.748 L 7719.75,75.7483 L 7719.75,178.546 L 7726.75,181.662 L 7739.26,190.755 L 7749.62,202.252 L 7757.35,215.65 L 7762.13,230.363 L 7763.75,245.748 L 7762.13,261.133 L 7757.35,275.847 L 7749.62,289.244 L 7739.26,300.741 L 7726.75,309.834 L 7719.75,312.951 L 7719.75,478.546 L 7726.75,481.662 L 7739.26,490.755 L 7749.62,502.252 L 7757.35,515.65 L 7762.13,530.363 L 7763.75,545.748 L 7762.13,561.133 L 7757.35,575.847 L 7749.62,589.244 L 7739.26,600.741 L 7726.75,609.834 L 7712.62,616.126 L 7697.48,619.343 L 7682.01,619.343 L 7666.88,616.126 L 7652.75,609.834 L 7640.23,600.741 L 7629.88,589.244 L 7622.15,575.847 L 7617.37,561.133 L 7615.75,545.748 L 7617.37,530.363 L 7622.15,515.65 L 7629.88,502.252 L 7640.23,490.755 L 7652.75,481.662 L 7659.75,478.545 L 7659.75,312.951 L 7652.75,309.834 L 7640.23,300.741 L 7629.88,289.244 L 7622.15,275.847 L 7617.37,261.133 L 7615.75,245.748 L 7617.37,230.363 L 7622.15,215.65 L 7629.88,202.252 L 7640.23,190.755 L 7652.75,181.662 L 7659.75,178.545 L 7659.75,75.7483 L 7319.75,75.7483 L 7319.75,178.546 L 7326.75,181.662 L 7339.26,190.755 L 7349.62,202.252 L 7357.35,215.65 L 7362.13,230.363 L 7363.75,245.748 L 7362.13,261.133 L 7357.35,275.847 L 7349.62,289.244 L 7339.26,300.741 L 7326.75,309.834 L 7319.75,312.95 L 7319.75,478.546 L 7326.75,481.662 L 7339.26,490.755 L 7349.62,502.252 L 7357.35,515.65 L 7362.13,530.363 L 7363.75,545.748 L 7362.13,561.133 L 7357.35,575.847 L 7349.62,589.244 L 7339.26,600.741 L 7326.75,609.834 L 7312.62,616.126 L 7297.48,619.343 L 7282.01,619.343 L 7266.88,616.126 L 7252.75,609.834 L 7240.23,600.741 L 7229.88,589.244 L 7222.15,575.847 L 7217.37,561.133 L 7215.75,545.748 L 7217.37,530.363 L 7222.15,515.65 L 7229.88,502.252 L 7240.23,490.755 L 7252.75,481.662 L 7259.75,478.546 L 7259.75,312.951 L 7252.75,309.834 L 7240.23,300.741 L 7229.88,289.244 L 7222.15,275.847 L 7217.37,261.133 L 7215.75,245.748 L 7217.37,230.363 L 7222.15,215.65 L 7229.88,202.252 L 7240.23,190.755 L 7252.75,181.662 L 7259.75,178.546 L 7259.75,75.7483 L 6919.75,75.7483 L 6919.75,178.546 L 6926.75,181.662 L 6939.26,190.755 L 6949.62,202.252 L 6957.35,215.65 L 6962.13,230.363 L 6963.75,245.748 L 6962.13,261.133 L 6957.35,275.847 L 6949.62,289.244 L 6939.26,300.741 L 6926.75,309.834 L 6919.75,312.951 L 6919.75,478.546 L 6926.75,481.662 L 6939.26,490.755 L 6949.62,502.252 L 6957.35,515.65 L 6962.13,530.363 L 6963.75,545.748 L 6962.13,561.133 L 6957.35,575.847 L 6949.62,589.244 L 6939.26,600.741 L 6926.75,609.834 L 6912.62,616.126 L 6897.48,619.343 L 6882.01,619.343 L 6866.88,616.126 L 6852.75,609.834 L 6840.23,600.741 L 6829.88,589.244 L 6822.15,575.847 L 6817.37,561.133 L 6815.75,545.748 L 6817.37,530.363 L 6822.15,515.65 L 6829.88,502.252 L 6840.23,490.755 L 6852.75,481.662 L 6859.75,478.546 L 6859.75,312.95 L 6852.75,309.834 L 6840.23,300.741 L 6829.88,289.244 L 6822.15,275.847 L 6817.37,261.133 L 6815.75,245.748 L 6817.37,230.363 L 6822.15,215.65 L 6829.88,202.252 L 6840.23,190.755 L 6852.75,181.662 L 6859.75,178.546 L 6859.75,75.7483 L 6519.75,75.7482 L 6519.75,178.545 L 6526.75,181.662 L 6539.26,190.755 L 6549.62,202.252 L 6557.35,215.65 L 6562.13,230.363 L 6563.75,245.748 L 6562.13,261.133 L 6557.35,275.847 L 6549.62,289.244 L 6539.26,300.741 L 6526.75,309.834 L 6519.75,312.951 L 6519.75,478.545 L 6526.75,481.662 L 6539.26,490.755 L 6549.62,502.252 L 6557.35,515.65 L 6562.13,530.363 L 6563.75,545.748 L 6562.13,561.133 L 6557.35,575.847 L 6549.62,589.244 L 6539.26,600.741 L 6526.75,609.834 L 6512.62,616.126 L 6497.48,619.343 L 6482.01,619.343 L 6466.88,616.126 L 6452.75,609.834 L 6440.23,600.741 L 6429.88,589.244 L 6422.15,575.847 L 6417.37,561.133 L 6415.75,545.748 L 6417.37,530.363 L 6422.15,515.65 L 6429.88,502.252 L 6440.23,490.755 L 6452.75,481.662 L 6459.75,478.546 L 6459.75,312.951 L 6452.75,309.834 L 6440.23,300.741 L 6429.88,289.244 L 6422.15,275.847 L 6417.37,261.133 L 6415.75,245.748 L 6417.37,230.363 L 6422.15,215.65 L 6429.88,202.252 L 6440.23,190.755 L 6452.75,181.662 L 6459.75,178.546 L 6459.75,75.7482 L 6119.75,75.7482 L 6119.75,178.546 L 6126.75,181.662 L 6139.26,190.755 L 6149.62,202.252 L 6157.35,215.65 L 6162.13,230.363 L 6163.75,245.748 L 6162.13,261.133 L 6157.35,275.847 L 6149.62,289.244 L 6139.26,300.741 L 6126.75,309.834 L 6119.75,312.95 L 6119.75,478.546 L 6126.75,481.662 L 6139.26,490.755 L 6149.62,502.252 L 6157.35,515.65 L 6162.13,530.363 L 6163.75,545.748 L 6162.13,561.133 L 6157.35,575.847 L 6149.62,589.244 L 6139.26,600.741 L 6126.75,609.834 L 6112.62,616.126 L 6097.48,619.343 L 6082.01,619.343 L 6066.88,616.126 L 6052.75,609.834 L 6040.23,600.741 L 6029.88,589.244 L 6022.15,575.847 L 6017.37,561.133 L 6015.75,545.748 L 6017.37,530.363 L 6022.15,515.65 L 6029.88,502.252 L 6040.23,490.755 L 6052.75,481.662 L 6059.75,478.546 L 6059.75,312.951 L 6052.75,309.834 L 6040.23,300.741 L 6029.88,289.244 L 6022.15,275.847 L 6017.37,261.133 L 6015.75,245.748 L 6017.37,230.363 L 6022.15,215.65 L 6029.88,202.252 L 6040.23,190.755 L 6052.75,181.662 L 6059.75,178.546 L 6059.75,75.7482 L 5719.75,75.7482 L 5719.75,178.546 L 5726.75,181.662 L 5739.26,190.755 L 5749.62,202.252 L 5757.35,215.65 L 5762.13,230.363 L 5763.75,245.748 L 5762.13,261.133 L 5757.35,275.847 L 5749.62,289.244 L 5739.26,300.741 L 5726.75,309.834 L 5719.75,312.951 L 5719.75,478.546 L 5726.75,481.662 L 5739.26,490.755 L 5749.62,502.252 L 5757.35,515.65 L 5762.13,530.363 L 5763.75,545.748 L 5762.13,561.133 L 5757.35,575.847 L 5749.62,589.244 L 5739.26,600.741 L 5726.75,609.834 L 5712.62,616.126 L 5697.48,619.343 L 5682.01,619.343 L 5666.88,616.126 L 5652.75,609.834 L 5640.23,600.741 L 5629.88,589.244 L 5622.15,575.847 L 5617.37,561.133 L 5615.75,545.748 L 5617.37,530.363 L 5622.15,515.65 L 5629.88,502.252 L 5640.23,490.755 L 5652.75,481.662 L 5659.75,478.545 L 5659.75,312.951 L 5652.75,309.834 L 5640.23,300.741 L 5629.88,289.244 L 5622.15,275.847 L 5617.37,261.133 L 5615.75,245.748 L 5617.37,230.363 L 5622.15,215.65 L 5629.88,202.252 L 5640.23,190.755 L 5652.75,181.662 L 5659.75,178.545 L 5659.75,75.7482 L 5319.75,75.7482 L 5319.75,178.546 L 5326.75,181.662 L 5339.26,190.755 L 5349.62,202.252 L 5357.35,215.65 L 5362.13,230.363 L 5363.75,245.748 L 5362.13,261.133 L 5357.35,275.847 L 5349.62,289.244 L 5339.26,300.741 L 5326.75,309.834 L 5319.75,312.95 L 5319.75,478.546 L 5326.75,481.662 L 5339.26,490.755 L 5349.62,502.252 L 5357.35,515.65 L 5362.13,530.363 L 5363.75,545.748 L 5362.13,561.133 L 5357.35,575.847 L 5349.62,589.244 L 5339.26,600.741 L 5326.75,609.834 L 5312.62,616.126 L 5297.48,619.343 L 5282.01,619.343 L 5266.88,616.126 L 5252.75,609.834 L 5240.23,600.741 L 5229.88,589.244 L 5222.15,575.847 L 5217.37,561.133 L 5215.75,545.748 L 5217.37,530.363 L 5222.15,515.65 L 5229.88,502.252 L 5240.23,490.755 L 5252.75,481.662 L 5259.75,478.546 L 5259.75,312.951 L 5252.75,309.834 L 5240.23,300.741 L 5229.88,289.244 L 5222.15,275.847 L 5217.37,261.133 L 5215.75,245.748 L 5217.37,230.363 L 5222.15,215.65 L 5229.88,202.252 L 5240.23,190.755 L 5252.75,181.662 L 5259.75,178.546 L 5259.75,75.7482 L 4719.75,75.7482 L 4719.75,178.546 L 4726.75,181.662 L 4739.26,190.755 L 4749.62,202.252 L 4757.35,215.65 L 4762.13,230.363 L 4763.75,245.748 L 4762.13,261.133 L 4757.35,275.847 L 4749.62,289.244 L 4739.26,300.741 L 4726.75,309.834 L 4719.75,312.95 L 4719.75,478.546 L 4726.75,481.662 L 4739.26,490.755 L 4749.62,502.252 L 4757.35,515.65 L 4762.13,530.363 L 4763.75,545.748 L 4762.13,561.133 L 4757.35,575.847 L 4749.62,589.244 L 4739.26,600.741 L 4726.75,609.834 L 4712.62,616.126 L 4697.48,619.343 L 4682.01,619.343 L 4666.88,616.126 L 4652.75,609.834 L 4640.23,600.741 L 4629.88,589.244 L 4622.15,575.847 L 4617.37,561.133 L 4615.75,545.748 L 4617.37,530.363 L 4622.15,515.65 L 4629.88,502.252 L 4640.23,490.755 L 4652.75,481.662 L 4659.75,478.546 L 4659.75,312.951 L 4652.75,309.834 L 4640.23,300.741 L 4629.88,289.244 L 4622.15,275.847 L 4617.37,261.133 L 4615.75,245.748 L 4617.37,230.363 L 4622.15,215.65 L 4629.88,202.252 L 4640.23,190.755 L 4652.75,181.662 L 4659.75,178.546 L 4659.75,75.7482 L 4319.75,75.7482 L 4319.75,178.546 L 4326.75,181.662 L 4339.26,190.755 L 4349.62,202.252 L 4357.35,215.65 L 4362.13,230.363 L 4363.75,245.748 L 4362.13,261.133 L 4357.35,275.847 L 4349.62,289.244 L 4339.26,300.741 L 4326.75,309.834 L 4319.75,312.951 L 4319.75,478.546 L 4326.75,481.662 L 4339.26,490.755 L 4349.62,502.252 L 4357.35,515.65 L 4362.13,530.363 L 4363.75,545.748 L 4362.13,561.133 L 4357.35,575.847 L 4349.62,589.244 L 4339.26,600.741 L 4326.75,609.834 L 4312.62,616.126 L 4297.48,619.343 L 4282.01,619.343 L 4266.88,616.126 L 4252.75,609.834 L 4240.23,600.741 L 4229.88,589.244 L 4222.15,575.847 L 4217.37,561.133 L 4215.75,545.748 L 4217.37,530.363 L 4222.15,515.65 L 4229.88,502.252 L 4240.23,490.755 L 4252.75,481.662 L 4259.75,478.545 L 4259.75,312.951 L 4252.75,309.834 L 4240.23,300.741 L 4229.88,289.244 L 4222.15,275.847 L 4217.37,261.133 L 4215.75,245.748 L 4217.37,230.363 L 4222.15,215.65 L 4229.88,202.252 L 4240.23,190.755 L 4252.75,181.662 L 4259.75,178.545 L 4259.75,75.7482 L 3919.75,75.7482 L 3919.75,178.545 L 3926.75,181.662 L 3939.26,190.755 L 3949.62,202.252 L 3957.35,215.65 L 3962.13,230.363 L 3963.75,245.748 L 3962.13,261.133 L 3957.35,275.847 L 3949.62,289.244 L 3939.26,300.741 L 3926.75,309.834 L 3919.75,312.951 L 3919.75,478.545 L 3926.75,481.662 L 3939.26,490.755 L 3949.62,502.252 L 3957.35,515.65 L 3962.13,530.363 L 3963.75,545.748 L 3962.13,561.133 L 3957.35,575.847 L 3949.62,589.244 L 3939.26,600.741 L 3926.75,609.834 L 3912.62,616.126 L 3897.48,619.343 L 3882.01,619.343 L 3866.88,616.126 L 3852.75,609.834 L 3840.23,600.741 L 3829.88,589.244 L 3822.15,575.847 L 3817.37,561.133 L 3815.75,545.748 L 3817.37,530.363 L 3822.15,515.65 L 3829.88,502.252 L 3840.23,490.755 L 3852.75,481.662 L 3859.75,478.546 L 3859.75,312.951 L 3852.75,309.834 L 3840.23,300.741 L 3829.88,289.244 L 3822.15,275.847 L 3817.37,261.133 L 3815.75,245.748 L 3817.37,230.363 L 3822.15,215.65 L 3829.88,202.252 L 3840.23,190.755 L 3852.75,181.662 L 3859.75,178.546 L 3859.75,75.7482 L 3519.75,75.7482 L 3519.75,178.546 L 3526.75,181.662 L 3539.26,190.755 L 3549.62,202.252 L 3557.35,215.65 L 3562.13,230.363 L 3563.75,245.748 L 3562.13,261.133 L 3557.35,275.847 L 3549.62,289.244 L 3539.26,300.741 L 3526.75,309.834 L 3519.75,312.951 L 3519.75,478.546 L 3526.75,481.662 L 3539.26,490.755 L 3549.62,502.252 L 3557.35,515.65 L 3562.13,530.363 L 3563.75,545.748 L 3562.13,561.133 L 3557.35,575.847 L 3549.62,589.244 L 3539.26,600.741 L 3526.75,609.834 L 3512.62,616.126 L 3497.48,619.343 L 3482.01,619.343 L 3466.88,616.126 L 3452.75,609.834 L 3440.23,600.741 L 3429.88,589.244 L 3422.15,575.847 L 3417.37,561.133 L 3415.75,545.748 L 3417.37,530.363 L 3422.15,515.65 L 3429.88,502.252 L 3440.23,490.755 L 3452.75,481.662 L 3459.75,478.546 L 3459.75,312.95 L 3452.75,309.834 L 3440.23,300.741 L 3429.88,289.244 L 3422.15,275.847 L 3417.37,261.133 L 3415.75,245.748 L 3417.37,230.363 L 3422.15,215.65 L 3429.88,202.252 L 3440.23,190.755 L 3452.75,181.662 L 3459.75,178.546 L 3459.75,75.7482 L 3119.75,75.7482 L 3119.75,178.546 L 3126.75,181.662 L 3139.26,190.755 L 3149.62,202.252 L 3157.35,215.65 L 3162.13,230.363 L 3163.75,245.748 L 3162.13,261.133 L 3157.35,275.847 L 3149.62,289.244 L 3139.26,300.741 L 3126.75,309.834 L 3119.75,312.951 L 3119.75,478.546 L 3126.75,481.662 L 3139.26,490.755 L 3149.62,502.252 L 3157.35,515.65 L 3162.13,530.363 L 3163.75,545.748 L 3162.13,561.133 L 3157.35,575.847 L 3149.62,589.244 L 3139.26,600.741 L 3126.75,609.834 L 3112.62,616.126 L 3097.48,619.343 L 3082.01,619.343 L 3066.88,616.126 L 3052.75,609.834 L 3040.23,600.741 L 3029.88,589.244 L 3022.15,575.847 L 3017.37,561.133 L 3015.75,545.748 L 3017.37,530.363 L 3022.15,515.65 L 3029.88,502.252 L 3040.23,490.755 L 3052.75,481.662 L 3059.75,478.545 L 3059.75,312.951 L 3052.75,309.834 L 3040.23,300.741 L 3029.88,289.244 L 3022.15,275.847 L 3017.37,261.133 L 3015.75,245.748 L 3017.37,230.363 L 3022.15,215.65 L 3029.88,202.252 L 3040.23,190.755 L 3052.75,181.662 L 3059.75,178.545 L 3059.75,75.7482 L 2719.75,75.7482 L 2719.75,178.546 L 2726.75,181.662 L 2739.26,190.755 L 2749.62,202.252 L 2757.35,215.65 L 2762.13,230.363 L 2763.75,245.748 L 2762.13,261.133 L 2757.35,275.847 L 2749.62,289.244 L 2739.26,300.741 L 2726.75,309.834 L 2719.75,312.95 L 2719.75,478.546 L 2726.75,481.662 L 2739.26,490.755 L 2749.62,502.252 L 2757.35,515.65 L 2762.13,530.363 L 2763.75,545.748 L 2762.13,561.133 L 2757.35,575.847 L 2749.62,589.244 L 2739.26,600.741 L 2726.75,609.834 L 2712.62,616.126 L 2697.48,619.343 L 2682.01,619.343 L 2666.88,616.126 L 2652.75,609.834 L 2640.23,600.741 L 2629.88,589.244 L 2622.15,575.847 L 2617.37,561.133 L 2615.75,545.748 L 2617.37,530.363 L 2622.15,515.65 L 2629.88,502.252 L 2640.23,490.755 L 2652.75,481.662 L 2659.75,478.546 L 2659.75,312.951 L 2652.75,309.834 L 2640.23,300.741 L 2629.88,289.244 L 2622.15,275.847 L 2617.37,261.133 L 2615.75,245.748 L 2617.37,230.363 L 2622.15,215.65 L 2629.88,202.252 L 2640.23,190.755 L 2652.75,181.662 L 2659.75,178.546 L 2659.75,75.7482 L 2319.75,75.7482 L 2319.75,178.546 L 2326.75,181.662 L 2339.26,190.755 L 2349.62,202.252 L 2357.35,215.65 L 2362.13,230.363 L 2363.75,245.748 L 2362.13,261.133 L 2357.35,275.847 L 2349.62,289.244 L 2339.26,300.741 L 2326.75,309.834 L 2319.75,312.951 L 2319.75,478.546 L 2326.75,481.662 L 2339.26,490.755 L 2349.62,502.252 L 2357.35,515.65 L 2362.13,530.363 L 2363.75,545.748 L 2362.13,561.133 L 2357.35,575.847 L 2349.62,589.244 L 2339.26,600.741 L 2326.75,609.834 L 2312.62,616.126 L 2297.48,619.343 L 2282.01,619.343 L 2266.88,616.126 L 2252.75,609.834 L 2240.23,600.741 L 2229.88,589.244 L 2222.15,575.847 L 2217.37,561.133 L 2215.75,545.748 L 2217.37,530.363 L 2222.15,515.65 L 2229.88,502.252 L 2240.23,490.755 L 2252.75,481.662 L 2259.75,478.545 L 2259.75,312.951 L 2252.75,309.834 L 2240.23,300.741 L 2229.88,289.244 L 2222.15,275.847 L 2217.37,261.133 L 2215.75,245.748 L 2217.37,230.363 L 2222.15,215.65 L 2229.88,202.252 L 2240.23,190.755 L 2252.75,181.662 L 2259.75,178.545 L 2259.75,75.7482 L 1919.75,75.7482 L 1919.75,178.545 L 1926.75,181.662 L 1939.26,190.755 L 1949.62,202.252 L 1957.35,215.65 L 1962.13,230.363 L 1963.75,245.748 L 1962.13,261.133 L 1957.35,275.847 L 1949.62,289.244 L 1939.26,300.741 L 1926.75,309.834 L 1919.75,312.951 L 1919.75,478.545 L 1926.75,481.662 L 1939.26,490.755 L 1949.62,502.252 L 1957.35,515.65 L 1962.13,530.363 L 1963.75,545.748 L 1962.13,561.133 L 1957.35,575.847 L 1949.62,589.244 L 1939.26,600.741 L 1926.75,609.834 L 1912.62,616.126 L 1897.48,619.343 L 1882.01,619.343 L 1866.88,616.126 L 1852.75,609.834 L 1840.23,600.741 L 1829.88,589.244 L 1822.15,575.847 L 1817.37,561.133 L 1815.75,545.748 L 1817.37,530.363 L 1822.15,515.65 L 1829.88,502.252 L 1840.23,490.755 L 1852.75,481.662 L 1859.75,478.546 L 1859.75,312.951 L 1852.75,309.834 L 1840.23,300.741 L 1829.88,289.244 L 1822.15,275.847 L 1817.37,261.133 L 1815.75,245.748 L 1817.37,230.363 L 1822.15,215.65 L 1829.88,202.252 L 1840.23,190.755 L 1852.75,181.662 L 1859.75,178.546 L 1859.75,75.7482 L 1519.75,75.7482 L 1519.75,178.546 L 1526.75,181.662 L 1539.26,190.755 L 1549.62,202.252 L 1557.35,215.65 L 1562.13,230.363 L 1563.75,245.748 L 1562.13,261.133 L 1557.35,275.847 L 1549.62,289.244 L 1539.26,300.741 L 1526.75,309.834 L 1519.75,312.951 L 1519.75,478.546 L 1526.75,481.662 L 1539.26,490.755 L 1549.62,502.252 L 1557.35,515.65 L 1562.13,530.363 L 1563.75,545.748 L 1562.13,561.133 L 1557.35,575.847 L 1549.62,589.244 L 1539.26,600.741 L 1526.75,609.834 L 1512.62,616.126 L 1497.48,619.343 L 1482.01,619.343 L 1466.88,616.126 L 1452.75,609.834 L 1440.23,600.741 L 1429.88,589.244 L 1422.15,575.847 L 1417.37,561.133 L 1415.75,545.748 L 1417.37,530.363 L 1422.15,515.65 L 1429.88,502.252 L 1440.23,490.755 L 1452.75,481.662 L 1459.75,478.546 L 1459.75,312.95 L 1452.75,309.834 L 1440.23,300.741 L 1429.88,289.244 L 1422.15,275.847 L 1417.37,261.133 L 1415.75,245.748 L 1417.37,230.363 L 1422.15,215.65 L 1429.88,202.252 L 1440.23,190.755 L 1452.75,181.662 L 1459.75,178.546 L 1459.75,75.7482 L 1119.75,75.7482 L 1119.75,178.546 L 1126.75,181.662 L 1139.26,190.755 L 1149.62,202.252 L 1157.35,215.65 L 1162.13,230.363 L 1163.75,245.748 L 1162.13,261.133 L 1157.35,275.847 L 1149.62,289.244 L 1139.26,300.741 L 1126.75,309.834 L 1119.75,312.951 L 1119.75,478.546 L 1126.75,481.662 L 1139.26,490.755 L 1149.62,502.252 L 1157.35,515.65 L 1162.13,530.363 L 1163.75,545.748 L 1162.13,561.133 L 1157.35,575.847 L 1149.62,589.244 L 1139.26,600.741 L 1126.75,609.834 L 1112.62,616.126 L 1097.48,619.343 L 1082.01,619.343 L 1066.88,616.126 L 1052.75,609.834 L 1040.23,600.741 L 1029.88,589.244 L 1022.15,575.847 L 1017.37,561.133 L 1015.75,545.748 L 1017.37,530.363 L 1022.15,515.65 L 1029.88,502.252 L 1040.23,490.755 L 1052.75,481.662 L 1059.75,478.545 z " style="fill-opacity:1.000000;fill:rgb(72,71,21);stroke:rgb(0,0,0);stroke-width:2"/></g>
<g fill-rule="evenodd"><path d="M 859.748,478.546 L 859.748,312.95 L 852.748,309.834 L 840.232,300.741 L 829.881,289.244 L 822.146,275.847 L 817.365,261.133 L 815.748,245.748 L 817.365,230.363 L 822.146,215.65 L 829.881,202.252 L 840.232,190.755 L 852.748,181.662 L 866.881,175.37 L 882.013,172.153 L 897.483,172.153 L 912.615,175.37 L 926.748,181.662 L 939.264,190.755 L 949.615,202.252 L 957.35,215.65 L 962.131,230.363 L 963.748,245.748 L 962.131,261.133 L 957.35,275.847 L 949.615,289.244 L 939.264,300.741 L 926.748,309.834 L 919.748,312.951 L 919.748,478.546 L 926.748,481.662 L 939.264,490.755 L 949.615,502.252 L 957.35,515.65 L 962.131,530.363 L 963.748,545.748 L 962.131,561.133 L 957.35,575.847 L 949.615,589.244 L 939.264,600.741 L 926.748,609.834 L 912.615,616.126 L 897.483,619.343 L 882.013,619.343 L 866.881,616.126 L 852.748,609.834 L 840.232,600.741 L 829.881,589.244 L 822.146,575.847 L 817.365,561.133 L 815.748,545.748 L 817.365,530.363 L 822.146,515.65 L 829.881,502.252 L 840.232,490.755 L 852.748,481.662 L 859.748,478.546 z " style="fill-opacity:1.000000;fill:rgb(92,187,111);stroke:rgb(0,0,0);stroke-width:2"/></g>
<g fill-rule="evenodd"><path d="M 1259.75,478.546 L 1259.75,312.951 L 1252.75,309.834 L 1240.23,300.741 L 1229.88,289.244 L 1222.15,275.847 L 1217.37,261.133 L 1215.75,245.748 L 1217.37,230.363 L 1222.15,215.65 L 1229.88,202.252 L 1240.23,190.755 L 1252.75,181.662 L 1266.88,175.37 L 1282.01,172.153 L 1297.48,172.153 L 1312.62,175.37 L 1326.75,181.662 L 1339.26,190.755 L 1349.62,202.252 L 1357.35,215.65 L 1362.13,230.363 L 1363.75,245.748 L 1362.13,261.133 L 1357.35,275.847 L 1349.62,289.244 L 1339.26,300.741 L 1326.75,309.834 L 1319.75,312.95 L 1319.75,478.546 L 1326.75,481.662 L 1339.26,490.755 L 1349.62,502.252 L 1357.35,515.65 L 1362.13,530.363 L 1363.75,545.748 L 1362.13,561.133 L 1357.35,575.847 L 1349.62,589.244 L 1339.26,600.741 L 1326.75,609.834 L 1312.62,616.126 L 1297.48,619.343 L 1282.01,619.343 L 1266.88,616.126 L 1252.75,609.834 L 1240.23,600.741 L 1229.88,589.244 L 1222.15,575.847 L 1217.37,561.133 L 1215.75,545.748 L 1217.37,530.363 L 1222.15,515.65 L 1229.88,502.252 L 1240.23,490.755 L 1252.75,481.662 L 1259.75,478.546 z " style="fill-opacity:1.000000;fill:rgb(34,25,186);stroke:rgb(0,0,0);stroke-width:2"/></g>
</svg>
