<?xml version="1.0" standalone="no"?>
<!DOCTYPE svg PUBLIC "-//W3C//DTD SVG 1.1//EN"
"http://www.w3.org/Graphics/SVG/1.1/DTD/svg11.dtd">
<svg width="605.335" height="378.24" viewBox="0 0 12611.1 7880" version="1.1"
xmlns="http://www.w3.org/2000/svg"
xmlns:xlink="http://www.w3.org/1999/xlink">
<g fill-rule="evenodd"><path d="M 7874.14,7590 L 7872.76,7603.1 L 7868.69,7615.62 L 7862.11,7627.03 L 7853.29,7636.81 L 7842.64,7644.55 L 7830.61,7649.91 L 7817.73,7652.65 L 7804.56,7652.65 L 7791.68,7649.91 L 7779.65,7644.55 L 7768.99,7636.81 L 7760.18,7627.03 L 7753.6,7615.62 L 7749.53,7603.1 L 7748.15,7590 L 7749.53,7576.9 L 7753.6,7564.38 L 7760.18,7552.97 L 7768.99,7543.19 L 7779.65,7535.45 L 7791.68,7530.09 L 7804.56,7527.35 L 7817.73,7527.35 L 7830.61,7530.09 L 7842.64,7535.45 L 7853.29,7543.19 L 7862.11,7552.97 L 7868.69,7564.38 L 7872.76,7576.9 L 7874.14,7590 z " style="fill-opacity:1.000000;fill:rgb(103,198,105);stroke:rgb(0,0,0);stroke-width:2"/></g>
<g fill-rule="evenodd"><path d="M 8074.14,7590 L 8072.76,7603.1 L 8068.69,7615.62 L 8062.11,7627.03 L 8053.29,7636.81 L 8042.64,7644.55 L 8030.61,7649.91 L 8017.73,7652.65 L 8004.56,7652.65 L 7991.68,7649.91 L 7979.65,7644.55 L 7968.99,7636.81 L 7960.18,7627.03 L 7953.6,7615.62 L 7949.53,7603.1 L 7948.15,7590 L 7949.53,7576.9 L 7953.6,7564.38 L 7960.18,7552.97 L 7968.99,7543.19 L 7979.65,7535.45 L 7991.68,7530.09 L 8004.56,7527.35 L 8017.73,7527.35 L 8030.61,7530.09 L 8042.64,7535.45 L 8053.29,7543.19 L 8062.11,7552.97 L 8068.69,7564.38 L 8072.76,7576.9 L 8074.14,7590 z " style="fill-opacity:1.000000;fill:rgb(115,81,255);stroke:rgb(0,0,0);stroke-width:2"/></g>
<g fill-rule="evenodd"><path d="M 8274.14,7590 L 8272.76,7603.1 L 8268.69,7615.62 L 8262.11,7627.03 L 8253.29,7636.81 L 8242.64,7644.55 L 8230.61,7649.91 L 8217.73,7652.65 L 8204.56,7652.65 L 8191.68,7649.91 L 8179.65,7644.55 L 8168.99,7636.81 L 8160.18,7627.03 L 8153.6,7615.62 L 8149.53,7603.1 L 8148.15,7590 L 8149.53,7576.9 L 8153.6,7564.38 L 8160.18,7552.97 L 8168.99,7543.19 L 8179.65,7535.45 L 8191.68,7530.09 L 8204.56,7527.35 L 8217.73,7527.35 L 8230.61,7530.09 L 8242.64,7535.45 L 8253.29,7543.19 L 8262.11,7552.97 L 8268.69,7564.38 L 8272.76,7576.9 L 8274.14,7590 z " style="fill-opacity:1.000000;fill:rgb(74,236,41);stroke:rgb(0,0,0);stroke-width:2"/></g>
<g fill-rule="evenodd"><path d="M 8474.14,7590 L 8472.76,7603.1 L 8468.69,7615.62 L 8462.11,7627.03 L 8453.29,7636.81 L 8442.64,7644.55 L 8430.61,7649.91 L 8417.73,7652.65 L 8404.56,7652.65 L 8391.68,7649.91 L 8379.65,7644.55 L 8368.99,7636.81 L 8360.18,7627.03 L 8353.6,7615.62 L 8349.53,7603.1 L 8348.15,7590 L 8349.53,7576.9 L 8353.6,7564.38 L 8360.18,7552.97 L 8368.99,7543.19 L 8379.65,7535.45 L 8391.68,7530.09 L 8404.56,7527.35 L 8417.73,7527.35 L 8430.61,7530.09 L 8442.64,7535.45 L 8453.29,7543.19 L 8462.11,7552.97 L 8468.69,7564.38 L 8472.76,7576.9 L 8474.14,7590 z " style="fill-opacity:1.000000;fill:rgb(205,186,171);stroke:rgb(0,0,0);stroke-width:2"/></g>
<g fill-rule="evenodd"><path d="M 7674.14,7590 L 7672.76,7603.1 L 7668.69,7615.62 L 7662.11,7627.03 L 7653.29,7636.81 L 7642.64,7644.55 L 7630.61,7649.91 L 7617.73,7652.65 L 7604.56,7652.65 L 7591.68,7649.91 L 7579.65,7644.55 L 7568.99,7636.81 L 7560.18,7627.03 L 7553.6,7615.62 L 7549.53,7603.1 L 7548.15,7590 L 7549.53,7576.9 L 7553.6,7564.38 L 7560.18,7552.97 L 7568.99,7543.19 L 7579.65,7535.45 L 7591.68,7530.09 L 7604.56,7527.35 L 7617.73,7527.35 L 7630.61,7530.09 L 7642.64,7535.45 L 7653.29,7543.19 L 7662.11,7552.97 L 7668.69,7564.38 L 7672.76,7576.9 L 7674.14,7590 z " style="fill-opacity:1.000000;fill:rgb(242,251,227);stroke:rgb(0,0,0);stroke-width:2"/></g>
<g fill-rule="evenodd"><path d="M 7274.14,7590 L 7272.76,7603.1 L 7268.69,7615.62 L 7262.11,7627.03 L 7253.29,7636.81 L 7242.64,7644.55 L 7230.61,7649.91 L 7217.73,7652.65 L 7204.56,7652.65 L 7191.68,7649.91 L 7179.65,7644.55 L 7168.99,7636.81 L 7160.18,7627.03 L 7153.6,7615.62 L 7149.53,7603.1 L 7148.15,7590 L 7149.53,7576.9 L 7153.6,7564.38 L 7160.18,7552.97 L 7168.99,7543.19 L 7179.65,7535.45 L 7191.68,7530.09 L 7204.56,7527.35 L 7217.73,7527.35 L 7230.61,7530.09 L 7242.64,7535.45 L 7253.29,7543.19 L 7262.11,7552.97 L 7268.69,7564.38 L 7272.76,7576.9 L 7274.14,7590 z " style="fill-opacity:1.000000;fill:rgb(70,124,194);stroke:rgb(0,0,0);stroke-width:2"/></g>
<g fill-rule="evenodd"><path d="M 8674.14,7590 L 8672.76,7603.1 L 8668.69,7615.62 L 8662.11,7627.03 L 8653.29,7636.81 L 8642.64,7644.55 L 8630.61,7649.91 L 8617.73,7652.65 L 8604.56,7652.65 L 8591.68,7649.91 L 8579.65,7644.55 L 8568.99,7636.81 L 8560.18,7627.03 L 8553.6,7615.62 L 8549.53,7603.1 L 8548.15,7590 L 8549.53,7576.9 L 8553.6,7564.38 L 8560.18,7552.97 L 8568.99,7543.19 L 8579.65,7535.45 L 8591.68,7530.09 L 8604.56,7527.35 L 8617.73,7527.35 L 8630.61,7530.09 L 8642.64,7535.45 L 8653.29,7543.19 L 8662.11,7552.97 L 8668.69,7564.38 L 8672.76,7576.9 L 8674.14,7590 z " style="fill-opacity:1.000000;fill:rgb(84,248,27);stroke:rgb(0,0,0);stroke-width:2"/></g>
<g fill-rule="evenodd"><path d="M 8874.14,7590 L 8872.76,7603.1 L 8868.69,7615.62 L 8862.11,7627.03 L 8853.29,7636.81 L 8842.64,7644.55 L 8830.61,7649.91 L 8817.73,7652.65 L 8804.56,7652.65 L 8791.68,7649.91 L 8779.65,7644.55 L 8768.99,7636.81 L 8760.18,7627.03 L 8753.6,7615.62 L 8749.53,7603.1 L 8748.15,7590 L 8749.53,7576.9 L 8753.6,7564.38 L 8760.18,7552.97 L 8768.99,7543.19 L 8779.65,7535.45 L 8791.68,7530.09 L 8804.56,7527.35 L 8817.73,7527.35 L 8830.61,7530.09 L 8842.64,7535.45 L 8853.29,7543.19 L 8862.11,7552.97 L 8868.69,7564.38 L 8872.76,7576.9 L 8874.14,7590 z " style="fill-opacity:1.000000;fill:rgb(232,231,141);stroke:rgb(0,0,0);stroke-width:2"/></g>
<g fill-rule="evenodd"><path d="M 9274.14,6390 L 9272.76,6403.1 L 9268.69,6415.62 L 9262.11,6427.03 L 9253.29,6436.81 L 9242.64,6444.55 L 9230.61,6449.91 L 9217.73,6452.65 L 9204.56,6452.65 L 9191.68,6449.91 L 9179.65,6444.55 L 9168.99,6436.81 L 9160.18,6427.03 L 9153.6,6415.62 L 9149.53,6403.1 L 9148.15,6390 L 9149.53,6376.9 L 9153.6,6364.38 L 9160.18,6352.97 L 9168.99,6343.19 L 9179.65,6335.45 L 9191.68,6330.09 L 9204.56,6327.35 L 9217.73,6327.35 L 9230.61,6330.09 L 9242.64,6335.45 L 9253.29,6343.19 L 9262.11,6352.97 L 9268.69,6364.38 L 9272.76,6376.9 L 9274.14,6390 z " style="fill-opacity:1.000000;fill:rgb(118,90,46);stroke:rgb(0,0,0);stroke-width:2"/></g>
<g fill-rule="evenodd"><path d="M 9074.14,6390 L 9072.76,6403.1 L 9068.69,6415.62 L 9062.11,6427.03 L 9053.29,6436.81 L 9042.64,6444.55 L 9030.61,6449.91 L 9017.73,6452.65 L 9004.56,6452.65 L 8991.68,6449.91 L 8979.65,6444.55 L 8968.99,6436.81 L 8960.18,6427.03 L 8953.6,6415.62 L 8949.53,6403.1 L 8948.15,6390 L 8949.53,6376.9 L 8953.6,6364.38 L 8960.18,6352.97 L 8968.99,6343.19 L 8979.65,6335.45 L 8991.68,6330.09 L 9004.56,6327.35 L 9017.73,6327.35 L 9030.61,6330.09 L 9042.64,6335.45 L 9053.29,6343.19 L 9062.11,6352.97 L 9068.69,6364.38 L 9072.76,6376.9 L 9074.14,6390 z " style="fill-opacity:1.000000;fill:rgb(99,51,159);stroke:rgb(0,0,0);stroke-width:2"/></g>
<g fill-rule="evenodd"><path d="M 7874.14,6390 L 7872.76,6403.1 L 7868.69,6415.62 L 7862.11,6427.03 L 7853.29,6436.81 L 7842.64,6444.55 L 7830.61,6449.91 L 7817.73,6452.65 L 7804.56,6452.65 L 7791.68,6449.91 L 7779.65,6444.55 L 7768.99,6436.81 L 7760.18,6427.03 L 7753.6,6415.62 L 7749.53,6403.1 L 7748.15,6390 L 7749.53,6376.9 L 7753.6,6364.38 L 7760.18,6352.97 L 7768.99,6343.19 L 7779.65,6335.45 L 7791.68,6330.09 L 7804.56,6327.35 L 7817.73,6327.35 L 7830.61,6330.09 L 7842.64,6335.45 L 7853.29,6343.19 L 7862.11,6352.97 L 7868.69,6364.38 L 7872.76,6376.9 L 7874.14,6390 z " style="fill-opacity:1.000000;fill:rgb(201,154,102);stroke:rgb(0,0,0);stroke-width:2"/></g>
<g fill-rule="evenodd"><path d="M 7074.14,7590 L 7072.76,7603.1 L 7068.69,7615.62 L 7062.11,7627.03 L 7053.29,7636.81 L 7042.64,7644.55 L 7030.61,7649.91 L 7017.73,7652.65 L 7004.56,7652.65 L 6991.68,7649.91 L 6979.65,7644.55 L 6968.99,7636.81 L 6960.18,7627.03 L 6953.6,7615.62 L 6949.53,7603.1 L 6948.15,7590 L 6949.53,7576.9 L 6953.6,7564.38 L 6960.18,7552.97 L 6968.99,7543.19 L 6979.65,7535.45 L 6991.68,7530.09 L 7004.56,7527.35 L 7017.73,7527.35 L 7030.61,7530.09 L 7042.64,7535.45 L 7053.29,7543.19 L 7062.11,7552.97 L 7068.69,7564.38 L 7072.76,7576.9 L 7074.14,7590 z " style="fill-opacity:1.000000;fill:rgb(50,13,183);stroke:rgb(0,0,0);stroke-width:2"/></g>
<g fill-rule="evenodd"><path d="M 6874.14,7590 L 6872.76,7603.1 L 6868.69,7615.62 L 6862.11,7627.03 L 6853.29,7636.81 L 6842.64,7644.55 L 6830.61,7649.91 L 6817.73,7652.65 L 6804.56,7652.65 L 6791.68,7649.91 L 6779.65,7644.55 L 6768.99,7636.81 L 6760.18,7627.03 L 6753.6,7615.62 L 6749.53,7603.1 L 6748.15,7590 L 6749.53,7576.9 L 6753.6,7564.38 L 6760.18,7552.97 L 6768.99,7543.19 L 6779.65,7535.45 L 6791.68,7530.09 L 6804.56,7527.35 L 6817.73,7527.35 L 6830.61,7530.09 L 6842.64,7535.45 L 6853.29,7543.19 L 6862.11,7552.97 L 6868.69,7564.38 L 6872.76,7576.9 L 6874.14,7590 z " style="fill-opacity:1.000000;fill:rgb(49,88,163);stroke:rgb(0,0,0);stroke-width:2"/></g>
<g fill-rule="evenodd"><path d="M 6674.14,7590 L 6672.76,7603.1 L 6668.69,7615.62 L 6662.11,7627.03 L 6653.29,7636.81 L 6642.64,7644.55 L 6630.61,7649.91 L 6617.73,7652.65 L 6604.56,7652.65 L 6591.68,7649.91 L 6579.65,7644.55 L 6568.99,7636.81 L 6560.18,7627.03 L 6553.6,7615.62 L 6549.53,7603.1 L 6548.15,7590 L 6549.53,7576.9 L 6553.6,7564.38 L 6560.18,7552.97 L 6568.99,7543.19 L 6579.65,7535.45 L 6591.68,7530.09 L 6604.56,7527.35 L 6617.73,7527.35 L 6630.61,7530.09 L 6642.64,7535.45 L 6653.29,7543.19 L 6662.11,7552.97 L 6668.69,7564.38 L 6672.76,7576.9 L 6674.14,7590 z " style="fill-opacity:1.000000;fill:rgb(90,37,93);stroke:rgb(0,0,0);stroke-width:2"/></g>
<g fill-rule="evenodd"><path d="M 6474.14,7590 L 6472.76,7603.1 L 6468.69,7615.62 L 6462.11,7627.03 L 6453.29,7636.81 L 6442.64,7644.55 L 6430.61,7649.91 L 6417.73,7652.65 L 6404.56,7652.65 L 6391.68,7649.91 L 6379.65,7644.55 L 6368.99,7636.81 L 6360.18,7627.03 L 6353.6,7615.62 L 6349.53,7603.1 L 6348.15,7590 L 6349.53,7576.9 L 6353.6,7564.38 L 6360.18,7552.97 L 6368.99,7543.19 L 6379.65,7535.45 L 6391.68,7530.09 L 6404.56,7527.35 L 6417.73,7527.35 L 6430.61,7530.09 L 6442.64,7535.45 L 6453.29,7543.19 L 6462.11,7552.97 L 6468.69,7564.38 L 6472.76,7576.9 L 6474.14,7590 z " style="fill-opacity:1.000000;fill:rgb(5,23,88);stroke:rgb(0,0,0);stroke-width:2"/></g>
<g fill-rule="evenodd"><path d="M 6274.14,7590 L 6272.76,7603.1 L 6268.69,7615.62 L 6262.11,7627.03 L 6253.29,7636.81 L 6242.64,7644.55 L 6230.61,7649.91 L 6217.73,7652.65 L 6204.56,7652.65 L 6191.68,7649.91 L 6179.65,7644.55 L 6168.99,7636.81 L 6160.18,7627.03 L 6153.6,7615.62 L 6149.53,7603.1 L 6148.15,7590 L 6149.53,7576.9 L 6153.6,7564.38 L 6160.18,7552.97 L 6168.99,7543.19 L 6179.65,7535.45 L 6191.68,7530.09 L 6204.56,7527.35 L 6217.73,7527.35 L 6230.61,7530.09 L 6242.64,7535.45 L 6253.29,7543.19 L 6262.11,7552.97 L 6268.69,7564.38 L 6272.76,7576.9 L 6274.14,7590 z " style="fill-opacity:1.000000;fill:rgb(233,94,212);stroke:rgb(0,0,0);stroke-width:2"/></g>
<g fill-rule="evenodd"><path d="M 6074.14,7590 L 6072.76,7603.1 L 6068.69,7615.62 L 6062.11,7627.03 L 6053.29,7636.81 L 6042.64,7644.55 L 6030.61,7649.91 L 6017.73,7652.65 L 6004.56,7652.65 L 5991.68,7649.91 L 5979.65,7644.55 L 5968.99,7636.81 L 5960.18,7627.03 L 5953.6,7615.62 L 5949.53,7603.1 L 5948.15,7590 L 5949.53,7576.9 L 5953.6,7564.38 L 5960.18,7552.97 L 5968.99,7543.19 L 5979.65,7535.45 L 5991.68,7530.09 L 6004.56,7527.35 L 6017.73,7527.35 L 6030.61,7530.09 L 6042.64,7535.45 L 6053.29,7543.19 L 6062.11,7552.97 L 6068.69,7564.38 L 6072.76,7576.9 L 6074.14,7590 z " style="fill-opacity:1.000000;fill:rgb(171,178,205);stroke:rgb(0,0,0);stroke-width:2"/></g>
<g fill-rule="evenodd"><path d="M 5874.14,7590 L 5872.76,7603.1 L 5868.69,7615.62 L 5862.11,7627.03 L 5853.29,7636.81 L 5842.64,7644.55 L 5830.61,7649.91 L 5817.73,7652.65 L 5804.56,7652.65 L 5791.68,7649.91 L 5779.65,7644.55 L 5768.99,7636.81 L 5760.18,7627.03 L 5753.6,7615.62 L 5749.53,7603.1 L 5748.15,7590 L 5749.53,7576.9 L 5753.6,7564.38 L 5760.18,7552.97 L 5768.99,7543.19 L 5779.65,7535.45 L 5791.68,7530.09 L 5804.56,7527.35 L 5817.73,7527.35 L 5830.61,7530.09 L 5842.64,7535.45 L 5853.29,7543.19 L 5862.11,7552.97 L 5868.69,7564.38 L 5872.76,7576.9 L 5874.14,7590 z " style="fill-opacity:1.000000;fill:rgb(198,155,180);stroke:rgb(0,0,0);stroke-width:2"/></g>
<g fill-rule="evenodd"><path d="M 5674.14,7590 L 5672.76,7603.1 L 5668.69,7615.62 L 5662.11,7627.03 L 5653.29,7636.81 L 5642.64,7644.55 L 5630.61,7649.91 L 5617.73,7652.65 L 5604.56,7652.65 L 5591.68,7649.91 L 5579.65,7644.55 L 5568.99,7636.81 L 5560.18,7627.03 L 5553.6,7615.62 L 5549.53,7603.1 L 5548.15,7590 L 5549.53,7576.9 L 5553.6,7564.38 L 5560.18,7552.97 L 5568.99,7543.19 L 5579.65,7535.45 L 5591.68,7530.09 L 5604.56,7527.35 L 5617.73,7527.35 L 5630.61,7530.09 L 5642.64,7535.45 L 5653.29,7543.19 L 5662.11,7552.97 L 5668.69,7564.38 L 5672.76,7576.9 L 5674.14,7590 z " style="fill-opacity:1.000000;fill:rgb(84,17,14);stroke:rgb(0,0,0);stroke-width:2"/></g>
<g fill-rule="evenodd"><path d="M 5474.14,7590 L 5472.76,7603.1 L 5468.69,7615.62 L 5462.11,7627.03 L 5453.29,7636.81 L 5442.64,7644.55 L 5430.61,7649.91 L 5417.73,7652.65 L 5404.56,7652.65 L 5391.68,7649.91 L 5379.65,7644.55 L 5368.99,7636.81 L 5360.18,7627.03 L 5353.6,7615.62 L 5349.53,7603.1 L 5348.15,7590 L 5349.53,7576.9 L 5353.6,7564.38 L 5360.18,7552.97 L 5368.99,7543.19 L 5379.65,7535.45 L 5391.68,7530.09 L 5404.56,7527.35 L 5417.73,7527.35 L 5430.61,7530.09 L 5442.64,7535.45 L 5453.29,7543.19 L 5462.11,7552.97 L 5468.69,7564.38 L 5472.76,7576.9 L 5474.14,7590 z " style="fill-opacity:1.000000;fill:rgb(130,116,65);stroke:rgb(0,0,0);stroke-width:2"/></g>
<g fill-rule="evenodd"><path d="M 5274.14,7590 L 5272.76,7603.1 L 5268.69,7615.62 L 5262.11,7627.03 L 5253.29,7636.81 L 5242.64,7644.55 L 5230.61,7649.91 L 5217.73,7652.65 L 5204.56,7652.65 L 5191.68,7649.91 L 5179.65,7644.55 L 5168.99,7636.81 L 5160.18,7627.03 L 5153.6,7615.62 L 5149.53,7603.1 L 5148.15,7590 L 5149.53,7576.9 L 5153.6,7564.38 L 5160.18,7552.97 L 5168.99,7543.19 L 5179.65,7535.45 L 5191.68,7530.09 L 5204.56,7527.35 L 5217.73,7527.35 L 5230.61,7530.09 L 5242.64,7535.45 L 5253.29,7543.19 L 5262.11,7552.97 L 5268.69,7564.38 L 5272.76,7576.9 L 5274.14,7590 z " style="fill-opacity:1.000000;fill:rgb(33,61,220);stroke:rgb(0,0,0);stroke-width:2"/></g>
<g fill-rule="evenodd"><path d="M 5074.14,7590 L 5072.76,7603.1 L 5068.69,7615.62 L 5062.11,7627.03 L 5053.29,7636.81 L 5042.64,7644.55 L 5030.61,7649.91 L 5017.73,7652.65 L 5004.56,7652.65 L 4991.68,7649.91 L 4979.65,7644.55 L 4968.99,7636.81 L 4960.18,7627.03 L 4953.6,7615.62 L 4949.53,7603.1 L 4948.15,7590 L 4949.53,7576.9 L 4953.6,7564.38 L 4960.18,7552.97 L 4968.99,7543.19 L 4979.65,7535.45 L 4991.68,7530.09 L 5004.56,7527.35 L 5017.73,7527.35 L 5030.61,7530.09 L 5042.64,7535.45 L 5053.29,7543.19 L 5062.11,7552.97 L 5068.69,7564.38 L 5072.76,7576.9 L 5074.14,7590 z " style="fill-opacity:1.000000;fill:rgb(135,112,233);stroke:rgb(0,0,0);stroke-width:2"/></g>
<g fill-rule="evenodd"><path d="M 4874.14,7590 L 4872.76,7603.1 L 4868.69,7615.62 L 4862.11,7627.03 L 4853.29,7636.81 L 4842.64,7644.55 L 4830.61,7649.91 L 4817.73,7652.65 L 4804.56,7652.65 L 4791.68,7649.91 L 4779.65,7644.55 L 4768.99,7636.81 L 4760.18,7627.03 L 4753.6,7615.62 L 4749.53,7603.1 L 4748.15,7590 L 4749.53,7576.9 L 4753.6,7564.38 L 4760.18,7552.97 L 4768.99,7543.19 L 4779.65,7535.45 L 4791.68,7530.09 L 4804.56,7527.35 L 4817.73,7527.35 L 4830.61,7530.09 L 4842.64,7535.45 L 4853.29,7543.19 L 4862.11,7552.97 L 4868.69,7564.38 L 4872.76,7576.9 L 4874.14,7590 z " style="fill-opacity:1.000000;fill:rgb(62,161,65);stroke:rgb(0,0,0);stroke-width:2"/></g>
<g fill-rule="evenodd"><path d="M 7474.14,6390 L 7472.76,6403.1 L 7468.69,6415.62 L 7462.11,6427.03 L 7453.29,6436.81 L 7442.64,6444.55 L 7430.61,6449.91 L 7417.73,6452.65 L 7404.56,6452.65 L 7391.68,6449.91 L 7379.65,6444.55 L 7368.99,6436.81 L 7360.18,6427.03 L 7353.6,6415.62 L 7349.53,6403.1 L 7348.15,6390 L 7349.53,6376.9 L 7353.6,6364.38 L 7360.18,6352.97 L 7368.99,6343.19 L 7379.65,6335.45 L 7391.68,6330.09 L 7404.56,6327.35 L 7417.73,6327.35 L 7430.61,6330.09 L 7442.64,6335.45 L 7453.29,6343.19 L 7462.11,6352.97 L 7468.69,6364.38 L 7472.76,6376.9 L 7474.14,6390 z " style="fill-opacity:1.000000;fill:rgb(225,252,103);stroke:rgb(0,0,0);stroke-width:2"/></g>
<g fill-rule="evenodd"><path d="M 7274.14,6390 L 7272.76,6403.1 L 7268.69,6415.62 L 7262.11,6427.03 L 7253.29,6436.81 L 7242.64,6444.55 L 7230.61,6449.91 L 7217.73,6452.65 L 7204.56,6452.65 L 7191.68,6449.91 L 7179.65,6444.55 L 7168.99,6436.81 L 7160.18,6427.03 L 7153.6,6415.62 L 7149.53,6403.1 L 7148.15,6390 L 7149.53,6376.9 L 7153.6,6364.38 L 7160.18,6352.97 L 7168.99,6343.19 L 7179.65,6335.45 L 7191.68,6330.09 L 7204.56,6327.35 L 7217.73,6327.35 L 7230.61,6330.09 L 7242.64,6335.45 L 7253.29,6343.19 L 7262.11,6352.97 L 7268.69,6364.38 L 7272.76,6376.9 L 7274.14,6390 z " style="fill-opacity:1.000000;fill:rgb(62,1,126);stroke:rgb(0,0,0);stroke-width:2"/></g>
<g fill-rule="evenodd"><path d="M 4874.14,6390 L 4872.76,6403.1 L 4868.69,6415.62 L 4862.11,6427.03 L 4853.29,6436.81 L 4842.64,6444.55 L 4830.61,6449.91 L 4817.73,6452.65 L 4804.56,6452.65 L 4791.68,6449.91 L 4779.65,6444.55 L 4768.99,6436.81 L 4760.18,6427.03 L 4753.6,6415.62 L 4749.53,6403.1 L 4748.15,6390 L 4749.53,6376.9 L 4753.6,6364.38 L 4760.18,6352.97 L 4768.99,6343.19 L 4779.65,6335.45 L 4791.68,6330.09 L 4804.56,6327.35 L 4817.73,6327.35 L 4830.61,6330.09 L 4842.64,6335.45 L 4853.29,6343.19 L 4862.11,6352.97 L 4868.69,6364.38 L 4872.76,6376.9 L 4874.14,6390 z " style="fill-opacity:1.000000;fill:rgb(151,234,220);stroke:rgb(0,0,0);stroke-width:2"/></g>
<g fill-rule="evenodd"><path d="M 4674.14,6390 L 4672.76,6403.1 L 4668.69,6415.62 L 4662.11,6427.03 L 4653.29,6436.81 L 4642.64,6444.55 L 4630.61,6449.91 L 4617.73,6452.65 L 4604.56,6452.65 L 4591.68,6449.91 L 4579.65,6444.55 L 4568.99,6436.81 L 4560.18,6427.03 L 4553.6,6415.62 L 4549.53,6403.1 L 4548.15,6390 L 4549.53,6376.9 L 4553.6,6364.38 L 4560.18,6352.97 L 4568.99,6343.19 L 4579.65,6335.45 L 4591.68,6330.09 L 4604.56,6327.35 L 4617.73,6327.35 L 4630.61,6330.09 L 4642.64,6335.45 L 4653.29,6343.19 L 4662.11,6352.97 L 4668.69,6364.38 L 4672.76,6376.9 L 4674.14,6390 z " style="fill-opacity:1.000000;fill:rgb(107,150,143);stroke:rgb(0,0,0);stroke-width:2"/></g>
<g fill-rule="evenodd"><path d="M 2536.14,3090 L 2536.14,1490 L 2537.58,1475.37 L 2541.85,1461.3 L 2548.78,1448.33 L 2558.11,1436.97 L 2569.48,1427.64 L 2582.44,1420.71 L 2596.51,1416.44 L 2611.14,1415 L 2625.78,1416.44 L 2639.84,1420.71 L 2652.81,1427.64 L 2664.18,1436.97 L 2673.5,1448.33 L 2680.43,1461.3 L 2684.7,1475.37 L 2686.14,1490 L 2686.14,1490 L 2686.14,3090 L 2684.7,3104.63 L 2680.43,3118.7 L 2673.5,3131.67 L 2664.18,3143.03 L 2652.81,3152.36 L 2639.84,3159.29 L 2625.78,3163.56 L 2611.14,3165 L 2596.51,3163.56 L 2582.44,3159.29 L 2569.48,3152.36 L 2558.11,3143.03 L 2548.78,3131.67 L 2541.85,3118.7 L 2537.58,3104.63 L 2536.14,3090 z " style="fill-opacity:1.000000;fill:rgb(56,92,42);stroke:rgb(0,0,0);stroke-width:2"/></g>
<g fill-rule="evenodd"><path d="M 4281.14,6455.35 L 4263.9,6455.35 L 4263.9,6384.49 L 4358.39,6384.49 L 4358.39,6455.35 L 4341.14,6455.35 L 4341.14,6490 L 4340.57,6495.85 L 4338.86,6501.48 L 4336.09,6506.67 L 4332.36,6511.21 L 4281.85,6561.72 L 4340.14,6620 L 5282.15,6620 L 5341.14,6561 L 5341.14,6390 L 5342.49,6376.34 L 5346.47,6363.21 L 5352.94,6351.11 L 5361.65,6340.5 L 5372.25,6331.8 L 5384.36,6325.33 L 5397.49,6321.35 L 5411.14,6320 L 5424.8,6321.35 L 5437.93,6325.33 L 5450.03,6331.8 L 5460.64,6340.5 L 5469.35,6351.11 L 5475.82,6363.21 L 5479.8,6376.34 L 5481.14,6390 L 5481.14,6590 L 5479.8,6603.66 L 5475.82,6616.79 L 5469.35,6628.89 L 5460.64,6639.5 L 5360.64,6739.5 L 5350.03,6748.2 L 5337.93,6754.67 L 5324.8,6758.65 L 5311.14,6760 L 4311.14,6760 L 4297.49,6758.65 L 4284.36,6754.67 L 4272.25,6748.2 L 4261.65,6739.5 L 2561.65,5039.5 L 2552.94,5028.89 L 2546.47,5016.79 L 2542.49,5003.66 L 2541.14,4990 L 2541.14,3765 L 2211.14,3765 L 2196.51,3763.56 L 2182.44,3759.29 L 2169.48,3752.36 L 2158.11,3743.03 L 2148.78,3731.67 L 2141.85,3718.7 L 2137.58,3704.63 L 2136.14,3690 L 2137.58,3675.37 L 2141.85,3661.3 L 2148.78,3648.33 L 2158.11,3636.97 L 2169.48,3627.64 L 2182.44,3620.71 L 2196.51,3616.44 L 2211.14,3615 L 2611.14,3615 L 2625.78,3616.44 L 2639.84,3620.71 L 2652.81,3627.64 L 2664.18,3636.97 L 2673.5,3648.33 L 2680.43,3661.3 L 2684.7,3675.37 L 2686.14,3689.92 L 2863.9,3689.92 L 2863.9,3684.49 L 2958.39,3684.49 L 2958.39,3755.35 L 2863.9,3755.35 L 2863.9,3749.92 L 2681.14,3749.92 L 2681.14,4961.01 L 4239.43,6519.29 L 4281.14,6477.57 L 4281.14,6455.35 z " style="fill-opacity:1.000000;fill:rgb(236,176,59);stroke:rgb(0,0,0);stroke-width:2"/></g>
<g fill-rule="evenodd"><path d="M 3141.14,2067.28 L 3141.14,1490 L 3142.49,1476.34 L 3146.47,1463.21 L 3152.94,1451.11 L 3161.65,1440.5 L 3172.25,1431.8 L 3184.36,1425.33 L 3197.49,1421.35 L 3211.14,1420 L 3224.8,1421.35 L 3237.93,1425.33 L 3250.03,1431.8 L 3260.64,1440.5 L 3269.35,1451.11 L 3275.82,1463.21 L 3279.8,1476.34 L 3281.14,1490 L 3281.14,2067.28 L 3283.53,2074.61 L 3285.14,2090 L 3283.53,2105.39 L 3278.75,2120.1 L 3271.01,2133.5 L 3260.66,2144.99 L 3248.14,2154.09 L 3234.01,2160.38 L 3218.88,2163.59 L 3203.41,2163.59 L 3188.28,2160.38 L 3174.14,2154.09 L 3161.63,2144.99 L 3151.28,2133.5 L 3143.54,2120.1 L 3138.76,2105.39 L 3137.14,2090 L 3138.76,2074.61 L 3141.14,2067.28 z " style="fill-opacity:1.000000;fill:rgb(251,50,175);stroke:rgb(0,0,0);stroke-width:2"/></g>
<g fill-rule="evenodd"><path d="M 4341.14,2067.28 L 4341.14,1490 L 4342.49,1476.34 L 4346.47,1463.21 L 4352.94,1451.11 L 4361.65,1440.5 L 4372.25,1431.8 L 4384.36,1425.33 L 4397.49,1421.35 L 4411.14,1420 L 4424.8,1421.35 L 4437.93,1425.33 L 4450.03,1431.8 L 4460.64,1440.5 L 4469.35,1451.11 L 4475.82,1463.21 L 4479.8,1476.34 L 4481.14,1490 L 4481.14,2067.28 L 4483.53,2074.61 L 4485.14,2090 L 4483.53,2105.39 L 4478.75,2120.1 L 4471.01,2133.5 L 4460.66,2144.99 L 4448.14,2154.09 L 4434.01,2160.38 L 4418.88,2163.59 L 4403.41,2163.59 L 4388.28,2160.38 L 4374.14,2154.09 L 4361.63,2144.99 L 4351.28,2133.5 L 4343.54,2120.1 L 4338.76,2105.39 L 4337.14,2090 L 4338.76,2074.61 L 4341.14,2067.28 z " style="fill-opacity:1.000000;fill:rgb(60,84,236);stroke:rgb(0,0,0);stroke-width:2"/></g>
<g fill-rule="evenodd"><path d="M 5541.14,2067.28 L 5541.14,1490 L 5542.49,1476.34 L 5546.47,1463.21 L 5552.94,1451.11 L 5561.65,1440.5 L 5572.25,1431.8 L 5584.36,1425.33 L 5597.49,1421.35 L 5611.14,1420 L 5624.8,1421.35 L 5637.93,1425.33 L 5650.03,1431.8 L 5660.64,1440.5 L 5669.35,1451.11 L 5675.82,1463.21 L 5679.8,1476.34 L 5681.14,1490 L 5681.14,2067.28 L 5683.53,2074.61 L 5685.14,2090 L 5683.53,2105.39 L 5678.75,2120.1 L 5671.01,2133.5 L 5660.66,2144.99 L 5648.14,2154.09 L 5634.01,2160.38 L 5618.88,2163.59 L 5603.41,2163.59 L 5588.28,2160.38 L 5574.14,2154.09 L 5561.63,2144.99 L 5551.28,2133.5 L 5543.54,2120.1 L 5538.76,2105.39 L 5537.14,2090 L 5538.76,2074.61 L 5541.14,2067.28 z " style="fill-opacity:1.000000;fill:rgb(24,219,92);stroke:rgb(0,0,0);stroke-width:2"/></g>
<g fill-rule="evenodd"><path d="M 5381.14,427.88 L 5381.14,2190 L 5380.01,2202.54 L 5376.65,2214.68 L 5371.17,2226.01 L 5086.14,2701.06 L 5086.14,3090 L 5084.7,3104.63 L 5080.43,3118.7 L 5073.5,3131.67 L 5064.18,3143.03 L 5052.81,3152.36 L 5039.84,3159.29 L 5025.78,3163.56 L 5011.14,3165 L 4996.51,3163.56 L 4982.44,3159.29 L 4969.48,3152.36 L 4958.11,3143.03 L 4948.78,3131.67 L 4941.85,3118.7 L 4937.58,3104.63 L 4936.14,3090 L 4936.14,2690 L 4937.58,2675.37 L 4941.85,2661.3 L 4948.78,2648.33 L 4958.11,2636.97 L 4964.45,2631.76 L 5241.14,2170.61 L 5241.14,427.88 L 5238.06,422.539 L 5232.89,406.633 L 5231.14,390 L 5232.89,373.367 L 5238.06,357.461 L 5246.42,342.977 L 5257.61,330.548 L 5271.14,320.718 L 5286.42,313.915 L 5302.78,310.438 L 5319.51,310.438 L 5335.86,313.915 L 5351.14,320.718 L 5364.67,330.548 L 5375.86,342.977 L 5384.23,357.461 L 5389.4,373.367 L 5391.14,390 L 5389.4,406.633 L 5384.23,422.539 L 5381.14,427.88 z " style="fill-opacity:1.000000;fill:rgb(2,26,254);stroke:rgb(0,0,0);stroke-width:2"/></g>
<g fill-rule="evenodd"><path d="M 4687.63,423.519 L 4687.06,422.539 L 4681.89,406.633 L 4680.14,390 L 4681.89,373.367 L 4687.06,357.461 L 4695.42,342.977 L 4706.61,330.548 L 4720.14,320.718 L 4735.42,313.915 L 4751.78,310.438 L 4768.51,310.438 L 4784.86,313.915 L 4800.14,320.718 L 4813.67,330.548 L 4824.86,342.977 L 4833.23,357.461 L 4838.4,373.367 L 4840.14,390 L 4838.4,406.633 L 4833.23,422.539 L 4827.32,432.769 L 4781.14,1092.44 L 4781.14,2190 L 4780.01,2202.54 L 4776.65,2214.68 L 4771.17,2226.01 L 4486.14,2701.06 L 4486.14,3090 L 4484.7,3104.63 L 4480.43,3118.7 L 4473.5,3131.67 L 4464.18,3143.03 L 4452.81,3152.36 L 4439.84,3159.29 L 4425.78,3163.56 L 4411.14,3165 L 4396.51,3163.56 L 4382.44,3159.29 L 4369.48,3152.36 L 4358.11,3143.03 L 4348.78,3131.67 L 4341.85,3118.7 L 4337.58,3104.63 L 4336.14,3090 L 4336.14,2690 L 4337.58,2675.37 L 4341.85,2661.3 L 4348.78,2648.33 L 4358.11,2636.97 L 4364.45,2631.76 L 4641.14,2170.61 L 4641.14,1090 L 4641.31,1085.11 L 4687.63,423.519 z " style="fill-opacity:1.000000;fill:rgb(67,251,250);stroke:rgb(0,0,0);stroke-width:2"/></g>
<g fill-rule="evenodd"><path d="M 3718.49,441.438 L 3581.14,1097.25 L 3581.14,2190 L 3580.01,2202.54 L 3576.65,2214.68 L 3571.17,2226.01 L 3286.14,2701.06 L 3286.14,3090 L 3284.7,3104.63 L 3280.43,3118.7 L 3273.5,3131.67 L 3264.18,3143.03 L 3252.81,3152.36 L 3239.84,3159.29 L 3225.78,3163.56 L 3211.14,3165 L 3196.51,3163.56 L 3182.44,3159.29 L 3169.48,3152.36 L 3158.11,3143.03 L 3148.78,3131.67 L 3141.85,3118.7 L 3137.58,3104.63 L 3136.14,3090 L 3136.14,2690 L 3137.58,2675.37 L 3141.85,2661.3 L 3148.78,2648.33 L 3158.11,2636.97 L 3164.45,2631.76 L 3441.14,2170.61 L 3441.14,1090 L 3441.52,1082.79 L 3442.63,1075.65 L 3581.47,412.715 L 3579.49,406.633 L 3577.74,390 L 3579.49,373.367 L 3584.66,357.461 L 3593.02,342.977 L 3604.21,330.548 L 3617.74,320.718 L 3633.02,313.915 L 3649.38,310.438 L 3666.11,310.438 L 3682.46,313.915 L 3697.74,320.718 L 3711.27,330.548 L 3722.46,342.977 L 3730.83,357.461 L 3736,373.367 L 3737.74,390 L 3736,406.633 L 3730.83,422.539 L 3722.46,437.023 L 3718.49,441.438 z " style="fill-opacity:1.000000;fill:rgb(170,58,251);stroke:rgb(0,0,0);stroke-width:2"/></g>
<g fill-rule="evenodd"><path d="M 4272.94,437.827 L 4181.14,1094.87 L 4181.14,2190 L 4180.01,2202.54 L 4176.65,2214.68 L 4171.17,2226.01 L 3886.14,2701.06 L 3886.14,3090 L 3884.7,3104.63 L 3880.43,3118.7 L 3873.5,3131.67 L 3864.18,3143.03 L 3852.81,3152.36 L 3839.84,3159.29 L 3825.78,3163.56 L 3811.14,3165 L 3796.51,3163.56 L 3782.44,3159.29 L 3769.48,3152.36 L 3758.11,3143.03 L 3748.78,3131.67 L 3741.85,3118.7 L 3737.58,3104.63 L 3736.14,3090 L 3736.14,2690 L 3737.58,2675.37 L 3741.85,2661.3 L 3748.78,2648.33 L 3758.11,2636.97 L 3764.45,2631.76 L 4041.14,2170.61 L 4041.14,1090 L 4041.82,1080.31 L 4134.36,417.928 L 4130.69,406.633 L 4128.94,390 L 4130.69,373.367 L 4135.86,357.461 L 4144.22,342.977 L 4155.41,330.548 L 4168.94,320.718 L 4184.22,313.915 L 4200.58,310.438 L 4217.31,310.438 L 4233.66,313.915 L 4248.94,320.718 L 4262.47,330.548 L 4273.66,342.977 L 4282.03,357.461 L 4287.2,373.367 L 4288.94,390 L 4287.2,406.633 L 4282.03,422.539 L 4273.66,437.023 L 4272.94,437.827 z " style="fill-opacity:1.000000;fill:rgb(41,209,230);stroke:rgb(0,0,0);stroke-width:2"/></g>
<g fill-rule="evenodd"><path d="M 6118.49,441.438 L 5981.14,1097.25 L 5981.14,2190 L 5980.01,2202.54 L 5976.65,2214.68 L 5971.17,2226.01 L 5686.14,2701.06 L 5686.14,3090 L 5684.7,3104.63 L 5680.43,3118.7 L 5673.5,3131.67 L 5664.18,3143.03 L 5652.81,3152.36 L 5639.84,3159.29 L 5625.78,3163.56 L 5611.14,3165 L 5596.51,3163.56 L 5582.44,3159.29 L 5569.48,3152.36 L 5558.11,3143.03 L 5548.78,3131.67 L 5541.85,3118.7 L 5537.58,3104.63 L 5536.14,3090 L 5536.14,2690 L 5537.58,2675.37 L 5541.85,2661.3 L 5548.78,2648.33 L 5558.11,2636.97 L 5564.45,2631.76 L 5841.14,2170.61 L 5841.14,1090 L 5841.52,1082.79 L 5842.63,1075.65 L 5981.47,412.715 L 5979.49,406.633 L 5977.74,390 L 5979.49,373.367 L 5984.66,357.461 L 5993.02,342.977 L 6004.21,330.548 L 6017.74,320.718 L 6033.02,313.915 L 6049.38,310.438 L 6066.11,310.438 L 6082.46,313.915 L 6097.74,320.718 L 6111.27,330.548 L 6122.46,342.977 L 6130.83,357.461 L 6136,373.367 L 6137.74,390 L 6136,406.633 L 6130.83,422.539 L 6122.46,437.023 L 6118.49,441.438 z " style="fill-opacity:1.000000;fill:rgb(5,60,124);stroke:rgb(0,0,0);stroke-width:2"/></g>
<g fill-rule="evenodd"><path d="M 6741.14,2067.28 L 6741.14,1490 L 6742.49,1476.34 L 6746.47,1463.21 L 6752.94,1451.11 L 6761.65,1440.5 L 6772.25,1431.8 L 6784.36,1425.33 L 6797.49,1421.35 L 6811.14,1420 L 6824.8,1421.35 L 6837.93,1425.33 L 6850.03,1431.8 L 6860.64,1440.5 L 6869.35,1451.11 L 6875.82,1463.21 L 6879.8,1476.34 L 6881.14,1490 L 6881.14,2067.28 L 6883.53,2074.61 L 6885.14,2090 L 6883.53,2105.39 L 6878.75,2120.1 L 6871.01,2133.5 L 6860.66,2144.99 L 6848.14,2154.09 L 6834.01,2160.38 L 6818.88,2163.59 L 6803.41,2163.59 L 6788.28,2160.38 L 6774.14,2154.09 L 6761.63,2144.99 L 6751.28,2133.5 L 6743.54,2120.1 L 6738.76,2105.39 L 6737.14,2090 L 6738.76,2074.61 L 6741.14,2067.28 z " style="fill-opacity:1.000000;fill:rgb(148,117,216);stroke:rgb(0,0,0);stroke-width:2"/></g>
<g fill-rule="evenodd"><path d="M 8541.14,2067.28 L 8541.14,1490 L 8542.49,1476.34 L 8546.47,1463.21 L 8552.94,1451.11 L 8561.65,1440.5 L 8572.25,1431.8 L 8584.36,1425.33 L 8597.49,1421.35 L 8611.14,1420 L 8624.8,1421.35 L 8637.93,1425.33 L 8650.03,1431.8 L 8660.64,1440.5 L 8669.35,1451.11 L 8675.82,1463.21 L 8679.8,1476.34 L 8681.14,1490 L 8681.14,2067.28 L 8683.53,2074.61 L 8685.14,2090 L 8683.53,2105.39 L 8678.75,2120.1 L 8671.01,2133.5 L 8660.66,2144.99 L 8648.14,2154.09 L 8634.01,2160.38 L 8618.88,2163.59 L 8603.41,2163.59 L 8588.28,2160.38 L 8574.14,2154.09 L 8561.63,2144.99 L 8551.28,2133.5 L 8543.54,2120.1 L 8538.76,2105.39 L 8537.14,2090 L 8538.76,2074.61 L 8541.14,2067.28 z " style="fill-opacity:1.000000;fill:rgb(190,97,137);stroke:rgb(0,0,0);stroke-width:2"/></g>
<g fill-rule="evenodd"><path d="M 9141.14,2067.28 L 9141.14,1490 L 9142.49,1476.34 L 9146.47,1463.21 L 9152.94,1451.11 L 9161.65,1440.5 L 9172.25,1431.8 L 9184.36,1425.33 L 9197.49,1421.35 L 9211.14,1420 L 9224.8,1421.35 L 9237.93,1425.33 L 9250.03,1431.8 L 9260.64,1440.5 L 9269.35,1451.11 L 9275.82,1463.21 L 9279.8,1476.34 L 9281.14,1490 L 9281.14,2067.28 L 9283.53,2074.61 L 9285.14,2090 L 9283.53,2105.39 L 9278.75,2120.1 L 9271.01,2133.5 L 9260.66,2144.99 L 9248.14,2154.09 L 9234.01,2160.38 L 9218.88,2163.59 L 9203.41,2163.59 L 9188.28,2160.38 L 9174.14,2154.09 L 9161.63,2144.99 L 9151.28,2133.5 L 9143.54,2120.1 L 9138.76,2105.39 L 9137.14,2090 L 9138.76,2074.61 L 9141.14,2067.28 z " style="fill-opacity:1.000000;fill:rgb(249,92,187);stroke:rgb(0,0,0);stroke-width:2"/></g>
<g fill-rule="evenodd"><path d="M 7941.14,2067.28 L 7941.14,1490 L 7942.49,1476.34 L 7946.47,1463.21 L 7952.94,1451.11 L 7961.65,1440.5 L 7972.25,1431.8 L 7984.36,1425.33 L 7997.49,1421.35 L 8011.14,1420 L 8024.8,1421.35 L 8037.93,1425.33 L 8050.03,1431.8 L 8060.64,1440.5 L 8069.35,1451.11 L 8075.82,1463.21 L 8079.8,1476.34 L 8081.14,1490 L 8081.14,2067.28 L 8083.53,2074.61 L 8085.14,2090 L 8083.53,2105.39 L 8078.75,2120.1 L 8071.01,2133.5 L 8060.66,2144.99 L 8048.14,2154.09 L 8034.01,2160.38 L 8018.88,2163.59 L 8003.41,2163.59 L 7988.28,2160.38 L 7974.14,2154.09 L 7961.63,2144.99 L 7951.28,2133.5 L 7943.54,2120.1 L 7938.76,2105.39 L 7937.14,2090 L 7938.76,2074.61 L 7941.14,2067.28 z " style="fill-opacity:1.000000;fill:rgb(168,153,15);stroke:rgb(0,0,0);stroke-width:2"/></g>
<g fill-rule="evenodd"><path d="M 7181.14,466.875 L 7181.14,2190 L 7180.01,2202.54 L 7176.65,2214.68 L 7171.17,2226.01 L 6886.14,2701.06 L 6886.14,3090 L 6884.7,3104.63 L 6880.43,3118.7 L 6873.5,3131.67 L 6864.18,3143.03 L 6852.81,3152.36 L 6839.84,3159.29 L 6825.78,3163.56 L 6811.14,3165 L 6796.51,3163.56 L 6782.44,3159.29 L 6769.48,3152.36 L 6758.11,3143.03 L 6748.78,3131.67 L 6741.85,3118.7 L 6737.58,3104.63 L 6736.14,3090 L 6736.14,2690 L 6737.58,2675.37 L 6741.85,2661.3 L 6748.78,2648.33 L 6758.11,2636.97 L 6764.45,2631.76 L 7041.14,2170.61 L 7041.14,439 L 7042.49,425.344 L 7046.47,412.212 L 7052.94,400.11 L 7061.65,389.503 L 7072.25,380.797 L 7081.64,375.781 L 7081.89,373.367 L 7087.06,357.461 L 7095.42,342.977 L 7106.61,330.548 L 7120.14,320.718 L 7135.42,313.915 L 7151.78,310.438 L 7168.51,310.438 L 7184.86,313.915 L 7200.14,320.718 L 7213.67,330.548 L 7224.86,342.977 L 7233.23,357.461 L 7238.4,373.367 L 7240.14,390 L 7238.4,406.633 L 7233.23,422.539 L 7224.86,437.023 L 7213.67,449.452 L 7200.14,459.282 L 7184.86,466.085 L 7181.14,466.875 z " style="fill-opacity:1.000000;fill:rgb(149,177,235);stroke:rgb(0,0,0);stroke-width:2"/></g>
<g fill-rule="evenodd"><path d="M 7781.14,427.88 L 7781.14,2190 L 7780.01,2202.54 L 7776.65,2214.68 L 7771.17,2226.01 L 7486.14,2701.06 L 7486.14,3090 L 7484.7,3104.63 L 7480.43,3118.7 L 7473.5,3131.67 L 7464.18,3143.03 L 7452.81,3152.36 L 7439.84,3159.29 L 7425.78,3163.56 L 7411.14,3165 L 7396.51,3163.56 L 7382.44,3159.29 L 7369.48,3152.36 L 7358.11,3143.03 L 7348.78,3131.67 L 7341.85,3118.7 L 7337.58,3104.63 L 7336.14,3090 L 7336.14,2690 L 7337.58,2675.37 L 7341.85,2661.3 L 7348.78,2648.33 L 7358.11,2636.97 L 7364.45,2631.76 L 7641.14,2170.61 L 7641.14,427.878 L 7638.06,422.539 L 7632.89,406.633 L 7631.14,390 L 7632.89,373.367 L 7638.06,357.461 L 7646.42,342.977 L 7657.61,330.548 L 7671.14,320.718 L 7686.42,313.915 L 7702.78,310.438 L 7719.51,310.438 L 7735.86,313.915 L 7751.14,320.718 L 7764.67,330.548 L 7775.86,342.977 L 7784.23,357.461 L 7789.4,373.367 L 7791.14,390 L 7789.4,406.633 L 7784.23,422.539 L 7781.14,427.88 z " style="fill-opacity:1.000000;fill:rgb(241,179,5);stroke:rgb(0,0,0);stroke-width:2"/></g>
<g fill-rule="evenodd"><path d="M 6672.94,437.827 L 6581.14,1094.87 L 6581.14,2190 L 6580.01,2202.54 L 6576.65,2214.68 L 6571.17,2226.01 L 6286.14,2701.06 L 6286.14,3090 L 6284.7,3104.63 L 6280.43,3118.7 L 6273.5,3131.67 L 6264.18,3143.03 L 6252.81,3152.36 L 6239.84,3159.29 L 6225.78,3163.56 L 6211.14,3165 L 6196.51,3163.56 L 6182.44,3159.29 L 6169.48,3152.36 L 6158.11,3143.03 L 6148.78,3131.67 L 6141.85,3118.7 L 6137.58,3104.63 L 6136.14,3090 L 6136.14,2690 L 6137.58,2675.37 L 6141.85,2661.3 L 6148.78,2648.33 L 6158.11,2636.97 L 6164.45,2631.76 L 6441.14,2170.61 L 6441.14,1090 L 6441.82,1080.31 L 6534.36,417.926 L 6530.69,406.633 L 6528.94,390 L 6530.69,373.367 L 6535.86,357.461 L 6544.22,342.977 L 6555.41,330.548 L 6568.94,320.718 L 6584.22,313.915 L 6600.58,310.438 L 6617.31,310.438 L 6633.66,313.915 L 6648.94,320.718 L 6662.47,330.548 L 6673.66,342.977 L 6682.03,357.461 L 6687.2,373.367 L 6688.94,390 L 6687.2,406.633 L 6682.03,422.539 L 6673.66,437.023 L 6672.94,437.827 z " style="fill-opacity:1.000000;fill:rgb(239,247,0);stroke:rgb(0,0,0);stroke-width:2"/></g>
<g fill-rule="evenodd"><path d="M 8518.49,441.438 L 8381.14,1097.25 L 8381.14,2190 L 8380.01,2202.54 L 8376.65,2214.68 L 8371.17,2226.01 L 8086.14,2701.06 L 8086.14,3090 L 8084.7,3104.63 L 8080.43,3118.7 L 8073.5,3131.67 L 8064.18,3143.03 L 8052.81,3152.36 L 8039.84,3159.29 L 8025.78,3163.56 L 8011.14,3165 L 7996.51,3163.56 L 7982.44,3159.29 L 7969.48,3152.36 L 7958.11,3143.03 L 7948.78,3131.67 L 7941.85,3118.7 L 7937.58,3104.63 L 7936.14,3090 L 7936.14,2690 L 7937.58,2675.37 L 7941.85,2661.3 L 7948.78,2648.33 L 7958.11,2636.97 L 7964.45,2631.76 L 8241.14,2170.61 L 8241.14,1090 L 8241.52,1082.79 L 8242.63,1075.65 L 8381.47,412.716 L 8379.49,406.633 L 8377.74,390 L 8379.49,373.367 L 8384.66,357.461 L 8393.02,342.977 L 8404.21,330.548 L 8417.74,320.718 L 8433.02,313.915 L 8449.38,310.438 L 8466.11,310.438 L 8482.46,313.915 L 8497.74,320.718 L 8511.27,330.548 L 8522.46,342.977 L 8530.83,357.461 L 8536,373.367 L 8537.74,390 L 8536,406.633 L 8530.83,422.539 L 8522.46,437.023 L 8518.49,441.438 z " style="fill-opacity:1.000000;fill:rgb(233,161,58);stroke:rgb(0,0,0);stroke-width:2"/></g>
<g fill-rule="evenodd"><path d="M 9075.62,433.635 L 8981.14,1094.97 L 8981.14,2190 L 8980.01,2202.54 L 8976.65,2214.68 L 8971.17,2226.01 L 8686.14,2701.06 L 8686.14,3090 L 8684.7,3104.63 L 8680.43,3118.7 L 8673.5,3131.67 L 8664.18,3143.03 L 8652.81,3152.36 L 8639.84,3159.29 L 8625.78,3163.56 L 8611.14,3165 L 8596.51,3163.56 L 8582.44,3159.29 L 8569.48,3152.36 L 8558.11,3143.03 L 8548.78,3131.67 L 8541.85,3118.7 L 8537.58,3104.63 L 8536.14,3090 L 8536.14,2690 L 8537.58,2675.37 L 8541.85,2661.3 L 8548.78,2648.33 L 8558.11,2636.97 L 8564.45,2631.76 L 8841.14,2170.61 L 8841.14,1090 L 8841.85,1080.1 L 8935.81,422.376 L 8930.69,406.633 L 8928.94,390 L 8930.69,373.367 L 8935.86,357.461 L 8944.22,342.977 L 8955.41,330.548 L 8968.94,320.718 L 8984.22,313.915 L 9000.58,310.438 L 9017.31,310.438 L 9033.66,313.915 L 9048.94,320.718 L 9062.47,330.548 L 9073.66,342.977 L 9082.03,357.461 L 9087.2,373.367 L 9088.94,390 L 9087.2,406.633 L 9082.03,422.539 L 9075.62,433.635 z " style="fill-opacity:1.000000;fill:rgb(229,202,11);stroke:rgb(0,0,0);stroke-width:2"/></g>
<g fill-rule="evenodd"><path d="M 10941.1,2067.28 L 10941.1,1490 L 10942.5,1476.34 L 10946.5,1463.21 L 10952.9,1451.11 L 10961.6,1440.5 L 10972.3,1431.8 L 10984.4,1425.33 L 10997.5,1421.35 L 11011.1,1420 L 11024.8,1421.35 L 11037.9,1425.33 L 11050,1431.8 L 11060.6,1440.5 L 11069.3,1451.11 L 11075.8,1463.21 L 11079.8,1476.34 L 11081.1,1490 L 11081.1,2067.28 L 11083.5,2074.61 L 11085.1,2090 L 11083.5,2105.39 L 11078.7,2120.1 L 11071,2133.5 L 11060.7,2144.99 L 11048.1,2154.09 L 11034,2160.38 L 11018.9,2163.59 L 11003.4,2163.59 L 10988.3,2160.38 L 10974.1,2154.09 L 10961.6,2144.99 L 10951.3,2133.5 L 10943.5,2120.1 L 10938.8,2105.39 L 10937.1,2090 L 10938.8,2074.61 L 10941.1,2067.28 z " style="fill-opacity:1.000000;fill:rgb(203,208,72);stroke:rgb(0,0,0);stroke-width:2"/></g>
<g fill-rule="evenodd"><path d="M 9741.14,2067.28 L 9741.14,1490 L 9742.49,1476.34 L 9746.47,1463.21 L 9752.94,1451.11 L 9761.65,1440.5 L 9772.25,1431.8 L 9784.36,1425.33 L 9797.49,1421.35 L 9811.14,1420 L 9824.8,1421.35 L 9837.93,1425.33 L 9850.03,1431.8 L 9860.64,1440.5 L 9869.35,1451.11 L 9875.82,1463.21 L 9879.8,1476.34 L 9881.14,1490 L 9881.14,2067.28 L 9883.53,2074.61 L 9885.14,2090 L 9883.53,2105.39 L 9878.75,2120.1 L 9871.01,2133.5 L 9860.66,2144.99 L 9848.14,2154.09 L 9834.01,2160.38 L 9818.88,2163.59 L 9803.41,2163.59 L 9788.28,2160.38 L 9774.14,2154.09 L 9761.63,2144.99 L 9751.28,2133.5 L 9743.54,2120.1 L 9738.76,2105.39 L 9737.14,2090 L 9738.76,2074.61 L 9741.14,2067.28 z " style="fill-opacity:1.000000;fill:rgb(71,100,189);stroke:rgb(0,0,0);stroke-width:2"/></g>
<g fill-rule="evenodd"><path d="M 10341.1,2067.28 L 10341.1,1490 L 10342.5,1476.34 L 10346.5,1463.21 L 10352.9,1451.11 L 10361.6,1440.5 L 10372.3,1431.8 L 10384.4,1425.33 L 10397.5,1421.35 L 10411.1,1420 L 10424.8,1421.35 L 10437.9,1425.33 L 10450,1431.8 L 10460.6,1440.5 L 10469.3,1451.11 L 10475.8,1463.21 L 10479.8,1476.34 L 10481.1,1490 L 10481.1,2067.28 L 10483.5,2074.61 L 10485.1,2090 L 10483.5,2105.39 L 10478.7,2120.1 L 10471,2133.5 L 10460.7,2144.99 L 10448.1,2154.09 L 10434,2160.38 L 10418.9,2163.59 L 10403.4,2163.59 L 10388.3,2160.38 L 10374.1,2154.09 L 10361.6,2144.99 L 10351.3,2133.5 L 10343.5,2120.1 L 10338.8,2105.39 L 10337.1,2090 L 10338.8,2074.61 L 10341.1,2067.28 z " style="fill-opacity:1.000000;fill:rgb(31,35,30);stroke:rgb(0,0,0);stroke-width:2"/></g>
<g fill-rule="evenodd"><path d="M 11541.1,2067.28 L 11541.1,1490 L 11542.5,1476.34 L 11546.5,1463.21 L 11552.9,1451.11 L 11561.6,1440.5 L 11572.3,1431.8 L 11584.4,1425.33 L 11597.5,1421.35 L 11611.1,1420 L 11624.8,1421.35 L 11637.9,1425.33 L 11650,1431.8 L 11660.6,1440.5 L 11669.3,1451.11 L 11675.8,1463.21 L 11679.8,1476.34 L 11681.1,1490 L 11681.1,2067.28 L 11683.5,2074.61 L 11685.1,2090 L 11683.5,2105.39 L 11678.7,2120.1 L 11671,2133.5 L 11660.7,2144.99 L 11648.1,2154.09 L 11634,2160.38 L 11618.9,2163.59 L 11603.4,2163.59 L 11588.3,2160.38 L 11574.1,2154.09 L 11561.6,2144.99 L 11551.3,2133.5 L 11543.5,2120.1 L 11538.8,2105.39 L 11537.1,2090 L 11538.8,2074.61 L 11541.1,2067.28 z " style="fill-opacity:1.000000;fill:rgb(168,28,123);stroke:rgb(0,0,0);stroke-width:2"/></g>
<g fill-rule="evenodd"><path d="M 9627.32,432.769 L 9581.14,1092.44 L 9581.14,2190 L 9580.01,2202.54 L 9576.65,2214.68 L 9571.17,2226.01 L 9286.14,2701.06 L 9286.14,3090 L 9284.7,3104.63 L 9280.43,3118.7 L 9273.5,3131.67 L 9264.18,3143.03 L 9252.81,3152.36 L 9239.84,3159.29 L 9225.78,3163.56 L 9211.14,3165 L 9196.51,3163.56 L 9182.44,3159.29 L 9169.48,3152.36 L 9158.11,3143.03 L 9148.78,3131.67 L 9141.85,3118.7 L 9137.58,3104.63 L 9136.14,3090 L 9136.14,2690 L 9137.58,2675.37 L 9141.85,2661.3 L 9148.78,2648.33 L 9158.11,2636.97 L 9164.45,2631.76 L 9441.14,2170.61 L 9441.14,1090 L 9441.31,1085.11 L 9487.62,423.517 L 9487.06,422.539 L 9481.89,406.633 L 9480.14,390 L 9481.89,373.367 L 9487.06,357.461 L 9495.42,342.977 L 9506.61,330.548 L 9520.14,320.718 L 9535.42,313.915 L 9551.78,310.438 L 9568.51,310.438 L 9584.86,313.915 L 9600.14,320.718 L 9613.67,330.548 L 9624.86,342.977 L 9633.23,357.461 L 9638.4,373.367 L 9640.14,390 L 9638.4,406.633 L 9633.23,422.539 L 9627.32,432.769 z " style="fill-opacity:1.000000;fill:rgb(100,197,20);stroke:rgb(0,0,0);stroke-width:2"/></g>
<g fill-rule="evenodd"><path d="M 6278.78,3660 L 6481.22,3660 L 6487.07,3660.58 L 6492.7,3662.28 L 6497.89,3665.06 L 6502.43,3668.79 L 6506.17,3673.33 L 6508.94,3678.52 L 6510.65,3684.15 L 6510.68,3684.49 L 6558.39,3684.49 L 6558.39,3755.35 L 6463.9,3755.35 L 6463.9,3720 L 6281.14,3720 L 6281.14,3761.01 L 6660.64,4140.5 L 6667.77,4148.86 L 6673.51,4158.22 L 6677.72,4168.37 L 6680.28,4179.05 L 6681.14,4190 L 6681.14,6390 L 6679.8,6403.66 L 6675.82,6416.79 L 6669.35,6428.89 L 6660.64,6439.5 L 6650.03,6448.2 L 6641.14,6452.95 L 6641.14,6954.54 L 6658.39,6954.54 L 6658.39,7025.41 L 6563.9,7025.41 L 6563.9,6954.54 L 6581.14,6954.54 L 6581.14,6452.95 L 6572.25,6448.2 L 6561.65,6439.5 L 6552.94,6428.89 L 6546.47,6416.79 L 6542.49,6403.66 L 6541.14,6390 L 6541.14,4218.99 L 6161.65,3839.5 L 6154.51,3831.14 L 6148.77,3821.78 L 6144.57,3811.63 L 6142.01,3800.95 L 6141.14,3790 L 6141.14,3712.72 L 6138.76,3705.39 L 6137.14,3690 L 6138.76,3674.61 L 6143.54,3659.9 L 6151.28,3646.5 L 6161.63,3635.01 L 6174.14,3625.91 L 6188.28,3619.62 L 6203.41,3616.41 L 6218.88,3616.41 L 6234.01,3619.62 L 6248.14,3625.91 L 6260.66,3635.01 L 6271.01,3646.5 L 6278.75,3659.9 L 6278.78,3660 z " style="fill-opacity:1.000000;fill:rgb(115,90,197);stroke:rgb(0,0,0);stroke-width:2"/></g>
<g fill-rule="evenodd"><path d="M 481.144,3721.54 L 481.144,3961.01 L 3699.95,7179.81 L 5311.14,7179.81 L 5324.8,7181.16 L 5337.93,7185.14 L 5350.03,7191.61 L 5360.64,7200.32 L 5369.35,7210.92 L 5374.1,7219.81 L 5563.9,7219.81 L 5563.9,7214.38 L 5658.39,7214.38 L 5658.39,7219.81 L 5763.9,7219.81 L 5763.9,7214.38 L 5858.39,7214.38 L 5858.39,7219.81 L 5963.9,7219.81 L 5963.9,7214.38 L 6058.39,7214.38 L 6058.39,7219.81 L 6163.9,7219.81 L 6163.9,7214.38 L 6258.39,7214.38 L 6258.39,7219.81 L 6363.9,7219.81 L 6363.9,7214.38 L 6458.39,7214.38 L 6458.39,7219.81 L 6563.9,7219.81 L 6563.9,7214.38 L 6658.39,7214.38 L 6658.39,7219.81 L 6763.9,7219.81 L 6763.9,7214.38 L 6858.39,7214.38 L 6858.39,7219.81 L 6963.9,7219.81 L 6963.9,7215.46 L 7058.39,7215.46 L 7058.39,7220.9 L 7341.14,7220.89 L 7341.14,7219.92 L 7342.49,7206.26 L 7346.47,7193.13 L 7352.94,7181.03 L 7361.65,7170.42 L 7372.25,7161.72 L 7384.36,7155.25 L 7397.49,7151.27 L 7411.14,7149.92 L 7424.8,7151.27 L 7434.45,7154.19 L 7563.9,7024.74 L 7563.9,6984.49 L 7658.39,6984.49 L 7658.39,6989.92 L 7963.9,6989.92 L 7963.9,6984.49 L 8058.39,6984.49 L 8058.39,6989.92 L 8163.9,6989.92 L 8163.9,6984.49 L 8258.39,6984.49 L 8258.39,6989.92 L 8363.9,6989.92 L 8363.9,6984.49 L 8458.39,6984.49 L 8458.39,6989.92 L 8563.9,6989.92 L 8563.9,6984.49 L 8658.39,6984.49 L 8658.39,6989.92 L 8763.9,6989.92 L 8763.9,6984.49 L 8858.39,6984.49 L 8858.39,7024.74 L 8863.73,7030.08 L 8963.9,7030.08 L 8963.9,7024.65 L 9058.39,7024.65 L 9058.39,7030.08 L 9163.9,7030.08 L 9163.9,7024.65 L 9258.39,7024.65 L 9258.39,7095.51 L 9163.9,7095.51 L 9163.9,7090.08 L 9058.39,7090.08 L 9058.39,7095.51 L 8963.9,7095.51 L 8963.9,7090.08 L 8851.3,7090.08 L 8846.61,7089.71 L 8842.03,7088.61 L 8837.68,7086.81 L 8833.67,7084.35 L 8830.09,7081.29 L 8804.15,7055.35 L 8763.9,7055.35 L 8763.9,7049.92 L 8658.39,7049.92 L 8658.39,7055.35 L 8563.9,7055.35 L 8563.9,7049.92 L 8458.39,7049.92 L 8458.39,7055.35 L 8363.9,7055.35 L 8363.9,7049.92 L 8258.39,7049.92 L 8258.39,7055.35 L 8163.9,7055.35 L 8163.9,7049.92 L 8058.39,7049.92 L 8058.39,7055.35 L 7963.9,7055.35 L 7963.9,7049.92 L 7658.39,7049.92 L 7658.39,7055.35 L 7618.13,7055.35 L 7476.87,7196.62 L 7479.8,7206.26 L 7481.14,7219.92 L 7481.14,7590 L 7479.8,7603.66 L 7475.82,7616.79 L 7469.35,7628.89 L 7460.64,7639.5 L 7450.03,7648.2 L 7437.93,7654.67 L 7424.8,7658.65 L 7411.14,7660 L 7397.49,7658.65 L 7384.36,7654.67 L 7372.25,7648.2 L 7361.65,7639.5 L 7352.94,7628.89 L 7346.47,7616.79 L 7342.49,7603.66 L 7341.14,7590 L 7341.14,7280.89 L 7058.39,7280.89 L 7058.39,7286.33 L 6963.9,7286.33 L 6963.9,7279.81 L 6858.39,7279.81 L 6858.39,7285.25 L 6763.9,7285.25 L 6763.9,7279.81 L 6658.39,7279.81 L 6658.39,7285.25 L 6563.9,7285.25 L 6563.9,7279.81 L 6458.39,7279.81 L 6458.39,7285.25 L 6363.9,7285.25 L 6363.9,7279.81 L 6258.39,7279.81 L 6258.39,7285.25 L 6163.9,7285.25 L 6163.9,7279.81 L 6058.39,7279.81 L 6058.39,7285.25 L 5963.9,7285.25 L 5963.9,7279.81 L 5858.39,7279.81 L 5858.39,7285.25 L 5763.9,7285.25 L 5763.9,7279.81 L 5658.39,7279.81 L 5658.39,7285.25 L 5563.9,7285.25 L 5563.9,7279.81 L 5374.1,7279.81 L 5369.35,7288.7 L 5360.64,7299.31 L 5350.03,7308.02 L 5337.93,7314.49 L 5324.8,7318.47 L 5311.14,7319.81 L 3670.96,7319.81 L 3657.3,7318.47 L 3644.17,7314.49 L 3632.07,7308.02 L 3621.46,7299.31 L 361.646,4039.5 L 352.941,4028.89 L 346.472,4016.79 L 342.488,4003.66 L 341.143,3990 L 341.144,3697.34 L 340.373,3690 L 341.99,3674.61 L 346.77,3659.9 L 354.505,3646.5 L 364.857,3635.01 L 377.373,3625.91 L 391.505,3619.62 L 406.638,3616.41 L 422.108,3616.41 L 437.24,3619.62 L 451.373,3625.91 L 463.888,3635.01 L 474.24,3646.5 L 481.975,3659.9 L 486.756,3674.61 L 488.373,3690 L 486.756,3705.39 L 481.975,3720.1 L 481.144,3721.54 z " style="fill-opacity:1.000000;fill:rgb(94,75,121);stroke:rgb(0,0,0);stroke-width:2"/></g>
<g fill-rule="evenodd"><path d="M 4641.07,7527.01 L 4674.14,7527.01 L 4674.14,7560.07 L 4675.82,7563.21 L 4679.8,7576.34 L 4681.14,7590 L 4679.8,7603.66 L 4675.82,7616.79 L 4674.14,7619.93 L 4674.14,7652.99 L 4641.07,7652.99 L 4637.93,7654.67 L 4624.8,7658.65 L 4611.14,7660 L 3411.14,7660 L 3397.49,7658.65 L 3384.36,7654.67 L 3372.25,7648.2 L 3361.65,7639.5 L 40.502,4318.35 L 31.7966,4307.75 L 25.3279,4295.64 L 21.3445,4282.51 L 19.9995,4268.86 L 19.9995,3711.14 L 20.8613,3700.19 L 23.4255,3689.51 L 27.6291,3679.36 L 33.3684,3670 L 40.5022,3661.64 L 261.646,3440.5 L 272.254,3431.8 L 284.356,3425.33 L 297.487,3421.35 L 311.143,3420 L 611.143,3420 L 624.8,3421.35 L 637.931,3425.33 L 650.033,3431.8 L 660.641,3440.5 L 841.041,3620.9 L 1023.08,3438.86 L 1027.63,3435.13 L 1032.81,3432.36 L 1038.44,3430.65 L 1044.29,3430.08 L 1863.9,3430.08 L 1863.9,3424.65 L 1958.39,3424.65 L 1958.39,3430.08 L 2863.9,3430.08 L 2863.9,3424.65 L 2958.39,3424.65 L 2958.39,3430.08 L 3463.9,3430.08 L 3463.9,3424.65 L 3558.39,3424.65 L 3558.39,3430.08 L 4063.9,3430.08 L 4063.9,3424.65 L 4158.39,3424.65 L 4158.39,3430.08 L 4663.9,3430.08 L 4663.9,3424.65 L 4758.39,3424.65 L 4758.39,3430.08 L 5263.9,3430.08 L 5263.9,3424.65 L 5358.39,3424.65 L 5358.39,3430.08 L 5863.9,3430.08 L 5863.9,3424.65 L 5958.39,3424.65 L 5958.39,3430.08 L 6463.9,3430.08 L 6463.9,3424.65 L 6558.39,3424.65 L 6558.39,3430.08 L 7063.9,3430.08 L 7063.9,3424.65 L 7158.39,3424.65 L 7158.39,3430.08 L 7663.9,3430.08 L 7663.9,3424.65 L 7758.39,3424.65 L 7758.39,3430.08 L 8263.9,3430.08 L 8263.9,3424.65 L 8358.39,3424.65 L 8358.39,3430.08 L 8863.9,3430.08 L 8863.9,3424.65 L 8958.39,3424.65 L 8958.39,3430.08 L 9463.9,3430.08 L 9463.9,3424.65 L 9558.39,3424.65 L 9558.39,3430.08 L 10063.9,3430.08 L 10063.9,3424.65 L 10158.4,3424.65 L 10158.4,3430.08 L 10663.9,3430.08 L 10663.9,3424.65 L 10758.4,3424.65 L 10758.4,3430.08 L 11263.9,3430.08 L 11263.9,3424.65 L 11358.4,3424.65 L 11358.4,3430.08 L 11863.9,3430.08 L 11863.9,3424.65 L 11958.4,3424.65 L 11958.4,3430.08 L 12463.9,3430.08 L 12463.9,3424.65 L 12558.4,3424.65 L 12558.4,3495.51 L 12463.9,3495.51 L 12463.9,3490.08 L 11958.4,3490.08 L 11958.4,3495.51 L 11863.9,3495.51 L 11863.9,3490.08 L 11358.4,3490.08 L 11358.4,3495.51 L 11263.9,3495.51 L 11263.9,3490.08 L 10758.4,3490.08 L 10758.4,3495.51 L 10663.9,3495.51 L 10663.9,3490.08 L 10158.4,3490.08 L 10158.4,3495.51 L 10063.9,3495.51 L 10063.9,3490.08 L 9558.39,3490.08 L 9558.39,3495.51 L 9463.9,3495.51 L 9463.9,3490.08 L 8958.39,3490.08 L 8958.39,3495.51 L 8863.9,3495.51 L 8863.9,3490.08 L 8358.39,3490.08 L 8358.39,3495.51 L 8263.9,3495.51 L 8263.9,3490.08 L 7758.39,3490.08 L 7758.39,3495.51 L 7663.9,3495.51 L 7663.9,3490.08 L 7158.39,3490.08 L 7158.39,3495.51 L 7063.9,3495.51 L 7063.9,3490.08 L 6558.39,3490.08 L 6558.39,3495.51 L 6463.9,3495.51 L 6463.9,3490.08 L 5958.39,3490.08 L 5958.39,3495.51 L 5863.9,3495.51 L 5863.9,3490.08 L 5358.39,3490.08 L 5358.39,3495.51 L 5263.9,3495.51 L 5263.9,3490.08 L 4758.39,3490.08 L 4758.39,3495.51 L 4663.9,3495.51 L 4663.9,3490.08 L 4158.39,3490.08 L 4158.39,3495.51 L 4063.9,3495.51 L 4063.9,3490.08 L 3558.39,3490.08 L 3558.39,3495.51 L 3463.9,3495.51 L 3463.9,3490.08 L 2958.39,3490.08 L 2958.39,3495.51 L 2863.9,3495.51 L 2863.9,3490.08 L 1958.39,3490.08 L 1958.39,3495.51 L 1863.9,3495.51 L 1863.9,3490.08 L 1056.72,3490.08 L 883.182,3663.62 L 886.756,3674.61 L 888.373,3690 L 886.756,3705.39 L 881.975,3720.1 L 874.24,3733.5 L 863.888,3744.99 L 851.373,3754.09 L 837.24,3760.38 L 822.108,3763.59 L 806.638,3763.59 L 791.505,3760.38 L 777.373,3754.09 L 764.857,3744.99 L 754.505,3733.5 L 752.951,3730.8 L 582.148,3560 L 340.138,3560 L 159.999,3740.14 L 159.999,4239.86 L 3440.14,7520 L 4611.14,7520 L 4624.8,7521.35 L 4637.93,7525.33 L 4641.07,7527.01 z " style="fill-opacity:1.000000;fill:rgb(99,59,112);stroke:rgb(0,0,0);stroke-width:2"/></g>
<g fill-rule="evenodd"><path d="M 4981.14,6334.78 L 4981.14,6188.2 L 4976.84,6189.5 L 4970.99,6190.08 L 4358.39,6190.08 L 4358.39,6195.51 L 4263.9,6195.51 L 4263.9,6124.65 L 4358.39,6124.65 L 4358.39,6130.08 L 4958.56,6130.08 L 4963.9,6124.74 L 4963.9,6084.49 L 5058.39,6084.49 L 5058.39,6155.35 L 5041.14,6155.35 L 5041.14,6334.78 L 5042.64,6335.45 L 5053.29,6343.19 L 5062.11,6352.97 L 5068.69,6364.38 L 5072.76,6376.9 L 5074.14,6390 L 5072.76,6403.1 L 5068.69,6415.62 L 5062.11,6427.03 L 5053.29,6436.81 L 5042.64,6444.55 L 5030.61,6449.91 L 5017.73,6452.65 L 5004.56,6452.65 L 4991.68,6449.91 L 4979.65,6444.55 L 4968.99,6436.81 L 4960.18,6427.03 L 4953.6,6415.62 L 4949.53,6403.1 L 4948.15,6390 L 4949.53,6376.9 L 4953.6,6364.38 L 4960.18,6352.97 L 4968.99,6343.19 L 4979.65,6335.45 L 4981.14,6334.78 z " style="fill-opacity:1.000000;fill:rgb(100,36,17);stroke:rgb(0,0,0);stroke-width:2"/></g>
<g fill-rule="evenodd"><path d="M 3141.14,3712.72 L 3138.76,3705.39 L 3137.14,3690 L 3138.76,3674.61 L 3143.54,3659.9 L 3151.28,3646.5 L 3161.63,3635.01 L 3174.14,3625.91 L 3188.28,3619.62 L 3203.41,3616.41 L 3218.88,3616.41 L 3234.01,3619.62 L 3248.14,3625.91 L 3260.66,3635.01 L 3271.01,3646.5 L 3278.75,3659.9 L 3283.53,3674.61 L 3285.04,3689 L 3463.9,3689 L 3463.9,3684.49 L 3558.39,3684.49 L 3558.39,3755.35 L 3463.9,3755.35 L 3463.9,3749 L 3281.14,3749 L 3281.14,3761.01 L 5260.64,5740.5 L 5269.35,5751.11 L 5275.82,5763.21 L 5279.8,5776.34 L 5281.14,5790 L 5281.14,6390 L 5279.8,6403.66 L 5275.82,6416.79 L 5269.35,6428.89 L 5260.64,6439.5 L 5250.03,6448.2 L 5237.93,6454.67 L 5224.8,6458.65 L 5211.14,6460 L 5197.49,6458.65 L 5184.36,6454.67 L 5172.25,6448.2 L 5161.65,6439.5 L 5152.94,6428.89 L 5146.47,6416.79 L 5142.49,6403.66 L 5141.14,6390 L 5141.14,5890.08 L 5058.39,5890.08 L 5058.39,5895.51 L 4963.9,5895.51 L 4963.9,5824.65 L 5058.39,5824.65 L 5058.39,5830.08 L 5141.14,5830.08 L 5141.14,5818.99 L 3161.65,3839.5 L 3154.51,3831.14 L 3148.77,3821.78 L 3144.57,3811.63 L 3142.01,3800.95 L 3141.14,3790 L 3141.14,3712.72 z " style="fill-opacity:1.000000;fill:rgb(158,9,220);stroke:rgb(0,0,0);stroke-width:2"/></g>
<g fill-rule="evenodd"><path d="M 1141.14,3073.95 L 1141.14,1090 L 1142.23,1077.73 L 1255.74,440.001 L 1255.74,310 L 1415.74,310 L 1415.74,470 L 1392.6,470 L 1281.14,1096.18 L 1281.14,3060.61 L 1285.69,3074.61 L 1287.31,3090 L 1285.69,3105.39 L 1280.91,3120.1 L 1273.18,3133.5 L 1262.83,3144.99 L 1250.31,3154.09 L 1236.18,3160.38 L 1221.05,3163.59 L 1205.58,3163.59 L 1190.44,3160.38 L 1176.31,3154.09 L 1163.8,3144.99 L 1153.44,3133.5 L 1145.71,3120.1 L 1140.93,3105.39 L 1139.31,3090 L 1140.93,3074.61 L 1141.14,3073.95 z " style="fill-opacity:1.000000;fill:rgb(170,212,172);stroke:rgb(0,0,0);stroke-width:2"/></g>
<g fill-rule="evenodd"><path d="M 1544.37,3057.31 L 1544.37,1490 L 1545.72,1476.34 L 1549.7,1463.21 L 1556.17,1451.11 L 1564.87,1440.5 L 1575.48,1431.8 L 1587.58,1425.33 L 1600.72,1421.35 L 1614.37,1420 L 1628.03,1421.35 L 1641.16,1425.33 L 1653.26,1431.8 L 1663.87,1440.5 L 1672.57,1451.11 L 1679.04,1463.21 L 1683.03,1476.34 L 1684.37,1490 L 1684.37,3088.97 L 1684.48,3090 L 1682.86,3105.39 L 1678.08,3120.1 L 1670.35,3133.5 L 1660,3144.99 L 1647.48,3154.09 L 1633.35,3160.38 L 1618.22,3163.59 L 1602.74,3163.59 L 1587.61,3160.38 L 1573.48,3154.09 L 1560.96,3144.99 L 1550.61,3133.5 L 1542.88,3120.1 L 1538.1,3105.39 L 1536.48,3090 L 1538.1,3074.61 L 1542.88,3059.9 L 1544.37,3057.31 z " style="fill-opacity:1.000000;fill:rgb(242,27,16);stroke:rgb(0,0,0);stroke-width:2"/></g>
<g fill-rule="evenodd"><path d="M 2141.14,3067.28 L 2141.14,1090 L 2142.21,1077.85 L 2254.56,440.593 L 2254.56,310 L 2414.56,310 L 2414.56,470 L 2391.53,470 L 2281.14,1096.12 L 2281.14,3067.28 L 2283.53,3074.61 L 2285.14,3090 L 2283.53,3105.39 L 2278.75,3120.1 L 2271.01,3133.5 L 2260.66,3144.99 L 2248.14,3154.09 L 2234.01,3160.38 L 2218.88,3163.59 L 2203.41,3163.59 L 2188.28,3160.38 L 2174.14,3154.09 L 2161.63,3144.99 L 2151.28,3133.5 L 2143.54,3120.1 L 2138.76,3105.39 L 2137.14,3090 L 2138.76,3074.61 L 2141.14,3067.28 z " style="fill-opacity:1.000000;fill:rgb(175,59,51);stroke:rgb(0,0,0);stroke-width:2"/></g>
<g fill-rule="evenodd"><path d="M 1586.76,3620 L 1587.61,3619.62 L 1602.74,3616.41 L 1618.22,3616.41 L 1633.35,3619.62 L 1645.92,3625.22 L 1646.28,3625.33 L 1646.84,3625.63 L 1647.48,3625.91 L 1647.78,3626.13 L 1658.38,3631.8 L 1668.99,3640.5 L 1677.69,3651.11 L 1684.16,3663.21 L 1688.14,3676.34 L 1689.48,3689.92 L 1863.9,3689.92 L 1863.9,3684.49 L 1958.39,3684.49 L 1958.39,3755.35 L 1863.9,3755.35 L 1863.9,3749.92 L 1681.14,3749.92 L 1681.14,4561.01 L 4003.96,6883.82 L 5307.41,6883.82 L 5541.14,6650.09 L 5541.14,6390 L 5542.49,6376.34 L 5546.47,6363.21 L 5552.94,6351.11 L 5561.65,6340.5 L 5572.25,6331.8 L 5584.36,6325.33 L 5597.49,6321.35 L 5611.14,6320 L 5624.8,6321.35 L 5637.93,6325.33 L 5650.03,6331.8 L 5660.64,6340.5 L 5669.35,6351.11 L 5675.82,6363.21 L 5679.8,6376.34 L 5681.14,6390 L 5681.14,6679.08 L 5680.28,6690.03 L 5677.72,6700.72 L 5673.51,6710.86 L 5667.77,6720.23 L 5660.64,6728.58 L 5639.56,6749.66 L 5639.56,6954.54 L 5658.39,6954.54 L 5658.39,7025.41 L 5563.9,7025.41 L 5563.9,6954.54 L 5579.56,6954.54 L 5579.56,6809.66 L 5385.9,7003.32 L 5375.3,7012.02 L 5363.19,7018.49 L 5350.06,7022.47 L 5336.41,7023.82 L 3974.96,7023.82 L 3961.31,7022.47 L 3948.18,7018.49 L 3936.07,7012.02 L 3925.47,7003.32 L 1561.65,4639.5 L 1552.94,4628.89 L 1546.47,4616.79 L 1542.49,4603.66 L 1541.14,4590 L 1541.14,3760 L 1237.03,3760 L 1236.18,3760.38 L 1221.05,3763.59 L 1205.58,3763.59 L 1190.44,3760.38 L 1176.31,3754.09 L 1163.8,3744.99 L 1153.44,3733.5 L 1145.71,3720.1 L 1140.93,3705.39 L 1139.31,3690 L 1140.93,3674.61 L 1145.71,3659.9 L 1153.44,3646.5 L 1163.8,3635.01 L 1176.31,3625.91 L 1190.44,3619.62 L 1205.58,3616.41 L 1221.05,3616.41 L 1236.18,3619.62 L 1237.03,3620 L 1586.76,3620 z " style="fill-opacity:1.000000;fill:rgb(205,227,80);stroke:rgb(0,0,0);stroke-width:2"/></g>
<g fill-rule="evenodd"><path d="M 3741.14,2067.28 L 3741.14,1490 L 3742.49,1476.34 L 3746.47,1463.21 L 3752.94,1451.11 L 3761.65,1440.5 L 3772.25,1431.8 L 3784.36,1425.33 L 3797.49,1421.35 L 3811.14,1420 L 3824.8,1421.35 L 3837.93,1425.33 L 3850.03,1431.8 L 3860.64,1440.5 L 3869.35,1451.11 L 3875.82,1463.21 L 3879.8,1476.34 L 3881.14,1490 L 3881.14,2067.28 L 3883.53,2074.61 L 3885.14,2090 L 3883.53,2105.39 L 3878.75,2120.1 L 3871.01,2133.5 L 3860.66,2144.99 L 3848.14,2154.09 L 3834.01,2160.38 L 3818.88,2163.59 L 3803.41,2163.59 L 3788.28,2160.38 L 3774.14,2154.09 L 3761.63,2144.99 L 3751.28,2133.5 L 3743.54,2120.1 L 3738.76,2105.39 L 3737.14,2090 L 3738.76,2074.61 L 3741.14,2067.28 z " style="fill-opacity:1.000000;fill:rgb(72,71,21);stroke:rgb(0,0,0);stroke-width:2"/></g>
<g fill-rule="evenodd"><path d="M 6141.14,2067.28 L 6141.14,1490 L 6142.49,1476.34 L 6146.47,1463.21 L 6152.94,1451.11 L 6161.65,1440.5 L 6172.25,1431.8 L 6184.36,1425.33 L 6197.49,1421.35 L 6211.14,1420 L 6224.8,1421.35 L 6237.93,1425.33 L 6250.03,1431.8 L 6260.64,1440.5 L 6269.35,1451.11 L 6275.82,1463.21 L 6279.8,1476.34 L 6281.14,1490 L 6281.14,2067.28 L 6283.53,2074.61 L 6285.14,2090 L 6283.53,2105.39 L 6278.75,2120.1 L 6271.01,2133.5 L 6260.66,2144.99 L 6248.14,2154.09 L 6234.01,2160.38 L 6218.88,2163.59 L 6203.41,2163.59 L 6188.28,2160.38 L 6174.14,2154.09 L 6161.63,2144.99 L 6151.28,2133.5 L 6143.54,2120.1 L 6138.76,2105.39 L 6137.14,2090 L 6138.76,2074.61 L 6141.14,2067.28 z " style="fill-opacity:1.000000;fill:rgb(92,187,111);stroke:rgb(0,0,0);stroke-width:2"/></g>
<g fill-rule="evenodd"><path d="M 4941.14,2067.28 L 4941.14,1490 L 4942.49,1476.34 L 4946.47,1463.21 L 4952.94,1451.11 L 4961.65,1440.5 L 4972.25,1431.8 L 4984.36,1425.33 L 4997.49,1421.35 L 5011.14,1420 L 5024.8,1421.35 L 5037.93,1425.33 L 5050.03,1431.8 L 5060.64,1440.5 L 5069.35,1451.11 L 5075.82,1463.21 L 5079.8,1476.34 L 5081.14,1490 L 5081.14,2067.28 L 5083.53,2074.61 L 5085.14,2090 L 5083.53,2105.39 L 5078.75,2120.1 L 5071.01,2133.5 L 5060.66,2144.99 L 5048.14,2154.09 L 5034.01,2160.38 L 5018.88,2163.59 L 5003.41,2163.59 L 4988.28,2160.38 L 4974.14,2154.09 L 4961.63,2144.99 L 4951.28,2133.5 L 4943.54,2120.1 L 4938.76,2105.39 L 4937.14,2090 L 4938.76,2074.61 L 4941.14,2067.28 z " style="fill-opacity:1.000000;fill:rgb(34,25,186);stroke:rgb(0,0,0);stroke-width:2"/></g>
<g fill-rule="evenodd"><path d="M 3885,3691.38 L 4063.9,3691.38 L 4063.9,3684.49 L 4158.39,3684.49 L 4158.39,3755.35 L 4063.9,3755.35 L 4063.9,3751.38 L 3881.14,3751.38 L 3881.14,3761.01 L 5860.64,5740.5 L 5869.35,5751.11 L 5875.82,5763.21 L 5879.8,5776.34 L 5881.14,5790 L 5881.14,6390 L 5879.8,6403.66 L 5875.82,6416.79 L 5869.35,6428.89 L 5860.64,6439.5 L 5850.03,6448.2 L 5841.14,6452.95 L 5841.14,6954.54 L 5858.39,6954.54 L 5858.39,7025.41 L 5763.9,7025.41 L 5763.9,6954.54 L 5781.14,6954.54 L 5781.14,6452.95 L 5772.25,6448.2 L 5761.65,6439.5 L 5752.94,6428.89 L 5746.47,6416.79 L 5742.49,6403.66 L 5741.14,6390 L 5741.14,5818.99 L 3761.65,3839.5 L 3754.51,3831.14 L 3748.77,3821.78 L 3744.57,3811.63 L 3742.01,3800.95 L 3741.14,3790 L 3741.14,3712.72 L 3738.76,3705.39 L 3737.14,3690 L 3738.76,3674.61 L 3743.54,3659.9 L 3751.28,3646.5 L 3761.63,3635.01 L 3774.14,3625.91 L 3788.28,3619.62 L 3803.41,3616.41 L 3818.88,3616.41 L 3834.01,3619.62 L 3848.14,3625.91 L 3860.66,3635.01 L 3871.01,3646.5 L 3878.75,3659.9 L 3883.53,3674.61 L 3885.14,3690 L 3885,3691.38 z " style="fill-opacity:1.000000;fill:rgb(155,125,245);stroke:rgb(0,0,0);stroke-width:2"/></g>
<g fill-rule="evenodd"><path d="M 4341.14,3712.72 L 4338.76,3705.39 L 4337.14,3690 L 4338.76,3674.61 L 4343.54,3659.9 L 4351.28,3646.5 L 4361.63,3635.01 L 4374.14,3625.91 L 4388.28,3619.62 L 4403.41,3616.41 L 4418.88,3616.41 L 4434.01,3619.62 L 4448.14,3625.91 L 4460.66,3635.01 L 4471.01,3646.5 L 4478.75,3659.9 L 4483.53,3674.61 L 4485.04,3689 L 4663.9,3689 L 4663.9,3684.49 L 4758.39,3684.49 L 4758.39,3755.35 L 4663.9,3755.35 L 4663.9,3749 L 4481.64,3749 L 6060.64,5328 L 6069.35,5338.61 L 6075.82,5350.71 L 6079.8,5363.84 L 6081.14,5377.5 L 6081.14,6390 L 6079.8,6403.66 L 6075.82,6416.79 L 6069.35,6428.89 L 6060.64,6439.5 L 6050.03,6448.2 L 6041.14,6452.95 L 6041.14,6954.54 L 6058.39,6954.54 L 6058.39,7025.41 L 5963.9,7025.41 L 5963.9,6954.54 L 5981.14,6954.54 L 5981.14,6452.95 L 5972.25,6448.2 L 5961.65,6439.5 L 5952.94,6428.89 L 5946.47,6416.79 L 5942.49,6403.66 L 5941.14,6390 L 5941.14,5406.49 L 4361.65,3827 L 4354.51,3818.64 L 4348.77,3809.28 L 4344.57,3799.13 L 4342.01,3788.45 L 4341.14,3777.5 L 4341.14,3712.72 z " style="fill-opacity:1.000000;fill:rgb(11,225,26);stroke:rgb(0,0,0);stroke-width:2"/></g>
<g fill-rule="evenodd"><path d="M 4941.14,3712.72 L 4938.76,3705.39 L 4937.14,3690 L 4938.76,3674.61 L 4943.54,3659.9 L 4951.28,3646.5 L 4961.63,3635.01 L 4974.14,3625.91 L 4988.28,3619.62 L 5003.41,3616.41 L 5018.88,3616.41 L 5034.01,3619.62 L 5048.14,3625.91 L 5060.66,3635.01 L 5071.01,3646.5 L 5078.75,3659.9 L 5078.78,3660 L 5281.22,3660 L 5287.07,3660.58 L 5292.7,3662.28 L 5297.89,3665.06 L 5302.43,3668.79 L 5306.17,3673.33 L 5308.94,3678.52 L 5310.65,3684.15 L 5310.68,3684.49 L 5358.39,3684.49 L 5358.39,3755.35 L 5263.9,3755.35 L 5263.9,3720 L 5081.14,3720 L 5081.14,3761.01 L 6260.64,4940.5 L 6269.35,4951.11 L 6275.82,4963.21 L 6279.8,4976.34 L 6281.14,4990 L 6281.14,6390 L 6279.8,6403.66 L 6275.82,6416.79 L 6269.35,6428.89 L 6260.64,6439.5 L 6250.03,6448.2 L 6241.14,6452.95 L 6241.14,6954.54 L 6258.39,6954.54 L 6258.39,7025.41 L 6163.9,7025.41 L 6163.9,6954.54 L 6181.14,6954.54 L 6181.14,6452.95 L 6172.25,6448.2 L 6161.65,6439.5 L 6152.94,6428.89 L 6146.47,6416.79 L 6142.49,6403.66 L 6141.14,6390 L 6141.14,5018.99 L 4961.65,3839.5 L 4954.51,3831.14 L 4948.77,3821.78 L 4944.57,3811.63 L 4942.01,3800.95 L 4941.14,3790 L 4941.14,3712.72 z " style="fill-opacity:1.000000;fill:rgb(28,127,35);stroke:rgb(0,0,0);stroke-width:2"/></g>
<g fill-rule="evenodd"><path d="M 5541.14,3712.72 L 5538.76,3705.39 L 5537.14,3690 L 5538.76,3674.61 L 5543.54,3659.9 L 5551.28,3646.5 L 5561.63,3635.01 L 5574.14,3625.91 L 5588.28,3619.62 L 5603.41,3616.41 L 5618.88,3616.41 L 5634.01,3619.62 L 5648.14,3625.91 L 5660.66,3635.01 L 5671.01,3646.5 L 5678.75,3659.9 L 5678.78,3660 L 5881.22,3660 L 5887.07,3660.58 L 5892.7,3662.28 L 5897.89,3665.06 L 5902.43,3668.79 L 5906.17,3673.33 L 5908.94,3678.52 L 5910.65,3684.15 L 5910.68,3684.49 L 5958.39,3684.49 L 5958.39,3755.35 L 5863.9,3755.35 L 5863.9,3720 L 5681.14,3720 L 5681.14,3761.01 L 6460.64,4540.5 L 6469.35,4551.11 L 6475.82,4563.21 L 6479.8,4576.34 L 6481.14,4590 L 6481.14,6390 L 6479.8,6403.66 L 6475.82,6416.79 L 6469.35,6428.89 L 6460.64,6439.5 L 6450.03,6448.2 L 6441.14,6452.95 L 6441.14,6954.54 L 6458.39,6954.54 L 6458.39,7025.41 L 6363.9,7025.41 L 6363.9,6954.54 L 6381.14,6954.54 L 6381.14,6452.95 L 6372.25,6448.2 L 6361.65,6439.5 L 6352.94,6428.89 L 6346.47,6416.79 L 6342.49,6403.66 L 6341.14,6390 L 6341.14,4618.99 L 5561.65,3839.5 L 5552.94,3828.89 L 5546.47,3816.79 L 5542.49,3803.66 L 5541.14,3790 L 5541.14,3712.72 z " style="fill-opacity:1.000000;fill:rgb(248,41,248);stroke:rgb(0,0,0);stroke-width:2"/></g>
<g fill-rule="evenodd"><path d="M 6741.14,3712.72 L 6738.76,3705.39 L 6737.14,3690 L 6738.76,3674.61 L 6743.54,3659.9 L 6751.28,3646.5 L 6761.63,3635.01 L 6774.14,3625.91 L 6788.28,3619.62 L 6803.41,3616.41 L 6818.88,3616.41 L 6834.01,3619.62 L 6848.14,3625.91 L 6860.66,3635.01 L 6871.01,3646.5 L 6878.75,3659.9 L 6878.78,3660 L 7081.22,3660 L 7087.07,3660.58 L 7092.7,3662.28 L 7097.89,3665.06 L 7102.43,3668.79 L 7106.17,3673.33 L 7108.94,3678.52 L 7110.65,3684.15 L 7110.68,3684.49 L 7158.39,3684.49 L 7158.39,3755.35 L 7063.9,3755.35 L 7063.9,3720 L 6881.14,3720 L 6881.14,6390 L 6879.8,6403.66 L 6875.82,6416.79 L 6869.35,6428.89 L 6860.64,6439.5 L 6850.03,6448.2 L 6841.14,6452.95 L 6841.14,6954.54 L 6858.39,6954.54 L 6858.39,7025.41 L 6763.9,7025.41 L 6763.9,6954.54 L 6781.14,6954.54 L 6781.14,6452.95 L 6772.25,6448.2 L 6761.65,6439.5 L 6752.94,6428.89 L 6746.47,6416.79 L 6742.49,6403.66 L 6741.14,6390 L 6741.14,3712.72 z " style="fill-opacity:1.000000;fill:rgb(164,27,19);stroke:rgb(0,0,0);stroke-width:2"/></g>
<g fill-rule="evenodd"><path d="M 11541.1,3712.72 L 11538.8,3705.39 L 11537.1,3690 L 11538.8,3674.61 L 11543.5,3659.9 L 11551.3,3646.5 L 11561.6,3635.01 L 11574.1,3625.91 L 11588.3,3619.62 L 11603.4,3616.41 L 11618.9,3616.41 L 11634,3619.62 L 11648.1,3625.91 L 11660.7,3635.01 L 11671,3646.5 L 11678.7,3659.9 L 11683.5,3674.61 L 11685.1,3689.77 L 11863.9,3689.77 L 11863.9,3684.49 L 11958.4,3684.49 L 11958.4,3755.35 L 11863.9,3755.35 L 11863.9,3749.77 L 11681.1,3749.77 L 11681.1,5190 L 11679.8,5203.66 L 11675.8,5216.79 L 11669.3,5228.89 L 11660.6,5239.5 L 9260.64,7639.5 L 9250.03,7648.2 L 9237.93,7654.67 L 9224.8,7658.65 L 9211.14,7660 L 9197.49,7658.65 L 9184.36,7654.67 L 9172.25,7648.2 L 9161.65,7639.5 L 9152.94,7628.89 L 9146.47,7616.79 L 9142.49,7603.66 L 9141.14,7590 L 9142.49,7576.34 L 9146.47,7563.21 L 9152.94,7551.11 L 9161.65,7540.5 L 9181.14,7521.01 L 9181.14,7355.35 L 9163.9,7355.35 L 9163.9,7284.49 L 9258.39,7284.49 L 9258.39,7355.35 L 9241.14,7355.35 L 9241.14,7461.01 L 11541.1,5161.01 L 11541.1,3712.72 z " style="fill-opacity:1.000000;fill:rgb(181,202,78);stroke:rgb(0,0,0);stroke-width:2"/></g>
<g fill-rule="evenodd"><path d="M 12141.1,3712.72 L 12138.8,3705.39 L 12137.1,3690 L 12138.8,3674.61 L 12143.5,3659.9 L 12151.3,3646.5 L 12161.6,3635.01 L 12174.1,3625.91 L 12188.3,3619.62 L 12203.4,3616.41 L 12218.9,3616.41 L 12234,3619.62 L 12248.1,3625.91 L 12260.7,3635.01 L 12271,3646.5 L 12278.7,3659.9 L 12283.5,3674.61 L 12285.1,3689.77 L 12463.9,3689.77 L 12463.9,3684.49 L 12558.4,3684.49 L 12558.4,3755.35 L 12463.9,3755.35 L 12463.9,3749.77 L 12281.1,3749.77 L 12281.1,5190 L 12279.8,5203.66 L 12275.8,5216.79 L 12269.3,5228.89 L 12260.6,5239.5 L 9660.64,7839.5 L 9650.03,7848.2 L 9637.93,7854.67 L 9624.8,7858.65 L 9611.14,7860 L 9122.06,7860 L 9111.11,7859.14 L 9100.43,7856.57 L 9090.28,7852.37 L 9080.91,7846.63 L 9072.56,7839.5 L 8961.65,7728.58 L 8952.94,7717.97 L 8946.47,7705.87 L 8942.49,7692.74 L 8941.14,7679.08 L 8941.14,7590 L 8942.49,7576.34 L 8946.47,7563.21 L 8952.94,7551.11 L 8961.65,7540.5 L 8972.25,7531.8 L 8981.14,7527.05 L 8981.14,7355.35 L 8963.9,7355.35 L 8963.9,7284.49 L 9058.39,7284.49 L 9058.39,7355.35 L 9041.14,7355.35 L 9041.14,7527.05 L 9050.03,7531.8 L 9060.64,7540.5 L 9069.35,7551.11 L 9075.82,7563.21 L 9079.8,7576.34 L 9081.14,7590 L 9081.14,7650.09 L 9151.05,7720 L 9582.15,7720 L 12141.1,5161.01 L 12141.1,3712.72 z " style="fill-opacity:1.000000;fill:rgb(232,152,50);stroke:rgb(0,0,0);stroke-width:2"/></g>
<g fill-rule="evenodd"><path d="M 9278.78,3660 L 9481.22,3660 L 9487.07,3660.58 L 9492.7,3662.28 L 9497.89,3665.06 L 9502.43,3668.79 L 9506.17,3673.33 L 9508.94,3678.52 L 9510.65,3684.15 L 9510.68,3684.49 L 9558.39,3684.49 L 9558.39,3755.35 L 9463.9,3755.35 L 9463.9,3720 L 9281.14,3720 L 9281.14,3790 L 9280.28,3800.95 L 9277.72,3811.63 L 9273.51,3821.78 L 9267.77,3831.14 L 9260.64,3839.5 L 8281.14,4818.99 L 8281.14,6390 L 8279.8,6403.66 L 8275.82,6416.79 L 8269.35,6428.89 L 8260.64,6439.5 L 8250.03,6448.2 L 8241.14,6452.95 L 8241.14,6724.65 L 8258.39,6724.65 L 8258.39,6795.51 L 8163.9,6795.51 L 8163.9,6724.65 L 8181.14,6724.65 L 8181.14,6452.95 L 8172.25,6448.2 L 8161.65,6439.5 L 8152.94,6428.89 L 8146.47,6416.79 L 8142.49,6403.66 L 8141.14,6390 L 8141.14,4790 L 8142.49,4776.34 L 8146.47,4763.21 L 8152.94,4751.11 L 8161.65,4740.5 L 9141.14,3761.01 L 9141.14,3712.72 L 9138.76,3705.39 L 9137.14,3690 L 9138.76,3674.61 L 9143.54,3659.9 L 9151.28,3646.5 L 9161.63,3635.01 L 9174.14,3625.91 L 9188.28,3619.62 L 9203.41,3616.41 L 9218.88,3616.41 L 9234.01,3619.62 L 9248.14,3625.91 L 9260.66,3635.01 L 9271.01,3646.5 L 9278.75,3659.9 L 9278.78,3660 z " style="fill-opacity:1.000000;fill:rgb(56,224,121);stroke:rgb(0,0,0);stroke-width:2"/></g>
<g fill-rule="evenodd"><path d="M 7341.14,2067.28 L 7341.14,1490 L 7342.49,1476.34 L 7346.47,1463.21 L 7352.94,1451.11 L 7361.65,1440.5 L 7372.25,1431.8 L 7384.36,1425.33 L 7397.49,1421.35 L 7411.14,1420 L 7424.8,1421.35 L 7437.93,1425.33 L 7450.03,1431.8 L 7460.64,1440.5 L 7469.35,1451.11 L 7475.82,1463.21 L 7479.8,1476.34 L 7481.14,1490 L 7481.14,2067.28 L 7483.53,2074.61 L 7485.14,2090 L 7483.53,2105.39 L 7478.75,2120.1 L 7471.01,2133.5 L 7460.66,2144.99 L 7448.14,2154.09 L 7434.01,2160.38 L 7418.88,2163.59 L 7403.41,2163.59 L 7388.28,2160.38 L 7374.14,2154.09 L 7361.63,2144.99 L 7351.28,2133.5 L 7343.54,2120.1 L 7338.76,2105.39 L 7337.14,2090 L 7338.76,2074.61 L 7341.14,2067.28 z " style="fill-opacity:1.000000;fill:rgb(77,61,52);stroke:rgb(0,0,0);stroke-width:2"/></g>
<g fill-rule="evenodd"><path d="M 7341.14,3712.72 L 7338.76,3705.39 L 7337.14,3690 L 7338.76,3674.61 L 7343.54,3659.9 L 7351.28,3646.5 L 7361.63,3635.01 L 7374.14,3625.91 L 7388.28,3619.62 L 7403.41,3616.41 L 7418.88,3616.41 L 7434.01,3619.62 L 7448.14,3625.91 L 7460.66,3635.01 L 7471.01,3646.5 L 7478.75,3659.9 L 7478.78,3660 L 7681.22,3660 L 7687.07,3660.58 L 7692.7,3662.28 L 7697.89,3665.06 L 7702.43,3668.79 L 7706.17,3673.33 L 7708.94,3678.52 L 7710.65,3684.15 L 7710.68,3684.49 L 7758.39,3684.49 L 7758.39,3755.35 L 7663.9,3755.35 L 7663.9,3720 L 7481.14,3720 L 7481.14,3790 L 7480.28,3800.95 L 7477.72,3811.63 L 7473.51,3821.78 L 7467.77,3831.14 L 7460.64,3839.5 L 7081.14,4218.99 L 7081.14,6390 L 7079.8,6403.66 L 7075.82,6416.79 L 7069.35,6428.89 L 7060.64,6439.5 L 7050.03,6448.2 L 7041.14,6452.95 L 7041.14,6955.62 L 7058.39,6955.62 L 7058.39,7026.49 L 6963.9,7026.49 L 6963.9,6955.62 L 6981.14,6955.62 L 6981.14,6452.95 L 6972.25,6448.2 L 6961.65,6439.5 L 6952.94,6428.89 L 6946.47,6416.79 L 6942.49,6403.66 L 6941.14,6390 L 6941.14,4190 L 6942.01,4179.05 L 6944.57,4168.37 L 6948.77,4158.22 L 6954.51,4148.86 L 6961.65,4140.5 L 7341.14,3761.01 L 7341.14,3712.72 z " style="fill-opacity:1.000000;fill:rgb(188,95,78);stroke:rgb(0,0,0);stroke-width:2"/></g>
<g fill-rule="evenodd"><path d="M 8678.78,3660 L 8881.22,3660 L 8887.07,3660.58 L 8892.7,3662.28 L 8897.89,3665.06 L 8902.43,3668.79 L 8906.17,3673.33 L 8908.94,3678.52 L 8910.65,3684.15 L 8910.68,3684.49 L 8958.39,3684.49 L 8958.39,3755.35 L 8863.9,3755.35 L 8863.9,3720 L 8681.14,3720 L 8681.14,3790 L 8680.28,3800.95 L 8677.72,3811.63 L 8673.51,3821.78 L 8667.77,3831.15 L 8660.64,3839.5 L 8081.14,4418.99 L 8081.14,6390 L 8079.8,6403.66 L 8075.82,6416.79 L 8069.35,6428.89 L 8060.64,6439.5 L 8050.03,6448.2 L 8041.14,6452.95 L 8041.14,6724.65 L 8058.39,6724.65 L 8058.39,6795.51 L 7963.9,6795.51 L 7963.9,6724.65 L 7981.14,6724.65 L 7981.14,6452.95 L 7972.25,6448.2 L 7961.65,6439.5 L 7952.94,6428.89 L 7946.47,6416.79 L 7942.49,6403.66 L 7941.14,6390 L 7941.14,4390 L 7942.01,4379.05 L 7944.57,4368.37 L 7948.77,4358.22 L 7954.51,4348.85 L 7961.65,4340.5 L 8541.14,3761 L 8541.14,3712.72 L 8538.76,3705.39 L 8537.14,3690 L 8538.76,3674.61 L 8543.54,3659.9 L 8551.28,3646.5 L 8561.63,3635.01 L 8574.14,3625.91 L 8588.28,3619.62 L 8603.41,3616.41 L 8618.88,3616.41 L 8634.01,3619.62 L 8648.14,3625.91 L 8660.66,3635.01 L 8671.01,3646.5 L 8678.75,3659.9 L 8678.78,3660 z " style="fill-opacity:1.000000;fill:rgb(119,250,203);stroke:rgb(0,0,0);stroke-width:2"/></g>
<g fill-rule="evenodd"><path d="M 7941.14,3712.72 L 7938.76,3705.39 L 7937.14,3690 L 7938.76,3674.61 L 7943.54,3659.9 L 7951.28,3646.5 L 7961.63,3635.01 L 7974.14,3625.91 L 7988.28,3619.62 L 8003.41,3616.41 L 8018.88,3616.41 L 8034.01,3619.62 L 8048.14,3625.91 L 8060.66,3635.01 L 8071.01,3646.5 L 8078.75,3659.9 L 8078.78,3660 L 8281.22,3660 L 8287.07,3660.58 L 8292.7,3662.28 L 8297.89,3665.06 L 8302.43,3668.79 L 8306.17,3673.33 L 8308.94,3678.52 L 8310.65,3684.15 L 8310.68,3684.49 L 8358.39,3684.49 L 8358.39,3755.35 L 8263.9,3755.35 L 8263.9,3720 L 8081.14,3720 L 8081.14,3777.5 L 8079.8,3791.16 L 8075.82,3804.29 L 8069.35,3816.39 L 8060.64,3827 L 7681.14,4206.49 L 7681.14,6390 L 7679.8,6403.66 L 7675.82,6416.79 L 7669.35,6428.89 L 7660.64,6439.5 L 7650.03,6448.2 L 7641.14,6452.95 L 7641.14,6724.65 L 7658.39,6724.65 L 7658.39,6795.51 L 7563.9,6795.51 L 7563.9,6724.65 L 7581.14,6724.65 L 7581.14,6452.95 L 7572.25,6448.2 L 7561.65,6439.5 L 7552.94,6428.89 L 7546.47,6416.79 L 7542.49,6403.66 L 7541.14,6390 L 7541.14,4177.5 L 7542.49,4163.84 L 7546.47,4150.71 L 7552.94,4138.61 L 7561.65,4128 L 7941.14,3748.51 L 7941.14,3712.72 z " style="fill-opacity:1.000000;fill:rgb(108,5,172);stroke:rgb(0,0,0);stroke-width:2"/></g>
<g fill-rule="evenodd"><path d="M 12141.1,2067.28 L 12141.1,1490 L 12142.5,1476.34 L 12146.5,1463.21 L 12152.9,1451.11 L 12161.6,1440.5 L 12172.3,1431.8 L 12184.4,1425.33 L 12197.5,1421.35 L 12211.1,1420 L 12224.8,1421.35 L 12237.9,1425.33 L 12250,1431.8 L 12260.6,1440.5 L 12269.3,1451.11 L 12275.8,1463.21 L 12279.8,1476.34 L 12281.1,1490 L 12281.1,2067.28 L 12283.5,2074.61 L 12285.1,2090 L 12283.5,2105.39 L 12278.7,2120.1 L 12271,2133.5 L 12260.7,2144.99 L 12248.1,2154.09 L 12234,2160.38 L 12218.9,2163.59 L 12203.4,2163.59 L 12188.3,2160.38 L 12174.1,2154.09 L 12161.6,2144.99 L 12151.3,2133.5 L 12143.5,2120.1 L 12138.8,2105.39 L 12137.1,2090 L 12138.8,2074.61 L 12141.1,2067.28 z " style="fill-opacity:1.000000;fill:rgb(134,33,43);stroke:rgb(0,0,0);stroke-width:2"/></g>
<g fill-rule="evenodd"><path d="M 9741.14,3067.28 L 9741.14,2712.72 L 9738.76,2705.39 L 9737.14,2690 L 9738.76,2674.61 L 9743.54,2659.9 L 9751.28,2646.5 L 9761.63,2635.01 L 9763.18,2633.88 L 10041.1,2170.61 L 10041.1,427.88 L 10038.1,422.539 L 10032.9,406.633 L 10031.1,390 L 10032.9,373.367 L 10038.1,357.461 L 10046.4,342.977 L 10057.6,330.548 L 10071.1,320.718 L 10086.4,313.915 L 10102.8,310.438 L 10119.5,310.438 L 10135.9,313.915 L 10151.1,320.718 L 10164.7,330.548 L 10175.9,342.977 L 10184.2,357.461 L 10189.4,373.367 L 10191.1,390 L 10189.4,406.633 L 10184.2,422.539 L 10181.1,427.88 L 10181.1,2190 L 10180,2202.54 L 10176.6,2214.68 L 10171.2,2226.01 L 9883.5,2705.46 L 9881.14,2712.72 L 9881.14,3067.28 L 9883.53,3074.61 L 9885.14,3090 L 9883.53,3105.39 L 9878.75,3120.1 L 9871.01,3133.5 L 9860.66,3144.99 L 9848.14,3154.09 L 9834.01,3160.38 L 9818.88,3163.59 L 9803.41,3163.59 L 9788.28,3160.38 L 9774.14,3154.09 L 9761.63,3144.99 L 9751.28,3133.5 L 9743.54,3120.1 L 9738.76,3105.39 L 9737.14,3090 L 9738.76,3074.61 L 9741.14,3067.28 z " style="fill-opacity:1.000000;fill:rgb(170,26,85);stroke:rgb(0,0,0);stroke-width:2"/></g>
<g fill-rule="evenodd"><path d="M 9741.14,3712.72 L 9738.76,3705.39 L 9737.14,3690 L 9738.76,3674.61 L 9743.54,3659.9 L 9751.28,3646.5 L 9761.63,3635.01 L 9774.14,3625.91 L 9788.28,3619.62 L 9803.41,3616.41 L 9818.88,3616.41 L 9834.01,3619.62 L 9848.14,3625.91 L 9860.66,3635.01 L 9871.01,3646.5 L 9878.75,3659.9 L 9878.78,3660 L 10081.2,3660 L 10087.1,3660.58 L 10092.7,3662.28 L 10097.9,3665.06 L 10102.4,3668.79 L 10106.2,3673.33 L 10108.9,3678.52 L 10110.6,3684.15 L 10110.7,3684.49 L 10158.4,3684.49 L 10158.4,3755.35 L 10063.9,3755.35 L 10063.9,3720 L 9881.14,3720 L 9881.14,3790 L 9880.28,3800.95 L 9877.72,3811.63 L 9873.51,3821.78 L 9867.77,3831.14 L 9860.64,3839.5 L 8481.14,5218.99 L 8481.14,6390 L 8479.8,6403.66 L 8475.82,6416.79 L 8469.35,6428.89 L 8460.64,6439.5 L 8450.03,6448.2 L 8441.14,6452.95 L 8441.14,6724.65 L 8458.39,6724.65 L 8458.39,6795.51 L 8363.9,6795.51 L 8363.9,6724.65 L 8381.14,6724.65 L 8381.14,6452.95 L 8372.25,6448.2 L 8361.65,6439.5 L 8352.94,6428.89 L 8346.47,6416.79 L 8342.49,6403.66 L 8341.14,6390 L 8341.14,5190 L 8342.49,5176.34 L 8346.47,5163.21 L 8352.94,5151.11 L 8361.65,5140.5 L 9741.14,3761.01 L 9741.14,3712.72 z " style="fill-opacity:1.000000;fill:rgb(162,190,112);stroke:rgb(0,0,0);stroke-width:2"/></g>
<g fill-rule="evenodd"><path d="M 10341.1,3712.72 L 10338.8,3705.39 L 10337.1,3690 L 10338.8,3674.61 L 10343.5,3659.9 L 10351.3,3646.5 L 10361.6,3635.01 L 10374.1,3625.91 L 10388.3,3619.62 L 10403.4,3616.41 L 10418.9,3616.41 L 10434,3619.62 L 10448.1,3625.91 L 10460.7,3635.01 L 10471,3646.5 L 10478.7,3659.9 L 10478.8,3660 L 10681.2,3660 L 10687.1,3660.58 L 10692.7,3662.28 L 10697.9,3665.06 L 10702.4,3668.79 L 10706.2,3673.33 L 10708.9,3678.52 L 10710.6,3684.15 L 10710.7,3684.49 L 10758.4,3684.49 L 10758.4,3755.35 L 10663.9,3755.35 L 10663.9,3720 L 10481.1,3720 L 10481.1,3790 L 10479.8,3803.66 L 10475.8,3816.79 L 10469.3,3828.89 L 10460.6,3839.5 L 8681.14,5618.99 L 8681.14,6390 L 8679.8,6403.66 L 8675.82,6416.79 L 8669.35,6428.89 L 8660.64,6439.5 L 8650.03,6448.2 L 8641.14,6452.95 L 8641.14,6724.65 L 8658.39,6724.65 L 8658.39,6795.51 L 8563.9,6795.51 L 8563.9,6724.65 L 8581.14,6724.65 L 8581.14,6452.95 L 8572.25,6448.2 L 8561.65,6439.5 L 8552.94,6428.89 L 8546.47,6416.79 L 8542.49,6403.66 L 8541.14,6390 L 8541.14,5590 L 8542.49,5576.34 L 8546.47,5563.21 L 8552.94,5551.11 L 8561.65,5540.5 L 10341.1,3761.01 L 10341.1,3712.72 z " style="fill-opacity:1.000000;fill:rgb(181,115,59);stroke:rgb(0,0,0);stroke-width:2"/></g>
<g fill-rule="evenodd"><path d="M 10941.1,3712.72 L 10938.8,3705.39 L 10937.1,3690 L 10938.8,3674.61 L 10943.5,3659.9 L 10951.3,3646.5 L 10961.6,3635.01 L 10974.1,3625.91 L 10988.3,3619.62 L 11003.4,3616.41 L 11018.9,3616.41 L 11034,3619.62 L 11048.1,3625.91 L 11060.7,3635.01 L 11071,3646.5 L 11078.7,3659.9 L 11078.8,3660 L 11281.2,3660 L 11287.1,3660.58 L 11292.7,3662.28 L 11297.9,3665.06 L 11302.4,3668.79 L 11306.2,3673.33 L 11308.9,3678.52 L 11310.6,3684.15 L 11310.7,3684.49 L 11358.4,3684.49 L 11358.4,3755.35 L 11263.9,3755.35 L 11263.9,3720 L 11081.1,3720 L 11081.1,3790 L 11079.8,3803.66 L 11075.8,3816.79 L 11069.3,3828.89 L 11060.6,3839.5 L 8881.14,6018.99 L 8881.14,6390 L 8879.8,6403.66 L 8875.82,6416.79 L 8869.35,6428.89 L 8860.64,6439.5 L 8850.03,6448.2 L 8841.14,6452.95 L 8841.14,6724.65 L 8858.39,6724.65 L 8858.39,6795.51 L 8763.9,6795.51 L 8763.9,6724.65 L 8781.14,6724.65 L 8781.14,6452.95 L 8772.25,6448.2 L 8761.65,6439.5 L 8752.94,6428.89 L 8746.47,6416.79 L 8742.49,6403.66 L 8741.14,6390 L 8741.14,5990 L 8742.49,5976.34 L 8746.47,5963.21 L 8752.94,5951.11 L 8761.65,5940.5 L 10941.1,3761.01 L 10941.1,3712.72 z " style="fill-opacity:1.000000;fill:rgb(4,92,211);stroke:rgb(0,0,0);stroke-width:2"/></g>
<g fill-rule="evenodd"><path d="M 12581.1,427.88 L 12581.1,2190 L 12580,2202.54 L 12576.6,2214.68 L 12571.2,2226.01 L 12283.5,2705.46 L 12281.1,2712.72 L 12281.1,3067.28 L 12283.5,3074.61 L 12285.1,3090 L 12283.5,3105.39 L 12278.7,3120.1 L 12271,3133.5 L 12260.7,3144.99 L 12248.1,3154.09 L 12234,3160.38 L 12218.9,3163.59 L 12203.4,3163.59 L 12188.3,3160.38 L 12174.1,3154.09 L 12161.6,3144.99 L 12151.3,3133.5 L 12143.5,3120.1 L 12138.8,3105.39 L 12137.1,3090 L 12138.8,3074.61 L 12141.1,3067.28 L 12141.1,2712.72 L 12138.8,2705.39 L 12137.1,2690 L 12138.8,2674.61 L 12143.5,2659.9 L 12151.3,2646.5 L 12161.6,2635.01 L 12163.2,2633.88 L 12441.1,2170.61 L 12441.1,427.879 L 12438.1,422.539 L 12432.9,406.633 L 12431.1,390 L 12432.9,373.367 L 12438.1,357.461 L 12446.4,342.977 L 12457.6,330.548 L 12471.1,320.718 L 12486.4,313.915 L 12502.8,310.438 L 12519.5,310.438 L 12535.9,313.915 L 12551.1,320.718 L 12564.7,330.548 L 12575.9,342.977 L 12584.2,357.461 L 12589.4,373.367 L 12591.1,390 L 12589.4,406.633 L 12584.2,422.539 L 12581.1,427.88 z " style="fill-opacity:1.000000;fill:rgb(54,148,179);stroke:rgb(0,0,0);stroke-width:2"/></g>
<g fill-rule="evenodd"><path d="M 11057.9,415.217 L 11055.1,406.633 L 11053.3,390 L 11055.1,373.367 L 11060.3,357.461 L 11063.3,352.124 L 11063.3,305.856 L 11015.5,257.998 L 10700,257.998 L 10652.1,305.857 L 10652.1,352.12 L 10655.2,357.461 L 10660.4,373.367 L 10662.1,390 L 10660.4,406.633 L 10655.2,422.539 L 10646.9,437.023 L 10641.2,443.347 L 10481.1,1098.43 L 10481.1,1290 L 10479.8,1303.66 L 10475.8,1316.79 L 10469.3,1328.89 L 10460.6,1339.5 L 10450,1348.2 L 10437.9,1354.67 L 10424.8,1358.65 L 10411.1,1360 L 10397.5,1358.65 L 10384.4,1354.67 L 10372.3,1348.2 L 10361.6,1339.5 L 10352.9,1328.89 L 10346.5,1316.79 L 10342.5,1303.66 L 10341.1,1290 L 10341.1,1090 L 10341.6,1081.63 L 10343.1,1073.39 L 10505.1,410.376 L 10503.9,406.633 L 10502.1,390 L 10503.9,373.367 L 10509.1,357.461 L 10512.1,352.12 L 10512.1,289.994 L 10480.1,257.998 L 9953.6,257.998 L 9905.74,305.856 L 9905.74,352.12 L 9908.83,357.461 L 9914,373.367 L 9915.74,390 L 9914,406.633 L 9908.83,422.539 L 9902.63,433.278 L 9881.14,1091.14 L 9881.14,1290 L 9879.8,1303.66 L 9875.82,1316.79 L 9869.35,1328.89 L 9860.64,1339.5 L 9850.03,1348.2 L 9837.93,1354.67 L 9824.8,1358.65 L 9811.14,1360 L 9797.49,1358.65 L 9784.36,1354.67 L 9772.25,1348.2 L 9761.65,1339.5 L 9752.94,1328.89 L 9746.47,1316.79 L 9742.49,1303.66 L 9741.14,1290 L 9741.14,1090 L 9741.18,1087.72 L 9762.89,422.94 L 9762.66,422.539 L 9757.49,406.633 L 9755.74,390 L 9757.49,373.367 L 9760.96,362.693 L 9749.67,327.519 L 9680.15,257.998 L 9402.4,257.998 L 9354.54,305.857 L 9354.54,352.12 L 9357.63,357.461 L 9362.8,373.367 L 9364.54,390 L 9362.8,406.633 L 9357.63,422.539 L 9349.26,437.023 L 9349.16,437.141 L 9281.14,1093.62 L 9281.14,1290 L 9279.8,1303.66 L 9275.82,1316.79 L 9269.35,1328.89 L 9260.64,1339.5 L 9250.03,1348.2 L 9237.93,1354.67 L 9224.8,1358.65 L 9211.14,1360 L 9197.49,1358.65 L 9184.36,1354.67 L 9172.25,1348.2 L 9161.65,1339.5 L 9152.94,1328.89 L 9146.47,1316.79 L 9142.49,1303.66 L 9141.14,1290 L 9141.14,1090 L 9141.52,1082.79 L 9210.29,418.947 L 9206.29,406.633 L 9204.54,390 L 9206.29,373.367 L 9211.46,357.461 L 9214.54,352.12 L 9214.54,305.857 L 9166.68,257.998 L 8851.2,257.998 L 8803.34,305.857 L 8803.34,352.12 L 8806.43,357.461 L 8811.6,373.367 L 8813.34,390 L 8811.6,406.633 L 8806.43,422.539 L 8798.06,437.023 L 8795.74,439.601 L 8681.14,1096.06 L 8681.14,1290 L 8679.8,1303.66 L 8675.82,1316.79 L 8669.35,1328.89 L 8660.64,1339.5 L 8650.03,1348.2 L 8637.93,1354.67 L 8624.8,1358.65 L 8611.14,1360 L 8597.49,1358.65 L 8584.36,1354.67 L 8572.25,1348.2 L 8561.65,1339.5 L 8552.94,1328.89 L 8546.47,1316.79 L 8542.49,1303.66 L 8541.14,1290 L 8541.14,1090 L 8542.19,1077.96 L 8657.88,415.221 L 8655.09,406.633 L 8653.34,390 L 8655.09,373.367 L 8660.26,357.461 L 8663.34,352.12 L 8663.34,305.857 L 8615.48,257.998 L 8300,257.998 L 8252.14,305.857 L 8252.14,352.12 L 8255.23,357.461 L 8260.4,373.367 L 8262.14,390 L 8260.4,406.633 L 8255.23,422.539 L 8246.86,437.023 L 8241.17,443.349 L 8081.14,1098.43 L 8081.14,1290 L 8079.8,1303.66 L 8075.82,1316.79 L 8069.35,1328.89 L 8060.64,1339.5 L 8050.03,1348.2 L 8037.93,1354.67 L 8024.8,1358.65 L 8011.14,1360 L 7997.49,1358.65 L 7984.36,1354.67 L 7972.25,1348.2 L 7961.65,1339.5 L 7952.94,1328.89 L 7946.47,1316.79 L 7942.49,1303.66 L 7941.14,1290 L 7941.14,1090 L 7941.65,1081.63 L 7943.14,1073.39 L 8105.11,410.375 L 8103.89,406.633 L 8102.14,390 L 8103.89,373.367 L 8109.06,357.461 L 8112.14,352.12 L 8112.14,289.994 L 8080.15,257.998 L 7553.6,257.998 L 7505.74,305.856 L 7505.74,352.12 L 7508.83,357.461 L 7514,373.367 L 7515.74,390 L 7514,406.633 L 7508.83,422.539 L 7505.65,428.05 L 7481.14,1091.29 L 7481.14,1290 L 7479.8,1303.66 L 7475.82,1316.79 L 7469.35,1328.89 L 7460.64,1339.5 L 7450.03,1348.2 L 7437.93,1354.67 L 7424.8,1358.65 L 7411.14,1360 L 7397.49,1358.65 L 7384.36,1354.67 L 7372.25,1348.2 L 7361.65,1339.5 L 7352.94,1328.89 L 7346.47,1316.79 L 7342.49,1303.66 L 7341.14,1290 L 7341.14,1090 L 7341.19,1087.42 L 7365.57,427.576 L 7362.66,422.539 L 7357.49,406.633 L 7355.74,390 L 7357.49,373.367 L 7362.66,357.461 L 7365.74,352.12 L 7365.74,305.857 L 7317.88,257.998 L 7002.4,257.998 L 6954.54,305.857 L 6954.54,352.12 L 6957.63,357.461 L 6962.8,373.367 L 6964.54,390 L 6962.8,406.633 L 6957.63,422.539 L 6950.16,435.475 L 6883.48,1071.35 L 6884.7,1075.37 L 6886.14,1090 L 6886.14,1290 L 6884.7,1304.63 L 6880.43,1318.7 L 6873.5,1331.67 L 6864.18,1343.03 L 6852.81,1352.36 L 6839.84,1359.29 L 6825.78,1363.56 L 6811.14,1365 L 6796.51,1363.56 L 6782.44,1359.29 L 6769.48,1352.36 L 6758.11,1343.03 L 6748.78,1331.67 L 6741.85,1318.7 L 6737.58,1304.63 L 6736.14,1290 L 6736.14,1090 L 6737.58,1075.37 L 6741.85,1061.3 L 6744.24,1056.84 L 6810.92,420.882 L 6806.29,406.633 L 6804.54,390 L 6806.29,373.367 L 6811.46,357.461 L 6814.54,352.12 L 6814.54,305.857 L 6766.68,257.998 L 6451.2,257.998 L 6403.34,305.856 L 6403.34,352.121 L 6406.43,357.461 L 6411.6,373.367 L 6413.34,390 L 6411.6,406.633 L 6406.43,422.539 L 6398.06,437.023 L 6386.87,449.452 L 6380.81,453.858 L 6286.14,1095.5 L 6286.14,1290 L 6284.7,1304.63 L 6280.43,1318.7 L 6273.5,1331.67 L 6264.18,1343.03 L 6252.81,1352.36 L 6239.84,1359.29 L 6225.78,1363.56 L 6211.14,1365 L 6196.51,1363.56 L 6182.44,1359.29 L 6169.48,1352.36 L 6158.11,1343.03 L 6148.78,1331.67 L 6141.85,1318.7 L 6137.58,1304.63 L 6136.14,1290 L 6136.14,1090 L 6136.95,1079.05 L 6236.95,401.253 L 6240.51,386.989 L 6246.78,373.693 L 6255.53,361.877 L 6260.2,357.637 L 6260.26,357.461 L 6263.34,352.12 L 6263.34,318.413 L 6202.93,257.998 L 5900,257.998 L 5852.14,305.857 L 5852.14,352.12 L 5855.23,357.461 L 5860.4,373.367 L 5862.14,390 L 5860.4,406.633 L 5855.23,422.539 L 5850.94,429.964 L 5849.98,436.287 L 5685.37,1082.18 L 5686.14,1090 L 5686.14,1290 L 5684.7,1304.63 L 5680.43,1318.7 L 5673.5,1331.67 L 5664.18,1343.03 L 5652.81,1352.36 L 5639.84,1359.29 L 5625.78,1363.56 L 5611.14,1365 L 5596.51,1363.56 L 5582.44,1359.29 L 5569.48,1352.36 L 5558.11,1343.03 L 5548.78,1331.67 L 5541.85,1318.7 L 5537.58,1304.63 L 5536.14,1290 L 5536.14,1090 L 5537.58,1075.37 L 5541.85,1061.3 L 5548.78,1048.33 L 5549.86,1047.02 L 5709.03,422.443 L 5703.89,406.633 L 5702.14,390 L 5703.89,373.367 L 5709.06,357.461 L 5712.14,352.12 L 5712.14,289.994 L 5680.15,257.998 L 5153.6,257.998 L 5105.74,305.857 L 5105.74,352.12 L 5108.83,357.461 L 5114,373.367 L 5115.74,390 L 5114,406.633 L 5108.83,422.539 L 5100.46,437.023 L 5089.27,449.452 L 5081.14,455.359 L 5081.14,1063.63 L 5084.7,1075.37 L 5086.14,1090 L 5086.14,1290 L 5084.7,1304.63 L 5080.43,1318.7 L 5073.5,1331.67 L 5064.18,1343.03 L 5052.81,1352.36 L 5039.84,1359.29 L 5025.78,1363.56 L 5011.14,1365 L 4996.51,1363.56 L 4982.44,1359.29 L 4969.48,1352.36 L 4958.11,1343.03 L 4948.78,1331.67 L 4941.85,1318.7 L 4937.58,1304.63 L 4936.14,1290 L 4936.14,1090 L 4937.58,1075.37 L 4941.14,1063.64 L 4941.14,414.6 L 4942.49,400.944 L 4946.47,387.812 L 4950.46,380.349 L 4828.11,257.998 L 4602.4,257.998 L 4554.54,305.856 L 4554.54,352.12 L 4557.63,357.461 L 4562.8,373.367 L 4564.54,390 L 4562.8,406.633 L 4557.63,422.539 L 4550.16,435.473 L 4483.48,1071.35 L 4484.7,1075.37 L 4486.14,1090 L 4486.14,1290 L 4484.7,1304.63 L 4480.43,1318.7 L 4473.5,1331.67 L 4464.18,1343.03 L 4452.81,1352.36 L 4439.84,1359.29 L 4425.78,1363.56 L 4411.14,1365 L 4396.51,1363.56 L 4382.44,1359.29 L 4369.48,1352.36 L 4358.11,1343.03 L 4348.78,1331.67 L 4341.85,1318.7 L 4337.58,1304.63 L 4336.14,1290 L 4336.14,1090 L 4337.58,1075.37 L 4341.85,1061.3 L 4344.24,1056.84 L 4410.92,420.883 L 4406.29,406.633 L 4405.69,400.863 L 4357.87,335.721 L 4280.15,257.998 L 4051.2,257.998 L 4003.34,305.856 L 4003.34,352.12 L 4006.43,357.461 L 4011.6,373.367 L 4013.34,390 L 4011.6,406.633 L 4006.43,422.539 L 3998.06,437.023 L 3986.87,449.452 L 3975.15,457.971 L 3884.27,1073.94 L 3884.7,1075.37 L 3886.14,1090 L 3886.14,1290 L 3884.7,1304.63 L 3880.43,1318.7 L 3873.5,1331.67 L 3864.18,1343.03 L 3852.81,1352.36 L 3839.84,1359.29 L 3825.78,1363.56 L 3811.14,1365 L 3796.51,1363.56 L 3782.44,1359.29 L 3769.48,1352.36 L 3758.11,1343.03 L 3748.78,1331.67 L 3741.85,1318.7 L 3737.58,1304.63 L 3736.14,1290 L 3736.14,1090 L 3737.58,1075.37 L 3741.85,1061.3 L 3745.68,1054.15 L 3841.89,401.983 L 3845.22,388.669 L 3851.07,376.26 L 3856.56,368.855 L 3860.26,357.461 L 3863.34,352.12 L 3863.34,318.413 L 3802.93,257.998 L 3500,257.998 L 3452.14,305.856 L 3452.14,352.12 L 3455.23,357.461 L 3460.4,373.367 L 3462.14,390 L 3460.4,406.633 L 3455.23,422.539 L 3446.86,437.023 L 3441.17,443.347 L 3285.3,1081.42 L 3286.14,1090 L 3286.14,1290 L 3284.7,1304.63 L 3280.43,1318.7 L 3273.5,1331.67 L 3264.18,1343.03 L 3252.81,1352.36 L 3239.84,1359.29 L 3225.78,1363.56 L 3211.14,1365 L 3196.51,1363.56 L 3182.44,1359.29 L 3169.48,1352.36 L 3158.11,1343.03 L 3148.78,1331.67 L 3141.85,1318.7 L 3137.58,1304.63 L 3136.14,1290 L 3136.14,1090 L 3137.58,1075.37 L 3141.85,1061.3 L 3148.78,1048.33 L 3149.47,1047.5 L 3292.99,460 L 2681.14,460 L 2681.14,1290 L 2679.8,1303.66 L 2675.82,1316.79 L 2669.35,1328.89 L 2660.64,1339.5 L 2650.03,1348.2 L 2637.93,1354.67 L 2624.8,1358.65 L 2611.14,1360 L 2597.49,1358.65 L 2584.36,1354.67 L 2572.25,1348.2 L 2561.65,1339.5 L 2552.94,1328.89 L 2546.47,1316.79 L 2542.49,1303.66 L 2541.14,1290 L 2541.14,429.936 L 2536.87,422.539 L 2531.7,406.633 L 2529.96,390 L 2531.7,373.367 L 2536.87,357.461 L 2539.96,352.122 L 2539.96,305.857 L 2394.1,160 L 1940.14,160 L 1687.42,412.721 L 1684.23,422.539 L 1681.14,427.88 L 1681.14,1290 L 1679.8,1303.66 L 1675.82,1316.79 L 1669.35,1328.89 L 1660.64,1339.5 L 1650.03,1348.2 L 1637.93,1354.67 L 1624.8,1358.65 L 1611.14,1360 L 1597.49,1358.65 L 1584.36,1354.67 L 1572.25,1348.2 L 1561.65,1339.5 L 1552.94,1328.89 L 1546.47,1316.79 L 1542.49,1303.66 L 1541.14,1290 L 1541.14,427.88 L 1538.06,422.539 L 1532.89,406.633 L 1531.14,390 L 1532.89,373.367 L 1538.06,357.461 L 1541.14,352.12 L 1541.14,305.857 L 1395.28,160 L 1140.14,160 L 881.178,418.96 L 884.34,3063.53 L 887.93,3075.37 L 889.371,3090 L 887.93,3104.63 L 883.662,3118.7 L 876.732,3131.67 L 867.404,3143.03 L 856.039,3152.36 L 843.073,3159.29 L 829.003,3163.56 L 814.371,3165 L 414.371,3165 L 399.74,3163.56 L 385.67,3159.29 L 372.704,3152.36 L 361.338,3143.03 L 352.011,3131.67 L 345.08,3118.7 L 340.813,3104.63 L 339.371,3090 L 340.813,3075.37 L 345.08,3061.3 L 352.011,3048.33 L 361.338,3036.97 L 372.704,3027.64 L 385.67,3020.71 L 399.74,3016.44 L 414.371,3015 L 744.282,3015 L 741.144,390.084 L 741.995,379.116 L 744.554,368.417 L 748.758,358.25 L 754.502,348.869 L 761.646,340.503 L 1061.65,40.5025 L 1070,33.3688 L 1079.36,27.6295 L 1089.51,23.426 L 1100.19,20.8618 L 1111.14,20 L 1424.28,20 L 1437.94,21.345 L 1451.07,25.3284 L 1463.17,31.797 L 1473.78,40.5023 L 1660.64,227.364 L 1667.16,234.992 L 1861.65,40.5025 L 1870,33.3688 L 1879.36,27.6295 L 1889.51,23.426 L 1900.19,20.8618 L 1911.14,20 L 2423.09,20 L 2436.75,21.345 L 2449.88,25.3284 L 2461.98,31.797 L 2472.59,40.5023 L 2659.45,227.364 L 2666.59,235.717 L 2672.33,245.082 L 2676.53,255.231 L 2679.09,265.912 L 2679.96,276.862 L 2679.96,320 L 3312.14,320 L 3312.14,276.862 L 3313.49,263.206 L 3317.47,250.075 L 3323.94,237.973 L 3332.65,227.365 L 3421.51,138.501 L 3429.86,131.367 L 3439.23,125.628 L 3449.37,121.424 L 3460.05,118.86 L 3471.01,117.998 L 3831.92,117.998 L 3845.58,119.343 L 3858.71,123.326 L 3870.81,129.795 L 3881.42,138.501 L 3927.06,184.145 L 3972.71,138.501 L 3981.06,131.367 L 3990.43,125.628 L 4000.57,121.424 L 4011.25,118.86 L 4022.21,117.998 L 4309.14,117.998 L 4322.8,119.343 L 4335.93,123.326 L 4348.03,129.795 L 4358.64,138.5 L 4441.27,221.135 L 4523.91,138.501 L 4532.26,131.367 L 4541.63,125.628 L 4551.77,121.424 L 4562.45,118.86 L 4573.41,117.998 L 4857.1,117.998 L 4870.76,119.343 L 4883.89,123.326 L 4895.99,129.795 L 4906.6,138.5 L 4990.86,222.755 L 5075.11,138.501 L 5083.46,131.367 L 5092.83,125.628 L 5102.97,121.424 L 5113.65,118.86 L 5124.61,117.998 L 5709.14,117.998 L 5722.8,119.343 L 5735.93,123.326 L 5748.03,129.795 L 5758.64,138.5 L 5790.07,169.935 L 5821.51,138.501 L 5829.86,131.367 L 5839.23,125.628 L 5849.37,121.424 L 5860.05,118.86 L 5871.01,117.998 L 6231.92,117.998 L 6245.58,119.343 L 6258.71,123.326 L 6270.81,129.795 L 6281.42,138.501 L 6327.06,184.145 L 6372.71,138.501 L 6381.06,131.367 L 6390.43,125.628 L 6400.57,121.424 L 6411.25,118.86 L 6422.21,117.998 L 6795.68,117.998 L 6809.34,119.343 L 6822.47,123.326 L 6834.57,129.795 L 6845.18,138.501 L 6884.54,177.867 L 6923.91,138.501 L 6932.26,131.367 L 6941.63,125.628 L 6951.77,121.424 L 6962.45,118.86 L 6973.41,117.998 L 7346.88,117.998 L 7360.54,119.343 L 7373.67,123.326 L 7385.77,129.795 L 7396.38,138.501 L 7435.74,177.867 L 7475.11,138.501 L 7483.46,131.367 L 7492.83,125.628 L 7502.97,121.424 L 7513.65,118.86 L 7524.61,117.998 L 8109.14,117.998 L 8122.8,119.343 L 8135.93,123.326 L 8148.03,129.795 L 8158.64,138.5 L 8190.07,169.935 L 8221.51,138.501 L 8229.86,131.367 L 8239.23,125.628 L 8249.37,121.424 L 8260.05,118.86 L 8271.01,117.998 L 8644.48,117.998 L 8658.14,119.343 L 8671.27,123.326 L 8683.37,129.795 L 8693.98,138.501 L 8733.34,177.866 L 8772.71,138.501 L 8781.06,131.367 L 8790.43,125.628 L 8800.57,121.424 L 8811.25,118.86 L 8822.21,117.998 L 9195.68,117.998 L 9209.34,119.343 L 9222.47,123.326 L 9234.57,129.795 L 9245.18,138.501 L 9284.54,177.867 L 9323.91,138.501 L 9332.26,131.367 L 9341.63,125.628 L 9351.77,121.424 L 9362.45,118.86 L 9373.41,117.998 L 9709.14,117.998 L 9722.8,119.343 L 9735.93,123.326 L 9748.03,129.795 L 9758.64,138.5 L 9816.87,196.735 L 9875.11,138.501 L 9883.46,131.367 L 9892.83,125.628 L 9902.97,121.424 L 9913.65,118.86 L 9924.61,117.998 L 10509.1,117.998 L 10522.8,119.343 L 10535.9,123.326 L 10548,129.795 L 10558.6,138.5 L 10590.1,169.935 L 10621.5,138.501 L 10629.9,131.367 L 10639.2,125.628 L 10649.4,121.424 L 10660.1,118.86 L 10671,117.998 L 11044.5,117.998 L 11055.4,118.86 L 11066.1,121.424 L 11076.3,125.628 L 11085.6,131.367 L 11094,138.501 L 11133.3,177.867 L 11172.7,138.501 L 11183.3,129.795 L 11195.4,123.326 L 11208.5,119.343 L 11222.2,117.998 L 11609.1,117.998 L 11622.8,119.343 L 11635.9,123.326 L 11648,129.795 L 11658.6,138.501 L 11691.3,171.135 L 11723.9,138.501 L 11732.3,131.367 L 11741.6,125.628 L 11751.8,121.424 L 11762.5,118.86 L 11773.4,117.998 L 12146.9,117.998 L 12160.5,119.343 L 12173.7,123.326 L 12185.8,129.795 L 12196.4,138.501 L 12285.2,227.365 L 12292.4,235.717 L 12298.1,245.083 L 12302.3,255.231 L 12304.9,265.912 L 12305.7,276.862 L 12305.7,352.12 L 12308.8,357.461 L 12314,373.367 L 12315.7,390 L 12314,406.633 L 12308.8,422.539 L 12304.1,430.664 L 12281.1,991.435 L 12281.1,1290 L 12279.8,1303.66 L 12275.8,1316.79 L 12269.3,1328.89 L 12260.6,1339.5 L 12250,1348.2 L 12237.9,1354.67 L 12224.8,1358.65 L 12211.1,1360 L 12197.5,1358.65 L 12184.4,1354.67 L 12172.3,1348.2 L 12161.6,1339.5 L 12152.9,1328.89 L 12146.5,1316.79 L 12142.5,1303.66 L 12141.1,1290 L 12141.1,990 L 12141.2,987.132 L 12164.2,425.273 L 12162.7,422.539 L 12157.5,406.633 L 12155.7,390 L 12157.5,373.367 L 12162.7,357.461 L 12165.7,352.12 L 12165.7,305.857 L 12117.9,257.998 L 11802.4,257.998 L 11754.5,305.856 L 11754.5,352.12 L 11757.6,357.461 L 11762.8,373.367 L 11764.5,390 L 11762.8,406.633 L 11757.6,422.539 L 11750.2,435.475 L 11681.1,1093.66 L 11681.1,1290 L 11679.8,1303.66 L 11675.8,1316.79 L 11669.3,1328.89 L 11660.6,1339.5 L 11650,1348.2 L 11637.9,1354.67 L 11624.8,1358.65 L 11611.1,1360 L 11597.5,1358.65 L 11584.4,1354.67 L 11572.3,1348.2 L 11561.6,1339.5 L 11552.9,1328.89 L 11546.5,1316.79 L 11542.5,1303.66 L 11541.1,1290 L 11541.1,1090 L 11541.5,1082.7 L 11610.9,420.882 L 11606.3,406.633 L 11604.5,390 L 11606.3,373.367 L 11611.5,357.461 L 11614.5,352.12 L 11614.5,292.395 L 11580.1,257.998 L 11251.2,257.998 L 11203.3,305.857 L 11203.3,352.116 L 11206.4,357.461 L 11211.6,373.367 L 11213.3,390 L 11211.6,406.633 L 11206.4,422.539 L 11198.1,437.023 L 11195.7,439.606 L 11081.1,1096.06 L 11081.1,1290 L 11079.8,1303.66 L 11075.8,1316.79 L 11069.3,1328.89 L 11060.6,1339.5 L 11050,1348.2 L 11037.9,1354.67 L 11024.8,1358.65 L 11011.1,1360 L 10997.5,1358.65 L 10984.4,1354.67 L 10972.3,1348.2 L 10961.6,1339.5 L 10952.9,1328.89 L 10946.5,1316.79 L 10942.5,1303.66 L 10941.1,1290 L 10941.1,1090 L 10942.2,1077.96 L 11057.9,415.217 z " style="fill-opacity:1.000000;fill:rgb(175,226,240);stroke:rgb(0,0,0);stroke-width:2"/></g>
<g fill-rule="evenodd"><path d="M 10915.4,444.889 L 10781.1,1097.13 L 10781.1,2190 L 10780,2202.54 L 10776.6,2214.68 L 10771.2,2226.01 L 10483.5,2705.46 L 10481.1,2712.72 L 10481.1,3067.28 L 10483.5,3074.61 L 10485.1,3090 L 10483.5,3105.39 L 10478.7,3120.1 L 10471,3133.5 L 10460.7,3144.99 L 10448.1,3154.09 L 10434,3160.38 L 10418.9,3163.59 L 10403.4,3163.59 L 10388.3,3160.38 L 10374.1,3154.09 L 10361.6,3144.99 L 10351.3,3133.5 L 10343.5,3120.1 L 10338.8,3105.39 L 10337.1,3090 L 10338.8,3074.61 L 10341.1,3067.28 L 10341.1,2712.72 L 10338.8,2705.39 L 10337.1,2690 L 10338.8,2674.61 L 10343.5,2659.9 L 10351.3,2646.5 L 10361.6,2635.01 L 10363.2,2633.88 L 10641.1,2170.61 L 10641.1,1090 L 10641.5,1082.91 L 10642.6,1075.89 L 10780,408.198 L 10779.5,406.633 L 10777.7,390 L 10779.5,373.367 L 10784.7,357.461 L 10793,342.977 L 10804.2,330.548 L 10817.7,320.718 L 10833,313.915 L 10849.4,310.438 L 10866.1,310.438 L 10882.5,313.915 L 10897.7,320.718 L 10911.3,330.548 L 10922.5,342.977 L 10930.8,357.461 L 10936,373.367 L 10937.7,390 L 10936,406.633 L 10930.8,422.539 L 10922.5,437.023 L 10915.4,444.889 z " style="fill-opacity:1.000000;fill:rgb(228,158,79);stroke:rgb(0,0,0);stroke-width:2"/></g>
<g fill-rule="evenodd"><path d="M 11475.6,433.637 L 11381.1,1094.98 L 11381.1,2190 L 11380,2202.54 L 11376.6,2214.68 L 11371.2,2226.01 L 11083.5,2705.46 L 11081.1,2712.72 L 11081.1,3067.28 L 11083.5,3074.61 L 11085.1,3090 L 11083.5,3105.39 L 11078.7,3120.1 L 11071,3133.5 L 11060.7,3144.99 L 11048.1,3154.09 L 11034,3160.38 L 11018.9,3163.59 L 11003.4,3163.59 L 10988.3,3160.38 L 10974.1,3154.09 L 10961.6,3144.99 L 10951.3,3133.5 L 10943.5,3120.1 L 10938.8,3105.39 L 10937.1,3090 L 10938.8,3074.61 L 10941.1,3067.28 L 10941.1,2712.72 L 10938.8,2705.39 L 10937.1,2690 L 10938.8,2674.61 L 10943.5,2659.9 L 10951.3,2646.5 L 10961.6,2635.01 L 10963.2,2633.88 L 11241.1,2170.61 L 11241.1,1090 L 11241.8,1080.1 L 11335.8,422.376 L 11330.7,406.633 L 11328.9,390 L 11330.7,373.367 L 11335.9,357.461 L 11344.2,342.977 L 11355.4,330.548 L 11368.9,320.718 L 11384.2,313.915 L 11400.6,310.438 L 11417.3,310.438 L 11433.7,313.915 L 11448.9,320.718 L 11462.5,330.548 L 11473.7,342.977 L 11482,357.461 L 11487.2,373.367 L 11488.9,390 L 11487.2,406.633 L 11482,422.539 L 11475.6,433.637 z " style="fill-opacity:1.000000;fill:rgb(50,21,73);stroke:rgb(0,0,0);stroke-width:2"/></g>
<g fill-rule="evenodd"><path d="M 12027.3,432.769 L 11981.1,1092.45 L 11981.1,2190 L 11980,2202.54 L 11976.6,2214.68 L 11971.2,2226.01 L 11683.5,2705.46 L 11681.1,2712.72 L 11681.1,3067.28 L 11683.5,3074.61 L 11685.1,3090 L 11683.5,3105.39 L 11678.7,3120.1 L 11671,3133.5 L 11660.7,3144.99 L 11648.1,3154.09 L 11634,3160.38 L 11618.9,3163.59 L 11603.4,3163.59 L 11588.3,3160.38 L 11574.1,3154.09 L 11561.6,3144.99 L 11551.3,3133.5 L 11543.5,3120.1 L 11538.8,3105.39 L 11537.1,3090 L 11538.8,3074.61 L 11541.1,3067.28 L 11541.1,2712.72 L 11538.8,2705.39 L 11537.1,2690 L 11538.8,2674.61 L 11543.5,2659.9 L 11551.3,2646.5 L 11561.6,2635.01 L 11563.2,2633.88 L 11841.1,2170.61 L 11841.1,1090 L 11841.3,1085.11 L 11887.6,423.52 L 11887.1,422.539 L 11881.9,406.633 L 11880.1,390 L 11881.9,373.367 L 11887.1,357.461 L 11895.4,342.977 L 11906.6,330.548 L 11920.1,320.718 L 11935.4,313.915 L 11951.8,310.438 L 11968.5,310.438 L 11984.9,313.915 L 12000.1,320.718 L 12013.7,330.548 L 12024.9,342.977 L 12033.2,357.461 L 12038.4,373.367 L 12040.1,390 L 12038.4,406.633 L 12033.2,422.539 L 12027.3,432.769 z " style="fill-opacity:1.000000;fill:rgb(253,130,78);stroke:rgb(0,0,0);stroke-width:2"/></g>
</svg>
