<?xml version="1.0" standalone="no"?>
<!DOCTYPE svg PUBLIC "-//W3C//DTD SVG 1.1//EN"
"http://www.w3.org/Graphics/SVG/1.1/DTD/svg11.dtd">
<svg width="607.255" height="380.16" viewBox="0 0 12651.1 7920" version="1.1"
xmlns="http://www.w3.org/2000/svg"
xmlns:xlink="http://www.w3.org/1999/xlink">
<g fill-rule="evenodd"><path d="M 7894.14,7610 L 7892.76,7623.1 L 7888.69,7635.62 L 7882.11,7647.03 L 7873.29,7656.81 L 7862.64,7664.55 L 7850.61,7669.91 L 7837.73,7672.65 L 7824.56,7672.65 L 7811.68,7669.91 L 7799.65,7664.55 L 7788.99,7656.81 L 7780.18,7647.03 L 7773.6,7635.62 L 7769.53,7623.1 L 7768.15,7610 L 7769.53,7596.9 L 7773.6,7584.38 L 7780.18,7572.97 L 7788.99,7563.19 L 7799.65,7555.45 L 7811.68,7550.09 L 7824.56,7547.35 L 7837.73,7547.35 L 7850.61,7550.09 L 7862.64,7555.45 L 7873.29,7563.19 L 7882.11,7572.97 L 7888.69,7584.38 L 7892.76,7596.9 L 7894.14,7610 z " style="fill-opacity:1.000000;fill:rgb(103,198,105);stroke:rgb(0,0,0);stroke-width:2"/></g>
<g fill-rule="evenodd"><path d="M 8094.14,7610 L 8092.76,7623.1 L 8088.69,7635.62 L 8082.11,7647.03 L 8073.29,7656.81 L 8062.64,7664.55 L 8050.61,7669.91 L 8037.73,7672.65 L 8024.56,7672.65 L 8011.68,7669.91 L 7999.65,7664.55 L 7988.99,7656.81 L 7980.18,7647.03 L 7973.6,7635.62 L 7969.53,7623.1 L 7968.15,7610 L 7969.53,7596.9 L 7973.6,7584.38 L 7980.18,7572.97 L 7988.99,7563.19 L 7999.65,7555.45 L 8011.68,7550.09 L 8024.56,7547.35 L 8037.73,7547.35 L 8050.61,7550.09 L 8062.64,7555.45 L 8073.29,7563.19 L 8082.11,7572.97 L 8088.69,7584.38 L 8092.76,7596.9 L 8094.14,7610 z " style="fill-opacity:1.000000;fill:rgb(115,81,255);stroke:rgb(0,0,0);stroke-width:2"/></g>
<g fill-rule="evenodd"><path d="M 8294.14,7610 L 8292.76,7623.1 L 8288.69,7635.62 L 8282.11,7647.03 L 8273.29,7656.81 L 8262.64,7664.55 L 8250.61,7669.91 L 8237.73,7672.65 L 8224.56,7672.65 L 8211.68,7669.91 L 8199.65,7664.55 L 8188.99,7656.81 L 8180.18,7647.03 L 8173.6,7635.62 L 8169.53,7623.1 L 8168.15,7610 L 8169.53,7596.9 L 8173.6,7584.38 L 8180.18,7572.97 L 8188.99,7563.19 L 8199.65,7555.45 L 8211.68,7550.09 L 8224.56,7547.35 L 8237.73,7547.35 L 8250.61,7550.09 L 8262.64,7555.45 L 8273.29,7563.19 L 8282.11,7572.97 L 8288.69,7584.38 L 8292.76,7596.9 L 8294.14,7610 z " style="fill-opacity:1.000000;fill:rgb(74,236,41);stroke:rgb(0,0,0);stroke-width:2"/></g>
<g fill-rule="evenodd"><path d="M 8494.14,7610 L 8492.76,7623.1 L 8488.69,7635.62 L 8482.11,7647.03 L 8473.29,7656.81 L 8462.64,7664.55 L 8450.61,7669.91 L 8437.73,7672.65 L 8424.56,7672.65 L 8411.68,7669.91 L 8399.65,7664.55 L 8388.99,7656.81 L 8380.18,7647.03 L 8373.6,7635.62 L 8369.53,7623.1 L 8368.15,7610 L 8369.53,7596.9 L 8373.6,7584.38 L 8380.18,7572.97 L 8388.99,7563.19 L 8399.65,7555.45 L 8411.68,7550.09 L 8424.56,7547.35 L 8437.73,7547.35 L 8450.61,7550.09 L 8462.64,7555.45 L 8473.29,7563.19 L 8482.11,7572.97 L 8488.69,7584.38 L 8492.76,7596.9 L 8494.14,7610 z " style="fill-opacity:1.000000;fill:rgb(205,186,171);stroke:rgb(0,0,0);stroke-width:2"/></g>
<g fill-rule="evenodd"><path d="M 7694.14,7610 L 7692.76,7623.1 L 7688.69,7635.62 L 7682.11,7647.03 L 7673.29,7656.81 L 7662.64,7664.55 L 7650.61,7669.91 L 7637.73,7672.65 L 7624.56,7672.65 L 7611.68,7669.91 L 7599.65,7664.55 L 7588.99,7656.81 L 7580.18,7647.03 L 7573.6,7635.62 L 7569.53,7623.1 L 7568.15,7610 L 7569.53,7596.9 L 7573.6,7584.38 L 7580.18,7572.97 L 7588.99,7563.19 L 7599.65,7555.45 L 7611.68,7550.09 L 7624.56,7547.35 L 7637.73,7547.35 L 7650.61,7550.09 L 7662.64,7555.45 L 7673.29,7563.19 L 7682.11,7572.97 L 7688.69,7584.38 L 7692.76,7596.9 L 7694.14,7610 z " style="fill-opacity:1.000000;fill:rgb(242,251,227);stroke:rgb(0,0,0);stroke-width:2"/></g>
<g fill-rule="evenodd"><path d="M 7294.14,7610 L 7292.76,7623.1 L 7288.69,7635.62 L 7282.11,7647.03 L 7273.29,7656.81 L 7262.64,7664.55 L 7250.61,7669.91 L 7237.73,7672.65 L 7224.56,7672.65 L 7211.68,7669.91 L 7199.65,7664.55 L 7188.99,7656.81 L 7180.18,7647.03 L 7173.6,7635.62 L 7169.53,7623.1 L 7168.15,7610 L 7169.53,7596.9 L 7173.6,7584.38 L 7180.18,7572.97 L 7188.99,7563.19 L 7199.65,7555.45 L 7211.68,7550.09 L 7224.56,7547.35 L 7237.73,7547.35 L 7250.61,7550.09 L 7262.64,7555.45 L 7273.29,7563.19 L 7282.11,7572.97 L 7288.69,7584.38 L 7292.76,7596.9 L 7294.14,7610 z " style="fill-opacity:1.000000;fill:rgb(70,124,194);stroke:rgb(0,0,0);stroke-width:2"/></g>
<g fill-rule="evenodd"><path d="M 8694.14,7610 L 8692.76,7623.1 L 8688.69,7635.62 L 8682.11,7647.03 L 8673.29,7656.81 L 8662.64,7664.55 L 8650.61,7669.91 L 8637.73,7672.65 L 8624.56,7672.65 L 8611.68,7669.91 L 8599.65,7664.55 L 8588.99,7656.81 L 8580.18,7647.03 L 8573.6,7635.62 L 8569.53,7623.1 L 8568.15,7610 L 8569.53,7596.9 L 8573.6,7584.38 L 8580.18,7572.97 L 8588.99,7563.19 L 8599.65,7555.45 L 8611.68,7550.09 L 8624.56,7547.35 L 8637.73,7547.35 L 8650.61,7550.09 L 8662.64,7555.45 L 8673.29,7563.19 L 8682.11,7572.97 L 8688.69,7584.38 L 8692.76,7596.9 L 8694.14,7610 z " style="fill-opacity:1.000000;fill:rgb(84,248,27);stroke:rgb(0,0,0);stroke-width:2"/></g>
<g fill-rule="evenodd"><path d="M 8894.14,7610 L 8892.76,7623.1 L 8888.69,7635.62 L 8882.11,7647.03 L 8873.29,7656.81 L 8862.64,7664.55 L 8850.61,7669.91 L 8837.73,7672.65 L 8824.56,7672.65 L 8811.68,7669.91 L 8799.65,7664.55 L 8788.99,7656.81 L 8780.18,7647.03 L 8773.6,7635.62 L 8769.53,7623.1 L 8768.15,7610 L 8769.53,7596.9 L 8773.6,7584.38 L 8780.18,7572.97 L 8788.99,7563.19 L 8799.65,7555.45 L 8811.68,7550.09 L 8824.56,7547.35 L 8837.73,7547.35 L 8850.61,7550.09 L 8862.64,7555.45 L 8873.29,7563.19 L 8882.11,7572.97 L 8888.69,7584.38 L 8892.76,7596.9 L 8894.14,7610 z " style="fill-opacity:1.000000;fill:rgb(232,231,141);stroke:rgb(0,0,0);stroke-width:2"/></g>
<g fill-rule="evenodd"><path d="M 9294.14,6410 L 9292.76,6423.1 L 9288.69,6435.62 L 9282.11,6447.03 L 9273.29,6456.81 L 9262.64,6464.55 L 9250.61,6469.91 L 9237.73,6472.65 L 9224.56,6472.65 L 9211.68,6469.91 L 9199.65,6464.55 L 9188.99,6456.81 L 9180.18,6447.03 L 9173.6,6435.62 L 9169.53,6423.1 L 9168.15,6410 L 9169.53,6396.9 L 9173.6,6384.38 L 9180.18,6372.97 L 9188.99,6363.19 L 9199.65,6355.45 L 9211.68,6350.09 L 9224.56,6347.35 L 9237.73,6347.35 L 9250.61,6350.09 L 9262.64,6355.45 L 9273.29,6363.19 L 9282.11,6372.97 L 9288.69,6384.38 L 9292.76,6396.9 L 9294.14,6410 z " style="fill-opacity:1.000000;fill:rgb(118,90,46);stroke:rgb(0,0,0);stroke-width:2"/></g>
<g fill-rule="evenodd"><path d="M 9094.14,6410 L 9092.76,6423.1 L 9088.69,6435.62 L 9082.11,6447.03 L 9073.29,6456.81 L 9062.64,6464.55 L 9050.61,6469.91 L 9037.73,6472.65 L 9024.56,6472.65 L 9011.68,6469.91 L 8999.65,6464.55 L 8988.99,6456.81 L 8980.18,6447.03 L 8973.6,6435.62 L 8969.53,6423.1 L 8968.15,6410 L 8969.53,6396.9 L 8973.6,6384.38 L 8980.18,6372.97 L 8988.99,6363.19 L 8999.65,6355.45 L 9011.68,6350.09 L 9024.56,6347.35 L 9037.73,6347.35 L 9050.61,6350.09 L 9062.64,6355.45 L 9073.29,6363.19 L 9082.11,6372.97 L 9088.69,6384.38 L 9092.76,6396.9 L 9094.14,6410 z " style="fill-opacity:1.000000;fill:rgb(99,51,159);stroke:rgb(0,0,0);stroke-width:2"/></g>
<g fill-rule="evenodd"><path d="M 7894.14,6410 L 7892.76,6423.1 L 7888.69,6435.62 L 7882.11,6447.03 L 7873.29,6456.81 L 7862.64,6464.55 L 7850.61,6469.91 L 7837.73,6472.65 L 7824.56,6472.65 L 7811.68,6469.91 L 7799.65,6464.55 L 7788.99,6456.81 L 7780.18,6447.03 L 7773.6,6435.62 L 7769.53,6423.1 L 7768.15,6410 L 7769.53,6396.9 L 7773.6,6384.38 L 7780.18,6372.97 L 7788.99,6363.19 L 7799.65,6355.45 L 7811.68,6350.09 L 7824.56,6347.35 L 7837.73,6347.35 L 7850.61,6350.09 L 7862.64,6355.45 L 7873.29,6363.19 L 7882.11,6372.97 L 7888.69,6384.38 L 7892.76,6396.9 L 7894.14,6410 z " style="fill-opacity:1.000000;fill:rgb(201,154,102);stroke:rgb(0,0,0);stroke-width:2"/></g>
<g fill-rule="evenodd"><path d="M 7094.14,7610 L 7092.76,7623.1 L 7088.69,7635.62 L 7082.11,7647.03 L 7073.29,7656.81 L 7062.64,7664.55 L 7050.61,7669.91 L 7037.73,7672.65 L 7024.56,7672.65 L 7011.68,7669.91 L 6999.65,7664.55 L 6988.99,7656.81 L 6980.18,7647.03 L 6973.6,7635.62 L 6969.53,7623.1 L 6968.15,7610 L 6969.53,7596.9 L 6973.6,7584.38 L 6980.18,7572.97 L 6988.99,7563.19 L 6999.65,7555.45 L 7011.68,7550.09 L 7024.56,7547.35 L 7037.73,7547.35 L 7050.61,7550.09 L 7062.64,7555.45 L 7073.29,7563.19 L 7082.11,7572.97 L 7088.69,7584.38 L 7092.76,7596.9 L 7094.14,7610 z " style="fill-opacity:1.000000;fill:rgb(50,13,183);stroke:rgb(0,0,0);stroke-width:2"/></g>
<g fill-rule="evenodd"><path d="M 6894.14,7610 L 6892.76,7623.1 L 6888.69,7635.62 L 6882.11,7647.03 L 6873.29,7656.81 L 6862.64,7664.55 L 6850.61,7669.91 L 6837.73,7672.65 L 6824.56,7672.65 L 6811.68,7669.91 L 6799.65,7664.55 L 6788.99,7656.81 L 6780.18,7647.03 L 6773.6,7635.62 L 6769.53,7623.1 L 6768.15,7610 L 6769.53,7596.9 L 6773.6,7584.38 L 6780.18,7572.97 L 6788.99,7563.19 L 6799.65,7555.45 L 6811.68,7550.09 L 6824.56,7547.35 L 6837.73,7547.35 L 6850.61,7550.09 L 6862.64,7555.45 L 6873.29,7563.19 L 6882.11,7572.97 L 6888.69,7584.38 L 6892.76,7596.9 L 6894.14,7610 z " style="fill-opacity:1.000000;fill:rgb(49,88,163);stroke:rgb(0,0,0);stroke-width:2"/></g>
<g fill-rule="evenodd"><path d="M 6694.14,7610 L 6692.76,7623.1 L 6688.69,7635.62 L 6682.11,7647.03 L 6673.29,7656.81 L 6662.64,7664.55 L 6650.61,7669.91 L 6637.73,7672.65 L 6624.56,7672.65 L 6611.68,7669.91 L 6599.65,7664.55 L 6588.99,7656.81 L 6580.18,7647.03 L 6573.6,7635.62 L 6569.53,7623.1 L 6568.15,7610 L 6569.53,7596.9 L 6573.6,7584.38 L 6580.18,7572.97 L 6588.99,7563.19 L 6599.65,7555.45 L 6611.68,7550.09 L 6624.56,7547.35 L 6637.73,7547.35 L 6650.61,7550.09 L 6662.64,7555.45 L 6673.29,7563.19 L 6682.11,7572.97 L 6688.69,7584.38 L 6692.76,7596.9 L 6694.14,7610 z " style="fill-opacity:1.000000;fill:rgb(90,37,93);stroke:rgb(0,0,0);stroke-width:2"/></g>
<g fill-rule="evenodd"><path d="M 6494.14,7610 L 6492.76,7623.1 L 6488.69,7635.62 L 6482.11,7647.03 L 6473.29,7656.81 L 6462.64,7664.55 L 6450.61,7669.91 L 6437.73,7672.65 L 6424.56,7672.65 L 6411.68,7669.91 L 6399.65,7664.55 L 6388.99,7656.81 L 6380.18,7647.03 L 6373.6,7635.62 L 6369.53,7623.1 L 6368.15,7610 L 6369.53,7596.9 L 6373.6,7584.38 L 6380.18,7572.97 L 6388.99,7563.19 L 6399.65,7555.45 L 6411.68,7550.09 L 6424.56,7547.35 L 6437.73,7547.35 L 6450.61,7550.09 L 6462.64,7555.45 L 6473.29,7563.19 L 6482.11,7572.97 L 6488.69,7584.38 L 6492.76,7596.9 L 6494.14,7610 z " style="fill-opacity:1.000000;fill:rgb(5,23,88);stroke:rgb(0,0,0);stroke-width:2"/></g>
<g fill-rule="evenodd"><path d="M 6294.14,7610 L 6292.76,7623.1 L 6288.69,7635.62 L 6282.11,7647.03 L 6273.29,7656.81 L 6262.64,7664.55 L 6250.61,7669.91 L 6237.73,7672.65 L 6224.56,7672.65 L 6211.68,7669.91 L 6199.65,7664.55 L 6188.99,7656.81 L 6180.18,7647.03 L 6173.6,7635.62 L 6169.53,7623.1 L 6168.15,7610 L 6169.53,7596.9 L 6173.6,7584.38 L 6180.18,7572.97 L 6188.99,7563.19 L 6199.65,7555.45 L 6211.68,7550.09 L 6224.56,7547.35 L 6237.73,7547.35 L 6250.61,7550.09 L 6262.64,7555.45 L 6273.29,7563.19 L 6282.11,7572.97 L 6288.69,7584.38 L 6292.76,7596.9 L 6294.14,7610 z " style="fill-opacity:1.000000;fill:rgb(233,94,212);stroke:rgb(0,0,0);stroke-width:2"/></g>
<g fill-rule="evenodd"><path d="M 6094.14,7610 L 6092.76,7623.1 L 6088.69,7635.62 L 6082.11,7647.03 L 6073.29,7656.81 L 6062.64,7664.55 L 6050.61,7669.91 L 6037.73,7672.65 L 6024.56,7672.65 L 6011.68,7669.91 L 5999.65,7664.55 L 5988.99,7656.81 L 5980.18,7647.03 L 5973.6,7635.62 L 5969.53,7623.1 L 5968.15,7610 L 5969.53,7596.9 L 5973.6,7584.38 L 5980.18,7572.97 L 5988.99,7563.19 L 5999.65,7555.45 L 6011.68,7550.09 L 6024.56,7547.35 L 6037.73,7547.35 L 6050.61,7550.09 L 6062.64,7555.45 L 6073.29,7563.19 L 6082.11,7572.97 L 6088.69,7584.38 L 6092.76,7596.9 L 6094.14,7610 z " style="fill-opacity:1.000000;fill:rgb(171,178,205);stroke:rgb(0,0,0);stroke-width:2"/></g>
<g fill-rule="evenodd"><path d="M 5894.14,7610 L 5892.76,7623.1 L 5888.69,7635.62 L 5882.11,7647.03 L 5873.29,7656.81 L 5862.64,7664.55 L 5850.61,7669.91 L 5837.73,7672.65 L 5824.56,7672.65 L 5811.68,7669.91 L 5799.65,7664.55 L 5788.99,7656.81 L 5780.18,7647.03 L 5773.6,7635.62 L 5769.53,7623.1 L 5768.15,7610 L 5769.53,7596.9 L 5773.6,7584.38 L 5780.18,7572.97 L 5788.99,7563.19 L 5799.65,7555.45 L 5811.68,7550.09 L 5824.56,7547.35 L 5837.73,7547.35 L 5850.61,7550.09 L 5862.64,7555.45 L 5873.29,7563.19 L 5882.11,7572.97 L 5888.69,7584.38 L 5892.76,7596.9 L 5894.14,7610 z " style="fill-opacity:1.000000;fill:rgb(198,155,180);stroke:rgb(0,0,0);stroke-width:2"/></g>
<g fill-rule="evenodd"><path d="M 5694.14,7610 L 5692.76,7623.1 L 5688.69,7635.62 L 5682.11,7647.03 L 5673.29,7656.81 L 5662.64,7664.55 L 5650.61,7669.91 L 5637.73,7672.65 L 5624.56,7672.65 L 5611.68,7669.91 L 5599.65,7664.55 L 5588.99,7656.81 L 5580.18,7647.03 L 5573.6,7635.62 L 5569.53,7623.1 L 5568.15,7610 L 5569.53,7596.9 L 5573.6,7584.38 L 5580.18,7572.97 L 5588.99,7563.19 L 5599.65,7555.45 L 5611.68,7550.09 L 5624.56,7547.35 L 5637.73,7547.35 L 5650.61,7550.09 L 5662.64,7555.45 L 5673.29,7563.19 L 5682.11,7572.97 L 5688.69,7584.38 L 5692.76,7596.9 L 5694.14,7610 z " style="fill-opacity:1.000000;fill:rgb(84,17,14);stroke:rgb(0,0,0);stroke-width:2"/></g>
<g fill-rule="evenodd"><path d="M 5494.14,7610 L 5492.76,7623.1 L 5488.69,7635.62 L 5482.11,7647.03 L 5473.29,7656.81 L 5462.64,7664.55 L 5450.61,7669.91 L 5437.73,7672.65 L 5424.56,7672.65 L 5411.68,7669.91 L 5399.65,7664.55 L 5388.99,7656.81 L 5380.18,7647.03 L 5373.6,7635.62 L 5369.53,7623.1 L 5368.15,7610 L 5369.53,7596.9 L 5373.6,7584.38 L 5380.18,7572.97 L 5388.99,7563.19 L 5399.65,7555.45 L 5411.68,7550.09 L 5424.56,7547.35 L 5437.73,7547.35 L 5450.61,7550.09 L 5462.64,7555.45 L 5473.29,7563.19 L 5482.11,7572.97 L 5488.69,7584.38 L 5492.76,7596.9 L 5494.14,7610 z " style="fill-opacity:1.000000;fill:rgb(130,116,65);stroke:rgb(0,0,0);stroke-width:2"/></g>
<g fill-rule="evenodd"><path d="M 5294.14,7610 L 5292.76,7623.1 L 5288.69,7635.62 L 5282.11,7647.03 L 5273.29,7656.81 L 5262.64,7664.55 L 5250.61,7669.91 L 5237.73,7672.65 L 5224.56,7672.65 L 5211.68,7669.91 L 5199.65,7664.55 L 5188.99,7656.81 L 5180.18,7647.03 L 5173.6,7635.62 L 5169.53,7623.1 L 5168.15,7610 L 5169.53,7596.9 L 5173.6,7584.38 L 5180.18,7572.97 L 5188.99,7563.19 L 5199.65,7555.45 L 5211.68,7550.09 L 5224.56,7547.35 L 5237.73,7547.35 L 5250.61,7550.09 L 5262.64,7555.45 L 5273.29,7563.19 L 5282.11,7572.97 L 5288.69,7584.38 L 5292.76,7596.9 L 5294.14,7610 z " style="fill-opacity:1.000000;fill:rgb(33,61,220);stroke:rgb(0,0,0);stroke-width:2"/></g>
<g fill-rule="evenodd"><path d="M 5094.14,7610 L 5092.76,7623.1 L 5088.69,7635.62 L 5082.11,7647.03 L 5073.29,7656.81 L 5062.64,7664.55 L 5050.61,7669.91 L 5037.73,7672.65 L 5024.56,7672.65 L 5011.68,7669.91 L 4999.65,7664.55 L 4988.99,7656.81 L 4980.18,7647.03 L 4973.6,7635.62 L 4969.53,7623.1 L 4968.15,7610 L 4969.53,7596.9 L 4973.6,7584.38 L 4980.18,7572.97 L 4988.99,7563.19 L 4999.65,7555.45 L 5011.68,7550.09 L 5024.56,7547.35 L 5037.73,7547.35 L 5050.61,7550.09 L 5062.64,7555.45 L 5073.29,7563.19 L 5082.11,7572.97 L 5088.69,7584.38 L 5092.76,7596.9 L 5094.14,7610 z " style="fill-opacity:1.000000;fill:rgb(135,112,233);stroke:rgb(0,0,0);stroke-width:2"/></g>
<g fill-rule="evenodd"><path d="M 4894.14,7610 L 4892.76,7623.1 L 4888.69,7635.62 L 4882.11,7647.03 L 4873.29,7656.81 L 4862.64,7664.55 L 4850.61,7669.91 L 4837.73,7672.65 L 4824.56,7672.65 L 4811.68,7669.91 L 4799.65,7664.55 L 4788.99,7656.81 L 4780.18,7647.03 L 4773.6,7635.62 L 4769.53,7623.1 L 4768.15,7610 L 4769.53,7596.9 L 4773.6,7584.38 L 4780.18,7572.97 L 4788.99,7563.19 L 4799.65,7555.45 L 4811.68,7550.09 L 4824.56,7547.35 L 4837.73,7547.35 L 4850.61,7550.09 L 4862.64,7555.45 L 4873.29,7563.19 L 4882.11,7572.97 L 4888.69,7584.38 L 4892.76,7596.9 L 4894.14,7610 z " style="fill-opacity:1.000000;fill:rgb(62,161,65);stroke:rgb(0,0,0);stroke-width:2"/></g>
<g fill-rule="evenodd"><path d="M 7494.14,6410 L 7492.76,6423.1 L 7488.69,6435.62 L 7482.11,6447.03 L 7473.29,6456.81 L 7462.64,6464.55 L 7450.61,6469.91 L 7437.73,6472.65 L 7424.56,6472.65 L 7411.68,6469.91 L 7399.65,6464.55 L 7388.99,6456.81 L 7380.18,6447.03 L 7373.6,6435.62 L 7369.53,6423.1 L 7368.15,6410 L 7369.53,6396.9 L 7373.6,6384.38 L 7380.18,6372.97 L 7388.99,6363.19 L 7399.65,6355.45 L 7411.68,6350.09 L 7424.56,6347.35 L 7437.73,6347.35 L 7450.61,6350.09 L 7462.64,6355.45 L 7473.29,6363.19 L 7482.11,6372.97 L 7488.69,6384.38 L 7492.76,6396.9 L 7494.14,6410 z " style="fill-opacity:1.000000;fill:rgb(225,252,103);stroke:rgb(0,0,0);stroke-width:2"/></g>
<g fill-rule="evenodd"><path d="M 7294.14,6410 L 7292.76,6423.1 L 7288.69,6435.62 L 7282.11,6447.03 L 7273.29,6456.81 L 7262.64,6464.55 L 7250.61,6469.91 L 7237.73,6472.65 L 7224.56,6472.65 L 7211.68,6469.91 L 7199.65,6464.55 L 7188.99,6456.81 L 7180.18,6447.03 L 7173.6,6435.62 L 7169.53,6423.1 L 7168.15,6410 L 7169.53,6396.9 L 7173.6,6384.38 L 7180.18,6372.97 L 7188.99,6363.19 L 7199.65,6355.45 L 7211.68,6350.09 L 7224.56,6347.35 L 7237.73,6347.35 L 7250.61,6350.09 L 7262.64,6355.45 L 7273.29,6363.19 L 7282.11,6372.97 L 7288.69,6384.38 L 7292.76,6396.9 L 7294.14,6410 z " style="fill-opacity:1.000000;fill:rgb(62,1,126);stroke:rgb(0,0,0);stroke-width:2"/></g>
<g fill-rule="evenodd"><path d="M 4894.14,6410 L 4892.76,6423.1 L 4888.69,6435.62 L 4882.11,6447.03 L 4873.29,6456.81 L 4862.64,6464.55 L 4850.61,6469.91 L 4837.73,6472.65 L 4824.56,6472.65 L 4811.68,6469.91 L 4799.65,6464.55 L 4788.99,6456.81 L 4780.18,6447.03 L 4773.6,6435.62 L 4769.53,6423.1 L 4768.15,6410 L 4769.53,6396.9 L 4773.6,6384.38 L 4780.18,6372.97 L 4788.99,6363.19 L 4799.65,6355.45 L 4811.68,6350.09 L 4824.56,6347.35 L 4837.73,6347.35 L 4850.61,6350.09 L 4862.64,6355.45 L 4873.29,6363.19 L 4882.11,6372.97 L 4888.69,6384.38 L 4892.76,6396.9 L 4894.14,6410 z " style="fill-opacity:1.000000;fill:rgb(151,234,220);stroke:rgb(0,0,0);stroke-width:2"/></g>
<g fill-rule="evenodd"><path d="M 4694.14,6410 L 4692.76,6423.1 L 4688.69,6435.62 L 4682.11,6447.03 L 4673.29,6456.81 L 4662.64,6464.55 L 4650.61,6469.91 L 4637.73,6472.65 L 4624.56,6472.65 L 4611.68,6469.91 L 4599.65,6464.55 L 4588.99,6456.81 L 4580.18,6447.03 L 4573.6,6435.62 L 4569.53,6423.1 L 4568.15,6410 L 4569.53,6396.9 L 4573.6,6384.38 L 4580.18,6372.97 L 4588.99,6363.19 L 4599.65,6355.45 L 4611.68,6350.09 L 4624.56,6347.35 L 4637.73,6347.35 L 4650.61,6350.09 L 4662.64,6355.45 L 4673.29,6363.19 L 4682.11,6372.97 L 4688.69,6384.38 L 4692.76,6396.9 L 4694.14,6410 z " style="fill-opacity:1.000000;fill:rgb(107,150,143);stroke:rgb(0,0,0);stroke-width:2"/></g>
<g fill-rule="evenodd"><path d="M 2556.14,3110 L 2556.14,1510 L 2557.58,1495.37 L 2561.85,1481.3 L 2568.78,1468.33 L 2578.11,1456.97 L 2589.48,1447.64 L 2602.44,1440.71 L 2616.51,1436.44 L 2631.14,1435 L 2645.78,1436.44 L 2659.84,1440.71 L 2672.81,1447.64 L 2684.18,1456.97 L 2693.5,1468.33 L 2700.43,1481.3 L 2704.7,1495.37 L 2706.14,1510 L 2706.14,3110 L 2704.7,3124.63 L 2700.43,3138.7 L 2693.5,3151.67 L 2684.18,3163.03 L 2672.81,3172.36 L 2659.84,3179.29 L 2645.78,3183.56 L 2631.14,3185 L 2616.51,3183.56 L 2602.44,3179.29 L 2589.48,3172.36 L 2578.11,3163.03 L 2568.78,3151.67 L 2561.85,3138.7 L 2557.58,3124.63 L 2556.14,3110 z " style="fill-opacity:1.000000;fill:rgb(56,92,42);stroke:rgb(0,0,0);stroke-width:2"/></g>
<g fill-rule="evenodd"><path d="M 4301.14,6475.35 L 4283.9,6475.35 L 4283.9,6404.49 L 4378.39,6404.49 L 4378.39,6475.35 L 4361.14,6475.35 L 4361.14,6510 L 4360.57,6515.85 L 4358.86,6521.48 L 4356.09,6526.67 L 4352.36,6531.21 L 4301.85,6581.72 L 4360.14,6640 L 5302.15,6640 L 5361.14,6581 L 5361.14,6410 L 5362.49,6396.34 L 5366.47,6383.21 L 5372.94,6371.11 L 5381.65,6360.5 L 5392.25,6351.8 L 5404.36,6345.33 L 5417.49,6341.35 L 5431.14,6340 L 5444.8,6341.35 L 5457.93,6345.33 L 5470.03,6351.8 L 5480.64,6360.5 L 5489.35,6371.11 L 5495.82,6383.21 L 5499.8,6396.34 L 5501.14,6410 L 5501.14,6610 L 5499.8,6623.66 L 5495.82,6636.79 L 5489.35,6648.89 L 5480.64,6659.5 L 5380.64,6759.5 L 5370.03,6768.2 L 5357.93,6774.67 L 5344.8,6778.65 L 5331.14,6780 L 4331.14,6780 L 4317.49,6778.65 L 4304.36,6774.67 L 4292.25,6768.2 L 4281.65,6759.5 L 2581.65,5059.5 L 2572.94,5048.89 L 2566.47,5036.79 L 2562.49,5023.66 L 2561.14,5010 L 2561.14,3785 L 2231.14,3785 L 2216.51,3783.56 L 2202.44,3779.29 L 2189.48,3772.36 L 2178.11,3763.03 L 2168.78,3751.67 L 2161.85,3738.7 L 2157.58,3724.63 L 2156.14,3710 L 2157.58,3695.37 L 2161.85,3681.3 L 2168.78,3668.33 L 2178.11,3656.97 L 2189.48,3647.64 L 2202.44,3640.71 L 2216.51,3636.44 L 2231.14,3635 L 2631.14,3635 L 2645.78,3636.44 L 2659.84,3640.71 L 2672.81,3647.64 L 2684.18,3656.97 L 2693.5,3668.33 L 2700.43,3681.3 L 2704.7,3695.37 L 2706.14,3709.92 L 2883.9,3709.92 L 2883.9,3704.49 L 2978.39,3704.49 L 2978.39,3775.35 L 2883.9,3775.35 L 2883.9,3769.92 L 2701.14,3769.92 L 2701.14,4981.01 L 4259.43,6539.29 L 4301.14,6497.57 L 4301.14,6475.35 z " style="fill-opacity:1.000000;fill:rgb(236,176,59);stroke:rgb(0,0,0);stroke-width:2"/></g>
<g fill-rule="evenodd"><path d="M 3161.14,2087.28 L 3161.14,1510 L 3162.49,1496.34 L 3166.47,1483.21 L 3172.94,1471.11 L 3181.65,1460.5 L 3192.25,1451.8 L 3204.36,1445.33 L 3217.49,1441.35 L 3231.14,1440 L 3244.8,1441.35 L 3257.93,1445.33 L 3270.03,1451.8 L 3280.64,1460.5 L 3289.35,1471.11 L 3295.82,1483.21 L 3299.8,1496.34 L 3301.14,1510 L 3301.14,2087.28 L 3303.53,2094.61 L 3305.14,2110 L 3303.53,2125.39 L 3298.75,2140.1 L 3291.01,2153.5 L 3280.66,2164.99 L 3268.14,2174.09 L 3254.01,2180.38 L 3238.88,2183.59 L 3223.41,2183.59 L 3208.28,2180.38 L 3194.14,2174.09 L 3181.63,2164.99 L 3171.28,2153.5 L 3163.54,2140.1 L 3158.76,2125.39 L 3157.14,2110 L 3158.76,2094.61 L 3161.14,2087.28 z " style="fill-opacity:1.000000;fill:rgb(251,50,175);stroke:rgb(0,0,0);stroke-width:2"/></g>
<g fill-rule="evenodd"><path d="M 4361.14,2087.28 L 4361.14,1510 L 4362.49,1496.34 L 4366.47,1483.21 L 4372.94,1471.11 L 4381.65,1460.5 L 4392.25,1451.8 L 4404.36,1445.33 L 4417.49,1441.35 L 4431.14,1440 L 4444.8,1441.35 L 4457.93,1445.33 L 4470.03,1451.8 L 4480.64,1460.5 L 4489.35,1471.11 L 4495.82,1483.21 L 4499.8,1496.34 L 4501.14,1510 L 4501.14,2087.28 L 4503.53,2094.61 L 4505.14,2110 L 4503.53,2125.39 L 4498.75,2140.1 L 4491.01,2153.5 L 4480.66,2164.99 L 4468.14,2174.09 L 4454.01,2180.38 L 4438.88,2183.59 L 4423.41,2183.59 L 4408.28,2180.38 L 4394.14,2174.09 L 4381.63,2164.99 L 4371.28,2153.5 L 4363.54,2140.1 L 4358.76,2125.39 L 4357.14,2110 L 4358.76,2094.61 L 4361.14,2087.28 z " style="fill-opacity:1.000000;fill:rgb(60,84,236);stroke:rgb(0,0,0);stroke-width:2"/></g>
<g fill-rule="evenodd"><path d="M 5561.14,2087.28 L 5561.14,1510 L 5562.49,1496.34 L 5566.47,1483.21 L 5572.94,1471.11 L 5581.65,1460.5 L 5592.25,1451.8 L 5604.36,1445.33 L 5617.49,1441.35 L 5631.14,1440 L 5644.8,1441.35 L 5657.93,1445.33 L 5670.03,1451.8 L 5680.64,1460.5 L 5689.35,1471.11 L 5695.82,1483.21 L 5699.8,1496.34 L 5701.14,1510 L 5701.14,2087.28 L 5703.53,2094.61 L 5705.14,2110 L 5703.53,2125.39 L 5698.75,2140.1 L 5691.01,2153.5 L 5680.66,2164.99 L 5668.14,2174.09 L 5654.01,2180.38 L 5638.88,2183.59 L 5623.41,2183.59 L 5608.28,2180.38 L 5594.14,2174.09 L 5581.63,2164.99 L 5571.28,2153.5 L 5563.54,2140.1 L 5558.76,2125.39 L 5557.14,2110 L 5558.76,2094.61 L 5561.14,2087.28 z " style="fill-opacity:1.000000;fill:rgb(24,219,92);stroke:rgb(0,0,0);stroke-width:2"/></g>
<g fill-rule="evenodd"><path d="M 5401.14,447.88 L 5401.14,2210 L 5400.01,2222.54 L 5396.65,2234.68 L 5391.17,2246.01 L 5106.14,2721.06 L 5106.14,3110 L 5104.7,3124.63 L 5100.43,3138.7 L 5093.5,3151.67 L 5084.18,3163.03 L 5072.81,3172.36 L 5059.84,3179.29 L 5045.78,3183.56 L 5031.14,3185 L 5016.51,3183.56 L 5002.44,3179.29 L 4989.48,3172.36 L 4978.11,3163.03 L 4968.78,3151.67 L 4961.85,3138.7 L 4957.58,3124.63 L 4956.14,3110 L 4956.14,2710 L 4957.58,2695.37 L 4961.85,2681.3 L 4968.78,2668.33 L 4978.11,2656.97 L 4984.45,2651.76 L 5261.14,2190.61 L 5261.14,447.88 L 5258.06,442.539 L 5252.89,426.633 L 5251.14,410 L 5252.89,393.367 L 5258.06,377.461 L 5266.42,362.977 L 5277.61,350.548 L 5291.14,340.718 L 5306.42,333.915 L 5322.78,330.438 L 5339.51,330.438 L 5355.86,333.915 L 5371.14,340.718 L 5384.67,350.548 L 5395.86,362.977 L 5404.23,377.461 L 5409.4,393.367 L 5411.14,410 L 5409.4,426.633 L 5404.23,442.539 L 5401.14,447.88 z " style="fill-opacity:1.000000;fill:rgb(2,26,254);stroke:rgb(0,0,0);stroke-width:2"/></g>
<g fill-rule="evenodd"><path d="M 4707.63,443.519 L 4707.06,442.539 L 4701.89,426.633 L 4700.14,410 L 4701.89,393.367 L 4707.06,377.461 L 4715.42,362.977 L 4726.61,350.548 L 4740.14,340.718 L 4755.42,333.915 L 4771.78,330.438 L 4788.51,330.438 L 4804.86,333.915 L 4820.14,340.718 L 4833.67,350.548 L 4844.86,362.977 L 4853.23,377.461 L 4858.4,393.367 L 4860.14,410 L 4858.4,426.633 L 4853.23,442.539 L 4847.32,452.769 L 4801.14,1112.44 L 4801.14,2210 L 4800.01,2222.54 L 4796.65,2234.68 L 4791.17,2246.01 L 4506.14,2721.06 L 4506.14,3110 L 4504.7,3124.63 L 4500.43,3138.7 L 4493.5,3151.67 L 4484.18,3163.03 L 4472.81,3172.36 L 4459.84,3179.29 L 4445.78,3183.56 L 4431.14,3185 L 4416.51,3183.56 L 4402.44,3179.29 L 4389.48,3172.36 L 4378.11,3163.03 L 4368.78,3151.67 L 4361.85,3138.7 L 4357.58,3124.63 L 4356.14,3110 L 4356.14,2710 L 4357.58,2695.37 L 4361.85,2681.3 L 4368.78,2668.33 L 4378.11,2656.97 L 4384.45,2651.76 L 4661.14,2190.61 L 4661.14,1110 L 4707.63,443.519 z " style="fill-opacity:1.000000;fill:rgb(67,251,250);stroke:rgb(0,0,0);stroke-width:2"/></g>
<g fill-rule="evenodd"><path d="M 3738.49,461.438 L 3601.14,1117.25 L 3601.14,2210 L 3600.01,2222.54 L 3596.65,2234.68 L 3591.17,2246.01 L 3306.14,2721.06 L 3306.14,3110 L 3304.7,3124.63 L 3300.43,3138.7 L 3293.5,3151.67 L 3284.18,3163.03 L 3272.81,3172.36 L 3259.84,3179.29 L 3245.78,3183.56 L 3231.14,3185 L 3216.51,3183.56 L 3202.44,3179.29 L 3189.48,3172.36 L 3178.11,3163.03 L 3168.78,3151.67 L 3161.85,3138.7 L 3157.58,3124.63 L 3156.14,3110 L 3156.14,2710 L 3157.58,2695.37 L 3161.85,2681.3 L 3168.78,2668.33 L 3178.11,2656.97 L 3184.45,2651.76 L 3461.14,2190.61 L 3461.14,1110 L 3461.52,1102.79 L 3462.63,1095.65 L 3601.47,432.715 L 3599.49,426.633 L 3597.74,410 L 3599.49,393.367 L 3604.66,377.461 L 3613.02,362.977 L 3624.21,350.548 L 3637.74,340.718 L 3653.02,333.915 L 3669.38,330.438 L 3686.11,330.438 L 3702.46,333.915 L 3717.74,340.718 L 3731.27,350.548 L 3742.46,362.977 L 3750.83,377.461 L 3756,393.367 L 3757.74,410 L 3756,426.633 L 3750.83,442.539 L 3742.46,457.023 L 3738.49,461.438 z " style="fill-opacity:1.000000;fill:rgb(170,58,251);stroke:rgb(0,0,0);stroke-width:2"/></g>
<g fill-rule="evenodd"><path d="M 4292.94,457.827 L 4201.14,1114.87 L 4201.14,2210 L 4200.01,2222.54 L 4196.65,2234.68 L 4191.17,2246.01 L 3906.14,2721.06 L 3906.14,3110 L 3904.7,3124.63 L 3900.43,3138.7 L 3893.5,3151.67 L 3884.18,3163.03 L 3872.81,3172.36 L 3859.84,3179.29 L 3845.78,3183.56 L 3831.14,3185 L 3816.51,3183.56 L 3802.44,3179.29 L 3789.48,3172.36 L 3778.11,3163.03 L 3768.78,3151.67 L 3761.85,3138.7 L 3757.58,3124.63 L 3756.14,3110 L 3756.14,2710 L 3757.58,2695.37 L 3761.85,2681.3 L 3768.78,2668.33 L 3778.11,2656.97 L 3784.45,2651.76 L 4061.14,2190.61 L 4061.14,1110 L 4061.82,1100.31 L 4154.36,437.928 L 4150.69,426.633 L 4148.94,410 L 4150.69,393.367 L 4155.86,377.461 L 4164.22,362.977 L 4175.41,350.548 L 4188.94,340.718 L 4204.22,333.915 L 4220.58,330.438 L 4237.31,330.438 L 4253.66,333.915 L 4268.94,340.718 L 4282.47,350.548 L 4293.66,362.977 L 4302.03,377.461 L 4307.2,393.367 L 4308.94,410 L 4307.2,426.633 L 4302.03,442.539 L 4293.66,457.023 L 4292.94,457.827 z " style="fill-opacity:1.000000;fill:rgb(41,209,230);stroke:rgb(0,0,0);stroke-width:2"/></g>
<g fill-rule="evenodd"><path d="M 6138.49,461.438 L 6001.14,1117.25 L 6001.14,2210 L 6000.01,2222.54 L 5996.65,2234.68 L 5991.17,2246.01 L 5706.14,2721.06 L 5706.14,3110 L 5704.7,3124.63 L 5700.43,3138.7 L 5693.5,3151.67 L 5684.18,3163.03 L 5672.81,3172.36 L 5659.84,3179.29 L 5645.78,3183.56 L 5631.14,3185 L 5616.51,3183.56 L 5602.44,3179.29 L 5589.48,3172.36 L 5578.11,3163.03 L 5568.78,3151.67 L 5561.85,3138.7 L 5557.58,3124.63 L 5556.14,3110 L 5556.14,2710 L 5557.58,2695.37 L 5561.85,2681.3 L 5568.78,2668.33 L 5578.11,2656.97 L 5584.45,2651.76 L 5861.14,2190.61 L 5861.14,1110 L 5861.52,1102.79 L 5862.63,1095.65 L 6001.47,432.715 L 5999.49,426.633 L 5997.74,410 L 5999.49,393.367 L 6004.66,377.461 L 6013.02,362.977 L 6024.21,350.548 L 6037.74,340.718 L 6053.02,333.915 L 6069.38,330.438 L 6086.11,330.438 L 6102.46,333.915 L 6117.74,340.718 L 6131.27,350.548 L 6142.46,362.977 L 6150.83,377.461 L 6156,393.367 L 6157.74,410 L 6156,426.633 L 6150.83,442.539 L 6142.46,457.023 L 6138.49,461.438 z " style="fill-opacity:1.000000;fill:rgb(5,60,124);stroke:rgb(0,0,0);stroke-width:2"/></g>
<g fill-rule="evenodd"><path d="M 6761.14,2087.28 L 6761.14,1510 L 6762.49,1496.34 L 6766.47,1483.21 L 6772.94,1471.11 L 6781.65,1460.5 L 6792.25,1451.8 L 6804.36,1445.33 L 6817.49,1441.35 L 6831.14,1440 L 6844.8,1441.35 L 6857.93,1445.33 L 6870.03,1451.8 L 6880.64,1460.5 L 6889.35,1471.11 L 6895.82,1483.21 L 6899.8,1496.34 L 6901.14,1510 L 6901.14,2087.28 L 6903.53,2094.61 L 6905.14,2110 L 6903.53,2125.39 L 6898.75,2140.1 L 6891.01,2153.5 L 6880.66,2164.99 L 6868.14,2174.09 L 6854.01,2180.38 L 6838.88,2183.59 L 6823.41,2183.59 L 6808.28,2180.38 L 6794.14,2174.09 L 6781.63,2164.99 L 6771.28,2153.5 L 6763.54,2140.1 L 6758.76,2125.39 L 6757.14,2110 L 6758.76,2094.61 L 6761.14,2087.28 z " style="fill-opacity:1.000000;fill:rgb(148,117,216);stroke:rgb(0,0,0);stroke-width:2"/></g>
<g fill-rule="evenodd"><path d="M 8561.14,2087.28 L 8561.14,1510 L 8562.49,1496.34 L 8566.47,1483.21 L 8572.94,1471.11 L 8581.65,1460.5 L 8592.25,1451.8 L 8604.36,1445.33 L 8617.49,1441.35 L 8631.14,1440 L 8644.8,1441.35 L 8657.93,1445.33 L 8670.03,1451.8 L 8680.64,1460.5 L 8689.35,1471.11 L 8695.82,1483.21 L 8699.8,1496.34 L 8701.14,1510 L 8701.14,2087.28 L 8703.53,2094.61 L 8705.14,2110 L 8703.53,2125.39 L 8698.75,2140.1 L 8691.01,2153.5 L 8680.66,2164.99 L 8668.14,2174.09 L 8654.01,2180.38 L 8638.88,2183.59 L 8623.41,2183.59 L 8608.28,2180.38 L 8594.14,2174.09 L 8581.63,2164.99 L 8571.28,2153.5 L 8563.54,2140.1 L 8558.76,2125.39 L 8557.14,2110 L 8558.76,2094.61 L 8561.14,2087.28 z " style="fill-opacity:1.000000;fill:rgb(190,97,137);stroke:rgb(0,0,0);stroke-width:2"/></g>
<g fill-rule="evenodd"><path d="M 9161.14,2087.28 L 9161.14,1510 L 9162.49,1496.34 L 9166.47,1483.21 L 9172.94,1471.11 L 9181.65,1460.5 L 9192.25,1451.8 L 9204.36,1445.33 L 9217.49,1441.35 L 9231.14,1440 L 9244.8,1441.35 L 9257.93,1445.33 L 9270.03,1451.8 L 9280.64,1460.5 L 9289.35,1471.11 L 9295.82,1483.21 L 9299.8,1496.34 L 9301.14,1510 L 9301.14,2087.28 L 9303.53,2094.61 L 9305.14,2110 L 9303.53,2125.39 L 9298.75,2140.1 L 9291.01,2153.5 L 9280.66,2164.99 L 9268.14,2174.09 L 9254.01,2180.38 L 9238.88,2183.59 L 9223.41,2183.59 L 9208.28,2180.38 L 9194.14,2174.09 L 9181.63,2164.99 L 9171.28,2153.5 L 9163.54,2140.1 L 9158.76,2125.39 L 9157.14,2110 L 9158.76,2094.61 L 9161.14,2087.28 z " style="fill-opacity:1.000000;fill:rgb(249,92,187);stroke:rgb(0,0,0);stroke-width:2"/></g>
<g fill-rule="evenodd"><path d="M 7961.14,2087.28 L 7961.14,1510 L 7962.49,1496.34 L 7966.47,1483.21 L 7972.94,1471.11 L 7981.65,1460.5 L 7992.25,1451.8 L 8004.36,1445.33 L 8017.49,1441.35 L 8031.14,1440 L 8044.8,1441.35 L 8057.93,1445.33 L 8070.03,1451.8 L 8080.64,1460.5 L 8089.35,1471.11 L 8095.82,1483.21 L 8099.8,1496.34 L 8101.14,1510 L 8101.14,2087.28 L 8103.53,2094.61 L 8105.14,2110 L 8103.53,2125.39 L 8098.75,2140.1 L 8091.01,2153.5 L 8080.66,2164.99 L 8068.14,2174.09 L 8054.01,2180.38 L 8038.88,2183.59 L 8023.41,2183.59 L 8008.28,2180.38 L 7994.14,2174.09 L 7981.63,2164.99 L 7971.28,2153.5 L 7963.54,2140.1 L 7958.76,2125.39 L 7957.14,2110 L 7958.76,2094.61 L 7961.14,2087.28 z " style="fill-opacity:1.000000;fill:rgb(168,153,15);stroke:rgb(0,0,0);stroke-width:2"/></g>
<g fill-rule="evenodd"><path d="M 7201.14,486.875 L 7201.14,2210 L 7200.01,2222.54 L 7196.65,2234.68 L 7191.17,2246.01 L 6906.14,2721.06 L 6906.14,3110 L 6904.7,3124.63 L 6900.43,3138.7 L 6893.5,3151.67 L 6884.18,3163.03 L 6872.81,3172.36 L 6859.84,3179.29 L 6845.78,3183.56 L 6831.14,3185 L 6816.51,3183.56 L 6802.44,3179.29 L 6789.48,3172.36 L 6778.11,3163.03 L 6768.78,3151.67 L 6761.85,3138.7 L 6757.58,3124.63 L 6756.14,3110 L 6756.14,2710 L 6757.58,2695.37 L 6761.85,2681.3 L 6768.78,2668.33 L 6778.11,2656.97 L 6784.45,2651.76 L 7061.14,2190.61 L 7061.14,459 L 7062.49,445.344 L 7066.47,432.212 L 7072.94,420.11 L 7081.65,409.503 L 7092.25,400.797 L 7101.64,395.781 L 7101.89,393.367 L 7107.06,377.461 L 7115.42,362.977 L 7126.61,350.548 L 7140.14,340.718 L 7155.42,333.915 L 7171.78,330.438 L 7188.51,330.438 L 7204.86,333.915 L 7220.14,340.718 L 7233.67,350.548 L 7244.86,362.977 L 7253.23,377.461 L 7258.4,393.367 L 7260.14,410 L 7258.4,426.633 L 7253.23,442.539 L 7244.86,457.023 L 7233.67,469.452 L 7220.14,479.282 L 7204.86,486.085 L 7201.14,486.875 z " style="fill-opacity:1.000000;fill:rgb(149,177,235);stroke:rgb(0,0,0);stroke-width:2"/></g>
<g fill-rule="evenodd"><path d="M 7801.14,447.88 L 7801.14,2210 L 7800.01,2222.54 L 7796.65,2234.68 L 7791.17,2246.01 L 7506.14,2721.06 L 7506.14,3110 L 7504.7,3124.63 L 7500.43,3138.7 L 7493.5,3151.67 L 7484.18,3163.03 L 7472.81,3172.36 L 7459.84,3179.29 L 7445.78,3183.56 L 7431.14,3185 L 7416.51,3183.56 L 7402.44,3179.29 L 7389.48,3172.36 L 7378.11,3163.03 L 7368.78,3151.67 L 7361.85,3138.7 L 7357.58,3124.63 L 7356.14,3110 L 7356.14,2710 L 7357.58,2695.37 L 7361.85,2681.3 L 7368.78,2668.33 L 7378.11,2656.97 L 7384.45,2651.76 L 7661.14,2190.61 L 7661.14,447.878 L 7658.06,442.539 L 7652.89,426.633 L 7651.14,410 L 7652.89,393.367 L 7658.06,377.461 L 7666.42,362.977 L 7677.61,350.548 L 7691.14,340.718 L 7706.42,333.915 L 7722.78,330.438 L 7739.51,330.438 L 7755.86,333.915 L 7771.14,340.718 L 7784.67,350.548 L 7795.86,362.977 L 7804.23,377.461 L 7809.4,393.367 L 7811.14,410 L 7809.4,426.633 L 7804.23,442.539 L 7801.14,447.88 z " style="fill-opacity:1.000000;fill:rgb(241,179,5);stroke:rgb(0,0,0);stroke-width:2"/></g>
<g fill-rule="evenodd"><path d="M 6692.94,457.827 L 6601.14,1114.87 L 6601.14,2210 L 6600.01,2222.54 L 6596.65,2234.68 L 6591.17,2246.01 L 6306.14,2721.06 L 6306.14,3110 L 6304.7,3124.63 L 6300.43,3138.7 L 6293.5,3151.67 L 6284.18,3163.03 L 6272.81,3172.36 L 6259.84,3179.29 L 6245.78,3183.56 L 6231.14,3185 L 6216.51,3183.56 L 6202.44,3179.29 L 6189.48,3172.36 L 6178.11,3163.03 L 6168.78,3151.67 L 6161.85,3138.7 L 6157.58,3124.63 L 6156.14,3110 L 6156.14,2710 L 6157.58,2695.37 L 6161.85,2681.3 L 6168.78,2668.33 L 6178.11,2656.97 L 6184.45,2651.76 L 6461.14,2190.61 L 6461.14,1110 L 6461.82,1100.31 L 6554.36,437.926 L 6550.69,426.633 L 6548.94,410 L 6550.69,393.367 L 6555.86,377.461 L 6564.22,362.977 L 6575.41,350.548 L 6588.94,340.718 L 6604.22,333.915 L 6620.58,330.438 L 6637.31,330.438 L 6653.66,333.915 L 6668.94,340.718 L 6682.47,350.548 L 6693.66,362.977 L 6702.03,377.461 L 6707.2,393.367 L 6708.94,410 L 6707.2,426.633 L 6702.03,442.539 L 6693.66,457.023 L 6692.94,457.827 z " style="fill-opacity:1.000000;fill:rgb(239,247,0);stroke:rgb(0,0,0);stroke-width:2"/></g>
<g fill-rule="evenodd"><path d="M 8538.49,461.438 L 8401.14,1117.25 L 8401.14,2210 L 8400.01,2222.54 L 8396.65,2234.68 L 8391.17,2246.01 L 8106.14,2721.06 L 8106.14,3110 L 8104.7,3124.63 L 8100.43,3138.7 L 8093.5,3151.67 L 8084.18,3163.03 L 8072.81,3172.36 L 8059.84,3179.29 L 8045.78,3183.56 L 8031.14,3185 L 8016.51,3183.56 L 8002.44,3179.29 L 7989.48,3172.36 L 7978.11,3163.03 L 7968.78,3151.67 L 7961.85,3138.7 L 7957.58,3124.63 L 7956.14,3110 L 7956.14,2710 L 7957.58,2695.37 L 7961.85,2681.3 L 7968.78,2668.33 L 7978.11,2656.97 L 7984.45,2651.76 L 8261.14,2190.61 L 8261.14,1110 L 8261.52,1102.79 L 8262.63,1095.65 L 8401.47,432.716 L 8399.49,426.633 L 8397.74,410 L 8399.49,393.367 L 8404.66,377.461 L 8413.02,362.977 L 8424.21,350.548 L 8437.74,340.718 L 8453.02,333.915 L 8469.38,330.438 L 8486.11,330.438 L 8502.46,333.915 L 8517.74,340.718 L 8531.27,350.548 L 8542.46,362.977 L 8550.83,377.461 L 8556,393.367 L 8557.74,410 L 8556,426.633 L 8550.83,442.539 L 8542.46,457.023 L 8538.49,461.438 z " style="fill-opacity:1.000000;fill:rgb(233,161,58);stroke:rgb(0,0,0);stroke-width:2"/></g>
<g fill-rule="evenodd"><path d="M 9095.62,453.635 L 9001.14,1114.97 L 9001.14,2210 L 9000.01,2222.54 L 8996.65,2234.68 L 8991.17,2246.01 L 8706.14,2721.06 L 8706.14,3110 L 8704.7,3124.63 L 8700.43,3138.7 L 8693.5,3151.67 L 8684.18,3163.03 L 8672.81,3172.36 L 8659.84,3179.29 L 8645.78,3183.56 L 8631.14,3185 L 8616.51,3183.56 L 8602.44,3179.29 L 8589.48,3172.36 L 8578.11,3163.03 L 8568.78,3151.67 L 8561.85,3138.7 L 8557.58,3124.63 L 8556.14,3110 L 8556.14,2710 L 8557.58,2695.37 L 8561.85,2681.3 L 8568.78,2668.33 L 8578.11,2656.97 L 8584.45,2651.76 L 8861.14,2190.61 L 8861.14,1110 L 8861.85,1100.1 L 8955.81,442.376 L 8950.69,426.633 L 8948.94,410 L 8950.69,393.367 L 8955.86,377.461 L 8964.22,362.977 L 8975.41,350.548 L 8988.94,340.718 L 9004.22,333.915 L 9020.58,330.438 L 9037.31,330.438 L 9053.66,333.915 L 9068.94,340.718 L 9082.47,350.548 L 9093.66,362.977 L 9102.03,377.461 L 9107.2,393.367 L 9108.94,410 L 9107.2,426.633 L 9102.03,442.539 L 9095.62,453.635 z " style="fill-opacity:1.000000;fill:rgb(229,202,11);stroke:rgb(0,0,0);stroke-width:2"/></g>
<g fill-rule="evenodd"><path d="M 10961.1,2087.28 L 10961.1,1510 L 10962.5,1496.34 L 10966.5,1483.21 L 10972.9,1471.11 L 10981.6,1460.5 L 10992.3,1451.8 L 11004.4,1445.33 L 11017.5,1441.35 L 11031.1,1440 L 11044.8,1441.35 L 11057.9,1445.33 L 11070,1451.8 L 11080.6,1460.5 L 11089.3,1471.11 L 11095.8,1483.21 L 11099.8,1496.34 L 11101.1,1510 L 11101.1,2087.28 L 11103.5,2094.61 L 11105.1,2110 L 11103.5,2125.39 L 11098.7,2140.1 L 11091,2153.5 L 11080.7,2164.99 L 11068.1,2174.09 L 11054,2180.38 L 11038.9,2183.59 L 11023.4,2183.59 L 11008.3,2180.38 L 10994.1,2174.09 L 10981.6,2164.99 L 10971.3,2153.5 L 10963.5,2140.1 L 10958.8,2125.39 L 10957.1,2110 L 10958.8,2094.61 L 10961.1,2087.28 z " style="fill-opacity:1.000000;fill:rgb(203,208,72);stroke:rgb(0,0,0);stroke-width:2"/></g>
<g fill-rule="evenodd"><path d="M 9761.14,2087.28 L 9761.14,1510 L 9762.49,1496.34 L 9766.47,1483.21 L 9772.94,1471.11 L 9781.65,1460.5 L 9792.25,1451.8 L 9804.36,1445.33 L 9817.49,1441.35 L 9831.14,1440 L 9844.8,1441.35 L 9857.93,1445.33 L 9870.03,1451.8 L 9880.64,1460.5 L 9889.35,1471.11 L 9895.82,1483.21 L 9899.8,1496.34 L 9901.14,1510 L 9901.14,2087.28 L 9903.53,2094.61 L 9905.14,2110 L 9903.53,2125.39 L 9898.75,2140.1 L 9891.01,2153.5 L 9880.66,2164.99 L 9868.14,2174.09 L 9854.01,2180.38 L 9838.88,2183.59 L 9823.41,2183.59 L 9808.28,2180.38 L 9794.14,2174.09 L 9781.63,2164.99 L 9771.28,2153.5 L 9763.54,2140.1 L 9758.76,2125.39 L 9757.14,2110 L 9758.76,2094.61 L 9761.14,2087.28 z " style="fill-opacity:1.000000;fill:rgb(71,100,189);stroke:rgb(0,0,0);stroke-width:2"/></g>
<g fill-rule="evenodd"><path d="M 10361.1,2087.28 L 10361.1,1510 L 10362.5,1496.34 L 10366.5,1483.21 L 10372.9,1471.11 L 10381.6,1460.5 L 10392.3,1451.8 L 10404.4,1445.33 L 10417.5,1441.35 L 10431.1,1440 L 10444.8,1441.35 L 10457.9,1445.33 L 10470,1451.8 L 10480.6,1460.5 L 10489.3,1471.11 L 10495.8,1483.21 L 10499.8,1496.34 L 10501.1,1510 L 10501.1,2087.28 L 10503.5,2094.61 L 10505.1,2110 L 10503.5,2125.39 L 10498.7,2140.1 L 10491,2153.5 L 10480.7,2164.99 L 10468.1,2174.09 L 10454,2180.38 L 10438.9,2183.59 L 10423.4,2183.59 L 10408.3,2180.38 L 10394.1,2174.09 L 10381.6,2164.99 L 10371.3,2153.5 L 10363.5,2140.1 L 10358.8,2125.39 L 10357.1,2110 L 10358.8,2094.61 L 10361.1,2087.28 z " style="fill-opacity:1.000000;fill:rgb(31,35,30);stroke:rgb(0,0,0);stroke-width:2"/></g>
<g fill-rule="evenodd"><path d="M 11561.1,2087.28 L 11561.1,1510 L 11562.5,1496.34 L 11566.5,1483.21 L 11572.9,1471.11 L 11581.6,1460.5 L 11592.3,1451.8 L 11604.4,1445.33 L 11617.5,1441.35 L 11631.1,1440 L 11644.8,1441.35 L 11657.9,1445.33 L 11670,1451.8 L 11680.6,1460.5 L 11689.3,1471.11 L 11695.8,1483.21 L 11699.8,1496.34 L 11701.1,1510 L 11701.1,2087.28 L 11703.5,2094.61 L 11705.1,2110 L 11703.5,2125.39 L 11698.7,2140.1 L 11691,2153.5 L 11680.7,2164.99 L 11668.1,2174.09 L 11654,2180.38 L 11638.9,2183.59 L 11623.4,2183.59 L 11608.3,2180.38 L 11594.1,2174.09 L 11581.6,2164.99 L 11571.3,2153.5 L 11563.5,2140.1 L 11558.8,2125.39 L 11557.1,2110 L 11558.8,2094.61 L 11561.1,2087.28 z " style="fill-opacity:1.000000;fill:rgb(168,28,123);stroke:rgb(0,0,0);stroke-width:2"/></g>
<g fill-rule="evenodd"><path d="M 9647.32,452.769 L 9601.14,1112.44 L 9601.14,2210 L 9600.01,2222.54 L 9596.65,2234.68 L 9591.17,2246.01 L 9306.14,2721.06 L 9306.14,3110 L 9304.7,3124.63 L 9300.43,3138.7 L 9293.5,3151.67 L 9284.18,3163.03 L 9272.81,3172.36 L 9259.84,3179.29 L 9245.78,3183.56 L 9231.14,3185 L 9216.51,3183.56 L 9202.44,3179.29 L 9189.48,3172.36 L 9178.11,3163.03 L 9168.78,3151.67 L 9161.85,3138.7 L 9157.58,3124.63 L 9156.14,3110 L 9156.14,2710 L 9157.58,2695.37 L 9161.85,2681.3 L 9168.78,2668.33 L 9178.11,2656.97 L 9184.45,2651.76 L 9461.14,2190.61 L 9461.14,1110 L 9507.62,443.517 L 9507.06,442.539 L 9501.89,426.633 L 9500.14,410 L 9501.89,393.367 L 9507.06,377.461 L 9515.42,362.977 L 9526.61,350.548 L 9540.14,340.718 L 9555.42,333.915 L 9571.78,330.438 L 9588.51,330.438 L 9604.86,333.915 L 9620.14,340.718 L 9633.67,350.548 L 9644.86,362.977 L 9653.23,377.461 L 9658.4,393.367 L 9660.14,410 L 9658.4,426.633 L 9653.23,442.539 L 9647.32,452.769 z " style="fill-opacity:1.000000;fill:rgb(100,197,20);stroke:rgb(0,0,0);stroke-width:2"/></g>
<g fill-rule="evenodd"><path d="M 6298.78,3680 L 6501.22,3680 L 6507.07,3680.58 L 6512.7,3682.28 L 6517.89,3685.06 L 6522.43,3688.79 L 6526.17,3693.33 L 6528.94,3698.52 L 6530.68,3704.49 L 6578.39,3704.49 L 6578.39,3775.35 L 6483.9,3775.35 L 6483.9,3740 L 6301.14,3740 L 6301.14,3781.01 L 6680.64,4160.5 L 6687.77,4168.86 L 6693.51,4178.22 L 6697.72,4188.37 L 6700.28,4199.05 L 6701.14,4210 L 6701.14,6410 L 6699.8,6423.66 L 6695.82,6436.79 L 6689.35,6448.89 L 6680.64,6459.5 L 6670.03,6468.2 L 6661.14,6472.95 L 6661.14,6974.54 L 6678.39,6974.54 L 6678.39,7045.41 L 6583.9,7045.41 L 6583.9,6974.54 L 6601.14,6974.54 L 6601.14,6472.95 L 6592.25,6468.2 L 6581.65,6459.5 L 6572.94,6448.89 L 6566.47,6436.79 L 6562.49,6423.66 L 6561.14,6410 L 6561.14,4238.99 L 6181.65,3859.5 L 6174.51,3851.14 L 6168.77,3841.78 L 6164.57,3831.63 L 6162.01,3820.95 L 6161.14,3810 L 6161.14,3732.72 L 6158.76,3725.39 L 6157.14,3710 L 6158.76,3694.61 L 6163.54,3679.9 L 6171.28,3666.5 L 6181.63,3655.01 L 6194.14,3645.91 L 6208.28,3639.62 L 6223.41,3636.41 L 6238.88,3636.41 L 6254.01,3639.62 L 6268.14,3645.91 L 6280.66,3655.01 L 6291.01,3666.5 L 6298.78,3680 z " style="fill-opacity:1.000000;fill:rgb(115,90,197);stroke:rgb(0,0,0);stroke-width:2"/></g>
<g fill-rule="evenodd"><path d="M 501.144,3741.54 L 501.144,3981.01 L 3719.95,7199.81 L 5331.14,7199.81 L 5344.8,7201.16 L 5357.93,7205.14 L 5370.03,7211.61 L 5380.64,7220.32 L 5389.35,7230.92 L 5394.1,7239.81 L 5583.9,7239.81 L 5583.9,7234.38 L 5678.39,7234.38 L 5678.39,7239.81 L 5783.9,7239.81 L 5783.9,7234.38 L 5878.39,7234.38 L 5878.39,7239.81 L 5983.9,7239.81 L 5983.9,7234.38 L 6078.39,7234.38 L 6078.39,7239.81 L 6183.9,7239.81 L 6183.9,7234.38 L 6278.39,7234.38 L 6278.39,7239.81 L 6383.9,7239.81 L 6383.9,7234.38 L 6478.39,7234.38 L 6478.39,7239.81 L 6583.9,7239.81 L 6583.9,7234.38 L 6678.39,7234.38 L 6678.39,7239.81 L 6783.9,7239.81 L 6783.9,7234.38 L 6878.39,7234.38 L 6878.39,7239.81 L 6983.9,7239.81 L 6983.9,7235.46 L 7078.39,7235.46 L 7078.39,7240.9 L 7361.14,7240.89 L 7362.49,7226.26 L 7366.47,7213.13 L 7372.94,7201.03 L 7381.65,7190.42 L 7392.25,7181.72 L 7404.36,7175.25 L 7417.49,7171.27 L 7431.14,7169.92 L 7444.8,7171.27 L 7454.45,7174.19 L 7583.9,7044.74 L 7583.9,7004.49 L 7678.39,7004.49 L 7678.39,7009.92 L 7983.9,7009.92 L 7983.9,7004.49 L 8078.39,7004.49 L 8078.39,7009.92 L 8183.9,7009.92 L 8183.9,7004.49 L 8278.39,7004.49 L 8278.39,7009.92 L 8383.9,7009.92 L 8383.9,7004.49 L 8478.39,7004.49 L 8478.39,7009.92 L 8583.9,7009.92 L 8583.9,7004.49 L 8678.39,7004.49 L 8678.39,7009.92 L 8783.9,7009.92 L 8783.9,7004.49 L 8878.39,7004.49 L 8878.39,7044.74 L 8883.73,7050.08 L 8983.9,7050.08 L 8983.9,7044.65 L 9078.39,7044.65 L 9078.39,7050.08 L 9183.9,7050.08 L 9183.9,7044.65 L 9278.39,7044.65 L 9278.39,7115.51 L 9183.9,7115.51 L 9183.9,7110.08 L 9078.39,7110.08 L 9078.39,7115.51 L 8983.9,7115.51 L 8983.9,7110.08 L 8871.3,7110.08 L 8866.61,7109.71 L 8862.03,7108.61 L 8857.68,7106.81 L 8853.67,7104.35 L 8850.09,7101.29 L 8824.15,7075.35 L 8783.9,7075.35 L 8783.9,7069.92 L 8678.39,7069.92 L 8678.39,7075.35 L 8583.9,7075.35 L 8583.9,7069.92 L 8478.39,7069.92 L 8478.39,7075.35 L 8383.9,7075.35 L 8383.9,7069.92 L 8278.39,7069.92 L 8278.39,7075.35 L 8183.9,7075.35 L 8183.9,7069.92 L 8078.39,7069.92 L 8078.39,7075.35 L 7983.9,7075.35 L 7983.9,7069.92 L 7678.39,7069.92 L 7678.39,7075.35 L 7638.13,7075.35 L 7496.87,7216.62 L 7499.8,7226.26 L 7501.14,7239.92 L 7501.14,7610 L 7499.8,7623.66 L 7495.82,7636.79 L 7489.35,7648.89 L 7480.64,7659.5 L 7470.03,7668.2 L 7457.93,7674.67 L 7444.8,7678.65 L 7431.14,7680 L 7417.49,7678.65 L 7404.36,7674.67 L 7392.25,7668.2 L 7381.65,7659.5 L 7372.94,7648.89 L 7366.47,7636.79 L 7362.49,7623.66 L 7361.14,7610 L 7361.14,7300.89 L 7078.39,7300.89 L 7078.39,7306.33 L 6983.9,7306.33 L 6983.9,7299.81 L 6878.39,7299.81 L 6878.39,7305.25 L 6783.9,7305.25 L 6783.9,7299.81 L 6678.39,7299.81 L 6678.39,7305.25 L 6583.9,7305.25 L 6583.9,7299.81 L 6478.39,7299.81 L 6478.39,7305.25 L 6383.9,7305.25 L 6383.9,7299.81 L 6278.39,7299.81 L 6278.39,7305.25 L 6183.9,7305.25 L 6183.9,7299.81 L 6078.39,7299.81 L 6078.39,7305.25 L 5983.9,7305.25 L 5983.9,7299.81 L 5878.39,7299.81 L 5878.39,7305.25 L 5783.9,7305.25 L 5783.9,7299.81 L 5678.39,7299.81 L 5678.39,7305.25 L 5583.9,7305.25 L 5583.9,7299.81 L 5394.1,7299.81 L 5389.35,7308.7 L 5380.64,7319.31 L 5370.03,7328.02 L 5357.93,7334.49 L 5344.8,7338.47 L 5331.14,7339.81 L 3690.96,7339.81 L 3677.3,7338.47 L 3664.17,7334.49 L 3652.07,7328.02 L 3641.46,7319.31 L 381.646,4059.5 L 372.941,4048.89 L 366.472,4036.79 L 362.488,4023.66 L 361.143,4010 L 361.144,3717.34 L 360.373,3710 L 361.99,3694.61 L 366.77,3679.9 L 374.505,3666.5 L 384.857,3655.01 L 397.373,3645.91 L 411.505,3639.62 L 426.638,3636.41 L 442.108,3636.41 L 457.24,3639.62 L 471.373,3645.91 L 483.888,3655.01 L 494.24,3666.5 L 501.975,3679.9 L 506.756,3694.61 L 508.373,3710 L 506.756,3725.39 L 501.975,3740.1 L 501.144,3741.54 z " style="fill-opacity:1.000000;fill:rgb(94,75,121);stroke:rgb(0,0,0);stroke-width:2"/></g>
<g fill-rule="evenodd"><path d="M 4661.07,7547.01 L 4694.14,7547.01 L 4694.14,7580.07 L 4695.82,7583.21 L 4699.8,7596.34 L 4701.14,7610 L 4699.8,7623.66 L 4695.82,7636.79 L 4694.14,7639.93 L 4694.14,7672.99 L 4661.07,7672.99 L 4657.93,7674.67 L 4644.8,7678.65 L 4631.14,7680 L 3431.14,7680 L 3417.49,7678.65 L 3404.36,7674.67 L 3392.25,7668.2 L 3381.65,7659.5 L 60.502,4338.35 L 51.7966,4327.75 L 45.3279,4315.64 L 41.3445,4302.51 L 39.9995,4288.86 L 39.9995,3731.14 L 40.8613,3720.19 L 43.4255,3709.51 L 47.6291,3699.36 L 53.3684,3690 L 60.5022,3681.64 L 281.646,3460.5 L 292.254,3451.8 L 304.356,3445.33 L 317.487,3441.35 L 331.143,3440 L 631.143,3440 L 644.8,3441.35 L 657.931,3445.33 L 670.033,3451.8 L 680.641,3460.5 L 861.041,3640.9 L 1043.08,3458.86 L 1047.63,3455.13 L 1052.81,3452.36 L 1058.44,3450.65 L 1064.29,3450.08 L 1883.9,3450.08 L 1883.9,3444.65 L 1978.39,3444.65 L 1978.39,3450.08 L 2883.9,3450.08 L 2883.9,3444.65 L 2978.39,3444.65 L 2978.39,3450.08 L 3483.9,3450.08 L 3483.9,3444.65 L 3578.39,3444.65 L 3578.39,3450.08 L 4083.9,3450.08 L 4083.9,3444.65 L 4178.39,3444.65 L 4178.39,3450.08 L 4683.9,3450.08 L 4683.9,3444.65 L 4778.39,3444.65 L 4778.39,3450.08 L 5283.9,3450.08 L 5283.9,3444.65 L 5378.39,3444.65 L 5378.39,3450.08 L 5883.9,3450.08 L 5883.9,3444.65 L 5978.39,3444.65 L 5978.39,3450.08 L 6483.9,3450.08 L 6483.9,3444.65 L 6578.39,3444.65 L 6578.39,3450.08 L 7083.9,3450.08 L 7083.9,3444.65 L 7178.39,3444.65 L 7178.39,3450.08 L 7683.9,3450.08 L 7683.9,3444.65 L 7778.39,3444.65 L 7778.39,3450.08 L 8283.9,3450.08 L 8283.9,3444.65 L 8378.39,3444.65 L 8378.39,3450.08 L 8883.9,3450.08 L 8883.9,3444.65 L 8978.39,3444.65 L 8978.39,3450.08 L 9483.9,3450.08 L 9483.9,3444.65 L 9578.39,3444.65 L 9578.39,3450.08 L 10083.9,3450.08 L 10083.9,3444.65 L 10178.4,3444.65 L 10178.4,3450.08 L 10683.9,3450.08 L 10683.9,3444.65 L 10778.4,3444.65 L 10778.4,3450.08 L 11283.9,3450.08 L 11283.9,3444.65 L 11378.4,3444.65 L 11378.4,3450.08 L 11883.9,3450.08 L 11883.9,3444.65 L 11978.4,3444.65 L 11978.4,3450.08 L 12483.9,3450.08 L 12483.9,3444.65 L 12578.4,3444.65 L 12578.4,3515.51 L 12483.9,3515.51 L 12483.9,3510.08 L 11978.4,3510.08 L 11978.4,3515.51 L 11883.9,3515.51 L 11883.9,3510.08 L 11378.4,3510.08 L 11378.4,3515.51 L 11283.9,3515.51 L 11283.9,3510.08 L 10778.4,3510.08 L 10778.4,3515.51 L 10683.9,3515.51 L 10683.9,3510.08 L 10178.4,3510.08 L 10178.4,3515.51 L 10083.9,3515.51 L 10083.9,3510.08 L 9578.39,3510.08 L 9578.39,3515.51 L 9483.9,3515.51 L 9483.9,3510.08 L 8978.39,3510.08 L 8978.39,3515.51 L 8883.9,3515.51 L 8883.9,3510.08 L 8378.39,3510.08 L 8378.39,3515.51 L 8283.9,3515.51 L 8283.9,3510.08 L 7778.39,3510.08 L 7778.39,3515.51 L 7683.9,3515.51 L 7683.9,3510.08 L 7178.39,3510.08 L 7178.39,3515.51 L 7083.9,3515.51 L 7083.9,3510.08 L 6578.39,3510.08 L 6578.39,3515.51 L 6483.9,3515.51 L 6483.9,3510.08 L 5978.39,3510.08 L 5978.39,3515.51 L 5883.9,3515.51 L 5883.9,3510.08 L 5378.39,3510.08 L 5378.39,3515.51 L 5283.9,3515.51 L 5283.9,3510.08 L 4778.39,3510.08 L 4778.39,3515.51 L 4683.9,3515.51 L 4683.9,3510.08 L 4178.39,3510.08 L 4178.39,3515.51 L 4083.9,3515.51 L 4083.9,3510.08 L 3578.39,3510.08 L 3578.39,3515.51 L 3483.9,3515.51 L 3483.9,3510.08 L 2978.39,3510.08 L 2978.39,3515.51 L 2883.9,3515.51 L 2883.9,3510.08 L 1978.39,3510.08 L 1978.39,3515.51 L 1883.9,3515.51 L 1883.9,3510.08 L 1076.72,3510.08 L 903.182,3683.62 L 906.756,3694.61 L 908.373,3710 L 906.756,3725.39 L 901.975,3740.1 L 894.24,3753.5 L 883.888,3764.99 L 871.373,3774.09 L 857.24,3780.38 L 842.108,3783.59 L 826.638,3783.59 L 811.505,3780.38 L 797.373,3774.09 L 784.857,3764.99 L 774.505,3753.5 L 772.951,3750.8 L 602.148,3580 L 360.138,3580 L 179.999,3760.14 L 179.999,4259.86 L 3460.14,7540 L 4631.14,7540 L 4644.8,7541.35 L 4657.93,7545.33 L 4661.07,7547.01 z " style="fill-opacity:1.000000;fill:rgb(99,59,112);stroke:rgb(0,0,0);stroke-width:2"/></g>
<g fill-rule="evenodd"><path d="M 5001.14,6354.78 L 5001.14,6208.2 L 4996.84,6209.5 L 4990.99,6210.08 L 4378.39,6210.08 L 4378.39,6215.51 L 4283.9,6215.51 L 4283.9,6144.65 L 4378.39,6144.65 L 4378.39,6150.08 L 4978.56,6150.08 L 4983.9,6144.74 L 4983.9,6104.49 L 5078.39,6104.49 L 5078.39,6175.35 L 5061.14,6175.35 L 5061.14,6354.78 L 5062.64,6355.45 L 5073.29,6363.19 L 5082.11,6372.97 L 5088.69,6384.38 L 5092.76,6396.9 L 5094.14,6410 L 5092.76,6423.1 L 5088.69,6435.62 L 5082.11,6447.03 L 5073.29,6456.81 L 5062.64,6464.55 L 5050.61,6469.91 L 5037.73,6472.65 L 5024.56,6472.65 L 5011.68,6469.91 L 4999.65,6464.55 L 4988.99,6456.81 L 4980.18,6447.03 L 4973.6,6435.62 L 4969.53,6423.1 L 4968.15,6410 L 4969.53,6396.9 L 4973.6,6384.38 L 4980.18,6372.97 L 4988.99,6363.19 L 4999.65,6355.45 L 5001.14,6354.78 z " style="fill-opacity:1.000000;fill:rgb(100,36,17);stroke:rgb(0,0,0);stroke-width:2"/></g>
<g fill-rule="evenodd"><path d="M 3161.14,3732.72 L 3158.76,3725.39 L 3157.14,3710 L 3158.76,3694.61 L 3163.54,3679.9 L 3171.28,3666.5 L 3181.63,3655.01 L 3194.14,3645.91 L 3208.28,3639.62 L 3223.41,3636.41 L 3238.88,3636.41 L 3254.01,3639.62 L 3268.14,3645.91 L 3280.66,3655.01 L 3291.01,3666.5 L 3298.75,3679.9 L 3303.53,3694.61 L 3305.04,3709 L 3483.9,3709 L 3483.9,3704.49 L 3578.39,3704.49 L 3578.39,3775.35 L 3483.9,3775.35 L 3483.9,3769 L 3301.14,3769 L 3301.14,3781.01 L 5280.64,5760.5 L 5289.35,5771.11 L 5295.82,5783.21 L 5299.8,5796.34 L 5301.14,5810 L 5301.14,6410 L 5299.8,6423.66 L 5295.82,6436.79 L 5289.35,6448.89 L 5280.64,6459.5 L 5270.03,6468.2 L 5257.93,6474.67 L 5244.8,6478.65 L 5231.14,6480 L 5217.49,6478.65 L 5204.36,6474.67 L 5192.25,6468.2 L 5181.65,6459.5 L 5172.94,6448.89 L 5166.47,6436.79 L 5162.49,6423.66 L 5161.14,6410 L 5161.14,5910.08 L 5078.39,5910.08 L 5078.39,5915.51 L 4983.9,5915.51 L 4983.9,5844.65 L 5078.39,5844.65 L 5078.39,5850.08 L 5161.14,5850.08 L 5161.14,5838.99 L 3181.65,3859.5 L 3174.51,3851.14 L 3168.77,3841.78 L 3164.57,3831.63 L 3162.01,3820.95 L 3161.14,3810 L 3161.14,3732.72 z " style="fill-opacity:1.000000;fill:rgb(158,9,220);stroke:rgb(0,0,0);stroke-width:2"/></g>
<g fill-rule="evenodd"><path d="M 1161.14,3093.95 L 1161.14,1110 L 1162.23,1097.73 L 1275.74,460.001 L 1275.74,330 L 1435.74,330 L 1435.74,490 L 1412.6,490 L 1301.14,1116.18 L 1301.14,3080.61 L 1305.69,3094.61 L 1307.31,3110 L 1305.69,3125.39 L 1300.91,3140.1 L 1293.18,3153.5 L 1282.83,3164.99 L 1270.31,3174.09 L 1256.18,3180.38 L 1241.05,3183.59 L 1225.58,3183.59 L 1210.44,3180.38 L 1196.31,3174.09 L 1183.8,3164.99 L 1173.44,3153.5 L 1165.71,3140.1 L 1160.93,3125.39 L 1159.31,3110 L 1161.14,3093.95 z " style="fill-opacity:1.000000;fill:rgb(170,212,172);stroke:rgb(0,0,0);stroke-width:2"/></g>
<g fill-rule="evenodd"><path d="M 1564.37,3077.31 L 1564.37,1510 L 1565.72,1496.34 L 1569.7,1483.21 L 1576.17,1471.11 L 1584.87,1460.5 L 1595.48,1451.8 L 1607.58,1445.33 L 1620.72,1441.35 L 1634.37,1440 L 1648.03,1441.35 L 1661.16,1445.33 L 1673.26,1451.8 L 1683.87,1460.5 L 1692.57,1471.11 L 1699.04,1483.21 L 1703.03,1496.34 L 1704.37,1510 L 1704.48,3110 L 1702.86,3125.39 L 1698.08,3140.1 L 1690.35,3153.5 L 1680,3164.99 L 1667.48,3174.09 L 1653.35,3180.38 L 1638.22,3183.59 L 1622.74,3183.59 L 1607.61,3180.38 L 1593.48,3174.09 L 1580.96,3164.99 L 1570.61,3153.5 L 1562.88,3140.1 L 1558.1,3125.39 L 1556.48,3110 L 1558.1,3094.61 L 1562.88,3079.9 L 1564.37,3077.31 z " style="fill-opacity:1.000000;fill:rgb(242,27,16);stroke:rgb(0,0,0);stroke-width:2"/></g>
<g fill-rule="evenodd"><path d="M 2161.14,3087.28 L 2161.14,1110 L 2162.21,1097.85 L 2274.56,460.593 L 2274.56,330 L 2434.56,330 L 2434.56,490 L 2411.53,490 L 2301.14,1116.12 L 2301.14,3087.28 L 2303.53,3094.61 L 2305.14,3110 L 2303.53,3125.39 L 2298.75,3140.1 L 2291.01,3153.5 L 2280.66,3164.99 L 2268.14,3174.09 L 2254.01,3180.38 L 2238.88,3183.59 L 2223.41,3183.59 L 2208.28,3180.38 L 2194.14,3174.09 L 2181.63,3164.99 L 2171.28,3153.5 L 2163.54,3140.1 L 2158.76,3125.39 L 2157.14,3110 L 2158.76,3094.61 L 2161.14,3087.28 z " style="fill-opacity:1.000000;fill:rgb(175,59,51);stroke:rgb(0,0,0);stroke-width:2"/></g>
<g fill-rule="evenodd"><path d="M 1606.76,3640 L 1622.74,3636.41 L 1638.22,3636.41 L 1653.35,3639.62 L 1666.28,3645.33 L 1678.38,3651.8 L 1688.99,3660.5 L 1697.69,3671.11 L 1704.16,3683.21 L 1708.14,3696.34 L 1709.48,3709.92 L 1883.9,3709.92 L 1883.9,3704.49 L 1978.39,3704.49 L 1978.39,3775.35 L 1883.9,3775.35 L 1883.9,3769.92 L 1701.14,3769.92 L 1701.14,4581.01 L 4023.96,6903.82 L 5327.41,6903.82 L 5561.14,6670.09 L 5561.14,6410 L 5562.49,6396.34 L 5566.47,6383.21 L 5572.94,6371.11 L 5581.65,6360.5 L 5592.25,6351.8 L 5604.36,6345.33 L 5617.49,6341.35 L 5631.14,6340 L 5644.8,6341.35 L 5657.93,6345.33 L 5670.03,6351.8 L 5680.64,6360.5 L 5689.35,6371.11 L 5695.82,6383.21 L 5699.8,6396.34 L 5701.14,6410 L 5701.14,6699.08 L 5700.28,6710.03 L 5697.72,6720.72 L 5693.51,6730.86 L 5687.77,6740.23 L 5680.64,6748.58 L 5659.56,6769.66 L 5659.56,6974.54 L 5678.39,6974.54 L 5678.39,7045.41 L 5583.9,7045.41 L 5583.9,6974.54 L 5599.56,6974.54 L 5599.56,6829.66 L 5405.9,7023.32 L 5395.3,7032.02 L 5383.19,7038.49 L 5370.06,7042.47 L 5356.41,7043.82 L 3994.96,7043.82 L 3981.31,7042.47 L 3968.18,7038.49 L 3956.07,7032.02 L 3945.47,7023.32 L 1581.65,4659.5 L 1572.94,4648.89 L 1566.47,4636.79 L 1562.49,4623.66 L 1561.14,4610 L 1561.14,3780 L 1257.03,3780 L 1241.05,3783.59 L 1225.58,3783.59 L 1210.44,3780.38 L 1196.31,3774.09 L 1183.8,3764.99 L 1173.44,3753.5 L 1165.71,3740.1 L 1160.93,3725.39 L 1159.31,3710 L 1160.93,3694.61 L 1165.71,3679.9 L 1173.44,3666.5 L 1183.8,3655.01 L 1196.31,3645.91 L 1210.44,3639.62 L 1225.58,3636.41 L 1241.05,3636.41 L 1257.03,3640 L 1606.76,3640 z " style="fill-opacity:1.000000;fill:rgb(205,227,80);stroke:rgb(0,0,0);stroke-width:2"/></g>
<g fill-rule="evenodd"><path d="M 3761.14,2087.28 L 3761.14,1510 L 3762.49,1496.34 L 3766.47,1483.21 L 3772.94,1471.11 L 3781.65,1460.5 L 3792.25,1451.8 L 3804.36,1445.33 L 3817.49,1441.35 L 3831.14,1440 L 3844.8,1441.35 L 3857.93,1445.33 L 3870.03,1451.8 L 3880.64,1460.5 L 3889.35,1471.11 L 3895.82,1483.21 L 3899.8,1496.34 L 3901.14,1510 L 3901.14,2087.28 L 3903.53,2094.61 L 3905.14,2110 L 3903.53,2125.39 L 3898.75,2140.1 L 3891.01,2153.5 L 3880.66,2164.99 L 3868.14,2174.09 L 3854.01,2180.38 L 3838.88,2183.59 L 3823.41,2183.59 L 3808.28,2180.38 L 3794.14,2174.09 L 3781.63,2164.99 L 3771.28,2153.5 L 3763.54,2140.1 L 3758.76,2125.39 L 3757.14,2110 L 3758.76,2094.61 L 3761.14,2087.28 z " style="fill-opacity:1.000000;fill:rgb(72,71,21);stroke:rgb(0,0,0);stroke-width:2"/></g>
<g fill-rule="evenodd"><path d="M 6161.14,2087.28 L 6161.14,1510 L 6162.49,1496.34 L 6166.47,1483.21 L 6172.94,1471.11 L 6181.65,1460.5 L 6192.25,1451.8 L 6204.36,1445.33 L 6217.49,1441.35 L 6231.14,1440 L 6244.8,1441.35 L 6257.93,1445.33 L 6270.03,1451.8 L 6280.64,1460.5 L 6289.35,1471.11 L 6295.82,1483.21 L 6299.8,1496.34 L 6301.14,1510 L 6301.14,2087.28 L 6303.53,2094.61 L 6305.14,2110 L 6303.53,2125.39 L 6298.75,2140.1 L 6291.01,2153.5 L 6280.66,2164.99 L 6268.14,2174.09 L 6254.01,2180.38 L 6238.88,2183.59 L 6223.41,2183.59 L 6208.28,2180.38 L 6194.14,2174.09 L 6181.63,2164.99 L 6171.28,2153.5 L 6163.54,2140.1 L 6158.76,2125.39 L 6157.14,2110 L 6158.76,2094.61 L 6161.14,2087.28 z " style="fill-opacity:1.000000;fill:rgb(92,187,111);stroke:rgb(0,0,0);stroke-width:2"/></g>
<g fill-rule="evenodd"><path d="M 4961.14,2087.28 L 4961.14,1510 L 4962.49,1496.34 L 4966.47,1483.21 L 4972.94,1471.11 L 4981.65,1460.5 L 4992.25,1451.8 L 5004.36,1445.33 L 5017.49,1441.35 L 5031.14,1440 L 5044.8,1441.35 L 5057.93,1445.33 L 5070.03,1451.8 L 5080.64,1460.5 L 5089.35,1471.11 L 5095.82,1483.21 L 5099.8,1496.34 L 5101.14,1510 L 5101.14,2087.28 L 5103.53,2094.61 L 5105.14,2110 L 5103.53,2125.39 L 5098.75,2140.1 L 5091.01,2153.5 L 5080.66,2164.99 L 5068.14,2174.09 L 5054.01,2180.38 L 5038.88,2183.59 L 5023.41,2183.59 L 5008.28,2180.38 L 4994.14,2174.09 L 4981.63,2164.99 L 4971.28,2153.5 L 4963.54,2140.1 L 4958.76,2125.39 L 4957.14,2110 L 4958.76,2094.61 L 4961.14,2087.28 z " style="fill-opacity:1.000000;fill:rgb(34,25,186);stroke:rgb(0,0,0);stroke-width:2"/></g>
<g fill-rule="evenodd"><path d="M 3905,3711.38 L 4083.9,3711.38 L 4083.9,3704.49 L 4178.39,3704.49 L 4178.39,3775.35 L 4083.9,3775.35 L 4083.9,3771.38 L 3901.14,3771.38 L 3901.14,3781.01 L 5880.64,5760.5 L 5889.35,5771.11 L 5895.82,5783.21 L 5899.8,5796.34 L 5901.14,5810 L 5901.14,6410 L 5899.8,6423.66 L 5895.82,6436.79 L 5889.35,6448.89 L 5880.64,6459.5 L 5870.03,6468.2 L 5861.14,6472.95 L 5861.14,6974.54 L 5878.39,6974.54 L 5878.39,7045.41 L 5783.9,7045.41 L 5783.9,6974.54 L 5801.14,6974.54 L 5801.14,6472.95 L 5792.25,6468.2 L 5781.65,6459.5 L 5772.94,6448.89 L 5766.47,6436.79 L 5762.49,6423.66 L 5761.14,6410 L 5761.14,5838.99 L 3781.65,3859.5 L 3774.51,3851.14 L 3768.77,3841.78 L 3764.57,3831.63 L 3762.01,3820.95 L 3761.14,3810 L 3761.14,3732.72 L 3758.76,3725.39 L 3757.14,3710 L 3758.76,3694.61 L 3763.54,3679.9 L 3771.28,3666.5 L 3781.63,3655.01 L 3794.14,3645.91 L 3808.28,3639.62 L 3823.41,3636.41 L 3838.88,3636.41 L 3854.01,3639.62 L 3868.14,3645.91 L 3880.66,3655.01 L 3891.01,3666.5 L 3898.75,3679.9 L 3903.53,3694.61 L 3905.14,3710 L 3905,3711.38 z " style="fill-opacity:1.000000;fill:rgb(155,125,245);stroke:rgb(0,0,0);stroke-width:2"/></g>
<g fill-rule="evenodd"><path d="M 4361.14,3732.72 L 4358.76,3725.39 L 4357.14,3710 L 4358.76,3694.61 L 4363.54,3679.9 L 4371.28,3666.5 L 4381.63,3655.01 L 4394.14,3645.91 L 4408.28,3639.62 L 4423.41,3636.41 L 4438.88,3636.41 L 4454.01,3639.62 L 4468.14,3645.91 L 4480.66,3655.01 L 4491.01,3666.5 L 4498.75,3679.9 L 4503.53,3694.61 L 4505.04,3709 L 4683.9,3709 L 4683.9,3704.49 L 4778.39,3704.49 L 4778.39,3775.35 L 4683.9,3775.35 L 4683.9,3769 L 4501.64,3769 L 6080.64,5348 L 6089.35,5358.61 L 6095.82,5370.71 L 6099.8,5383.84 L 6101.14,5397.5 L 6101.14,6410 L 6099.8,6423.66 L 6095.82,6436.79 L 6089.35,6448.89 L 6080.64,6459.5 L 6070.03,6468.2 L 6061.14,6472.95 L 6061.14,6974.54 L 6078.39,6974.54 L 6078.39,7045.41 L 5983.9,7045.41 L 5983.9,6974.54 L 6001.14,6974.54 L 6001.14,6472.95 L 5992.25,6468.2 L 5981.65,6459.5 L 5972.94,6448.89 L 5966.47,6436.79 L 5962.49,6423.66 L 5961.14,6410 L 5961.14,5426.49 L 4381.65,3847 L 4374.51,3838.64 L 4368.77,3829.28 L 4364.57,3819.13 L 4362.01,3808.45 L 4361.14,3797.5 L 4361.14,3732.72 z " style="fill-opacity:1.000000;fill:rgb(11,225,26);stroke:rgb(0,0,0);stroke-width:2"/></g>
<g fill-rule="evenodd"><path d="M 4961.14,3732.72 L 4958.76,3725.39 L 4957.14,3710 L 4958.76,3694.61 L 4963.54,3679.9 L 4971.28,3666.5 L 4981.63,3655.01 L 4994.14,3645.91 L 5008.28,3639.62 L 5023.41,3636.41 L 5038.88,3636.41 L 5054.01,3639.62 L 5068.14,3645.91 L 5080.66,3655.01 L 5091.01,3666.5 L 5098.78,3680 L 5301.22,3680 L 5307.07,3680.58 L 5312.7,3682.28 L 5317.89,3685.06 L 5322.43,3688.79 L 5326.17,3693.33 L 5328.94,3698.52 L 5330.68,3704.49 L 5378.39,3704.49 L 5378.39,3775.35 L 5283.9,3775.35 L 5283.9,3740 L 5101.14,3740 L 5101.14,3781.01 L 6280.64,4960.5 L 6289.35,4971.11 L 6295.82,4983.21 L 6299.8,4996.34 L 6301.14,5010 L 6301.14,6410 L 6299.8,6423.66 L 6295.82,6436.79 L 6289.35,6448.89 L 6280.64,6459.5 L 6270.03,6468.2 L 6261.14,6472.95 L 6261.14,6974.54 L 6278.39,6974.54 L 6278.39,7045.41 L 6183.9,7045.41 L 6183.9,6974.54 L 6201.14,6974.54 L 6201.14,6472.95 L 6192.25,6468.2 L 6181.65,6459.5 L 6172.94,6448.89 L 6166.47,6436.79 L 6162.49,6423.66 L 6161.14,6410 L 6161.14,5038.99 L 4981.65,3859.5 L 4974.51,3851.14 L 4968.77,3841.78 L 4964.57,3831.63 L 4962.01,3820.95 L 4961.14,3810 L 4961.14,3732.72 z " style="fill-opacity:1.000000;fill:rgb(28,127,35);stroke:rgb(0,0,0);stroke-width:2"/></g>
<g fill-rule="evenodd"><path d="M 5561.14,3732.72 L 5558.76,3725.39 L 5557.14,3710 L 5558.76,3694.61 L 5563.54,3679.9 L 5571.28,3666.5 L 5581.63,3655.01 L 5594.14,3645.91 L 5608.28,3639.62 L 5623.41,3636.41 L 5638.88,3636.41 L 5654.01,3639.62 L 5668.14,3645.91 L 5680.66,3655.01 L 5691.01,3666.5 L 5698.78,3680 L 5901.22,3680 L 5907.07,3680.58 L 5912.7,3682.28 L 5917.89,3685.06 L 5922.43,3688.79 L 5926.17,3693.33 L 5928.94,3698.52 L 5930.68,3704.49 L 5978.39,3704.49 L 5978.39,3775.35 L 5883.9,3775.35 L 5883.9,3740 L 5701.14,3740 L 5701.14,3781.01 L 6480.64,4560.5 L 6489.35,4571.11 L 6495.82,4583.21 L 6499.8,4596.34 L 6501.14,4610 L 6501.14,6410 L 6499.8,6423.66 L 6495.82,6436.79 L 6489.35,6448.89 L 6480.64,6459.5 L 6470.03,6468.2 L 6461.14,6472.95 L 6461.14,6974.54 L 6478.39,6974.54 L 6478.39,7045.41 L 6383.9,7045.41 L 6383.9,6974.54 L 6401.14,6974.54 L 6401.14,6472.95 L 6392.25,6468.2 L 6381.65,6459.5 L 6372.94,6448.89 L 6366.47,6436.79 L 6362.49,6423.66 L 6361.14,6410 L 6361.14,4638.99 L 5581.65,3859.5 L 5572.94,3848.89 L 5566.47,3836.79 L 5562.49,3823.66 L 5561.14,3810 L 5561.14,3732.72 z " style="fill-opacity:1.000000;fill:rgb(248,41,248);stroke:rgb(0,0,0);stroke-width:2"/></g>
<g fill-rule="evenodd"><path d="M 6761.14,3732.72 L 6758.76,3725.39 L 6757.14,3710 L 6758.76,3694.61 L 6763.54,3679.9 L 6771.28,3666.5 L 6781.63,3655.01 L 6794.14,3645.91 L 6808.28,3639.62 L 6823.41,3636.41 L 6838.88,3636.41 L 6854.01,3639.62 L 6868.14,3645.91 L 6880.66,3655.01 L 6891.01,3666.5 L 6898.78,3680 L 7101.22,3680 L 7107.07,3680.58 L 7112.7,3682.28 L 7117.89,3685.06 L 7122.43,3688.79 L 7126.17,3693.33 L 7128.94,3698.52 L 7130.68,3704.49 L 7178.39,3704.49 L 7178.39,3775.35 L 7083.9,3775.35 L 7083.9,3740 L 6901.14,3740 L 6901.14,6410 L 6899.8,6423.66 L 6895.82,6436.79 L 6889.35,6448.89 L 6880.64,6459.5 L 6870.03,6468.2 L 6861.14,6472.95 L 6861.14,6974.54 L 6878.39,6974.54 L 6878.39,7045.41 L 6783.9,7045.41 L 6783.9,6974.54 L 6801.14,6974.54 L 6801.14,6472.95 L 6792.25,6468.2 L 6781.65,6459.5 L 6772.94,6448.89 L 6766.47,6436.79 L 6762.49,6423.66 L 6761.14,6410 L 6761.14,3732.72 z " style="fill-opacity:1.000000;fill:rgb(164,27,19);stroke:rgb(0,0,0);stroke-width:2"/></g>
<g fill-rule="evenodd"><path d="M 11561.1,3732.72 L 11558.8,3725.39 L 11557.1,3710 L 11558.8,3694.61 L 11563.5,3679.9 L 11571.3,3666.5 L 11581.6,3655.01 L 11594.1,3645.91 L 11608.3,3639.62 L 11623.4,3636.41 L 11638.9,3636.41 L 11654,3639.62 L 11668.1,3645.91 L 11680.7,3655.01 L 11691,3666.5 L 11698.7,3679.9 L 11703.5,3694.61 L 11705.1,3709.77 L 11883.9,3709.77 L 11883.9,3704.49 L 11978.4,3704.49 L 11978.4,3775.35 L 11883.9,3775.35 L 11883.9,3769.77 L 11701.1,3769.77 L 11701.1,5210 L 11699.8,5223.66 L 11695.8,5236.79 L 11689.3,5248.89 L 11680.6,5259.5 L 9280.64,7659.5 L 9270.03,7668.2 L 9257.93,7674.67 L 9244.8,7678.65 L 9231.14,7680 L 9217.49,7678.65 L 9204.36,7674.67 L 9192.25,7668.2 L 9181.65,7659.5 L 9172.94,7648.89 L 9166.47,7636.79 L 9162.49,7623.66 L 9161.14,7610 L 9162.49,7596.34 L 9166.47,7583.21 L 9172.94,7571.11 L 9181.65,7560.5 L 9201.14,7541.01 L 9201.14,7375.35 L 9183.9,7375.35 L 9183.9,7304.49 L 9278.39,7304.49 L 9278.39,7375.35 L 9261.14,7375.35 L 9261.14,7481.01 L 11561.1,5181.01 L 11561.1,3732.72 z " style="fill-opacity:1.000000;fill:rgb(181,202,78);stroke:rgb(0,0,0);stroke-width:2"/></g>
<g fill-rule="evenodd"><path d="M 12161.1,3732.72 L 12158.8,3725.39 L 12157.1,3710 L 12158.8,3694.61 L 12163.5,3679.9 L 12171.3,3666.5 L 12181.6,3655.01 L 12194.1,3645.91 L 12208.3,3639.62 L 12223.4,3636.41 L 12238.9,3636.41 L 12254,3639.62 L 12268.1,3645.91 L 12280.7,3655.01 L 12291,3666.5 L 12298.7,3679.9 L 12303.5,3694.61 L 12305.1,3709.77 L 12483.9,3709.77 L 12483.9,3704.49 L 12578.4,3704.49 L 12578.4,3775.35 L 12483.9,3775.35 L 12483.9,3769.77 L 12301.1,3769.77 L 12301.1,5210 L 12299.8,5223.66 L 12295.8,5236.79 L 12289.3,5248.89 L 12280.6,5259.5 L 9680.64,7859.5 L 9670.03,7868.2 L 9657.93,7874.67 L 9644.8,7878.65 L 9631.14,7880 L 9142.06,7880 L 9131.11,7879.14 L 9120.43,7876.57 L 9110.28,7872.37 L 9100.91,7866.63 L 9092.56,7859.5 L 8981.65,7748.58 L 8972.94,7737.97 L 8966.47,7725.87 L 8962.49,7712.74 L 8961.14,7699.08 L 8961.14,7610 L 8962.49,7596.34 L 8966.47,7583.21 L 8972.94,7571.11 L 8981.65,7560.5 L 8992.25,7551.8 L 9001.14,7547.05 L 9001.14,7375.35 L 8983.9,7375.35 L 8983.9,7304.49 L 9078.39,7304.49 L 9078.39,7375.35 L 9061.14,7375.35 L 9061.14,7547.05 L 9070.03,7551.8 L 9080.64,7560.5 L 9089.35,7571.11 L 9095.82,7583.21 L 9099.8,7596.34 L 9101.14,7610 L 9101.14,7670.09 L 9171.05,7740 L 9602.15,7740 L 12161.1,5181.01 L 12161.1,3732.72 z " style="fill-opacity:1.000000;fill:rgb(232,152,50);stroke:rgb(0,0,0);stroke-width:2"/></g>
<g fill-rule="evenodd"><path d="M 9298.78,3680 L 9501.22,3680 L 9507.07,3680.58 L 9512.7,3682.28 L 9517.89,3685.06 L 9522.43,3688.79 L 9526.17,3693.33 L 9528.94,3698.52 L 9530.68,3704.49 L 9578.39,3704.49 L 9578.39,3775.35 L 9483.9,3775.35 L 9483.9,3740 L 9301.14,3740 L 9301.14,3810 L 9300.28,3820.95 L 9297.72,3831.63 L 9293.51,3841.78 L 9287.77,3851.14 L 9280.64,3859.5 L 8301.14,4838.99 L 8301.14,6410 L 8299.8,6423.66 L 8295.82,6436.79 L 8289.35,6448.89 L 8280.64,6459.5 L 8270.03,6468.2 L 8261.14,6472.95 L 8261.14,6744.65 L 8278.39,6744.65 L 8278.39,6815.51 L 8183.9,6815.51 L 8183.9,6744.65 L 8201.14,6744.65 L 8201.14,6472.95 L 8192.25,6468.2 L 8181.65,6459.5 L 8172.94,6448.89 L 8166.47,6436.79 L 8162.49,6423.66 L 8161.14,6410 L 8161.14,4810 L 8162.49,4796.34 L 8166.47,4783.21 L 8172.94,4771.11 L 8181.65,4760.5 L 9161.14,3781.01 L 9161.14,3732.72 L 9158.76,3725.39 L 9157.14,3710 L 9158.76,3694.61 L 9163.54,3679.9 L 9171.28,3666.5 L 9181.63,3655.01 L 9194.14,3645.91 L 9208.28,3639.62 L 9223.41,3636.41 L 9238.88,3636.41 L 9254.01,3639.62 L 9268.14,3645.91 L 9280.66,3655.01 L 9291.01,3666.5 L 9298.78,3680 z " style="fill-opacity:1.000000;fill:rgb(56,224,121);stroke:rgb(0,0,0);stroke-width:2"/></g>
<g fill-rule="evenodd"><path d="M 7361.14,2087.28 L 7361.14,1510 L 7362.49,1496.34 L 7366.47,1483.21 L 7372.94,1471.11 L 7381.65,1460.5 L 7392.25,1451.8 L 7404.36,1445.33 L 7417.49,1441.35 L 7431.14,1440 L 7444.8,1441.35 L 7457.93,1445.33 L 7470.03,1451.8 L 7480.64,1460.5 L 7489.35,1471.11 L 7495.82,1483.21 L 7499.8,1496.34 L 7501.14,1510 L 7501.14,2087.28 L 7503.53,2094.61 L 7505.14,2110 L 7503.53,2125.39 L 7498.75,2140.1 L 7491.01,2153.5 L 7480.66,2164.99 L 7468.14,2174.09 L 7454.01,2180.38 L 7438.88,2183.59 L 7423.41,2183.59 L 7408.28,2180.38 L 7394.14,2174.09 L 7381.63,2164.99 L 7371.28,2153.5 L 7363.54,2140.1 L 7358.76,2125.39 L 7357.14,2110 L 7358.76,2094.61 L 7361.14,2087.28 z " style="fill-opacity:1.000000;fill:rgb(77,61,52);stroke:rgb(0,0,0);stroke-width:2"/></g>
<g fill-rule="evenodd"><path d="M 7361.14,3732.72 L 7358.76,3725.39 L 7357.14,3710 L 7358.76,3694.61 L 7363.54,3679.9 L 7371.28,3666.5 L 7381.63,3655.01 L 7394.14,3645.91 L 7408.28,3639.62 L 7423.41,3636.41 L 7438.88,3636.41 L 7454.01,3639.62 L 7468.14,3645.91 L 7480.66,3655.01 L 7491.01,3666.5 L 7498.78,3680 L 7701.22,3680 L 7707.07,3680.58 L 7712.7,3682.28 L 7717.89,3685.06 L 7722.43,3688.79 L 7726.17,3693.33 L 7728.94,3698.52 L 7730.68,3704.49 L 7778.39,3704.49 L 7778.39,3775.35 L 7683.9,3775.35 L 7683.9,3740 L 7501.14,3740 L 7501.14,3810 L 7500.28,3820.95 L 7497.72,3831.63 L 7493.51,3841.78 L 7487.77,3851.14 L 7480.64,3859.5 L 7101.14,4238.99 L 7101.14,6410 L 7099.8,6423.66 L 7095.82,6436.79 L 7089.35,6448.89 L 7080.64,6459.5 L 7070.03,6468.2 L 7061.14,6472.95 L 7061.14,6975.62 L 7078.39,6975.62 L 7078.39,7046.49 L 6983.9,7046.49 L 6983.9,6975.62 L 7001.14,6975.62 L 7001.14,6472.95 L 6992.25,6468.2 L 6981.65,6459.5 L 6972.94,6448.89 L 6966.47,6436.79 L 6962.49,6423.66 L 6961.14,6410 L 6961.14,4210 L 6962.01,4199.05 L 6964.57,4188.37 L 6968.77,4178.22 L 6974.51,4168.86 L 6981.65,4160.5 L 7361.14,3781.01 L 7361.14,3732.72 z " style="fill-opacity:1.000000;fill:rgb(188,95,78);stroke:rgb(0,0,0);stroke-width:2"/></g>
<g fill-rule="evenodd"><path d="M 8698.78,3680 L 8901.22,3680 L 8907.07,3680.58 L 8912.7,3682.28 L 8917.89,3685.06 L 8922.43,3688.79 L 8926.17,3693.33 L 8928.94,3698.52 L 8930.68,3704.49 L 8978.39,3704.49 L 8978.39,3775.35 L 8883.9,3775.35 L 8883.9,3740 L 8701.14,3740 L 8701.14,3810 L 8700.28,3820.95 L 8697.72,3831.63 L 8693.51,3841.78 L 8687.77,3851.15 L 8680.64,3859.5 L 8101.14,4438.99 L 8101.14,6410 L 8099.8,6423.66 L 8095.82,6436.79 L 8089.35,6448.89 L 8080.64,6459.5 L 8070.03,6468.2 L 8061.14,6472.95 L 8061.14,6744.65 L 8078.39,6744.65 L 8078.39,6815.51 L 7983.9,6815.51 L 7983.9,6744.65 L 8001.14,6744.65 L 8001.14,6472.95 L 7992.25,6468.2 L 7981.65,6459.5 L 7972.94,6448.89 L 7966.47,6436.79 L 7962.49,6423.66 L 7961.14,6410 L 7961.14,4410 L 7962.01,4399.05 L 7964.57,4388.37 L 7968.77,4378.22 L 7974.51,4368.85 L 7981.65,4360.5 L 8561.14,3781 L 8561.14,3732.72 L 8558.76,3725.39 L 8557.14,3710 L 8558.76,3694.61 L 8563.54,3679.9 L 8571.28,3666.5 L 8581.63,3655.01 L 8594.14,3645.91 L 8608.28,3639.62 L 8623.41,3636.41 L 8638.88,3636.41 L 8654.01,3639.62 L 8668.14,3645.91 L 8680.66,3655.01 L 8691.01,3666.5 L 8698.78,3680 z " style="fill-opacity:1.000000;fill:rgb(119,250,203);stroke:rgb(0,0,0);stroke-width:2"/></g>
<g fill-rule="evenodd"><path d="M 7961.14,3732.72 L 7958.76,3725.39 L 7957.14,3710 L 7958.76,3694.61 L 7963.54,3679.9 L 7971.28,3666.5 L 7981.63,3655.01 L 7994.14,3645.91 L 8008.28,3639.62 L 8023.41,3636.41 L 8038.88,3636.41 L 8054.01,3639.62 L 8068.14,3645.91 L 8080.66,3655.01 L 8091.01,3666.5 L 8098.78,3680 L 8301.22,3680 L 8307.07,3680.58 L 8312.7,3682.28 L 8317.89,3685.06 L 8322.43,3688.79 L 8326.17,3693.33 L 8328.94,3698.52 L 8330.68,3704.49 L 8378.39,3704.49 L 8378.39,3775.35 L 8283.9,3775.35 L 8283.9,3740 L 8101.14,3740 L 8101.14,3797.5 L 8099.8,3811.16 L 8095.82,3824.29 L 8089.35,3836.39 L 8080.64,3847 L 7701.14,4226.49 L 7701.14,6410 L 7699.8,6423.66 L 7695.82,6436.79 L 7689.35,6448.89 L 7680.64,6459.5 L 7670.03,6468.2 L 7661.14,6472.95 L 7661.14,6744.65 L 7678.39,6744.65 L 7678.39,6815.51 L 7583.9,6815.51 L 7583.9,6744.65 L 7601.14,6744.65 L 7601.14,6472.95 L 7592.25,6468.2 L 7581.65,6459.5 L 7572.94,6448.89 L 7566.47,6436.79 L 7562.49,6423.66 L 7561.14,6410 L 7561.14,4197.5 L 7562.49,4183.84 L 7566.47,4170.71 L 7572.94,4158.61 L 7581.65,4148 L 7961.14,3768.51 L 7961.14,3732.72 z " style="fill-opacity:1.000000;fill:rgb(108,5,172);stroke:rgb(0,0,0);stroke-width:2"/></g>
<g fill-rule="evenodd"><path d="M 12161.1,2087.28 L 12161.1,1510 L 12162.5,1496.34 L 12166.5,1483.21 L 12172.9,1471.11 L 12181.6,1460.5 L 12192.3,1451.8 L 12204.4,1445.33 L 12217.5,1441.35 L 12231.1,1440 L 12244.8,1441.35 L 12257.9,1445.33 L 12270,1451.8 L 12280.6,1460.5 L 12289.3,1471.11 L 12295.8,1483.21 L 12299.8,1496.34 L 12301.1,1510 L 12301.1,2087.28 L 12303.5,2094.61 L 12305.1,2110 L 12303.5,2125.39 L 12298.7,2140.1 L 12291,2153.5 L 12280.7,2164.99 L 12268.1,2174.09 L 12254,2180.38 L 12238.9,2183.59 L 12223.4,2183.59 L 12208.3,2180.38 L 12194.1,2174.09 L 12181.6,2164.99 L 12171.3,2153.5 L 12163.5,2140.1 L 12158.8,2125.39 L 12157.1,2110 L 12158.8,2094.61 L 12161.1,2087.28 z " style="fill-opacity:1.000000;fill:rgb(134,33,43);stroke:rgb(0,0,0);stroke-width:2"/></g>
<g fill-rule="evenodd"><path d="M 9761.14,3087.28 L 9761.14,2732.72 L 9758.76,2725.39 L 9757.14,2710 L 9758.76,2694.61 L 9763.54,2679.9 L 9771.28,2666.5 L 9781.63,2655.01 L 9783.18,2653.88 L 10061.1,2190.61 L 10061.1,447.88 L 10058.1,442.539 L 10052.9,426.633 L 10051.1,410 L 10052.9,393.367 L 10058.1,377.461 L 10066.4,362.977 L 10077.6,350.548 L 10091.1,340.718 L 10106.4,333.915 L 10122.8,330.438 L 10139.5,330.438 L 10155.9,333.915 L 10171.1,340.718 L 10184.7,350.548 L 10195.9,362.977 L 10204.2,377.461 L 10209.4,393.367 L 10211.1,410 L 10209.4,426.633 L 10204.2,442.539 L 10201.1,447.88 L 10201.1,2210 L 10200,2222.54 L 10196.6,2234.68 L 10191.2,2246.01 L 9903.5,2725.46 L 9901.14,2732.72 L 9901.14,3087.28 L 9903.53,3094.61 L 9905.14,3110 L 9903.53,3125.39 L 9898.75,3140.1 L 9891.01,3153.5 L 9880.66,3164.99 L 9868.14,3174.09 L 9854.01,3180.38 L 9838.88,3183.59 L 9823.41,3183.59 L 9808.28,3180.38 L 9794.14,3174.09 L 9781.63,3164.99 L 9771.28,3153.5 L 9763.54,3140.1 L 9758.76,3125.39 L 9757.14,3110 L 9758.76,3094.61 L 9761.14,3087.28 z " style="fill-opacity:1.000000;fill:rgb(170,26,85);stroke:rgb(0,0,0);stroke-width:2"/></g>
<g fill-rule="evenodd"><path d="M 9761.14,3732.72 L 9758.76,3725.39 L 9757.14,3710 L 9758.76,3694.61 L 9763.54,3679.9 L 9771.28,3666.5 L 9781.63,3655.01 L 9794.14,3645.91 L 9808.28,3639.62 L 9823.41,3636.41 L 9838.88,3636.41 L 9854.01,3639.62 L 9868.14,3645.91 L 9880.66,3655.01 L 9891.01,3666.5 L 9898.78,3680 L 10101.2,3680 L 10107.1,3680.58 L 10112.7,3682.28 L 10117.9,3685.06 L 10122.4,3688.79 L 10126.2,3693.33 L 10128.9,3698.52 L 10130.7,3704.49 L 10178.4,3704.49 L 10178.4,3775.35 L 10083.9,3775.35 L 10083.9,3740 L 9901.14,3740 L 9901.14,3810 L 9900.28,3820.95 L 9897.72,3831.63 L 9893.51,3841.78 L 9887.77,3851.14 L 9880.64,3859.5 L 8501.14,5238.99 L 8501.14,6410 L 8499.8,6423.66 L 8495.82,6436.79 L 8489.35,6448.89 L 8480.64,6459.5 L 8470.03,6468.2 L 8461.14,6472.95 L 8461.14,6744.65 L 8478.39,6744.65 L 8478.39,6815.51 L 8383.9,6815.51 L 8383.9,6744.65 L 8401.14,6744.65 L 8401.14,6472.95 L 8392.25,6468.2 L 8381.65,6459.5 L 8372.94,6448.89 L 8366.47,6436.79 L 8362.49,6423.66 L 8361.14,6410 L 8361.14,5210 L 8362.49,5196.34 L 8366.47,5183.21 L 8372.94,5171.11 L 8381.65,5160.5 L 9761.14,3781.01 L 9761.14,3732.72 z " style="fill-opacity:1.000000;fill:rgb(162,190,112);stroke:rgb(0,0,0);stroke-width:2"/></g>
<g fill-rule="evenodd"><path d="M 10361.1,3732.72 L 10358.8,3725.39 L 10357.1,3710 L 10358.8,3694.61 L 10363.5,3679.9 L 10371.3,3666.5 L 10381.6,3655.01 L 10394.1,3645.91 L 10408.3,3639.62 L 10423.4,3636.41 L 10438.9,3636.41 L 10454,3639.62 L 10468.1,3645.91 L 10480.7,3655.01 L 10491,3666.5 L 10498.8,3680 L 10701.2,3680 L 10707.1,3680.58 L 10712.7,3682.28 L 10717.9,3685.06 L 10722.4,3688.79 L 10726.2,3693.33 L 10728.9,3698.52 L 10730.7,3704.49 L 10778.4,3704.49 L 10778.4,3775.35 L 10683.9,3775.35 L 10683.9,3740 L 10501.1,3740 L 10501.1,3810 L 10499.8,3823.66 L 10495.8,3836.79 L 10489.3,3848.89 L 10480.6,3859.5 L 8701.14,5638.99 L 8701.14,6410 L 8699.8,6423.66 L 8695.82,6436.79 L 8689.35,6448.89 L 8680.64,6459.5 L 8670.03,6468.2 L 8661.14,6472.95 L 8661.14,6744.65 L 8678.39,6744.65 L 8678.39,6815.51 L 8583.9,6815.51 L 8583.9,6744.65 L 8601.14,6744.65 L 8601.14,6472.95 L 8592.25,6468.2 L 8581.65,6459.5 L 8572.94,6448.89 L 8566.47,6436.79 L 8562.49,6423.66 L 8561.14,6410 L 8561.14,5610 L 8562.49,5596.34 L 8566.47,5583.21 L 8572.94,5571.11 L 8581.65,5560.5 L 10361.1,3781.01 L 10361.1,3732.72 z " style="fill-opacity:1.000000;fill:rgb(181,115,59);stroke:rgb(0,0,0);stroke-width:2"/></g>
<g fill-rule="evenodd"><path d="M 10961.1,3732.72 L 10958.8,3725.39 L 10957.1,3710 L 10958.8,3694.61 L 10963.5,3679.9 L 10971.3,3666.5 L 10981.6,3655.01 L 10994.1,3645.91 L 11008.3,3639.62 L 11023.4,3636.41 L 11038.9,3636.41 L 11054,3639.62 L 11068.1,3645.91 L 11080.7,3655.01 L 11091,3666.5 L 11098.8,3680 L 11301.2,3680 L 11307.1,3680.58 L 11312.7,3682.28 L 11317.9,3685.06 L 11322.4,3688.79 L 11326.2,3693.33 L 11328.9,3698.52 L 11330.7,3704.49 L 11378.4,3704.49 L 11378.4,3775.35 L 11283.9,3775.35 L 11283.9,3740 L 11101.1,3740 L 11101.1,3810 L 11099.8,3823.66 L 11095.8,3836.79 L 11089.3,3848.89 L 11080.6,3859.5 L 8901.14,6038.99 L 8901.14,6410 L 8899.8,6423.66 L 8895.82,6436.79 L 8889.35,6448.89 L 8880.64,6459.5 L 8870.03,6468.2 L 8861.14,6472.95 L 8861.14,6744.65 L 8878.39,6744.65 L 8878.39,6815.51 L 8783.9,6815.51 L 8783.9,6744.65 L 8801.14,6744.65 L 8801.14,6472.95 L 8792.25,6468.2 L 8781.65,6459.5 L 8772.94,6448.89 L 8766.47,6436.79 L 8762.49,6423.66 L 8761.14,6410 L 8761.14,6010 L 8762.49,5996.34 L 8766.47,5983.21 L 8772.94,5971.11 L 8781.65,5960.5 L 10961.1,3781.01 L 10961.1,3732.72 z " style="fill-opacity:1.000000;fill:rgb(4,92,211);stroke:rgb(0,0,0);stroke-width:2"/></g>
<g fill-rule="evenodd"><path d="M 12601.1,447.88 L 12601.1,2210 L 12600,2222.54 L 12596.6,2234.68 L 12591.2,2246.01 L 12303.5,2725.46 L 12301.1,2732.72 L 12301.1,3087.28 L 12303.5,3094.61 L 12305.1,3110 L 12303.5,3125.39 L 12298.7,3140.1 L 12291,3153.5 L 12280.7,3164.99 L 12268.1,3174.09 L 12254,3180.38 L 12238.9,3183.59 L 12223.4,3183.59 L 12208.3,3180.38 L 12194.1,3174.09 L 12181.6,3164.99 L 12171.3,3153.5 L 12163.5,3140.1 L 12158.8,3125.39 L 12157.1,3110 L 12158.8,3094.61 L 12161.1,3087.28 L 12161.1,2732.72 L 12158.8,2725.39 L 12157.1,2710 L 12158.8,2694.61 L 12163.5,2679.9 L 12171.3,2666.5 L 12181.6,2655.01 L 12183.2,2653.88 L 12461.1,2190.61 L 12461.1,447.879 L 12458.1,442.539 L 12452.9,426.633 L 12451.1,410 L 12452.9,393.367 L 12458.1,377.461 L 12466.4,362.977 L 12477.6,350.548 L 12491.1,340.718 L 12506.4,333.915 L 12522.8,330.438 L 12539.5,330.438 L 12555.9,333.915 L 12571.1,340.718 L 12584.7,350.548 L 12595.9,362.977 L 12604.2,377.461 L 12609.4,393.367 L 12611.1,410 L 12609.4,426.633 L 12604.2,442.539 L 12601.1,447.88 z " style="fill-opacity:1.000000;fill:rgb(54,148,179);stroke:rgb(0,0,0);stroke-width:2"/></g>
<g fill-rule="evenodd"><path d="M 11077.9,435.217 L 11075.1,426.633 L 11073.3,410 L 11075.1,393.367 L 11080.3,377.461 L 11083.3,372.124 L 11083.3,325.856 L 11035.5,277.998 L 10720,277.998 L 10672.1,325.857 L 10672.1,372.12 L 10675.2,377.461 L 10680.4,393.367 L 10682.1,410 L 10680.4,426.633 L 10675.2,442.539 L 10666.9,457.023 L 10661.2,463.347 L 10501.1,1118.43 L 10501.1,1310 L 10499.8,1323.66 L 10495.8,1336.79 L 10489.3,1348.89 L 10480.6,1359.5 L 10470,1368.2 L 10457.9,1374.67 L 10444.8,1378.65 L 10431.1,1380 L 10417.5,1378.65 L 10404.4,1374.67 L 10392.3,1368.2 L 10381.6,1359.5 L 10372.9,1348.89 L 10366.5,1336.79 L 10362.5,1323.66 L 10361.1,1310 L 10361.1,1110 L 10361.6,1101.63 L 10363.1,1093.39 L 10525.1,430.376 L 10523.9,426.633 L 10522.1,410 L 10523.9,393.367 L 10529.1,377.461 L 10532.1,372.12 L 10532.1,309.994 L 10500.1,277.998 L 9973.6,277.998 L 9925.74,325.856 L 9925.74,372.12 L 9928.83,377.461 L 9934,393.367 L 9935.74,410 L 9934,426.633 L 9928.83,442.539 L 9922.63,453.278 L 9901.14,1111.14 L 9901.14,1310 L 9899.8,1323.66 L 9895.82,1336.79 L 9889.35,1348.89 L 9880.64,1359.5 L 9870.03,1368.2 L 9857.93,1374.67 L 9844.8,1378.65 L 9831.14,1380 L 9817.49,1378.65 L 9804.36,1374.67 L 9792.25,1368.2 L 9781.65,1359.5 L 9772.94,1348.89 L 9766.47,1336.79 L 9762.49,1323.66 L 9761.14,1310 L 9761.18,1107.72 L 9782.89,442.94 L 9777.49,426.633 L 9775.74,410 L 9777.49,393.367 L 9780.96,382.693 L 9769.67,347.519 L 9700.15,277.998 L 9422.4,277.998 L 9374.54,325.857 L 9374.54,372.12 L 9377.63,377.461 L 9382.8,393.367 L 9384.54,410 L 9382.8,426.633 L 9377.63,442.539 L 9369.16,457.141 L 9301.14,1113.62 L 9301.14,1310 L 9299.8,1323.66 L 9295.82,1336.79 L 9289.35,1348.89 L 9280.64,1359.5 L 9270.03,1368.2 L 9257.93,1374.67 L 9244.8,1378.65 L 9231.14,1380 L 9217.49,1378.65 L 9204.36,1374.67 L 9192.25,1368.2 L 9181.65,1359.5 L 9172.94,1348.89 L 9166.47,1336.79 L 9162.49,1323.66 L 9161.14,1310 L 9161.14,1110 L 9161.52,1102.79 L 9230.29,438.947 L 9226.29,426.633 L 9224.54,410 L 9226.29,393.367 L 9231.46,377.461 L 9234.54,372.12 L 9234.54,325.857 L 9186.68,277.998 L 8871.2,277.998 L 8823.34,325.857 L 8823.34,372.12 L 8826.43,377.461 L 8831.6,393.367 L 8833.34,410 L 8831.6,426.633 L 8826.43,442.539 L 8818.06,457.023 L 8815.74,459.601 L 8701.14,1116.06 L 8701.14,1310 L 8699.8,1323.66 L 8695.82,1336.79 L 8689.35,1348.89 L 8680.64,1359.5 L 8670.03,1368.2 L 8657.93,1374.67 L 8644.8,1378.65 L 8631.14,1380 L 8617.49,1378.65 L 8604.36,1374.67 L 8592.25,1368.2 L 8581.65,1359.5 L 8572.94,1348.89 L 8566.47,1336.79 L 8562.49,1323.66 L 8561.14,1310 L 8561.14,1110 L 8562.19,1097.96 L 8677.88,435.221 L 8675.09,426.633 L 8673.34,410 L 8675.09,393.367 L 8680.26,377.461 L 8683.34,372.12 L 8683.34,325.857 L 8635.48,277.998 L 8320,277.998 L 8272.14,325.857 L 8272.14,372.12 L 8275.23,377.461 L 8280.4,393.367 L 8282.14,410 L 8280.4,426.633 L 8275.23,442.539 L 8266.86,457.023 L 8261.17,463.349 L 8101.14,1118.43 L 8101.14,1310 L 8099.8,1323.66 L 8095.82,1336.79 L 8089.35,1348.89 L 8080.64,1359.5 L 8070.03,1368.2 L 8057.93,1374.67 L 8044.8,1378.65 L 8031.14,1380 L 8017.49,1378.65 L 8004.36,1374.67 L 7992.25,1368.2 L 7981.65,1359.5 L 7972.94,1348.89 L 7966.47,1336.79 L 7962.49,1323.66 L 7961.14,1310 L 7961.14,1110 L 7961.65,1101.63 L 7963.14,1093.39 L 8125.11,430.375 L 8123.89,426.633 L 8122.14,410 L 8123.89,393.367 L 8129.06,377.461 L 8132.14,372.12 L 8132.14,309.994 L 8100.15,277.998 L 7573.6,277.998 L 7525.74,325.856 L 7525.74,372.12 L 7528.83,377.461 L 7534,393.367 L 7535.74,410 L 7534,426.633 L 7528.83,442.539 L 7525.65,448.05 L 7501.14,1111.29 L 7501.14,1310 L 7499.8,1323.66 L 7495.82,1336.79 L 7489.35,1348.89 L 7480.64,1359.5 L 7470.03,1368.2 L 7457.93,1374.67 L 7444.8,1378.65 L 7431.14,1380 L 7417.49,1378.65 L 7404.36,1374.67 L 7392.25,1368.2 L 7381.65,1359.5 L 7372.94,1348.89 L 7366.47,1336.79 L 7362.49,1323.66 L 7361.14,1310 L 7361.19,1107.42 L 7385.57,447.576 L 7382.66,442.539 L 7377.49,426.633 L 7375.74,410 L 7377.49,393.367 L 7382.66,377.461 L 7385.74,372.12 L 7385.74,325.857 L 7337.88,277.998 L 7022.4,277.998 L 6974.54,325.857 L 6974.54,372.12 L 6977.63,377.461 L 6982.8,393.367 L 6984.54,410 L 6982.8,426.633 L 6977.63,442.539 L 6970.16,455.475 L 6903.48,1091.35 L 6904.7,1095.37 L 6906.14,1110 L 6906.14,1310 L 6904.7,1324.63 L 6900.43,1338.7 L 6893.5,1351.67 L 6884.18,1363.03 L 6872.81,1372.36 L 6859.84,1379.29 L 6845.78,1383.56 L 6831.14,1385 L 6816.51,1383.56 L 6802.44,1379.29 L 6789.48,1372.36 L 6778.11,1363.03 L 6768.78,1351.67 L 6761.85,1338.7 L 6757.58,1324.63 L 6756.14,1310 L 6756.14,1110 L 6757.58,1095.37 L 6761.85,1081.3 L 6764.24,1076.84 L 6830.92,440.882 L 6826.29,426.633 L 6824.54,410 L 6826.29,393.367 L 6831.46,377.461 L 6834.54,372.12 L 6834.54,325.857 L 6786.68,277.998 L 6471.2,277.998 L 6423.34,325.856 L 6423.34,372.121 L 6426.43,377.461 L 6431.6,393.367 L 6433.34,410 L 6431.6,426.633 L 6426.43,442.539 L 6418.06,457.023 L 6406.87,469.452 L 6400.81,473.858 L 6306.14,1115.5 L 6306.14,1310 L 6304.7,1324.63 L 6300.43,1338.7 L 6293.5,1351.67 L 6284.18,1363.03 L 6272.81,1372.36 L 6259.84,1379.29 L 6245.78,1383.56 L 6231.14,1385 L 6216.51,1383.56 L 6202.44,1379.29 L 6189.48,1372.36 L 6178.11,1363.03 L 6168.78,1351.67 L 6161.85,1338.7 L 6157.58,1324.63 L 6156.14,1310 L 6156.14,1110 L 6156.95,1099.05 L 6256.95,421.253 L 6260.51,406.989 L 6266.78,393.693 L 6275.53,381.877 L 6280.2,377.637 L 6283.34,372.12 L 6283.34,338.413 L 6222.93,277.998 L 5920,277.998 L 5872.14,325.857 L 5872.14,372.12 L 5875.23,377.461 L 5880.4,393.367 L 5882.14,410 L 5880.4,426.633 L 5875.23,442.539 L 5870.94,449.964 L 5869.98,456.287 L 5705.37,1102.18 L 5706.14,1110 L 5706.14,1310 L 5704.7,1324.63 L 5700.43,1338.7 L 5693.5,1351.67 L 5684.18,1363.03 L 5672.81,1372.36 L 5659.84,1379.29 L 5645.78,1383.56 L 5631.14,1385 L 5616.51,1383.56 L 5602.44,1379.29 L 5589.48,1372.36 L 5578.11,1363.03 L 5568.78,1351.67 L 5561.85,1338.7 L 5557.58,1324.63 L 5556.14,1310 L 5556.14,1110 L 5557.58,1095.37 L 5561.85,1081.3 L 5568.78,1068.33 L 5569.86,1067.02 L 5729.03,442.443 L 5723.89,426.633 L 5722.14,410 L 5723.89,393.367 L 5729.06,377.461 L 5732.14,372.12 L 5732.14,309.994 L 5700.15,277.998 L 5173.6,277.998 L 5125.74,325.857 L 5125.74,372.12 L 5128.83,377.461 L 5134,393.367 L 5135.74,410 L 5134,426.633 L 5128.83,442.539 L 5120.46,457.023 L 5109.27,469.452 L 5101.14,475.359 L 5101.14,1083.63 L 5104.7,1095.37 L 5106.14,1110 L 5106.14,1310 L 5104.7,1324.63 L 5100.43,1338.7 L 5093.5,1351.67 L 5084.18,1363.03 L 5072.81,1372.36 L 5059.84,1379.29 L 5045.78,1383.56 L 5031.14,1385 L 5016.51,1383.56 L 5002.44,1379.29 L 4989.48,1372.36 L 4978.11,1363.03 L 4968.78,1351.67 L 4961.85,1338.7 L 4957.58,1324.63 L 4956.14,1310 L 4956.14,1110 L 4957.58,1095.37 L 4961.14,1083.64 L 4961.14,434.6 L 4962.49,420.944 L 4966.47,407.812 L 4970.46,400.349 L 4848.11,277.998 L 4622.4,277.998 L 4574.54,325.856 L 4574.54,372.12 L 4577.63,377.461 L 4582.8,393.367 L 4584.54,410 L 4582.8,426.633 L 4577.63,442.539 L 4570.16,455.473 L 4503.48,1091.35 L 4504.7,1095.37 L 4506.14,1110 L 4506.14,1310 L 4504.7,1324.63 L 4500.43,1338.7 L 4493.5,1351.67 L 4484.18,1363.03 L 4472.81,1372.36 L 4459.84,1379.29 L 4445.78,1383.56 L 4431.14,1385 L 4416.51,1383.56 L 4402.44,1379.29 L 4389.48,1372.36 L 4378.11,1363.03 L 4368.78,1351.67 L 4361.85,1338.7 L 4357.58,1324.63 L 4356.14,1310 L 4356.14,1110 L 4357.58,1095.37 L 4361.85,1081.3 L 4364.24,1076.84 L 4430.92,440.883 L 4426.29,426.633 L 4425.69,420.863 L 4377.87,355.721 L 4300.15,277.998 L 4071.2,277.998 L 4023.34,325.856 L 4023.34,372.12 L 4026.43,377.461 L 4031.6,393.367 L 4033.34,410 L 4031.6,426.633 L 4026.43,442.539 L 4018.06,457.023 L 4006.87,469.452 L 3995.15,477.971 L 3904.27,1093.94 L 3904.7,1095.37 L 3906.14,1110 L 3906.14,1310 L 3904.7,1324.63 L 3900.43,1338.7 L 3893.5,1351.67 L 3884.18,1363.03 L 3872.81,1372.36 L 3859.84,1379.29 L 3845.78,1383.56 L 3831.14,1385 L 3816.51,1383.56 L 3802.44,1379.29 L 3789.48,1372.36 L 3778.11,1363.03 L 3768.78,1351.67 L 3761.85,1338.7 L 3757.58,1324.63 L 3756.14,1310 L 3756.14,1110 L 3757.58,1095.37 L 3761.85,1081.3 L 3765.68,1074.15 L 3861.89,421.983 L 3865.22,408.669 L 3871.07,396.26 L 3876.56,388.855 L 3880.26,377.461 L 3883.34,372.12 L 3883.34,338.413 L 3822.93,277.998 L 3520,277.998 L 3472.14,325.856 L 3472.14,372.12 L 3475.23,377.461 L 3480.4,393.367 L 3482.14,410 L 3480.4,426.633 L 3475.23,442.539 L 3466.86,457.023 L 3461.17,463.347 L 3305.3,1101.42 L 3306.14,1110 L 3306.14,1310 L 3304.7,1324.63 L 3300.43,1338.7 L 3293.5,1351.67 L 3284.18,1363.03 L 3272.81,1372.36 L 3259.84,1379.29 L 3245.78,1383.56 L 3231.14,1385 L 3216.51,1383.56 L 3202.44,1379.29 L 3189.48,1372.36 L 3178.11,1363.03 L 3168.78,1351.67 L 3161.85,1338.7 L 3157.58,1324.63 L 3156.14,1310 L 3156.14,1110 L 3157.58,1095.37 L 3161.85,1081.3 L 3169.47,1067.5 L 3312.99,480 L 2701.14,480 L 2701.14,1310 L 2699.8,1323.66 L 2695.82,1336.79 L 2689.35,1348.89 L 2680.64,1359.5 L 2670.03,1368.2 L 2657.93,1374.67 L 2644.8,1378.65 L 2631.14,1380 L 2617.49,1378.65 L 2604.36,1374.67 L 2592.25,1368.2 L 2581.65,1359.5 L 2572.94,1348.89 L 2566.47,1336.79 L 2562.49,1323.66 L 2561.14,1310 L 2561.14,449.936 L 2556.87,442.539 L 2551.7,426.633 L 2549.96,410 L 2551.7,393.367 L 2556.87,377.461 L 2559.96,372.122 L 2559.96,325.857 L 2414.1,180 L 1960.14,180 L 1707.42,432.721 L 1704.23,442.539 L 1701.14,447.88 L 1701.14,1310 L 1699.8,1323.66 L 1695.82,1336.79 L 1689.35,1348.89 L 1680.64,1359.5 L 1670.03,1368.2 L 1657.93,1374.67 L 1644.8,1378.65 L 1631.14,1380 L 1617.49,1378.65 L 1604.36,1374.67 L 1592.25,1368.2 L 1581.65,1359.5 L 1572.94,1348.89 L 1566.47,1336.79 L 1562.49,1323.66 L 1561.14,1310 L 1561.14,447.88 L 1558.06,442.539 L 1552.89,426.633 L 1551.14,410 L 1552.89,393.367 L 1558.06,377.461 L 1561.14,372.12 L 1561.14,325.857 L 1415.28,180 L 1160.14,180 L 901.178,438.96 L 904.34,3083.53 L 907.93,3095.37 L 909.371,3110 L 907.93,3124.63 L 903.662,3138.7 L 896.732,3151.67 L 887.404,3163.03 L 876.039,3172.36 L 863.073,3179.29 L 849.003,3183.56 L 834.371,3185 L 434.371,3185 L 419.74,3183.56 L 405.67,3179.29 L 392.704,3172.36 L 381.338,3163.03 L 372.011,3151.67 L 365.08,3138.7 L 360.813,3124.63 L 359.371,3110 L 360.813,3095.37 L 365.08,3081.3 L 372.011,3068.33 L 381.338,3056.97 L 392.704,3047.64 L 405.67,3040.71 L 419.74,3036.44 L 434.371,3035 L 764.282,3035 L 761.144,410.084 L 761.995,399.116 L 764.554,388.417 L 768.758,378.25 L 774.502,368.869 L 781.646,360.503 L 1081.65,60.5025 L 1090,53.3688 L 1099.36,47.6295 L 1109.51,43.426 L 1120.19,40.8618 L 1131.14,40 L 1444.28,40 L 1457.94,41.345 L 1471.07,45.3284 L 1483.17,51.797 L 1493.78,60.5023 L 1680.64,247.364 L 1687.16,254.992 L 1881.65,60.5025 L 1890,53.3688 L 1899.36,47.6295 L 1909.51,43.426 L 1920.19,40.8618 L 1931.14,40 L 2443.09,40 L 2456.75,41.345 L 2469.88,45.3284 L 2481.98,51.797 L 2492.59,60.5023 L 2679.45,247.364 L 2686.59,255.717 L 2692.33,265.082 L 2696.53,275.231 L 2699.09,285.912 L 2699.96,296.862 L 2699.96,340 L 3332.14,340 L 3332.14,296.862 L 3333.49,283.206 L 3337.47,270.075 L 3343.94,257.973 L 3352.65,247.365 L 3441.51,158.501 L 3449.86,151.367 L 3459.23,145.628 L 3469.37,141.424 L 3480.05,138.86 L 3491.01,137.998 L 3851.92,137.998 L 3865.58,139.343 L 3878.71,143.326 L 3890.81,149.795 L 3901.42,158.501 L 3947.06,204.145 L 3992.71,158.501 L 4001.06,151.367 L 4010.43,145.628 L 4020.57,141.424 L 4031.25,138.86 L 4042.21,137.998 L 4329.14,137.998 L 4342.8,139.343 L 4355.93,143.326 L 4368.03,149.795 L 4378.64,158.5 L 4461.27,241.135 L 4543.91,158.501 L 4552.26,151.367 L 4561.63,145.628 L 4571.77,141.424 L 4582.45,138.86 L 4593.41,137.998 L 4877.1,137.998 L 4890.76,139.343 L 4903.89,143.326 L 4915.99,149.795 L 4926.6,158.5 L 5010.86,242.755 L 5095.11,158.501 L 5103.46,151.367 L 5112.83,145.628 L 5122.97,141.424 L 5133.65,138.86 L 5144.61,137.998 L 5729.14,137.998 L 5742.8,139.343 L 5755.93,143.326 L 5768.03,149.795 L 5778.64,158.5 L 5810.07,189.935 L 5841.51,158.501 L 5849.86,151.367 L 5859.23,145.628 L 5869.37,141.424 L 5880.05,138.86 L 5891.01,137.998 L 6251.92,137.998 L 6265.58,139.343 L 6278.71,143.326 L 6290.81,149.795 L 6301.42,158.501 L 6347.06,204.145 L 6392.71,158.501 L 6401.06,151.367 L 6410.43,145.628 L 6420.57,141.424 L 6431.25,138.86 L 6442.21,137.998 L 6815.68,137.998 L 6829.34,139.343 L 6842.47,143.326 L 6854.57,149.795 L 6865.18,158.501 L 6904.54,197.867 L 6943.91,158.501 L 6952.26,151.367 L 6961.63,145.628 L 6971.77,141.424 L 6982.45,138.86 L 6993.41,137.998 L 7366.88,137.998 L 7380.54,139.343 L 7393.67,143.326 L 7405.77,149.795 L 7416.38,158.501 L 7455.74,197.867 L 7495.11,158.501 L 7503.46,151.367 L 7512.83,145.628 L 7522.97,141.424 L 7533.65,138.86 L 7544.61,137.998 L 8129.14,137.998 L 8142.8,139.343 L 8155.93,143.326 L 8168.03,149.795 L 8178.64,158.5 L 8210.07,189.935 L 8241.51,158.501 L 8249.86,151.367 L 8259.23,145.628 L 8269.37,141.424 L 8280.05,138.86 L 8291.01,137.998 L 8664.48,137.998 L 8678.14,139.343 L 8691.27,143.326 L 8703.37,149.795 L 8713.98,158.501 L 8753.34,197.866 L 8792.71,158.501 L 8801.06,151.367 L 8810.43,145.628 L 8820.57,141.424 L 8831.25,138.86 L 8842.21,137.998 L 9215.68,137.998 L 9229.34,139.343 L 9242.47,143.326 L 9254.57,149.795 L 9265.18,158.501 L 9304.54,197.867 L 9343.91,158.501 L 9352.26,151.367 L 9361.63,145.628 L 9371.77,141.424 L 9382.45,138.86 L 9393.41,137.998 L 9729.14,137.998 L 9742.8,139.343 L 9755.93,143.326 L 9768.03,149.795 L 9778.64,158.5 L 9836.87,216.735 L 9895.11,158.501 L 9903.46,151.367 L 9912.83,145.628 L 9922.97,141.424 L 9933.65,138.86 L 9944.61,137.998 L 10529.1,137.998 L 10542.8,139.343 L 10555.9,143.326 L 10568,149.795 L 10578.6,158.5 L 10610.1,189.935 L 10641.5,158.501 L 10649.9,151.367 L 10659.2,145.628 L 10669.4,141.424 L 10680.1,138.86 L 10691,137.998 L 11064.5,137.998 L 11075.4,138.86 L 11086.1,141.424 L 11096.3,145.628 L 11105.6,151.367 L 11114,158.501 L 11153.3,197.867 L 11192.7,158.501 L 11203.3,149.795 L 11215.4,143.326 L 11228.5,139.343 L 11242.2,137.998 L 11629.1,137.998 L 11642.8,139.343 L 11655.9,143.326 L 11668,149.795 L 11678.6,158.501 L 11711.3,191.135 L 11743.9,158.501 L 11752.3,151.367 L 11761.6,145.628 L 11771.8,141.424 L 11782.5,138.86 L 11793.4,137.998 L 12166.9,137.998 L 12180.5,139.343 L 12193.7,143.326 L 12205.8,149.795 L 12216.4,158.501 L 12305.2,247.365 L 12312.4,255.717 L 12318.1,265.083 L 12322.3,275.231 L 12324.9,285.912 L 12325.7,296.862 L 12325.7,372.12 L 12328.8,377.461 L 12334,393.367 L 12335.7,410 L 12334,426.633 L 12328.8,442.539 L 12324.1,450.664 L 12301.1,1011.43 L 12301.1,1310 L 12299.8,1323.66 L 12295.8,1336.79 L 12289.3,1348.89 L 12280.6,1359.5 L 12270,1368.2 L 12257.9,1374.67 L 12244.8,1378.65 L 12231.1,1380 L 12217.5,1378.65 L 12204.4,1374.67 L 12192.3,1368.2 L 12181.6,1359.5 L 12172.9,1348.89 L 12166.5,1336.79 L 12162.5,1323.66 L 12161.1,1310 L 12161.2,1007.13 L 12184.2,445.273 L 12182.7,442.539 L 12177.5,426.633 L 12175.7,410 L 12177.5,393.367 L 12182.7,377.461 L 12185.7,372.12 L 12185.7,325.857 L 12137.9,277.998 L 11822.4,277.998 L 11774.5,325.856 L 11774.5,372.12 L 11777.6,377.461 L 11782.8,393.367 L 11784.5,410 L 11782.8,426.633 L 11777.6,442.539 L 11770.2,455.475 L 11701.1,1113.66 L 11701.1,1310 L 11699.8,1323.66 L 11695.8,1336.79 L 11689.3,1348.89 L 11680.6,1359.5 L 11670,1368.2 L 11657.9,1374.67 L 11644.8,1378.65 L 11631.1,1380 L 11617.5,1378.65 L 11604.4,1374.67 L 11592.3,1368.2 L 11581.6,1359.5 L 11572.9,1348.89 L 11566.5,1336.79 L 11562.5,1323.66 L 11561.1,1310 L 11561.1,1110 L 11561.5,1102.7 L 11630.9,440.882 L 11626.3,426.633 L 11624.5,410 L 11626.3,393.367 L 11631.5,377.461 L 11634.5,372.12 L 11634.5,312.395 L 11600.1,277.998 L 11271.2,277.998 L 11223.3,325.857 L 11223.3,372.116 L 11226.4,377.461 L 11231.6,393.367 L 11233.3,410 L 11231.6,426.633 L 11226.4,442.539 L 11218.1,457.023 L 11215.7,459.606 L 11101.1,1116.06 L 11101.1,1310 L 11099.8,1323.66 L 11095.8,1336.79 L 11089.3,1348.89 L 11080.6,1359.5 L 11070,1368.2 L 11057.9,1374.67 L 11044.8,1378.65 L 11031.1,1380 L 11017.5,1378.65 L 11004.4,1374.67 L 10992.3,1368.2 L 10981.6,1359.5 L 10972.9,1348.89 L 10966.5,1336.79 L 10962.5,1323.66 L 10961.1,1310 L 10961.1,1110 L 10962.2,1097.96 L 11077.9,435.217 z " style="fill-opacity:1.000000;fill:rgb(175,226,240);stroke:rgb(0,0,0);stroke-width:2"/></g>
<g fill-rule="evenodd"><path d="M 10935.4,464.889 L 10801.1,1117.13 L 10801.1,2210 L 10800,2222.54 L 10796.6,2234.68 L 10791.2,2246.01 L 10503.5,2725.46 L 10501.1,2732.72 L 10501.1,3087.28 L 10503.5,3094.61 L 10505.1,3110 L 10503.5,3125.39 L 10498.7,3140.1 L 10491,3153.5 L 10480.7,3164.99 L 10468.1,3174.09 L 10454,3180.38 L 10438.9,3183.59 L 10423.4,3183.59 L 10408.3,3180.38 L 10394.1,3174.09 L 10381.6,3164.99 L 10371.3,3153.5 L 10363.5,3140.1 L 10358.8,3125.39 L 10357.1,3110 L 10358.8,3094.61 L 10361.1,3087.28 L 10361.1,2732.72 L 10358.8,2725.39 L 10357.1,2710 L 10358.8,2694.61 L 10363.5,2679.9 L 10371.3,2666.5 L 10381.6,2655.01 L 10383.2,2653.88 L 10661.1,2190.61 L 10661.1,1110 L 10661.5,1102.91 L 10662.6,1095.89 L 10800,428.198 L 10799.5,426.633 L 10797.7,410 L 10799.5,393.367 L 10804.7,377.461 L 10813,362.977 L 10824.2,350.548 L 10837.7,340.718 L 10853,333.915 L 10869.4,330.438 L 10886.1,330.438 L 10902.5,333.915 L 10917.7,340.718 L 10931.3,350.548 L 10942.5,362.977 L 10950.8,377.461 L 10956,393.367 L 10957.7,410 L 10956,426.633 L 10950.8,442.539 L 10942.5,457.023 L 10935.4,464.889 z " style="fill-opacity:1.000000;fill:rgb(228,158,79);stroke:rgb(0,0,0);stroke-width:2"/></g>
<g fill-rule="evenodd"><path d="M 11495.6,453.637 L 11401.1,1114.98 L 11401.1,2210 L 11400,2222.54 L 11396.6,2234.68 L 11391.2,2246.01 L 11103.5,2725.46 L 11101.1,2732.72 L 11101.1,3087.28 L 11103.5,3094.61 L 11105.1,3110 L 11103.5,3125.39 L 11098.7,3140.1 L 11091,3153.5 L 11080.7,3164.99 L 11068.1,3174.09 L 11054,3180.38 L 11038.9,3183.59 L 11023.4,3183.59 L 11008.3,3180.38 L 10994.1,3174.09 L 10981.6,3164.99 L 10971.3,3153.5 L 10963.5,3140.1 L 10958.8,3125.39 L 10957.1,3110 L 10958.8,3094.61 L 10961.1,3087.28 L 10961.1,2732.72 L 10958.8,2725.39 L 10957.1,2710 L 10958.8,2694.61 L 10963.5,2679.9 L 10971.3,2666.5 L 10981.6,2655.01 L 10983.2,2653.88 L 11261.1,2190.61 L 11261.1,1110 L 11261.8,1100.1 L 11355.8,442.376 L 11350.7,426.633 L 11348.9,410 L 11350.7,393.367 L 11355.9,377.461 L 11364.2,362.977 L 11375.4,350.548 L 11388.9,340.718 L 11404.2,333.915 L 11420.6,330.438 L 11437.3,330.438 L 11453.7,333.915 L 11468.9,340.718 L 11482.5,350.548 L 11493.7,362.977 L 11502,377.461 L 11507.2,393.367 L 11508.9,410 L 11507.2,426.633 L 11502,442.539 L 11495.6,453.637 z " style="fill-opacity:1.000000;fill:rgb(50,21,73);stroke:rgb(0,0,0);stroke-width:2"/></g>
<g fill-rule="evenodd"><path d="M 12047.3,452.769 L 12001.1,1112.45 L 12001.1,2210 L 12000,2222.54 L 11996.6,2234.68 L 11991.2,2246.01 L 11703.5,2725.46 L 11701.1,2732.72 L 11701.1,3087.28 L 11703.5,3094.61 L 11705.1,3110 L 11703.5,3125.39 L 11698.7,3140.1 L 11691,3153.5 L 11680.7,3164.99 L 11668.1,3174.09 L 11654,3180.38 L 11638.9,3183.59 L 11623.4,3183.59 L 11608.3,3180.38 L 11594.1,3174.09 L 11581.6,3164.99 L 11571.3,3153.5 L 11563.5,3140.1 L 11558.8,3125.39 L 11557.1,3110 L 11558.8,3094.61 L 11561.1,3087.28 L 11561.1,2732.72 L 11558.8,2725.39 L 11557.1,2710 L 11558.8,2694.61 L 11563.5,2679.9 L 11571.3,2666.5 L 11581.6,2655.01 L 11583.2,2653.88 L 11861.1,2190.61 L 11861.1,1110 L 11907.6,443.52 L 11907.1,442.539 L 11901.9,426.633 L 11900.1,410 L 11901.9,393.367 L 11907.1,377.461 L 11915.4,362.977 L 11926.6,350.548 L 11940.1,340.718 L 11955.4,333.915 L 11971.8,330.438 L 11988.5,330.438 L 12004.9,333.915 L 12020.1,340.718 L 12033.7,350.548 L 12044.9,362.977 L 12053.2,377.461 L 12058.4,393.367 L 12060.1,410 L 12058.4,426.633 L 12053.2,442.539 L 12047.3,452.769 z " style="fill-opacity:1.000000;fill:rgb(253,130,78);stroke:rgb(0,0,0);stroke-width:2"/></g>
</svg>
