<?xml version="1.0" standalone="no"?>
<!DOCTYPE svg PUBLIC "-//W3C//DTD SVG 1.1//EN"
"http://www.w3.org/Graphics/SVG/1.1/DTD/svg11.dtd">
<svg width="821.37" height="533.37" viewBox="0 0 17111.9 11111.9" version="1.1"
xmlns="http://www.w3.org/2000/svg"
xmlns:xlink="http://www.w3.org/1999/xlink">
<g fill-rule="evenodd"><path d="M -4.54747e-13,11111.9 L -4.54747e-13,1.59162e-12 L 17111.9,1.59162e-12 L 17111.9,11111.9 L -4.54747e-13,11111.9 z " style="fill-opacity:0.200000;fill:rgb(103,198,105);"/></g>
<polyline points="29.937,11055.9 29.937,55.937 30.435,50.863 31.915,45.987 34.317,41.491 37.551,37.551 41.491,34.317 45.987,31.915 50.863,30.435 55.937,29.937 17055.9,29.937 17061,30.435 17065.9,31.915 17070.4,34.317 17074.3,37.551 17077.6,41.491 17080,45.987 17081.4,50.863 17081.9,55.937 17081.9,11055.9 17081.4,11061 17080,11065.9 17077.6,11070.4 17074.3,11074.3 17070.4,11077.6 17065.9,11080 17061,11081.4 17055.9,11081.9 55.937,11081.9 50.863,11081.4 45.987,11080 41.491,11077.6 37.551,11074.3 34.317,11070.4 31.915,11065.9 30.435,11061 29.937,11055.9" style="stroke:rgb(103,198,105);stroke-width:52.000000;fill:none;stroke-opacity:0.5;stroke-linecap:round;stroke-linejoin:round;;fill:none"/>
<polyline points="29.937,11055.9 29.937,55.937 30.435,50.863 31.915,45.987 34.317,41.491 37.551,37.551 41.491,34.317 45.987,31.915 50.863,30.435 55.937,29.937 17055.9,29.937 17061,30.435 17065.9,31.915 17070.4,34.317 17074.3,37.551 17077.6,41.491 17080,45.987 17081.4,50.863 17081.9,55.937 17081.9,11055.9 17081.4,11061 17080,11065.9 17077.6,11070.4 17074.3,11074.3 17070.4,11077.6 17065.9,11080 17061,11081.4 17055.9,11081.9 55.937,11081.9 50.863,11081.4 45.987,11080 41.491,11077.6 37.551,11074.3 34.317,11070.4 31.915,11065.9 30.435,11061 29.937,11055.9" style="stroke:rgb(0,0,0);stroke-width:1px;fill:none;stroke-opacity:1;stroke-linecap:round;stroke-linejoin:round;;fill:none"/>
<g fill-rule="evenodd"><path d="M 55.937,11055.9 L 55.937,55.937 L 17055.9,55.937 L 17055.9,11055.9 L 55.937,11055.9 z " style="fill-opacity:1.000000;fill:rgb(103,198,105);stroke:rgb(0,0,0);stroke-width:2"/></g>
</svg>
