<?xml version="1.0" standalone="no"?>
<!DOCTYPE svg PUBLIC "-//W3C//DTD SVG 1.1//EN"
"http://www.w3.org/Graphics/SVG/1.1/DTD/svg11.dtd">
<svg width="491.514" height="299.514" viewBox="0 0 10239.9 6239.87" version="1.1"
xmlns="http://www.w3.org/2000/svg"
xmlns:xlink="http://www.w3.org/1999/xlink">
<g fill-rule="evenodd"><path d="M -9.09495e-13,6239.87 L -9.09495e-13,0 L 10239.9,0 L 10239.9,6239.87 L -9.09495e-13,6239.87 z " style="fill-opacity:0.200000;fill:rgb(103,198,105);"/></g>
<polyline points="51.937,6119.94 51.937,119.937 53.243,106.669 57.113,93.913 63.397,82.157 71.853,71.853 82.157,63.397 93.913,57.113 106.669,53.243 119.937,51.937 10119.9,51.937 10133.2,53.243 10146,57.113 10157.7,63.397 10168,71.853 10176.5,82.157 10182.8,93.913 10186.6,106.669 10187.9,119.937 10187.9,6119.94 10186.6,6133.2 10182.8,6145.96 10176.5,6157.72 10168,6168.02 10157.7,6176.48 10146,6182.76 10133.2,6186.63 10119.9,6187.94 119.937,6187.94 106.669,6186.63 93.913,6182.76 82.157,6176.48 71.853,6168.02 63.397,6157.72 57.113,6145.96 53.243,6133.2 51.937,6119.94" style="stroke:rgb(103,198,105);stroke-width:116.000000;fill:none;stroke-opacity:0.5;stroke-linecap:round;stroke-linejoin:round;;fill:none"/>
<polyline points="51.937,6119.94 51.937,119.937 53.243,106.669 57.113,93.913 63.397,82.157 71.853,71.853 82.157,63.397 93.913,57.113 106.669,53.243 119.937,51.937 10119.9,51.937 10133.2,53.243 10146,57.113 10157.7,63.397 10168,71.853 10176.5,82.157 10182.8,93.913 10186.6,106.669 10187.9,119.937 10187.9,6119.94 10186.6,6133.2 10182.8,6145.96 10176.5,6157.72 10168,6168.02 10157.7,6176.48 10146,6182.76 10133.2,6186.63 10119.9,6187.94 119.937,6187.94 106.669,6186.63 93.913,6182.76 82.157,6176.48 71.853,6168.02 63.397,6157.72 57.113,6145.96 53.243,6133.2 51.937,6119.94" style="stroke:rgb(0,0,0);stroke-width:1px;fill:none;stroke-opacity:1;stroke-linecap:round;stroke-linejoin:round;;fill:none"/>
<g fill-rule="evenodd"><path d="M 119.937,6119.94 L 119.937,119.937 L 10119.9,119.937 L 10119.9,6119.94 L 119.937,6119.94 z " style="fill-opacity:1.000000;fill:rgb(103,198,105);stroke:rgb(0,0,0);stroke-width:2"/></g>
</svg>
