<?xml version="1.0" standalone="no"?>
<!DOCTYPE svg PUBLIC "-//W3C//DTD SVG 1.1//EN"
"http://www.w3.org/Graphics/SVG/1.1/DTD/svg11.dtd">
<svg width="485.37" height="293.37" viewBox="0 0 10111.9 6111.87" version="1.1"
xmlns="http://www.w3.org/2000/svg"
xmlns:xlink="http://www.w3.org/1999/xlink">
<g fill-rule="evenodd"><path d="M -9.09495e-13,6111.87 L -9.09495e-13,0 L 10111.9,0 L 10111.9,6111.87 L -9.09495e-13,6111.87 z " style="fill-opacity:0.200000;fill:rgb(103,198,105);"/></g>
<polyline points="29.937,6055.94 29.937,55.937 30.435,50.863 31.915,45.987 34.317,41.491 37.551,37.551 41.491,34.317 45.987,31.915 50.863,30.435 55.937,29.937 10055.9,29.937 10061,30.435 10065.9,31.915 10070.4,34.317 10074.3,37.551 10077.6,41.491 10080,45.987 10081.4,50.863 10081.9,55.937 10081.9,6055.94 10081.4,6061.01 10080,6065.89 10077.6,6070.38 10074.3,6074.32 10070.4,6077.56 10065.9,6079.96 10061,6081.44 10055.9,6081.94 55.937,6081.94 50.863,6081.44 45.987,6079.96 41.491,6077.56 37.551,6074.32 34.317,6070.38 31.915,6065.89 30.435,6061.01 29.937,6055.94" style="stroke:rgb(103,198,105);stroke-width:52.000000;fill:none;stroke-opacity:0.5;stroke-linecap:round;stroke-linejoin:round;;fill:none"/>
<polyline points="29.937,6055.94 29.937,55.937 30.435,50.863 31.915,45.987 34.317,41.491 37.551,37.551 41.491,34.317 45.987,31.915 50.863,30.435 55.937,29.937 10055.9,29.937 10061,30.435 10065.9,31.915 10070.4,34.317 10074.3,37.551 10077.6,41.491 10080,45.987 10081.4,50.863 10081.9,55.937 10081.9,6055.94 10081.4,6061.01 10080,6065.89 10077.6,6070.38 10074.3,6074.32 10070.4,6077.56 10065.9,6079.96 10061,6081.44 10055.9,6081.94 55.937,6081.94 50.863,6081.44 45.987,6079.96 41.491,6077.56 37.551,6074.32 34.317,6070.38 31.915,6065.89 30.435,6061.01 29.937,6055.94" style="stroke:rgb(0,0,0);stroke-width:1px;fill:none;stroke-opacity:1;stroke-linecap:round;stroke-linejoin:round;;fill:none"/>
<g fill-rule="evenodd"><path d="M 55.937,6055.94 L 55.937,55.937 L 10055.9,55.937 L 10055.9,6055.94 L 55.937,6055.94 z " style="fill-opacity:1.000000;fill:rgb(103,198,105);stroke:rgb(0,0,0);stroke-width:2"/></g>
</svg>
