M48
; DRILL file {KiCad (5.99.0-2302-g1dc804232)} date Thu Jul 23 07:23:03 2020
; FORMAT={-:-/ absolute / inch / decimal}
; #@! TF.CreationDate,2020-07-23T07:23:03-07:00
; #@! TF.GenerationSoftware,Kicad,Pcbnew,(5.99.0-2302-g1dc804232)
FMAT,2
INCH
T1C0.0315
T2C0.0354
T3C0.0433
T4C0.0472
%
G90
G05
T1
X6.6Y-2.45
X6.6Y-2.55
X6.6Y-2.65
X6.0Y-2.45
X6.0Y-2.55
X6.0Y-2.65
X3.4Y-2.45
X3.4Y-2.55
X3.4Y-2.65
X5.7Y-2.45
X5.7Y-2.55
X5.7Y-2.65
X4.5Y-2.45
X4.5Y-2.55
X4.5Y-2.65
X3.9Y-2.45
X3.9Y-2.55
X3.9Y-2.65
X5.4Y-2.45
X5.4Y-2.55
X5.4Y-2.65
X8.4Y-2.45
X8.4Y-2.55
X8.4Y-2.65
X7.8Y-2.45
X7.8Y-2.55
X7.8Y-2.65
X7.2Y-2.45
X7.2Y-2.55
X7.2Y-2.65
X4.2Y-2.45
X4.2Y-2.55
X4.2Y-2.65
X4.8Y-2.45
X4.8Y-2.55
X4.8Y-2.65
X7.5Y-2.45
X7.5Y-2.55
X7.5Y-2.65
X6.9Y-2.45
X6.9Y-2.55
X6.9Y-2.65
X8.7Y-2.45
X8.7Y-2.55
X8.7Y-2.65
X5.1Y-2.45
X5.1Y-2.55
X5.1Y-2.65
X6.3Y-2.45
X6.3Y-2.55
X6.3Y-2.65
X8.1Y-2.45
X8.1Y-2.55
X8.1Y-2.65
T2
X3.3997Y-3.45
X3.3997Y-3.75
X5.4Y-2.95
X5.4Y-3.25
X8.7Y-3.45
X8.7Y-3.75
X7.2Y-3.45
X7.2Y-3.75
X5.7Y-2.95
X5.7Y-3.25
X6.9Y-2.95
X6.9Y-3.25
X5.4Y-3.45
X5.4Y-3.75
X6.0Y-2.95
X6.0Y-3.25
X7.8Y-2.95
X7.8Y-3.25
X4.8Y-3.45
X4.8Y-3.75
X6.6Y-3.45
X6.6Y-3.75
X4.2Y-2.95
X4.2Y-3.25
X5.7Y-3.45
X5.7Y-3.75
X3.7Y-3.45
X3.7Y-3.75
X4.2Y-3.45
X4.2Y-3.75
X3.2011Y-3.45
X3.2011Y-3.75
X7.2Y-2.95
X7.2Y-3.25
X4.8Y-2.95
X4.8Y-3.25
X6.3Y-3.45
X6.3Y-3.75
X8.4Y-2.95
X8.4Y-3.25
X7.5Y-2.95
X7.5Y-3.25
X6.6Y-2.95
X6.6Y-3.25
X6.0Y-3.45
X6.0Y-3.75
X8.4Y-3.45
X8.4Y-3.75
X5.1Y-3.45
X5.1Y-3.75
X3.0016Y-3.45
X3.0016Y-3.75
X7.5Y-3.45
X7.5Y-3.75
X4.5Y-3.45
X4.5Y-3.75
X4.5Y-2.95
X4.5Y-3.25
X6.3Y-2.95
X6.3Y-3.25
X7.8Y-3.45
X7.8Y-3.75
X2.8016Y-3.45
X2.8016Y-3.75
X3.9Y-3.45
X3.9Y-3.75
X5.1Y-2.95
X5.1Y-3.25
X6.9Y-3.45
X6.9Y-3.75
X8.1Y-3.45
X8.1Y-3.75
X8.7Y-2.95
X8.7Y-3.25
X8.1Y-2.95
X8.1Y-3.25
T3
X4.9Y-5.1
X4.9Y-5.7
X5.0Y-5.1
X5.0Y-5.7
X5.1Y-5.1
X5.1Y-5.7
X5.2Y-5.1
X5.2Y-5.7
X5.3Y-5.1
X5.3Y-5.2
X5.3Y-5.7
X5.4Y-5.1
X5.4Y-5.2
X5.4Y-5.7
X5.5Y-5.1
X5.5Y-5.7
X5.6Y-5.1
X5.6Y-5.7
X5.7Y-5.1
X5.7Y-5.7
X5.8Y-5.1
X5.8Y-5.7
X5.9Y-5.1
X5.9Y-5.7
X6.0Y-5.1
X6.0Y-5.7
X6.1Y-5.1
X6.1Y-5.7
X6.2Y-5.1
X6.2Y-5.7
X6.3Y-5.1
X6.3Y-5.7
X6.4Y-5.1
X6.4Y-5.7
X6.5Y-5.1
X6.5Y-5.7
X6.6Y-5.1
X6.6Y-5.7
X6.7Y-5.1
X6.7Y-5.7
X6.8Y-5.1
X6.8Y-5.7
X6.9Y-5.1
X6.9Y-5.7
X7.0Y-5.1
X7.0Y-5.7
X7.1Y-5.1
X7.1Y-5.7
X7.2Y-5.1
X7.2Y-5.7
T4
X5.4855Y-2.1
X5.6233Y-2.1
X5.7611Y-2.1
X5.8989Y-2.1
X6.0367Y-2.1
X6.1745Y-2.1
X6.3123Y-2.1
X6.45Y-2.1
X4.2855Y-2.1
X4.4233Y-2.1
X4.5611Y-2.1
X4.6989Y-2.1
X4.8367Y-2.1
X4.9745Y-2.1
X5.1123Y-2.1
X5.25Y-2.1
X7.8855Y-2.1
X8.0233Y-2.1
X8.1611Y-2.1
X8.2989Y-2.1
X8.4367Y-2.1
X8.5745Y-2.1
X8.7123Y-2.1
X8.85Y-2.1
X3.7617Y-2.1
X3.8994Y-2.1
X3.2623Y-2.1
X3.4Y-2.1
X6.6855Y-2.1
X6.8233Y-2.1
X6.9611Y-2.1
X7.0989Y-2.1
X7.2367Y-2.1
X7.3745Y-2.1
X7.5123Y-2.1
X7.65Y-2.1
T0
M30
