G04 #@! TF.GenerationSoftware,KiCad,Pcbnew,(5.99.0-2302-g1dc804232)*
G04 #@! TF.CreationDate,2020-08-09T18:07:33-07:00*
G04 #@! TF.ProjectId,teensy,7465656e-7379-42e6-9b69-6361645f7063,rev?*
G04 #@! TF.SameCoordinates,Original*
G04 #@! TF.FileFunction,Copper,L2,Bot*
G04 #@! TF.FilePolarity,Positive*
%FSLAX46Y46*%
G04 Gerber Fmt 4.6, Leading zero omitted, Abs format (unit mm)*
G04 Created by KiCad (PCBNEW (5.99.0-2302-g1dc804232)) date 2020-08-09 18:07:33*
%MOMM*%
%LPD*%
G01*
G04 APERTURE LIST*
G04 #@! TA.AperFunction,ComponentPad*
%ADD10C,1.879600*%
G04 #@! TD*
G04 #@! TA.AperFunction,ComponentPad*
%ADD11R,1.879600X1.879600*%
G04 #@! TD*
G04 #@! TA.AperFunction,SMDPad,CuDef*
%ADD12R,1.200000X0.900000*%
G04 #@! TD*
G04 #@! TA.AperFunction,SMDPad,CuDef*
%ADD13R,0.900000X1.200000*%
G04 #@! TD*
G04 #@! TA.AperFunction,Conductor*
%ADD14C,0.762000*%
G04 #@! TD*
G04 #@! TA.AperFunction,Conductor*
%ADD15C,1.270000*%
G04 #@! TD*
G04 #@! TA.AperFunction,Conductor*
%ADD16C,1.778000*%
G04 #@! TD*
G04 APERTURE END LIST*
D10*
X109220000Y-88900000D03*
X106680000Y-88900000D03*
X116840000Y-88900000D03*
X114300000Y-88900000D03*
X144780000Y-88900000D03*
X147320000Y-88900000D03*
X149860000Y-88900000D03*
X152400000Y-88900000D03*
X154940000Y-88900000D03*
X157480000Y-88900000D03*
X160020000Y-88900000D03*
X162560000Y-88900000D03*
X121920000Y-88900000D03*
X124460000Y-88900000D03*
X127000000Y-88900000D03*
X129540000Y-88900000D03*
X132080000Y-88900000D03*
X134620000Y-88900000D03*
X137160000Y-88900000D03*
X139700000Y-88900000D03*
X190500000Y-88900000D03*
X193040000Y-88900000D03*
X195580000Y-88900000D03*
X198120000Y-88900000D03*
X200660000Y-88900000D03*
X203200000Y-88900000D03*
X205740000Y-88900000D03*
X208280000Y-88900000D03*
X167640000Y-88900000D03*
X170180000Y-88900000D03*
X172720000Y-88900000D03*
X175260000Y-88900000D03*
X177800000Y-88900000D03*
X180340000Y-88900000D03*
X182880000Y-88900000D03*
X185420000Y-88900000D03*
X165100000Y-144780000D03*
X167640000Y-144780000D03*
X170180000Y-144780000D03*
X172720000Y-144780000D03*
X162560000Y-144780000D03*
X160020000Y-144780000D03*
X157480000Y-144780000D03*
X175260000Y-144780000D03*
X177800000Y-144780000D03*
X180340000Y-144780000D03*
X182880000Y-144780000D03*
X182880000Y-129540000D03*
X180340000Y-129540000D03*
X177800000Y-129540000D03*
X175260000Y-129540000D03*
X172720000Y-129540000D03*
X170180000Y-129540000D03*
X167640000Y-129540000D03*
X165100000Y-129540000D03*
X154940000Y-144780000D03*
X152400000Y-144780000D03*
X149860000Y-144780000D03*
X147320000Y-144780000D03*
X144780000Y-144780000D03*
X142240000Y-144780000D03*
X139700000Y-144780000D03*
X137160000Y-144780000D03*
X134620000Y-144780000D03*
X132080000Y-144780000D03*
X129540000Y-144780000D03*
X127000000Y-144780000D03*
D11*
X124460000Y-144780000D03*
D10*
X162560000Y-129540000D03*
X160020000Y-129540000D03*
X157480000Y-129540000D03*
X154940000Y-129540000D03*
X152400000Y-129540000D03*
X149860000Y-129540000D03*
X147320000Y-129540000D03*
X144780000Y-129540000D03*
X142240000Y-129540000D03*
X139700000Y-129540000D03*
X137160000Y-129540000D03*
X134620000Y-129540000D03*
X132080000Y-129540000D03*
X129540000Y-129540000D03*
X127000000Y-129540000D03*
X124460000Y-129540000D03*
X134620000Y-132080000D03*
X137160000Y-132080000D03*
X109220000Y-100330000D03*
X109220000Y-97790000D03*
X109220000Y-95250000D03*
X116840000Y-100330000D03*
X116840000Y-97790000D03*
X116840000Y-95250000D03*
X160020000Y-100330000D03*
X160020000Y-97790000D03*
X160020000Y-95250000D03*
X154940000Y-100330000D03*
X154940000Y-97790000D03*
X154940000Y-95250000D03*
X149860000Y-100330000D03*
X149860000Y-97790000D03*
X149860000Y-95250000D03*
X144780000Y-100330000D03*
X144780000Y-97790000D03*
X144780000Y-95250000D03*
X137160000Y-100330000D03*
X137160000Y-97790000D03*
X137160000Y-95250000D03*
X132080000Y-100330000D03*
X132080000Y-97790000D03*
X132080000Y-95250000D03*
X127000000Y-100330000D03*
X127000000Y-97790000D03*
X127000000Y-95250000D03*
X121920000Y-100330000D03*
X121920000Y-97790000D03*
X121920000Y-95250000D03*
X205740000Y-100330000D03*
X205740000Y-97790000D03*
X205740000Y-95250000D03*
X200660000Y-100330000D03*
X200660000Y-97790000D03*
X200660000Y-95250000D03*
X195580000Y-100330000D03*
X195580000Y-97790000D03*
X195580000Y-95250000D03*
X190500000Y-100330000D03*
X190500000Y-97790000D03*
X190500000Y-95250000D03*
X182880000Y-100330000D03*
X182880000Y-97790000D03*
X182880000Y-95250000D03*
X177800000Y-100330000D03*
X177800000Y-97790000D03*
X177800000Y-95250000D03*
X172720000Y-100330000D03*
X172720000Y-97790000D03*
X172720000Y-95250000D03*
X137160000Y-121920000D03*
X137160000Y-114300000D03*
X132080000Y-121920000D03*
X132080000Y-114300000D03*
X127000000Y-121920000D03*
X127000000Y-114300000D03*
X121920000Y-121920000D03*
X121920000Y-114300000D03*
X144780000Y-121920000D03*
X144780000Y-114300000D03*
X149860000Y-121920000D03*
X149860000Y-114300000D03*
X154940000Y-121920000D03*
X154940000Y-114300000D03*
X160020000Y-121920000D03*
X160020000Y-114300000D03*
X167640000Y-121920000D03*
X167640000Y-114300000D03*
X172720000Y-121920000D03*
X172720000Y-114300000D03*
X177800000Y-121920000D03*
X177800000Y-114300000D03*
X182880000Y-121920000D03*
X182880000Y-114300000D03*
X190500000Y-121920000D03*
X190500000Y-114300000D03*
X195580000Y-121920000D03*
X195580000Y-114300000D03*
X200660000Y-121920000D03*
X200660000Y-114300000D03*
X205740000Y-121920000D03*
X205740000Y-114300000D03*
X106680000Y-114300000D03*
X106680000Y-121920000D03*
X109211574Y-121920000D03*
X109211574Y-114300000D03*
X116840000Y-114300000D03*
X116840000Y-121920000D03*
X114300000Y-121920000D03*
X114300000Y-114300000D03*
X99060000Y-121920000D03*
X99060000Y-114300000D03*
X101600000Y-114300000D03*
X101600000Y-121920000D03*
X160020000Y-111760000D03*
X160020000Y-104140000D03*
X149860000Y-111760000D03*
X149860000Y-104140000D03*
X137160000Y-111760000D03*
X137160000Y-104140000D03*
X127000000Y-111760000D03*
X127000000Y-104140000D03*
X205740000Y-111760000D03*
X205740000Y-104140000D03*
X195580000Y-111760000D03*
X195580000Y-104140000D03*
X182880000Y-111760000D03*
X182880000Y-104140000D03*
X172720000Y-111760000D03*
X172720000Y-104140000D03*
X154940000Y-111760000D03*
X154940000Y-104140000D03*
X144780000Y-111760000D03*
X144780000Y-104140000D03*
X132080000Y-111760000D03*
X132080000Y-104140000D03*
X121920000Y-111760000D03*
X121920000Y-104140000D03*
X200660000Y-111760000D03*
X200660000Y-104140000D03*
X190500000Y-111760000D03*
X190500000Y-104140000D03*
X177800000Y-111760000D03*
X177800000Y-104140000D03*
X167640000Y-111760000D03*
X167640000Y-104140000D03*
D12*
X137160000Y-137159645D03*
X137160000Y-140459645D03*
X109220000Y-116460000D03*
X109220000Y-119760000D03*
D13*
X119000000Y-134620000D03*
X122300000Y-134620000D03*
D12*
X116840000Y-116460000D03*
X116840000Y-119760000D03*
X144780000Y-137159645D03*
X144780000Y-140459645D03*
X137160000Y-116460000D03*
X137160000Y-119760000D03*
X142240000Y-137159645D03*
X142240000Y-140459645D03*
X132080000Y-116460000D03*
X132080000Y-119760000D03*
X139700000Y-137159645D03*
X139700000Y-140459645D03*
X127000000Y-116460000D03*
X127000000Y-119760000D03*
D13*
X128650000Y-134620000D03*
X125350000Y-134620000D03*
D12*
X121920000Y-116460000D03*
X121920000Y-119760000D03*
X147320000Y-137159645D03*
X147320000Y-140459645D03*
X144780000Y-116460000D03*
X144780000Y-119760000D03*
X149860000Y-137159645D03*
X149860000Y-140459645D03*
X149860000Y-116460000D03*
X149860000Y-119760000D03*
X152400000Y-137159645D03*
X152400000Y-140459645D03*
X154940000Y-116460000D03*
X154940000Y-119760000D03*
X154940000Y-137173375D03*
X154940000Y-140473375D03*
X160020000Y-116460000D03*
X160020000Y-119760000D03*
X162560000Y-134240000D03*
X162560000Y-137540000D03*
X167640000Y-116460000D03*
X167640000Y-119760000D03*
X167640000Y-134240000D03*
X167640000Y-137540000D03*
X172720000Y-116460000D03*
X172720000Y-119760000D03*
X170180000Y-134240000D03*
X170180000Y-137540000D03*
X177800000Y-116460000D03*
X177800000Y-119760000D03*
X172720000Y-134240000D03*
X172720000Y-137540000D03*
X182880000Y-116460000D03*
X182880000Y-119760000D03*
X175260000Y-134240000D03*
X175260000Y-137540000D03*
X190500000Y-116460000D03*
X190500000Y-119760000D03*
X177800000Y-134240000D03*
X177800000Y-137540000D03*
X195580000Y-116460000D03*
X195580000Y-119760000D03*
X182880000Y-141350000D03*
X182880000Y-138050000D03*
X200660000Y-116460000D03*
X200660000Y-119760000D03*
X180340000Y-141350000D03*
X180340000Y-138050000D03*
X205740000Y-116460000D03*
X205740000Y-119760000D03*
D10*
X167640000Y-100330000D03*
X167640000Y-97790000D03*
X167640000Y-95250000D03*
D14*
X99060000Y-121920000D02*
X99060000Y-120590923D01*
X99060000Y-120590923D02*
X103190923Y-116460000D01*
X103190923Y-116460000D02*
X107060000Y-116460000D01*
D15*
X124460000Y-144780000D02*
X115204997Y-144780000D01*
X99060000Y-128635003D02*
X99060000Y-121920000D01*
X115204997Y-144780000D02*
X99060000Y-128635003D01*
X133350000Y-142240000D02*
X116840000Y-142240000D01*
X134620000Y-140970000D02*
X133350000Y-142240000D01*
X116840000Y-142240000D02*
X101600000Y-127000000D01*
X101600000Y-127000000D02*
X101600000Y-121920000D01*
X130810000Y-139700000D02*
X118110000Y-139700000D01*
X137139938Y-133370062D02*
X130810000Y-139700000D01*
X118110000Y-139700000D02*
X109220000Y-130810000D01*
X109220000Y-130810000D02*
X109220000Y-121920000D01*
X129540000Y-137160000D02*
X119380000Y-137160000D01*
X134620000Y-132080000D02*
X129540000Y-137160000D01*
X119380000Y-137160000D02*
X116840000Y-134620000D01*
X116840000Y-134620000D02*
X116840000Y-121920000D01*
X180340000Y-146109077D02*
X181550923Y-147320000D01*
X180340000Y-144780000D02*
X180340000Y-146109077D01*
X181550923Y-147320000D02*
X184534049Y-147320000D01*
X184534049Y-147320000D02*
X205740000Y-126114049D01*
X205740000Y-126114049D02*
X205740000Y-121920000D01*
D14*
X109220000Y-116460000D02*
X205740000Y-116460000D01*
D15*
X177800000Y-130869077D02*
X179010923Y-132080000D01*
X177800000Y-129540000D02*
X177800000Y-130869077D01*
X185420000Y-132080000D02*
X195580000Y-121920000D01*
X179010923Y-132080000D02*
X185420000Y-132080000D01*
X139700000Y-128771902D02*
X137928098Y-127000000D01*
X139700000Y-129540000D02*
X139700000Y-128771902D01*
X133350000Y-127000000D02*
X128270000Y-121920000D01*
X137928098Y-127000000D02*
X133350000Y-127000000D01*
X128270000Y-121920000D02*
X127000000Y-121920000D01*
X132080000Y-128771902D02*
X130308098Y-127000000D01*
X132080000Y-129540000D02*
X132080000Y-128771902D01*
X130308098Y-127000000D02*
X127000000Y-127000000D01*
X127000000Y-127000000D02*
X121920000Y-121920000D01*
X160020000Y-121920000D02*
X154940000Y-127000000D01*
X154940000Y-127000000D02*
X154940000Y-129540000D01*
X170180000Y-128270000D02*
X176530000Y-121920000D01*
X170180000Y-129540000D02*
X170180000Y-128270000D01*
X176530000Y-121920000D02*
X177800000Y-121920000D01*
X167640000Y-129540000D02*
X167640000Y-127000000D01*
X167640000Y-127000000D02*
X172720000Y-121920000D01*
X99060000Y-114300000D02*
X101600000Y-114300000D01*
X114300000Y-121920000D02*
X116840000Y-121920000D01*
X106680000Y-121920000D02*
X109211574Y-121920000D01*
D14*
X205740000Y-119760000D02*
X205740000Y-121920000D01*
X200660000Y-119760000D02*
X200660000Y-121920000D01*
X195580000Y-119760000D02*
X195580000Y-121920000D01*
X190500000Y-119760000D02*
X190500000Y-121920000D01*
X182880000Y-119760000D02*
X182880000Y-121920000D01*
X177800000Y-119760000D02*
X177800000Y-121920000D01*
X172720000Y-119760000D02*
X172720000Y-121920000D01*
X167640000Y-119760000D02*
X167640000Y-121920000D01*
X160020000Y-119760000D02*
X160020000Y-121920000D01*
X154940000Y-119760000D02*
X154940000Y-121920000D01*
X149860000Y-119760000D02*
X149860000Y-121920000D01*
X144780000Y-119760000D02*
X144780000Y-121920000D01*
X137160000Y-119760000D02*
X137160000Y-121920000D01*
X132080000Y-119760000D02*
X132080000Y-121920000D01*
X127000000Y-121920000D02*
X127000000Y-119760000D01*
X121920000Y-121920000D02*
X121920000Y-119760000D01*
X116840000Y-121920000D02*
X116840000Y-119760000D01*
X109211574Y-121920000D02*
X109211574Y-119768426D01*
X109211574Y-119768426D02*
X109220000Y-119760000D01*
X109220000Y-116460000D02*
X107060000Y-116460000D01*
D15*
X208280000Y-88900000D02*
X208280000Y-109220000D01*
X208280000Y-109220000D02*
X205740000Y-111760000D01*
X203200000Y-88900000D02*
X203200000Y-109220000D01*
X203200000Y-109220000D02*
X200660000Y-111760000D01*
X198120000Y-88900000D02*
X198120000Y-109220000D01*
X198120000Y-109220000D02*
X195580000Y-111760000D01*
X193040000Y-88900000D02*
X193040000Y-109220000D01*
X193040000Y-109220000D02*
X190500000Y-111760000D01*
X185420000Y-88900000D02*
X185420000Y-109220000D01*
X185420000Y-109220000D02*
X182880000Y-111760000D01*
X180340000Y-88900000D02*
X180340000Y-109220000D01*
X180340000Y-109220000D02*
X177800000Y-111760000D01*
X175260000Y-88900000D02*
X175260000Y-109220000D01*
X175260000Y-109220000D02*
X172720000Y-111760000D01*
X170180000Y-88900000D02*
X170180000Y-109220000D01*
X170180000Y-109220000D02*
X167640000Y-111760000D01*
X162560000Y-88900000D02*
X162560000Y-109220000D01*
X162560000Y-109220000D02*
X160020000Y-111760000D01*
X157480000Y-88900000D02*
X157480000Y-109220000D01*
X157480000Y-109220000D02*
X154940000Y-111760000D01*
X152400000Y-88900000D02*
X152400000Y-109220000D01*
X152400000Y-109220000D02*
X149860000Y-111760000D01*
X147320000Y-88900000D02*
X147320000Y-109220000D01*
X147320000Y-109220000D02*
X144780000Y-111760000D01*
X139700000Y-88900000D02*
X139700000Y-109220000D01*
X139700000Y-109220000D02*
X137160000Y-111760000D01*
X134620000Y-88900000D02*
X134620000Y-109220000D01*
X134620000Y-109220000D02*
X132080000Y-111760000D01*
X129540000Y-88900000D02*
X129540000Y-109220000D01*
X129540000Y-109220000D02*
X127000000Y-111760000D01*
X124460000Y-88900000D02*
X124460000Y-109220000D01*
X124460000Y-109220000D02*
X121920000Y-111760000D01*
X101600000Y-114300000D02*
X101600000Y-90671902D01*
X101600000Y-90671902D02*
X105911902Y-86360000D01*
X105911902Y-86360000D02*
X109220000Y-86360000D01*
X106680000Y-88900000D02*
X106680000Y-114300000D01*
X114300000Y-88900000D02*
X114300000Y-114300000D01*
X109220000Y-100330000D02*
X109220000Y-114291574D01*
X109220000Y-114291574D02*
X109211574Y-114300000D01*
X116840000Y-100330000D02*
X116840000Y-114300000D01*
X121920000Y-100330000D02*
X121920000Y-104140000D01*
X127000000Y-100330000D02*
X127000000Y-104140000D01*
X132080000Y-100330000D02*
X132080000Y-104140000D01*
X137160000Y-100330000D02*
X137160000Y-104140000D01*
X144780000Y-100330000D02*
X144780000Y-104140000D01*
X149860000Y-100330000D02*
X149860000Y-104140000D01*
X154940000Y-100330000D02*
X154940000Y-104140000D01*
X160020000Y-100330000D02*
X160020000Y-104140000D01*
X167640000Y-100330000D02*
X167640000Y-104140000D01*
X172720000Y-100330000D02*
X172720000Y-104140000D01*
X177800000Y-100330000D02*
X177800000Y-104140000D01*
X182880000Y-100330000D02*
X182880000Y-104140000D01*
X205740000Y-100330000D02*
X205740000Y-104140000D01*
X200660000Y-100330000D02*
X200660000Y-104140000D01*
X195580000Y-100330000D02*
X195580000Y-104140000D01*
X190500000Y-100330000D02*
X190500000Y-104140000D01*
X205740000Y-111760000D02*
X205740000Y-114300000D01*
X200660000Y-111760000D02*
X200660000Y-114300000D01*
X195580000Y-111760000D02*
X195580000Y-114300000D01*
X190500000Y-111760000D02*
X190500000Y-114300000D01*
X182880000Y-111760000D02*
X182880000Y-114300000D01*
X177800000Y-111760000D02*
X177800000Y-114300000D01*
X172720000Y-111760000D02*
X172720000Y-114300000D01*
X167640000Y-111760000D02*
X167640000Y-114300000D01*
X160020000Y-111760000D02*
X160020000Y-114300000D01*
X154940000Y-111760000D02*
X154940000Y-114300000D01*
X149860000Y-111760000D02*
X149860000Y-114300000D01*
X144780000Y-111760000D02*
X144780000Y-114300000D01*
X137160000Y-111760000D02*
X137160000Y-114300000D01*
X121920000Y-111760000D02*
X121920000Y-114300000D01*
X127000000Y-111760000D02*
X127000000Y-114300000D01*
X132080000Y-111760000D02*
X132080000Y-114300000D01*
X116840000Y-86360000D02*
X121920000Y-86360000D01*
X116840000Y-88900000D02*
X116840000Y-86360000D01*
X109220000Y-86360000D02*
X116840000Y-86360000D01*
X121920000Y-86360000D02*
X127000000Y-86360000D01*
X121920000Y-88900000D02*
X121920000Y-86360000D01*
X127000000Y-86360000D02*
X132080000Y-86360000D01*
X127000000Y-88900000D02*
X127000000Y-86360000D01*
X132080000Y-86360000D02*
X137160000Y-86360000D01*
X132080000Y-88900000D02*
X132080000Y-86360000D01*
X137160000Y-86360000D02*
X144780000Y-86360000D01*
X137160000Y-88900000D02*
X137160000Y-86360000D01*
X144780000Y-86360000D02*
X149860000Y-86360000D01*
X144780000Y-88900000D02*
X144780000Y-86360000D01*
X149860000Y-86360000D02*
X154940000Y-86360000D01*
X149860000Y-88900000D02*
X149860000Y-86360000D01*
X154940000Y-86360000D02*
X160020000Y-86360000D01*
X154940000Y-88900000D02*
X154940000Y-86360000D01*
X160020000Y-86360000D02*
X167640000Y-86360000D01*
X160020000Y-88900000D02*
X160020000Y-86360000D01*
X167640000Y-86360000D02*
X172720000Y-86360000D01*
X167640000Y-88900000D02*
X167640000Y-86360000D01*
X172720000Y-86360000D02*
X177800000Y-86360000D01*
X172720000Y-88900000D02*
X172720000Y-86360000D01*
X177800000Y-86360000D02*
X182880000Y-86360000D01*
X177800000Y-88900000D02*
X177800000Y-86360000D01*
X182880000Y-86360000D02*
X190500000Y-86360000D01*
X182880000Y-88900000D02*
X182880000Y-86360000D01*
X190500000Y-86360000D02*
X195580000Y-86360000D01*
X190500000Y-88900000D02*
X190500000Y-86360000D01*
X195580000Y-86360000D02*
X200660000Y-86360000D01*
X195580000Y-88900000D02*
X195580000Y-86360000D01*
X200660000Y-86360000D02*
X205740000Y-86360000D01*
X200660000Y-88900000D02*
X200660000Y-86360000D01*
X109220000Y-88900000D02*
X109220000Y-86360000D01*
X205740000Y-86360000D02*
X205740000Y-88900000D01*
X109220000Y-88900000D02*
X109220000Y-95250000D01*
X116840000Y-95250000D02*
X116840000Y-88900000D01*
X121920000Y-88900000D02*
X121920000Y-95250000D01*
X127000000Y-95250000D02*
X127000000Y-88900000D01*
X132080000Y-88900000D02*
X132080000Y-95250000D01*
X137160000Y-95250000D02*
X137160000Y-88900000D01*
X144780000Y-88900000D02*
X144780000Y-95250000D01*
X149860000Y-95250000D02*
X149860000Y-88900000D01*
X154940000Y-88900000D02*
X154940000Y-95250000D01*
X160020000Y-95250000D02*
X160020000Y-88900000D01*
X167640000Y-88900000D02*
X167640000Y-95250000D01*
X172720000Y-95250000D02*
X172720000Y-88900000D01*
X177800000Y-88900000D02*
X177800000Y-95250000D01*
X182880000Y-95250000D02*
X182880000Y-88900000D01*
X190500000Y-88900000D02*
X190500000Y-95250000D01*
X195580000Y-95250000D02*
X195580000Y-88900000D01*
X200660000Y-88900000D02*
X200660000Y-95250000D01*
X205740000Y-95250000D02*
X205740000Y-88900000D01*
X205740000Y-95250000D02*
X205740000Y-97790000D01*
X200660000Y-95250000D02*
X200660000Y-97790000D01*
X195580000Y-95250000D02*
X195580000Y-97790000D01*
X190500000Y-95250000D02*
X190500000Y-97790000D01*
X182880000Y-95250000D02*
X182880000Y-97790000D01*
X177800000Y-95250000D02*
X177800000Y-97790000D01*
X172720000Y-95250000D02*
X172720000Y-97790000D01*
X167640000Y-95250000D02*
X167640000Y-97790000D01*
X160020000Y-95250000D02*
X160020000Y-97790000D01*
X154940000Y-95250000D02*
X154940000Y-97790000D01*
X149860000Y-95250000D02*
X149860000Y-97790000D01*
X144780000Y-95250000D02*
X144780000Y-97790000D01*
X137160000Y-95250000D02*
X137160000Y-97790000D01*
X132080000Y-95250000D02*
X132080000Y-97790000D01*
X127000000Y-95250000D02*
X127000000Y-97790000D01*
X121920000Y-95250000D02*
X121920000Y-97790000D01*
X109220000Y-95250000D02*
X109220000Y-97790000D01*
X116840000Y-95250000D02*
X116840000Y-97790000D01*
D14*
X132080000Y-132080000D02*
X132080000Y-129540000D01*
X128650000Y-134620000D02*
X129540000Y-134620000D01*
X129540000Y-134620000D02*
X132080000Y-132080000D01*
X124015000Y-132905000D02*
X122300000Y-134620000D01*
X124840000Y-132080000D02*
X124015000Y-132905000D01*
X125350000Y-134620000D02*
X125350000Y-134240000D01*
X125350000Y-134240000D02*
X124015000Y-132905000D01*
X129540000Y-129932178D02*
X127392178Y-132080000D01*
X129540000Y-129540000D02*
X129540000Y-129932178D01*
X127392178Y-132080000D02*
X124840000Y-132080000D01*
X119000000Y-134620000D02*
X116840000Y-134620000D01*
D15*
X134620000Y-132080000D02*
X134620000Y-129540000D01*
X137139938Y-133370062D02*
X137139938Y-132100062D01*
X137139938Y-132100062D02*
X137160000Y-132080000D01*
X137160000Y-132080000D02*
X137160000Y-129540000D01*
X182880000Y-144780000D02*
X200660000Y-127000000D01*
X200660000Y-127000000D02*
X200660000Y-121920000D01*
D14*
X162632538Y-137677899D02*
X160020000Y-140970000D01*
D15*
X160020000Y-144780000D02*
X160020000Y-140970000D01*
X160020000Y-140970000D02*
X160004898Y-140486755D01*
D14*
X154940000Y-140473375D02*
X160004898Y-140486755D01*
D15*
X175260000Y-128771902D02*
X177031902Y-127000000D01*
X175260000Y-129540000D02*
X175260000Y-128771902D01*
X177031902Y-127000000D02*
X185420000Y-127000000D01*
X185420000Y-127000000D02*
X190500000Y-121920000D01*
X172720000Y-128581890D02*
X176841890Y-124460000D01*
X172720000Y-129540000D02*
X172720000Y-128581890D01*
X176841890Y-124460000D02*
X180340000Y-124460000D01*
X180340000Y-124460000D02*
X182880000Y-121920000D01*
D14*
X154940000Y-129540000D02*
X154940000Y-137173375D01*
D15*
X134620000Y-124460000D02*
X139700000Y-124460000D01*
X139700000Y-124460000D02*
X142240000Y-127000000D01*
X132080000Y-121920000D02*
X134620000Y-124460000D01*
X142240000Y-127000000D02*
X142240000Y-129540000D01*
X140970000Y-121920000D02*
X144780000Y-125730000D01*
X144780000Y-125730000D02*
X144780000Y-129540000D01*
X137160000Y-121920000D02*
X140970000Y-121920000D01*
X144780000Y-121920000D02*
X147320000Y-124460000D01*
X147320000Y-124460000D02*
X147320000Y-129540000D01*
X162560000Y-129540000D02*
X162560000Y-127000000D01*
X162560000Y-127000000D02*
X167640000Y-121920000D01*
X154940000Y-121920000D02*
X152400000Y-124460000D01*
X152400000Y-124460000D02*
X152400000Y-129540000D01*
X149860000Y-121920000D02*
X149860000Y-126809988D01*
X149860000Y-129540000D02*
X149860000Y-126809988D01*
D14*
X137139938Y-137159645D02*
X137139938Y-133370062D01*
D16*
X177800000Y-129540000D02*
X177800000Y-130684018D01*
D14*
X137160000Y-140459645D02*
X135130355Y-140459645D01*
X135130355Y-140459645D02*
X134620000Y-140970000D01*
X167640000Y-121920000D02*
X168089608Y-122369608D01*
X195548995Y-122369608D02*
X195612131Y-122306472D01*
X190414987Y-122369608D02*
X190495351Y-122289244D01*
X182880000Y-121920000D02*
X183329608Y-122369608D01*
X177800000Y-121920000D02*
X178247933Y-122367933D01*
X172720000Y-121920000D02*
X173167933Y-122367933D01*
X205654773Y-122383310D02*
X205740000Y-122298083D01*
X200574773Y-122383310D02*
X200660000Y-122298083D01*
X139700000Y-140459645D02*
X137160000Y-140459645D01*
X142240000Y-140459645D02*
X139700000Y-140459645D01*
X144780000Y-140459645D02*
X142240000Y-140459645D01*
X147320000Y-140459645D02*
X144780000Y-140459645D01*
X149860000Y-140459645D02*
X147320000Y-140459645D01*
X152400000Y-140459645D02*
X149860000Y-140459645D01*
X152400000Y-140459645D02*
X154926270Y-140459645D01*
X167640000Y-137540000D02*
X162560000Y-137540000D01*
X170180000Y-137540000D02*
X167640000Y-137540000D01*
X172720000Y-137540000D02*
X170180000Y-137540000D01*
X172720000Y-137540000D02*
X175260000Y-137540000D01*
X177800000Y-137540000D02*
X175260000Y-137540000D01*
X180340000Y-138050000D02*
X178310000Y-138050000D01*
X178310000Y-138050000D02*
X177800000Y-137540000D01*
X180340000Y-138050000D02*
X182880000Y-138050000D01*
X182880000Y-141350000D02*
X182880000Y-144780000D01*
X180340000Y-141350000D02*
X180340000Y-144780000D01*
X177800000Y-129540000D02*
X177800000Y-134240000D01*
X175260000Y-129540000D02*
X175260000Y-134240000D01*
X172720000Y-129540000D02*
X172720000Y-134240000D01*
X170180000Y-129540000D02*
X170180000Y-134240000D01*
X167640000Y-129540000D02*
X167640000Y-134240000D01*
X162560000Y-129540000D02*
X162560000Y-134240000D01*
X152400000Y-129540000D02*
X152400000Y-137159645D01*
X149860000Y-129540000D02*
X149860000Y-137159645D01*
X147320000Y-129540000D02*
X147320000Y-137159645D01*
X144780000Y-129540000D02*
X144780000Y-137159645D01*
X142240000Y-129540000D02*
X142240000Y-137159645D01*
X139700000Y-129540000D02*
X139700000Y-137159645D01*
M02*
