  0
SECTION
  2
HEADER
  9
$ANGBASE
  50
0.0
  9
$ANGDIR
  70
1
  9
$MEASUREMENT
  70
0
  0
ENDSEC
  0
SECTION
  2
TABLES
  0
TABLE
  2
LTYPE
  70
4
  0
LTYPE
  5
40F
  2
CONTINUOUS
  70
0
  3
Solid line
  72
65
  73
0
  40
0.0
  0
LTYPE
  5
410
  2
DASHDOT
 70
0
  3
Dash Dot ____ _ ____ _
 72
65
 73
4
 40
2.0
 49
1.25
 49
-0.25
 49
0.25
 49
-0.25
  0
LTYPE
  5
411
  2
DASHED
 70
0
  3
Dashed __ __ __ __ __
 72
65
 73
2
 40
0.75
 49
0.5
 49
-0.25
  0
LTYPE
  5
43B
  2
DOTTED
 70
0
  3
Dotted .  .  .  .
 72
65
 73
2
 40
0.2
 49
0.0
 49
-0.2
  0
ENDTAB
  0
TABLE
  2
STYLE
  70
4
  0
STYLE
  2
KICAD
  70
0
  40
0
  41
1
  42
1
  50
0
  71
0
  3
isocp.shx
  0
STYLE
  2
KICADB
  70
0
  40
0
  41
1
  42
1
  50
0
  71
0
  3
isocp.shx
  0
STYLE
  2
KICADI
  70
0
  40
0
  41
1
  42
1
  50
15
  71
0
  3
isocp.shx
  0
STYLE
  2
KICADBI
  70
0
  40
0
  41
1
  42
1
  50
15
  71
0
  3
isocp.shx
  0
ENDTAB
  0
TABLE
  2
LAYER
  70
1
  0
LAYER
  2
BLACK
  70
0
  62
7
  6
CONTINUOUS
  0
ENDTAB
  0
ENDSEC
  0
SECTION
  2
ENTITIES
0
LINE
8
BLACK
6
CONTINUOUS
10
10.001
20
-0.998033
11
10.0011
21
-0.998235
0
LINE
8
BLACK
6
CONTINUOUS
10
10.0011
20
-0.998235
11
10.0014
21
-0.998292
0
LINE
8
BLACK
6
CONTINUOUS
10
10.0014
20
-0.998292
11
10.0017
21
-0.998947
0
LINE
8
BLACK
6
CONTINUOUS
10
10.0017
20
-0.998947
11
10.0021
21
-0.999516
0
LINE
8
BLACK
6
CONTINUOUS
10
10.0021
20
-0.999516
11
10.0021
21
-0.999767
0
LINE
8
BLACK
6
CONTINUOUS
10
10.0021
20
-0.999767
11
10.0022
21
-1
0
LINE
8
BLACK
6
CONTINUOUS
10
10.0022
20
-1
11
10.0022
21
-7
0
LINE
8
BLACK
6
CONTINUOUS
10
10.0022
20
-7
11
10.002
21
-7.00095
0
LINE
8
BLACK
6
CONTINUOUS
10
10.002
20
-7.00095
11
10.0018
21
-7.00111
0
LINE
8
BLACK
6
CONTINUOUS
10
10.0018
20
-7.00111
11
10.0017
21
-7.00136
0
LINE
8
BLACK
6
CONTINUOUS
10
10.0017
20
-7.00136
11
10.0011
21
-7.00168
0
LINE
8
BLACK
6
CONTINUOUS
10
10.0011
20
-7.00168
11
10.0005
21
-7.00213
0
LINE
8
BLACK
6
CONTINUOUS
10
10.0005
20
-7.00213
11
10.0002
21
-7.00207
0
LINE
8
BLACK
6
CONTINUOUS
10
10.0002
20
-7.00207
11
10
21
-7.00218
0
LINE
8
BLACK
6
CONTINUOUS
10
10
20
-7.00218
11
1.5
21
-7.00218
0
LINE
8
BLACK
6
CONTINUOUS
10
1.5
20
-7.00218
11
1.49905
21
-7.00197
0
LINE
8
BLACK
6
CONTINUOUS
10
1.49905
20
-7.00197
11
1.49889
21
-7.00177
0
LINE
8
BLACK
6
CONTINUOUS
10
1.49889
20
-7.00177
11
1.49864
21
-7.00171
0
LINE
8
BLACK
6
CONTINUOUS
10
1.49864
20
-7.00171
11
1.49832
21
-7.00105
0
LINE
8
BLACK
6
CONTINUOUS
10
1.49832
20
-7.00105
11
1.49787
21
-7.00048
0
LINE
8
BLACK
6
CONTINUOUS
10
1.49787
20
-7.00048
11
1.49793
21
-7.00023
0
LINE
8
BLACK
6
CONTINUOUS
10
1.49793
20
-7.00023
11
1.49782
21
-7
0
LINE
8
BLACK
6
CONTINUOUS
10
1.49782
20
-7
11
1.49782
21
-1
0
LINE
8
BLACK
6
CONTINUOUS
10
1.49782
20
-1
11
1.49803
21
-0.999049
0
LINE
8
BLACK
6
CONTINUOUS
10
1.49803
20
-0.999049
11
1.49823
21
-0.998888
0
LINE
8
BLACK
6
CONTINUOUS
10
1.49823
20
-0.998888
11
1.49829
21
-0.998637
0
LINE
8
BLACK
6
CONTINUOUS
10
1.49829
20
-0.998637
11
1.49895
21
-0.998322
0
LINE
8
BLACK
6
CONTINUOUS
10
1.49895
20
-0.998322
11
1.49952
21
-0.997869
0
LINE
8
BLACK
6
CONTINUOUS
10
1.49952
20
-0.997869
11
1.49977
21
-0.997927
0
LINE
8
BLACK
6
CONTINUOUS
10
1.49977
20
-0.997927
11
1.5
21
-0.997815
0
LINE
8
BLACK
6
CONTINUOUS
10
1.5
20
-0.997815
11
10
21
-0.997815
0
LINE
8
BLACK
6
CONTINUOUS
10
10
20
-0.997815
11
10.001
21
-0.998033
0
LINE
8
BLACK
6
CONTINUOUS
10
1.50218
20
-1.00218
11
1.50218
21
-6.99782
0
LINE
8
BLACK
6
CONTINUOUS
10
1.50218
20
-6.99782
11
9.99782
21
-6.99782
0
LINE
8
BLACK
6
CONTINUOUS
10
9.99782
20
-6.99782
11
9.99782
21
-1.00218
0
LINE
8
BLACK
6
CONTINUOUS
10
9.99782
20
-1.00218
11
1.50218
21
-1.00218
  0
ENDSEC
  0
EOF
