G04 #@! TF.GenerationSoftware,KiCad,Pcbnew,(5.99.0-2302-g1dc804232)*
G04 #@! TF.CreationDate,2020-08-08T17:51:14-07:00*
G04 #@! TF.ProjectId,teensy,7465656e-7379-42e6-9b69-6361645f7063,rev?*
G04 #@! TF.SameCoordinates,Original*
G04 #@! TF.FileFunction,Copper,L2,Bot*
G04 #@! TF.FilePolarity,Positive*
%FSLAX46Y46*%
G04 Gerber Fmt 4.6, Leading zero omitted, Abs format (unit mm)*
G04 Created by KiCad (PCBNEW (5.99.0-2302-g1dc804232)) date 2020-08-08 17:51:14*
%MOMM*%
%LPD*%
G01*
G04 APERTURE LIST*
G04 #@! TA.AperFunction,ComponentPad*
%ADD10C,2.032000*%
G04 #@! TD*
G04 #@! TA.AperFunction,ComponentPad*
%ADD11C,1.879600*%
G04 #@! TD*
G04 #@! TA.AperFunction,ComponentPad*
%ADD12R,1.879600X1.879600*%
G04 #@! TD*
G04 #@! TA.AperFunction,ComponentPad*
%ADD13C,1.440000*%
G04 #@! TD*
G04 #@! TA.AperFunction,ComponentPad*
%ADD14R,2.032000X2.032000*%
G04 #@! TD*
G04 #@! TA.AperFunction,SMDPad,CuDef*
%ADD15R,1.200000X0.900000*%
G04 #@! TD*
G04 #@! TA.AperFunction,Conductor*
%ADD16C,1.778000*%
G04 #@! TD*
G04 #@! TA.AperFunction,Conductor*
%ADD17C,0.762000*%
G04 #@! TD*
G04 #@! TA.AperFunction,Conductor*
%ADD18C,1.905000*%
G04 #@! TD*
G04 APERTURE END LIST*
D10*
X200291700Y-53340000D03*
X203791820Y-53340000D03*
X207291940Y-53340000D03*
X210792060Y-53340000D03*
X214292180Y-53340000D03*
X217792300Y-53340000D03*
X221292420Y-53340000D03*
X224790000Y-53340000D03*
D11*
X165100000Y-144780000D03*
X167640000Y-144780000D03*
X170180000Y-144780000D03*
X172720000Y-144780000D03*
X162560000Y-144780000D03*
X160020000Y-144780000D03*
X157480000Y-144780000D03*
X175260000Y-144780000D03*
X177800000Y-144780000D03*
X180340000Y-144780000D03*
X182880000Y-144780000D03*
X182880000Y-129540000D03*
X180340000Y-129540000D03*
X177800000Y-129540000D03*
X175260000Y-129540000D03*
X172720000Y-129540000D03*
X170180000Y-129540000D03*
X167640000Y-129540000D03*
X165100000Y-129540000D03*
X154940000Y-144780000D03*
X152400000Y-144780000D03*
X149860000Y-144780000D03*
X147320000Y-144780000D03*
X144780000Y-144780000D03*
X142240000Y-144780000D03*
X139700000Y-144780000D03*
X137160000Y-144780000D03*
X134620000Y-144780000D03*
X132080000Y-144780000D03*
X129540000Y-144780000D03*
X127000000Y-144780000D03*
D12*
X124460000Y-144780000D03*
D11*
X162560000Y-129540000D03*
X160020000Y-129540000D03*
X157480000Y-129540000D03*
X154940000Y-129540000D03*
X152400000Y-129540000D03*
X149860000Y-129540000D03*
X147320000Y-129540000D03*
X144780000Y-129540000D03*
X142240000Y-129540000D03*
X139700000Y-129540000D03*
X137160000Y-129540000D03*
X134620000Y-129540000D03*
X132080000Y-129540000D03*
X129540000Y-129540000D03*
X127000000Y-129540000D03*
X124460000Y-129540000D03*
X134620000Y-132080000D03*
X137160000Y-132080000D03*
D13*
X86360000Y-67310000D03*
X86360000Y-64770000D03*
X86360000Y-62230000D03*
X99060000Y-67310000D03*
X99060000Y-64770000D03*
X99060000Y-62230000D03*
X160020000Y-67310000D03*
X160020000Y-64770000D03*
X160020000Y-62230000D03*
X152400000Y-67310000D03*
X152400000Y-64770000D03*
X152400000Y-62230000D03*
X144780000Y-67310000D03*
X144780000Y-64770000D03*
X144780000Y-62230000D03*
X137160000Y-67310000D03*
X137160000Y-64770000D03*
X137160000Y-62230000D03*
X129540000Y-67310000D03*
X129540000Y-64770000D03*
X129540000Y-62230000D03*
X121920000Y-67310000D03*
X121920000Y-64770000D03*
X121920000Y-62230000D03*
X114300000Y-67310000D03*
X114300000Y-64770000D03*
X114300000Y-62230000D03*
X106680000Y-67310000D03*
X106680000Y-64770000D03*
X106680000Y-62230000D03*
X220980000Y-67310000D03*
X220980000Y-64770000D03*
X220980000Y-62230000D03*
X213360000Y-67310000D03*
X213360000Y-64770000D03*
X213360000Y-62230000D03*
X205740000Y-67310000D03*
X205740000Y-64770000D03*
X205740000Y-62230000D03*
X198120000Y-67310000D03*
X198120000Y-64770000D03*
X198120000Y-62230000D03*
X190500000Y-67310000D03*
X190500000Y-64770000D03*
X190500000Y-62230000D03*
X182880000Y-67310000D03*
X182880000Y-64770000D03*
X182880000Y-62230000D03*
X175260000Y-67310000D03*
X175260000Y-64770000D03*
X175260000Y-62230000D03*
D11*
X129540000Y-95250000D03*
X129540000Y-87630000D03*
X121920000Y-95250000D03*
X121920000Y-87630000D03*
X114300000Y-95250000D03*
X114300000Y-87630000D03*
X106680000Y-95250000D03*
X106680000Y-87630000D03*
X137160000Y-95250000D03*
X137160000Y-87630000D03*
X144780000Y-95250000D03*
X144780000Y-87630000D03*
X152400000Y-95250000D03*
X152400000Y-87630000D03*
X160020000Y-95250000D03*
X160020000Y-87630000D03*
X167640000Y-95250000D03*
X167640000Y-87630000D03*
X175260000Y-95250000D03*
X175260000Y-87630000D03*
X182880000Y-95250000D03*
X182880000Y-87630000D03*
X190500000Y-95250000D03*
X190500000Y-87630000D03*
X198120000Y-95250000D03*
X198120000Y-87630000D03*
X205740000Y-95250000D03*
X205740000Y-87630000D03*
X213360000Y-95250000D03*
X213360000Y-87630000D03*
X220980000Y-95250000D03*
X220980000Y-87630000D03*
X81307534Y-87630000D03*
X81307534Y-95250000D03*
X86351574Y-95250000D03*
X86351574Y-87630000D03*
X99060000Y-87630000D03*
X99060000Y-95250000D03*
X93980000Y-95250000D03*
X93980000Y-87630000D03*
X76241012Y-95250000D03*
X76241012Y-87630000D03*
X71161012Y-87630000D03*
X71161012Y-95250000D03*
X160020000Y-82550000D03*
X160020000Y-74930000D03*
X144780000Y-82550000D03*
X144780000Y-74930000D03*
X129540000Y-82550000D03*
X129540000Y-74930000D03*
X114300000Y-82550000D03*
X114300000Y-74930000D03*
X220980000Y-82550000D03*
X220980000Y-74930000D03*
X205740000Y-82550000D03*
X205740000Y-74930000D03*
X190500000Y-82550000D03*
X190500000Y-74930000D03*
X175260000Y-82550000D03*
X175260000Y-74930000D03*
X152400000Y-82550000D03*
X152400000Y-74930000D03*
X137160000Y-82550000D03*
X137160000Y-74930000D03*
X121920000Y-82550000D03*
X121920000Y-74930000D03*
X106680000Y-82550000D03*
X106680000Y-74930000D03*
X213360000Y-82550000D03*
X213360000Y-74930000D03*
X198120000Y-82550000D03*
X198120000Y-74930000D03*
X182880000Y-82550000D03*
X182880000Y-74930000D03*
X167640000Y-82550000D03*
X167640000Y-74930000D03*
D10*
X86360000Y-53340000D03*
D14*
X82862420Y-53340000D03*
D10*
X99044923Y-53340000D03*
D14*
X95547343Y-53340000D03*
D10*
X139331700Y-53340000D03*
X142831820Y-53340000D03*
X146331940Y-53340000D03*
X149832060Y-53340000D03*
X153332180Y-53340000D03*
X156832300Y-53340000D03*
X160332420Y-53340000D03*
X163830000Y-53340000D03*
X108851700Y-53340000D03*
X112351820Y-53340000D03*
X115851940Y-53340000D03*
X119352060Y-53340000D03*
X122852180Y-53340000D03*
X126352300Y-53340000D03*
X129852420Y-53340000D03*
X133350000Y-53340000D03*
X169811700Y-53340000D03*
X173311820Y-53340000D03*
X176811940Y-53340000D03*
X180312060Y-53340000D03*
X183812180Y-53340000D03*
X187312300Y-53340000D03*
X190812420Y-53340000D03*
X194310000Y-53340000D03*
D15*
X137160000Y-137159645D03*
X137160000Y-140459645D03*
X90170000Y-92330000D03*
X90170000Y-95630000D03*
X120650000Y-129920000D03*
X120650000Y-126620000D03*
X102870000Y-92330000D03*
X102870000Y-95630000D03*
X144780000Y-137159645D03*
X144780000Y-140459645D03*
X133350000Y-92330000D03*
X133350000Y-95630000D03*
X142240000Y-137159645D03*
X142240000Y-140459645D03*
X125730000Y-92330000D03*
X125730000Y-95630000D03*
X139700000Y-137159645D03*
X139700000Y-140459645D03*
X118110000Y-92330000D03*
X118110000Y-95630000D03*
X129540000Y-122810000D03*
X129540000Y-126110000D03*
X110490000Y-92330000D03*
X110490000Y-95630000D03*
X147320000Y-137159645D03*
X147320000Y-140459645D03*
X140970000Y-92330000D03*
X140970000Y-95630000D03*
X149860000Y-137159645D03*
X149860000Y-140459645D03*
X148590000Y-92330000D03*
X148590000Y-95630000D03*
X152400000Y-137159645D03*
X152400000Y-140459645D03*
X156210000Y-92330000D03*
X156210000Y-95630000D03*
X154940000Y-137173375D03*
X154940000Y-140473375D03*
X163830000Y-92330000D03*
X163830000Y-95630000D03*
X162560000Y-134240000D03*
X162560000Y-137540000D03*
X171450000Y-92330000D03*
X171450000Y-95630000D03*
X167640000Y-134240000D03*
X167640000Y-137540000D03*
X179070000Y-92330000D03*
X179070000Y-95630000D03*
X170180000Y-134240000D03*
X170180000Y-137540000D03*
X186690000Y-92330000D03*
X186690000Y-95630000D03*
X172720000Y-134240000D03*
X172720000Y-137540000D03*
X194310000Y-92330000D03*
X194310000Y-95630000D03*
X175260000Y-134240000D03*
X175260000Y-137540000D03*
X201930000Y-92330000D03*
X201930000Y-95630000D03*
X177800000Y-134240000D03*
X177800000Y-137540000D03*
X209550000Y-92330000D03*
X209550000Y-95630000D03*
X182880000Y-141350000D03*
X182880000Y-138050000D03*
X217170000Y-92330000D03*
X217170000Y-95630000D03*
X180340000Y-141350000D03*
X180340000Y-138050000D03*
X224790000Y-92330000D03*
X224790000Y-95630000D03*
D13*
X167640000Y-67310000D03*
X167640000Y-64770000D03*
X167640000Y-62230000D03*
D16*
X82862420Y-53340000D02*
X81280000Y-62230000D01*
X81280000Y-62230000D02*
X81280000Y-87602466D01*
X95547343Y-53340000D02*
X93980000Y-62230000D01*
X93980000Y-62230000D02*
X93980000Y-87630000D01*
X122852180Y-53340000D02*
X121920000Y-62230000D01*
X115851940Y-51903160D02*
X116980501Y-50774599D01*
X120624599Y-50774599D02*
X121920000Y-52070000D01*
X115851940Y-53340000D02*
X115851940Y-51903160D01*
X116980501Y-50774599D02*
X120624599Y-50774599D01*
X121920000Y-52070000D02*
X122852180Y-53340000D01*
X108851700Y-51903160D02*
X109980261Y-50774599D01*
X109980261Y-50774599D02*
X114563906Y-50774599D01*
X108851700Y-53340000D02*
X108851700Y-51903160D01*
X114563906Y-50774599D02*
X115851940Y-52062633D01*
X115851940Y-52062633D02*
X115851940Y-53043326D01*
X208420501Y-50774599D02*
X213334599Y-50774599D01*
X207291940Y-51903160D02*
X208420501Y-50774599D01*
X213334599Y-50774599D02*
X214292180Y-51732180D01*
X214292180Y-51732180D02*
X214292180Y-53002180D01*
X184940741Y-50774599D02*
X189204599Y-50774599D01*
X190500000Y-52070000D02*
X190812420Y-53043326D01*
X183812180Y-51903160D02*
X184940741Y-50774599D01*
X189204599Y-50774599D02*
X190500000Y-52070000D01*
X190812420Y-51903160D02*
X191940981Y-50774599D01*
X190812420Y-53340000D02*
X190812420Y-51903160D01*
X191940981Y-50774599D02*
X199364599Y-50774599D01*
X199364599Y-50774599D02*
X200291700Y-51701700D01*
X200291700Y-51701700D02*
X200291700Y-53340000D01*
X161460981Y-50774599D02*
X168884599Y-50774599D01*
X160332420Y-51903160D02*
X161460981Y-50774599D01*
X168884599Y-50774599D02*
X169811700Y-51701700D01*
X169811700Y-51701700D02*
X169811700Y-53340000D01*
X129852420Y-51903160D02*
X130980981Y-50774599D01*
X129852420Y-53340000D02*
X129852420Y-51903160D01*
X130980981Y-50774599D02*
X138404599Y-50774599D01*
X138404599Y-50774599D02*
X139331700Y-51701700D01*
X139331700Y-51701700D02*
X139331700Y-53340000D01*
X139331700Y-51903160D02*
X140460261Y-50774599D01*
X139331700Y-53340000D02*
X139331700Y-51903160D01*
X145043906Y-50774599D02*
X146331940Y-52062633D01*
X140460261Y-50774599D02*
X145043906Y-50774599D01*
X146331940Y-52062633D02*
X146331940Y-53043326D01*
D17*
X137160000Y-140459645D02*
X133350000Y-140459645D01*
D16*
X112519645Y-140459645D02*
X71120000Y-99060000D01*
X133350000Y-140459645D02*
X112519645Y-140459645D01*
X71120000Y-99060000D02*
X71120000Y-95250000D01*
X153332180Y-53340000D02*
X152400000Y-62230000D01*
D18*
X144780000Y-62230000D02*
X146050000Y-53621940D01*
D16*
X140970000Y-62230000D02*
X140970000Y-76200000D01*
X142831820Y-53340000D02*
X140970000Y-62230000D01*
X140970000Y-76200000D02*
X137160000Y-82550000D01*
X186690000Y-62230000D02*
X186690000Y-76200000D01*
X187312300Y-53340000D02*
X186690000Y-62230000D01*
X186690000Y-76200000D02*
X182880000Y-82550000D01*
X175260000Y-62230000D02*
X176811940Y-53340000D01*
X167640000Y-62230000D02*
X169811700Y-53340000D01*
X148590000Y-62230000D02*
X148590000Y-76200000D01*
X149832060Y-53340000D02*
X148590000Y-62230000D01*
X148590000Y-76200000D02*
X144780000Y-82550000D01*
X137160000Y-62230000D02*
X139331700Y-53708300D01*
X106680000Y-62230000D02*
X108851700Y-53340000D01*
X114300000Y-62230000D02*
X115570000Y-53621940D01*
X125730000Y-76200000D02*
X125730000Y-62230000D01*
X121920000Y-82550000D02*
X125730000Y-76200000D01*
X125730000Y-62230000D02*
X126352300Y-53340000D01*
X110490000Y-76200000D02*
X110490000Y-62230000D01*
X106680000Y-82550000D02*
X110490000Y-76200000D01*
X110490000Y-62230000D02*
X112351820Y-53340000D01*
X118110000Y-62230000D02*
X118110000Y-76200000D01*
X119352060Y-53340000D02*
X118110000Y-62230000D01*
X118110000Y-76200000D02*
X114300000Y-82550000D01*
X129540000Y-82550000D02*
X133350000Y-76200000D01*
X133350000Y-76200000D02*
X133350000Y-53340000D01*
X152400000Y-82550000D02*
X156210000Y-76200000D01*
X156210000Y-76200000D02*
X156210000Y-53962300D01*
X160020000Y-82550000D02*
X163830000Y-76200000D01*
X163830000Y-76200000D02*
X163830000Y-53340000D01*
X171450000Y-76200000D02*
X171450000Y-62230000D01*
X167640000Y-82550000D02*
X171450000Y-76200000D01*
X171450000Y-62230000D02*
X173311820Y-53340000D01*
X179070000Y-76200000D02*
X179070000Y-62230000D01*
X175260000Y-82550000D02*
X179070000Y-76200000D01*
X179070000Y-62230000D02*
X180340000Y-53340000D01*
X190500000Y-82550000D02*
X194310000Y-76200000D01*
X194310000Y-76200000D02*
X194310000Y-53340000D01*
X220980000Y-82550000D02*
X224790000Y-76200000D01*
X224790000Y-76200000D02*
X224790000Y-53340000D01*
X217170000Y-62230000D02*
X217170000Y-76200000D01*
X217170000Y-76200000D02*
X213360000Y-82550000D01*
X217792300Y-53340000D02*
X217170000Y-62230000D01*
X209550000Y-76200000D02*
X209550000Y-62230000D01*
X205740000Y-82550000D02*
X209550000Y-76200000D01*
X209550000Y-62230000D02*
X210820000Y-53340000D01*
X201930000Y-76200000D02*
X201930000Y-62230000D01*
X198120000Y-82550000D02*
X201930000Y-76200000D01*
X201930000Y-62230000D02*
X203756003Y-53357908D01*
X221292420Y-53340000D02*
X220980000Y-60960000D01*
X220980000Y-60960000D02*
X220980000Y-62230000D01*
X214292180Y-53340000D02*
X213360000Y-62230000D01*
X205740000Y-62230000D02*
X207291940Y-53340000D01*
X198120000Y-62230000D02*
X200291700Y-53340000D01*
X160020000Y-62230000D02*
X160347163Y-53374340D01*
X190500000Y-62230000D02*
X190790958Y-53320615D01*
X182880000Y-62230000D02*
X183806793Y-53284799D01*
X86360000Y-51903160D02*
X83986840Y-49530000D01*
X86360000Y-53340000D02*
X86360000Y-51903160D01*
X83986840Y-49530000D02*
X80010000Y-49530000D01*
X80010000Y-49530000D02*
X76200000Y-53340000D01*
X90170000Y-49530000D02*
X96671763Y-49530000D01*
X96671763Y-49530000D02*
X99044923Y-51903160D01*
X86360000Y-53340000D02*
X90170000Y-49530000D01*
X99044923Y-51903160D02*
X99044923Y-53340000D01*
X214292180Y-53340000D02*
X214292180Y-51903160D01*
X221292420Y-51903160D02*
X221292420Y-53340000D01*
X214292180Y-51903160D02*
X215420741Y-50774599D01*
X215420741Y-50774599D02*
X220163859Y-50774599D01*
X220163859Y-50774599D02*
X221292420Y-51903160D01*
X207291940Y-53340000D02*
X207291940Y-51903160D01*
X200291700Y-53340000D02*
X200291700Y-51903160D01*
X200291700Y-51903160D02*
X201420261Y-50774599D01*
X201420261Y-50774599D02*
X206163379Y-50774599D01*
X206163379Y-50774599D02*
X207291940Y-51903160D01*
X183812180Y-53340000D02*
X183812180Y-51903160D01*
X176811940Y-53340000D02*
X176811940Y-51903160D01*
X176811940Y-51903160D02*
X177940501Y-50774599D01*
X177940501Y-50774599D02*
X182683619Y-50774599D01*
X182683619Y-50774599D02*
X183812180Y-51903160D01*
X169811700Y-53340000D02*
X169811700Y-51903160D01*
X169811700Y-51903160D02*
X170940261Y-50774599D01*
X170940261Y-50774599D02*
X175683379Y-50774599D01*
X175683379Y-50774599D02*
X176811940Y-51903160D01*
X160332420Y-53340000D02*
X160332420Y-51903160D01*
X153332180Y-53340000D02*
X153332180Y-51903160D01*
X153332180Y-51903160D02*
X154460741Y-50774599D01*
X159203859Y-50774599D02*
X160332420Y-51903160D01*
X154460741Y-50774599D02*
X159203859Y-50774599D01*
X146331940Y-53340000D02*
X146331940Y-51903160D01*
X146331940Y-51903160D02*
X147460501Y-50774599D01*
X147460501Y-50774599D02*
X152203619Y-50774599D01*
X152203619Y-50774599D02*
X153332180Y-51903160D01*
X122852180Y-53340000D02*
X122852180Y-51903160D01*
X122852180Y-51903160D02*
X123980741Y-50774599D01*
X123980741Y-50774599D02*
X127583693Y-50774599D01*
X127583693Y-50774599D02*
X129852420Y-53043326D01*
D17*
X213738083Y-95628083D02*
X217168083Y-95628083D01*
X221358083Y-95628083D02*
X224788083Y-95628083D01*
X122288370Y-95618370D02*
X125718370Y-95618370D01*
X114698573Y-95648573D02*
X118091427Y-95648573D01*
X107048370Y-95618370D02*
X110478370Y-95618370D01*
X154940000Y-140473375D02*
X160020000Y-140473375D01*
X86740000Y-95630000D02*
X90170000Y-95630000D01*
X102870000Y-95630000D02*
X99440000Y-95630000D01*
D18*
X93980000Y-95250000D02*
X99060000Y-95250000D01*
D16*
X106680000Y-96520000D02*
X132080000Y-121920000D01*
X106680000Y-95250000D02*
X106680000Y-96520000D01*
X132080000Y-121920000D02*
X132080000Y-123190000D01*
X114300000Y-96520000D02*
X139700000Y-121920000D01*
X114300000Y-95250000D02*
X114300000Y-96520000D01*
X139700000Y-121920000D02*
X139700000Y-129540000D01*
X121920000Y-96361250D02*
X142240000Y-116681250D01*
X121920000Y-95250000D02*
X121920000Y-96361250D01*
X142240000Y-116681250D02*
X142240000Y-129540000D01*
X129540000Y-96520000D02*
X144780000Y-111760000D01*
X129540000Y-95250000D02*
X129540000Y-96520000D01*
X144780000Y-111760000D02*
X144780000Y-129540000D01*
X137160000Y-96520000D02*
X147320000Y-106680000D01*
X137160000Y-95250000D02*
X137160000Y-96520000D01*
X147320000Y-106680000D02*
X147320000Y-129540000D01*
X182880000Y-96520000D02*
X170180000Y-109220000D01*
X182880000Y-95250000D02*
X182880000Y-96520000D01*
X170180000Y-109220000D02*
X170180000Y-129540000D01*
X190500000Y-96520000D02*
X172720000Y-114300000D01*
X190500000Y-95250000D02*
X190500000Y-96520000D01*
X172720000Y-114300000D02*
X172720000Y-129540000D01*
X198120000Y-96520000D02*
X175260000Y-119380000D01*
X175260000Y-119380000D02*
X175260000Y-129540000D01*
X198120000Y-95250000D02*
X198120000Y-96520000D01*
X205740000Y-96520000D02*
X177800000Y-124460000D01*
X205740000Y-95250000D02*
X205740000Y-96520000D01*
X177800000Y-124460000D02*
X177800000Y-129540000D01*
X167640000Y-96361250D02*
X162560000Y-101441250D01*
X167640000Y-95250000D02*
X167640000Y-96361250D01*
X162560000Y-101441250D02*
X162560000Y-129540000D01*
X175260000Y-96520000D02*
X167640000Y-104140000D01*
X175260000Y-95250000D02*
X175260000Y-96520000D01*
X167640000Y-104140000D02*
X167640000Y-129540000D01*
X149860000Y-101600000D02*
X144780000Y-96520000D01*
X149860000Y-129540000D02*
X149860000Y-101600000D01*
X144780000Y-96520000D02*
X144780000Y-95250000D01*
X154940000Y-101600000D02*
X160020000Y-96520000D01*
X154940000Y-129540000D02*
X154940000Y-101600000D01*
X160020000Y-96520000D02*
X160020000Y-95250000D01*
X76200000Y-53340000D02*
X76241012Y-87630000D01*
X99044923Y-53340000D02*
X108851700Y-53340000D01*
X86360000Y-62230000D02*
X86360000Y-53340000D01*
X99060000Y-62230000D02*
X99060000Y-53355077D01*
X129540000Y-62230000D02*
X129540000Y-53652420D01*
D17*
X129540000Y-129540000D02*
X129540000Y-126110000D01*
X120650000Y-126620000D02*
X129030000Y-126620000D01*
X129030000Y-126620000D02*
X129540000Y-126110000D01*
D16*
X119380000Y-132080000D02*
X120650000Y-133350000D01*
X99060000Y-111760000D02*
X119380000Y-132080000D01*
D17*
X120650000Y-129920000D02*
X120650000Y-130810000D01*
X120650000Y-130810000D02*
X119380000Y-132080000D01*
D16*
X132080000Y-123190000D02*
X132080000Y-129540000D01*
D17*
X129540000Y-122810000D02*
X131700000Y-122810000D01*
X131700000Y-122810000D02*
X132080000Y-123190000D01*
D16*
X109220000Y-144780000D02*
X67041478Y-102601478D01*
X73660000Y-92710000D02*
X76200000Y-95250000D01*
X124460000Y-144780000D02*
X109220000Y-144780000D01*
X67041478Y-102601478D02*
X67041478Y-95518522D01*
X67041478Y-95518522D02*
X69850000Y-92710000D01*
X69850000Y-92710000D02*
X73660000Y-92710000D01*
X86360000Y-106680000D02*
X116380521Y-136700521D01*
X116380521Y-136700521D02*
X133670849Y-136700521D01*
X86360000Y-95250000D02*
X86360000Y-106680000D01*
X133670849Y-136700521D02*
X137160000Y-133211370D01*
X137160000Y-133211370D02*
X137160000Y-132080000D01*
D17*
X90170000Y-92330000D02*
X79161012Y-92330000D01*
X79161012Y-92330000D02*
X76241012Y-95250000D01*
X102870000Y-92330000D02*
X90170000Y-92330000D01*
D16*
X86360000Y-64770000D02*
X86360000Y-62230000D01*
D18*
X76241012Y-87630000D02*
X71161012Y-87630000D01*
D16*
X81307534Y-95250000D02*
X86466012Y-95250000D01*
X86401012Y-67310000D02*
X86401012Y-87630000D01*
X220980000Y-114300000D02*
X187960000Y-147320000D01*
X220980000Y-95250000D02*
X220980000Y-114300000D01*
X187960000Y-147320000D02*
X181748630Y-147320000D01*
X180340000Y-145911370D02*
X180340000Y-144780000D01*
X181748630Y-147320000D02*
X180340000Y-145911370D01*
D17*
X139700000Y-140459645D02*
X137160000Y-140459645D01*
X142240000Y-140459645D02*
X139700000Y-140459645D01*
X144780000Y-140459645D02*
X142240000Y-140459645D01*
X147320000Y-140459645D02*
X144780000Y-140459645D01*
X149860000Y-140459645D02*
X147320000Y-140459645D01*
X152400000Y-140459645D02*
X149860000Y-140459645D01*
X152400000Y-140459645D02*
X154926270Y-140459645D01*
X162560000Y-137540000D02*
X160020000Y-140080000D01*
D16*
X160020000Y-140080000D02*
X160020000Y-144780000D01*
D17*
X167640000Y-137540000D02*
X162560000Y-137540000D01*
X170180000Y-137540000D02*
X167640000Y-137540000D01*
X172720000Y-137540000D02*
X170180000Y-137540000D01*
X172720000Y-137540000D02*
X175260000Y-137540000D01*
X177800000Y-137540000D02*
X175260000Y-137540000D01*
X180340000Y-138050000D02*
X178310000Y-138050000D01*
X178310000Y-138050000D02*
X177800000Y-137540000D01*
X180340000Y-138050000D02*
X182880000Y-138050000D01*
X182880000Y-141350000D02*
X182880000Y-144780000D01*
X180340000Y-141350000D02*
X180340000Y-144780000D01*
X177800000Y-129540000D02*
X177800000Y-134240000D01*
X175260000Y-129540000D02*
X175260000Y-134240000D01*
X172720000Y-129540000D02*
X172720000Y-134240000D01*
X170180000Y-129540000D02*
X170180000Y-134240000D01*
X167640000Y-129540000D02*
X167640000Y-134240000D01*
X162560000Y-129540000D02*
X162560000Y-134240000D01*
X154940000Y-129540000D02*
X154940000Y-137173375D01*
X152400000Y-129540000D02*
X152400000Y-137159645D01*
X149860000Y-129540000D02*
X149860000Y-137159645D01*
X147320000Y-129540000D02*
X147320000Y-137159645D01*
X144780000Y-129540000D02*
X144780000Y-137159645D01*
X142240000Y-129540000D02*
X142240000Y-137159645D01*
X139700000Y-129540000D02*
X139700000Y-137159645D01*
X137139938Y-137159645D02*
X137139938Y-132100062D01*
D16*
X120650000Y-133350000D02*
X133350000Y-133350000D01*
X133350000Y-133350000D02*
X134620000Y-132080000D01*
X99060000Y-95250000D02*
X99060000Y-111760000D01*
D17*
X102870000Y-92330000D02*
X110490000Y-92330000D01*
X137160000Y-95250000D02*
X140590000Y-95250000D01*
D16*
X152400000Y-129540000D02*
X152400000Y-95250000D01*
X213360000Y-95250000D02*
X213360000Y-114300000D01*
X213360000Y-114300000D02*
X182880000Y-144780000D01*
D18*
X99060000Y-87630000D02*
X99060000Y-67310000D01*
D16*
X99060000Y-62230000D02*
X99060000Y-64770000D01*
X134620000Y-132080000D02*
X134620000Y-129540000D01*
X137160000Y-132080000D02*
X137160000Y-129540000D01*
D17*
X118110000Y-92330000D02*
X110490000Y-92330000D01*
X125730000Y-92330000D02*
X118110000Y-92330000D01*
X133350000Y-92330000D02*
X125730000Y-92330000D01*
X140970000Y-92330000D02*
X133350000Y-92330000D01*
X148590000Y-92330000D02*
X140970000Y-92330000D01*
X156210000Y-92330000D02*
X148590000Y-92330000D01*
X163830000Y-92330000D02*
X156210000Y-92330000D01*
X171450000Y-92330000D02*
X163830000Y-92330000D01*
X179070000Y-92330000D02*
X171450000Y-92330000D01*
X186690000Y-92330000D02*
X179070000Y-92330000D01*
X194310000Y-92330000D02*
X186690000Y-92330000D01*
X201930000Y-92330000D02*
X194310000Y-92330000D01*
X209550000Y-92330000D02*
X201930000Y-92330000D01*
X217170000Y-92330000D02*
X209550000Y-92330000D01*
X224790000Y-92330000D02*
X217170000Y-92330000D01*
X205740000Y-95250000D02*
X209170000Y-95250000D01*
X198120000Y-95250000D02*
X201550000Y-95250000D01*
X190500000Y-95250000D02*
X193930000Y-95250000D01*
X182880000Y-95250000D02*
X186310000Y-95250000D01*
X175260000Y-95250000D02*
X178690000Y-95250000D01*
X167640000Y-95250000D02*
X171070000Y-95250000D01*
X160020000Y-95250000D02*
X163450000Y-95250000D01*
X152400000Y-95250000D02*
X155830000Y-95250000D01*
X144780000Y-95250000D02*
X148210000Y-95250000D01*
X129540000Y-95250000D02*
X132970000Y-95250000D01*
D18*
X106680000Y-82550000D02*
X106680000Y-87630000D01*
X114300000Y-82550000D02*
X114300000Y-87630000D01*
X121920000Y-82550000D02*
X121920000Y-87630000D01*
X129540000Y-82550000D02*
X129540000Y-87630000D01*
X137160000Y-82550000D02*
X137160000Y-87630000D01*
X144780000Y-82550000D02*
X144780000Y-87630000D01*
X152400000Y-82550000D02*
X152400000Y-87630000D01*
X160020000Y-82550000D02*
X160020000Y-87630000D01*
X167640000Y-82550000D02*
X167640000Y-87630000D01*
X175260000Y-82550000D02*
X175260000Y-87630000D01*
X182880000Y-82550000D02*
X182880000Y-87630000D01*
D16*
X190500000Y-82550000D02*
X190500000Y-87630000D01*
X198120000Y-82550000D02*
X198120000Y-87630000D01*
X205740000Y-82550000D02*
X205740000Y-87630000D01*
X213360000Y-82550000D02*
X213360000Y-87630000D01*
X220980000Y-82550000D02*
X220980000Y-87630000D01*
X106680000Y-67310000D02*
X106680000Y-74930000D01*
X114300000Y-67310000D02*
X114300000Y-74930000D01*
X121920000Y-67310000D02*
X121920000Y-74930000D01*
X129540000Y-67310000D02*
X129540000Y-74930000D01*
X137160000Y-67310000D02*
X137160000Y-74930000D01*
X144780000Y-67310000D02*
X144780000Y-74930000D01*
X152400000Y-67310000D02*
X152400000Y-74930000D01*
X160020000Y-67310000D02*
X160020000Y-74930000D01*
X167640000Y-67310000D02*
X167640000Y-74930000D01*
X175260000Y-67310000D02*
X175260000Y-74930000D01*
X182880000Y-67310000D02*
X182880000Y-74930000D01*
X190500000Y-67310000D02*
X190500000Y-74930000D01*
X198120000Y-67310000D02*
X198120000Y-74930000D01*
X205740000Y-67310000D02*
X205740000Y-74930000D01*
X213360000Y-67310000D02*
X213360000Y-74930000D01*
X220980000Y-67310000D02*
X220980000Y-74930000D01*
X220980000Y-62230000D02*
X220980000Y-64770000D01*
X213360000Y-62230000D02*
X213360000Y-64770000D01*
X205740000Y-62230000D02*
X205740000Y-64770000D01*
X198120000Y-62230000D02*
X198120000Y-64770000D01*
X190500000Y-62230000D02*
X190500000Y-64770000D01*
X182880000Y-62230000D02*
X182880000Y-64770000D01*
X175260000Y-62230000D02*
X175260000Y-64770000D01*
X167640000Y-62230000D02*
X167640000Y-64770000D01*
X160020000Y-62230000D02*
X160020000Y-64770000D01*
D18*
X152400000Y-62230000D02*
X152400000Y-64770000D01*
X144780000Y-62230000D02*
X144780000Y-64770000D01*
X137160000Y-62230000D02*
X137160000Y-64770000D01*
X129540000Y-62230000D02*
X129540000Y-64770000D01*
X121920000Y-62230000D02*
X121920000Y-64770000D01*
X114300000Y-62230000D02*
X114300000Y-64770000D01*
X106680000Y-62230000D02*
X106680000Y-64770000D01*
M02*
