G04 #@! TF.GenerationSoftware,KiCad,Pcbnew,(5.99.0-2302-g1dc804232)*
G04 #@! TF.CreationDate,2020-07-18T18:01:11-07:00*
G04 #@! TF.ProjectId,teensy,7465656e-7379-42e6-9b69-6361645f7063,rev?*
G04 #@! TF.SameCoordinates,Original*
G04 #@! TF.FileFunction,Copper,L1,Top*
G04 #@! TF.FilePolarity,Positive*
%FSLAX46Y46*%
G04 Gerber Fmt 4.6, Leading zero omitted, Abs format (unit mm)*
G04 Created by KiCad (PCBNEW (5.99.0-2302-g1dc804232)) date 2020-07-18 18:01:11*
%MOMM*%
%LPD*%
G01*
G04 APERTURE LIST*
G04 #@! TA.AperFunction,Profile*
%ADD10C,0.100000*%
G04 #@! TD*
G04 #@! TA.AperFunction,ComponentPad*
%ADD11C,1.879600*%
G04 #@! TD*
G04 #@! TA.AperFunction,ComponentPad*
%ADD12C,1.600000*%
G04 #@! TD*
G04 #@! TA.AperFunction,ComponentPad*
%ADD13R,1.600000X1.600000*%
G04 #@! TD*
G04 APERTURE END LIST*
D10*
X76200000Y-67310000D02*
X222250000Y-146050000D01*
D11*
X107950000Y-93980000D03*
X107950000Y-101600000D03*
X110490000Y-101600000D03*
X110490000Y-93980000D03*
X115570000Y-93980000D03*
X115570000Y-101600000D03*
X113030000Y-101600000D03*
X113030000Y-93980000D03*
X115570000Y-90170000D03*
X113030000Y-90170000D03*
X110490000Y-90170000D03*
X107950000Y-90170000D03*
X102870000Y-101600000D03*
X102870000Y-93980000D03*
X97790000Y-93980000D03*
X97790000Y-101600000D03*
X156210000Y-101600000D03*
X156210000Y-93980000D03*
X146050000Y-101600000D03*
X146050000Y-93980000D03*
X135890000Y-101600000D03*
X135890000Y-93980000D03*
X125730000Y-101600000D03*
X125730000Y-93980000D03*
X199390000Y-101600000D03*
X199390000Y-93980000D03*
X189230000Y-101600000D03*
X189230000Y-93980000D03*
X179070000Y-101600000D03*
X179070000Y-93980000D03*
X168910000Y-101600000D03*
X168910000Y-93980000D03*
X151130000Y-101600000D03*
X151130000Y-93980000D03*
X140970000Y-101600000D03*
X140970000Y-93980000D03*
X130810000Y-101600000D03*
X130810000Y-93980000D03*
X120650000Y-101600000D03*
X120650000Y-93980000D03*
X194310000Y-101600000D03*
X194310000Y-93980000D03*
X184150000Y-101600000D03*
X184150000Y-93980000D03*
X173990000Y-101600000D03*
X173990000Y-93980000D03*
X120650000Y-90170000D03*
X123190000Y-90170000D03*
X125730000Y-90170000D03*
X128270000Y-90170000D03*
X130810000Y-90170000D03*
X133350000Y-90170000D03*
X135890000Y-90170000D03*
X138430000Y-90170000D03*
X140970000Y-90170000D03*
X143510000Y-90170000D03*
X146050000Y-90170000D03*
X148590000Y-90170000D03*
X151130000Y-90170000D03*
X153670000Y-90170000D03*
X156210000Y-90170000D03*
X158750000Y-90170000D03*
X163830000Y-101600000D03*
X163830000Y-93980000D03*
X163830000Y-90170000D03*
X166370000Y-90170000D03*
X168910000Y-90170000D03*
X171450000Y-90170000D03*
X173990000Y-90170000D03*
X176530000Y-90170000D03*
X179070000Y-90170000D03*
X181610000Y-90170000D03*
X184150000Y-90170000D03*
X186690000Y-90170000D03*
X189230000Y-90170000D03*
X191770000Y-90170000D03*
X194310000Y-90170000D03*
X196850000Y-90170000D03*
X199390000Y-90170000D03*
X201930000Y-90170000D03*
D12*
X140970000Y-121460000D03*
X138430000Y-121460000D03*
X135890000Y-121460000D03*
X133350000Y-121460000D03*
X130810000Y-121460000D03*
X137160000Y-111760000D03*
X134620000Y-111760000D03*
X132080000Y-111760000D03*
X127000000Y-111760000D03*
X124460000Y-109220000D03*
X127000000Y-109220000D03*
X129540000Y-109220000D03*
X132080000Y-109220000D03*
X134620000Y-109220000D03*
X137160000Y-109220000D03*
X139700000Y-109220000D03*
X142240000Y-109220000D03*
X144780000Y-109220000D03*
X147320000Y-109220000D03*
X149860000Y-109220000D03*
X152400000Y-109220000D03*
X154940000Y-109220000D03*
X157480000Y-109220000D03*
X160020000Y-109220000D03*
X162560000Y-109220000D03*
D13*
X124460000Y-124460000D03*
D12*
X127000000Y-124460000D03*
X129540000Y-124460000D03*
X132080000Y-124460000D03*
X134620000Y-124460000D03*
X137160000Y-124460000D03*
X139700000Y-124460000D03*
X142240000Y-124460000D03*
X144780000Y-124460000D03*
X147320000Y-124460000D03*
X149860000Y-124460000D03*
X152400000Y-124460000D03*
X154940000Y-124460000D03*
X165100000Y-109220000D03*
X167640000Y-109220000D03*
X170180000Y-109220000D03*
X172720000Y-109220000D03*
X175260000Y-109220000D03*
X177800000Y-109220000D03*
X180340000Y-109220000D03*
X182880000Y-109220000D03*
X170180000Y-111760000D03*
X170180000Y-114300000D03*
X170180000Y-116840000D03*
X170180000Y-119380000D03*
X170180000Y-121920000D03*
X182880000Y-124460000D03*
X180340000Y-124460000D03*
X177800000Y-124460000D03*
X175260000Y-124460000D03*
X157480000Y-124460000D03*
X160020000Y-124460000D03*
X162560000Y-124460000D03*
X172720000Y-124460000D03*
X170180000Y-124460000D03*
X167640000Y-124460000D03*
X165100000Y-124460000D03*
M02*
