M48
; DRILL file {KiCad (5.99.0-2302-g1dc804232)} date Sun Aug 23 10:25:24 2020
; FORMAT={-:-/ absolute / inch / decimal}
; #@! TF.CreationDate,2020-08-23T10:25:24-07:00
; #@! TF.GenerationSoftware,Kicad,Pcbnew,(5.99.0-2302-g1dc804232)
FMAT,2
INCH
T1C0.0315
T2C0.0354
T3C0.0400
T4C0.0433
%
G90
G05
T1
X6.1Y-4.15
X6.1Y-4.25
X6.1Y-4.35
X6.6Y-4.15
X6.6Y-4.25
X6.6Y-4.35
X7.9Y-4.15
X7.9Y-4.25
X7.9Y-4.35
X5.7Y-4.15
X5.7Y-4.25
X5.7Y-4.35
X4.6Y-4.15
X4.6Y-4.25
X4.6Y-4.35
X5.0Y-4.15
X5.0Y-4.25
X5.0Y-4.35
X4.3Y-4.15
X4.3Y-4.25
X4.3Y-4.35
X5.2Y-4.15
X5.2Y-4.25
X5.2Y-4.35
X7.5Y-4.15
X7.5Y-4.25
X7.5Y-4.35
X6.3Y-4.15
X6.3Y-4.25
X6.3Y-4.35
X5.4Y-4.15
X5.4Y-4.25
X5.4Y-4.35
X6.8Y-4.15
X6.8Y-4.25
X6.8Y-4.35
X5.9Y-4.15
X5.9Y-4.25
X5.9Y-4.35
X7.0Y-4.15
X7.0Y-4.25
X7.0Y-4.35
X7.2Y-4.15
X7.2Y-4.25
X7.2Y-4.35
X7.7Y-4.15
X7.7Y-4.25
X7.7Y-4.35
X8.1Y-4.15
X8.1Y-4.25
X8.1Y-4.35
X4.8Y-4.15
X4.8Y-4.25
X4.8Y-4.35
T2
X7.2Y-4.5
X7.2Y-4.8
X5.2Y-4.5
X5.2Y-4.8
X7.5Y-4.5
X7.5Y-4.8
X8.1Y-4.5
X8.1Y-4.8
X6.3Y-4.5
X6.3Y-4.8
X7.9Y-4.5
X7.9Y-4.8
X4.1Y-4.5
X4.1Y-4.8
X4.6Y-4.5
X4.6Y-4.8
X5.9Y-4.5
X5.9Y-4.8
X7.7Y-4.5
X7.7Y-4.8
X4.8Y-4.5
X4.8Y-4.8
X5.0Y-4.5
X5.0Y-4.8
X4.0005Y-4.5
X4.0005Y-4.8
X6.6Y-4.5
X6.6Y-4.8
X5.4Y-4.5
X5.4Y-4.8
X4.3Y-4.5
X4.3Y-4.8
X6.1Y-4.5
X6.1Y-4.8
X5.7Y-4.5
X5.7Y-4.8
X7.0Y-4.5
X7.0Y-4.8
X6.8Y-4.5
X6.8Y-4.8
T3
X4.5Y-3.9
X4.6Y-3.9
X7.5Y-3.9
X7.6Y-3.9
X7.7Y-3.9
X7.8Y-3.9
X7.9Y-3.9
X8.0Y-3.9
X8.1Y-3.9
X8.2Y-3.9
X4.8Y-3.9
X4.9Y-3.9
X5.0Y-3.9
X5.1Y-3.9
X5.2Y-3.9
X5.3Y-3.9
X5.4Y-3.9
X5.5Y-3.9
X4.2Y-3.9
X4.3Y-3.9
X5.7Y-3.9
X5.8Y-3.9
X5.9Y-3.9
X6.0Y-3.9
X6.1Y-3.9
X6.2Y-3.9
X6.3Y-3.9
X6.4Y-3.9
X6.6Y-3.9
X6.7Y-3.9
X6.8Y-3.9
X6.9Y-3.9
X7.0Y-3.9
X7.1Y-3.9
X7.2Y-3.9
X7.3Y-3.9
T4
X4.9Y-5.1
X4.9Y-5.7
X5.0Y-5.1
X5.0Y-5.7
X5.1Y-5.1
X5.1Y-5.7
X5.2Y-5.1
X5.2Y-5.7
X5.3Y-5.1
X5.3Y-5.2
X5.3Y-5.7
X5.4Y-5.1
X5.4Y-5.2
X5.4Y-5.7
X5.5Y-5.1
X5.5Y-5.7
X5.6Y-5.1
X5.6Y-5.7
X5.7Y-5.1
X5.7Y-5.7
X5.8Y-5.1
X5.8Y-5.7
X5.9Y-5.1
X5.9Y-5.7
X6.0Y-5.1
X6.0Y-5.7
X6.1Y-5.1
X6.1Y-5.7
X6.2Y-5.1
X6.2Y-5.7
X6.3Y-5.1
X6.3Y-5.7
X6.4Y-5.1
X6.4Y-5.7
X6.5Y-5.1
X6.5Y-5.7
X6.6Y-5.1
X6.6Y-5.7
X6.7Y-5.1
X6.7Y-5.7
X6.8Y-5.1
X6.8Y-5.7
X6.9Y-5.1
X6.9Y-5.7
X7.0Y-5.1
X7.0Y-5.7
X7.1Y-5.1
X7.1Y-5.7
X7.2Y-5.1
X7.2Y-5.7
T0
M30
