  0
SECTION
  2
HEADER
  9
$ANGBASE
  50
0.0
  9
$ANGDIR
  70
1
  9
$MEASUREMENT
  70
0
  0
ENDSEC
  0
SECTION
  2
TABLES
  0
TABLE
  2
LTYPE
  70
4
  0
LTYPE
  5
40F
  2
CONTINUOUS
  70
0
  3
Solid line
  72
65
  73
0
  40
0.0
  0
LTYPE
  5
410
  2
DASHDOT
 70
0
  3
Dash Dot ____ _ ____ _
 72
65
 73
4
 40
2.0
 49
1.25
 49
-0.25
 49
0.25
 49
-0.25
  0
LTYPE
  5
411
  2
DASHED
 70
0
  3
Dashed __ __ __ __ __
 72
65
 73
2
 40
0.75
 49
0.5
 49
-0.25
  0
LTYPE
  5
43B
  2
DOTTED
 70
0
  3
Dotted .  .  .  .
 72
65
 73
2
 40
0.2
 49
0.0
 49
-0.2
  0
ENDTAB
  0
TABLE
  2
STYLE
  70
4
  0
STYLE
  2
KICAD
  70
0
  40
0
  41
1
  42
1
  50
0
  71
0
  3
isocp.shx
  0
STYLE
  2
KICADB
  70
0
  40
0
  41
1
  42
1
  50
0
  71
0
  3
isocp.shx
  0
STYLE
  2
KICADI
  70
0
  40
0
  41
1
  42
1
  50
15
  71
0
  3
isocp.shx
  0
STYLE
  2
KICADBI
  70
0
  40
0
  41
1
  42
1
  50
15
  71
0
  3
isocp.shx
  0
ENDTAB
  0
TABLE
  2
LAYER
  70
1
  0
LAYER
  2
BLACK
  70
0
  62
7
  6
CONTINUOUS
  0
ENDTAB
  0
ENDSEC
  0
SECTION
  2
ENTITIES
0
LINE
8
BLACK
6
CONTINUOUS
10
1.5
20
-1
11
10
21
-7
0
LINE
8
BLACK
6
CONTINUOUS
10
6.58425
20
-2.43425
11
6.61575
21
-2.46575
0
LINE
8
BLACK
6
CONTINUOUS
10
6.61575
20
-2.43425
11
6.58425
21
-2.46575
0
LINE
8
BLACK
6
CONTINUOUS
10
6.58425
20
-2.53425
11
6.61575
21
-2.56575
0
LINE
8
BLACK
6
CONTINUOUS
10
6.61575
20
-2.53425
11
6.58425
21
-2.56575
0
LINE
8
BLACK
6
CONTINUOUS
10
6.58425
20
-2.63425
11
6.61575
21
-2.66575
0
LINE
8
BLACK
6
CONTINUOUS
10
6.61575
20
-2.63425
11
6.58425
21
-2.66575
0
LINE
8
BLACK
6
CONTINUOUS
10
5.98425
20
-2.43425
11
6.01575
21
-2.46575
0
LINE
8
BLACK
6
CONTINUOUS
10
6.01575
20
-2.43425
11
5.98425
21
-2.46575
0
LINE
8
BLACK
6
CONTINUOUS
10
5.98425
20
-2.53425
11
6.01575
21
-2.56575
0
LINE
8
BLACK
6
CONTINUOUS
10
6.01575
20
-2.53425
11
5.98425
21
-2.56575
0
LINE
8
BLACK
6
CONTINUOUS
10
5.98425
20
-2.63425
11
6.01575
21
-2.66575
0
LINE
8
BLACK
6
CONTINUOUS
10
6.01575
20
-2.63425
11
5.98425
21
-2.66575
0
LINE
8
BLACK
6
CONTINUOUS
10
3.38425
20
-2.43425
11
3.41575
21
-2.46575
0
LINE
8
BLACK
6
CONTINUOUS
10
3.41575
20
-2.43425
11
3.38425
21
-2.46575
0
LINE
8
BLACK
6
CONTINUOUS
10
3.38425
20
-2.53425
11
3.41575
21
-2.56575
0
LINE
8
BLACK
6
CONTINUOUS
10
3.41575
20
-2.53425
11
3.38425
21
-2.56575
0
LINE
8
BLACK
6
CONTINUOUS
10
3.38425
20
-2.63425
11
3.41575
21
-2.66575
0
LINE
8
BLACK
6
CONTINUOUS
10
3.41575
20
-2.63425
11
3.38425
21
-2.66575
0
LINE
8
BLACK
6
CONTINUOUS
10
5.68425
20
-2.43425
11
5.71575
21
-2.46575
0
LINE
8
BLACK
6
CONTINUOUS
10
5.71575
20
-2.43425
11
5.68425
21
-2.46575
0
LINE
8
BLACK
6
CONTINUOUS
10
5.68425
20
-2.53425
11
5.71575
21
-2.56575
0
LINE
8
BLACK
6
CONTINUOUS
10
5.71575
20
-2.53425
11
5.68425
21
-2.56575
0
LINE
8
BLACK
6
CONTINUOUS
10
5.68425
20
-2.63425
11
5.71575
21
-2.66575
0
LINE
8
BLACK
6
CONTINUOUS
10
5.71575
20
-2.63425
11
5.68425
21
-2.66575
0
LINE
8
BLACK
6
CONTINUOUS
10
4.48425
20
-2.43425
11
4.51575
21
-2.46575
0
LINE
8
BLACK
6
CONTINUOUS
10
4.51575
20
-2.43425
11
4.48425
21
-2.46575
0
LINE
8
BLACK
6
CONTINUOUS
10
4.48425
20
-2.53425
11
4.51575
21
-2.56575
0
LINE
8
BLACK
6
CONTINUOUS
10
4.51575
20
-2.53425
11
4.48425
21
-2.56575
0
LINE
8
BLACK
6
CONTINUOUS
10
4.48425
20
-2.63425
11
4.51575
21
-2.66575
0
LINE
8
BLACK
6
CONTINUOUS
10
4.51575
20
-2.63425
11
4.48425
21
-2.66575
0
LINE
8
BLACK
6
CONTINUOUS
10
3.88425
20
-2.43425
11
3.91575
21
-2.46575
0
LINE
8
BLACK
6
CONTINUOUS
10
3.91575
20
-2.43425
11
3.88425
21
-2.46575
0
LINE
8
BLACK
6
CONTINUOUS
10
3.88425
20
-2.53425
11
3.91575
21
-2.56575
0
LINE
8
BLACK
6
CONTINUOUS
10
3.91575
20
-2.53425
11
3.88425
21
-2.56575
0
LINE
8
BLACK
6
CONTINUOUS
10
3.88425
20
-2.63425
11
3.91575
21
-2.66575
0
LINE
8
BLACK
6
CONTINUOUS
10
3.91575
20
-2.63425
11
3.88425
21
-2.66575
0
LINE
8
BLACK
6
CONTINUOUS
10
5.38425
20
-2.43425
11
5.41575
21
-2.46575
0
LINE
8
BLACK
6
CONTINUOUS
10
5.41575
20
-2.43425
11
5.38425
21
-2.46575
0
LINE
8
BLACK
6
CONTINUOUS
10
5.38425
20
-2.53425
11
5.41575
21
-2.56575
0
LINE
8
BLACK
6
CONTINUOUS
10
5.41575
20
-2.53425
11
5.38425
21
-2.56575
0
LINE
8
BLACK
6
CONTINUOUS
10
5.38425
20
-2.63425
11
5.41575
21
-2.66575
0
LINE
8
BLACK
6
CONTINUOUS
10
5.41575
20
-2.63425
11
5.38425
21
-2.66575
0
LINE
8
BLACK
6
CONTINUOUS
10
8.38425
20
-2.43425
11
8.41575
21
-2.46575
0
LINE
8
BLACK
6
CONTINUOUS
10
8.41575
20
-2.43425
11
8.38425
21
-2.46575
0
LINE
8
BLACK
6
CONTINUOUS
10
8.38425
20
-2.53425
11
8.41575
21
-2.56575
0
LINE
8
BLACK
6
CONTINUOUS
10
8.41575
20
-2.53425
11
8.38425
21
-2.56575
0
LINE
8
BLACK
6
CONTINUOUS
10
8.38425
20
-2.63425
11
8.41575
21
-2.66575
0
LINE
8
BLACK
6
CONTINUOUS
10
8.41575
20
-2.63425
11
8.38425
21
-2.66575
0
LINE
8
BLACK
6
CONTINUOUS
10
7.78425
20
-2.43425
11
7.81575
21
-2.46575
0
LINE
8
BLACK
6
CONTINUOUS
10
7.81575
20
-2.43425
11
7.78425
21
-2.46575
0
LINE
8
BLACK
6
CONTINUOUS
10
7.78425
20
-2.53425
11
7.81575
21
-2.56575
0
LINE
8
BLACK
6
CONTINUOUS
10
7.81575
20
-2.53425
11
7.78425
21
-2.56575
0
LINE
8
BLACK
6
CONTINUOUS
10
7.78425
20
-2.63425
11
7.81575
21
-2.66575
0
LINE
8
BLACK
6
CONTINUOUS
10
7.81575
20
-2.63425
11
7.78425
21
-2.66575
0
LINE
8
BLACK
6
CONTINUOUS
10
7.18425
20
-2.43425
11
7.21575
21
-2.46575
0
LINE
8
BLACK
6
CONTINUOUS
10
7.21575
20
-2.43425
11
7.18425
21
-2.46575
0
LINE
8
BLACK
6
CONTINUOUS
10
7.18425
20
-2.53425
11
7.21575
21
-2.56575
0
LINE
8
BLACK
6
CONTINUOUS
10
7.21575
20
-2.53425
11
7.18425
21
-2.56575
0
LINE
8
BLACK
6
CONTINUOUS
10
7.18425
20
-2.63425
11
7.21575
21
-2.66575
0
LINE
8
BLACK
6
CONTINUOUS
10
7.21575
20
-2.63425
11
7.18425
21
-2.66575
0
LINE
8
BLACK
6
CONTINUOUS
10
4.18425
20
-2.43425
11
4.21575
21
-2.46575
0
LINE
8
BLACK
6
CONTINUOUS
10
4.21575
20
-2.43425
11
4.18425
21
-2.46575
0
LINE
8
BLACK
6
CONTINUOUS
10
4.18425
20
-2.53425
11
4.21575
21
-2.56575
0
LINE
8
BLACK
6
CONTINUOUS
10
4.21575
20
-2.53425
11
4.18425
21
-2.56575
0
LINE
8
BLACK
6
CONTINUOUS
10
4.18425
20
-2.63425
11
4.21575
21
-2.66575
0
LINE
8
BLACK
6
CONTINUOUS
10
4.21575
20
-2.63425
11
4.18425
21
-2.66575
0
LINE
8
BLACK
6
CONTINUOUS
10
4.78425
20
-2.43425
11
4.81575
21
-2.46575
0
LINE
8
BLACK
6
CONTINUOUS
10
4.81575
20
-2.43425
11
4.78425
21
-2.46575
0
LINE
8
BLACK
6
CONTINUOUS
10
4.78425
20
-2.53425
11
4.81575
21
-2.56575
0
LINE
8
BLACK
6
CONTINUOUS
10
4.81575
20
-2.53425
11
4.78425
21
-2.56575
0
LINE
8
BLACK
6
CONTINUOUS
10
4.78425
20
-2.63425
11
4.81575
21
-2.66575
0
LINE
8
BLACK
6
CONTINUOUS
10
4.81575
20
-2.63425
11
4.78425
21
-2.66575
0
LINE
8
BLACK
6
CONTINUOUS
10
7.48425
20
-2.43425
11
7.51575
21
-2.46575
0
LINE
8
BLACK
6
CONTINUOUS
10
7.51575
20
-2.43425
11
7.48425
21
-2.46575
0
LINE
8
BLACK
6
CONTINUOUS
10
7.48425
20
-2.53425
11
7.51575
21
-2.56575
0
LINE
8
BLACK
6
CONTINUOUS
10
7.51575
20
-2.53425
11
7.48425
21
-2.56575
0
LINE
8
BLACK
6
CONTINUOUS
10
7.48425
20
-2.63425
11
7.51575
21
-2.66575
0
LINE
8
BLACK
6
CONTINUOUS
10
7.51575
20
-2.63425
11
7.48425
21
-2.66575
0
LINE
8
BLACK
6
CONTINUOUS
10
6.88425
20
-2.43425
11
6.91575
21
-2.46575
0
LINE
8
BLACK
6
CONTINUOUS
10
6.91575
20
-2.43425
11
6.88425
21
-2.46575
0
LINE
8
BLACK
6
CONTINUOUS
10
6.88425
20
-2.53425
11
6.91575
21
-2.56575
0
LINE
8
BLACK
6
CONTINUOUS
10
6.91575
20
-2.53425
11
6.88425
21
-2.56575
0
LINE
8
BLACK
6
CONTINUOUS
10
6.88425
20
-2.63425
11
6.91575
21
-2.66575
0
LINE
8
BLACK
6
CONTINUOUS
10
6.91575
20
-2.63425
11
6.88425
21
-2.66575
0
LINE
8
BLACK
6
CONTINUOUS
10
8.68425
20
-2.43425
11
8.71575
21
-2.46575
0
LINE
8
BLACK
6
CONTINUOUS
10
8.71575
20
-2.43425
11
8.68425
21
-2.46575
0
LINE
8
BLACK
6
CONTINUOUS
10
8.68425
20
-2.53425
11
8.71575
21
-2.56575
0
LINE
8
BLACK
6
CONTINUOUS
10
8.71575
20
-2.53425
11
8.68425
21
-2.56575
0
LINE
8
BLACK
6
CONTINUOUS
10
8.68425
20
-2.63425
11
8.71575
21
-2.66575
0
LINE
8
BLACK
6
CONTINUOUS
10
8.71575
20
-2.63425
11
8.68425
21
-2.66575
0
LINE
8
BLACK
6
CONTINUOUS
10
5.08425
20
-2.43425
11
5.11575
21
-2.46575
0
LINE
8
BLACK
6
CONTINUOUS
10
5.11575
20
-2.43425
11
5.08425
21
-2.46575
0
LINE
8
BLACK
6
CONTINUOUS
10
5.08425
20
-2.53425
11
5.11575
21
-2.56575
0
LINE
8
BLACK
6
CONTINUOUS
10
5.11575
20
-2.53425
11
5.08425
21
-2.56575
0
LINE
8
BLACK
6
CONTINUOUS
10
5.08425
20
-2.63425
11
5.11575
21
-2.66575
0
LINE
8
BLACK
6
CONTINUOUS
10
5.11575
20
-2.63425
11
5.08425
21
-2.66575
0
LINE
8
BLACK
6
CONTINUOUS
10
6.28425
20
-2.43425
11
6.31575
21
-2.46575
0
LINE
8
BLACK
6
CONTINUOUS
10
6.31575
20
-2.43425
11
6.28425
21
-2.46575
0
LINE
8
BLACK
6
CONTINUOUS
10
6.28425
20
-2.53425
11
6.31575
21
-2.56575
0
LINE
8
BLACK
6
CONTINUOUS
10
6.31575
20
-2.53425
11
6.28425
21
-2.56575
0
LINE
8
BLACK
6
CONTINUOUS
10
6.28425
20
-2.63425
11
6.31575
21
-2.66575
0
LINE
8
BLACK
6
CONTINUOUS
10
6.31575
20
-2.63425
11
6.28425
21
-2.66575
0
LINE
8
BLACK
6
CONTINUOUS
10
8.08425
20
-2.43425
11
8.11575
21
-2.46575
0
LINE
8
BLACK
6
CONTINUOUS
10
8.11575
20
-2.43425
11
8.08425
21
-2.46575
0
LINE
8
BLACK
6
CONTINUOUS
10
8.08425
20
-2.53425
11
8.11575
21
-2.56575
0
LINE
8
BLACK
6
CONTINUOUS
10
8.11575
20
-2.53425
11
8.08425
21
-2.56575
0
LINE
8
BLACK
6
CONTINUOUS
10
8.08425
20
-2.63425
11
8.11575
21
-2.66575
0
LINE
8
BLACK
6
CONTINUOUS
10
8.11575
20
-2.63425
11
8.08425
21
-2.66575
0
CIRCLE
8
BLACK
10
3.39967
20
-3.45
40
0.0177
0
CIRCLE
8
BLACK
10
3.39967
20
-3.75
40
0.0177
0
CIRCLE
8
BLACK
10
5.4
20
-2.95
40
0.0177
0
CIRCLE
8
BLACK
10
5.4
20
-3.25
40
0.0177
0
CIRCLE
8
BLACK
10
8.7
20
-3.45
40
0.0177
0
CIRCLE
8
BLACK
10
8.7
20
-3.75
40
0.0177
0
CIRCLE
8
BLACK
10
7.2
20
-3.45
40
0.0177
0
CIRCLE
8
BLACK
10
7.2
20
-3.75
40
0.0177
0
CIRCLE
8
BLACK
10
5.7
20
-2.95
40
0.0177
0
CIRCLE
8
BLACK
10
5.7
20
-3.25
40
0.0177
0
CIRCLE
8
BLACK
10
6.9
20
-2.95
40
0.0177
0
CIRCLE
8
BLACK
10
6.9
20
-3.25
40
0.0177
0
CIRCLE
8
BLACK
10
5.4
20
-3.45
40
0.0177
0
CIRCLE
8
BLACK
10
5.4
20
-3.75
40
0.0177
0
CIRCLE
8
BLACK
10
6
20
-2.95
40
0.0177
0
CIRCLE
8
BLACK
10
6
20
-3.25
40
0.0177
0
CIRCLE
8
BLACK
10
7.8
20
-2.95
40
0.0177
0
CIRCLE
8
BLACK
10
7.8
20
-3.25
40
0.0177
0
CIRCLE
8
BLACK
10
4.8
20
-3.45
40
0.0177
0
CIRCLE
8
BLACK
10
4.8
20
-3.75
40
0.0177
0
CIRCLE
8
BLACK
10
6.6
20
-3.45
40
0.0177
0
CIRCLE
8
BLACK
10
6.6
20
-3.75
40
0.0177
0
CIRCLE
8
BLACK
10
4.2
20
-2.95
40
0.0177
0
CIRCLE
8
BLACK
10
4.2
20
-3.25
40
0.0177
0
CIRCLE
8
BLACK
10
5.7
20
-3.45
40
0.0177
0
CIRCLE
8
BLACK
10
5.7
20
-3.75
40
0.0177
0
CIRCLE
8
BLACK
10
3.7
20
-3.45
40
0.0177
0
CIRCLE
8
BLACK
10
3.7
20
-3.75
40
0.0177
0
CIRCLE
8
BLACK
10
4.2
20
-3.45
40
0.0177
0
CIRCLE
8
BLACK
10
4.2
20
-3.75
40
0.0177
0
CIRCLE
8
BLACK
10
3.20108
20
-3.45
40
0.0177
0
CIRCLE
8
BLACK
10
3.20108
20
-3.75
40
0.0177
0
CIRCLE
8
BLACK
10
7.2
20
-2.95
40
0.0177
0
CIRCLE
8
BLACK
10
7.2
20
-3.25
40
0.0177
0
CIRCLE
8
BLACK
10
4.8
20
-2.95
40
0.0177
0
CIRCLE
8
BLACK
10
4.8
20
-3.25
40
0.0177
0
CIRCLE
8
BLACK
10
6.3
20
-3.45
40
0.0177
0
CIRCLE
8
BLACK
10
6.3
20
-3.75
40
0.0177
0
CIRCLE
8
BLACK
10
8.4
20
-2.95
40
0.0177
0
CIRCLE
8
BLACK
10
8.4
20
-3.25
40
0.0177
0
CIRCLE
8
BLACK
10
7.5
20
-2.95
40
0.0177
0
CIRCLE
8
BLACK
10
7.5
20
-3.25
40
0.0177
0
CIRCLE
8
BLACK
10
6.6
20
-2.95
40
0.0177
0
CIRCLE
8
BLACK
10
6.6
20
-3.25
40
0.0177
0
CIRCLE
8
BLACK
10
6
20
-3.45
40
0.0177
0
CIRCLE
8
BLACK
10
6
20
-3.75
40
0.0177
0
CIRCLE
8
BLACK
10
8.4
20
-3.45
40
0.0177
0
CIRCLE
8
BLACK
10
8.4
20
-3.75
40
0.0177
0
CIRCLE
8
BLACK
10
5.1
20
-3.45
40
0.0177
0
CIRCLE
8
BLACK
10
5.1
20
-3.75
40
0.0177
0
CIRCLE
8
BLACK
10
3.00161
20
-3.45
40
0.0177
0
CIRCLE
8
BLACK
10
3.00161
20
-3.75
40
0.0177
0
CIRCLE
8
BLACK
10
7.5
20
-3.45
40
0.0177
0
CIRCLE
8
BLACK
10
7.5
20
-3.75
40
0.0177
0
CIRCLE
8
BLACK
10
4.5
20
-3.45
40
0.0177
0
CIRCLE
8
BLACK
10
4.5
20
-3.75
40
0.0177
0
CIRCLE
8
BLACK
10
4.5
20
-2.95
40
0.0177
0
CIRCLE
8
BLACK
10
4.5
20
-3.25
40
0.0177
0
CIRCLE
8
BLACK
10
6.3
20
-2.95
40
0.0177
0
CIRCLE
8
BLACK
10
6.3
20
-3.25
40
0.0177
0
CIRCLE
8
BLACK
10
7.8
20
-3.45
40
0.0177
0
CIRCLE
8
BLACK
10
7.8
20
-3.75
40
0.0177
0
CIRCLE
8
BLACK
10
2.80161
20
-3.45
40
0.0177
0
CIRCLE
8
BLACK
10
2.80161
20
-3.75
40
0.0177
0
CIRCLE
8
BLACK
10
3.9
20
-3.45
40
0.0177
0
CIRCLE
8
BLACK
10
3.9
20
-3.75
40
0.0177
0
CIRCLE
8
BLACK
10
5.1
20
-2.95
40
0.0177
0
CIRCLE
8
BLACK
10
5.1
20
-3.25
40
0.0177
0
CIRCLE
8
BLACK
10
6.9
20
-3.45
40
0.0177
0
CIRCLE
8
BLACK
10
6.9
20
-3.75
40
0.0177
0
CIRCLE
8
BLACK
10
8.1
20
-3.45
40
0.0177
0
CIRCLE
8
BLACK
10
8.1
20
-3.75
40
0.0177
0
CIRCLE
8
BLACK
10
8.7
20
-2.95
40
0.0177
0
CIRCLE
8
BLACK
10
8.7
20
-3.25
40
0.0177
0
CIRCLE
8
BLACK
10
8.1
20
-2.95
40
0.0177
0
CIRCLE
8
BLACK
10
8.1
20
-3.25
40
0.0177
0
LINE
8
BLACK
6
CONTINUOUS
10
4.9
20
-5.07835
11
4.9
21
-5.12165
0
LINE
8
BLACK
6
CONTINUOUS
10
4.87835
20
-5.1
11
4.92165
21
-5.1
0
LINE
8
BLACK
6
CONTINUOUS
10
4.9
20
-5.67835
11
4.9
21
-5.72165
0
LINE
8
BLACK
6
CONTINUOUS
10
4.87835
20
-5.7
11
4.92165
21
-5.7
0
LINE
8
BLACK
6
CONTINUOUS
10
5
20
-5.07835
11
5
21
-5.12165
0
LINE
8
BLACK
6
CONTINUOUS
10
4.97835
20
-5.1
11
5.02165
21
-5.1
0
LINE
8
BLACK
6
CONTINUOUS
10
5
20
-5.67835
11
5
21
-5.72165
0
LINE
8
BLACK
6
CONTINUOUS
10
4.97835
20
-5.7
11
5.02165
21
-5.7
0
LINE
8
BLACK
6
CONTINUOUS
10
5.1
20
-5.07835
11
5.1
21
-5.12165
0
LINE
8
BLACK
6
CONTINUOUS
10
5.07835
20
-5.1
11
5.12165
21
-5.1
0
LINE
8
BLACK
6
CONTINUOUS
10
5.1
20
-5.67835
11
5.1
21
-5.72165
0
LINE
8
BLACK
6
CONTINUOUS
10
5.07835
20
-5.7
11
5.12165
21
-5.7
0
LINE
8
BLACK
6
CONTINUOUS
10
5.2
20
-5.07835
11
5.2
21
-5.12165
0
LINE
8
BLACK
6
CONTINUOUS
10
5.17835
20
-5.1
11
5.22165
21
-5.1
0
LINE
8
BLACK
6
CONTINUOUS
10
5.2
20
-5.67835
11
5.2
21
-5.72165
0
LINE
8
BLACK
6
CONTINUOUS
10
5.17835
20
-5.7
11
5.22165
21
-5.7
0
LINE
8
BLACK
6
CONTINUOUS
10
5.3
20
-5.07835
11
5.3
21
-5.12165
0
LINE
8
BLACK
6
CONTINUOUS
10
5.27835
20
-5.1
11
5.32165
21
-5.1
0
LINE
8
BLACK
6
CONTINUOUS
10
5.3
20
-5.17835
11
5.3
21
-5.22165
0
LINE
8
BLACK
6
CONTINUOUS
10
5.27835
20
-5.2
11
5.32165
21
-5.2
0
LINE
8
BLACK
6
CONTINUOUS
10
5.3
20
-5.67835
11
5.3
21
-5.72165
0
LINE
8
BLACK
6
CONTINUOUS
10
5.27835
20
-5.7
11
5.32165
21
-5.7
0
LINE
8
BLACK
6
CONTINUOUS
10
5.4
20
-5.07835
11
5.4
21
-5.12165
0
LINE
8
BLACK
6
CONTINUOUS
10
5.37835
20
-5.1
11
5.42165
21
-5.1
0
LINE
8
BLACK
6
CONTINUOUS
10
5.4
20
-5.17835
11
5.4
21
-5.22165
0
LINE
8
BLACK
6
CONTINUOUS
10
5.37835
20
-5.2
11
5.42165
21
-5.2
0
LINE
8
BLACK
6
CONTINUOUS
10
5.4
20
-5.67835
11
5.4
21
-5.72165
0
LINE
8
BLACK
6
CONTINUOUS
10
5.37835
20
-5.7
11
5.42165
21
-5.7
0
LINE
8
BLACK
6
CONTINUOUS
10
5.5
20
-5.07835
11
5.5
21
-5.12165
0
LINE
8
BLACK
6
CONTINUOUS
10
5.47835
20
-5.1
11
5.52165
21
-5.1
0
LINE
8
BLACK
6
CONTINUOUS
10
5.5
20
-5.67835
11
5.5
21
-5.72165
0
LINE
8
BLACK
6
CONTINUOUS
10
5.47835
20
-5.7
11
5.52165
21
-5.7
0
LINE
8
BLACK
6
CONTINUOUS
10
5.6
20
-5.07835
11
5.6
21
-5.12165
0
LINE
8
BLACK
6
CONTINUOUS
10
5.57835
20
-5.1
11
5.62165
21
-5.1
0
LINE
8
BLACK
6
CONTINUOUS
10
5.6
20
-5.67835
11
5.6
21
-5.72165
0
LINE
8
BLACK
6
CONTINUOUS
10
5.57835
20
-5.7
11
5.62165
21
-5.7
0
LINE
8
BLACK
6
CONTINUOUS
10
5.7
20
-5.07835
11
5.7
21
-5.12165
0
LINE
8
BLACK
6
CONTINUOUS
10
5.67835
20
-5.1
11
5.72165
21
-5.1
0
LINE
8
BLACK
6
CONTINUOUS
10
5.7
20
-5.67835
11
5.7
21
-5.72165
0
LINE
8
BLACK
6
CONTINUOUS
10
5.67835
20
-5.7
11
5.72165
21
-5.7
0
LINE
8
BLACK
6
CONTINUOUS
10
5.8
20
-5.07835
11
5.8
21
-5.12165
0
LINE
8
BLACK
6
CONTINUOUS
10
5.77835
20
-5.1
11
5.82165
21
-5.1
0
LINE
8
BLACK
6
CONTINUOUS
10
5.8
20
-5.67835
11
5.8
21
-5.72165
0
LINE
8
BLACK
6
CONTINUOUS
10
5.77835
20
-5.7
11
5.82165
21
-5.7
0
LINE
8
BLACK
6
CONTINUOUS
10
5.9
20
-5.07835
11
5.9
21
-5.12165
0
LINE
8
BLACK
6
CONTINUOUS
10
5.87835
20
-5.1
11
5.92165
21
-5.1
0
LINE
8
BLACK
6
CONTINUOUS
10
5.9
20
-5.67835
11
5.9
21
-5.72165
0
LINE
8
BLACK
6
CONTINUOUS
10
5.87835
20
-5.7
11
5.92165
21
-5.7
0
LINE
8
BLACK
6
CONTINUOUS
10
6
20
-5.07835
11
6
21
-5.12165
0
LINE
8
BLACK
6
CONTINUOUS
10
5.97835
20
-5.1
11
6.02165
21
-5.1
0
LINE
8
BLACK
6
CONTINUOUS
10
6
20
-5.67835
11
6
21
-5.72165
0
LINE
8
BLACK
6
CONTINUOUS
10
5.97835
20
-5.7
11
6.02165
21
-5.7
0
LINE
8
BLACK
6
CONTINUOUS
10
6.1
20
-5.07835
11
6.1
21
-5.12165
0
LINE
8
BLACK
6
CONTINUOUS
10
6.07835
20
-5.1
11
6.12165
21
-5.1
0
LINE
8
BLACK
6
CONTINUOUS
10
6.1
20
-5.67835
11
6.1
21
-5.72165
0
LINE
8
BLACK
6
CONTINUOUS
10
6.07835
20
-5.7
11
6.12165
21
-5.7
0
LINE
8
BLACK
6
CONTINUOUS
10
6.2
20
-5.07835
11
6.2
21
-5.12165
0
LINE
8
BLACK
6
CONTINUOUS
10
6.17835
20
-5.1
11
6.22165
21
-5.1
0
LINE
8
BLACK
6
CONTINUOUS
10
6.2
20
-5.67835
11
6.2
21
-5.72165
0
LINE
8
BLACK
6
CONTINUOUS
10
6.17835
20
-5.7
11
6.22165
21
-5.7
0
LINE
8
BLACK
6
CONTINUOUS
10
6.3
20
-5.07835
11
6.3
21
-5.12165
0
LINE
8
BLACK
6
CONTINUOUS
10
6.27835
20
-5.1
11
6.32165
21
-5.1
0
LINE
8
BLACK
6
CONTINUOUS
10
6.3
20
-5.67835
11
6.3
21
-5.72165
0
LINE
8
BLACK
6
CONTINUOUS
10
6.27835
20
-5.7
11
6.32165
21
-5.7
0
LINE
8
BLACK
6
CONTINUOUS
10
6.4
20
-5.07835
11
6.4
21
-5.12165
0
LINE
8
BLACK
6
CONTINUOUS
10
6.37835
20
-5.1
11
6.42165
21
-5.1
0
LINE
8
BLACK
6
CONTINUOUS
10
6.4
20
-5.67835
11
6.4
21
-5.72165
0
LINE
8
BLACK
6
CONTINUOUS
10
6.37835
20
-5.7
11
6.42165
21
-5.7
0
LINE
8
BLACK
6
CONTINUOUS
10
6.5
20
-5.07835
11
6.5
21
-5.12165
0
LINE
8
BLACK
6
CONTINUOUS
10
6.47835
20
-5.1
11
6.52165
21
-5.1
0
LINE
8
BLACK
6
CONTINUOUS
10
6.5
20
-5.67835
11
6.5
21
-5.72165
0
LINE
8
BLACK
6
CONTINUOUS
10
6.47835
20
-5.7
11
6.52165
21
-5.7
0
LINE
8
BLACK
6
CONTINUOUS
10
6.6
20
-5.07835
11
6.6
21
-5.12165
0
LINE
8
BLACK
6
CONTINUOUS
10
6.57835
20
-5.1
11
6.62165
21
-5.1
0
LINE
8
BLACK
6
CONTINUOUS
10
6.6
20
-5.67835
11
6.6
21
-5.72165
0
LINE
8
BLACK
6
CONTINUOUS
10
6.57835
20
-5.7
11
6.62165
21
-5.7
0
LINE
8
BLACK
6
CONTINUOUS
10
6.7
20
-5.07835
11
6.7
21
-5.12165
0
LINE
8
BLACK
6
CONTINUOUS
10
6.67835
20
-5.1
11
6.72165
21
-5.1
0
LINE
8
BLACK
6
CONTINUOUS
10
6.7
20
-5.67835
11
6.7
21
-5.72165
0
LINE
8
BLACK
6
CONTINUOUS
10
6.67835
20
-5.7
11
6.72165
21
-5.7
0
LINE
8
BLACK
6
CONTINUOUS
10
6.8
20
-5.07835
11
6.8
21
-5.12165
0
LINE
8
BLACK
6
CONTINUOUS
10
6.77835
20
-5.1
11
6.82165
21
-5.1
0
LINE
8
BLACK
6
CONTINUOUS
10
6.8
20
-5.67835
11
6.8
21
-5.72165
0
LINE
8
BLACK
6
CONTINUOUS
10
6.77835
20
-5.7
11
6.82165
21
-5.7
0
LINE
8
BLACK
6
CONTINUOUS
10
6.9
20
-5.07835
11
6.9
21
-5.12165
0
LINE
8
BLACK
6
CONTINUOUS
10
6.87835
20
-5.1
11
6.92165
21
-5.1
0
LINE
8
BLACK
6
CONTINUOUS
10
6.9
20
-5.67835
11
6.9
21
-5.72165
0
LINE
8
BLACK
6
CONTINUOUS
10
6.87835
20
-5.7
11
6.92165
21
-5.7
0
LINE
8
BLACK
6
CONTINUOUS
10
7
20
-5.07835
11
7
21
-5.12165
0
LINE
8
BLACK
6
CONTINUOUS
10
6.97835
20
-5.1
11
7.02165
21
-5.1
0
LINE
8
BLACK
6
CONTINUOUS
10
7
20
-5.67835
11
7
21
-5.72165
0
LINE
8
BLACK
6
CONTINUOUS
10
6.97835
20
-5.7
11
7.02165
21
-5.7
0
LINE
8
BLACK
6
CONTINUOUS
10
7.1
20
-5.07835
11
7.1
21
-5.12165
0
LINE
8
BLACK
6
CONTINUOUS
10
7.07835
20
-5.1
11
7.12165
21
-5.1
0
LINE
8
BLACK
6
CONTINUOUS
10
7.1
20
-5.67835
11
7.1
21
-5.72165
0
LINE
8
BLACK
6
CONTINUOUS
10
7.07835
20
-5.7
11
7.12165
21
-5.7
0
LINE
8
BLACK
6
CONTINUOUS
10
7.2
20
-5.07835
11
7.2
21
-5.12165
0
LINE
8
BLACK
6
CONTINUOUS
10
7.17835
20
-5.1
11
7.22165
21
-5.1
0
LINE
8
BLACK
6
CONTINUOUS
10
7.2
20
-5.67835
11
7.2
21
-5.72165
0
LINE
8
BLACK
6
CONTINUOUS
10
7.17835
20
-5.7
11
7.22165
21
-5.7
0
LINE
8
BLACK
6
CONTINUOUS
10
5.50219
20
-2.11669
11
5.50219
21
-2.08331
0
LINE
8
BLACK
6
CONTINUOUS
10
5.50219
20
-2.08331
11
5.46881
21
-2.08331
0
LINE
8
BLACK
6
CONTINUOUS
10
5.46881
20
-2.08331
11
5.46881
21
-2.11669
0
LINE
8
BLACK
6
CONTINUOUS
10
5.46881
20
-2.11669
11
5.50219
21
-2.11669
0
LINE
8
BLACK
6
CONTINUOUS
10
5.63999
20
-2.11669
11
5.63999
21
-2.08331
0
LINE
8
BLACK
6
CONTINUOUS
10
5.63999
20
-2.08331
11
5.60661
21
-2.08331
0
LINE
8
BLACK
6
CONTINUOUS
10
5.60661
20
-2.08331
11
5.60661
21
-2.11669
0
LINE
8
BLACK
6
CONTINUOUS
10
5.60661
20
-2.11669
11
5.63999
21
-2.11669
0
LINE
8
BLACK
6
CONTINUOUS
10
5.77779
20
-2.11669
11
5.77779
21
-2.08331
0
LINE
8
BLACK
6
CONTINUOUS
10
5.77779
20
-2.08331
11
5.74441
21
-2.08331
0
LINE
8
BLACK
6
CONTINUOUS
10
5.74441
20
-2.08331
11
5.74441
21
-2.11669
0
LINE
8
BLACK
6
CONTINUOUS
10
5.74441
20
-2.11669
11
5.77779
21
-2.11669
0
LINE
8
BLACK
6
CONTINUOUS
10
5.91559
20
-2.11669
11
5.91559
21
-2.08331
0
LINE
8
BLACK
6
CONTINUOUS
10
5.91559
20
-2.08331
11
5.88221
21
-2.08331
0
LINE
8
BLACK
6
CONTINUOUS
10
5.88221
20
-2.08331
11
5.88221
21
-2.11669
0
LINE
8
BLACK
6
CONTINUOUS
10
5.88221
20
-2.11669
11
5.91559
21
-2.11669
0
LINE
8
BLACK
6
CONTINUOUS
10
6.05339
20
-2.11669
11
6.05339
21
-2.08331
0
LINE
8
BLACK
6
CONTINUOUS
10
6.05339
20
-2.08331
11
6.02001
21
-2.08331
0
LINE
8
BLACK
6
CONTINUOUS
10
6.02001
20
-2.08331
11
6.02001
21
-2.11669
0
LINE
8
BLACK
6
CONTINUOUS
10
6.02001
20
-2.11669
11
6.05339
21
-2.11669
0
LINE
8
BLACK
6
CONTINUOUS
10
6.19119
20
-2.11669
11
6.19119
21
-2.08331
0
LINE
8
BLACK
6
CONTINUOUS
10
6.19119
20
-2.08331
11
6.15781
21
-2.08331
0
LINE
8
BLACK
6
CONTINUOUS
10
6.15781
20
-2.08331
11
6.15781
21
-2.11669
0
LINE
8
BLACK
6
CONTINUOUS
10
6.15781
20
-2.11669
11
6.19119
21
-2.11669
0
LINE
8
BLACK
6
CONTINUOUS
10
6.32899
20
-2.11669
11
6.32899
21
-2.08331
0
LINE
8
BLACK
6
CONTINUOUS
10
6.32899
20
-2.08331
11
6.29561
21
-2.08331
0
LINE
8
BLACK
6
CONTINUOUS
10
6.29561
20
-2.08331
11
6.29561
21
-2.11669
0
LINE
8
BLACK
6
CONTINUOUS
10
6.29561
20
-2.11669
11
6.32899
21
-2.11669
0
LINE
8
BLACK
6
CONTINUOUS
10
6.46669
20
-2.11669
11
6.46669
21
-2.08331
0
LINE
8
BLACK
6
CONTINUOUS
10
6.46669
20
-2.08331
11
6.43331
21
-2.08331
0
LINE
8
BLACK
6
CONTINUOUS
10
6.43331
20
-2.08331
11
6.43331
21
-2.11669
0
LINE
8
BLACK
6
CONTINUOUS
10
6.43331
20
-2.11669
11
6.46669
21
-2.11669
0
LINE
8
BLACK
6
CONTINUOUS
10
4.30219
20
-2.11669
11
4.30219
21
-2.08331
0
LINE
8
BLACK
6
CONTINUOUS
10
4.30219
20
-2.08331
11
4.26881
21
-2.08331
0
LINE
8
BLACK
6
CONTINUOUS
10
4.26881
20
-2.08331
11
4.26881
21
-2.11669
0
LINE
8
BLACK
6
CONTINUOUS
10
4.26881
20
-2.11669
11
4.30219
21
-2.11669
0
LINE
8
BLACK
6
CONTINUOUS
10
4.43999
20
-2.11669
11
4.43999
21
-2.08331
0
LINE
8
BLACK
6
CONTINUOUS
10
4.43999
20
-2.08331
11
4.40661
21
-2.08331
0
LINE
8
BLACK
6
CONTINUOUS
10
4.40661
20
-2.08331
11
4.40661
21
-2.11669
0
LINE
8
BLACK
6
CONTINUOUS
10
4.40661
20
-2.11669
11
4.43999
21
-2.11669
0
LINE
8
BLACK
6
CONTINUOUS
10
4.57779
20
-2.11669
11
4.57779
21
-2.08331
0
LINE
8
BLACK
6
CONTINUOUS
10
4.57779
20
-2.08331
11
4.54441
21
-2.08331
0
LINE
8
BLACK
6
CONTINUOUS
10
4.54441
20
-2.08331
11
4.54441
21
-2.11669
0
LINE
8
BLACK
6
CONTINUOUS
10
4.54441
20
-2.11669
11
4.57779
21
-2.11669
0
LINE
8
BLACK
6
CONTINUOUS
10
4.71559
20
-2.11669
11
4.71559
21
-2.08331
0
LINE
8
BLACK
6
CONTINUOUS
10
4.71559
20
-2.08331
11
4.68221
21
-2.08331
0
LINE
8
BLACK
6
CONTINUOUS
10
4.68221
20
-2.08331
11
4.68221
21
-2.11669
0
LINE
8
BLACK
6
CONTINUOUS
10
4.68221
20
-2.11669
11
4.71559
21
-2.11669
0
LINE
8
BLACK
6
CONTINUOUS
10
4.85339
20
-2.11669
11
4.85339
21
-2.08331
0
LINE
8
BLACK
6
CONTINUOUS
10
4.85339
20
-2.08331
11
4.82001
21
-2.08331
0
LINE
8
BLACK
6
CONTINUOUS
10
4.82001
20
-2.08331
11
4.82001
21
-2.11669
0
LINE
8
BLACK
6
CONTINUOUS
10
4.82001
20
-2.11669
11
4.85339
21
-2.11669
0
LINE
8
BLACK
6
CONTINUOUS
10
4.99119
20
-2.11669
11
4.99119
21
-2.08331
0
LINE
8
BLACK
6
CONTINUOUS
10
4.99119
20
-2.08331
11
4.95781
21
-2.08331
0
LINE
8
BLACK
6
CONTINUOUS
10
4.95781
20
-2.08331
11
4.95781
21
-2.11669
0
LINE
8
BLACK
6
CONTINUOUS
10
4.95781
20
-2.11669
11
4.99119
21
-2.11669
0
LINE
8
BLACK
6
CONTINUOUS
10
5.12899
20
-2.11669
11
5.12899
21
-2.08331
0
LINE
8
BLACK
6
CONTINUOUS
10
5.12899
20
-2.08331
11
5.09561
21
-2.08331
0
LINE
8
BLACK
6
CONTINUOUS
10
5.09561
20
-2.08331
11
5.09561
21
-2.11669
0
LINE
8
BLACK
6
CONTINUOUS
10
5.09561
20
-2.11669
11
5.12899
21
-2.11669
0
LINE
8
BLACK
6
CONTINUOUS
10
5.26669
20
-2.11669
11
5.26669
21
-2.08331
0
LINE
8
BLACK
6
CONTINUOUS
10
5.26669
20
-2.08331
11
5.23331
21
-2.08331
0
LINE
8
BLACK
6
CONTINUOUS
10
5.23331
20
-2.08331
11
5.23331
21
-2.11669
0
LINE
8
BLACK
6
CONTINUOUS
10
5.23331
20
-2.11669
11
5.26669
21
-2.11669
0
LINE
8
BLACK
6
CONTINUOUS
10
7.90219
20
-2.11669
11
7.90219
21
-2.08331
0
LINE
8
BLACK
6
CONTINUOUS
10
7.90219
20
-2.08331
11
7.86881
21
-2.08331
0
LINE
8
BLACK
6
CONTINUOUS
10
7.86881
20
-2.08331
11
7.86881
21
-2.11669
0
LINE
8
BLACK
6
CONTINUOUS
10
7.86881
20
-2.11669
11
7.90219
21
-2.11669
0
LINE
8
BLACK
6
CONTINUOUS
10
8.03999
20
-2.11669
11
8.03999
21
-2.08331
0
LINE
8
BLACK
6
CONTINUOUS
10
8.03999
20
-2.08331
11
8.00661
21
-2.08331
0
LINE
8
BLACK
6
CONTINUOUS
10
8.00661
20
-2.08331
11
8.00661
21
-2.11669
0
LINE
8
BLACK
6
CONTINUOUS
10
8.00661
20
-2.11669
11
8.03999
21
-2.11669
0
LINE
8
BLACK
6
CONTINUOUS
10
8.17779
20
-2.11669
11
8.17779
21
-2.08331
0
LINE
8
BLACK
6
CONTINUOUS
10
8.17779
20
-2.08331
11
8.14441
21
-2.08331
0
LINE
8
BLACK
6
CONTINUOUS
10
8.14441
20
-2.08331
11
8.14441
21
-2.11669
0
LINE
8
BLACK
6
CONTINUOUS
10
8.14441
20
-2.11669
11
8.17779
21
-2.11669
0
LINE
8
BLACK
6
CONTINUOUS
10
8.31559
20
-2.11669
11
8.31559
21
-2.08331
0
LINE
8
BLACK
6
CONTINUOUS
10
8.31559
20
-2.08331
11
8.28221
21
-2.08331
0
LINE
8
BLACK
6
CONTINUOUS
10
8.28221
20
-2.08331
11
8.28221
21
-2.11669
0
LINE
8
BLACK
6
CONTINUOUS
10
8.28221
20
-2.11669
11
8.31559
21
-2.11669
0
LINE
8
BLACK
6
CONTINUOUS
10
8.45339
20
-2.11669
11
8.45339
21
-2.08331
0
LINE
8
BLACK
6
CONTINUOUS
10
8.45339
20
-2.08331
11
8.42001
21
-2.08331
0
LINE
8
BLACK
6
CONTINUOUS
10
8.42001
20
-2.08331
11
8.42001
21
-2.11669
0
LINE
8
BLACK
6
CONTINUOUS
10
8.42001
20
-2.11669
11
8.45339
21
-2.11669
0
LINE
8
BLACK
6
CONTINUOUS
10
8.59119
20
-2.11669
11
8.59119
21
-2.08331
0
LINE
8
BLACK
6
CONTINUOUS
10
8.59119
20
-2.08331
11
8.55781
21
-2.08331
0
LINE
8
BLACK
6
CONTINUOUS
10
8.55781
20
-2.08331
11
8.55781
21
-2.11669
0
LINE
8
BLACK
6
CONTINUOUS
10
8.55781
20
-2.11669
11
8.59119
21
-2.11669
0
LINE
8
BLACK
6
CONTINUOUS
10
8.72899
20
-2.11669
11
8.72899
21
-2.08331
0
LINE
8
BLACK
6
CONTINUOUS
10
8.72899
20
-2.08331
11
8.69561
21
-2.08331
0
LINE
8
BLACK
6
CONTINUOUS
10
8.69561
20
-2.08331
11
8.69561
21
-2.11669
0
LINE
8
BLACK
6
CONTINUOUS
10
8.69561
20
-2.11669
11
8.72899
21
-2.11669
0
LINE
8
BLACK
6
CONTINUOUS
10
8.86669
20
-2.11669
11
8.86669
21
-2.08331
0
LINE
8
BLACK
6
CONTINUOUS
10
8.86669
20
-2.08331
11
8.83331
21
-2.08331
0
LINE
8
BLACK
6
CONTINUOUS
10
8.83331
20
-2.08331
11
8.83331
21
-2.11669
0
LINE
8
BLACK
6
CONTINUOUS
10
8.83331
20
-2.11669
11
8.86669
21
-2.11669
0
LINE
8
BLACK
6
CONTINUOUS
10
3.77839
20
-2.11669
11
3.77839
21
-2.08331
0
LINE
8
BLACK
6
CONTINUOUS
10
3.77839
20
-2.08331
11
3.74502
21
-2.08331
0
LINE
8
BLACK
6
CONTINUOUS
10
3.74502
20
-2.08331
11
3.74502
21
-2.11669
0
LINE
8
BLACK
6
CONTINUOUS
10
3.74502
20
-2.11669
11
3.77839
21
-2.11669
0
LINE
8
BLACK
6
CONTINUOUS
10
3.91609
20
-2.11669
11
3.91609
21
-2.08331
0
LINE
8
BLACK
6
CONTINUOUS
10
3.91609
20
-2.08331
11
3.88272
21
-2.08331
0
LINE
8
BLACK
6
CONTINUOUS
10
3.88272
20
-2.08331
11
3.88272
21
-2.11669
0
LINE
8
BLACK
6
CONTINUOUS
10
3.88272
20
-2.11669
11
3.91609
21
-2.11669
0
LINE
8
BLACK
6
CONTINUOUS
10
3.27899
20
-2.11669
11
3.27899
21
-2.08331
0
LINE
8
BLACK
6
CONTINUOUS
10
3.27899
20
-2.08331
11
3.24561
21
-2.08331
0
LINE
8
BLACK
6
CONTINUOUS
10
3.24561
20
-2.08331
11
3.24561
21
-2.11669
0
LINE
8
BLACK
6
CONTINUOUS
10
3.24561
20
-2.11669
11
3.27899
21
-2.11669
0
LINE
8
BLACK
6
CONTINUOUS
10
3.41669
20
-2.11669
11
3.41669
21
-2.08331
0
LINE
8
BLACK
6
CONTINUOUS
10
3.41669
20
-2.08331
11
3.38331
21
-2.08331
0
LINE
8
BLACK
6
CONTINUOUS
10
3.38331
20
-2.08331
11
3.38331
21
-2.11669
0
LINE
8
BLACK
6
CONTINUOUS
10
3.38331
20
-2.11669
11
3.41669
21
-2.11669
0
LINE
8
BLACK
6
CONTINUOUS
10
6.70219
20
-2.11669
11
6.70219
21
-2.08331
0
LINE
8
BLACK
6
CONTINUOUS
10
6.70219
20
-2.08331
11
6.66881
21
-2.08331
0
LINE
8
BLACK
6
CONTINUOUS
10
6.66881
20
-2.08331
11
6.66881
21
-2.11669
0
LINE
8
BLACK
6
CONTINUOUS
10
6.66881
20
-2.11669
11
6.70219
21
-2.11669
0
LINE
8
BLACK
6
CONTINUOUS
10
6.83999
20
-2.11669
11
6.83999
21
-2.08331
0
LINE
8
BLACK
6
CONTINUOUS
10
6.83999
20
-2.08331
11
6.80661
21
-2.08331
0
LINE
8
BLACK
6
CONTINUOUS
10
6.80661
20
-2.08331
11
6.80661
21
-2.11669
0
LINE
8
BLACK
6
CONTINUOUS
10
6.80661
20
-2.11669
11
6.83999
21
-2.11669
0
LINE
8
BLACK
6
CONTINUOUS
10
6.97779
20
-2.11669
11
6.97779
21
-2.08331
0
LINE
8
BLACK
6
CONTINUOUS
10
6.97779
20
-2.08331
11
6.94441
21
-2.08331
0
LINE
8
BLACK
6
CONTINUOUS
10
6.94441
20
-2.08331
11
6.94441
21
-2.11669
0
LINE
8
BLACK
6
CONTINUOUS
10
6.94441
20
-2.11669
11
6.97779
21
-2.11669
0
LINE
8
BLACK
6
CONTINUOUS
10
7.11559
20
-2.11669
11
7.11559
21
-2.08331
0
LINE
8
BLACK
6
CONTINUOUS
10
7.11559
20
-2.08331
11
7.08221
21
-2.08331
0
LINE
8
BLACK
6
CONTINUOUS
10
7.08221
20
-2.08331
11
7.08221
21
-2.11669
0
LINE
8
BLACK
6
CONTINUOUS
10
7.08221
20
-2.11669
11
7.11559
21
-2.11669
0
LINE
8
BLACK
6
CONTINUOUS
10
7.25339
20
-2.11669
11
7.25339
21
-2.08331
0
LINE
8
BLACK
6
CONTINUOUS
10
7.25339
20
-2.08331
11
7.22001
21
-2.08331
0
LINE
8
BLACK
6
CONTINUOUS
10
7.22001
20
-2.08331
11
7.22001
21
-2.11669
0
LINE
8
BLACK
6
CONTINUOUS
10
7.22001
20
-2.11669
11
7.25339
21
-2.11669
0
LINE
8
BLACK
6
CONTINUOUS
10
7.39119
20
-2.11669
11
7.39119
21
-2.08331
0
LINE
8
BLACK
6
CONTINUOUS
10
7.39119
20
-2.08331
11
7.35781
21
-2.08331
0
LINE
8
BLACK
6
CONTINUOUS
10
7.35781
20
-2.08331
11
7.35781
21
-2.11669
0
LINE
8
BLACK
6
CONTINUOUS
10
7.35781
20
-2.11669
11
7.39119
21
-2.11669
0
LINE
8
BLACK
6
CONTINUOUS
10
7.52899
20
-2.11669
11
7.52899
21
-2.08331
0
LINE
8
BLACK
6
CONTINUOUS
10
7.52899
20
-2.08331
11
7.49561
21
-2.08331
0
LINE
8
BLACK
6
CONTINUOUS
10
7.49561
20
-2.08331
11
7.49561
21
-2.11669
0
LINE
8
BLACK
6
CONTINUOUS
10
7.49561
20
-2.11669
11
7.52899
21
-2.11669
0
LINE
8
BLACK
6
CONTINUOUS
10
7.66669
20
-2.11669
11
7.66669
21
-2.08331
0
LINE
8
BLACK
6
CONTINUOUS
10
7.66669
20
-2.08331
11
7.63331
21
-2.08331
0
LINE
8
BLACK
6
CONTINUOUS
10
7.63331
20
-2.08331
11
7.63331
21
-2.11669
0
LINE
8
BLACK
6
CONTINUOUS
10
7.63331
20
-2.11669
11
7.66669
21
-2.11669
0
LINE
8
BLACK
6
CONTINUOUS
10
1.59946
20
-7.1242
11
1.59946
21
-7.04546
0
LINE
8
BLACK
6
CONTINUOUS
10
1.59946
20
-7.04546
11
1.6182
21
-7.04546
0
LINE
8
BLACK
6
CONTINUOUS
10
1.6182
20
-7.04546
11
1.62945
21
-7.04921
0
LINE
8
BLACK
6
CONTINUOUS
10
1.62945
20
-7.04921
11
1.63695
21
-7.05671
0
LINE
8
BLACK
6
CONTINUOUS
10
1.63695
20
-7.05671
11
1.6407
21
-7.06421
0
LINE
8
BLACK
6
CONTINUOUS
10
1.6407
20
-7.06421
11
1.64445
21
-7.07921
0
LINE
8
BLACK
6
CONTINUOUS
10
1.64445
20
-7.07921
11
1.64445
21
-7.09046
0
LINE
8
BLACK
6
CONTINUOUS
10
1.64445
20
-7.09046
11
1.6407
21
-7.10546
0
LINE
8
BLACK
6
CONTINUOUS
10
1.6407
20
-7.10546
11
1.63695
21
-7.11295
0
LINE
8
BLACK
6
CONTINUOUS
10
1.63695
20
-7.11295
11
1.62945
21
-7.12045
0
LINE
8
BLACK
6
CONTINUOUS
10
1.62945
20
-7.12045
11
1.6182
21
-7.1242
0
LINE
8
BLACK
6
CONTINUOUS
10
1.6182
20
-7.1242
11
1.59946
21
-7.1242
0
LINE
8
BLACK
6
CONTINUOUS
10
1.6782
20
-7.1242
11
1.6782
21
-7.07171
0
LINE
8
BLACK
6
CONTINUOUS
10
1.6782
20
-7.08671
11
1.68195
21
-7.07921
0
LINE
8
BLACK
6
CONTINUOUS
10
1.68195
20
-7.07921
11
1.6857
21
-7.07546
0
LINE
8
BLACK
6
CONTINUOUS
10
1.6857
20
-7.07546
11
1.69319
21
-7.07171
0
LINE
8
BLACK
6
CONTINUOUS
10
1.69319
20
-7.07171
11
1.70069
21
-7.07171
0
LINE
8
BLACK
6
CONTINUOUS
10
1.72694
20
-7.1242
11
1.72694
21
-7.07171
0
LINE
8
BLACK
6
CONTINUOUS
10
1.72694
20
-7.04546
11
1.72319
21
-7.04921
0
LINE
8
BLACK
6
CONTINUOUS
10
1.72319
20
-7.04921
11
1.72694
21
-7.05296
0
LINE
8
BLACK
6
CONTINUOUS
10
1.72694
20
-7.05296
11
1.73069
21
-7.04921
0
LINE
8
BLACK
6
CONTINUOUS
10
1.73069
20
-7.04921
11
1.72694
21
-7.04546
0
LINE
8
BLACK
6
CONTINUOUS
10
1.72694
20
-7.04546
11
1.72694
21
-7.05296
0
LINE
8
BLACK
6
CONTINUOUS
10
1.77568
20
-7.1242
11
1.76819
21
-7.12045
0
LINE
8
BLACK
6
CONTINUOUS
10
1.76819
20
-7.12045
11
1.76444
21
-7.11295
0
LINE
8
BLACK
6
CONTINUOUS
10
1.76444
20
-7.11295
11
1.76444
21
-7.04546
0
LINE
8
BLACK
6
CONTINUOUS
10
1.81693
20
-7.1242
11
1.80943
21
-7.12045
0
LINE
8
BLACK
6
CONTINUOUS
10
1.80943
20
-7.12045
11
1.80568
21
-7.11295
0
LINE
8
BLACK
6
CONTINUOUS
10
1.80568
20
-7.11295
11
1.80568
21
-7.04546
0
LINE
8
BLACK
6
CONTINUOUS
10
1.90692
20
-7.1242
11
1.90692
21
-7.04546
0
LINE
8
BLACK
6
CONTINUOUS
10
1.90692
20
-7.04546
11
1.93316
21
-7.10171
0
LINE
8
BLACK
6
CONTINUOUS
10
1.93316
20
-7.10171
11
1.95941
21
-7.04546
0
LINE
8
BLACK
6
CONTINUOUS
10
1.95941
20
-7.04546
11
1.95941
21
-7.1242
0
LINE
8
BLACK
6
CONTINUOUS
10
2.03065
20
-7.1242
11
2.03065
21
-7.08296
0
LINE
8
BLACK
6
CONTINUOUS
10
2.03065
20
-7.08296
11
2.0269
21
-7.07546
0
LINE
8
BLACK
6
CONTINUOUS
10
2.0269
20
-7.07546
11
2.0194
21
-7.07171
0
LINE
8
BLACK
6
CONTINUOUS
10
2.0194
20
-7.07171
11
2.00441
21
-7.07171
0
LINE
8
BLACK
6
CONTINUOUS
10
2.00441
20
-7.07171
11
1.99691
21
-7.07546
0
LINE
8
BLACK
6
CONTINUOUS
10
2.03065
20
-7.12045
11
2.02315
21
-7.1242
0
LINE
8
BLACK
6
CONTINUOUS
10
2.02315
20
-7.1242
11
2.00441
21
-7.1242
0
LINE
8
BLACK
6
CONTINUOUS
10
2.00441
20
-7.1242
11
1.99691
21
-7.12045
0
LINE
8
BLACK
6
CONTINUOUS
10
1.99691
20
-7.12045
11
1.99316
21
-7.11295
0
LINE
8
BLACK
6
CONTINUOUS
10
1.99316
20
-7.11295
11
1.99316
21
-7.10546
0
LINE
8
BLACK
6
CONTINUOUS
10
1.99316
20
-7.10546
11
1.99691
21
-7.09796
0
LINE
8
BLACK
6
CONTINUOUS
10
1.99691
20
-7.09796
11
2.00441
21
-7.09421
0
LINE
8
BLACK
6
CONTINUOUS
10
2.00441
20
-7.09421
11
2.02315
21
-7.09421
0
LINE
8
BLACK
6
CONTINUOUS
10
2.02315
20
-7.09421
11
2.03065
21
-7.09046
0
LINE
8
BLACK
6
CONTINUOUS
10
2.06815
20
-7.07171
11
2.06815
21
-7.15045
0
LINE
8
BLACK
6
CONTINUOUS
10
2.06815
20
-7.07546
11
2.07565
21
-7.07171
0
LINE
8
BLACK
6
CONTINUOUS
10
2.07565
20
-7.07171
11
2.09064
21
-7.07171
0
LINE
8
BLACK
6
CONTINUOUS
10
2.09064
20
-7.07171
11
2.09814
21
-7.07546
0
LINE
8
BLACK
6
CONTINUOUS
10
2.09814
20
-7.07546
11
2.10189
21
-7.07921
0
LINE
8
BLACK
6
CONTINUOUS
10
2.10189
20
-7.07921
11
2.10564
21
-7.08671
0
LINE
8
BLACK
6
CONTINUOUS
10
2.10564
20
-7.08671
11
2.10564
21
-7.10921
0
LINE
8
BLACK
6
CONTINUOUS
10
2.10564
20
-7.10921
11
2.10189
21
-7.1167
0
LINE
8
BLACK
6
CONTINUOUS
10
2.10189
20
-7.1167
11
2.09814
21
-7.12045
0
LINE
8
BLACK
6
CONTINUOUS
10
2.09814
20
-7.12045
11
2.09064
21
-7.1242
0
LINE
8
BLACK
6
CONTINUOUS
10
2.09064
20
-7.1242
11
2.07565
21
-7.1242
0
LINE
8
BLACK
6
CONTINUOUS
10
2.07565
20
-7.1242
11
2.06815
21
-7.12045
0
LINE
8
BLACK
6
CONTINUOUS
10
2.13939
20
-7.1167
11
2.14314
21
-7.12045
0
LINE
8
BLACK
6
CONTINUOUS
10
2.14314
20
-7.12045
11
2.13939
21
-7.1242
0
LINE
8
BLACK
6
CONTINUOUS
10
2.13939
20
-7.1242
11
2.13564
21
-7.12045
0
LINE
8
BLACK
6
CONTINUOUS
10
2.13564
20
-7.12045
11
2.13939
21
-7.1167
0
LINE
8
BLACK
6
CONTINUOUS
10
2.13939
20
-7.1167
11
2.13939
21
-7.1242
0
LINE
8
BLACK
6
CONTINUOUS
10
2.13939
20
-7.07546
11
2.14314
21
-7.07921
0
LINE
8
BLACK
6
CONTINUOUS
10
2.14314
20
-7.07921
11
2.13939
21
-7.08296
0
LINE
8
BLACK
6
CONTINUOUS
10
2.13939
20
-7.08296
11
2.13564
21
-7.07921
0
LINE
8
BLACK
6
CONTINUOUS
10
2.13564
20
-7.07921
11
2.13939
21
-7.07546
0
LINE
8
BLACK
6
CONTINUOUS
10
2.13939
20
-7.07546
11
2.13939
21
-7.08296
0
LINE
8
BLACK
6
CONTINUOUS
10
1.46654
20
-7.23819
11
1.49803
21
-7.26969
0
LINE
8
BLACK
6
CONTINUOUS
10
1.49803
20
-7.23819
11
1.46654
21
-7.26969
0
LINE
8
BLACK
6
CONTINUOUS
10
1.61445
20
-7.21082
11
1.62195
21
-7.21082
0
LINE
8
BLACK
6
CONTINUOUS
10
1.62195
20
-7.21082
11
1.62945
21
-7.21457
0
LINE
8
BLACK
6
CONTINUOUS
10
1.62945
20
-7.21457
11
1.6332
21
-7.21832
0
LINE
8
BLACK
6
CONTINUOUS
10
1.6332
20
-7.21832
11
1.63695
21
-7.22582
0
LINE
8
BLACK
6
CONTINUOUS
10
1.63695
20
-7.22582
11
1.6407
21
-7.24081
0
LINE
8
BLACK
6
CONTINUOUS
10
1.6407
20
-7.24081
11
1.6407
21
-7.25956
0
LINE
8
BLACK
6
CONTINUOUS
10
1.6407
20
-7.25956
11
1.63695
21
-7.27456
0
LINE
8
BLACK
6
CONTINUOUS
10
1.63695
20
-7.27456
11
1.6332
21
-7.28206
0
LINE
8
BLACK
6
CONTINUOUS
10
1.6332
20
-7.28206
11
1.62945
21
-7.28581
0
LINE
8
BLACK
6
CONTINUOUS
10
1.62945
20
-7.28581
11
1.62195
21
-7.28956
0
LINE
8
BLACK
6
CONTINUOUS
10
1.62195
20
-7.28956
11
1.61445
21
-7.28956
0
LINE
8
BLACK
6
CONTINUOUS
10
1.61445
20
-7.28956
11
1.60696
21
-7.28581
0
LINE
8
BLACK
6
CONTINUOUS
10
1.60696
20
-7.28581
11
1.60321
21
-7.28206
0
LINE
8
BLACK
6
CONTINUOUS
10
1.60321
20
-7.28206
11
1.59946
21
-7.27456
0
LINE
8
BLACK
6
CONTINUOUS
10
1.59946
20
-7.27456
11
1.59571
21
-7.25956
0
LINE
8
BLACK
6
CONTINUOUS
10
1.59571
20
-7.25956
11
1.59571
21
-7.24081
0
LINE
8
BLACK
6
CONTINUOUS
10
1.59571
20
-7.24081
11
1.59946
21
-7.22582
0
LINE
8
BLACK
6
CONTINUOUS
10
1.59946
20
-7.22582
11
1.60321
21
-7.21832
0
LINE
8
BLACK
6
CONTINUOUS
10
1.60321
20
-7.21832
11
1.60696
21
-7.21457
0
LINE
8
BLACK
6
CONTINUOUS
10
1.60696
20
-7.21457
11
1.61445
21
-7.21082
0
LINE
8
BLACK
6
CONTINUOUS
10
1.67445
20
-7.28206
11
1.6782
21
-7.28581
0
LINE
8
BLACK
6
CONTINUOUS
10
1.6782
20
-7.28581
11
1.67445
21
-7.28956
0
LINE
8
BLACK
6
CONTINUOUS
10
1.67445
20
-7.28956
11
1.6707
21
-7.28581
0
LINE
8
BLACK
6
CONTINUOUS
10
1.6707
20
-7.28581
11
1.67445
21
-7.28206
0
LINE
8
BLACK
6
CONTINUOUS
10
1.67445
20
-7.28206
11
1.67445
21
-7.28956
0
LINE
8
BLACK
6
CONTINUOUS
10
1.72319
20
-7.24456
11
1.71569
21
-7.24081
0
LINE
8
BLACK
6
CONTINUOUS
10
1.71569
20
-7.24081
11
1.71194
21
-7.23706
0
LINE
8
BLACK
6
CONTINUOUS
10
1.71194
20
-7.23706
11
1.70819
21
-7.22957
0
LINE
8
BLACK
6
CONTINUOUS
10
1.70819
20
-7.22957
11
1.70819
21
-7.22582
0
LINE
8
BLACK
6
CONTINUOUS
10
1.70819
20
-7.22582
11
1.71194
21
-7.21832
0
LINE
8
BLACK
6
CONTINUOUS
10
1.71194
20
-7.21832
11
1.71569
21
-7.21457
0
LINE
8
BLACK
6
CONTINUOUS
10
1.71569
20
-7.21457
11
1.72319
21
-7.21082
0
LINE
8
BLACK
6
CONTINUOUS
10
1.72319
20
-7.21082
11
1.73819
21
-7.21082
0
LINE
8
BLACK
6
CONTINUOUS
10
1.73819
20
-7.21082
11
1.74569
21
-7.21457
0
LINE
8
BLACK
6
CONTINUOUS
10
1.74569
20
-7.21457
11
1.74944
21
-7.21832
0
LINE
8
BLACK
6
CONTINUOUS
10
1.74944
20
-7.21832
11
1.75319
21
-7.22582
0
LINE
8
BLACK
6
CONTINUOUS
10
1.75319
20
-7.22582
11
1.75319
21
-7.22957
0
LINE
8
BLACK
6
CONTINUOUS
10
1.75319
20
-7.22957
11
1.74944
21
-7.23706
0
LINE
8
BLACK
6
CONTINUOUS
10
1.74944
20
-7.23706
11
1.74569
21
-7.24081
0
LINE
8
BLACK
6
CONTINUOUS
10
1.74569
20
-7.24081
11
1.73819
21
-7.24456
0
LINE
8
BLACK
6
CONTINUOUS
10
1.73819
20
-7.24456
11
1.72319
21
-7.24456
0
LINE
8
BLACK
6
CONTINUOUS
10
1.72319
20
-7.24456
11
1.71569
21
-7.24831
0
LINE
8
BLACK
6
CONTINUOUS
10
1.71569
20
-7.24831
11
1.71194
21
-7.25206
0
LINE
8
BLACK
6
CONTINUOUS
10
1.71194
20
-7.25206
11
1.70819
21
-7.25956
0
LINE
8
BLACK
6
CONTINUOUS
10
1.70819
20
-7.25956
11
1.70819
21
-7.27456
0
LINE
8
BLACK
6
CONTINUOUS
10
1.70819
20
-7.27456
11
1.71194
21
-7.28206
0
LINE
8
BLACK
6
CONTINUOUS
10
1.71194
20
-7.28206
11
1.71569
21
-7.28581
0
LINE
8
BLACK
6
CONTINUOUS
10
1.71569
20
-7.28581
11
1.72319
21
-7.28956
0
LINE
8
BLACK
6
CONTINUOUS
10
1.72319
20
-7.28956
11
1.73819
21
-7.28956
0
LINE
8
BLACK
6
CONTINUOUS
10
1.73819
20
-7.28956
11
1.74569
21
-7.28581
0
LINE
8
BLACK
6
CONTINUOUS
10
1.74569
20
-7.28581
11
1.74944
21
-7.28206
0
LINE
8
BLACK
6
CONTINUOUS
10
1.74944
20
-7.28206
11
1.75319
21
-7.27456
0
LINE
8
BLACK
6
CONTINUOUS
10
1.75319
20
-7.27456
11
1.75319
21
-7.25956
0
LINE
8
BLACK
6
CONTINUOUS
10
1.75319
20
-7.25956
11
1.74944
21
-7.25206
0
LINE
8
BLACK
6
CONTINUOUS
10
1.74944
20
-7.25206
11
1.74569
21
-7.24831
0
LINE
8
BLACK
6
CONTINUOUS
10
1.74569
20
-7.24831
11
1.73819
21
-7.24456
0
LINE
8
BLACK
6
CONTINUOUS
10
1.80193
20
-7.21082
11
1.80943
21
-7.21082
0
LINE
8
BLACK
6
CONTINUOUS
10
1.80943
20
-7.21082
11
1.81693
21
-7.21457
0
LINE
8
BLACK
6
CONTINUOUS
10
1.81693
20
-7.21457
11
1.82068
21
-7.21832
0
LINE
8
BLACK
6
CONTINUOUS
10
1.82068
20
-7.21832
11
1.82443
21
-7.22582
0
LINE
8
BLACK
6
CONTINUOUS
10
1.82443
20
-7.22582
11
1.82818
21
-7.24081
0
LINE
8
BLACK
6
CONTINUOUS
10
1.82818
20
-7.24081
11
1.82818
21
-7.25956
0
LINE
8
BLACK
6
CONTINUOUS
10
1.82818
20
-7.25956
11
1.82443
21
-7.27456
0
LINE
8
BLACK
6
CONTINUOUS
10
1.82443
20
-7.27456
11
1.82068
21
-7.28206
0
LINE
8
BLACK
6
CONTINUOUS
10
1.82068
20
-7.28206
11
1.81693
21
-7.28581
0
LINE
8
BLACK
6
CONTINUOUS
10
1.81693
20
-7.28581
11
1.80943
21
-7.28956
0
LINE
8
BLACK
6
CONTINUOUS
10
1.80943
20
-7.28956
11
1.80193
21
-7.28956
0
LINE
8
BLACK
6
CONTINUOUS
10
1.80193
20
-7.28956
11
1.79443
21
-7.28581
0
LINE
8
BLACK
6
CONTINUOUS
10
1.79443
20
-7.28581
11
1.79068
21
-7.28206
0
LINE
8
BLACK
6
CONTINUOUS
10
1.79068
20
-7.28206
11
1.78693
21
-7.27456
0
LINE
8
BLACK
6
CONTINUOUS
10
1.78693
20
-7.27456
11
1.78318
21
-7.25956
0
LINE
8
BLACK
6
CONTINUOUS
10
1.78318
20
-7.25956
11
1.78318
21
-7.24081
0
LINE
8
BLACK
6
CONTINUOUS
10
1.78318
20
-7.24081
11
1.78693
21
-7.22582
0
LINE
8
BLACK
6
CONTINUOUS
10
1.78693
20
-7.22582
11
1.79068
21
-7.21832
0
LINE
8
BLACK
6
CONTINUOUS
10
1.79068
20
-7.21832
11
1.79443
21
-7.21457
0
LINE
8
BLACK
6
CONTINUOUS
10
1.79443
20
-7.21457
11
1.80193
21
-7.21082
0
LINE
8
BLACK
6
CONTINUOUS
10
1.87692
20
-7.21082
11
1.88442
21
-7.21082
0
LINE
8
BLACK
6
CONTINUOUS
10
1.88442
20
-7.21082
11
1.89192
21
-7.21457
0
LINE
8
BLACK
6
CONTINUOUS
10
1.89192
20
-7.21457
11
1.89567
21
-7.21832
0
LINE
8
BLACK
6
CONTINUOUS
10
1.89567
20
-7.21832
11
1.89942
21
-7.22582
0
LINE
8
BLACK
6
CONTINUOUS
10
1.89942
20
-7.22582
11
1.90317
21
-7.24081
0
LINE
8
BLACK
6
CONTINUOUS
10
1.90317
20
-7.24081
11
1.90317
21
-7.25956
0
LINE
8
BLACK
6
CONTINUOUS
10
1.90317
20
-7.25956
11
1.89942
21
-7.27456
0
LINE
8
BLACK
6
CONTINUOUS
10
1.89942
20
-7.27456
11
1.89567
21
-7.28206
0
LINE
8
BLACK
6
CONTINUOUS
10
1.89567
20
-7.28206
11
1.89192
21
-7.28581
0
LINE
8
BLACK
6
CONTINUOUS
10
1.89192
20
-7.28581
11
1.88442
21
-7.28956
0
LINE
8
BLACK
6
CONTINUOUS
10
1.88442
20
-7.28956
11
1.87692
21
-7.28956
0
LINE
8
BLACK
6
CONTINUOUS
10
1.87692
20
-7.28956
11
1.86942
21
-7.28581
0
LINE
8
BLACK
6
CONTINUOUS
10
1.86942
20
-7.28581
11
1.86567
21
-7.28206
0
LINE
8
BLACK
6
CONTINUOUS
10
1.86567
20
-7.28206
11
1.86192
21
-7.27456
0
LINE
8
BLACK
6
CONTINUOUS
10
1.86192
20
-7.27456
11
1.85817
21
-7.25956
0
LINE
8
BLACK
6
CONTINUOUS
10
1.85817
20
-7.25956
11
1.85817
21
-7.24081
0
LINE
8
BLACK
6
CONTINUOUS
10
1.85817
20
-7.24081
11
1.86192
21
-7.22582
0
LINE
8
BLACK
6
CONTINUOUS
10
1.86192
20
-7.22582
11
1.86567
21
-7.21832
0
LINE
8
BLACK
6
CONTINUOUS
10
1.86567
20
-7.21832
11
1.86942
21
-7.21457
0
LINE
8
BLACK
6
CONTINUOUS
10
1.86942
20
-7.21457
11
1.87692
21
-7.21082
0
LINE
8
BLACK
6
CONTINUOUS
10
1.93691
20
-7.28956
11
1.93691
21
-7.23706
0
LINE
8
BLACK
6
CONTINUOUS
10
1.93691
20
-7.24456
11
1.94066
21
-7.24081
0
LINE
8
BLACK
6
CONTINUOUS
10
1.94066
20
-7.24081
11
1.94816
21
-7.23706
0
LINE
8
BLACK
6
CONTINUOUS
10
1.94816
20
-7.23706
11
1.95941
21
-7.23706
0
LINE
8
BLACK
6
CONTINUOUS
10
1.95941
20
-7.23706
11
1.96691
21
-7.24081
0
LINE
8
BLACK
6
CONTINUOUS
10
1.96691
20
-7.24081
11
1.97066
21
-7.24831
0
LINE
8
BLACK
6
CONTINUOUS
10
1.97066
20
-7.24831
11
1.97066
21
-7.28956
0
LINE
8
BLACK
6
CONTINUOUS
10
1.97066
20
-7.24831
11
1.97441
21
-7.24081
0
LINE
8
BLACK
6
CONTINUOUS
10
1.97441
20
-7.24081
11
1.98191
21
-7.23706
0
LINE
8
BLACK
6
CONTINUOUS
10
1.98191
20
-7.23706
11
1.99316
21
-7.23706
0
LINE
8
BLACK
6
CONTINUOUS
10
1.99316
20
-7.23706
11
2.00066
21
-7.24081
0
LINE
8
BLACK
6
CONTINUOUS
10
2.00066
20
-7.24081
11
2.00441
21
-7.24831
0
LINE
8
BLACK
6
CONTINUOUS
10
2.00441
20
-7.24831
11
2.00441
21
-7.28956
0
LINE
8
BLACK
6
CONTINUOUS
10
2.0419
20
-7.28956
11
2.0419
21
-7.23706
0
LINE
8
BLACK
6
CONTINUOUS
10
2.0419
20
-7.24456
11
2.04565
21
-7.24081
0
LINE
8
BLACK
6
CONTINUOUS
10
2.04565
20
-7.24081
11
2.05315
21
-7.23706
0
LINE
8
BLACK
6
CONTINUOUS
10
2.05315
20
-7.23706
11
2.0644
21
-7.23706
0
LINE
8
BLACK
6
CONTINUOUS
10
2.0644
20
-7.23706
11
2.0719
21
-7.24081
0
LINE
8
BLACK
6
CONTINUOUS
10
2.0719
20
-7.24081
11
2.07565
21
-7.24831
0
LINE
8
BLACK
6
CONTINUOUS
10
2.07565
20
-7.24831
11
2.07565
21
-7.28956
0
LINE
8
BLACK
6
CONTINUOUS
10
2.07565
20
-7.24831
11
2.0794
21
-7.24081
0
LINE
8
BLACK
6
CONTINUOUS
10
2.0794
20
-7.24081
11
2.0869
21
-7.23706
0
LINE
8
BLACK
6
CONTINUOUS
10
2.0869
20
-7.23706
11
2.09814
21
-7.23706
0
LINE
8
BLACK
6
CONTINUOUS
10
2.09814
20
-7.23706
11
2.10564
21
-7.24081
0
LINE
8
BLACK
6
CONTINUOUS
10
2.10564
20
-7.24081
11
2.10939
21
-7.24831
0
LINE
8
BLACK
6
CONTINUOUS
10
2.10939
20
-7.24831
11
2.10939
21
-7.28956
0
LINE
8
BLACK
6
CONTINUOUS
10
2.26312
20
-7.20707
11
2.19563
21
-7.30831
0
LINE
8
BLACK
6
CONTINUOUS
10
2.36436
20
-7.21082
11
2.37186
21
-7.21082
0
LINE
8
BLACK
6
CONTINUOUS
10
2.37186
20
-7.21082
11
2.37936
21
-7.21457
0
LINE
8
BLACK
6
CONTINUOUS
10
2.37936
20
-7.21457
11
2.38311
21
-7.21832
0
LINE
8
BLACK
6
CONTINUOUS
10
2.38311
20
-7.21832
11
2.38686
21
-7.22582
0
LINE
8
BLACK
6
CONTINUOUS
10
2.38686
20
-7.22582
11
2.39061
21
-7.24081
0
LINE
8
BLACK
6
CONTINUOUS
10
2.39061
20
-7.24081
11
2.39061
21
-7.25956
0
LINE
8
BLACK
6
CONTINUOUS
10
2.39061
20
-7.25956
11
2.38686
21
-7.27456
0
LINE
8
BLACK
6
CONTINUOUS
10
2.38686
20
-7.27456
11
2.38311
21
-7.28206
0
LINE
8
BLACK
6
CONTINUOUS
10
2.38311
20
-7.28206
11
2.37936
21
-7.28581
0
LINE
8
BLACK
6
CONTINUOUS
10
2.37936
20
-7.28581
11
2.37186
21
-7.28956
0
LINE
8
BLACK
6
CONTINUOUS
10
2.37186
20
-7.28956
11
2.36436
21
-7.28956
0
LINE
8
BLACK
6
CONTINUOUS
10
2.36436
20
-7.28956
11
2.35686
21
-7.28581
0
LINE
8
BLACK
6
CONTINUOUS
10
2.35686
20
-7.28581
11
2.35311
21
-7.28206
0
LINE
8
BLACK
6
CONTINUOUS
10
2.35311
20
-7.28206
11
2.34936
21
-7.27456
0
LINE
8
BLACK
6
CONTINUOUS
10
2.34936
20
-7.27456
11
2.34561
21
-7.25956
0
LINE
8
BLACK
6
CONTINUOUS
10
2.34561
20
-7.25956
11
2.34561
21
-7.24081
0
LINE
8
BLACK
6
CONTINUOUS
10
2.34561
20
-7.24081
11
2.34936
21
-7.22582
0
LINE
8
BLACK
6
CONTINUOUS
10
2.34936
20
-7.22582
11
2.35311
21
-7.21832
0
LINE
8
BLACK
6
CONTINUOUS
10
2.35311
20
-7.21832
11
2.35686
21
-7.21457
0
LINE
8
BLACK
6
CONTINUOUS
10
2.35686
20
-7.21457
11
2.36436
21
-7.21082
0
LINE
8
BLACK
6
CONTINUOUS
10
2.42435
20
-7.28206
11
2.4281
21
-7.28581
0
LINE
8
BLACK
6
CONTINUOUS
10
2.4281
20
-7.28581
11
2.42435
21
-7.28956
0
LINE
8
BLACK
6
CONTINUOUS
10
2.42435
20
-7.28956
11
2.4206
21
-7.28581
0
LINE
8
BLACK
6
CONTINUOUS
10
2.4206
20
-7.28581
11
2.42435
21
-7.28206
0
LINE
8
BLACK
6
CONTINUOUS
10
2.42435
20
-7.28206
11
2.42435
21
-7.28956
0
LINE
8
BLACK
6
CONTINUOUS
10
2.47685
20
-7.21082
11
2.48435
21
-7.21082
0
LINE
8
BLACK
6
CONTINUOUS
10
2.48435
20
-7.21082
11
2.49184
21
-7.21457
0
LINE
8
BLACK
6
CONTINUOUS
10
2.49184
20
-7.21457
11
2.49559
21
-7.21832
0
LINE
8
BLACK
6
CONTINUOUS
10
2.49559
20
-7.21832
11
2.49934
21
-7.22582
0
LINE
8
BLACK
6
CONTINUOUS
10
2.49934
20
-7.22582
11
2.50309
21
-7.24081
0
LINE
8
BLACK
6
CONTINUOUS
10
2.50309
20
-7.24081
11
2.50309
21
-7.25956
0
LINE
8
BLACK
6
CONTINUOUS
10
2.50309
20
-7.25956
11
2.49934
21
-7.27456
0
LINE
8
BLACK
6
CONTINUOUS
10
2.49934
20
-7.27456
11
2.49559
21
-7.28206
0
LINE
8
BLACK
6
CONTINUOUS
10
2.49559
20
-7.28206
11
2.49184
21
-7.28581
0
LINE
8
BLACK
6
CONTINUOUS
10
2.49184
20
-7.28581
11
2.48435
21
-7.28956
0
LINE
8
BLACK
6
CONTINUOUS
10
2.48435
20
-7.28956
11
2.47685
21
-7.28956
0
LINE
8
BLACK
6
CONTINUOUS
10
2.47685
20
-7.28956
11
2.46935
21
-7.28581
0
LINE
8
BLACK
6
CONTINUOUS
10
2.46935
20
-7.28581
11
2.4656
21
-7.28206
0
LINE
8
BLACK
6
CONTINUOUS
10
2.4656
20
-7.28206
11
2.46185
21
-7.27456
0
LINE
8
BLACK
6
CONTINUOUS
10
2.46185
20
-7.27456
11
2.4581
21
-7.25956
0
LINE
8
BLACK
6
CONTINUOUS
10
2.4581
20
-7.25956
11
2.4581
21
-7.24081
0
LINE
8
BLACK
6
CONTINUOUS
10
2.4581
20
-7.24081
11
2.46185
21
-7.22582
0
LINE
8
BLACK
6
CONTINUOUS
10
2.46185
20
-7.22582
11
2.4656
21
-7.21832
0
LINE
8
BLACK
6
CONTINUOUS
10
2.4656
20
-7.21832
11
2.46935
21
-7.21457
0
LINE
8
BLACK
6
CONTINUOUS
10
2.46935
20
-7.21457
11
2.47685
21
-7.21082
0
LINE
8
BLACK
6
CONTINUOUS
10
2.52934
20
-7.21082
11
2.57808
21
-7.21082
0
LINE
8
BLACK
6
CONTINUOUS
10
2.57808
20
-7.21082
11
2.55184
21
-7.24081
0
LINE
8
BLACK
6
CONTINUOUS
10
2.55184
20
-7.24081
11
2.56309
21
-7.24081
0
LINE
8
BLACK
6
CONTINUOUS
10
2.56309
20
-7.24081
11
2.57058
21
-7.24456
0
LINE
8
BLACK
6
CONTINUOUS
10
2.57058
20
-7.24456
11
2.57433
21
-7.24831
0
LINE
8
BLACK
6
CONTINUOUS
10
2.57433
20
-7.24831
11
2.57808
21
-7.25581
0
LINE
8
BLACK
6
CONTINUOUS
10
2.57808
20
-7.25581
11
2.57808
21
-7.27456
0
LINE
8
BLACK
6
CONTINUOUS
10
2.57808
20
-7.27456
11
2.57433
21
-7.28206
0
LINE
8
BLACK
6
CONTINUOUS
10
2.57433
20
-7.28206
11
2.57058
21
-7.28581
0
LINE
8
BLACK
6
CONTINUOUS
10
2.57058
20
-7.28581
11
2.56309
21
-7.28956
0
LINE
8
BLACK
6
CONTINUOUS
10
2.56309
20
-7.28956
11
2.54059
21
-7.28956
0
LINE
8
BLACK
6
CONTINUOUS
10
2.54059
20
-7.28956
11
2.53309
21
-7.28581
0
LINE
8
BLACK
6
CONTINUOUS
10
2.53309
20
-7.28581
11
2.52934
21
-7.28206
0
LINE
8
BLACK
6
CONTINUOUS
10
2.65307
20
-7.28956
11
2.60808
21
-7.28956
0
LINE
8
BLACK
6
CONTINUOUS
10
2.63058
20
-7.28956
11
2.63058
21
-7.21082
0
LINE
8
BLACK
6
CONTINUOUS
10
2.63058
20
-7.21082
11
2.62308
21
-7.22207
0
LINE
8
BLACK
6
CONTINUOUS
10
2.62308
20
-7.22207
11
2.61558
21
-7.22957
0
LINE
8
BLACK
6
CONTINUOUS
10
2.61558
20
-7.22957
11
2.60808
21
-7.23331
0
LINE
8
BLACK
6
CONTINUOUS
10
2.72432
20
-7.21082
11
2.68682
21
-7.21082
0
LINE
8
BLACK
6
CONTINUOUS
10
2.68682
20
-7.21082
11
2.68307
21
-7.24831
0
LINE
8
BLACK
6
CONTINUOUS
10
2.68307
20
-7.24831
11
2.68682
21
-7.24456
0
LINE
8
BLACK
6
CONTINUOUS
10
2.68682
20
-7.24456
11
2.69432
21
-7.24081
0
LINE
8
BLACK
6
CONTINUOUS
10
2.69432
20
-7.24081
11
2.71307
21
-7.24081
0
LINE
8
BLACK
6
CONTINUOUS
10
2.71307
20
-7.24081
11
2.72057
21
-7.24456
0
LINE
8
BLACK
6
CONTINUOUS
10
2.72057
20
-7.24456
11
2.72432
21
-7.24831
0
LINE
8
BLACK
6
CONTINUOUS
10
2.72432
20
-7.24831
11
2.72807
21
-7.25581
0
LINE
8
BLACK
6
CONTINUOUS
10
2.72807
20
-7.25581
11
2.72807
21
-7.27456
0
LINE
8
BLACK
6
CONTINUOUS
10
2.72807
20
-7.27456
11
2.72432
21
-7.28206
0
LINE
8
BLACK
6
CONTINUOUS
10
2.72432
20
-7.28206
11
2.72057
21
-7.28581
0
LINE
8
BLACK
6
CONTINUOUS
10
2.72057
20
-7.28581
11
2.71307
21
-7.28956
0
LINE
8
BLACK
6
CONTINUOUS
10
2.71307
20
-7.28956
11
2.69432
21
-7.28956
0
LINE
8
BLACK
6
CONTINUOUS
10
2.69432
20
-7.28956
11
2.68682
21
-7.28581
0
LINE
8
BLACK
6
CONTINUOUS
10
2.68682
20
-7.28581
11
2.68307
21
-7.28206
0
LINE
8
BLACK
6
CONTINUOUS
10
2.75806
20
-7.21082
11
2.75806
21
-7.22582
0
LINE
8
BLACK
6
CONTINUOUS
10
2.78806
20
-7.21082
11
2.78806
21
-7.22582
0
LINE
8
BLACK
6
CONTINUOUS
10
2.90429
20
-7.31955
11
2.90054
21
-7.3158
0
LINE
8
BLACK
6
CONTINUOUS
10
2.90054
20
-7.3158
11
2.89304
21
-7.30456
0
LINE
8
BLACK
6
CONTINUOUS
10
2.89304
20
-7.30456
11
2.8893
21
-7.29706
0
LINE
8
BLACK
6
CONTINUOUS
10
2.8893
20
-7.29706
11
2.88555
21
-7.28581
0
LINE
8
BLACK
6
CONTINUOUS
10
2.88555
20
-7.28581
11
2.8818
21
-7.26706
0
LINE
8
BLACK
6
CONTINUOUS
10
2.8818
20
-7.26706
11
2.8818
21
-7.25206
0
LINE
8
BLACK
6
CONTINUOUS
10
2.8818
20
-7.25206
11
2.88555
21
-7.23331
0
LINE
8
BLACK
6
CONTINUOUS
10
2.88555
20
-7.23331
11
2.8893
21
-7.22207
0
LINE
8
BLACK
6
CONTINUOUS
10
2.8893
20
-7.22207
11
2.89304
21
-7.21457
0
LINE
8
BLACK
6
CONTINUOUS
10
2.89304
20
-7.21457
11
2.90054
21
-7.20332
0
LINE
8
BLACK
6
CONTINUOUS
10
2.90054
20
-7.20332
11
2.90429
21
-7.19957
0
LINE
8
BLACK
6
CONTINUOUS
10
2.97178
20
-7.21082
11
2.93429
21
-7.21082
0
LINE
8
BLACK
6
CONTINUOUS
10
2.93429
20
-7.21082
11
2.93054
21
-7.24831
0
LINE
8
BLACK
6
CONTINUOUS
10
2.93054
20
-7.24831
11
2.93429
21
-7.24456
0
LINE
8
BLACK
6
CONTINUOUS
10
2.93429
20
-7.24456
11
2.94179
21
-7.24081
0
LINE
8
BLACK
6
CONTINUOUS
10
2.94179
20
-7.24081
11
2.96054
21
-7.24081
0
LINE
8
BLACK
6
CONTINUOUS
10
2.96054
20
-7.24081
11
2.96804
21
-7.24456
0
LINE
8
BLACK
6
CONTINUOUS
10
2.96804
20
-7.24456
11
2.97178
21
-7.24831
0
LINE
8
BLACK
6
CONTINUOUS
10
2.97178
20
-7.24831
11
2.97553
21
-7.25581
0
LINE
8
BLACK
6
CONTINUOUS
10
2.97553
20
-7.25581
11
2.97553
21
-7.27456
0
LINE
8
BLACK
6
CONTINUOUS
10
2.97553
20
-7.27456
11
2.97178
21
-7.28206
0
LINE
8
BLACK
6
CONTINUOUS
10
2.97178
20
-7.28206
11
2.96804
21
-7.28581
0
LINE
8
BLACK
6
CONTINUOUS
10
2.96804
20
-7.28581
11
2.96054
21
-7.28956
0
LINE
8
BLACK
6
CONTINUOUS
10
2.96054
20
-7.28956
11
2.94179
21
-7.28956
0
LINE
8
BLACK
6
CONTINUOUS
10
2.94179
20
-7.28956
11
2.93429
21
-7.28581
0
LINE
8
BLACK
6
CONTINUOUS
10
2.93429
20
-7.28581
11
2.93054
21
-7.28206
0
LINE
8
BLACK
6
CONTINUOUS
10
3.04303
20
-7.23706
11
3.04303
21
-7.28956
0
LINE
8
BLACK
6
CONTINUOUS
10
3.02428
20
-7.20707
11
3.00553
21
-7.26331
0
LINE
8
BLACK
6
CONTINUOUS
10
3.00553
20
-7.26331
11
3.05427
21
-7.26331
0
LINE
8
BLACK
6
CONTINUOUS
10
3.14426
20
-7.28956
11
3.14426
21
-7.21082
0
LINE
8
BLACK
6
CONTINUOUS
10
3.17801
20
-7.28956
11
3.17801
21
-7.24831
0
LINE
8
BLACK
6
CONTINUOUS
10
3.17801
20
-7.24831
11
3.17426
21
-7.24081
0
LINE
8
BLACK
6
CONTINUOUS
10
3.17426
20
-7.24081
11
3.16676
21
-7.23706
0
LINE
8
BLACK
6
CONTINUOUS
10
3.16676
20
-7.23706
11
3.15551
21
-7.23706
0
LINE
8
BLACK
6
CONTINUOUS
10
3.15551
20
-7.23706
11
3.14801
21
-7.24081
0
LINE
8
BLACK
6
CONTINUOUS
10
3.14801
20
-7.24081
11
3.14426
21
-7.24456
0
LINE
8
BLACK
6
CONTINUOUS
10
3.22675
20
-7.28956
11
3.21925
21
-7.28581
0
LINE
8
BLACK
6
CONTINUOUS
10
3.21925
20
-7.28581
11
3.2155
21
-7.28206
0
LINE
8
BLACK
6
CONTINUOUS
10
3.2155
20
-7.28206
11
3.21175
21
-7.27456
0
LINE
8
BLACK
6
CONTINUOUS
10
3.21175
20
-7.27456
11
3.21175
21
-7.25206
0
LINE
8
BLACK
6
CONTINUOUS
10
3.21175
20
-7.25206
11
3.2155
21
-7.24456
0
LINE
8
BLACK
6
CONTINUOUS
10
3.2155
20
-7.24456
11
3.21925
21
-7.24081
0
LINE
8
BLACK
6
CONTINUOUS
10
3.21925
20
-7.24081
11
3.22675
21
-7.23706
0
LINE
8
BLACK
6
CONTINUOUS
10
3.22675
20
-7.23706
11
3.238
21
-7.23706
0
LINE
8
BLACK
6
CONTINUOUS
10
3.238
20
-7.23706
11
3.2455
21
-7.24081
0
LINE
8
BLACK
6
CONTINUOUS
10
3.2455
20
-7.24081
11
3.24925
21
-7.24456
0
LINE
8
BLACK
6
CONTINUOUS
10
3.24925
20
-7.24456
11
3.253
21
-7.25206
0
LINE
8
BLACK
6
CONTINUOUS
10
3.253
20
-7.25206
11
3.253
21
-7.27456
0
LINE
8
BLACK
6
CONTINUOUS
10
3.253
20
-7.27456
11
3.24925
21
-7.28206
0
LINE
8
BLACK
6
CONTINUOUS
10
3.24925
20
-7.28206
11
3.2455
21
-7.28581
0
LINE
8
BLACK
6
CONTINUOUS
10
3.2455
20
-7.28581
11
3.238
21
-7.28956
0
LINE
8
BLACK
6
CONTINUOUS
10
3.238
20
-7.28956
11
3.22675
21
-7.28956
0
LINE
8
BLACK
6
CONTINUOUS
10
3.29799
20
-7.28956
11
3.29049
21
-7.28581
0
LINE
8
BLACK
6
CONTINUOUS
10
3.29049
20
-7.28581
11
3.28675
21
-7.27831
0
LINE
8
BLACK
6
CONTINUOUS
10
3.28675
20
-7.27831
11
3.28675
21
-7.21082
0
LINE
8
BLACK
6
CONTINUOUS
10
3.35799
20
-7.28581
11
3.35049
21
-7.28956
0
LINE
8
BLACK
6
CONTINUOUS
10
3.35049
20
-7.28956
11
3.33549
21
-7.28956
0
LINE
8
BLACK
6
CONTINUOUS
10
3.33549
20
-7.28956
11
3.32799
21
-7.28581
0
LINE
8
BLACK
6
CONTINUOUS
10
3.32799
20
-7.28581
11
3.32424
21
-7.27831
0
LINE
8
BLACK
6
CONTINUOUS
10
3.32424
20
-7.27831
11
3.32424
21
-7.24831
0
LINE
8
BLACK
6
CONTINUOUS
10
3.32424
20
-7.24831
11
3.32799
21
-7.24081
0
LINE
8
BLACK
6
CONTINUOUS
10
3.32799
20
-7.24081
11
3.33549
21
-7.23706
0
LINE
8
BLACK
6
CONTINUOUS
10
3.33549
20
-7.23706
11
3.35049
21
-7.23706
0
LINE
8
BLACK
6
CONTINUOUS
10
3.35049
20
-7.23706
11
3.35799
21
-7.24081
0
LINE
8
BLACK
6
CONTINUOUS
10
3.35799
20
-7.24081
11
3.36174
21
-7.24831
0
LINE
8
BLACK
6
CONTINUOUS
10
3.36174
20
-7.24831
11
3.36174
21
-7.25581
0
LINE
8
BLACK
6
CONTINUOUS
10
3.36174
20
-7.25581
11
3.32424
21
-7.26331
0
LINE
8
BLACK
6
CONTINUOUS
10
3.39173
20
-7.28581
11
3.39923
21
-7.28956
0
LINE
8
BLACK
6
CONTINUOUS
10
3.39923
20
-7.28956
11
3.41423
21
-7.28956
0
LINE
8
BLACK
6
CONTINUOUS
10
3.41423
20
-7.28956
11
3.42173
21
-7.28581
0
LINE
8
BLACK
6
CONTINUOUS
10
3.42173
20
-7.28581
11
3.42548
21
-7.27831
0
LINE
8
BLACK
6
CONTINUOUS
10
3.42548
20
-7.27831
11
3.42548
21
-7.27456
0
LINE
8
BLACK
6
CONTINUOUS
10
3.42548
20
-7.27456
11
3.42173
21
-7.26706
0
LINE
8
BLACK
6
CONTINUOUS
10
3.42173
20
-7.26706
11
3.41423
21
-7.26331
0
LINE
8
BLACK
6
CONTINUOUS
10
3.41423
20
-7.26331
11
3.40298
21
-7.26331
0
LINE
8
BLACK
6
CONTINUOUS
10
3.40298
20
-7.26331
11
3.39548
21
-7.25956
0
LINE
8
BLACK
6
CONTINUOUS
10
3.39548
20
-7.25956
11
3.39173
21
-7.25206
0
LINE
8
BLACK
6
CONTINUOUS
10
3.39173
20
-7.25206
11
3.39173
21
-7.24831
0
LINE
8
BLACK
6
CONTINUOUS
10
3.39173
20
-7.24831
11
3.39548
21
-7.24081
0
LINE
8
BLACK
6
CONTINUOUS
10
3.39548
20
-7.24081
11
3.40298
21
-7.23706
0
LINE
8
BLACK
6
CONTINUOUS
10
3.40298
20
-7.23706
11
3.41423
21
-7.23706
0
LINE
8
BLACK
6
CONTINUOUS
10
3.41423
20
-7.23706
11
3.42173
21
-7.24081
0
LINE
8
BLACK
6
CONTINUOUS
10
3.45172
20
-7.31955
11
3.45547
21
-7.3158
0
LINE
8
BLACK
6
CONTINUOUS
10
3.45547
20
-7.3158
11
3.46297
21
-7.30456
0
LINE
8
BLACK
6
CONTINUOUS
10
3.46297
20
-7.30456
11
3.46672
21
-7.29706
0
LINE
8
BLACK
6
CONTINUOUS
10
3.46672
20
-7.29706
11
3.47047
21
-7.28581
0
LINE
8
BLACK
6
CONTINUOUS
10
3.47047
20
-7.28581
11
3.47422
21
-7.26706
0
LINE
8
BLACK
6
CONTINUOUS
10
3.47422
20
-7.26706
11
3.47422
21
-7.25206
0
LINE
8
BLACK
6
CONTINUOUS
10
3.47422
20
-7.25206
11
3.47047
21
-7.23331
0
LINE
8
BLACK
6
CONTINUOUS
10
3.47047
20
-7.23331
11
3.46672
21
-7.22207
0
LINE
8
BLACK
6
CONTINUOUS
10
3.46672
20
-7.22207
11
3.46297
21
-7.21457
0
LINE
8
BLACK
6
CONTINUOUS
10
3.46297
20
-7.21457
11
3.45547
21
-7.20332
0
LINE
8
BLACK
6
CONTINUOUS
10
3.45547
20
-7.20332
11
3.45172
21
-7.19957
0
CIRCLE
8
BLACK
10
1.48033
20
-7.35787
40
0.0177
0
LINE
8
BLACK
6
CONTINUOUS
10
1.61445
20
-7.31475
11
1.62195
21
-7.31475
0
LINE
8
BLACK
6
CONTINUOUS
10
1.62195
20
-7.31475
11
1.62945
21
-7.3185
0
LINE
8
BLACK
6
CONTINUOUS
10
1.62945
20
-7.3185
11
1.6332
21
-7.32225
0
LINE
8
BLACK
6
CONTINUOUS
10
1.6332
20
-7.32225
11
1.63695
21
-7.32975
0
LINE
8
BLACK
6
CONTINUOUS
10
1.63695
20
-7.32975
11
1.6407
21
-7.34475
0
LINE
8
BLACK
6
CONTINUOUS
10
1.6407
20
-7.34475
11
1.6407
21
-7.3635
0
LINE
8
BLACK
6
CONTINUOUS
10
1.6407
20
-7.3635
11
1.63695
21
-7.3785
0
LINE
8
BLACK
6
CONTINUOUS
10
1.63695
20
-7.3785
11
1.6332
21
-7.386
0
LINE
8
BLACK
6
CONTINUOUS
10
1.6332
20
-7.386
11
1.62945
21
-7.38975
0
LINE
8
BLACK
6
CONTINUOUS
10
1.62945
20
-7.38975
11
1.62195
21
-7.39349
0
LINE
8
BLACK
6
CONTINUOUS
10
1.62195
20
-7.39349
11
1.61445
21
-7.39349
0
LINE
8
BLACK
6
CONTINUOUS
10
1.61445
20
-7.39349
11
1.60696
21
-7.38975
0
LINE
8
BLACK
6
CONTINUOUS
10
1.60696
20
-7.38975
11
1.60321
21
-7.386
0
LINE
8
BLACK
6
CONTINUOUS
10
1.60321
20
-7.386
11
1.59946
21
-7.3785
0
LINE
8
BLACK
6
CONTINUOUS
10
1.59946
20
-7.3785
11
1.59571
21
-7.3635
0
LINE
8
BLACK
6
CONTINUOUS
10
1.59571
20
-7.3635
11
1.59571
21
-7.34475
0
LINE
8
BLACK
6
CONTINUOUS
10
1.59571
20
-7.34475
11
1.59946
21
-7.32975
0
LINE
8
BLACK
6
CONTINUOUS
10
1.59946
20
-7.32975
11
1.60321
21
-7.32225
0
LINE
8
BLACK
6
CONTINUOUS
10
1.60321
20
-7.32225
11
1.60696
21
-7.3185
0
LINE
8
BLACK
6
CONTINUOUS
10
1.60696
20
-7.3185
11
1.61445
21
-7.31475
0
LINE
8
BLACK
6
CONTINUOUS
10
1.67445
20
-7.386
11
1.6782
21
-7.38975
0
LINE
8
BLACK
6
CONTINUOUS
10
1.6782
20
-7.38975
11
1.67445
21
-7.39349
0
LINE
8
BLACK
6
CONTINUOUS
10
1.67445
20
-7.39349
11
1.6707
21
-7.38975
0
LINE
8
BLACK
6
CONTINUOUS
10
1.6707
20
-7.38975
11
1.67445
21
-7.386
0
LINE
8
BLACK
6
CONTINUOUS
10
1.67445
20
-7.386
11
1.67445
21
-7.39349
0
LINE
8
BLACK
6
CONTINUOUS
10
1.72319
20
-7.3485
11
1.71569
21
-7.34475
0
LINE
8
BLACK
6
CONTINUOUS
10
1.71569
20
-7.34475
11
1.71194
21
-7.341
0
LINE
8
BLACK
6
CONTINUOUS
10
1.71194
20
-7.341
11
1.70819
21
-7.3335
0
LINE
8
BLACK
6
CONTINUOUS
10
1.70819
20
-7.3335
11
1.70819
21
-7.32975
0
LINE
8
BLACK
6
CONTINUOUS
10
1.70819
20
-7.32975
11
1.71194
21
-7.32225
0
LINE
8
BLACK
6
CONTINUOUS
10
1.71194
20
-7.32225
11
1.71569
21
-7.3185
0
LINE
8
BLACK
6
CONTINUOUS
10
1.71569
20
-7.3185
11
1.72319
21
-7.31475
0
LINE
8
BLACK
6
CONTINUOUS
10
1.72319
20
-7.31475
11
1.73819
21
-7.31475
0
LINE
8
BLACK
6
CONTINUOUS
10
1.73819
20
-7.31475
11
1.74569
21
-7.3185
0
LINE
8
BLACK
6
CONTINUOUS
10
1.74569
20
-7.3185
11
1.74944
21
-7.32225
0
LINE
8
BLACK
6
CONTINUOUS
10
1.74944
20
-7.32225
11
1.75319
21
-7.32975
0
LINE
8
BLACK
6
CONTINUOUS
10
1.75319
20
-7.32975
11
1.75319
21
-7.3335
0
LINE
8
BLACK
6
CONTINUOUS
10
1.75319
20
-7.3335
11
1.74944
21
-7.341
0
LINE
8
BLACK
6
CONTINUOUS
10
1.74944
20
-7.341
11
1.74569
21
-7.34475
0
LINE
8
BLACK
6
CONTINUOUS
10
1.74569
20
-7.34475
11
1.73819
21
-7.3485
0
LINE
8
BLACK
6
CONTINUOUS
10
1.73819
20
-7.3485
11
1.72319
21
-7.3485
0
LINE
8
BLACK
6
CONTINUOUS
10
1.72319
20
-7.3485
11
1.71569
21
-7.35225
0
LINE
8
BLACK
6
CONTINUOUS
10
1.71569
20
-7.35225
11
1.71194
21
-7.356
0
LINE
8
BLACK
6
CONTINUOUS
10
1.71194
20
-7.356
11
1.70819
21
-7.3635
0
LINE
8
BLACK
6
CONTINUOUS
10
1.70819
20
-7.3635
11
1.70819
21
-7.3785
0
LINE
8
BLACK
6
CONTINUOUS
10
1.70819
20
-7.3785
11
1.71194
21
-7.386
0
LINE
8
BLACK
6
CONTINUOUS
10
1.71194
20
-7.386
11
1.71569
21
-7.38975
0
LINE
8
BLACK
6
CONTINUOUS
10
1.71569
20
-7.38975
11
1.72319
21
-7.39349
0
LINE
8
BLACK
6
CONTINUOUS
10
1.72319
20
-7.39349
11
1.73819
21
-7.39349
0
LINE
8
BLACK
6
CONTINUOUS
10
1.73819
20
-7.39349
11
1.74569
21
-7.38975
0
LINE
8
BLACK
6
CONTINUOUS
10
1.74569
20
-7.38975
11
1.74944
21
-7.386
0
LINE
8
BLACK
6
CONTINUOUS
10
1.74944
20
-7.386
11
1.75319
21
-7.3785
0
LINE
8
BLACK
6
CONTINUOUS
10
1.75319
20
-7.3785
11
1.75319
21
-7.3635
0
LINE
8
BLACK
6
CONTINUOUS
10
1.75319
20
-7.3635
11
1.74944
21
-7.356
0
LINE
8
BLACK
6
CONTINUOUS
10
1.74944
20
-7.356
11
1.74569
21
-7.35225
0
LINE
8
BLACK
6
CONTINUOUS
10
1.74569
20
-7.35225
11
1.73819
21
-7.3485
0
LINE
8
BLACK
6
CONTINUOUS
10
1.79068
20
-7.39349
11
1.80568
21
-7.39349
0
LINE
8
BLACK
6
CONTINUOUS
10
1.80568
20
-7.39349
11
1.81318
21
-7.38975
0
LINE
8
BLACK
6
CONTINUOUS
10
1.81318
20
-7.38975
11
1.81693
21
-7.386
0
LINE
8
BLACK
6
CONTINUOUS
10
1.81693
20
-7.386
11
1.82443
21
-7.37475
0
LINE
8
BLACK
6
CONTINUOUS
10
1.82443
20
-7.37475
11
1.82818
21
-7.35975
0
LINE
8
BLACK
6
CONTINUOUS
10
1.82818
20
-7.35975
11
1.82818
21
-7.32975
0
LINE
8
BLACK
6
CONTINUOUS
10
1.82818
20
-7.32975
11
1.82443
21
-7.32225
0
LINE
8
BLACK
6
CONTINUOUS
10
1.82443
20
-7.32225
11
1.82068
21
-7.3185
0
LINE
8
BLACK
6
CONTINUOUS
10
1.82068
20
-7.3185
11
1.81318
21
-7.31475
0
LINE
8
BLACK
6
CONTINUOUS
10
1.81318
20
-7.31475
11
1.79818
21
-7.31475
0
LINE
8
BLACK
6
CONTINUOUS
10
1.79818
20
-7.31475
11
1.79068
21
-7.3185
0
LINE
8
BLACK
6
CONTINUOUS
10
1.79068
20
-7.3185
11
1.78693
21
-7.32225
0
LINE
8
BLACK
6
CONTINUOUS
10
1.78693
20
-7.32225
11
1.78318
21
-7.32975
0
LINE
8
BLACK
6
CONTINUOUS
10
1.78318
20
-7.32975
11
1.78318
21
-7.3485
0
LINE
8
BLACK
6
CONTINUOUS
10
1.78318
20
-7.3485
11
1.78693
21
-7.356
0
LINE
8
BLACK
6
CONTINUOUS
10
1.78693
20
-7.356
11
1.79068
21
-7.35975
0
LINE
8
BLACK
6
CONTINUOUS
10
1.79068
20
-7.35975
11
1.79818
21
-7.3635
0
LINE
8
BLACK
6
CONTINUOUS
10
1.79818
20
-7.3635
11
1.81318
21
-7.3635
0
LINE
8
BLACK
6
CONTINUOUS
10
1.81318
20
-7.3635
11
1.82068
21
-7.35975
0
LINE
8
BLACK
6
CONTINUOUS
10
1.82068
20
-7.35975
11
1.82443
21
-7.356
0
LINE
8
BLACK
6
CONTINUOUS
10
1.82443
20
-7.356
11
1.82818
21
-7.3485
0
LINE
8
BLACK
6
CONTINUOUS
10
1.86567
20
-7.39349
11
1.88067
21
-7.39349
0
LINE
8
BLACK
6
CONTINUOUS
10
1.88067
20
-7.39349
11
1.88817
21
-7.38975
0
LINE
8
BLACK
6
CONTINUOUS
10
1.88817
20
-7.38975
11
1.89192
21
-7.386
0
LINE
8
BLACK
6
CONTINUOUS
10
1.89192
20
-7.386
11
1.89942
21
-7.37475
0
LINE
8
BLACK
6
CONTINUOUS
10
1.89942
20
-7.37475
11
1.90317
21
-7.35975
0
LINE
8
BLACK
6
CONTINUOUS
10
1.90317
20
-7.35975
11
1.90317
21
-7.32975
0
LINE
8
BLACK
6
CONTINUOUS
10
1.90317
20
-7.32975
11
1.89942
21
-7.32225
0
LINE
8
BLACK
6
CONTINUOUS
10
1.89942
20
-7.32225
11
1.89567
21
-7.3185
0
LINE
8
BLACK
6
CONTINUOUS
10
1.89567
20
-7.3185
11
1.88817
21
-7.31475
0
LINE
8
BLACK
6
CONTINUOUS
10
1.88817
20
-7.31475
11
1.87317
21
-7.31475
0
LINE
8
BLACK
6
CONTINUOUS
10
1.87317
20
-7.31475
11
1.86567
21
-7.3185
0
LINE
8
BLACK
6
CONTINUOUS
10
1.86567
20
-7.3185
11
1.86192
21
-7.32225
0
LINE
8
BLACK
6
CONTINUOUS
10
1.86192
20
-7.32225
11
1.85817
21
-7.32975
0
LINE
8
BLACK
6
CONTINUOUS
10
1.85817
20
-7.32975
11
1.85817
21
-7.3485
0
LINE
8
BLACK
6
CONTINUOUS
10
1.85817
20
-7.3485
11
1.86192
21
-7.356
0
LINE
8
BLACK
6
CONTINUOUS
10
1.86192
20
-7.356
11
1.86567
21
-7.35975
0
LINE
8
BLACK
6
CONTINUOUS
10
1.86567
20
-7.35975
11
1.87317
21
-7.3635
0
LINE
8
BLACK
6
CONTINUOUS
10
1.87317
20
-7.3635
11
1.88817
21
-7.3635
0
LINE
8
BLACK
6
CONTINUOUS
10
1.88817
20
-7.3635
11
1.89567
21
-7.35975
0
LINE
8
BLACK
6
CONTINUOUS
10
1.89567
20
-7.35975
11
1.89942
21
-7.356
0
LINE
8
BLACK
6
CONTINUOUS
10
1.89942
20
-7.356
11
1.90317
21
-7.3485
0
LINE
8
BLACK
6
CONTINUOUS
10
1.93691
20
-7.39349
11
1.93691
21
-7.341
0
LINE
8
BLACK
6
CONTINUOUS
10
1.93691
20
-7.3485
11
1.94066
21
-7.34475
0
LINE
8
BLACK
6
CONTINUOUS
10
1.94066
20
-7.34475
11
1.94816
21
-7.341
0
LINE
8
BLACK
6
CONTINUOUS
10
1.94816
20
-7.341
11
1.95941
21
-7.341
0
LINE
8
BLACK
6
CONTINUOUS
10
1.95941
20
-7.341
11
1.96691
21
-7.34475
0
LINE
8
BLACK
6
CONTINUOUS
10
1.96691
20
-7.34475
11
1.97066
21
-7.35225
0
LINE
8
BLACK
6
CONTINUOUS
10
1.97066
20
-7.35225
11
1.97066
21
-7.39349
0
LINE
8
BLACK
6
CONTINUOUS
10
1.97066
20
-7.35225
11
1.97441
21
-7.34475
0
LINE
8
BLACK
6
CONTINUOUS
10
1.97441
20
-7.34475
11
1.98191
21
-7.341
0
LINE
8
BLACK
6
CONTINUOUS
10
1.98191
20
-7.341
11
1.99316
21
-7.341
0
LINE
8
BLACK
6
CONTINUOUS
10
1.99316
20
-7.341
11
2.00066
21
-7.34475
0
LINE
8
BLACK
6
CONTINUOUS
10
2.00066
20
-7.34475
11
2.00441
21
-7.35225
0
LINE
8
BLACK
6
CONTINUOUS
10
2.00441
20
-7.35225
11
2.00441
21
-7.39349
0
LINE
8
BLACK
6
CONTINUOUS
10
2.0419
20
-7.39349
11
2.0419
21
-7.341
0
LINE
8
BLACK
6
CONTINUOUS
10
2.0419
20
-7.3485
11
2.04565
21
-7.34475
0
LINE
8
BLACK
6
CONTINUOUS
10
2.04565
20
-7.34475
11
2.05315
21
-7.341
0
LINE
8
BLACK
6
CONTINUOUS
10
2.05315
20
-7.341
11
2.0644
21
-7.341
0
LINE
8
BLACK
6
CONTINUOUS
10
2.0644
20
-7.341
11
2.0719
21
-7.34475
0
LINE
8
BLACK
6
CONTINUOUS
10
2.0719
20
-7.34475
11
2.07565
21
-7.35225
0
LINE
8
BLACK
6
CONTINUOUS
10
2.07565
20
-7.35225
11
2.07565
21
-7.39349
0
LINE
8
BLACK
6
CONTINUOUS
10
2.07565
20
-7.35225
11
2.0794
21
-7.34475
0
LINE
8
BLACK
6
CONTINUOUS
10
2.0794
20
-7.34475
11
2.0869
21
-7.341
0
LINE
8
BLACK
6
CONTINUOUS
10
2.0869
20
-7.341
11
2.09814
21
-7.341
0
LINE
8
BLACK
6
CONTINUOUS
10
2.09814
20
-7.341
11
2.10564
21
-7.34475
0
LINE
8
BLACK
6
CONTINUOUS
10
2.10564
20
-7.34475
11
2.10939
21
-7.35225
0
LINE
8
BLACK
6
CONTINUOUS
10
2.10939
20
-7.35225
11
2.10939
21
-7.39349
0
LINE
8
BLACK
6
CONTINUOUS
10
2.26312
20
-7.311
11
2.19563
21
-7.41224
0
LINE
8
BLACK
6
CONTINUOUS
10
2.36436
20
-7.31475
11
2.37186
21
-7.31475
0
LINE
8
BLACK
6
CONTINUOUS
10
2.37186
20
-7.31475
11
2.37936
21
-7.3185
0
LINE
8
BLACK
6
CONTINUOUS
10
2.37936
20
-7.3185
11
2.38311
21
-7.32225
0
LINE
8
BLACK
6
CONTINUOUS
10
2.38311
20
-7.32225
11
2.38686
21
-7.32975
0
LINE
8
BLACK
6
CONTINUOUS
10
2.38686
20
-7.32975
11
2.39061
21
-7.34475
0
LINE
8
BLACK
6
CONTINUOUS
10
2.39061
20
-7.34475
11
2.39061
21
-7.3635
0
LINE
8
BLACK
6
CONTINUOUS
10
2.39061
20
-7.3635
11
2.38686
21
-7.3785
0
LINE
8
BLACK
6
CONTINUOUS
10
2.38686
20
-7.3785
11
2.38311
21
-7.386
0
LINE
8
BLACK
6
CONTINUOUS
10
2.38311
20
-7.386
11
2.37936
21
-7.38975
0
LINE
8
BLACK
6
CONTINUOUS
10
2.37936
20
-7.38975
11
2.37186
21
-7.39349
0
LINE
8
BLACK
6
CONTINUOUS
10
2.37186
20
-7.39349
11
2.36436
21
-7.39349
0
LINE
8
BLACK
6
CONTINUOUS
10
2.36436
20
-7.39349
11
2.35686
21
-7.38975
0
LINE
8
BLACK
6
CONTINUOUS
10
2.35686
20
-7.38975
11
2.35311
21
-7.386
0
LINE
8
BLACK
6
CONTINUOUS
10
2.35311
20
-7.386
11
2.34936
21
-7.3785
0
LINE
8
BLACK
6
CONTINUOUS
10
2.34936
20
-7.3785
11
2.34561
21
-7.3635
0
LINE
8
BLACK
6
CONTINUOUS
10
2.34561
20
-7.3635
11
2.34561
21
-7.34475
0
LINE
8
BLACK
6
CONTINUOUS
10
2.34561
20
-7.34475
11
2.34936
21
-7.32975
0
LINE
8
BLACK
6
CONTINUOUS
10
2.34936
20
-7.32975
11
2.35311
21
-7.32225
0
LINE
8
BLACK
6
CONTINUOUS
10
2.35311
20
-7.32225
11
2.35686
21
-7.3185
0
LINE
8
BLACK
6
CONTINUOUS
10
2.35686
20
-7.3185
11
2.36436
21
-7.31475
0
LINE
8
BLACK
6
CONTINUOUS
10
2.42435
20
-7.386
11
2.4281
21
-7.38975
0
LINE
8
BLACK
6
CONTINUOUS
10
2.4281
20
-7.38975
11
2.42435
21
-7.39349
0
LINE
8
BLACK
6
CONTINUOUS
10
2.42435
20
-7.39349
11
2.4206
21
-7.38975
0
LINE
8
BLACK
6
CONTINUOUS
10
2.4206
20
-7.38975
11
2.42435
21
-7.386
0
LINE
8
BLACK
6
CONTINUOUS
10
2.42435
20
-7.386
11
2.42435
21
-7.39349
0
LINE
8
BLACK
6
CONTINUOUS
10
2.47685
20
-7.31475
11
2.48435
21
-7.31475
0
LINE
8
BLACK
6
CONTINUOUS
10
2.48435
20
-7.31475
11
2.49184
21
-7.3185
0
LINE
8
BLACK
6
CONTINUOUS
10
2.49184
20
-7.3185
11
2.49559
21
-7.32225
0
LINE
8
BLACK
6
CONTINUOUS
10
2.49559
20
-7.32225
11
2.49934
21
-7.32975
0
LINE
8
BLACK
6
CONTINUOUS
10
2.49934
20
-7.32975
11
2.50309
21
-7.34475
0
LINE
8
BLACK
6
CONTINUOUS
10
2.50309
20
-7.34475
11
2.50309
21
-7.3635
0
LINE
8
BLACK
6
CONTINUOUS
10
2.50309
20
-7.3635
11
2.49934
21
-7.3785
0
LINE
8
BLACK
6
CONTINUOUS
10
2.49934
20
-7.3785
11
2.49559
21
-7.386
0
LINE
8
BLACK
6
CONTINUOUS
10
2.49559
20
-7.386
11
2.49184
21
-7.38975
0
LINE
8
BLACK
6
CONTINUOUS
10
2.49184
20
-7.38975
11
2.48435
21
-7.39349
0
LINE
8
BLACK
6
CONTINUOUS
10
2.48435
20
-7.39349
11
2.47685
21
-7.39349
0
LINE
8
BLACK
6
CONTINUOUS
10
2.47685
20
-7.39349
11
2.46935
21
-7.38975
0
LINE
8
BLACK
6
CONTINUOUS
10
2.46935
20
-7.38975
11
2.4656
21
-7.386
0
LINE
8
BLACK
6
CONTINUOUS
10
2.4656
20
-7.386
11
2.46185
21
-7.3785
0
LINE
8
BLACK
6
CONTINUOUS
10
2.46185
20
-7.3785
11
2.4581
21
-7.3635
0
LINE
8
BLACK
6
CONTINUOUS
10
2.4581
20
-7.3635
11
2.4581
21
-7.34475
0
LINE
8
BLACK
6
CONTINUOUS
10
2.4581
20
-7.34475
11
2.46185
21
-7.32975
0
LINE
8
BLACK
6
CONTINUOUS
10
2.46185
20
-7.32975
11
2.4656
21
-7.32225
0
LINE
8
BLACK
6
CONTINUOUS
10
2.4656
20
-7.32225
11
2.46935
21
-7.3185
0
LINE
8
BLACK
6
CONTINUOUS
10
2.46935
20
-7.3185
11
2.47685
21
-7.31475
0
LINE
8
BLACK
6
CONTINUOUS
10
2.52934
20
-7.31475
11
2.57808
21
-7.31475
0
LINE
8
BLACK
6
CONTINUOUS
10
2.57808
20
-7.31475
11
2.55184
21
-7.34475
0
LINE
8
BLACK
6
CONTINUOUS
10
2.55184
20
-7.34475
11
2.56309
21
-7.34475
0
LINE
8
BLACK
6
CONTINUOUS
10
2.56309
20
-7.34475
11
2.57058
21
-7.3485
0
LINE
8
BLACK
6
CONTINUOUS
10
2.57058
20
-7.3485
11
2.57433
21
-7.35225
0
LINE
8
BLACK
6
CONTINUOUS
10
2.57433
20
-7.35225
11
2.57808
21
-7.35975
0
LINE
8
BLACK
6
CONTINUOUS
10
2.57808
20
-7.35975
11
2.57808
21
-7.3785
0
LINE
8
BLACK
6
CONTINUOUS
10
2.57808
20
-7.3785
11
2.57433
21
-7.386
0
LINE
8
BLACK
6
CONTINUOUS
10
2.57433
20
-7.386
11
2.57058
21
-7.38975
0
LINE
8
BLACK
6
CONTINUOUS
10
2.57058
20
-7.38975
11
2.56309
21
-7.39349
0
LINE
8
BLACK
6
CONTINUOUS
10
2.56309
20
-7.39349
11
2.54059
21
-7.39349
0
LINE
8
BLACK
6
CONTINUOUS
10
2.54059
20
-7.39349
11
2.53309
21
-7.38975
0
LINE
8
BLACK
6
CONTINUOUS
10
2.53309
20
-7.38975
11
2.52934
21
-7.386
0
LINE
8
BLACK
6
CONTINUOUS
10
2.64933
20
-7.31475
11
2.61183
21
-7.31475
0
LINE
8
BLACK
6
CONTINUOUS
10
2.61183
20
-7.31475
11
2.60808
21
-7.35225
0
LINE
8
BLACK
6
CONTINUOUS
10
2.60808
20
-7.35225
11
2.61183
21
-7.3485
0
LINE
8
BLACK
6
CONTINUOUS
10
2.61183
20
-7.3485
11
2.61933
21
-7.34475
0
LINE
8
BLACK
6
CONTINUOUS
10
2.61933
20
-7.34475
11
2.63808
21
-7.34475
0
LINE
8
BLACK
6
CONTINUOUS
10
2.63808
20
-7.34475
11
2.64558
21
-7.3485
0
LINE
8
BLACK
6
CONTINUOUS
10
2.64558
20
-7.3485
11
2.64933
21
-7.35225
0
LINE
8
BLACK
6
CONTINUOUS
10
2.64933
20
-7.35225
11
2.65307
21
-7.35975
0
LINE
8
BLACK
6
CONTINUOUS
10
2.65307
20
-7.35975
11
2.65307
21
-7.3785
0
LINE
8
BLACK
6
CONTINUOUS
10
2.65307
20
-7.3785
11
2.64933
21
-7.386
0
LINE
8
BLACK
6
CONTINUOUS
10
2.64933
20
-7.386
11
2.64558
21
-7.38975
0
LINE
8
BLACK
6
CONTINUOUS
10
2.64558
20
-7.38975
11
2.63808
21
-7.39349
0
LINE
8
BLACK
6
CONTINUOUS
10
2.63808
20
-7.39349
11
2.61933
21
-7.39349
0
LINE
8
BLACK
6
CONTINUOUS
10
2.61933
20
-7.39349
11
2.61183
21
-7.38975
0
LINE
8
BLACK
6
CONTINUOUS
10
2.61183
20
-7.38975
11
2.60808
21
-7.386
0
LINE
8
BLACK
6
CONTINUOUS
10
2.72057
20
-7.341
11
2.72057
21
-7.39349
0
LINE
8
BLACK
6
CONTINUOUS
10
2.70182
20
-7.311
11
2.68307
21
-7.36725
0
LINE
8
BLACK
6
CONTINUOUS
10
2.68307
20
-7.36725
11
2.73181
21
-7.36725
0
LINE
8
BLACK
6
CONTINUOUS
10
2.75806
20
-7.31475
11
2.75806
21
-7.32975
0
LINE
8
BLACK
6
CONTINUOUS
10
2.78806
20
-7.31475
11
2.78806
21
-7.32975
0
LINE
8
BLACK
6
CONTINUOUS
10
2.90429
20
-7.42349
11
2.90054
21
-7.41974
0
LINE
8
BLACK
6
CONTINUOUS
10
2.90054
20
-7.41974
11
2.89304
21
-7.40849
0
LINE
8
BLACK
6
CONTINUOUS
10
2.89304
20
-7.40849
11
2.8893
21
-7.40099
0
LINE
8
BLACK
6
CONTINUOUS
10
2.8893
20
-7.40099
11
2.88555
21
-7.38975
0
LINE
8
BLACK
6
CONTINUOUS
10
2.88555
20
-7.38975
11
2.8818
21
-7.371
0
LINE
8
BLACK
6
CONTINUOUS
10
2.8818
20
-7.371
11
2.8818
21
-7.356
0
LINE
8
BLACK
6
CONTINUOUS
10
2.8818
20
-7.356
11
2.88555
21
-7.33725
0
LINE
8
BLACK
6
CONTINUOUS
10
2.88555
20
-7.33725
11
2.8893
21
-7.326
0
LINE
8
BLACK
6
CONTINUOUS
10
2.8893
20
-7.326
11
2.89304
21
-7.3185
0
LINE
8
BLACK
6
CONTINUOUS
10
2.89304
20
-7.3185
11
2.90054
21
-7.30726
0
LINE
8
BLACK
6
CONTINUOUS
10
2.90054
20
-7.30726
11
2.90429
21
-7.30351
0
LINE
8
BLACK
6
CONTINUOUS
10
2.92679
20
-7.31475
11
2.97928
21
-7.31475
0
LINE
8
BLACK
6
CONTINUOUS
10
2.97928
20
-7.31475
11
2.94554
21
-7.39349
0
LINE
8
BLACK
6
CONTINUOUS
10
3.04303
20
-7.31475
11
3.02803
21
-7.31475
0
LINE
8
BLACK
6
CONTINUOUS
10
3.02803
20
-7.31475
11
3.02053
21
-7.3185
0
LINE
8
BLACK
6
CONTINUOUS
10
3.02053
20
-7.3185
11
3.01678
21
-7.32225
0
LINE
8
BLACK
6
CONTINUOUS
10
3.01678
20
-7.32225
11
3.00928
21
-7.3335
0
LINE
8
BLACK
6
CONTINUOUS
10
3.00928
20
-7.3335
11
3.00553
21
-7.3485
0
LINE
8
BLACK
6
CONTINUOUS
10
3.00553
20
-7.3485
11
3.00553
21
-7.3785
0
LINE
8
BLACK
6
CONTINUOUS
10
3.00553
20
-7.3785
11
3.00928
21
-7.386
0
LINE
8
BLACK
6
CONTINUOUS
10
3.00928
20
-7.386
11
3.01303
21
-7.38975
0
LINE
8
BLACK
6
CONTINUOUS
10
3.01303
20
-7.38975
11
3.02053
21
-7.39349
0
LINE
8
BLACK
6
CONTINUOUS
10
3.02053
20
-7.39349
11
3.03553
21
-7.39349
0
LINE
8
BLACK
6
CONTINUOUS
10
3.03553
20
-7.39349
11
3.04303
21
-7.38975
0
LINE
8
BLACK
6
CONTINUOUS
10
3.04303
20
-7.38975
11
3.04678
21
-7.386
0
LINE
8
BLACK
6
CONTINUOUS
10
3.04678
20
-7.386
11
3.05052
21
-7.3785
0
LINE
8
BLACK
6
CONTINUOUS
10
3.05052
20
-7.3785
11
3.05052
21
-7.35975
0
LINE
8
BLACK
6
CONTINUOUS
10
3.05052
20
-7.35975
11
3.04678
21
-7.35225
0
LINE
8
BLACK
6
CONTINUOUS
10
3.04678
20
-7.35225
11
3.04303
21
-7.3485
0
LINE
8
BLACK
6
CONTINUOUS
10
3.04303
20
-7.3485
11
3.03553
21
-7.34475
0
LINE
8
BLACK
6
CONTINUOUS
10
3.03553
20
-7.34475
11
3.02053
21
-7.34475
0
LINE
8
BLACK
6
CONTINUOUS
10
3.02053
20
-7.34475
11
3.01303
21
-7.3485
0
LINE
8
BLACK
6
CONTINUOUS
10
3.01303
20
-7.3485
11
3.00928
21
-7.35225
0
LINE
8
BLACK
6
CONTINUOUS
10
3.00928
20
-7.35225
11
3.00553
21
-7.35975
0
LINE
8
BLACK
6
CONTINUOUS
10
3.14426
20
-7.39349
11
3.14426
21
-7.31475
0
LINE
8
BLACK
6
CONTINUOUS
10
3.17801
20
-7.39349
11
3.17801
21
-7.35225
0
LINE
8
BLACK
6
CONTINUOUS
10
3.17801
20
-7.35225
11
3.17426
21
-7.34475
0
LINE
8
BLACK
6
CONTINUOUS
10
3.17426
20
-7.34475
11
3.16676
21
-7.341
0
LINE
8
BLACK
6
CONTINUOUS
10
3.16676
20
-7.341
11
3.15551
21
-7.341
0
LINE
8
BLACK
6
CONTINUOUS
10
3.15551
20
-7.341
11
3.14801
21
-7.34475
0
LINE
8
BLACK
6
CONTINUOUS
10
3.14801
20
-7.34475
11
3.14426
21
-7.3485
0
LINE
8
BLACK
6
CONTINUOUS
10
3.22675
20
-7.39349
11
3.21925
21
-7.38975
0
LINE
8
BLACK
6
CONTINUOUS
10
3.21925
20
-7.38975
11
3.2155
21
-7.386
0
LINE
8
BLACK
6
CONTINUOUS
10
3.2155
20
-7.386
11
3.21175
21
-7.3785
0
LINE
8
BLACK
6
CONTINUOUS
10
3.21175
20
-7.3785
11
3.21175
21
-7.356
0
LINE
8
BLACK
6
CONTINUOUS
10
3.21175
20
-7.356
11
3.2155
21
-7.3485
0
LINE
8
BLACK
6
CONTINUOUS
10
3.2155
20
-7.3485
11
3.21925
21
-7.34475
0
LINE
8
BLACK
6
CONTINUOUS
10
3.21925
20
-7.34475
11
3.22675
21
-7.341
0
LINE
8
BLACK
6
CONTINUOUS
10
3.22675
20
-7.341
11
3.238
21
-7.341
0
LINE
8
BLACK
6
CONTINUOUS
10
3.238
20
-7.341
11
3.2455
21
-7.34475
0
LINE
8
BLACK
6
CONTINUOUS
10
3.2455
20
-7.34475
11
3.24925
21
-7.3485
0
LINE
8
BLACK
6
CONTINUOUS
10
3.24925
20
-7.3485
11
3.253
21
-7.356
0
LINE
8
BLACK
6
CONTINUOUS
10
3.253
20
-7.356
11
3.253
21
-7.3785
0
LINE
8
BLACK
6
CONTINUOUS
10
3.253
20
-7.3785
11
3.24925
21
-7.386
0
LINE
8
BLACK
6
CONTINUOUS
10
3.24925
20
-7.386
11
3.2455
21
-7.38975
0
LINE
8
BLACK
6
CONTINUOUS
10
3.2455
20
-7.38975
11
3.238
21
-7.39349
0
LINE
8
BLACK
6
CONTINUOUS
10
3.238
20
-7.39349
11
3.22675
21
-7.39349
0
LINE
8
BLACK
6
CONTINUOUS
10
3.29799
20
-7.39349
11
3.29049
21
-7.38975
0
LINE
8
BLACK
6
CONTINUOUS
10
3.29049
20
-7.38975
11
3.28675
21
-7.38225
0
LINE
8
BLACK
6
CONTINUOUS
10
3.28675
20
-7.38225
11
3.28675
21
-7.31475
0
LINE
8
BLACK
6
CONTINUOUS
10
3.35799
20
-7.38975
11
3.35049
21
-7.39349
0
LINE
8
BLACK
6
CONTINUOUS
10
3.35049
20
-7.39349
11
3.33549
21
-7.39349
0
LINE
8
BLACK
6
CONTINUOUS
10
3.33549
20
-7.39349
11
3.32799
21
-7.38975
0
LINE
8
BLACK
6
CONTINUOUS
10
3.32799
20
-7.38975
11
3.32424
21
-7.38225
0
LINE
8
BLACK
6
CONTINUOUS
10
3.32424
20
-7.38225
11
3.32424
21
-7.35225
0
LINE
8
BLACK
6
CONTINUOUS
10
3.32424
20
-7.35225
11
3.32799
21
-7.34475
0
LINE
8
BLACK
6
CONTINUOUS
10
3.32799
20
-7.34475
11
3.33549
21
-7.341
0
LINE
8
BLACK
6
CONTINUOUS
10
3.33549
20
-7.341
11
3.35049
21
-7.341
0
LINE
8
BLACK
6
CONTINUOUS
10
3.35049
20
-7.341
11
3.35799
21
-7.34475
0
LINE
8
BLACK
6
CONTINUOUS
10
3.35799
20
-7.34475
11
3.36174
21
-7.35225
0
LINE
8
BLACK
6
CONTINUOUS
10
3.36174
20
-7.35225
11
3.36174
21
-7.35975
0
LINE
8
BLACK
6
CONTINUOUS
10
3.36174
20
-7.35975
11
3.32424
21
-7.36725
0
LINE
8
BLACK
6
CONTINUOUS
10
3.39173
20
-7.38975
11
3.39923
21
-7.39349
0
LINE
8
BLACK
6
CONTINUOUS
10
3.39923
20
-7.39349
11
3.41423
21
-7.39349
0
LINE
8
BLACK
6
CONTINUOUS
10
3.41423
20
-7.39349
11
3.42173
21
-7.38975
0
LINE
8
BLACK
6
CONTINUOUS
10
3.42173
20
-7.38975
11
3.42548
21
-7.38225
0
LINE
8
BLACK
6
CONTINUOUS
10
3.42548
20
-7.38225
11
3.42548
21
-7.3785
0
LINE
8
BLACK
6
CONTINUOUS
10
3.42548
20
-7.3785
11
3.42173
21
-7.371
0
LINE
8
BLACK
6
CONTINUOUS
10
3.42173
20
-7.371
11
3.41423
21
-7.36725
0
LINE
8
BLACK
6
CONTINUOUS
10
3.41423
20
-7.36725
11
3.40298
21
-7.36725
0
LINE
8
BLACK
6
CONTINUOUS
10
3.40298
20
-7.36725
11
3.39548
21
-7.3635
0
LINE
8
BLACK
6
CONTINUOUS
10
3.39548
20
-7.3635
11
3.39173
21
-7.356
0
LINE
8
BLACK
6
CONTINUOUS
10
3.39173
20
-7.356
11
3.39173
21
-7.35225
0
LINE
8
BLACK
6
CONTINUOUS
10
3.39173
20
-7.35225
11
3.39548
21
-7.34475
0
LINE
8
BLACK
6
CONTINUOUS
10
3.39548
20
-7.34475
11
3.40298
21
-7.341
0
LINE
8
BLACK
6
CONTINUOUS
10
3.40298
20
-7.341
11
3.41423
21
-7.341
0
LINE
8
BLACK
6
CONTINUOUS
10
3.41423
20
-7.341
11
3.42173
21
-7.34475
0
LINE
8
BLACK
6
CONTINUOUS
10
3.45172
20
-7.42349
11
3.45547
21
-7.41974
0
LINE
8
BLACK
6
CONTINUOUS
10
3.45547
20
-7.41974
11
3.46297
21
-7.40849
0
LINE
8
BLACK
6
CONTINUOUS
10
3.46297
20
-7.40849
11
3.46672
21
-7.40099
0
LINE
8
BLACK
6
CONTINUOUS
10
3.46672
20
-7.40099
11
3.47047
21
-7.38975
0
LINE
8
BLACK
6
CONTINUOUS
10
3.47047
20
-7.38975
11
3.47422
21
-7.371
0
LINE
8
BLACK
6
CONTINUOUS
10
3.47422
20
-7.371
11
3.47422
21
-7.356
0
LINE
8
BLACK
6
CONTINUOUS
10
3.47422
20
-7.356
11
3.47047
21
-7.33725
0
LINE
8
BLACK
6
CONTINUOUS
10
3.47047
20
-7.33725
11
3.46672
21
-7.326
0
LINE
8
BLACK
6
CONTINUOUS
10
3.46672
20
-7.326
11
3.46297
21
-7.3185
0
LINE
8
BLACK
6
CONTINUOUS
10
3.46297
20
-7.3185
11
3.45547
21
-7.30726
0
LINE
8
BLACK
6
CONTINUOUS
10
3.45547
20
-7.30726
11
3.45172
21
-7.30351
0
LINE
8
BLACK
6
CONTINUOUS
10
1.47638
20
-7.44016
11
1.47638
21
-7.48346
0
LINE
8
BLACK
6
CONTINUOUS
10
1.45472
20
-7.46181
11
1.49803
21
-7.46181
0
LINE
8
BLACK
6
CONTINUOUS
10
1.6407
20
-7.49743
11
1.59571
21
-7.49743
0
LINE
8
BLACK
6
CONTINUOUS
10
1.6182
20
-7.49743
11
1.6182
21
-7.41869
0
LINE
8
BLACK
6
CONTINUOUS
10
1.6182
20
-7.41869
11
1.6107
21
-7.42994
0
LINE
8
BLACK
6
CONTINUOUS
10
1.6107
20
-7.42994
11
1.60321
21
-7.43744
0
LINE
8
BLACK
6
CONTINUOUS
10
1.60321
20
-7.43744
11
1.59571
21
-7.44119
0
LINE
8
BLACK
6
CONTINUOUS
10
1.67445
20
-7.48993
11
1.6782
21
-7.49368
0
LINE
8
BLACK
6
CONTINUOUS
10
1.6782
20
-7.49368
11
1.67445
21
-7.49743
0
LINE
8
BLACK
6
CONTINUOUS
10
1.67445
20
-7.49743
11
1.6707
21
-7.49368
0
LINE
8
BLACK
6
CONTINUOUS
10
1.6707
20
-7.49368
11
1.67445
21
-7.48993
0
LINE
8
BLACK
6
CONTINUOUS
10
1.67445
20
-7.48993
11
1.67445
21
-7.49743
0
LINE
8
BLACK
6
CONTINUOUS
10
1.75319
20
-7.49743
11
1.70819
21
-7.49743
0
LINE
8
BLACK
6
CONTINUOUS
10
1.73069
20
-7.49743
11
1.73069
21
-7.41869
0
LINE
8
BLACK
6
CONTINUOUS
10
1.73069
20
-7.41869
11
1.72319
21
-7.42994
0
LINE
8
BLACK
6
CONTINUOUS
10
1.72319
20
-7.42994
11
1.71569
21
-7.43744
0
LINE
8
BLACK
6
CONTINUOUS
10
1.71569
20
-7.43744
11
1.70819
21
-7.44119
0
LINE
8
BLACK
6
CONTINUOUS
10
1.80193
20
-7.41869
11
1.80943
21
-7.41869
0
LINE
8
BLACK
6
CONTINUOUS
10
1.80943
20
-7.41869
11
1.81693
21
-7.42244
0
LINE
8
BLACK
6
CONTINUOUS
10
1.81693
20
-7.42244
11
1.82068
21
-7.42619
0
LINE
8
BLACK
6
CONTINUOUS
10
1.82068
20
-7.42619
11
1.82443
21
-7.43369
0
LINE
8
BLACK
6
CONTINUOUS
10
1.82443
20
-7.43369
11
1.82818
21
-7.44869
0
LINE
8
BLACK
6
CONTINUOUS
10
1.82818
20
-7.44869
11
1.82818
21
-7.46744
0
LINE
8
BLACK
6
CONTINUOUS
10
1.82818
20
-7.46744
11
1.82443
21
-7.48243
0
LINE
8
BLACK
6
CONTINUOUS
10
1.82443
20
-7.48243
11
1.82068
21
-7.48993
0
LINE
8
BLACK
6
CONTINUOUS
10
1.82068
20
-7.48993
11
1.81693
21
-7.49368
0
LINE
8
BLACK
6
CONTINUOUS
10
1.81693
20
-7.49368
11
1.80943
21
-7.49743
0
LINE
8
BLACK
6
CONTINUOUS
10
1.80943
20
-7.49743
11
1.80193
21
-7.49743
0
LINE
8
BLACK
6
CONTINUOUS
10
1.80193
20
-7.49743
11
1.79443
21
-7.49368
0
LINE
8
BLACK
6
CONTINUOUS
10
1.79443
20
-7.49368
11
1.79068
21
-7.48993
0
LINE
8
BLACK
6
CONTINUOUS
10
1.79068
20
-7.48993
11
1.78693
21
-7.48243
0
LINE
8
BLACK
6
CONTINUOUS
10
1.78693
20
-7.48243
11
1.78318
21
-7.46744
0
LINE
8
BLACK
6
CONTINUOUS
10
1.78318
20
-7.46744
11
1.78318
21
-7.44869
0
LINE
8
BLACK
6
CONTINUOUS
10
1.78318
20
-7.44869
11
1.78693
21
-7.43369
0
LINE
8
BLACK
6
CONTINUOUS
10
1.78693
20
-7.43369
11
1.79068
21
-7.42619
0
LINE
8
BLACK
6
CONTINUOUS
10
1.79068
20
-7.42619
11
1.79443
21
-7.42244
0
LINE
8
BLACK
6
CONTINUOUS
10
1.79443
20
-7.42244
11
1.80193
21
-7.41869
0
LINE
8
BLACK
6
CONTINUOUS
10
1.87692
20
-7.41869
11
1.88442
21
-7.41869
0
LINE
8
BLACK
6
CONTINUOUS
10
1.88442
20
-7.41869
11
1.89192
21
-7.42244
0
LINE
8
BLACK
6
CONTINUOUS
10
1.89192
20
-7.42244
11
1.89567
21
-7.42619
0
LINE
8
BLACK
6
CONTINUOUS
10
1.89567
20
-7.42619
11
1.89942
21
-7.43369
0
LINE
8
BLACK
6
CONTINUOUS
10
1.89942
20
-7.43369
11
1.90317
21
-7.44869
0
LINE
8
BLACK
6
CONTINUOUS
10
1.90317
20
-7.44869
11
1.90317
21
-7.46744
0
LINE
8
BLACK
6
CONTINUOUS
10
1.90317
20
-7.46744
11
1.89942
21
-7.48243
0
LINE
8
BLACK
6
CONTINUOUS
10
1.89942
20
-7.48243
11
1.89567
21
-7.48993
0
LINE
8
BLACK
6
CONTINUOUS
10
1.89567
20
-7.48993
11
1.89192
21
-7.49368
0
LINE
8
BLACK
6
CONTINUOUS
10
1.89192
20
-7.49368
11
1.88442
21
-7.49743
0
LINE
8
BLACK
6
CONTINUOUS
10
1.88442
20
-7.49743
11
1.87692
21
-7.49743
0
LINE
8
BLACK
6
CONTINUOUS
10
1.87692
20
-7.49743
11
1.86942
21
-7.49368
0
LINE
8
BLACK
6
CONTINUOUS
10
1.86942
20
-7.49368
11
1.86567
21
-7.48993
0
LINE
8
BLACK
6
CONTINUOUS
10
1.86567
20
-7.48993
11
1.86192
21
-7.48243
0
LINE
8
BLACK
6
CONTINUOUS
10
1.86192
20
-7.48243
11
1.85817
21
-7.46744
0
LINE
8
BLACK
6
CONTINUOUS
10
1.85817
20
-7.46744
11
1.85817
21
-7.44869
0
LINE
8
BLACK
6
CONTINUOUS
10
1.85817
20
-7.44869
11
1.86192
21
-7.43369
0
LINE
8
BLACK
6
CONTINUOUS
10
1.86192
20
-7.43369
11
1.86567
21
-7.42619
0
LINE
8
BLACK
6
CONTINUOUS
10
1.86567
20
-7.42619
11
1.86942
21
-7.42244
0
LINE
8
BLACK
6
CONTINUOUS
10
1.86942
20
-7.42244
11
1.87692
21
-7.41869
0
LINE
8
BLACK
6
CONTINUOUS
10
1.93691
20
-7.49743
11
1.93691
21
-7.44494
0
LINE
8
BLACK
6
CONTINUOUS
10
1.93691
20
-7.45244
11
1.94066
21
-7.44869
0
LINE
8
BLACK
6
CONTINUOUS
10
1.94066
20
-7.44869
11
1.94816
21
-7.44494
0
LINE
8
BLACK
6
CONTINUOUS
10
1.94816
20
-7.44494
11
1.95941
21
-7.44494
0
LINE
8
BLACK
6
CONTINUOUS
10
1.95941
20
-7.44494
11
1.96691
21
-7.44869
0
LINE
8
BLACK
6
CONTINUOUS
10
1.96691
20
-7.44869
11
1.97066
21
-7.45619
0
LINE
8
BLACK
6
CONTINUOUS
10
1.97066
20
-7.45619
11
1.97066
21
-7.49743
0
LINE
8
BLACK
6
CONTINUOUS
10
1.97066
20
-7.45619
11
1.97441
21
-7.44869
0
LINE
8
BLACK
6
CONTINUOUS
10
1.97441
20
-7.44869
11
1.98191
21
-7.44494
0
LINE
8
BLACK
6
CONTINUOUS
10
1.98191
20
-7.44494
11
1.99316
21
-7.44494
0
LINE
8
BLACK
6
CONTINUOUS
10
1.99316
20
-7.44494
11
2.00066
21
-7.44869
0
LINE
8
BLACK
6
CONTINUOUS
10
2.00066
20
-7.44869
11
2.00441
21
-7.45619
0
LINE
8
BLACK
6
CONTINUOUS
10
2.00441
20
-7.45619
11
2.00441
21
-7.49743
0
LINE
8
BLACK
6
CONTINUOUS
10
2.0419
20
-7.49743
11
2.0419
21
-7.44494
0
LINE
8
BLACK
6
CONTINUOUS
10
2.0419
20
-7.45244
11
2.04565
21
-7.44869
0
LINE
8
BLACK
6
CONTINUOUS
10
2.04565
20
-7.44869
11
2.05315
21
-7.44494
0
LINE
8
BLACK
6
CONTINUOUS
10
2.05315
20
-7.44494
11
2.0644
21
-7.44494
0
LINE
8
BLACK
6
CONTINUOUS
10
2.0644
20
-7.44494
11
2.0719
21
-7.44869
0
LINE
8
BLACK
6
CONTINUOUS
10
2.0719
20
-7.44869
11
2.07565
21
-7.45619
0
LINE
8
BLACK
6
CONTINUOUS
10
2.07565
20
-7.45619
11
2.07565
21
-7.49743
0
LINE
8
BLACK
6
CONTINUOUS
10
2.07565
20
-7.45619
11
2.0794
21
-7.44869
0
LINE
8
BLACK
6
CONTINUOUS
10
2.0794
20
-7.44869
11
2.0869
21
-7.44494
0
LINE
8
BLACK
6
CONTINUOUS
10
2.0869
20
-7.44494
11
2.09814
21
-7.44494
0
LINE
8
BLACK
6
CONTINUOUS
10
2.09814
20
-7.44494
11
2.10564
21
-7.44869
0
LINE
8
BLACK
6
CONTINUOUS
10
2.10564
20
-7.44869
11
2.10939
21
-7.45619
0
LINE
8
BLACK
6
CONTINUOUS
10
2.10939
20
-7.45619
11
2.10939
21
-7.49743
0
LINE
8
BLACK
6
CONTINUOUS
10
2.26312
20
-7.41494
11
2.19563
21
-7.51618
0
LINE
8
BLACK
6
CONTINUOUS
10
2.36436
20
-7.41869
11
2.37186
21
-7.41869
0
LINE
8
BLACK
6
CONTINUOUS
10
2.37186
20
-7.41869
11
2.37936
21
-7.42244
0
LINE
8
BLACK
6
CONTINUOUS
10
2.37936
20
-7.42244
11
2.38311
21
-7.42619
0
LINE
8
BLACK
6
CONTINUOUS
10
2.38311
20
-7.42619
11
2.38686
21
-7.43369
0
LINE
8
BLACK
6
CONTINUOUS
10
2.38686
20
-7.43369
11
2.39061
21
-7.44869
0
LINE
8
BLACK
6
CONTINUOUS
10
2.39061
20
-7.44869
11
2.39061
21
-7.46744
0
LINE
8
BLACK
6
CONTINUOUS
10
2.39061
20
-7.46744
11
2.38686
21
-7.48243
0
LINE
8
BLACK
6
CONTINUOUS
10
2.38686
20
-7.48243
11
2.38311
21
-7.48993
0
LINE
8
BLACK
6
CONTINUOUS
10
2.38311
20
-7.48993
11
2.37936
21
-7.49368
0
LINE
8
BLACK
6
CONTINUOUS
10
2.37936
20
-7.49368
11
2.37186
21
-7.49743
0
LINE
8
BLACK
6
CONTINUOUS
10
2.37186
20
-7.49743
11
2.36436
21
-7.49743
0
LINE
8
BLACK
6
CONTINUOUS
10
2.36436
20
-7.49743
11
2.35686
21
-7.49368
0
LINE
8
BLACK
6
CONTINUOUS
10
2.35686
20
-7.49368
11
2.35311
21
-7.48993
0
LINE
8
BLACK
6
CONTINUOUS
10
2.35311
20
-7.48993
11
2.34936
21
-7.48243
0
LINE
8
BLACK
6
CONTINUOUS
10
2.34936
20
-7.48243
11
2.34561
21
-7.46744
0
LINE
8
BLACK
6
CONTINUOUS
10
2.34561
20
-7.46744
11
2.34561
21
-7.44869
0
LINE
8
BLACK
6
CONTINUOUS
10
2.34561
20
-7.44869
11
2.34936
21
-7.43369
0
LINE
8
BLACK
6
CONTINUOUS
10
2.34936
20
-7.43369
11
2.35311
21
-7.42619
0
LINE
8
BLACK
6
CONTINUOUS
10
2.35311
20
-7.42619
11
2.35686
21
-7.42244
0
LINE
8
BLACK
6
CONTINUOUS
10
2.35686
20
-7.42244
11
2.36436
21
-7.41869
0
LINE
8
BLACK
6
CONTINUOUS
10
2.42435
20
-7.48993
11
2.4281
21
-7.49368
0
LINE
8
BLACK
6
CONTINUOUS
10
2.4281
20
-7.49368
11
2.42435
21
-7.49743
0
LINE
8
BLACK
6
CONTINUOUS
10
2.42435
20
-7.49743
11
2.4206
21
-7.49368
0
LINE
8
BLACK
6
CONTINUOUS
10
2.4206
20
-7.49368
11
2.42435
21
-7.48993
0
LINE
8
BLACK
6
CONTINUOUS
10
2.42435
20
-7.48993
11
2.42435
21
-7.49743
0
LINE
8
BLACK
6
CONTINUOUS
10
2.47685
20
-7.41869
11
2.48435
21
-7.41869
0
LINE
8
BLACK
6
CONTINUOUS
10
2.48435
20
-7.41869
11
2.49184
21
-7.42244
0
LINE
8
BLACK
6
CONTINUOUS
10
2.49184
20
-7.42244
11
2.49559
21
-7.42619
0
LINE
8
BLACK
6
CONTINUOUS
10
2.49559
20
-7.42619
11
2.49934
21
-7.43369
0
LINE
8
BLACK
6
CONTINUOUS
10
2.49934
20
-7.43369
11
2.50309
21
-7.44869
0
LINE
8
BLACK
6
CONTINUOUS
10
2.50309
20
-7.44869
11
2.50309
21
-7.46744
0
LINE
8
BLACK
6
CONTINUOUS
10
2.50309
20
-7.46744
11
2.49934
21
-7.48243
0
LINE
8
BLACK
6
CONTINUOUS
10
2.49934
20
-7.48243
11
2.49559
21
-7.48993
0
LINE
8
BLACK
6
CONTINUOUS
10
2.49559
20
-7.48993
11
2.49184
21
-7.49368
0
LINE
8
BLACK
6
CONTINUOUS
10
2.49184
20
-7.49368
11
2.48435
21
-7.49743
0
LINE
8
BLACK
6
CONTINUOUS
10
2.48435
20
-7.49743
11
2.47685
21
-7.49743
0
LINE
8
BLACK
6
CONTINUOUS
10
2.47685
20
-7.49743
11
2.46935
21
-7.49368
0
LINE
8
BLACK
6
CONTINUOUS
10
2.46935
20
-7.49368
11
2.4656
21
-7.48993
0
LINE
8
BLACK
6
CONTINUOUS
10
2.4656
20
-7.48993
11
2.46185
21
-7.48243
0
LINE
8
BLACK
6
CONTINUOUS
10
2.46185
20
-7.48243
11
2.4581
21
-7.46744
0
LINE
8
BLACK
6
CONTINUOUS
10
2.4581
20
-7.46744
11
2.4581
21
-7.44869
0
LINE
8
BLACK
6
CONTINUOUS
10
2.4581
20
-7.44869
11
2.46185
21
-7.43369
0
LINE
8
BLACK
6
CONTINUOUS
10
2.46185
20
-7.43369
11
2.4656
21
-7.42619
0
LINE
8
BLACK
6
CONTINUOUS
10
2.4656
20
-7.42619
11
2.46935
21
-7.42244
0
LINE
8
BLACK
6
CONTINUOUS
10
2.46935
20
-7.42244
11
2.47685
21
-7.41869
0
LINE
8
BLACK
6
CONTINUOUS
10
2.57058
20
-7.44494
11
2.57058
21
-7.49743
0
LINE
8
BLACK
6
CONTINUOUS
10
2.55184
20
-7.41494
11
2.53309
21
-7.47118
0
LINE
8
BLACK
6
CONTINUOUS
10
2.53309
20
-7.47118
11
2.58183
21
-7.47118
0
LINE
8
BLACK
6
CONTINUOUS
10
2.60433
20
-7.41869
11
2.65307
21
-7.41869
0
LINE
8
BLACK
6
CONTINUOUS
10
2.65307
20
-7.41869
11
2.62683
21
-7.44869
0
LINE
8
BLACK
6
CONTINUOUS
10
2.62683
20
-7.44869
11
2.63808
21
-7.44869
0
LINE
8
BLACK
6
CONTINUOUS
10
2.63808
20
-7.44869
11
2.64558
21
-7.45244
0
LINE
8
BLACK
6
CONTINUOUS
10
2.64558
20
-7.45244
11
2.64933
21
-7.45619
0
LINE
8
BLACK
6
CONTINUOUS
10
2.64933
20
-7.45619
11
2.65307
21
-7.46369
0
LINE
8
BLACK
6
CONTINUOUS
10
2.65307
20
-7.46369
11
2.65307
21
-7.48243
0
LINE
8
BLACK
6
CONTINUOUS
10
2.65307
20
-7.48243
11
2.64933
21
-7.48993
0
LINE
8
BLACK
6
CONTINUOUS
10
2.64933
20
-7.48993
11
2.64558
21
-7.49368
0
LINE
8
BLACK
6
CONTINUOUS
10
2.64558
20
-7.49368
11
2.63808
21
-7.49743
0
LINE
8
BLACK
6
CONTINUOUS
10
2.63808
20
-7.49743
11
2.61558
21
-7.49743
0
LINE
8
BLACK
6
CONTINUOUS
10
2.61558
20
-7.49743
11
2.60808
21
-7.49368
0
LINE
8
BLACK
6
CONTINUOUS
10
2.60808
20
-7.49368
11
2.60433
21
-7.48993
0
LINE
8
BLACK
6
CONTINUOUS
10
2.67932
20
-7.41869
11
2.72807
21
-7.41869
0
LINE
8
BLACK
6
CONTINUOUS
10
2.72807
20
-7.41869
11
2.70182
21
-7.44869
0
LINE
8
BLACK
6
CONTINUOUS
10
2.70182
20
-7.44869
11
2.71307
21
-7.44869
0
LINE
8
BLACK
6
CONTINUOUS
10
2.71307
20
-7.44869
11
2.72057
21
-7.45244
0
LINE
8
BLACK
6
CONTINUOUS
10
2.72057
20
-7.45244
11
2.72432
21
-7.45619
0
LINE
8
BLACK
6
CONTINUOUS
10
2.72432
20
-7.45619
11
2.72807
21
-7.46369
0
LINE
8
BLACK
6
CONTINUOUS
10
2.72807
20
-7.46369
11
2.72807
21
-7.48243
0
LINE
8
BLACK
6
CONTINUOUS
10
2.72807
20
-7.48243
11
2.72432
21
-7.48993
0
LINE
8
BLACK
6
CONTINUOUS
10
2.72432
20
-7.48993
11
2.72057
21
-7.49368
0
LINE
8
BLACK
6
CONTINUOUS
10
2.72057
20
-7.49368
11
2.71307
21
-7.49743
0
LINE
8
BLACK
6
CONTINUOUS
10
2.71307
20
-7.49743
11
2.69057
21
-7.49743
0
LINE
8
BLACK
6
CONTINUOUS
10
2.69057
20
-7.49743
11
2.68307
21
-7.49368
0
LINE
8
BLACK
6
CONTINUOUS
10
2.68307
20
-7.49368
11
2.67932
21
-7.48993
0
LINE
8
BLACK
6
CONTINUOUS
10
2.75806
20
-7.41869
11
2.75806
21
-7.43369
0
LINE
8
BLACK
6
CONTINUOUS
10
2.78806
20
-7.41869
11
2.78806
21
-7.43369
0
LINE
8
BLACK
6
CONTINUOUS
10
2.90429
20
-7.52743
11
2.90054
21
-7.52368
0
LINE
8
BLACK
6
CONTINUOUS
10
2.90054
20
-7.52368
11
2.89304
21
-7.51243
0
LINE
8
BLACK
6
CONTINUOUS
10
2.89304
20
-7.51243
11
2.8893
21
-7.50493
0
LINE
8
BLACK
6
CONTINUOUS
10
2.8893
20
-7.50493
11
2.88555
21
-7.49368
0
LINE
8
BLACK
6
CONTINUOUS
10
2.88555
20
-7.49368
11
2.8818
21
-7.47493
0
LINE
8
BLACK
6
CONTINUOUS
10
2.8818
20
-7.47493
11
2.8818
21
-7.45994
0
LINE
8
BLACK
6
CONTINUOUS
10
2.8818
20
-7.45994
11
2.88555
21
-7.44119
0
LINE
8
BLACK
6
CONTINUOUS
10
2.88555
20
-7.44119
11
2.8893
21
-7.42994
0
LINE
8
BLACK
6
CONTINUOUS
10
2.8893
20
-7.42994
11
2.89304
21
-7.42244
0
LINE
8
BLACK
6
CONTINUOUS
10
2.89304
20
-7.42244
11
2.90054
21
-7.41119
0
LINE
8
BLACK
6
CONTINUOUS
10
2.90054
20
-7.41119
11
2.90429
21
-7.40744
0
LINE
8
BLACK
6
CONTINUOUS
10
2.97178
20
-7.41869
11
2.93429
21
-7.41869
0
LINE
8
BLACK
6
CONTINUOUS
10
2.93429
20
-7.41869
11
2.93054
21
-7.45619
0
LINE
8
BLACK
6
CONTINUOUS
10
2.93054
20
-7.45619
11
2.93429
21
-7.45244
0
LINE
8
BLACK
6
CONTINUOUS
10
2.93429
20
-7.45244
11
2.94179
21
-7.44869
0
LINE
8
BLACK
6
CONTINUOUS
10
2.94179
20
-7.44869
11
2.96054
21
-7.44869
0
LINE
8
BLACK
6
CONTINUOUS
10
2.96054
20
-7.44869
11
2.96804
21
-7.45244
0
LINE
8
BLACK
6
CONTINUOUS
10
2.96804
20
-7.45244
11
2.97178
21
-7.45619
0
LINE
8
BLACK
6
CONTINUOUS
10
2.97178
20
-7.45619
11
2.97553
21
-7.46369
0
LINE
8
BLACK
6
CONTINUOUS
10
2.97553
20
-7.46369
11
2.97553
21
-7.48243
0
LINE
8
BLACK
6
CONTINUOUS
10
2.97553
20
-7.48243
11
2.97178
21
-7.48993
0
LINE
8
BLACK
6
CONTINUOUS
10
2.97178
20
-7.48993
11
2.96804
21
-7.49368
0
LINE
8
BLACK
6
CONTINUOUS
10
2.96804
20
-7.49368
11
2.96054
21
-7.49743
0
LINE
8
BLACK
6
CONTINUOUS
10
2.96054
20
-7.49743
11
2.94179
21
-7.49743
0
LINE
8
BLACK
6
CONTINUOUS
10
2.94179
20
-7.49743
11
2.93429
21
-7.49368
0
LINE
8
BLACK
6
CONTINUOUS
10
2.93429
20
-7.49368
11
2.93054
21
-7.48993
0
LINE
8
BLACK
6
CONTINUOUS
10
3.02428
20
-7.41869
11
3.03178
21
-7.41869
0
LINE
8
BLACK
6
CONTINUOUS
10
3.03178
20
-7.41869
11
3.03928
21
-7.42244
0
LINE
8
BLACK
6
CONTINUOUS
10
3.03928
20
-7.42244
11
3.04303
21
-7.42619
0
LINE
8
BLACK
6
CONTINUOUS
10
3.04303
20
-7.42619
11
3.04678
21
-7.43369
0
LINE
8
BLACK
6
CONTINUOUS
10
3.04678
20
-7.43369
11
3.05052
21
-7.44869
0
LINE
8
BLACK
6
CONTINUOUS
10
3.05052
20
-7.44869
11
3.05052
21
-7.46744
0
LINE
8
BLACK
6
CONTINUOUS
10
3.05052
20
-7.46744
11
3.04678
21
-7.48243
0
LINE
8
BLACK
6
CONTINUOUS
10
3.04678
20
-7.48243
11
3.04303
21
-7.48993
0
LINE
8
BLACK
6
CONTINUOUS
10
3.04303
20
-7.48993
11
3.03928
21
-7.49368
0
LINE
8
BLACK
6
CONTINUOUS
10
3.03928
20
-7.49368
11
3.03178
21
-7.49743
0
LINE
8
BLACK
6
CONTINUOUS
10
3.03178
20
-7.49743
11
3.02428
21
-7.49743
0
LINE
8
BLACK
6
CONTINUOUS
10
3.02428
20
-7.49743
11
3.01678
21
-7.49368
0
LINE
8
BLACK
6
CONTINUOUS
10
3.01678
20
-7.49368
11
3.01303
21
-7.48993
0
LINE
8
BLACK
6
CONTINUOUS
10
3.01303
20
-7.48993
11
3.00928
21
-7.48243
0
LINE
8
BLACK
6
CONTINUOUS
10
3.00928
20
-7.48243
11
3.00553
21
-7.46744
0
LINE
8
BLACK
6
CONTINUOUS
10
3.00553
20
-7.46744
11
3.00553
21
-7.44869
0
LINE
8
BLACK
6
CONTINUOUS
10
3.00553
20
-7.44869
11
3.00928
21
-7.43369
0
LINE
8
BLACK
6
CONTINUOUS
10
3.00928
20
-7.43369
11
3.01303
21
-7.42619
0
LINE
8
BLACK
6
CONTINUOUS
10
3.01303
20
-7.42619
11
3.01678
21
-7.42244
0
LINE
8
BLACK
6
CONTINUOUS
10
3.01678
20
-7.42244
11
3.02428
21
-7.41869
0
LINE
8
BLACK
6
CONTINUOUS
10
3.14426
20
-7.49743
11
3.14426
21
-7.41869
0
LINE
8
BLACK
6
CONTINUOUS
10
3.17801
20
-7.49743
11
3.17801
21
-7.45619
0
LINE
8
BLACK
6
CONTINUOUS
10
3.17801
20
-7.45619
11
3.17426
21
-7.44869
0
LINE
8
BLACK
6
CONTINUOUS
10
3.17426
20
-7.44869
11
3.16676
21
-7.44494
0
LINE
8
BLACK
6
CONTINUOUS
10
3.16676
20
-7.44494
11
3.15551
21
-7.44494
0
LINE
8
BLACK
6
CONTINUOUS
10
3.15551
20
-7.44494
11
3.14801
21
-7.44869
0
LINE
8
BLACK
6
CONTINUOUS
10
3.14801
20
-7.44869
11
3.14426
21
-7.45244
0
LINE
8
BLACK
6
CONTINUOUS
10
3.22675
20
-7.49743
11
3.21925
21
-7.49368
0
LINE
8
BLACK
6
CONTINUOUS
10
3.21925
20
-7.49368
11
3.2155
21
-7.48993
0
LINE
8
BLACK
6
CONTINUOUS
10
3.2155
20
-7.48993
11
3.21175
21
-7.48243
0
LINE
8
BLACK
6
CONTINUOUS
10
3.21175
20
-7.48243
11
3.21175
21
-7.45994
0
LINE
8
BLACK
6
CONTINUOUS
10
3.21175
20
-7.45994
11
3.2155
21
-7.45244
0
LINE
8
BLACK
6
CONTINUOUS
10
3.2155
20
-7.45244
11
3.21925
21
-7.44869
0
LINE
8
BLACK
6
CONTINUOUS
10
3.21925
20
-7.44869
11
3.22675
21
-7.44494
0
LINE
8
BLACK
6
CONTINUOUS
10
3.22675
20
-7.44494
11
3.238
21
-7.44494
0
LINE
8
BLACK
6
CONTINUOUS
10
3.238
20
-7.44494
11
3.2455
21
-7.44869
0
LINE
8
BLACK
6
CONTINUOUS
10
3.2455
20
-7.44869
11
3.24925
21
-7.45244
0
LINE
8
BLACK
6
CONTINUOUS
10
3.24925
20
-7.45244
11
3.253
21
-7.45994
0
LINE
8
BLACK
6
CONTINUOUS
10
3.253
20
-7.45994
11
3.253
21
-7.48243
0
LINE
8
BLACK
6
CONTINUOUS
10
3.253
20
-7.48243
11
3.24925
21
-7.48993
0
LINE
8
BLACK
6
CONTINUOUS
10
3.24925
20
-7.48993
11
3.2455
21
-7.49368
0
LINE
8
BLACK
6
CONTINUOUS
10
3.2455
20
-7.49368
11
3.238
21
-7.49743
0
LINE
8
BLACK
6
CONTINUOUS
10
3.238
20
-7.49743
11
3.22675
21
-7.49743
0
LINE
8
BLACK
6
CONTINUOUS
10
3.29799
20
-7.49743
11
3.29049
21
-7.49368
0
LINE
8
BLACK
6
CONTINUOUS
10
3.29049
20
-7.49368
11
3.28675
21
-7.48618
0
LINE
8
BLACK
6
CONTINUOUS
10
3.28675
20
-7.48618
11
3.28675
21
-7.41869
0
LINE
8
BLACK
6
CONTINUOUS
10
3.35799
20
-7.49368
11
3.35049
21
-7.49743
0
LINE
8
BLACK
6
CONTINUOUS
10
3.35049
20
-7.49743
11
3.33549
21
-7.49743
0
LINE
8
BLACK
6
CONTINUOUS
10
3.33549
20
-7.49743
11
3.32799
21
-7.49368
0
LINE
8
BLACK
6
CONTINUOUS
10
3.32799
20
-7.49368
11
3.32424
21
-7.48618
0
LINE
8
BLACK
6
CONTINUOUS
10
3.32424
20
-7.48618
11
3.32424
21
-7.45619
0
LINE
8
BLACK
6
CONTINUOUS
10
3.32424
20
-7.45619
11
3.32799
21
-7.44869
0
LINE
8
BLACK
6
CONTINUOUS
10
3.32799
20
-7.44869
11
3.33549
21
-7.44494
0
LINE
8
BLACK
6
CONTINUOUS
10
3.33549
20
-7.44494
11
3.35049
21
-7.44494
0
LINE
8
BLACK
6
CONTINUOUS
10
3.35049
20
-7.44494
11
3.35799
21
-7.44869
0
LINE
8
BLACK
6
CONTINUOUS
10
3.35799
20
-7.44869
11
3.36174
21
-7.45619
0
LINE
8
BLACK
6
CONTINUOUS
10
3.36174
20
-7.45619
11
3.36174
21
-7.46369
0
LINE
8
BLACK
6
CONTINUOUS
10
3.36174
20
-7.46369
11
3.32424
21
-7.47118
0
LINE
8
BLACK
6
CONTINUOUS
10
3.39173
20
-7.49368
11
3.39923
21
-7.49743
0
LINE
8
BLACK
6
CONTINUOUS
10
3.39923
20
-7.49743
11
3.41423
21
-7.49743
0
LINE
8
BLACK
6
CONTINUOUS
10
3.41423
20
-7.49743
11
3.42173
21
-7.49368
0
LINE
8
BLACK
6
CONTINUOUS
10
3.42173
20
-7.49368
11
3.42548
21
-7.48618
0
LINE
8
BLACK
6
CONTINUOUS
10
3.42548
20
-7.48618
11
3.42548
21
-7.48243
0
LINE
8
BLACK
6
CONTINUOUS
10
3.42548
20
-7.48243
11
3.42173
21
-7.47493
0
LINE
8
BLACK
6
CONTINUOUS
10
3.42173
20
-7.47493
11
3.41423
21
-7.47118
0
LINE
8
BLACK
6
CONTINUOUS
10
3.41423
20
-7.47118
11
3.40298
21
-7.47118
0
LINE
8
BLACK
6
CONTINUOUS
10
3.40298
20
-7.47118
11
3.39548
21
-7.46744
0
LINE
8
BLACK
6
CONTINUOUS
10
3.39548
20
-7.46744
11
3.39173
21
-7.45994
0
LINE
8
BLACK
6
CONTINUOUS
10
3.39173
20
-7.45994
11
3.39173
21
-7.45619
0
LINE
8
BLACK
6
CONTINUOUS
10
3.39173
20
-7.45619
11
3.39548
21
-7.44869
0
LINE
8
BLACK
6
CONTINUOUS
10
3.39548
20
-7.44869
11
3.40298
21
-7.44494
0
LINE
8
BLACK
6
CONTINUOUS
10
3.40298
20
-7.44494
11
3.41423
21
-7.44494
0
LINE
8
BLACK
6
CONTINUOUS
10
3.41423
20
-7.44494
11
3.42173
21
-7.44869
0
LINE
8
BLACK
6
CONTINUOUS
10
3.45172
20
-7.52743
11
3.45547
21
-7.52368
0
LINE
8
BLACK
6
CONTINUOUS
10
3.45547
20
-7.52368
11
3.46297
21
-7.51243
0
LINE
8
BLACK
6
CONTINUOUS
10
3.46297
20
-7.51243
11
3.46672
21
-7.50493
0
LINE
8
BLACK
6
CONTINUOUS
10
3.46672
20
-7.50493
11
3.47047
21
-7.49368
0
LINE
8
BLACK
6
CONTINUOUS
10
3.47047
20
-7.49368
11
3.47422
21
-7.47493
0
LINE
8
BLACK
6
CONTINUOUS
10
3.47422
20
-7.47493
11
3.47422
21
-7.45994
0
LINE
8
BLACK
6
CONTINUOUS
10
3.47422
20
-7.45994
11
3.47047
21
-7.44119
0
LINE
8
BLACK
6
CONTINUOUS
10
3.47047
20
-7.44119
11
3.46672
21
-7.42994
0
LINE
8
BLACK
6
CONTINUOUS
10
3.46672
20
-7.42994
11
3.46297
21
-7.42244
0
LINE
8
BLACK
6
CONTINUOUS
10
3.46297
20
-7.42244
11
3.45547
21
-7.41119
0
LINE
8
BLACK
6
CONTINUOUS
10
3.45547
20
-7.41119
11
3.45172
21
-7.40744
0
LINE
8
BLACK
6
CONTINUOUS
10
1.49112
20
-7.58244
11
1.49112
21
-7.54906
0
LINE
8
BLACK
6
CONTINUOUS
10
1.49112
20
-7.54906
11
1.45774
21
-7.54906
0
LINE
8
BLACK
6
CONTINUOUS
10
1.45774
20
-7.54906
11
1.45774
21
-7.58244
0
LINE
8
BLACK
6
CONTINUOUS
10
1.45774
20
-7.58244
11
1.49112
21
-7.58244
0
LINE
8
BLACK
6
CONTINUOUS
10
1.6407
20
-7.60137
11
1.59571
21
-7.60137
0
LINE
8
BLACK
6
CONTINUOUS
10
1.6182
20
-7.60137
11
1.6182
21
-7.52263
0
LINE
8
BLACK
6
CONTINUOUS
10
1.6182
20
-7.52263
11
1.6107
21
-7.53388
0
LINE
8
BLACK
6
CONTINUOUS
10
1.6107
20
-7.53388
11
1.60321
21
-7.54138
0
LINE
8
BLACK
6
CONTINUOUS
10
1.60321
20
-7.54138
11
1.59571
21
-7.54513
0
LINE
8
BLACK
6
CONTINUOUS
10
1.67445
20
-7.59387
11
1.6782
21
-7.59762
0
LINE
8
BLACK
6
CONTINUOUS
10
1.6782
20
-7.59762
11
1.67445
21
-7.60137
0
LINE
8
BLACK
6
CONTINUOUS
10
1.67445
20
-7.60137
11
1.6707
21
-7.59762
0
LINE
8
BLACK
6
CONTINUOUS
10
1.6707
20
-7.59762
11
1.67445
21
-7.59387
0
LINE
8
BLACK
6
CONTINUOUS
10
1.67445
20
-7.59387
11
1.67445
21
-7.60137
0
LINE
8
BLACK
6
CONTINUOUS
10
1.75319
20
-7.60137
11
1.70819
21
-7.60137
0
LINE
8
BLACK
6
CONTINUOUS
10
1.73069
20
-7.60137
11
1.73069
21
-7.52263
0
LINE
8
BLACK
6
CONTINUOUS
10
1.73069
20
-7.52263
11
1.72319
21
-7.53388
0
LINE
8
BLACK
6
CONTINUOUS
10
1.72319
20
-7.53388
11
1.71569
21
-7.54138
0
LINE
8
BLACK
6
CONTINUOUS
10
1.71569
20
-7.54138
11
1.70819
21
-7.54513
0
LINE
8
BLACK
6
CONTINUOUS
10
1.79068
20
-7.60137
11
1.80568
21
-7.60137
0
LINE
8
BLACK
6
CONTINUOUS
10
1.80568
20
-7.60137
11
1.81318
21
-7.59762
0
LINE
8
BLACK
6
CONTINUOUS
10
1.81318
20
-7.59762
11
1.81693
21
-7.59387
0
LINE
8
BLACK
6
CONTINUOUS
10
1.81693
20
-7.59387
11
1.82443
21
-7.58262
0
LINE
8
BLACK
6
CONTINUOUS
10
1.82443
20
-7.58262
11
1.82818
21
-7.56762
0
LINE
8
BLACK
6
CONTINUOUS
10
1.82818
20
-7.56762
11
1.82818
21
-7.53763
0
LINE
8
BLACK
6
CONTINUOUS
10
1.82818
20
-7.53763
11
1.82443
21
-7.53013
0
LINE
8
BLACK
6
CONTINUOUS
10
1.82443
20
-7.53013
11
1.82068
21
-7.52638
0
LINE
8
BLACK
6
CONTINUOUS
10
1.82068
20
-7.52638
11
1.81318
21
-7.52263
0
LINE
8
BLACK
6
CONTINUOUS
10
1.81318
20
-7.52263
11
1.79818
21
-7.52263
0
LINE
8
BLACK
6
CONTINUOUS
10
1.79818
20
-7.52263
11
1.79068
21
-7.52638
0
LINE
8
BLACK
6
CONTINUOUS
10
1.79068
20
-7.52638
11
1.78693
21
-7.53013
0
LINE
8
BLACK
6
CONTINUOUS
10
1.78693
20
-7.53013
11
1.78318
21
-7.53763
0
LINE
8
BLACK
6
CONTINUOUS
10
1.78318
20
-7.53763
11
1.78318
21
-7.55637
0
LINE
8
BLACK
6
CONTINUOUS
10
1.78318
20
-7.55637
11
1.78693
21
-7.56387
0
LINE
8
BLACK
6
CONTINUOUS
10
1.78693
20
-7.56387
11
1.79068
21
-7.56762
0
LINE
8
BLACK
6
CONTINUOUS
10
1.79068
20
-7.56762
11
1.79818
21
-7.57137
0
LINE
8
BLACK
6
CONTINUOUS
10
1.79818
20
-7.57137
11
1.81318
21
-7.57137
0
LINE
8
BLACK
6
CONTINUOUS
10
1.81318
20
-7.57137
11
1.82068
21
-7.56762
0
LINE
8
BLACK
6
CONTINUOUS
10
1.82068
20
-7.56762
11
1.82443
21
-7.56387
0
LINE
8
BLACK
6
CONTINUOUS
10
1.82443
20
-7.56387
11
1.82818
21
-7.55637
0
LINE
8
BLACK
6
CONTINUOUS
10
1.86567
20
-7.60137
11
1.88067
21
-7.60137
0
LINE
8
BLACK
6
CONTINUOUS
10
1.88067
20
-7.60137
11
1.88817
21
-7.59762
0
LINE
8
BLACK
6
CONTINUOUS
10
1.88817
20
-7.59762
11
1.89192
21
-7.59387
0
LINE
8
BLACK
6
CONTINUOUS
10
1.89192
20
-7.59387
11
1.89942
21
-7.58262
0
LINE
8
BLACK
6
CONTINUOUS
10
1.89942
20
-7.58262
11
1.90317
21
-7.56762
0
LINE
8
BLACK
6
CONTINUOUS
10
1.90317
20
-7.56762
11
1.90317
21
-7.53763
0
LINE
8
BLACK
6
CONTINUOUS
10
1.90317
20
-7.53763
11
1.89942
21
-7.53013
0
LINE
8
BLACK
6
CONTINUOUS
10
1.89942
20
-7.53013
11
1.89567
21
-7.52638
0
LINE
8
BLACK
6
CONTINUOUS
10
1.89567
20
-7.52638
11
1.88817
21
-7.52263
0
LINE
8
BLACK
6
CONTINUOUS
10
1.88817
20
-7.52263
11
1.87317
21
-7.52263
0
LINE
8
BLACK
6
CONTINUOUS
10
1.87317
20
-7.52263
11
1.86567
21
-7.52638
0
LINE
8
BLACK
6
CONTINUOUS
10
1.86567
20
-7.52638
11
1.86192
21
-7.53013
0
LINE
8
BLACK
6
CONTINUOUS
10
1.86192
20
-7.53013
11
1.85817
21
-7.53763
0
LINE
8
BLACK
6
CONTINUOUS
10
1.85817
20
-7.53763
11
1.85817
21
-7.55637
0
LINE
8
BLACK
6
CONTINUOUS
10
1.85817
20
-7.55637
11
1.86192
21
-7.56387
0
LINE
8
BLACK
6
CONTINUOUS
10
1.86192
20
-7.56387
11
1.86567
21
-7.56762
0
LINE
8
BLACK
6
CONTINUOUS
10
1.86567
20
-7.56762
11
1.87317
21
-7.57137
0
LINE
8
BLACK
6
CONTINUOUS
10
1.87317
20
-7.57137
11
1.88817
21
-7.57137
0
LINE
8
BLACK
6
CONTINUOUS
10
1.88817
20
-7.57137
11
1.89567
21
-7.56762
0
LINE
8
BLACK
6
CONTINUOUS
10
1.89567
20
-7.56762
11
1.89942
21
-7.56387
0
LINE
8
BLACK
6
CONTINUOUS
10
1.89942
20
-7.56387
11
1.90317
21
-7.55637
0
LINE
8
BLACK
6
CONTINUOUS
10
1.93691
20
-7.60137
11
1.93691
21
-7.54888
0
LINE
8
BLACK
6
CONTINUOUS
10
1.93691
20
-7.55637
11
1.94066
21
-7.55262
0
LINE
8
BLACK
6
CONTINUOUS
10
1.94066
20
-7.55262
11
1.94816
21
-7.54888
0
LINE
8
BLACK
6
CONTINUOUS
10
1.94816
20
-7.54888
11
1.95941
21
-7.54888
0
LINE
8
BLACK
6
CONTINUOUS
10
1.95941
20
-7.54888
11
1.96691
21
-7.55262
0
LINE
8
BLACK
6
CONTINUOUS
10
1.96691
20
-7.55262
11
1.97066
21
-7.56012
0
LINE
8
BLACK
6
CONTINUOUS
10
1.97066
20
-7.56012
11
1.97066
21
-7.60137
0
LINE
8
BLACK
6
CONTINUOUS
10
1.97066
20
-7.56012
11
1.97441
21
-7.55262
0
LINE
8
BLACK
6
CONTINUOUS
10
1.97441
20
-7.55262
11
1.98191
21
-7.54888
0
LINE
8
BLACK
6
CONTINUOUS
10
1.98191
20
-7.54888
11
1.99316
21
-7.54888
0
LINE
8
BLACK
6
CONTINUOUS
10
1.99316
20
-7.54888
11
2.00066
21
-7.55262
0
LINE
8
BLACK
6
CONTINUOUS
10
2.00066
20
-7.55262
11
2.00441
21
-7.56012
0
LINE
8
BLACK
6
CONTINUOUS
10
2.00441
20
-7.56012
11
2.00441
21
-7.60137
0
LINE
8
BLACK
6
CONTINUOUS
10
2.0419
20
-7.60137
11
2.0419
21
-7.54888
0
LINE
8
BLACK
6
CONTINUOUS
10
2.0419
20
-7.55637
11
2.04565
21
-7.55262
0
LINE
8
BLACK
6
CONTINUOUS
10
2.04565
20
-7.55262
11
2.05315
21
-7.54888
0
LINE
8
BLACK
6
CONTINUOUS
10
2.05315
20
-7.54888
11
2.0644
21
-7.54888
0
LINE
8
BLACK
6
CONTINUOUS
10
2.0644
20
-7.54888
11
2.0719
21
-7.55262
0
LINE
8
BLACK
6
CONTINUOUS
10
2.0719
20
-7.55262
11
2.07565
21
-7.56012
0
LINE
8
BLACK
6
CONTINUOUS
10
2.07565
20
-7.56012
11
2.07565
21
-7.60137
0
LINE
8
BLACK
6
CONTINUOUS
10
2.07565
20
-7.56012
11
2.0794
21
-7.55262
0
LINE
8
BLACK
6
CONTINUOUS
10
2.0794
20
-7.55262
11
2.0869
21
-7.54888
0
LINE
8
BLACK
6
CONTINUOUS
10
2.0869
20
-7.54888
11
2.09814
21
-7.54888
0
LINE
8
BLACK
6
CONTINUOUS
10
2.09814
20
-7.54888
11
2.10564
21
-7.55262
0
LINE
8
BLACK
6
CONTINUOUS
10
2.10564
20
-7.55262
11
2.10939
21
-7.56012
0
LINE
8
BLACK
6
CONTINUOUS
10
2.10939
20
-7.56012
11
2.10939
21
-7.60137
0
LINE
8
BLACK
6
CONTINUOUS
10
2.26312
20
-7.51888
11
2.19563
21
-7.62012
0
LINE
8
BLACK
6
CONTINUOUS
10
2.36436
20
-7.52263
11
2.37186
21
-7.52263
0
LINE
8
BLACK
6
CONTINUOUS
10
2.37186
20
-7.52263
11
2.37936
21
-7.52638
0
LINE
8
BLACK
6
CONTINUOUS
10
2.37936
20
-7.52638
11
2.38311
21
-7.53013
0
LINE
8
BLACK
6
CONTINUOUS
10
2.38311
20
-7.53013
11
2.38686
21
-7.53763
0
LINE
8
BLACK
6
CONTINUOUS
10
2.38686
20
-7.53763
11
2.39061
21
-7.55262
0
LINE
8
BLACK
6
CONTINUOUS
10
2.39061
20
-7.55262
11
2.39061
21
-7.57137
0
LINE
8
BLACK
6
CONTINUOUS
10
2.39061
20
-7.57137
11
2.38686
21
-7.58637
0
LINE
8
BLACK
6
CONTINUOUS
10
2.38686
20
-7.58637
11
2.38311
21
-7.59387
0
LINE
8
BLACK
6
CONTINUOUS
10
2.38311
20
-7.59387
11
2.37936
21
-7.59762
0
LINE
8
BLACK
6
CONTINUOUS
10
2.37936
20
-7.59762
11
2.37186
21
-7.60137
0
LINE
8
BLACK
6
CONTINUOUS
10
2.37186
20
-7.60137
11
2.36436
21
-7.60137
0
LINE
8
BLACK
6
CONTINUOUS
10
2.36436
20
-7.60137
11
2.35686
21
-7.59762
0
LINE
8
BLACK
6
CONTINUOUS
10
2.35686
20
-7.59762
11
2.35311
21
-7.59387
0
LINE
8
BLACK
6
CONTINUOUS
10
2.35311
20
-7.59387
11
2.34936
21
-7.58637
0
LINE
8
BLACK
6
CONTINUOUS
10
2.34936
20
-7.58637
11
2.34561
21
-7.57137
0
LINE
8
BLACK
6
CONTINUOUS
10
2.34561
20
-7.57137
11
2.34561
21
-7.55262
0
LINE
8
BLACK
6
CONTINUOUS
10
2.34561
20
-7.55262
11
2.34936
21
-7.53763
0
LINE
8
BLACK
6
CONTINUOUS
10
2.34936
20
-7.53763
11
2.35311
21
-7.53013
0
LINE
8
BLACK
6
CONTINUOUS
10
2.35311
20
-7.53013
11
2.35686
21
-7.52638
0
LINE
8
BLACK
6
CONTINUOUS
10
2.35686
20
-7.52638
11
2.36436
21
-7.52263
0
LINE
8
BLACK
6
CONTINUOUS
10
2.42435
20
-7.59387
11
2.4281
21
-7.59762
0
LINE
8
BLACK
6
CONTINUOUS
10
2.4281
20
-7.59762
11
2.42435
21
-7.60137
0
LINE
8
BLACK
6
CONTINUOUS
10
2.42435
20
-7.60137
11
2.4206
21
-7.59762
0
LINE
8
BLACK
6
CONTINUOUS
10
2.4206
20
-7.59762
11
2.42435
21
-7.59387
0
LINE
8
BLACK
6
CONTINUOUS
10
2.42435
20
-7.59387
11
2.42435
21
-7.60137
0
LINE
8
BLACK
6
CONTINUOUS
10
2.47685
20
-7.52263
11
2.48435
21
-7.52263
0
LINE
8
BLACK
6
CONTINUOUS
10
2.48435
20
-7.52263
11
2.49184
21
-7.52638
0
LINE
8
BLACK
6
CONTINUOUS
10
2.49184
20
-7.52638
11
2.49559
21
-7.53013
0
LINE
8
BLACK
6
CONTINUOUS
10
2.49559
20
-7.53013
11
2.49934
21
-7.53763
0
LINE
8
BLACK
6
CONTINUOUS
10
2.49934
20
-7.53763
11
2.50309
21
-7.55262
0
LINE
8
BLACK
6
CONTINUOUS
10
2.50309
20
-7.55262
11
2.50309
21
-7.57137
0
LINE
8
BLACK
6
CONTINUOUS
10
2.50309
20
-7.57137
11
2.49934
21
-7.58637
0
LINE
8
BLACK
6
CONTINUOUS
10
2.49934
20
-7.58637
11
2.49559
21
-7.59387
0
LINE
8
BLACK
6
CONTINUOUS
10
2.49559
20
-7.59387
11
2.49184
21
-7.59762
0
LINE
8
BLACK
6
CONTINUOUS
10
2.49184
20
-7.59762
11
2.48435
21
-7.60137
0
LINE
8
BLACK
6
CONTINUOUS
10
2.48435
20
-7.60137
11
2.47685
21
-7.60137
0
LINE
8
BLACK
6
CONTINUOUS
10
2.47685
20
-7.60137
11
2.46935
21
-7.59762
0
LINE
8
BLACK
6
CONTINUOUS
10
2.46935
20
-7.59762
11
2.4656
21
-7.59387
0
LINE
8
BLACK
6
CONTINUOUS
10
2.4656
20
-7.59387
11
2.46185
21
-7.58637
0
LINE
8
BLACK
6
CONTINUOUS
10
2.46185
20
-7.58637
11
2.4581
21
-7.57137
0
LINE
8
BLACK
6
CONTINUOUS
10
2.4581
20
-7.57137
11
2.4581
21
-7.55262
0
LINE
8
BLACK
6
CONTINUOUS
10
2.4581
20
-7.55262
11
2.46185
21
-7.53763
0
LINE
8
BLACK
6
CONTINUOUS
10
2.46185
20
-7.53763
11
2.4656
21
-7.53013
0
LINE
8
BLACK
6
CONTINUOUS
10
2.4656
20
-7.53013
11
2.46935
21
-7.52638
0
LINE
8
BLACK
6
CONTINUOUS
10
2.46935
20
-7.52638
11
2.47685
21
-7.52263
0
LINE
8
BLACK
6
CONTINUOUS
10
2.57058
20
-7.54888
11
2.57058
21
-7.60137
0
LINE
8
BLACK
6
CONTINUOUS
10
2.55184
20
-7.51888
11
2.53309
21
-7.57512
0
LINE
8
BLACK
6
CONTINUOUS
10
2.53309
20
-7.57512
11
2.58183
21
-7.57512
0
LINE
8
BLACK
6
CONTINUOUS
10
2.60433
20
-7.52263
11
2.65682
21
-7.52263
0
LINE
8
BLACK
6
CONTINUOUS
10
2.65682
20
-7.52263
11
2.62308
21
-7.60137
0
LINE
8
BLACK
6
CONTINUOUS
10
2.68307
20
-7.53013
11
2.68682
21
-7.52638
0
LINE
8
BLACK
6
CONTINUOUS
10
2.68682
20
-7.52638
11
2.69432
21
-7.52263
0
LINE
8
BLACK
6
CONTINUOUS
10
2.69432
20
-7.52263
11
2.71307
21
-7.52263
0
LINE
8
BLACK
6
CONTINUOUS
10
2.71307
20
-7.52263
11
2.72057
21
-7.52638
0
LINE
8
BLACK
6
CONTINUOUS
10
2.72057
20
-7.52638
11
2.72432
21
-7.53013
0
LINE
8
BLACK
6
CONTINUOUS
10
2.72432
20
-7.53013
11
2.72807
21
-7.53763
0
LINE
8
BLACK
6
CONTINUOUS
10
2.72807
20
-7.53763
11
2.72807
21
-7.54513
0
LINE
8
BLACK
6
CONTINUOUS
10
2.72807
20
-7.54513
11
2.72432
21
-7.55637
0
LINE
8
BLACK
6
CONTINUOUS
10
2.72432
20
-7.55637
11
2.67932
21
-7.60137
0
LINE
8
BLACK
6
CONTINUOUS
10
2.67932
20
-7.60137
11
2.72807
21
-7.60137
0
LINE
8
BLACK
6
CONTINUOUS
10
2.75806
20
-7.52263
11
2.75806
21
-7.53763
0
LINE
8
BLACK
6
CONTINUOUS
10
2.78806
20
-7.52263
11
2.78806
21
-7.53763
0
LINE
8
BLACK
6
CONTINUOUS
10
2.90429
20
-7.63136
11
2.90054
21
-7.62762
0
LINE
8
BLACK
6
CONTINUOUS
10
2.90054
20
-7.62762
11
2.89304
21
-7.61637
0
LINE
8
BLACK
6
CONTINUOUS
10
2.89304
20
-7.61637
11
2.8893
21
-7.60887
0
LINE
8
BLACK
6
CONTINUOUS
10
2.8893
20
-7.60887
11
2.88555
21
-7.59762
0
LINE
8
BLACK
6
CONTINUOUS
10
2.88555
20
-7.59762
11
2.8818
21
-7.57887
0
LINE
8
BLACK
6
CONTINUOUS
10
2.8818
20
-7.57887
11
2.8818
21
-7.56387
0
LINE
8
BLACK
6
CONTINUOUS
10
2.8818
20
-7.56387
11
2.88555
21
-7.54513
0
LINE
8
BLACK
6
CONTINUOUS
10
2.88555
20
-7.54513
11
2.8893
21
-7.53388
0
LINE
8
BLACK
6
CONTINUOUS
10
2.8893
20
-7.53388
11
2.89304
21
-7.52638
0
LINE
8
BLACK
6
CONTINUOUS
10
2.89304
20
-7.52638
11
2.90054
21
-7.51513
0
LINE
8
BLACK
6
CONTINUOUS
10
2.90054
20
-7.51513
11
2.90429
21
-7.51138
0
LINE
8
BLACK
6
CONTINUOUS
10
2.92679
20
-7.52263
11
2.97553
21
-7.52263
0
LINE
8
BLACK
6
CONTINUOUS
10
2.97553
20
-7.52263
11
2.94929
21
-7.55262
0
LINE
8
BLACK
6
CONTINUOUS
10
2.94929
20
-7.55262
11
2.96054
21
-7.55262
0
LINE
8
BLACK
6
CONTINUOUS
10
2.96054
20
-7.55262
11
2.96804
21
-7.55637
0
LINE
8
BLACK
6
CONTINUOUS
10
2.96804
20
-7.55637
11
2.97178
21
-7.56012
0
LINE
8
BLACK
6
CONTINUOUS
10
2.97178
20
-7.56012
11
2.97553
21
-7.56762
0
LINE
8
BLACK
6
CONTINUOUS
10
2.97553
20
-7.56762
11
2.97553
21
-7.58637
0
LINE
8
BLACK
6
CONTINUOUS
10
2.97553
20
-7.58637
11
2.97178
21
-7.59387
0
LINE
8
BLACK
6
CONTINUOUS
10
2.97178
20
-7.59387
11
2.96804
21
-7.59762
0
LINE
8
BLACK
6
CONTINUOUS
10
2.96804
20
-7.59762
11
2.96054
21
-7.60137
0
LINE
8
BLACK
6
CONTINUOUS
10
2.96054
20
-7.60137
11
2.93804
21
-7.60137
0
LINE
8
BLACK
6
CONTINUOUS
10
2.93804
20
-7.60137
11
2.93054
21
-7.59762
0
LINE
8
BLACK
6
CONTINUOUS
10
2.93054
20
-7.59762
11
2.92679
21
-7.59387
0
LINE
8
BLACK
6
CONTINUOUS
10
3.04303
20
-7.52263
11
3.02803
21
-7.52263
0
LINE
8
BLACK
6
CONTINUOUS
10
3.02803
20
-7.52263
11
3.02053
21
-7.52638
0
LINE
8
BLACK
6
CONTINUOUS
10
3.02053
20
-7.52638
11
3.01678
21
-7.53013
0
LINE
8
BLACK
6
CONTINUOUS
10
3.01678
20
-7.53013
11
3.00928
21
-7.54138
0
LINE
8
BLACK
6
CONTINUOUS
10
3.00928
20
-7.54138
11
3.00553
21
-7.55637
0
LINE
8
BLACK
6
CONTINUOUS
10
3.00553
20
-7.55637
11
3.00553
21
-7.58637
0
LINE
8
BLACK
6
CONTINUOUS
10
3.00553
20
-7.58637
11
3.00928
21
-7.59387
0
LINE
8
BLACK
6
CONTINUOUS
10
3.00928
20
-7.59387
11
3.01303
21
-7.59762
0
LINE
8
BLACK
6
CONTINUOUS
10
3.01303
20
-7.59762
11
3.02053
21
-7.60137
0
LINE
8
BLACK
6
CONTINUOUS
10
3.02053
20
-7.60137
11
3.03553
21
-7.60137
0
LINE
8
BLACK
6
CONTINUOUS
10
3.03553
20
-7.60137
11
3.04303
21
-7.59762
0
LINE
8
BLACK
6
CONTINUOUS
10
3.04303
20
-7.59762
11
3.04678
21
-7.59387
0
LINE
8
BLACK
6
CONTINUOUS
10
3.04678
20
-7.59387
11
3.05052
21
-7.58637
0
LINE
8
BLACK
6
CONTINUOUS
10
3.05052
20
-7.58637
11
3.05052
21
-7.56762
0
LINE
8
BLACK
6
CONTINUOUS
10
3.05052
20
-7.56762
11
3.04678
21
-7.56012
0
LINE
8
BLACK
6
CONTINUOUS
10
3.04678
20
-7.56012
11
3.04303
21
-7.55637
0
LINE
8
BLACK
6
CONTINUOUS
10
3.04303
20
-7.55637
11
3.03553
21
-7.55262
0
LINE
8
BLACK
6
CONTINUOUS
10
3.03553
20
-7.55262
11
3.02053
21
-7.55262
0
LINE
8
BLACK
6
CONTINUOUS
10
3.02053
20
-7.55262
11
3.01303
21
-7.55637
0
LINE
8
BLACK
6
CONTINUOUS
10
3.01303
20
-7.55637
11
3.00928
21
-7.56012
0
LINE
8
BLACK
6
CONTINUOUS
10
3.00928
20
-7.56012
11
3.00553
21
-7.56762
0
LINE
8
BLACK
6
CONTINUOUS
10
3.14426
20
-7.60137
11
3.14426
21
-7.52263
0
LINE
8
BLACK
6
CONTINUOUS
10
3.17801
20
-7.60137
11
3.17801
21
-7.56012
0
LINE
8
BLACK
6
CONTINUOUS
10
3.17801
20
-7.56012
11
3.17426
21
-7.55262
0
LINE
8
BLACK
6
CONTINUOUS
10
3.17426
20
-7.55262
11
3.16676
21
-7.54888
0
LINE
8
BLACK
6
CONTINUOUS
10
3.16676
20
-7.54888
11
3.15551
21
-7.54888
0
LINE
8
BLACK
6
CONTINUOUS
10
3.15551
20
-7.54888
11
3.14801
21
-7.55262
0
LINE
8
BLACK
6
CONTINUOUS
10
3.14801
20
-7.55262
11
3.14426
21
-7.55637
0
LINE
8
BLACK
6
CONTINUOUS
10
3.22675
20
-7.60137
11
3.21925
21
-7.59762
0
LINE
8
BLACK
6
CONTINUOUS
10
3.21925
20
-7.59762
11
3.2155
21
-7.59387
0
LINE
8
BLACK
6
CONTINUOUS
10
3.2155
20
-7.59387
11
3.21175
21
-7.58637
0
LINE
8
BLACK
6
CONTINUOUS
10
3.21175
20
-7.58637
11
3.21175
21
-7.56387
0
LINE
8
BLACK
6
CONTINUOUS
10
3.21175
20
-7.56387
11
3.2155
21
-7.55637
0
LINE
8
BLACK
6
CONTINUOUS
10
3.2155
20
-7.55637
11
3.21925
21
-7.55262
0
LINE
8
BLACK
6
CONTINUOUS
10
3.21925
20
-7.55262
11
3.22675
21
-7.54888
0
LINE
8
BLACK
6
CONTINUOUS
10
3.22675
20
-7.54888
11
3.238
21
-7.54888
0
LINE
8
BLACK
6
CONTINUOUS
10
3.238
20
-7.54888
11
3.2455
21
-7.55262
0
LINE
8
BLACK
6
CONTINUOUS
10
3.2455
20
-7.55262
11
3.24925
21
-7.55637
0
LINE
8
BLACK
6
CONTINUOUS
10
3.24925
20
-7.55637
11
3.253
21
-7.56387
0
LINE
8
BLACK
6
CONTINUOUS
10
3.253
20
-7.56387
11
3.253
21
-7.58637
0
LINE
8
BLACK
6
CONTINUOUS
10
3.253
20
-7.58637
11
3.24925
21
-7.59387
0
LINE
8
BLACK
6
CONTINUOUS
10
3.24925
20
-7.59387
11
3.2455
21
-7.59762
0
LINE
8
BLACK
6
CONTINUOUS
10
3.2455
20
-7.59762
11
3.238
21
-7.60137
0
LINE
8
BLACK
6
CONTINUOUS
10
3.238
20
-7.60137
11
3.22675
21
-7.60137
0
LINE
8
BLACK
6
CONTINUOUS
10
3.29799
20
-7.60137
11
3.29049
21
-7.59762
0
LINE
8
BLACK
6
CONTINUOUS
10
3.29049
20
-7.59762
11
3.28675
21
-7.59012
0
LINE
8
BLACK
6
CONTINUOUS
10
3.28675
20
-7.59012
11
3.28675
21
-7.52263
0
LINE
8
BLACK
6
CONTINUOUS
10
3.35799
20
-7.59762
11
3.35049
21
-7.60137
0
LINE
8
BLACK
6
CONTINUOUS
10
3.35049
20
-7.60137
11
3.33549
21
-7.60137
0
LINE
8
BLACK
6
CONTINUOUS
10
3.33549
20
-7.60137
11
3.32799
21
-7.59762
0
LINE
8
BLACK
6
CONTINUOUS
10
3.32799
20
-7.59762
11
3.32424
21
-7.59012
0
LINE
8
BLACK
6
CONTINUOUS
10
3.32424
20
-7.59012
11
3.32424
21
-7.56012
0
LINE
8
BLACK
6
CONTINUOUS
10
3.32424
20
-7.56012
11
3.32799
21
-7.55262
0
LINE
8
BLACK
6
CONTINUOUS
10
3.32799
20
-7.55262
11
3.33549
21
-7.54888
0
LINE
8
BLACK
6
CONTINUOUS
10
3.33549
20
-7.54888
11
3.35049
21
-7.54888
0
LINE
8
BLACK
6
CONTINUOUS
10
3.35049
20
-7.54888
11
3.35799
21
-7.55262
0
LINE
8
BLACK
6
CONTINUOUS
10
3.35799
20
-7.55262
11
3.36174
21
-7.56012
0
LINE
8
BLACK
6
CONTINUOUS
10
3.36174
20
-7.56012
11
3.36174
21
-7.56762
0
LINE
8
BLACK
6
CONTINUOUS
10
3.36174
20
-7.56762
11
3.32424
21
-7.57512
0
LINE
8
BLACK
6
CONTINUOUS
10
3.39173
20
-7.59762
11
3.39923
21
-7.60137
0
LINE
8
BLACK
6
CONTINUOUS
10
3.39923
20
-7.60137
11
3.41423
21
-7.60137
0
LINE
8
BLACK
6
CONTINUOUS
10
3.41423
20
-7.60137
11
3.42173
21
-7.59762
0
LINE
8
BLACK
6
CONTINUOUS
10
3.42173
20
-7.59762
11
3.42548
21
-7.59012
0
LINE
8
BLACK
6
CONTINUOUS
10
3.42548
20
-7.59012
11
3.42548
21
-7.58637
0
LINE
8
BLACK
6
CONTINUOUS
10
3.42548
20
-7.58637
11
3.42173
21
-7.57887
0
LINE
8
BLACK
6
CONTINUOUS
10
3.42173
20
-7.57887
11
3.41423
21
-7.57512
0
LINE
8
BLACK
6
CONTINUOUS
10
3.41423
20
-7.57512
11
3.40298
21
-7.57512
0
LINE
8
BLACK
6
CONTINUOUS
10
3.40298
20
-7.57512
11
3.39548
21
-7.57137
0
LINE
8
BLACK
6
CONTINUOUS
10
3.39548
20
-7.57137
11
3.39173
21
-7.56387
0
LINE
8
BLACK
6
CONTINUOUS
10
3.39173
20
-7.56387
11
3.39173
21
-7.56012
0
LINE
8
BLACK
6
CONTINUOUS
10
3.39173
20
-7.56012
11
3.39548
21
-7.55262
0
LINE
8
BLACK
6
CONTINUOUS
10
3.39548
20
-7.55262
11
3.40298
21
-7.54888
0
LINE
8
BLACK
6
CONTINUOUS
10
3.40298
20
-7.54888
11
3.41423
21
-7.54888
0
LINE
8
BLACK
6
CONTINUOUS
10
3.41423
20
-7.54888
11
3.42173
21
-7.55262
0
LINE
8
BLACK
6
CONTINUOUS
10
3.45172
20
-7.63136
11
3.45547
21
-7.62762
0
LINE
8
BLACK
6
CONTINUOUS
10
3.45547
20
-7.62762
11
3.46297
21
-7.61637
0
LINE
8
BLACK
6
CONTINUOUS
10
3.46297
20
-7.61637
11
3.46672
21
-7.60887
0
LINE
8
BLACK
6
CONTINUOUS
10
3.46672
20
-7.60887
11
3.47047
21
-7.59762
0
LINE
8
BLACK
6
CONTINUOUS
10
3.47047
20
-7.59762
11
3.47422
21
-7.57887
0
LINE
8
BLACK
6
CONTINUOUS
10
3.47422
20
-7.57887
11
3.47422
21
-7.56387
0
LINE
8
BLACK
6
CONTINUOUS
10
3.47422
20
-7.56387
11
3.47047
21
-7.54513
0
LINE
8
BLACK
6
CONTINUOUS
10
3.47047
20
-7.54513
11
3.46672
21
-7.53388
0
LINE
8
BLACK
6
CONTINUOUS
10
3.46672
20
-7.53388
11
3.46297
21
-7.52638
0
LINE
8
BLACK
6
CONTINUOUS
10
3.46297
20
-7.52638
11
3.45547
21
-7.51513
0
LINE
8
BLACK
6
CONTINUOUS
10
3.45547
20
-7.51513
11
3.45172
21
-7.51138
  0
ENDSEC
  0
EOF
