<?xml version="1.0" standalone="no"?>
<!DOCTYPE svg PUBLIC "-//W3C//DTD SVG 1.1//EN"
"http://www.w3.org/Graphics/SVG/1.1/DTD/svg11.dtd">
<svg width="491.514" height="299.514" viewBox="0 0 10239.9 6239.87" version="1.1"
xmlns="http://www.w3.org/2000/svg"
xmlns:xlink="http://www.w3.org/1999/xlink">
<polyline points="61.937,6119.94 63.051,6131.25 66.351,6142.13 71.711,6152.16 78.923,6160.95 87.713,6168.16 97.741,6173.52 108.621,6176.82 119.937,6177.94 10119.9,6177.94 10131.3,6176.82 10142.1,6173.52 10152.2,6168.16 10160.9,6160.95 10168.2,6152.16 10173.5,6142.13 10176.8,6131.25 10177.9,6119.94 10177.9,119.937 10176.8,108.621 10173.5,97.741 10168.2,87.713 10160.9,78.923 10152.2,71.711 10142.1,66.351 10131.3,63.051 10119.9,61.937 119.937,61.937 108.621,63.051 97.741,66.351 87.713,71.711 78.923,78.923 71.711,87.713 66.351,97.741 63.051,108.621 61.937,119.937 61.937,6119.94" style="stroke:rgb(103,198,105);stroke-width:116.000000;fill:none;stroke-opacity:0.5;stroke-linecap:round;stroke-linejoin:round;;fill:none"/>
<polyline points="61.937,6119.94 63.051,6131.25 66.351,6142.13 71.711,6152.16 78.923,6160.95 87.713,6168.16 97.741,6173.52 108.621,6176.82 119.937,6177.94 10119.9,6177.94 10131.3,6176.82 10142.1,6173.52 10152.2,6168.16 10160.9,6160.95 10168.2,6152.16 10173.5,6142.13 10176.8,6131.25 10177.9,6119.94 10177.9,119.937 10176.8,108.621 10173.5,97.741 10168.2,87.713 10160.9,78.923 10152.2,71.711 10142.1,66.351 10131.3,63.051 10119.9,61.937 119.937,61.937 108.621,63.051 97.741,66.351 87.713,71.711 78.923,78.923 71.711,87.713 66.351,97.741 63.051,108.621 61.937,119.937 61.937,6119.94" style="stroke:rgb(0,0,0);stroke-width:1px;fill:none;stroke-opacity:1;stroke-linecap:round;stroke-linejoin:round;;fill:none"/>
</svg>
