<?xml version="1.0" standalone="no"?>
<!DOCTYPE svg PUBLIC "-//W3C//DTD SVG 1.1//EN"
"http://www.w3.org/Graphics/SVG/1.1/DTD/svg11.dtd">
<svg width="491.514" height="299.514" viewBox="0 0 10239.9 6239.87" version="1.1"
xmlns="http://www.w3.org/2000/svg"
xmlns:xlink="http://www.w3.org/1999/xlink">
<polyline points="33.937,6119.94 35.589,6136.71 40.483,6152.85 48.429,6167.72 59.125,6180.75 72.157,6191.44 87.025,6199.39 103.159,6204.28 119.937,6205.94 10119.9,6205.94 10136.7,6204.28 10152.8,6199.39 10167.7,6191.44 10180.7,6180.75 10191.4,6167.72 10199.4,6152.85 10204.3,6136.71 10205.9,6119.94 10205.9,119.937 10204.3,103.159 10199.4,87.025 10191.4,72.157 10180.7,59.125 10167.7,48.429 10152.8,40.483 10136.7,35.589 10119.9,33.937 119.937,33.937 103.159,35.589 87.025,40.483 72.157,48.429 59.125,59.125 48.429,72.157 40.483,87.025 35.589,103.159 33.937,119.937 33.937,6119.94" style="stroke:rgb(103,198,105);stroke-width:116.000000;fill:none;stroke-opacity:0.5;stroke-linecap:round;stroke-linejoin:round;;fill:none"/>
<polyline points="33.937,6119.94 35.589,6136.71 40.483,6152.85 48.429,6167.72 59.125,6180.75 72.157,6191.44 87.025,6199.39 103.159,6204.28 119.937,6205.94 10119.9,6205.94 10136.7,6204.28 10152.8,6199.39 10167.7,6191.44 10180.7,6180.75 10191.4,6167.72 10199.4,6152.85 10204.3,6136.71 10205.9,6119.94 10205.9,119.937 10204.3,103.159 10199.4,87.025 10191.4,72.157 10180.7,59.125 10167.7,48.429 10152.8,40.483 10136.7,35.589 10119.9,33.937 119.937,33.937 103.159,35.589 87.025,40.483 72.157,48.429 59.125,59.125 48.429,72.157 40.483,87.025 35.589,103.159 33.937,119.937 33.937,6119.94" style="stroke:rgb(0,0,0);stroke-width:1px;fill:none;stroke-opacity:1;stroke-linecap:round;stroke-linejoin:round;;fill:none"/>
</svg>
